<?xml version="1.0" encoding="UTF-8"?>
<svg xmlns="http://www.w3.org/2000/svg" xmlns:xlink="http://www.w3.org/1999/xlink" width="32px" height="32px" viewBox="0 0 32 32" version="1.1">
  <path d="M6,6 V26 H26 V6 ZM 16.957031 9.640625 C 18.214844 9.640625 20.660156 10.054688 20.660156 11.570312 C 20.660156 12.1875 20.230469 12.722656 19.59375 12.722656 C 18.886719 12.722656 18.40625 12.121094 16.957031 12.121094 C 14.820312 12.121094 13.71875 13.929688 13.71875 16.03125 C 13.71875 18.078125 14.839844 19.835938 16.957031 19.835938 C 18.40625 19.835938 18.988281 19.113281 19.695312 19.113281 C 20.472656 19.113281 20.832031 19.890625 20.832031 20.285156 C 20.832031 21.9375 18.230469 22.316406 16.957031 22.316406 C 13.460938 22.316406 11.03125 19.542969 11.03125 15.976562 C 11.03125 12.394531 13.441406 9.640625 16.957031 9.640625 Z M 16.957031 9.640625 "/>
</svg>
