<?xml version="1.0" encoding="UTF-8"?>
<svg width="32" height="32" xmlns="http://www.w3.org/2000/svg">
  <path d="M2,6 V26 H30 V6 H2ZM14.52461,17.92124c0,2.08158 -1.32771,2.62728 -2.4557,2.62728c-0.85795,0 -2.28411,-0.33474 -2.28411,-1.4121c0,-0.33474 0.28692,-0.75668 0.6948,-0.75668c0.49508,0 0.93108,0.45851 1.48804,0.45851c0.6948,0 0.6948,-0.64698 0.6948,-1.0436v-5.33333c0,-0.61885 0.39662,-0.96765 0.93108,-0.96765c0.53446,0 0.93108,0.3488 0.93108,0.96765zM14.52461,17.92124z M17.05767,12.64698c0,-0.61885 0.30942,-1.07736 0.96765,-1.07736h3.07454c0.59634,0 0.88045,0.42194 0.88045,0.85513c0,0.42194 -0.29536,0.85513 -0.88045,0.85513h-2.18284v1.81153h2.03375c0.61041,0 0.90577,0.42194 0.90577,0.85795c0,0.41913 -0.30942,0.85513 -0.90577,0.85513h-2.03375v1.88467h2.29536c0.59634,0 0.88045,0.42194 0.88045,0.85513c0,0.42194 -0.29817,0.85795 -0.88045,0.85795h-3.20113c-0.54571,0 -0.95359,-0.37412 -0.95359,-0.93108zM17.05767,12.64698z" />
</svg>