<?xml version="1.0" encoding="UTF-8"?>
<svg width="32" height="32" xmlns="http://www.w3.org/2000/svg">
  <path d="M2,6 V26 H30 V6 H2ZM15.85654,12.59916v6.80169c0,0.55134 -0.44726,0.99859 -0.99859,0.99859c-0.55415,0 -1.00141,-0.44726 -1.00141,-0.99859v-2.60197h-4v2.60197c0,0.55134 -0.44726,0.99859 -1.00141,0.99859c-0.55134,0 -0.99859,-0.44726 -0.99859,-0.99859v-6.80169c0,-0.55134 0.44726,-0.99859 0.99859,-0.99859c0.55415,0 1.00141,0.44726 1.00141,0.99859v2.19972h4v-2.19972c0,-0.55134 0.44726,-0.99859 1.00141,-0.99859c0.55134,0 0.99859,0.44726 0.99859,0.99859zM14.85795,11.60056z M18.11111,12.53727c0,-0.59634 0.33474,-0.96765 0.95359,-0.96765h2.18284c1.9128,0 3.08861,0.85513 3.08861,2.80169c0,1.36428 -1.02954,2.14627 -2.29254,2.34599l2.10689,2.25598c0.1744,0.18847 0.24754,0.37412 0.24754,0.54571c0,0.48383 -0.38256,0.9564 -0.92827,0.9564c-0.22504,0 -0.52039,-0.0872 -0.72011,-0.32349l-2.75387,-3.33615h-0.02532v2.69198c0,0.61885 -0.39662,0.96765 -0.92827,0.96765c-0.53446,0 -0.93108,-0.3488 -0.93108,-0.96765zM19.97046,15.47679h1.27707c0.68354,0 1.1533,-0.41069 1.1533,-1.10549c0,-0.70605 -0.46976,-1.09142 -1.1533,-1.09142h-1.27707zM19.97046,15.47679z" />
</svg>