<?xml version="1.0" encoding="UTF-8"?>
<svg width="32" height="32" xmlns="http://www.w3.org/2000/svg">
  <path d="M2,6 V26 H30 V6 H2ZM12.25941,11.42053c0.90577,0 2.66667,0.29817 2.66667,1.38959c0,0.44444 -0.30942,0.82982 -0.76793,0.82982c-0.50914,0 -0.85513,-0.43319 -1.89873,-0.43319c-1.53868,0 -2.33193,1.30239 -2.33193,2.81575c0,1.47398 0.80731,2.7398 2.33193,2.7398c1.0436,0 1.46273,-0.52039 1.97187,-0.52039c0.55978,0 0.81857,0.55978 0.81857,0.84388c0,1.18987 -1.87342,1.46273 -2.79044,1.46273c-2.51758,0 -4.26723,-1.99719 -4.26723,-4.5654c0,-2.57947 1.73558,-4.56259 4.26723,-4.56259zM12.25941,11.42053z M17.23708,12.4135c0,-0.50914 0.37131,-0.91983 0.92827,-0.91983c0.53446,0 0.93108,0.3488 0.93108,0.91983v2.67792l3.05204,-3.24895c0.13502,-0.14909 0.37131,-0.3488 0.7173,-0.3488c0.47257,0 0.91983,0.36006 0.91983,0.89451c0,0.32068 -0.19972,0.58228 -0.60759,0.99015l-2.34599,2.30661l2.86639,2.99015c0.29817,0.29817 0.52039,0.57103 0.52039,0.94515c0,0.58228 -0.45851,0.85513 -0.96765,0.85513c-0.36006,0 -0.59353,-0.21097 -0.94233,-0.58228l-3.21238,-3.47398v3.16174c0,0.48383 -0.37412,0.89452 -0.93108,0.89452c-0.53446,0 -0.93108,-0.3488 -0.93108,-0.89452v-7.16737zM17.23708,12.4135z" />
</svg>