<?xml version="1.0" encoding="UTF-8"?>
<svg width="32" height="32" xmlns="http://www.w3.org/2000/svg">
  <path d="M2,6 V26 H30 V6 H2ZM11.58765,12.46132c0,-0.61885 0.39662,-0.96765 0.93108,-0.96765c0.53446,0 0.93108,0.3488 0.93108,0.96765v7.04641c0,0.61885 -0.39662,0.96765 -0.93108,0.96765c-0.53165,0 -0.93108,-0.3488 -0.93108,-0.96765zM11.58765,12.46132z M15.8467,12.46132c0,-0.61885 0.39662,-0.96765 0.93108,-0.96765c0.53446,0 0.93108,0.3488 0.93108,0.96765v6.22785h2.20816c0.6301,0 0.90577,0.46976 0.8917,0.8917c-0.02532,0.41069 -0.34599,0.81857 -0.8917,0.81857h-3.10267c-0.60759,0 -0.96765,-0.39662 -0.96765,-1.01547zM15.8467,12.46132z" />
</svg>