<?xml version="1.0" encoding="UTF-8"?>
<svg width="32" height="32" xmlns="http://www.w3.org/2000/svg">
  <path d="M2,6 V26 H30 V6 H2ZM13.40234,15.16456c0.782,0 1.09423,0.39944 1.09423,1.19269c0,2.39381 -1.56399,4.19128 -4.04501,4.19128c-2.51758,0 -4.26723,-1.99719 -4.26723,-4.56259c0,-2.58228 1.73558,-4.5654 4.26723,-4.5654c1.87342,0 3.4121,0.88045 3.4121,1.74965c0,0.53165 -0.33474,0.86639 -0.77074,0.86639c-0.84388,0 -1.01547,-0.90577 -2.64135,-0.90577c-1.54993,0 -2.33193,1.35302 -2.33193,2.85513c0,1.51055 0.75668,2.85232 2.33193,2.85232c0.9789,0 2.1097,-0.54571 2.1097,-1.96062h-1.26582c-0.50914,0 -0.8692,-0.36006 -0.8692,-0.86639c0,-0.52321 0.39662,-0.84388 0.8692,-0.84388h2.10689zM13.40234,15.16456z M16.78894,12.45007c0.07314,-0.44726 0.55696,-0.9564 1.21519,-0.9564c0.61885,0 1.10267,0.44726 1.24051,0.89451l1.46273,4.91139h0.02532l1.46273,-4.91139c0.13783,-0.44726 0.62166,-0.89451 1.24051,-0.89451c0.65823,0 1.14205,0.50914 1.21519,0.9564l1.1533,6.92264c0.01406,0.07314 0.01406,0.14627 0.01406,0.20816c0,0.54571 -0.39662,0.89452 -0.89451,0.89452c-0.63291,0 -0.88045,-0.28692 -0.96765,-0.8692l-0.73136,-5.04923h-0.02532l-1.48804,5.19831c-0.0872,0.29817 -0.32067,0.72011 -0.99297,0.72011c-0.66948,0 -0.90295,-0.42194 -0.99015,-0.72011l-1.48804,-5.19831h-0.02532l-0.73418,5.04923c-0.08439,0.58228 -0.33474,0.8692 -0.96484,0.8692c-0.49789,0 -0.89451,-0.34599 -0.89451,-0.89452c0,-0.05907 0,-0.13502 0.01125,-0.20816zM16.78894,12.45007z" />
</svg>