<?xml version="1.0" encoding="UTF-8"?>
<svg width="32" height="32" xmlns="http://www.w3.org/2000/svg">
  <path d="M2,6 V26 H30 V6 H2ZM14.49771,15.16456c0.782,0 1.09423,0.39944 1.09423,1.19269c0,2.39381 -1.56399,4.19128 -4.04501,4.19128c-2.51758,0 -4.26723,-1.99719 -4.26723,-4.56259c0,-2.58228 1.73558,-4.5654 4.26723,-4.5654c1.87342,0 3.4121,0.88045 3.4121,1.74965c0,0.53165 -0.33474,0.86639 -0.77074,0.86639c-0.84388,0 -1.01547,-0.90577 -2.64135,-0.90577c-1.54993,0 -2.33193,1.35302 -2.33193,2.85513c0,1.51055 0.75668,2.85232 2.33193,2.85232c0.9789,0 2.1097,-0.54571 2.1097,-1.96062h-1.26582c-0.50914,0 -0.8692,-0.36006 -0.8692,-0.86639c0,-0.52321 0.39662,-0.84388 0.8692,-0.84388h2.10689zM14.49771,15.16456z M17.45306,12.52321c0,-0.57103 0.39662,-0.95359 0.9564,-0.95359h2.05907c2.77637,0 4.36568,1.78622 4.36568,4.54008c0,2.60478 -1.68776,4.28973 -4.24191,4.28973h-2.16034c-0.40788,0 -0.9789,-0.22222 -0.9789,-0.92827zM19.31523,18.68917h1.25176c1.60056,0 2.33193,-1.17862 2.33193,-2.66667c0,-1.58931 -0.74262,-2.74262 -2.4557,-2.74262h-1.12799zM19.31523,18.68917z" />
</svg>