<?xml version="1.0" encoding="UTF-8"?>
<svg xmlns="http://www.w3.org/2000/svg" xmlns:xlink="http://www.w3.org/1999/xlink" width="32px" height="32px" viewBox="0 0 32 32" version="1.1">
  <path d="M6,6 V26 H26 V6 ZM 14.191406 11.070312 C 14.484375 10.277344 15.15625 9.640625 16.035156 9.640625 C 16.949219 9.640625 17.585938 10.242188 17.878906 11.070312 L 21.253906 20.441406 C 21.359375 20.714844 21.394531 20.957031 21.394531 21.078125 C 21.394531 21.75 20.839844 22.214844 20.203125 22.214844 C 19.480469 22.214844 19.117188 21.835938 18.945312 21.320312 L 18.429688 19.699219 L 13.640625 19.699219 L 13.125 21.300781 C 12.953125 21.835938 12.589844 22.214844 11.882812 22.214844 C 11.195312 22.214844 10.609375 21.695312 10.609375 21.007812 C 10.609375 20.734375 10.695312 20.527344 10.730469 20.441406 Z M 14.382812 17.324219 L 17.65625 17.324219 L 16.054688 12.328125 L 16.019531 12.328125 Z M 14.382812 17.324219 "/>
</svg>
