<?xml version="1.0" encoding="UTF-8"?>
<svg width="32" height="32" xmlns="http://www.w3.org/2000/svg">
  <path d="M2,6 V26 H30 V6 H2ZM8.92493,12.49789c0,-0.59353 0.41069,-0.92827 0.9789,-0.92827h2.38256c1.29114,0 2.33193,0.86639 2.33193,2.18284c0,0.86639 -0.36006,1.45148 -1.1533,1.82278v0.02532c1.05485,0.14909 1.88467,1.02954 1.88467,2.1097c0,1.74684 -1.16456,2.69198 -2.87764,2.69198h-2.55415c-0.57103,0 -0.99297,-0.36006 -0.99297,-0.94233zM10.7871,15.0661h0.96765c0.60759,0 1.00422,-0.36006 1.00422,-0.9789c0,-0.58228 -0.45851,-0.88045 -1.00422,-0.88045h-0.96765zM10.7871,18.76231h1.46273c0.66948,0 1.16456,-0.38256 1.16456,-1.07736c0,-0.58509 -0.44444,-0.98172 -1.31364,-0.98172h-1.31364zM10.7871,18.76231z M23.11445,12.95921l-2.07595,2.91983v3.36428c0,0.63854 -0.51758,1.15612 -1.15612,1.15612h-0.09001c-0.63854,0 -1.15612,-0.51758 -1.15612,-1.15612v-3.36709l-2.07314,-2.91702c-0.1097,-0.16315 -0.1744,-0.36006 -0.1744,-0.55978c0,-0.49508 0.37412,-0.90577 0.89451,-0.90577c0.32349,0 0.60759,0.13783 0.76793,0.37412l1.78622,2.59072l1.78622,-2.59072c0.16034,-0.23629 0.44726,-0.37412 0.77074,-0.37412c0.52039,0 0.8917,0.41069 0.8917,0.90577c0,0.19972 -0.06188,0.39662 -0.17159,0.55978zM23.28604,12.39944z" />
</svg>