<?xml version="1.0" encoding="UTF-8"?>
<svg width="32" height="32" xmlns="http://www.w3.org/2000/svg">
  <path d="M2,6 V26 H30 V6 H2ZM12.06109,11.42053c0.90577,0 2.66667,0.29817 2.66667,1.38959c0,0.44444 -0.30942,0.82982 -0.76793,0.82982c-0.50914,0 -0.85513,-0.43319 -1.89873,-0.43319c-1.53868,0 -2.33193,1.30239 -2.33193,2.81575c0,1.47398 0.80731,2.7398 2.33193,2.7398c1.0436,0 1.46273,-0.52039 1.97187,-0.52039c0.55978,0 0.81857,0.55978 0.81857,0.84388c0,1.18987 -1.87342,1.46273 -2.79044,1.46273c-2.51758,0 -4.26723,-1.99719 -4.26723,-4.5654c0,-2.57947 1.73558,-4.56259 4.26723,-4.56259zM12.06109,11.42053z M16.88827,12.52321c0,-0.57103 0.39662,-0.95359 0.9564,-0.95359h2.05907c2.77637,0 4.36568,1.78622 4.36568,4.54008c0,2.60478 -1.68776,4.28973 -4.24191,4.28973h-2.16034c-0.40788,0 -0.9789,-0.22222 -0.9789,-0.92827zM18.75044,18.68917h1.25176c1.60056,0 2.33193,-1.17862 2.33193,-2.66667c0,-1.58931 -0.74262,-2.74262 -2.4557,-2.74262h-1.12799zM18.75044,18.68917z" />
</svg>