<?xml version="1.0" encoding="UTF-8"?>
<svg width="32" height="32" xmlns="http://www.w3.org/2000/svg">
  <path d="M2,6 V26 H30 V6 H2ZM9.77057,12.46132c0,-0.61885 0.39662,-0.96765 0.93108,-0.96765c0.53446,0 0.93108,0.3488 0.93108,0.96765v7.04641c0,0.61885 -0.39662,0.96765 -0.93108,0.96765c-0.53165,0 -0.93108,-0.3488 -0.93108,-0.96765zM9.77057,12.46132z M19.98892,20.00281c-0.60759,0.3488 -1.33896,0.54571 -2.18284,0.54571c-2.51758,0 -4.26723,-1.99719 -4.26723,-4.56259c0,-2.58228 1.7384,-4.5654 4.26723,-4.5654c2.49508,0 4.26723,2.04501 4.26723,4.5654c0,1.09142 -0.28411,2.08158 -0.82982,2.86357l0.70605,0.60759c0.23629,0.21097 0.43601,0.41069 0.43601,0.75668c0,0.43601 -0.43601,0.782 -0.85795,0.782c-0.27286,0 -0.49508,-0.1097 -0.82982,-0.39662zM19.84265,17.57243c0.20816,-0.47257 0.29536,-1.01547 0.29536,-1.5865c0,-1.47679 -0.77918,-2.85513 -2.33193,-2.85513c-1.54993,0 -2.33193,1.35302 -2.33193,2.85513c0,1.51055 0.75668,2.85232 2.33193,2.85232c0.28692,0 0.54571,-0.03657 0.79325,-0.0872l-0.44444,-0.43319c-0.13783,-0.12658 -0.23629,-0.32349 -0.23629,-0.49789c0,-0.48383 0.33474,-0.8917 0.84388,-0.8917c0.1744,0 0.32068,0.06189 0.46976,0.16034zM19.84265,17.57243z" />
</svg>