<?xml version="1.0" encoding="UTF-8"?>
<svg width="32" height="32" xmlns="http://www.w3.org/2000/svg">
  <path d="M2,6 V26 H30 V6 H2ZM8.65207,12.49789c0,-0.59353 0.41069,-0.92827 0.9789,-0.92827h2.38256c1.29114,0 2.33193,0.86639 2.33193,2.18284c0,0.86639 -0.36006,1.45148 -1.1533,1.82278v0.02532c1.05485,0.14909 1.88467,1.02954 1.88467,2.1097c0,1.74684 -1.16456,2.69198 -2.87764,2.69198h-2.55415c-0.57103,0 -0.99297,-0.36006 -0.99297,-0.94233zM10.51424,15.0661h0.96765c0.60759,0 1.00422,-0.36006 1.00422,-0.9789c0,-0.58228 -0.45851,-0.88045 -1.00422,-0.88045h-0.96765zM10.51424,18.76231h1.46273c0.66948,0 1.16456,-0.38256 1.16456,-1.07736c0,-0.58509 -0.44444,-0.98172 -1.31364,-0.98172h-1.31364zM10.51424,18.76231z M16.20306,12.8467c-0.06188,-0.16034 -0.0872,-0.28692 -0.0872,-0.45851c0,-0.52039 0.45851,-0.89451 0.9564,-0.89451c0.42194,0 0.68073,0.27285 0.84388,0.60759l1.92124,5.16174l1.92405,-5.16174c0.16034,-0.33474 0.42194,-0.60759 0.84107,-0.60759c0.49789,0 0.9564,0.37412 0.9564,0.89451c0,0.17159 -0.02532,0.29817 -0.0872,0.45851l-2.71449,6.90858c-0.16315,0.39662 -0.37412,0.72011 -0.91983,0.72011c-0.54571,0 -0.75668,-0.32349 -0.91702,-0.72011zM16.20306,12.8467z" />
</svg>