<?xml version="1.0" encoding="UTF-8"?>
<svg width="32" height="32" xmlns="http://www.w3.org/2000/svg">
  <path d="M2,6 V26 H30 V6 H2ZM12.19374,11.42053c0.90577,0 2.66667,0.29817 2.66667,1.38959c0,0.44444 -0.30942,0.82982 -0.76793,0.82982c-0.50914,0 -0.85513,-0.43319 -1.89873,-0.43319c-1.53868,0 -2.33193,1.30239 -2.33193,2.81575c0,1.47398 0.80731,2.7398 2.33193,2.7398c1.0436,0 1.46273,-0.52039 1.97187,-0.52039c0.55978,0 0.81857,0.55978 0.81857,0.84388c0,1.18987 -1.87342,1.46273 -2.79044,1.46273c-2.51758,0 -4.26723,-1.99719 -4.26723,-4.5654c0,-2.57947 1.73558,-4.56259 4.26723,-4.56259zM12.19374,11.42053z M19.20148,15.6737l-2.01125,-2.72855c-0.12377,-0.16034 -0.19691,-0.34599 -0.19691,-0.54571c0,-0.54571 0.40788,-0.90577 0.94233,-0.90577c0.30942,0 0.63291,0.21097 0.8045,0.45851l1.53868,2.18565l1.53868,-2.18565c0.1744,-0.24754 0.49508,-0.45851 0.80731,-0.45851c0.53165,0 0.94233,0.36006 0.94233,0.90577c0,0.19972 -0.07314,0.38537 -0.19691,0.54571l-2.01125,2.72855l2.4557,3.29958c0.09845,0.13783 0.21097,0.37412 0.21097,0.63291c0,0.52039 -0.39662,0.8692 -0.94233,0.8692c-0.33474,0 -0.58228,-0.14909 -0.76793,-0.41069l-2.03657,-2.827l-2.03376,2.827c-0.18565,0.2616 -0.43319,0.41069 -0.76793,0.41069c-0.54571,0 -0.94233,-0.3488 -0.94233,-0.8692c0,-0.25879 0.1097,-0.49508 0.21097,-0.63291zM19.20148,15.6737z" />
</svg>