<?xml version="1.0" encoding="UTF-8"?>
<svg width="32" height="32" xmlns="http://www.w3.org/2000/svg">
  <path d="M2,6 V26 H30 V6 H2ZM8.26688,12.52321c0,-0.57103 0.39662,-0.95359 0.9564,-0.95359h2.05907c2.77637,0 4.36568,1.78622 4.36568,4.54008c0,2.60478 -1.68776,4.28973 -4.24191,4.28973h-2.16034c-0.40788,0 -0.9789,-0.22222 -0.9789,-0.92827zM10.12904,18.68917h1.25176c1.60056,0 2.33193,-1.17862 2.33193,-2.66667c0,-1.58931 -0.74262,-2.74262 -2.4557,-2.74262h-1.12799zM10.12904,18.68917z M22.95253,18.76231c0.52039,0 0.89452,0.28692 0.89452,0.81856c0,0.47257 -0.44726,0.81857 -0.89452,0.81857h-4.87482c-0.65541,0 -1.04079,-0.37131 -1.04079,-0.8917c0,-0.24754 0.0872,-0.49508 0.24754,-0.72011l3.99437,-5.58087h-3.26301c-0.49508,0 -0.86638,-0.28692 -0.86638,-0.79325c0,-0.47257 0.39662,-0.84388 0.86638,-0.84388h4.54008c0.72011,0 1.04079,0.45851 1.04079,0.8917c0,0.27285 -0.1097,0.58509 -0.27285,0.79325l-3.96906,5.50774zM22.95253,18.76231z" />
</svg>