<?xml version="1.0" encoding="UTF-8"?>
<svg width="32" height="32" xmlns="http://www.w3.org/2000/svg">
  <path d="M2,6 V26 H30 V6 H2ZM9.15295,12.49789c0,-0.59353 0.41069,-0.92827 0.9789,-0.92827h2.38256c1.29114,0 2.33193,0.86639 2.33193,2.18284c0,0.86639 -0.36006,1.45148 -1.1533,1.82278v0.02532c1.05485,0.14909 1.88467,1.02954 1.88467,2.1097c0,1.74684 -1.16456,2.69198 -2.87764,2.69198h-2.55415c-0.57103,0 -0.99297,-0.36006 -0.99297,-0.94233zM11.01512,15.0661h0.96765c0.60759,0 1.00422,-0.36006 1.00422,-0.9789c0,-0.58228 -0.45851,-0.88045 -1.00422,-0.88045h-0.96765zM11.01512,18.76231h1.46273c0.66948,0 1.16456,-0.38256 1.16456,-1.07736c0,-0.58509 -0.44444,-0.98172 -1.31364,-0.98172h-1.31364zM11.01512,18.76231z M22.41245,12.66104c0,0.48383 -0.32349,0.91702 -0.82982,0.91702c-0.50914,0 -0.90577,-0.37131 -1.6512,-0.37131c-0.53165,0 -1.01547,0.28411 -1.01547,0.8045c0,1.27989 4.14346,0.46132 4.14346,3.65963c0,1.77496 -1.46554,2.87764 -3.17581,2.87764c-0.9564,0 -3.01547,-0.22222 -3.01547,-1.38959c0,-0.48383 0.32349,-0.88045 0.83263,-0.88045c0.58228,0 1.27707,0.48383 2.08158,0.48383c0.81857,0 1.26582,-0.45851 1.26582,-1.0661c0,-1.46273 -4.14346,-0.58228 -4.14346,-3.45992c0,-1.7384 1.42616,-2.81575 3.07736,-2.81575c0.6948,0 2.43038,0.25879 2.43038,1.24051zM22.41245,12.66104z" />
</svg>