<?xml version="1.0" encoding="UTF-8"?>
<svg width="32" height="32" xmlns="http://www.w3.org/2000/svg">
  <path d="M2,6 V26 H30 V6 H2ZM9.78745,12.53727c0,-0.50914 0.34599,-0.96765 0.96765,-0.96765h3.173c0.54852,0 0.83263,0.42194 0.83263,0.85513c0,0.42194 -0.27285,0.85513 -0.83263,0.85513h-2.28129v1.81153h1.92405c0.59353,0 0.8917,0.42194 0.8917,0.84388c0,0.43319 -0.29817,0.8692 -0.8917,0.8692h-1.92405v2.70323c0,0.62166 -0.39662,0.96765 -0.93108,0.96765c-0.53165,0 -0.93108,-0.34599 -0.93108,-0.96765v-6.97046zM9.78745,12.53727z M16.47416,12.53727c0,-0.59634 0.33474,-0.96765 0.95359,-0.96765h2.18284c1.9128,0 3.08861,0.85513 3.08861,2.80169c0,1.36428 -1.02954,2.14627 -2.29254,2.34599l2.10689,2.25598c0.1744,0.18847 0.24754,0.37412 0.24754,0.54571c0,0.48383 -0.38256,0.9564 -0.92827,0.9564c-0.22504,0 -0.52039,-0.0872 -0.72011,-0.32349l-2.75387,-3.33615h-0.02532v2.69198c0,0.61885 -0.39662,0.96765 -0.92827,0.96765c-0.53446,0 -0.93108,-0.3488 -0.93108,-0.96765zM18.33351,15.47679h1.27707c0.68354,0 1.1533,-0.41069 1.1533,-1.10549c0,-0.70605 -0.46976,-1.09142 -1.1533,-1.09142h-1.27707zM18.33351,15.47679z" />
</svg>