<?xml version="1.0" encoding="UTF-8"?>
<svg width="32" height="32" xmlns="http://www.w3.org/2000/svg">
  <path d="M2,6 V26 H30 V6 H2ZM9.04096,12.45007c0.21097,-0.57103 0.6948,-1.02954 1.32771,-1.02954c0.65823,0 1.11674,0.43319 1.32771,1.02954l2.43038,6.74824c0.07595,0.19691 0.10127,0.37131 0.10127,0.45851c0,0.48383 -0.39944,0.81857 -0.85795,0.81857c-0.52039,0 -0.782,-0.27285 -0.90577,-0.64416l-0.37131,-1.16737h-3.44866l-0.37131,1.1533c-0.12377,0.38537 -0.38537,0.65823 -0.89452,0.65823c-0.49508,0 -0.91702,-0.37412 -0.91702,-0.8692c0,-0.19691 0.06188,-0.34599 0.0872,-0.40788zM9.1788,16.95359h2.35724l-1.1533,-3.59775h-0.02532zM9.1788,16.95359z M14.52584,12.73418c-0.03657,-0.16034 -0.04782,-0.24754 -0.04782,-0.42194c0,-0.39662 0.33474,-0.81856 0.88045,-0.81856c0.59353,0 0.88045,0.3488 0.99015,0.89451l1.05485,5.27145h0.02532l1.61181,-5.4346c0.13783,-0.44444 0.50914,-0.73136 0.96765,-0.73136c0.46132,0 0.83263,0.28692 0.96765,0.73136l1.61181,5.4346h0.02532l1.05485,-5.27145c0.11252,-0.54571 0.39662,-0.89451 0.99297,-0.89451c0.54571,0 0.88045,0.42194 0.88045,0.81856c0,0.1744 -0.01125,0.2616 -0.05063,0.42194l-1.57243,6.77356c-0.12658,0.52039 -0.53446,0.96765 -1.22926,0.96765c-0.60759,0 -1.08017,-0.39662 -1.22644,-0.90577l-1.44022,-4.78762h-0.02532l-1.43741,4.78762c-0.14909,0.50914 -0.62166,0.90577 -1.22925,0.90577c-0.6948,0 -1.10267,-0.44726 -1.22925,-0.96765zM14.52584,12.73418z" />
</svg>