<?xml version="1.0" encoding="UTF-8"?>
<svg width="32" height="32" xmlns="http://www.w3.org/2000/svg">
  <path d="M2,6 V26 H30 V6 H2ZM11.9448,11.42053c0.90577,0 2.66667,0.29817 2.66667,1.38959c0,0.44444 -0.30942,0.82982 -0.76793,0.82982c-0.50914,0 -0.85513,-0.43319 -1.89873,-0.43319c-1.53868,0 -2.33193,1.30239 -2.33193,2.81575c0,1.47398 0.80731,2.7398 2.33193,2.7398c1.0436,0 1.46273,-0.52039 1.97187,-0.52039c0.55978,0 0.81857,0.55978 0.81857,0.84388c0,1.18987 -1.87342,1.46273 -2.79044,1.46273c-2.51758,0 -4.26723,-1.99719 -4.26723,-4.5654c0,-2.57947 1.73558,-4.56259 4.26723,-4.56259zM11.9448,11.42053z M16.27883,12.46132c0,-0.61885 0.46695,-0.96765 0.99859,-0.96765c0.53446,0 1.00141,0.3488 1.00141,0.96765v4.32911c0,1.14205 0.82138,1.96906 2,1.96906c1.12799,0 2,-0.87764 2,-1.96906v-4.32911c0,-0.61885 0.46695,-0.96765 1.00141,-0.96765c0.53165,0 0.98734,0.3488 0.98734,0.96765v4.42757c0,2.08439 -1.94374,3.65963 -3.98875,3.65963c-2.07032,0 -4,-1.54993 -4,-3.65963zM16.27883,12.46132z" />
</svg>