<?xml version="1.0" encoding="UTF-8"?>
<svg width="32" height="32" xmlns="http://www.w3.org/2000/svg">
  <path d="M2,6 V26 H30 V6 H2ZM9.92669,12.46132c0,-0.61885 0.39662,-0.96765 0.93108,-0.96765c0.53446,0 0.93108,0.3488 0.93108,0.96765v7.04641c0,0.61885 -0.39662,0.96765 -0.93108,0.96765c-0.53165,0 -0.93108,-0.3488 -0.93108,-0.96765zM9.92669,12.46132z M13.53885,15.98594c0,-2.58228 1.7384,-4.5654 4.26723,-4.5654c2.49508,0 4.26723,2.04501 4.26723,4.5654c0,2.5654 -1.72433,4.56259 -4.26723,4.56259c-2.51758,0 -4.26723,-1.99719 -4.26723,-4.56259zM20.13801,15.98594c0,-1.50211 -0.77918,-2.85513 -2.33193,-2.85513c-1.54993,0 -2.33193,1.35302 -2.33193,2.85513c0,1.51055 0.75668,2.85232 2.33193,2.85232c1.57525,0 2.33193,-1.34177 2.33193,-2.85232zM20.13801,15.98594z" />
</svg>