<?xml version="1.0" encoding="UTF-8"?>
<svg width="32" height="32" xmlns="http://www.w3.org/2000/svg">
  <path d="M2,6 V26 H30 V6 H2ZM10.32718,12.45007c0.21097,-0.57103 0.6948,-1.02954 1.32771,-1.02954c0.65823,0 1.11674,0.43319 1.32771,1.02954l2.43038,6.74824c0.07595,0.19691 0.10127,0.37131 0.10127,0.45851c0,0.48383 -0.39944,0.81857 -0.85795,0.81857c-0.52039,0 -0.782,-0.27285 -0.90577,-0.64416l-0.37131,-1.16737h-3.44866l-0.37131,1.1533c-0.12377,0.38537 -0.38537,0.65823 -0.89452,0.65823c-0.49508,0 -0.91702,-0.37412 -0.91702,-0.8692c0,-0.19691 0.06188,-0.34599 0.0872,-0.40788zM10.46501,16.95359h2.35724l-1.1533,-3.59775h-0.02532zM10.46501,16.95359z M19.43091,15.6737l-2.01125,-2.72855c-0.12377,-0.16034 -0.19691,-0.34599 -0.19691,-0.54571c0,-0.54571 0.40788,-0.90577 0.94233,-0.90577c0.30942,0 0.63291,0.21097 0.8045,0.45851l1.53868,2.18565l1.53868,-2.18565c0.1744,-0.24754 0.49508,-0.45851 0.80731,-0.45851c0.53165,0 0.94233,0.36006 0.94233,0.90577c0,0.19972 -0.07314,0.38537 -0.19691,0.54571l-2.01125,2.72855l2.4557,3.29958c0.09845,0.13783 0.21097,0.37412 0.21097,0.63291c0,0.52039 -0.39662,0.8692 -0.94233,0.8692c-0.33474,0 -0.58228,-0.14909 -0.76793,-0.41069l-2.03657,-2.827l-2.03376,2.827c-0.18565,0.2616 -0.43319,0.41069 -0.76793,0.41069c-0.54571,0 -0.94233,-0.3488 -0.94233,-0.8692c0,-0.25879 0.1097,-0.49508 0.21097,-0.63291zM19.43091,15.6737z" />
</svg>