<?xml version="1.0" encoding="UTF-8"?>
<svg width="32" height="32" xmlns="http://www.w3.org/2000/svg">
  <path d="M2,6 V26 H30 V6 H2ZM9.48954,12.52321c0,-0.57103 0.39662,-0.95359 0.9564,-0.95359h2.05907c2.77637,0 4.36568,1.78622 4.36568,4.54008c0,2.60478 -1.68776,4.28973 -4.24191,4.28973h-2.16034c-0.40788,0 -0.9789,-0.22222 -0.9789,-0.92827zM11.35171,18.68917h1.25176c1.60056,0 2.33193,-1.17862 2.33193,-2.66667c0,-1.58931 -0.74262,-2.74262 -2.4557,-2.74262h-1.12799zM11.35171,18.68917z M22.29527,17.92124c0,2.08158 -1.32771,2.62728 -2.4557,2.62728c-0.85795,0 -2.28411,-0.33474 -2.28411,-1.4121c0,-0.33474 0.28692,-0.75668 0.6948,-0.75668c0.49508,0 0.93108,0.45851 1.48804,0.45851c0.6948,0 0.6948,-0.64698 0.6948,-1.0436v-5.33333c0,-0.61885 0.39662,-0.96765 0.93108,-0.96765c0.53446,0 0.93108,0.3488 0.93108,0.96765zM22.29527,17.92124z" />
</svg>