<?xml version="1.0" encoding="UTF-8"?>
<svg width="32" height="32" xmlns="http://www.w3.org/2000/svg">
  <path d="M2,6 V26 H30 V6 H2ZM10.37834,12.46132c0,-0.61885 0.39662,-0.96765 0.93108,-0.96765c0.53446,0 0.93108,0.3488 0.93108,0.96765v7.04641c0,0.61885 -0.39662,0.96765 -0.93108,0.96765c-0.53165,0 -0.93108,-0.3488 -0.93108,-0.96765zM10.37834,12.46132z M14.35302,12.52321c0,-0.57103 0.39662,-0.95359 0.9564,-0.95359h2.05907c2.77637,0 4.36568,1.78622 4.36568,4.54008c0,2.60478 -1.68776,4.28973 -4.24191,4.28973h-2.16034c-0.40788,0 -0.9789,-0.22222 -0.9789,-0.92827zM16.21519,18.68917h1.25176c1.60056,0 2.33193,-1.17862 2.33193,-2.66667c0,-1.58931 -0.74262,-2.74262 -2.4557,-2.74262h-1.12799zM16.21519,18.68917z" />
</svg>