<?xml version="1.0" encoding="UTF-8"?>
<svg width="32" height="32" xmlns="http://www.w3.org/2000/svg">
  <path d="M2,6 V26 H30 V6 H2ZM14.18829,15.16456c0.782,0 1.09423,0.39944 1.09423,1.19269c0,2.39381 -1.56399,4.19128 -4.04501,4.19128c-2.51758,0 -4.26723,-1.99719 -4.26723,-4.56259c0,-2.58228 1.73558,-4.5654 4.26723,-4.5654c1.87342,0 3.4121,0.88045 3.4121,1.74965c0,0.53165 -0.33474,0.86639 -0.77074,0.86639c-0.84388,0 -1.01547,-0.90577 -2.64135,-0.90577c-1.54993,0 -2.33193,1.35302 -2.33193,2.85513c0,1.51055 0.75668,2.85232 2.33193,2.85232c0.9789,0 2.1097,-0.54571 2.1097,-1.96062h-1.26582c-0.50914,0 -0.8692,-0.36006 -0.8692,-0.86639c0,-0.52321 0.39662,-0.84388 0.8692,-0.84388h2.10689zM14.18829,15.16456z M25.03112,12.59916v6.80169c0,0.55134 -0.44726,0.99859 -0.99859,0.99859c-0.55415,0 -1.00141,-0.44726 -1.00141,-0.99859v-2.60197h-4v2.60197c0,0.55134 -0.44726,0.99859 -1.00141,0.99859c-0.55134,0 -0.99859,-0.44726 -0.99859,-0.99859v-6.80169c0,-0.55134 0.44726,-0.99859 0.99859,-0.99859c0.55415,0 1.00141,0.44726 1.00141,0.99859v2.19972h4v-2.19972c0,-0.55134 0.44726,-0.99859 1.00141,-0.99859c0.55134,0 0.99859,0.44726 0.99859,0.99859zM24.03252,11.60056z" />
</svg>