<?xml version="1.0" encoding="UTF-8"?>
<svg width="32" height="32" xmlns="http://www.w3.org/2000/svg">
  <path d="M2,6 V26 H30 V6 H2ZM13.87342,17.92124c0,2.08158 -1.32771,2.62728 -2.4557,2.62728c-0.85795,0 -2.28411,-0.33474 -2.28411,-1.4121c0,-0.33474 0.28692,-0.75668 0.6948,-0.75668c0.49508,0 0.93108,0.45851 1.48804,0.45851c0.6948,0 0.6948,-0.64698 0.6948,-1.0436v-5.33333c0,-0.61885 0.39662,-0.96765 0.93108,-0.96765c0.53446,0 0.93108,0.3488 0.93108,0.96765zM13.87342,17.92124z M16.48101,12.53727c0,-0.58509 0.34599,-0.96765 0.96765,-0.96765h2.19409c1.8256,0 3.17581,1.18987 3.17581,2.96484c0,1.80872 -1.40084,2.93952 -3.09986,2.93952h-1.37834v2.03376c0,0.62166 -0.39662,0.96765 -0.92827,0.96765c-0.53446,0 -0.93108,-0.34599 -0.93108,-0.96765zM18.34037,15.83685h1.26582c0.782,0 1.27707,-0.57103 1.27707,-1.31646c0,-0.74262 -0.49508,-1.31364 -1.27707,-1.31364h-1.26582zM18.34037,15.83685z" />
</svg>