<?xml version="1.0" encoding="UTF-8"?>
<svg width="32" height="32" xmlns="http://www.w3.org/2000/svg">
  <path d="M2,6 V26 H30 V6 H2ZM7.40471,12.52321c0,-0.57103 0.39662,-0.95359 0.9564,-0.95359h2.05907c2.77637,0 4.36568,1.78622 4.36568,4.54008c0,2.60478 -1.68776,4.28973 -4.24191,4.28973h-2.16034c-0.40788,0 -0.9789,-0.22222 -0.9789,-0.92827zM9.26688,18.68917h1.25176c1.60056,0 2.33193,-1.17862 2.33193,-2.66667c0,-1.58931 -0.74262,-2.74262 -2.4557,-2.74262h-1.12799zM9.26688,18.68917z M16.17335,15.98594c0,-2.58228 1.7384,-4.5654 4.26723,-4.5654c2.49508,0 4.26723,2.04501 4.26723,4.5654c0,2.5654 -1.72433,4.56259 -4.26723,4.56259c-2.51758,0 -4.26723,-1.99719 -4.26723,-4.56259zM22.7725,15.98594c0,-1.50211 -0.77918,-2.85513 -2.33193,-2.85513c-1.54993,0 -2.33193,1.35302 -2.33193,2.85513c0,1.51055 0.75668,2.85232 2.33193,2.85232c1.57525,0 2.33193,-1.34177 2.33193,-2.85232zM22.7725,15.98594z" />
</svg>