<?xml version="1.0" encoding="UTF-8"?>
<svg width="32" height="32" xmlns="http://www.w3.org/2000/svg">
  <path d="M2,6 V26 H30 V6 H2ZM11.99982,12.53727c0,-0.50914 0.34599,-0.96765 0.96765,-0.96765h3.173c0.54852,0 0.83263,0.42194 0.83263,0.85513c0,0.42194 -0.27285,0.85513 -0.83263,0.85513h-2.28129v1.81153h1.92405c0.59353,0 0.8917,0.42194 0.8917,0.84388c0,0.43319 -0.29817,0.8692 -0.8917,0.8692h-1.92405v2.70323c0,0.62166 -0.39662,0.96765 -0.93108,0.96765c-0.53165,0 -0.93108,-0.34599 -0.93108,-0.96765v-6.97046zM11.99982,12.53727z M18.43196,12.46132c0,-0.61885 0.39662,-0.96765 0.93108,-0.96765c0.53446,0 0.93108,0.3488 0.93108,0.96765v7.04641c0,0.61885 -0.39662,0.96765 -0.93108,0.96765c-0.53165,0 -0.93108,-0.3488 -0.93108,-0.96765zM18.43196,12.46132z" />
</svg>