<?xml version="1.0" encoding="UTF-8"?>
<svg width="32" height="32" xmlns="http://www.w3.org/2000/svg">
  <path d="M2,6 V26 H30 V6 H2ZM7.82525,12.49789c0,-0.59353 0.41069,-0.92827 0.9789,-0.92827h2.38256c1.29114,0 2.33193,0.86639 2.33193,2.18284c0,0.86639 -0.36006,1.45148 -1.1533,1.82278v0.02532c1.05485,0.14909 1.88467,1.02954 1.88467,2.1097c0,1.74684 -1.16456,2.69198 -2.87764,2.69198h-2.55415c-0.57103,0 -0.99297,-0.36006 -0.99297,-0.94233zM9.68741,15.0661h0.96765c0.60759,0 1.00422,-0.36006 1.00422,-0.9789c0,-0.58228 -0.45851,-0.88045 -1.00422,-0.88045h-0.96765zM9.68741,18.76231h1.46273c0.66948,0 1.16456,-0.38256 1.16456,-1.07736c0,-0.58509 -0.44444,-0.98172 -1.31364,-0.98172h-1.31364zM9.68741,18.76231z M22.14522,20.00281c-0.60759,0.3488 -1.33896,0.54571 -2.18284,0.54571c-2.51758,0 -4.26723,-1.99719 -4.26723,-4.56259c0,-2.58228 1.7384,-4.5654 4.26723,-4.5654c2.49508,0 4.26723,2.04501 4.26723,4.5654c0,1.09142 -0.28411,2.08158 -0.82982,2.86357l0.70605,0.60759c0.23629,0.21097 0.43601,0.41069 0.43601,0.75668c0,0.43601 -0.43601,0.782 -0.85795,0.782c-0.27286,0 -0.49508,-0.1097 -0.82982,-0.39662zM21.99894,17.57243c0.20816,-0.47257 0.29536,-1.01547 0.29536,-1.5865c0,-1.47679 -0.77918,-2.85513 -2.33193,-2.85513c-1.54993,0 -2.33193,1.35302 -2.33193,2.85513c0,1.51055 0.75668,2.85232 2.33193,2.85232c0.28692,0 0.54571,-0.03657 0.79325,-0.0872l-0.44444,-0.43319c-0.13783,-0.12658 -0.23629,-0.32349 -0.23629,-0.49789c0,-0.48383 0.33474,-0.8917 0.84388,-0.8917c0.1744,0 0.32068,0.06189 0.46976,0.16034zM21.99894,17.57243z" />
</svg>