<?xml version="1.0" encoding="UTF-8"?>
<svg xmlns="http://www.w3.org/2000/svg" xmlns:xlink="http://www.w3.org/1999/xlink" width="32px" height="32px" viewBox="0 0 32 32" version="1.1">
  <path d="M6,6 V26 H26 V6 ZM 11.832031 11.136719 C 11.832031 10.3125 12.402344 9.847656 13.191406 9.847656 L 16.5 9.847656 C 18.292969 9.847656 19.738281 11.050781 19.738281 12.878906 C 19.738281 14.082031 19.238281 14.894531 18.136719 15.410156 L 18.136719 15.445312 C 19.601562 15.652344 20.753906 16.875 20.753906 18.375 C 20.753906 20.800781 19.136719 22.113281 16.757812 22.113281 L 13.210938 22.113281 C 12.417969 22.113281 11.832031 21.613281 11.832031 20.804688 Z M 14.417969 14.703125 L 15.761719 14.703125 C 16.605469 14.703125 17.15625 14.203125 17.15625 13.34375 C 17.15625 12.535156 16.519531 12.121094 15.761719 12.121094 L 14.417969 12.121094 Z M 14.417969 19.835938 L 16.449219 19.835938 C 17.378906 19.835938 18.066406 19.304688 18.066406 18.339844 C 18.066406 17.527344 17.449219 16.976562 16.242188 16.976562 L 14.417969 16.976562 Z M 14.417969 19.835938 "/>
</svg>
