<?xml version="1.0" encoding="UTF-8"?>
<svg width="32" height="32" xmlns="http://www.w3.org/2000/svg">
  <path d="M2,6 V26 H30 V6 H2ZM13.88994,15.16456c0.782,0 1.09423,0.39944 1.09423,1.19269c0,2.39381 -1.56399,4.19128 -4.04501,4.19128c-2.51758,0 -4.26723,-1.99719 -4.26723,-4.56259c0,-2.58228 1.73558,-4.5654 4.26723,-4.5654c1.87342,0 3.4121,0.88045 3.4121,1.74965c0,0.53165 -0.33474,0.86639 -0.77074,0.86639c-0.84388,0 -1.01547,-0.90577 -2.64135,-0.90577c-1.54993,0 -2.33193,1.35302 -2.33193,2.85513c0,1.51055 0.75668,2.85232 2.33193,2.85232c0.9789,0 2.1097,-0.54571 2.1097,-1.96062h-1.26582c-0.50914,0 -0.8692,-0.36006 -0.8692,-0.86639c0,-0.52321 0.39662,-0.84388 0.8692,-0.84388h2.10689zM13.88994,15.16456z M23.08896,20.00281c-0.60759,0.3488 -1.33896,0.54571 -2.18284,0.54571c-2.51758,0 -4.26723,-1.99719 -4.26723,-4.56259c0,-2.58228 1.7384,-4.5654 4.26723,-4.5654c2.49508,0 4.26723,2.04501 4.26723,4.5654c0,1.09142 -0.28411,2.08158 -0.82982,2.86357l0.70605,0.60759c0.23629,0.21097 0.43601,0.41069 0.43601,0.75668c0,0.43601 -0.43601,0.782 -0.85795,0.782c-0.27286,0 -0.49508,-0.1097 -0.82982,-0.39662zM22.94269,17.57243c0.20816,-0.47257 0.29536,-1.01547 0.29536,-1.5865c0,-1.47679 -0.77918,-2.85513 -2.33193,-2.85513c-1.54993,0 -2.33193,1.35302 -2.33193,2.85513c0,1.51055 0.75668,2.85232 2.33193,2.85232c0.28692,0 0.54571,-0.03657 0.79325,-0.0872l-0.44444,-0.43319c-0.13783,-0.12658 -0.23629,-0.32349 -0.23629,-0.49789c0,-0.48383 0.33474,-0.8917 0.84388,-0.8917c0.1744,0 0.32068,0.06189 0.46976,0.16034zM22.94269,17.57243z" />
</svg>