<?xml version="1.0" encoding="UTF-8"?>
<svg width="32" height="32" xmlns="http://www.w3.org/2000/svg">
  <path d="M2,6 V26 H30 V6 H2ZM12.89997,17.92124c0,2.08158 -1.32771,2.62728 -2.4557,2.62728c-0.85795,0 -2.28411,-0.33474 -2.28411,-1.4121c0,-0.33474 0.28692,-0.75668 0.6948,-0.75668c0.49508,0 0.93108,0.45851 1.48804,0.45851c0.6948,0 0.6948,-0.64698 0.6948,-1.0436v-5.33333c0,-0.61885 0.39662,-0.96765 0.93108,-0.96765c0.53446,0 0.93108,0.3488 0.93108,0.96765zM12.89997,17.92124z M14.97767,15.98594c0,-2.58228 1.7384,-4.5654 4.26723,-4.5654c2.49508,0 4.26723,2.04501 4.26723,4.5654c0,2.5654 -1.72433,4.56259 -4.26723,4.56259c-2.51758,0 -4.26723,-1.99719 -4.26723,-4.56259zM21.57683,15.98594c0,-1.50211 -0.77918,-2.85513 -2.33193,-2.85513c-1.54993,0 -2.33193,1.35302 -2.33193,2.85513c0,1.51055 0.75668,2.85232 2.33193,2.85232c1.57525,0 2.33193,-1.34177 2.33193,-2.85232zM21.57683,15.98594z" />
</svg>