<?xml version="1.0" encoding="UTF-8"?>
<svg width="32" height="32" xmlns="http://www.w3.org/2000/svg">
  <path d="M2,6 V26 H30 V6 H2ZM8.84353,12.49789c0,-0.59353 0.41069,-0.92827 0.9789,-0.92827h2.38256c1.29114,0 2.33193,0.86639 2.33193,2.18284c0,0.86639 -0.36006,1.45148 -1.1533,1.82278v0.02532c1.05485,0.14909 1.88467,1.02954 1.88467,2.1097c0,1.74684 -1.16456,2.69198 -2.87764,2.69198h-2.55415c-0.57103,0 -0.99297,-0.36006 -0.99297,-0.94233zM10.7057,15.0661h0.96765c0.60759,0 1.00422,-0.36006 1.00422,-0.9789c0,-0.58228 -0.45851,-0.88045 -1.00422,-0.88045h-0.96765zM10.7057,18.76231h1.46273c0.66948,0 1.16456,-0.38256 1.16456,-1.07736c0,-0.58509 -0.44444,-0.98172 -1.31364,-0.98172h-1.31364zM10.7057,18.76231z M22.47433,18.76231c0.52039,0 0.89452,0.28692 0.89452,0.81856c0,0.47257 -0.44726,0.81857 -0.89452,0.81857h-4.87482c-0.65541,0 -1.04079,-0.37131 -1.04079,-0.8917c0,-0.24754 0.0872,-0.49508 0.24754,-0.72011l3.99437,-5.58087h-3.26301c-0.49508,0 -0.86638,-0.28692 -0.86638,-0.79325c0,-0.47257 0.39662,-0.84388 0.86638,-0.84388h4.54008c0.72011,0 1.04079,0.45851 1.04079,0.8917c0,0.27285 -0.1097,0.58509 -0.27285,0.79325l-3.96906,5.50774zM22.47433,18.76231z" />
</svg>