<?xml version="1.0" encoding="UTF-8"?>
<svg width="32" height="32" xmlns="http://www.w3.org/2000/svg">
  <path d="M2,6 V26 H30 V6 H2ZM11.78305,11.42053c0.90577,0 2.66667,0.29817 2.66667,1.38959c0,0.44444 -0.30942,0.82982 -0.76793,0.82982c-0.50914,0 -0.85513,-0.43319 -1.89873,-0.43319c-1.53868,0 -2.33193,1.30239 -2.33193,2.81575c0,1.47398 0.80731,2.7398 2.33193,2.7398c1.0436,0 1.46273,-0.52039 1.97187,-0.52039c0.55978,0 0.81857,0.55978 0.81857,0.84388c0,1.18987 -1.87342,1.46273 -2.79044,1.46273c-2.51758,0 -4.26723,-1.99719 -4.26723,-4.5654c0,-2.57947 1.73558,-4.56259 4.26723,-4.56259zM11.78305,11.42053z M23.34212,15.16456c0.782,0 1.09423,0.39944 1.09423,1.19269c0,2.39381 -1.56399,4.19128 -4.04501,4.19128c-2.51758,0 -4.26723,-1.99719 -4.26723,-4.56259c0,-2.58228 1.73558,-4.5654 4.26723,-4.5654c1.87342,0 3.4121,0.88045 3.4121,1.74965c0,0.53165 -0.33474,0.86639 -0.77074,0.86639c-0.84388,0 -1.01547,-0.90577 -2.64135,-0.90577c-1.54993,0 -2.33193,1.35302 -2.33193,2.85513c0,1.51055 0.75668,2.85232 2.33193,2.85232c0.9789,0 2.1097,-0.54571 2.1097,-1.96062h-1.26582c-0.50914,0 -0.8692,-0.36006 -0.8692,-0.86639c0,-0.52321 0.39662,-0.84388 0.8692,-0.84388h2.10689zM23.34212,15.16456z" />
</svg>