<?xml version="1.0" encoding="UTF-8"?>
<svg width="32" height="32" xmlns="http://www.w3.org/2000/svg">
  <path d="M2,6 V26 H30 V6 H2ZM10.3038,12.46132c0,-0.61885 0.39662,-0.96765 0.93108,-0.96765c0.53446,0 0.93108,0.3488 0.93108,0.96765v7.04641c0,0.61885 -0.39662,0.96765 -0.93108,0.96765c-0.53165,0 -0.93108,-0.3488 -0.93108,-0.96765zM10.3038,12.46132z M14.16737,12.46132c0,-0.61885 0.39662,-0.96765 0.93108,-0.96765c0.23347,0 0.61885,0.18565 0.782,0.41069l3.92968,5.24613h0.02532v-4.68917c0,-0.61885 0.39662,-0.96765 0.93108,-0.96765c0.53446,0 0.93108,0.3488 0.93108,0.96765v7.04641c0,0.61885 -0.39662,0.96765 -0.93108,0.96765c-0.23629,0 -0.60759,-0.18565 -0.782,-0.41069l-3.93249,-5.18425h-0.02532v4.62729c0,0.61885 -0.39662,0.96765 -0.93108,0.96765c-0.53165,0 -0.92827,-0.3488 -0.92827,-0.96765zM14.16737,12.46132z" />
</svg>