<?xml version="1.0" encoding="UTF-8"?>
<svg width="32" height="32" xmlns="http://www.w3.org/2000/svg">
  <path d="M2,6 V26 H30 V6 H2ZM12.53411,11.42053c0.90577,0 2.66667,0.29817 2.66667,1.38959c0,0.44444 -0.30942,0.82982 -0.76793,0.82982c-0.50914,0 -0.85513,-0.43319 -1.89873,-0.43319c-1.53868,0 -2.33193,1.30239 -2.33193,2.81575c0,1.47398 0.80731,2.7398 2.33193,2.7398c1.0436,0 1.46273,-0.52039 1.97187,-0.52039c0.55978,0 0.81857,0.55978 0.81857,0.84388c0,1.18987 -1.87342,1.46273 -2.79044,1.46273c-2.51758,0 -4.26723,-1.99719 -4.26723,-4.5654c0,-2.57947 1.73558,-4.56259 4.26723,-4.56259zM12.53411,11.42053z M22.79079,18.76231c0.52039,0 0.89452,0.28692 0.89452,0.81856c0,0.47257 -0.44726,0.81857 -0.89452,0.81857h-4.87482c-0.65541,0 -1.04079,-0.37131 -1.04079,-0.8917c0,-0.24754 0.0872,-0.49508 0.24754,-0.72011l3.99437,-5.58087h-3.26301c-0.49508,0 -0.86638,-0.28692 -0.86638,-0.79325c0,-0.47257 0.39662,-0.84388 0.86638,-0.84388h4.54008c0.72011,0 1.04079,0.45851 1.04079,0.8917c0,0.27285 -0.1097,0.58509 -0.27285,0.79325l-3.96906,5.50774zM22.79079,18.76231z" />
</svg>