<?xml version="1.0" encoding="UTF-8"?>
<svg width="32" height="32" xmlns="http://www.w3.org/2000/svg">
  <path d="M2,6 V26 H30 V6 H2ZM12.61551,11.42053c0.90577,0 2.66667,0.29817 2.66667,1.38959c0,0.44444 -0.30942,0.82982 -0.76793,0.82982c-0.50914,0 -0.85513,-0.43319 -1.89873,-0.43319c-1.53868,0 -2.33193,1.30239 -2.33193,2.81575c0,1.47398 0.80731,2.7398 2.33193,2.7398c1.0436,0 1.46273,-0.52039 1.97187,-0.52039c0.55978,0 0.81857,0.55978 0.81857,0.84388c0,1.18987 -1.87342,1.46273 -2.79044,1.46273c-2.51758,0 -4.26723,-1.99719 -4.26723,-4.5654c0,-2.57947 1.73558,-4.56259 4.26723,-4.56259zM12.61551,11.42053z M23.43091,12.95921l-2.07595,2.91983v3.36428c0,0.63854 -0.51758,1.15612 -1.15612,1.15612h-0.09001c-0.63854,0 -1.15612,-0.51758 -1.15612,-1.15612v-3.36709l-2.07314,-2.91702c-0.1097,-0.16315 -0.1744,-0.36006 -0.1744,-0.55978c0,-0.49508 0.37412,-0.90577 0.89451,-0.90577c0.32349,0 0.60759,0.13783 0.76793,0.37412l1.78622,2.59072l1.78622,-2.59072c0.16034,-0.23629 0.44726,-0.37412 0.77074,-0.37412c0.52039,0 0.8917,0.41069 0.8917,0.90577c0,0.19972 -0.06188,0.39662 -0.17159,0.55978zM23.6025,12.39944z" />
</svg>