<?xml version="1.0" encoding="UTF-8"?>
<svg width="32" height="32" xmlns="http://www.w3.org/2000/svg">
  <path d="M2,6 V26 H30 V6 H2ZM7.27514,12.49789c0,-0.59353 0.41069,-0.92827 0.9789,-0.92827h2.38256c1.29114,0 2.33193,0.86639 2.33193,2.18284c0,0.86639 -0.36006,1.45148 -1.1533,1.82278v0.02532c1.05485,0.14909 1.88467,1.02954 1.88467,2.1097c0,1.74684 -1.16456,2.69198 -2.87764,2.69198h-2.55415c-0.57103,0 -0.99297,-0.36006 -0.99297,-0.94233zM9.13731,15.0661h0.96765c0.60759,0 1.00422,-0.36006 1.00422,-0.9789c0,-0.58228 -0.45851,-0.88045 -1.00422,-0.88045h-0.96765zM9.13731,18.76231h1.46273c0.66948,0 1.16456,-0.38256 1.16456,-1.07736c0,-0.58509 -0.44444,-0.98172 -1.31364,-0.98172h-1.31364zM9.13731,18.76231z M15.9077,12.45007c0.07314,-0.44726 0.55696,-0.9564 1.21519,-0.9564c0.61885,0 1.10267,0.44726 1.24051,0.89451l1.46273,4.91139h0.02532l1.46273,-4.91139c0.13783,-0.44726 0.62166,-0.89451 1.24051,-0.89451c0.65823,0 1.14205,0.50914 1.21519,0.9564l1.1533,6.92264c0.01406,0.07314 0.01406,0.14627 0.01406,0.20816c0,0.54571 -0.39662,0.89452 -0.89451,0.89452c-0.63291,0 -0.88045,-0.28692 -0.96765,-0.8692l-0.73136,-5.04923h-0.02532l-1.48804,5.19831c-0.0872,0.29817 -0.32067,0.72011 -0.99297,0.72011c-0.66948,0 -0.90295,-0.42194 -0.99015,-0.72011l-1.48804,-5.19831h-0.02532l-0.73418,5.04923c-0.08439,0.58228 -0.33474,0.8692 -0.96484,0.8692c-0.49789,0 -0.89451,-0.34599 -0.89451,-0.89452c0,-0.05907 0,-0.13502 0.01125,-0.20816zM15.9077,12.45007z" />
</svg>