<?xml version="1.0" encoding="UTF-8"?>
<svg width="32" height="32" xmlns="http://www.w3.org/2000/svg">
  <path d="M2,6 V26 H30 V6 H2ZM15.06813,12.59916v6.80169c0,0.55134 -0.44726,0.99859 -0.99859,0.99859c-0.55415,0 -1.00141,-0.44726 -1.00141,-0.99859v-2.60197h-4v2.60197c0,0.55134 -0.44726,0.99859 -1.00141,0.99859c-0.55134,0 -0.99859,-0.44726 -0.99859,-0.99859v-6.80169c0,-0.55134 0.44726,-0.99859 0.99859,-0.99859c0.55415,0 1.00141,0.44726 1.00141,0.99859v2.19972h4v-2.19972c0,-0.55134 0.44726,-0.99859 1.00141,-0.99859c0.55134,0 0.99859,0.44726 0.99859,0.99859zM14.06953,11.60056z M16.9375,12.46132c0,-0.61885 0.46695,-0.96765 0.99859,-0.96765c0.53446,0 1.00141,0.3488 1.00141,0.96765v4.32911c0,1.14205 0.82138,1.96906 2,1.96906c1.12799,0 2,-0.87764 2,-1.96906v-4.32911c0,-0.61885 0.46695,-0.96765 1.00141,-0.96765c0.53165,0 0.98734,0.3488 0.98734,0.96765v4.42757c0,2.08439 -1.94374,3.65963 -3.98875,3.65963c-2.07032,0 -4,-1.54993 -4,-3.65963zM16.9375,12.46132z" />
</svg>