<?xml version="1.0" encoding="UTF-8"?>
<svg width="32" height="32" xmlns="http://www.w3.org/2000/svg">
  <path d="M2,6 V26 H30 V6 H2ZM10.53252,11.42053c0.90577,0 2.66667,0.29817 2.66667,1.38959c0,0.44444 -0.30942,0.82982 -0.76793,0.82982c-0.50914,0 -0.85513,-0.43319 -1.89873,-0.43319c-1.53868,0 -2.33193,1.30239 -2.33193,2.81575c0,1.47398 0.80731,2.7398 2.33193,2.7398c1.0436,0 1.46273,-0.52039 1.97187,-0.52039c0.55978,0 0.81857,0.55978 0.81857,0.84388c0,1.18987 -1.87342,1.46273 -2.79044,1.46273c-2.51758,0 -4.26723,-1.99719 -4.26723,-4.5654c0,-2.57947 1.73558,-4.56259 4.26723,-4.56259zM10.53252,11.42053z M14.67141,12.73418c-0.03657,-0.16034 -0.04782,-0.24754 -0.04782,-0.42194c0,-0.39662 0.33474,-0.81856 0.88045,-0.81856c0.59353,0 0.88045,0.3488 0.99015,0.89451l1.05485,5.27145h0.02532l1.61181,-5.4346c0.13783,-0.44444 0.50914,-0.73136 0.96765,-0.73136c0.46132,0 0.83263,0.28692 0.96765,0.73136l1.61181,5.4346h0.02532l1.05485,-5.27145c0.11252,-0.54571 0.39662,-0.89451 0.99297,-0.89451c0.54571,0 0.88045,0.42194 0.88045,0.81856c0,0.1744 -0.01125,0.2616 -0.05063,0.42194l-1.57243,6.77356c-0.12658,0.52039 -0.53446,0.96765 -1.22926,0.96765c-0.60759,0 -1.08017,-0.39662 -1.22644,-0.90577l-1.44022,-4.78762h-0.02532l-1.43741,4.78762c-0.14909,0.50914 -0.62166,0.90577 -1.22925,0.90577c-0.6948,0 -1.10267,-0.44726 -1.22925,-0.96765zM14.67141,12.73418z" />
</svg>