<?xml version="1.0" encoding="UTF-8"?>
<svg width="32" height="32" xmlns="http://www.w3.org/2000/svg">
  <path d="M2,6 V26 H30 V6 H2ZM9.97899,12.45007c0.21097,-0.57103 0.6948,-1.02954 1.32771,-1.02954c0.65823,0 1.11674,0.43319 1.32771,1.02954l2.43038,6.74824c0.07595,0.19691 0.10127,0.37131 0.10127,0.45851c0,0.48383 -0.39944,0.81857 -0.85795,0.81857c-0.52039,0 -0.782,-0.27285 -0.90577,-0.64416l-0.37131,-1.16737h-3.44866l-0.37131,1.1533c-0.12377,0.38537 -0.38537,0.65823 -0.89452,0.65823c-0.49508,0 -0.91702,-0.37412 -0.91702,-0.8692c0,-0.19691 0.06188,-0.34599 0.0872,-0.40788zM10.11682,16.95359h2.35724l-1.1533,-3.59775h-0.02532zM10.11682,16.95359z M23.50905,15.16456c0.782,0 1.09423,0.39944 1.09423,1.19269c0,2.39381 -1.56399,4.19128 -4.04501,4.19128c-2.51758,0 -4.26723,-1.99719 -4.26723,-4.56259c0,-2.58228 1.73558,-4.5654 4.26723,-4.5654c1.87342,0 3.4121,0.88045 3.4121,1.74965c0,0.53165 -0.33474,0.86639 -0.77074,0.86639c-0.84388,0 -1.01547,-0.90577 -2.64135,-0.90577c-1.54993,0 -2.33193,1.35302 -2.33193,2.85513c0,1.51055 0.75668,2.85232 2.33193,2.85232c0.9789,0 2.1097,-0.54571 2.1097,-1.96062h-1.26582c-0.50914,0 -0.8692,-0.36006 -0.8692,-0.86639c0,-0.52321 0.39662,-0.84388 0.8692,-0.84388h2.10689zM23.50905,15.16456z" />
</svg>