<?xml version="1.0" encoding="UTF-8"?>
<svg width="32" height="32" xmlns="http://www.w3.org/2000/svg">
  <path d="M2,6 V26 H30 V6 H2ZM15.04483,15.16456c0.782,0 1.09423,0.39944 1.09423,1.19269c0,2.39381 -1.56399,4.19128 -4.04501,4.19128c-2.51758,0 -4.26723,-1.99719 -4.26723,-4.56259c0,-2.58228 1.73558,-4.5654 4.26723,-4.5654c1.87342,0 3.4121,0.88045 3.4121,1.74965c0,0.53165 -0.33474,0.86639 -0.77074,0.86639c-0.84388,0 -1.01547,-0.90577 -2.64135,-0.90577c-1.54993,0 -2.33193,1.35302 -2.33193,2.85513c0,1.51055 0.75668,2.85232 2.33193,2.85232c0.9789,0 2.1097,-0.54571 2.1097,-1.96062h-1.26582c-0.50914,0 -0.8692,-0.36006 -0.8692,-0.86639c0,-0.52321 0.39662,-0.84388 0.8692,-0.84388h2.10689zM15.04483,15.16456z M18.14223,12.53727c0,-0.59634 0.33474,-0.96765 0.95359,-0.96765h2.18284c1.9128,0 3.08861,0.85513 3.08861,2.80169c0,1.36428 -1.02954,2.14627 -2.29254,2.34599l2.10689,2.25598c0.1744,0.18847 0.24754,0.37412 0.24754,0.54571c0,0.48383 -0.38256,0.9564 -0.92827,0.9564c-0.22504,0 -0.52039,-0.0872 -0.72011,-0.32349l-2.75387,-3.33615h-0.02532v2.69198c0,0.61885 -0.39662,0.96765 -0.92827,0.96765c-0.53446,0 -0.93108,-0.3488 -0.93108,-0.96765zM20.00158,15.47679h1.27707c0.68354,0 1.1533,-0.41069 1.1533,-1.10549c0,-0.70605 -0.46976,-1.09142 -1.1533,-1.09142h-1.27707zM20.00158,15.47679z" />
</svg>