<?xml version="1.0" encoding="UTF-8"?>
<svg width="32" height="32" xmlns="http://www.w3.org/2000/svg">
  <path d="M2,6 V26 H30 V6 H2ZM8.84916,12.45007c0.21097,-0.57103 0.6948,-1.02954 1.32771,-1.02954c0.65823,0 1.11674,0.43319 1.32771,1.02954l2.43038,6.74824c0.07595,0.19691 0.10127,0.37131 0.10127,0.45851c0,0.48383 -0.39944,0.81857 -0.85795,0.81857c-0.52039,0 -0.782,-0.27285 -0.90577,-0.64416l-0.37131,-1.16737h-3.44866l-0.37131,1.1533c-0.12377,0.38537 -0.38537,0.65823 -0.89452,0.65823c-0.49508,0 -0.91702,-0.37412 -0.91702,-0.8692c0,-0.19691 0.06188,-0.34599 0.0872,-0.40788zM8.98699,16.95359h2.35724l-1.1533,-3.59775h-0.02532zM8.98699,16.95359z M16.70359,12.45007c0.07314,-0.44726 0.55696,-0.9564 1.21519,-0.9564c0.61885,0 1.10267,0.44726 1.24051,0.89451l1.46273,4.91139h0.02532l1.46273,-4.91139c0.13783,-0.44726 0.62166,-0.89451 1.24051,-0.89451c0.65823,0 1.14205,0.50914 1.21519,0.9564l1.1533,6.92264c0.01406,0.07314 0.01406,0.14627 0.01406,0.20816c0,0.54571 -0.39662,0.89452 -0.89451,0.89452c-0.63291,0 -0.88045,-0.28692 -0.96765,-0.8692l-0.73136,-5.04923h-0.02532l-1.48804,5.19831c-0.0872,0.29817 -0.32067,0.72011 -0.99297,0.72011c-0.66948,0 -0.90295,-0.42194 -0.99015,-0.72011l-1.48804,-5.19831h-0.02532l-0.73418,5.04923c-0.08439,0.58228 -0.33474,0.8692 -0.96484,0.8692c-0.49789,0 -0.89451,-0.34599 -0.89451,-0.89452c0,-0.05907 0,-0.13502 0.01125,-0.20816zM16.70359,12.45007z" />
</svg>