<?xml version="1.0" encoding="UTF-8"?>
<svg width="32" height="32" xmlns="http://www.w3.org/2000/svg">
  <path d="M2,6 V26 H30 V6 H2ZM9.93759,12.64698c0,-0.61885 0.30942,-1.07736 0.96765,-1.07736h3.07454c0.59634,0 0.88045,0.42194 0.88045,0.85513c0,0.42194 -0.29536,0.85513 -0.88045,0.85513h-2.18284v1.81153h2.03375c0.61041,0 0.90577,0.42194 0.90577,0.85795c0,0.41913 -0.30942,0.85513 -0.90577,0.85513h-2.03375v1.88467h2.29536c0.59634,0 0.88045,0.42194 0.88045,0.85513c0,0.42194 -0.29817,0.85795 -0.88045,0.85795h-3.20113c-0.54571,0 -0.95359,-0.37412 -0.95359,-0.93108zM9.93759,12.64698z M18.2115,13.27989h-1.35021c-0.59634,0 -0.84388,-0.43319 -0.84388,-0.85513c0,-0.43319 0.30942,-0.85513 0.84388,-0.85513h4.5654c0.53165,0 0.84107,0.42194 0.84107,0.85513c0,0.42194 -0.24754,0.85513 -0.84107,0.85513h-1.35302v6.22785c0,0.62166 -0.39662,0.96765 -0.93108,0.96765c-0.53165,0 -0.93108,-0.34599 -0.93108,-0.96765zM18.2115,13.27989z" />
</svg>