<?xml version="1.0" encoding="UTF-8"?>
<svg width="32" height="32" xmlns="http://www.w3.org/2000/svg">
  <path d="M2,6 V26 H30 V6 H2ZM7.29738,12.46132c0,-0.61885 0.46695,-0.96765 0.99859,-0.96765c0.53446,0 1.00141,0.3488 1.00141,0.96765v4.32911c0,1.14205 0.82138,1.96906 2,1.96906c1.12799,0 2,-0.87764 2,-1.96906v-4.32911c0,-0.61885 0.46695,-0.96765 1.00141,-0.96765c0.53165,0 0.98734,0.3488 0.98734,0.96765v4.42757c0,2.08439 -1.94374,3.65963 -3.98875,3.65963c-2.07032,0 -4,-1.54993 -4,-3.65963zM7.29738,12.46132z M17.16816,12.46132c0,-0.61885 0.39662,-0.96765 0.93108,-0.96765c0.23347,0 0.61885,0.18565 0.782,0.41069l3.92968,5.24613h0.02532v-4.68917c0,-0.61885 0.39662,-0.96765 0.93108,-0.96765c0.53446,0 0.93108,0.3488 0.93108,0.96765v7.04641c0,0.61885 -0.39662,0.96765 -0.93108,0.96765c-0.23629,0 -0.60759,-0.18565 -0.782,-0.41069l-3.93249,-5.18425h-0.02532v4.62729c0,0.61885 -0.39662,0.96765 -0.93108,0.96765c-0.53165,0 -0.92827,-0.3488 -0.92827,-0.96765zM17.16816,12.46132z" />
</svg>