<?xml version="1.0" encoding="UTF-8"?>
<svg xmlns="http://www.w3.org/2000/svg" xmlns:xlink="http://www.w3.org/1999/xlink" width="32px" height="32px" viewBox="0 0 32 32" version="1.1">
  <path d="M6,6 V26 H26 V6 ZM 10.074219 15.980469 C 10.074219 12.394531 12.488281 9.640625 16 9.640625 C 19.464844 9.640625 21.925781 12.480469 21.925781 15.980469 C 21.925781 19.542969 19.53125 22.316406 16 22.316406 C 12.503906 22.316406 10.074219 19.542969 10.074219 15.980469 Z M 19.238281 15.980469 C 19.238281 13.894531 18.15625 12.015625 16 12.015625 C 13.847656 12.015625 12.761719 13.894531 12.761719 15.980469 C 12.761719 18.078125 13.8125 19.941406 16 19.941406 C 18.1875 19.941406 19.238281 18.078125 19.238281 15.980469 Z M 19.238281 15.980469 "/>
</svg>
