<?xml version="1.0" encoding="UTF-8"?>
<svg width="32" height="32" xmlns="http://www.w3.org/2000/svg">
  <path d="M2,6 V26 H30 V6 H2ZM7.6999,12.45007c0.07314,-0.44726 0.55696,-0.9564 1.21519,-0.9564c0.61885,0 1.10267,0.44726 1.24051,0.89451l1.46273,4.91139h0.02532l1.46273,-4.91139c0.13783,-0.44726 0.62166,-0.89451 1.24051,-0.89451c0.65823,0 1.14205,0.50914 1.21519,0.9564l1.1533,6.92264c0.01406,0.07314 0.01406,0.14627 0.01406,0.20816c0,0.54571 -0.39662,0.89452 -0.89451,0.89452c-0.63291,0 -0.88045,-0.28692 -0.96765,-0.8692l-0.73136,-5.04923h-0.02532l-1.48804,5.19831c-0.0872,0.29817 -0.32067,0.72011 -0.99297,0.72011c-0.66948,0 -0.90295,-0.42194 -0.99015,-0.72011l-1.48804,-5.19831h-0.02532l-0.73418,5.04923c-0.08439,0.58228 -0.33474,0.8692 -0.96484,0.8692c-0.49789,0 -0.89451,-0.34599 -0.89451,-0.89452c0,-0.05907 0,-0.13502 0.01125,-0.20816zM7.6999,12.45007z M20.6461,15.6737l-2.01125,-2.72855c-0.12377,-0.16034 -0.19691,-0.34599 -0.19691,-0.54571c0,-0.54571 0.40788,-0.90577 0.94233,-0.90577c0.30942,0 0.63291,0.21097 0.8045,0.45851l1.53868,2.18565l1.53868,-2.18565c0.1744,-0.24754 0.49508,-0.45851 0.80731,-0.45851c0.53165,0 0.94233,0.36006 0.94233,0.90577c0,0.19972 -0.07314,0.38537 -0.19691,0.54571l-2.01125,2.72855l2.4557,3.29958c0.09845,0.13783 0.21097,0.37412 0.21097,0.63291c0,0.52039 -0.39662,0.8692 -0.94233,0.8692c-0.33474,0 -0.58228,-0.14909 -0.76793,-0.41069l-2.03657,-2.827l-2.03376,2.827c-0.18565,0.2616 -0.43319,0.41069 -0.76793,0.41069c-0.54571,0 -0.94233,-0.3488 -0.94233,-0.8692c0,-0.25879 0.1097,-0.49508 0.21097,-0.63291zM20.6461,15.6737z" />
</svg>