<?xml version="1.0" encoding="UTF-8"?>
<svg width="32" height="32" xmlns="http://www.w3.org/2000/svg">
  <path d="M2,6 V26 H30 V6 H2ZM13.73708,20.00281c-0.60759,0.3488 -1.33896,0.54571 -2.18284,0.54571c-2.51758,0 -4.26723,-1.99719 -4.26723,-4.56259c0,-2.58228 1.7384,-4.5654 4.26723,-4.5654c2.49508,0 4.26723,2.04501 4.26723,4.5654c0,1.09142 -0.28411,2.08158 -0.82982,2.86357l0.70605,0.60759c0.23629,0.21097 0.43601,0.41069 0.43601,0.75668c0,0.43601 -0.43601,0.782 -0.85795,0.782c-0.27286,0 -0.49508,-0.1097 -0.82982,-0.39662zM13.59081,17.57243c0.20816,-0.47257 0.29536,-1.01547 0.29536,-1.5865c0,-1.47679 -0.77918,-2.85513 -2.33193,-2.85513c-1.54993,0 -2.33193,1.35302 -2.33193,2.85513c0,1.51055 0.75668,2.85232 2.33193,2.85232c0.28692,0 0.54571,-0.03657 0.79325,-0.0872l-0.44444,-0.43319c-0.13783,-0.12658 -0.23629,-0.32349 -0.23629,-0.49789c0,-0.48383 0.33474,-0.8917 0.84388,-0.8917c0.1744,0 0.32068,0.06189 0.46976,0.16034zM13.59081,17.57243z M19.68346,12.45007c0.21097,-0.57103 0.6948,-1.02954 1.32771,-1.02954c0.65823,0 1.11674,0.43319 1.32771,1.02954l2.43038,6.74824c0.07595,0.19691 0.10127,0.37131 0.10127,0.45851c0,0.48383 -0.39944,0.81857 -0.85795,0.81857c-0.52039,0 -0.782,-0.27285 -0.90577,-0.64416l-0.37131,-1.16737h-3.44866l-0.37131,1.1533c-0.12377,0.38537 -0.38537,0.65823 -0.89452,0.65823c-0.49508,0 -0.91702,-0.37412 -0.91702,-0.8692c0,-0.19691 0.06188,-0.34599 0.0872,-0.40788zM19.82129,16.95359h2.35724l-1.1533,-3.59775h-0.02532zM19.82129,16.95359z" />
</svg>