<?xml version="1.0" encoding="UTF-8"?>
<svg width="32" height="32" xmlns="http://www.w3.org/2000/svg">
  <path d="M2,6 V26 H30 V6 H2ZM10.49288,15.6737l-2.01125,-2.72855c-0.12377,-0.16034 -0.19691,-0.34599 -0.19691,-0.54571c0,-0.54571 0.40788,-0.90577 0.94233,-0.90577c0.30942,0 0.63291,0.21097 0.8045,0.45851l1.53868,2.18565l1.53868,-2.18565c0.1744,-0.24754 0.49508,-0.45851 0.80731,-0.45851c0.53165,0 0.94233,0.36006 0.94233,0.90577c0,0.19972 -0.07314,0.38537 -0.19691,0.54571l-2.01125,2.72855l2.4557,3.29958c0.09845,0.13783 0.21097,0.37412 0.21097,0.63291c0,0.52039 -0.39662,0.8692 -0.94233,0.8692c-0.33474,0 -0.58228,-0.14909 -0.76793,-0.41069l-2.03657,-2.827l-2.03376,2.827c-0.18565,0.2616 -0.43319,0.41069 -0.76793,0.41069c-0.54571,0 -0.94233,-0.3488 -0.94233,-0.8692c0,-0.25879 0.1097,-0.49508 0.21097,-0.63291zM10.49288,15.6737z M17.45367,12.4135c0,-0.50914 0.37131,-0.91983 0.92827,-0.91983c0.53446,0 0.93108,0.3488 0.93108,0.91983v2.67792l3.05204,-3.24895c0.13502,-0.14909 0.37131,-0.3488 0.7173,-0.3488c0.47257,0 0.91983,0.36006 0.91983,0.89451c0,0.32068 -0.19972,0.58228 -0.60759,0.99015l-2.34599,2.30661l2.86639,2.99015c0.29817,0.29817 0.52039,0.57103 0.52039,0.94515c0,0.58228 -0.45851,0.85513 -0.96765,0.85513c-0.36006,0 -0.59353,-0.21097 -0.94233,-0.58228l-3.21238,-3.47398v3.16174c0,0.48383 -0.37412,0.89452 -0.93108,0.89452c-0.53446,0 -0.93108,-0.3488 -0.93108,-0.89452v-7.16737zM17.45367,12.4135z" />
</svg>