<?xml version="1.0" encoding="UTF-8"?>
<svg width="32" height="32" xmlns="http://www.w3.org/2000/svg">
  <path d="M2,6 V26 H30 V6 H2ZM8.35742,12.8467c-0.06188,-0.16034 -0.0872,-0.28692 -0.0872,-0.45851c0,-0.52039 0.45851,-0.89451 0.9564,-0.89451c0.42194,0 0.68073,0.27285 0.84388,0.60759l1.92124,5.16174l1.92405,-5.16174c0.16034,-0.33474 0.42194,-0.60759 0.84107,-0.60759c0.49789,0 0.9564,0.37412 0.9564,0.89451c0,0.17159 -0.02532,0.29817 -0.0872,0.45851l-2.71449,6.90858c-0.16315,0.39662 -0.37412,0.72011 -0.91983,0.72011c-0.54571,0 -0.75668,-0.32349 -0.91702,-0.72011zM8.35742,12.8467z M18.54413,12.45007c0.21097,-0.57103 0.6948,-1.02954 1.32771,-1.02954c0.65823,0 1.11674,0.43319 1.32771,1.02954l2.43038,6.74824c0.07595,0.19691 0.10127,0.37131 0.10127,0.45851c0,0.48383 -0.39944,0.81857 -0.85795,0.81857c-0.52039,0 -0.782,-0.27285 -0.90577,-0.64416l-0.37131,-1.16737h-3.44866l-0.37131,1.1533c-0.12377,0.38537 -0.38537,0.65823 -0.89452,0.65823c-0.49508,0 -0.91702,-0.37412 -0.91702,-0.8692c0,-0.19691 0.06188,-0.34599 0.0872,-0.40788zM18.68196,16.95359h2.35724l-1.1533,-3.59775h-0.02532zM18.68196,16.95359z" />
</svg>