<?xml version="1.0" encoding="UTF-8"?>
<svg width="32" height="32" xmlns="http://www.w3.org/2000/svg">
  <path d="M2,6 V26 H30 V6 H2ZM7.62131,12.8467c-0.06188,-0.16034 -0.0872,-0.28692 -0.0872,-0.45851c0,-0.52039 0.45851,-0.89451 0.9564,-0.89451c0.42194,0 0.68073,0.27285 0.84388,0.60759l1.92124,5.16174l1.92405,-5.16174c0.16034,-0.33474 0.42194,-0.60759 0.84107,-0.60759c0.49789,0 0.9564,0.37412 0.9564,0.89451c0,0.17159 -0.02532,0.29817 -0.0872,0.45851l-2.71449,6.90858c-0.16315,0.39662 -0.37412,0.72011 -0.91983,0.72011c-0.54571,0 -0.75668,-0.32349 -0.91702,-0.72011zM7.62131,12.8467z M16.47152,12.46132c0,-0.61885 0.46695,-0.96765 0.99859,-0.96765c0.53446,0 1.00141,0.3488 1.00141,0.96765v4.32911c0,1.14205 0.82138,1.96906 2,1.96906c1.12799,0 2,-0.87764 2,-1.96906v-4.32911c0,-0.61885 0.46695,-0.96765 1.00141,-0.96765c0.53165,0 0.98734,0.3488 0.98734,0.96765v4.42757c0,2.08439 -1.94374,3.65963 -3.98875,3.65963c-2.07032,0 -4,-1.54993 -4,-3.65963zM16.47152,12.46132z" />
</svg>