<?xml version="1.0" encoding="UTF-8"?>
<svg width="32" height="32" xmlns="http://www.w3.org/2000/svg">
  <path d="M2,6 V26 H30 V6 H2ZM14.69989,12.66104c0,0.48383 -0.32349,0.91702 -0.82982,0.91702c-0.50914,0 -0.90577,-0.37131 -1.6512,-0.37131c-0.53165,0 -1.01547,0.28411 -1.01547,0.8045c0,1.27989 4.14346,0.46132 4.14346,3.65963c0,1.77496 -1.46554,2.87764 -3.17581,2.87764c-0.9564,0 -3.01547,-0.22222 -3.01547,-1.38959c0,-0.48383 0.32349,-0.88045 0.83263,-0.88045c0.58228,0 1.27707,0.48383 2.08158,0.48383c0.81857,0 1.26582,-0.45851 1.26582,-1.0661c0,-1.46273 -4.14346,-0.58228 -4.14346,-3.45992c0,-1.7384 1.42616,-2.81575 3.07736,-2.81575c0.6948,0 2.43038,0.25879 2.43038,1.24051zM14.69989,12.66104z M18.78956,13.27989h-1.35021c-0.59634,0 -0.84388,-0.43319 -0.84388,-0.85513c0,-0.43319 0.30942,-0.85513 0.84388,-0.85513h4.5654c0.53165,0 0.84107,0.42194 0.84107,0.85513c0,0.42194 -0.24754,0.85513 -0.84107,0.85513h-1.35302v6.22785c0,0.62166 -0.39662,0.96765 -0.93108,0.96765c-0.53165,0 -0.93108,-0.34599 -0.93108,-0.96765zM18.78956,13.27989z" />
</svg>