<?xml version="1.0" encoding="UTF-8"?>
<svg width="32" height="32" xmlns="http://www.w3.org/2000/svg">
  <path d="M2,6 V26 H30 V6 H2ZM12.72662,12.66104c0,0.48383 -0.32349,0.91702 -0.82982,0.91702c-0.50914,0 -0.90577,-0.37131 -1.6512,-0.37131c-0.53165,0 -1.01547,0.28411 -1.01547,0.8045c0,1.27989 4.14346,0.46132 4.14346,3.65963c0,1.77496 -1.46554,2.87764 -3.17581,2.87764c-0.9564,0 -3.01547,-0.22222 -3.01547,-1.38959c0,-0.48383 0.32349,-0.88045 0.83263,-0.88045c0.58228,0 1.27707,0.48383 2.08158,0.48383c0.81857,0 1.26582,-0.45851 1.26582,-1.0661c0,-1.46273 -4.14346,-0.58228 -4.14346,-3.45992c0,-1.7384 1.42616,-2.81575 3.07736,-2.81575c0.6948,0 2.43038,0.25879 2.43038,1.24051zM12.72662,12.66104z M15.79096,12.45007c0.07314,-0.44726 0.55696,-0.9564 1.21519,-0.9564c0.61885,0 1.10267,0.44726 1.24051,0.89451l1.46273,4.91139h0.02532l1.46273,-4.91139c0.13783,-0.44726 0.62166,-0.89451 1.24051,-0.89451c0.65823,0 1.14205,0.50914 1.21519,0.9564l1.1533,6.92264c0.01406,0.07314 0.01406,0.14627 0.01406,0.20816c0,0.54571 -0.39662,0.89452 -0.89451,0.89452c-0.63291,0 -0.88045,-0.28692 -0.96765,-0.8692l-0.73136,-5.04923h-0.02532l-1.48804,5.19831c-0.0872,0.29817 -0.32067,0.72011 -0.99297,0.72011c-0.66948,0 -0.90295,-0.42194 -0.99015,-0.72011l-1.48804,-5.19831h-0.02532l-0.73418,5.04923c-0.08439,0.58228 -0.33474,0.8692 -0.96484,0.8692c-0.49789,0 -0.89451,-0.34599 -0.89451,-0.89452c0,-0.05907 0,-0.13502 0.01125,-0.20816zM15.79096,12.45007z" />
</svg>