<?xml version="1.0" encoding="UTF-8"?>
<svg xmlns="http://www.w3.org/2000/svg" xmlns:xlink="http://www.w3.org/1999/xlink" width="32px" height="32px" viewBox="0 0 32 32" version="1.1">
  <path d="M6,6 V26 H26 V6 ZM 10.953125 11.621094 C 10.867188 11.398438 10.832031 11.222656 10.832031 10.984375 C 10.832031 10.261719 11.46875 9.742188 12.160156 9.742188 C 12.746094 9.742188 13.105469 10.121094 13.332031 10.585938 L 16 17.753906 L 18.671875 10.585938 C 18.894531 10.121094 19.257812 9.742188 19.839844 9.742188 C 20.53125 9.742188 21.167969 10.261719 21.167969 10.984375 C 21.167969 11.222656 21.132812 11.398438 21.046875 11.621094 L 17.277344 21.214844 C 17.050781 21.765625 16.757812 22.214844 16 22.214844 C 15.242188 22.214844 14.949219 21.765625 14.726562 21.214844 Z M 10.953125 11.621094 "/>
</svg>
