<?xml version="1.0" encoding="UTF-8"?>
<svg width="32" height="32" xmlns="http://www.w3.org/2000/svg">
  <path d="M2,6 V26 H30 V6 H2ZM15.4019,12.95921l-2.07595,2.91983v3.36428c0,0.63854 -0.51758,1.15612 -1.15612,1.15612h-0.09001c-0.63854,0 -1.15612,-0.51758 -1.15612,-1.15612v-3.36709l-2.07314,-2.91702c-0.1097,-0.16315 -0.1744,-0.36006 -0.1744,-0.55978c0,-0.49508 0.37412,-0.90577 0.89451,-0.90577c0.32349,0 0.60759,0.13783 0.76793,0.37412l1.78622,2.59072l1.78622,-2.59072c0.16034,-0.23629 0.44726,-0.37412 0.77074,-0.37412c0.52039,0 0.8917,0.41069 0.8917,0.90577c0,0.19972 -0.06188,0.39662 -0.17159,0.55978zM15.57349,12.39944z M19.26758,13.27989h-1.35021c-0.59634,0 -0.84388,-0.43319 -0.84388,-0.85513c0,-0.43319 0.30942,-0.85513 0.84388,-0.85513h4.5654c0.53165,0 0.84107,0.42194 0.84107,0.85513c0,0.42194 -0.24754,0.85513 -0.84107,0.85513h-1.35302v6.22785c0,0.62166 -0.39662,0.96765 -0.93108,0.96765c-0.53165,0 -0.93108,-0.34599 -0.93108,-0.96765zM19.26758,13.27989z" />
</svg>