<?xml version="1.0" encoding="UTF-8"?>
<svg xmlns="http://www.w3.org/2000/svg" xmlns:xlink="http://www.w3.org/1999/xlink" width="32px" height="32px" viewBox="0 0 32 32" version="1.1">
  <path d="M6,6 V26 H26 V6 ZM 10.445312 11.085938 C 10.445312 10.226562 11.09375 9.742188 11.832031 9.742188 C 12.574219 9.742188 13.222656 10.226562 13.222656 11.085938 L 13.222656 17.097656 C 13.222656 18.683594 14.363281 19.832031 16 19.832031 C 17.566406 19.832031 18.777344 18.613281 18.777344 17.097656 L 18.777344 11.085938 C 18.777344 10.226562 19.425781 9.742188 20.167969 9.742188 C 20.90625 9.742188 21.539062 10.226562 21.539062 11.085938 L 21.539062 17.234375 C 21.539062 20.128906 18.839844 22.316406 16 22.316406 C 13.125 22.316406 10.445312 20.164062 10.445312 17.234375 Z M 10.445312 11.085938 "/>
</svg>
