<?xml version="1.0" encoding="UTF-8"?>
<svg width="32" height="32" xmlns="http://www.w3.org/2000/svg">
  <path d="M2,6 V26 H30 V6 H2ZM6.82947,12.53727c0,-0.58509 0.34599,-0.96765 0.96765,-0.96765h2.19409c1.8256,0 3.17581,1.18987 3.17581,2.96484c0,1.80872 -1.40084,2.93952 -3.09986,2.93952h-1.37834v2.03376c0,0.62166 -0.39662,0.96765 -0.92827,0.96765c-0.53446,0 -0.93108,-0.34599 -0.93108,-0.96765zM8.68882,15.83685h1.26582c0.782,0 1.27707,-0.57103 1.27707,-1.31646c0,-0.74262 -0.49508,-1.31364 -1.27707,-1.31364h-1.26582zM8.68882,15.83685z M14.43636,12.73418c-0.03657,-0.16034 -0.04782,-0.24754 -0.04782,-0.42194c0,-0.39662 0.33474,-0.81856 0.88045,-0.81856c0.59353,0 0.88045,0.3488 0.99015,0.89451l1.05485,5.27145h0.02532l1.61181,-5.4346c0.13783,-0.44444 0.50914,-0.73136 0.96765,-0.73136c0.46132,0 0.83263,0.28692 0.96765,0.73136l1.61181,5.4346h0.02532l1.05485,-5.27145c0.11252,-0.54571 0.39662,-0.89451 0.99297,-0.89451c0.54571,0 0.88045,0.42194 0.88045,0.81856c0,0.1744 -0.01125,0.2616 -0.05063,0.42194l-1.57243,6.77356c-0.12658,0.52039 -0.53446,0.96765 -1.22926,0.96765c-0.60759,0 -1.08017,-0.39662 -1.22644,-0.90577l-1.44022,-4.78762h-0.02532l-1.43741,4.78762c-0.14909,0.50914 -0.62166,0.90577 -1.22925,0.90577c-0.6948,0 -1.10267,-0.44726 -1.22925,-0.96765zM14.43636,12.73418z" />
</svg>