<?xml version="1.0" encoding="UTF-8"?>
<svg width="32" height="32" xmlns="http://www.w3.org/2000/svg">
  <path d="M2,6 V26 H30 V6 H2ZM8.71871,12.46132c0,-0.61885 0.39662,-0.96765 0.93108,-0.96765c0.23347,0 0.61885,0.18565 0.782,0.41069l3.92968,5.24613h0.02532v-4.68917c0,-0.61885 0.39662,-0.96765 0.93108,-0.96765c0.53446,0 0.93108,0.3488 0.93108,0.96765v7.04641c0,0.61885 -0.39662,0.96765 -0.93108,0.96765c-0.23629,0 -0.60759,-0.18565 -0.782,-0.41069l-3.93249,-5.18425h-0.02532v4.62729c0,0.61885 -0.39662,0.96765 -0.93108,0.96765c-0.53165,0 -0.92827,-0.3488 -0.92827,-0.96765zM8.71871,12.46132z M18.45288,12.64698c0,-0.61885 0.30942,-1.07736 0.96765,-1.07736h3.07454c0.59634,0 0.88045,0.42194 0.88045,0.85513c0,0.42194 -0.29536,0.85513 -0.88045,0.85513h-2.18284v1.81153h2.03375c0.61041,0 0.90577,0.42194 0.90577,0.85795c0,0.41913 -0.30942,0.85513 -0.90577,0.85513h-2.03375v1.88467h2.29536c0.59634,0 0.88045,0.42194 0.88045,0.85513c0,0.42194 -0.29817,0.85795 -0.88045,0.85795h-3.20113c-0.54571,0 -0.95359,-0.37412 -0.95359,-0.93108zM18.45288,12.64698z" />
</svg>