<?xml version="1.0" encoding="UTF-8"?>
<svg width="32" height="32" xmlns="http://www.w3.org/2000/svg">
  <path d="M2,6 V26 H30 V6 H2ZM14.00369,18.76231c0.52039,0 0.89452,0.28692 0.89452,0.81856c0,0.47257 -0.44726,0.81857 -0.89452,0.81857h-4.87482c-0.65541,0 -1.04079,-0.37131 -1.04079,-0.8917c0,-0.24754 0.0872,-0.49508 0.24754,-0.72011l3.99437,-5.58087h-3.26301c-0.49508,0 -0.86638,-0.28692 -0.86638,-0.79325c0,-0.47257 0.39662,-0.84388 0.86638,-0.84388h4.54008c0.72011,0 1.04079,0.45851 1.04079,0.8917c0,0.27285 -0.1097,0.58509 -0.27285,0.79325l-3.96906,5.50774zM14.00369,18.76231z M18.72767,12.45007c0.21097,-0.57103 0.6948,-1.02954 1.32771,-1.02954c0.65823,0 1.11674,0.43319 1.32771,1.02954l2.43038,6.74824c0.07595,0.19691 0.10127,0.37131 0.10127,0.45851c0,0.48383 -0.39944,0.81857 -0.85795,0.81857c-0.52039,0 -0.782,-0.27285 -0.90577,-0.64416l-0.37131,-1.16737h-3.44866l-0.37131,1.1533c-0.12377,0.38537 -0.38537,0.65823 -0.89452,0.65823c-0.49508,0 -0.91702,-0.37412 -0.91702,-0.8692c0,-0.19691 0.06188,-0.34599 0.0872,-0.40788zM18.86551,16.95359h2.35724l-1.1533,-3.59775h-0.02532zM18.86551,16.95359z" />
</svg>