<?xml version="1.0" encoding="UTF-8"?>
<svg width="32" height="32" xmlns="http://www.w3.org/2000/svg">
  <path d="M2,6 V26 H30 V6 H2ZM6.79694,12.73418c-0.03657,-0.16034 -0.04782,-0.24754 -0.04782,-0.42194c0,-0.39662 0.33474,-0.81856 0.88045,-0.81856c0.59353,0 0.88045,0.3488 0.99015,0.89451l1.05485,5.27145h0.02532l1.61181,-5.4346c0.13783,-0.44444 0.50914,-0.73136 0.96765,-0.73136c0.46132,0 0.83263,0.28692 0.96765,0.73136l1.61181,5.4346h0.02532l1.05485,-5.27145c0.11252,-0.54571 0.39662,-0.89451 0.99297,-0.89451c0.54571,0 0.88045,0.42194 0.88045,0.81856c0,0.1744 -0.01125,0.2616 -0.05063,0.42194l-1.57243,6.77356c-0.12658,0.52039 -0.53446,0.96765 -1.22926,0.96765c-0.60759,0 -1.08017,-0.39662 -1.22644,-0.90577l-1.44022,-4.78762h-0.02532l-1.43741,4.78762c-0.14909,0.50914 -0.62166,0.90577 -1.22925,0.90577c-0.6948,0 -1.10267,-0.44726 -1.22925,-0.96765zM6.79694,12.73418z M24.60672,12.66104c0,0.48383 -0.32349,0.91702 -0.82982,0.91702c-0.50914,0 -0.90577,-0.37131 -1.6512,-0.37131c-0.53165,0 -1.01547,0.28411 -1.01547,0.8045c0,1.27989 4.14346,0.46132 4.14346,3.65963c0,1.77496 -1.46554,2.87764 -3.17581,2.87764c-0.9564,0 -3.01547,-0.22222 -3.01547,-1.38959c0,-0.48383 0.32349,-0.88045 0.83263,-0.88045c0.58228,0 1.27707,0.48383 2.08158,0.48383c0.81857,0 1.26582,-0.45851 1.26582,-1.0661c0,-1.46273 -4.14346,-0.58228 -4.14346,-3.45992c0,-1.7384 1.42616,-2.81575 3.07736,-2.81575c0.6948,0 2.43038,0.25879 2.43038,1.24051zM24.60672,12.66104z" />
</svg>