<?xml version="1.0" encoding="UTF-8"?>
<svg xmlns="http://www.w3.org/2000/svg" xmlns:xlink="http://www.w3.org/1999/xlink" width="32px" height="32px" viewBox="0 0 32 32" version="1.1">
  <path d="M6,6 V26 H26 V6 ZM 14.503906 15.546875 L 11.710938 11.757812 C 11.539062 11.535156 11.4375 11.277344 11.4375 11 C 11.4375 10.242188 12.003906 9.742188 12.746094 9.742188 C 13.175781 9.742188 13.625 10.035156 13.863281 10.378906 L 16 13.414062 L 18.136719 10.378906 C 18.378906 10.035156 18.824219 9.742188 19.257812 9.742188 C 19.996094 9.742188 20.566406 10.242188 20.566406 11 C 20.566406 11.277344 20.464844 11.535156 20.292969 11.757812 L 17.5 15.546875 L 20.910156 20.128906 C 21.046875 20.320312 21.203125 20.648438 21.203125 21.007812 C 21.203125 21.730469 20.652344 22.214844 19.894531 22.214844 C 19.429688 22.214844 19.085938 22.007812 18.828125 21.644531 L 16 17.71875 L 13.175781 21.644531 C 12.917969 22.007812 12.574219 22.214844 12.109375 22.214844 C 11.351562 22.214844 10.800781 21.730469 10.800781 21.007812 C 10.800781 20.648438 10.953125 20.320312 11.09375 20.128906 Z M 14.503906 15.546875 "/>
</svg>
