<?xml version="1.0" encoding="UTF-8"?>
<svg width="32" height="32" xmlns="http://www.w3.org/2000/svg">
  <path d="M2,6 V26 H30 V6 H2ZM7.83325,12.4135c0,-0.50914 0.37131,-0.91983 0.92827,-0.91983c0.53446,0 0.93108,0.3488 0.93108,0.91983v2.67792l3.05204,-3.24895c0.13502,-0.14909 0.37131,-0.3488 0.7173,-0.3488c0.47257,0 0.91983,0.36006 0.91983,0.89451c0,0.32068 -0.19972,0.58228 -0.60759,0.99015l-2.34599,2.30661l2.86639,2.99015c0.29817,0.29817 0.52039,0.57103 0.52039,0.94515c0,0.58228 -0.45851,0.85513 -0.96765,0.85513c-0.36006,0 -0.59353,-0.21097 -0.94233,-0.58228l-3.21238,-3.47398v3.16174c0,0.48383 -0.37412,0.89452 -0.93108,0.89452c-0.53446,0 -0.93108,-0.3488 -0.93108,-0.89452v-7.16737zM7.83325,12.4135z M24.42976,12.59916v6.80169c0,0.55134 -0.44726,0.99859 -0.99859,0.99859c-0.55415,0 -1.00141,-0.44726 -1.00141,-0.99859v-2.60197h-4v2.60197c0,0.55134 -0.44726,0.99859 -1.00141,0.99859c-0.55134,0 -0.99859,-0.44726 -0.99859,-0.99859v-6.80169c0,-0.55134 0.44726,-0.99859 0.99859,-0.99859c0.55415,0 1.00141,0.44726 1.00141,0.99859v2.19972h4v-2.19972c0,-0.55134 0.44726,-0.99859 1.00141,-0.99859c0.55134,0 0.99859,0.44726 0.99859,0.99859zM23.43117,11.60056z" />
</svg>