<?xml version="1.0" encoding="UTF-8"?>
<svg width="32" height="32" xmlns="http://www.w3.org/2000/svg">
  <path d="M2,6 V26 H30 V6 H2ZM7.08448,12.45007c0.07314,-0.44726 0.55696,-0.9564 1.21519,-0.9564c0.61885,0 1.10267,0.44726 1.24051,0.89451l1.46273,4.91139h0.02532l1.46273,-4.91139c0.13783,-0.44726 0.62166,-0.89451 1.24051,-0.89451c0.65823,0 1.14205,0.50914 1.21519,0.9564l1.1533,6.92264c0.01406,0.07314 0.01406,0.14627 0.01406,0.20816c0,0.54571 -0.39662,0.89452 -0.89451,0.89452c-0.63291,0 -0.88045,-0.28692 -0.96765,-0.8692l-0.73136,-5.04923h-0.02532l-1.48804,5.19831c-0.0872,0.29817 -0.32067,0.72011 -0.99297,0.72011c-0.66948,0 -0.90295,-0.42194 -0.99015,-0.72011l-1.48804,-5.19831h-0.02532l-0.73418,5.04923c-0.08439,0.58228 -0.33474,0.8692 -0.96484,0.8692c-0.49789,0 -0.89451,-0.34599 -0.89451,-0.89452c0,-0.05907 0,-0.13502 0.01125,-0.20816zM7.08448,12.45007z M23.84379,20.00281c-0.60759,0.3488 -1.33896,0.54571 -2.18284,0.54571c-2.51758,0 -4.26723,-1.99719 -4.26723,-4.56259c0,-2.58228 1.7384,-4.5654 4.26723,-4.5654c2.49508,0 4.26723,2.04501 4.26723,4.5654c0,1.09142 -0.28411,2.08158 -0.82982,2.86357l0.70605,0.60759c0.23629,0.21097 0.43601,0.41069 0.43601,0.75668c0,0.43601 -0.43601,0.782 -0.85795,0.782c-0.27286,0 -0.49508,-0.1097 -0.82982,-0.39662zM23.69752,17.57243c0.20816,-0.47257 0.29536,-1.01547 0.29536,-1.5865c0,-1.47679 -0.77918,-2.85513 -2.33193,-2.85513c-1.54993,0 -2.33193,1.35302 -2.33193,2.85513c0,1.51055 0.75668,2.85232 2.33193,2.85232c0.28692,0 0.54571,-0.03657 0.79325,-0.0872l-0.44444,-0.43319c-0.13783,-0.12658 -0.23629,-0.32349 -0.23629,-0.49789c0,-0.48383 0.33474,-0.8917 0.84388,-0.8917c0.1744,0 0.32068,0.06189 0.46976,0.16034zM23.69752,17.57243z" />
</svg>