<?xml version="1.0" encoding="UTF-8"?>
<svg width="32" height="32" xmlns="http://www.w3.org/2000/svg">
  <path d="M2,6 V26 H30 V6 H2ZM6.6141,12.4135c0,-0.50914 0.37131,-0.91983 0.92827,-0.91983c0.53446,0 0.93108,0.3488 0.93108,0.91983v2.67792l3.05204,-3.24895c0.13502,-0.14909 0.37131,-0.3488 0.7173,-0.3488c0.47257,0 0.91983,0.36006 0.91983,0.89451c0,0.32068 -0.19972,0.58228 -0.60759,0.99015l-2.34599,2.30661l2.86639,2.99015c0.29817,0.29817 0.52039,0.57103 0.52039,0.94515c0,0.58228 -0.45851,0.85513 -0.96765,0.85513c-0.36006,0 -0.59353,-0.21097 -0.94233,-0.58228l-3.21238,-3.47398v3.16174c0,0.48383 -0.37412,0.89452 -0.93108,0.89452c-0.53446,0 -0.93108,-0.3488 -0.93108,-0.89452v-7.16737zM6.6141,12.4135z M14.63485,12.73418c-0.03657,-0.16034 -0.04782,-0.24754 -0.04782,-0.42194c0,-0.39662 0.33474,-0.81856 0.88045,-0.81856c0.59353,0 0.88045,0.3488 0.99015,0.89451l1.05485,5.27145h0.02532l1.61181,-5.4346c0.13783,-0.44444 0.50914,-0.73136 0.96765,-0.73136c0.46132,0 0.83263,0.28692 0.96765,0.73136l1.61181,5.4346h0.02532l1.05485,-5.27145c0.11252,-0.54571 0.39662,-0.89451 0.99297,-0.89451c0.54571,0 0.88045,0.42194 0.88045,0.81856c0,0.1744 -0.01125,0.2616 -0.05063,0.42194l-1.57243,6.77356c-0.12658,0.52039 -0.53446,0.96765 -1.22926,0.96765c-0.60759,0 -1.08017,-0.39662 -1.22644,-0.90577l-1.44022,-4.78762h-0.02532l-1.43741,4.78762c-0.14909,0.50914 -0.62166,0.90577 -1.22925,0.90577c-0.6948,0 -1.10267,-0.44726 -1.22925,-0.96765zM14.63485,12.73418z" />
</svg>