<?xml version="1.0" encoding="UTF-8"?>
<svg width="32" height="32" xmlns="http://www.w3.org/2000/svg">
  <path d="M2,6 V26 H30 V6 H2ZM13.82199,12.66104c0,0.48383 -0.32349,0.91702 -0.82982,0.91702c-0.50914,0 -0.90577,-0.37131 -1.6512,-0.37131c-0.53165,0 -1.01547,0.28411 -1.01547,0.8045c0,1.27989 4.14346,0.46132 4.14346,3.65963c0,1.77496 -1.46554,2.87764 -3.17581,2.87764c-0.9564,0 -3.01547,-0.22222 -3.01547,-1.38959c0,-0.48383 0.32349,-0.88045 0.83263,-0.88045c0.58228,0 1.27707,0.48383 2.08158,0.48383c0.81857,0 1.26582,-0.45851 1.26582,-1.0661c0,-1.46273 -4.14346,-0.58228 -4.14346,-3.45992c0,-1.7384 1.42616,-2.81575 3.07736,-2.81575c0.6948,0 2.43038,0.25879 2.43038,1.24051zM13.82199,12.66104z M16.45508,12.52321c0,-0.57103 0.39662,-0.95359 0.9564,-0.95359h2.05907c2.77637,0 4.36568,1.78622 4.36568,4.54008c0,2.60478 -1.68776,4.28973 -4.24191,4.28973h-2.16034c-0.40788,0 -0.9789,-0.22222 -0.9789,-0.92827zM18.31725,18.68917h1.25176c1.60056,0 2.33193,-1.17862 2.33193,-2.66667c0,-1.58931 -0.74262,-2.74262 -2.4557,-2.74262h-1.12799zM18.31725,18.68917z" />
</svg>