<?xml version="1.0" encoding="UTF-8"?>
<svg width="32" height="32" xmlns="http://www.w3.org/2000/svg">
  <path d="M2,6 V26 H30 V6 H2ZM10.5974,13.27989h-1.35021c-0.59634,0 -0.84388,-0.43319 -0.84388,-0.85513c0,-0.43319 0.30942,-0.85513 0.84388,-0.85513h4.5654c0.53165,0 0.84107,0.42194 0.84107,0.85513c0,0.42194 -0.24754,0.85513 -0.84107,0.85513h-1.35302v6.22785c0,0.62166 -0.39662,0.96765 -0.93108,0.96765c-0.53165,0 -0.93108,-0.34599 -0.93108,-0.96765zM10.5974,13.27989z M16.24086,12.8467c-0.06188,-0.16034 -0.0872,-0.28692 -0.0872,-0.45851c0,-0.52039 0.45851,-0.89451 0.9564,-0.89451c0.42194,0 0.68073,0.27285 0.84388,0.60759l1.92124,5.16174l1.92405,-5.16174c0.16034,-0.33474 0.42194,-0.60759 0.84107,-0.60759c0.49789,0 0.9564,0.37412 0.9564,0.89451c0,0.17159 -0.02532,0.29817 -0.0872,0.45851l-2.71449,6.90858c-0.16315,0.39662 -0.37412,0.72011 -0.91983,0.72011c-0.54571,0 -0.75668,-0.32349 -0.91702,-0.72011zM16.24086,12.8467z" />
</svg>