<?xml version="1.0" encoding="UTF-8"?>
<svg width="32" height="32" xmlns="http://www.w3.org/2000/svg">
  <path d="M2,6 V26 H30 V6 H2ZM10.19392,13.27989h-1.35021c-0.59634,0 -0.84388,-0.43319 -0.84388,-0.85513c0,-0.43319 0.30942,-0.85513 0.84388,-0.85513h4.5654c0.53165,0 0.84107,0.42194 0.84107,0.85513c0,0.42194 -0.24754,0.85513 -0.84107,0.85513h-1.35302v6.22785c0,0.62166 -0.39662,0.96765 -0.93108,0.96765c-0.53165,0 -0.93108,-0.34599 -0.93108,-0.96765zM10.19392,13.27989z M24.00018,12.59916v6.80169c0,0.55134 -0.44726,0.99859 -0.99859,0.99859c-0.55415,0 -1.00141,-0.44726 -1.00141,-0.99859v-2.60197h-4v2.60197c0,0.55134 -0.44726,0.99859 -1.00141,0.99859c-0.55134,0 -0.99859,-0.44726 -0.99859,-0.99859v-6.80169c0,-0.55134 0.44726,-0.99859 0.99859,-0.99859c0.55415,0 1.00141,0.44726 1.00141,0.99859v2.19972h4v-2.19972c0,-0.55134 0.44726,-0.99859 1.00141,-0.99859c0.55134,0 0.99859,0.44726 0.99859,0.99859zM23.00158,11.60056z" />
</svg>