<?xml version="1.0" encoding="UTF-8"?>
<svg width="32" height="32" xmlns="http://www.w3.org/2000/svg">
  <path d="M2,6 V26 H30 V6 H2ZM14.37641,12.66104c0,0.48383 -0.32349,0.91702 -0.82982,0.91702c-0.50914,0 -0.90577,-0.37131 -1.6512,-0.37131c-0.53165,0 -1.01547,0.28411 -1.01547,0.8045c0,1.27989 4.14346,0.46132 4.14346,3.65963c0,1.77496 -1.46554,2.87764 -3.17581,2.87764c-0.9564,0 -3.01547,-0.22222 -3.01547,-1.38959c0,-0.48383 0.32349,-0.88045 0.83263,-0.88045c0.58228,0 1.27707,0.48383 2.08158,0.48383c0.81857,0 1.26582,-0.45851 1.26582,-1.0661c0,-1.46273 -4.14346,-0.58228 -4.14346,-3.45992c0,-1.7384 1.42616,-2.81575 3.07736,-2.81575c0.6948,0 2.43038,0.25879 2.43038,1.24051zM14.37641,12.66104z M22.99771,12.95921l-2.07595,2.91983v3.36428c0,0.63854 -0.51758,1.15612 -1.15612,1.15612h-0.09001c-0.63854,0 -1.15612,-0.51758 -1.15612,-1.15612v-3.36709l-2.07314,-2.91702c-0.1097,-0.16315 -0.1744,-0.36006 -0.1744,-0.55978c0,-0.49508 0.37412,-0.90577 0.89451,-0.90577c0.32349,0 0.60759,0.13783 0.76793,0.37412l1.78622,2.59072l1.78622,-2.59072c0.16034,-0.23629 0.44726,-0.37412 0.77074,-0.37412c0.52039,0 0.8917,0.41069 0.8917,0.90577c0,0.19972 -0.06188,0.39662 -0.17159,0.55978zM23.1693,12.39944z" />
</svg>