<?xml version="1.0" encoding="UTF-8"?>
<svg width="32" height="32" xmlns="http://www.w3.org/2000/svg">
  <path d="M2,6 V26 H30 V6 H2ZM9.74807,12.53727c0,-0.58509 0.34599,-0.96765 0.96765,-0.96765h2.19409c1.8256,0 3.17581,1.18987 3.17581,2.96484c0,1.80872 -1.40084,2.93952 -3.09986,2.93952h-1.37834v2.03376c0,0.62166 -0.39662,0.96765 -0.92827,0.96765c-0.53446,0 -0.93108,-0.34599 -0.93108,-0.96765zM11.60742,15.83685h1.26582c0.782,0 1.27707,-0.57103 1.27707,-1.31646c0,-0.74262 -0.49508,-1.31364 -1.27707,-1.31364h-1.26582zM11.60742,15.83685z M17.84968,12.53727c0,-0.50914 0.34599,-0.96765 0.96765,-0.96765h3.173c0.54852,0 0.83263,0.42194 0.83263,0.85513c0,0.42194 -0.27285,0.85513 -0.83263,0.85513h-2.28129v1.81153h1.92405c0.59353,0 0.8917,0.42194 0.8917,0.84388c0,0.43319 -0.29817,0.8692 -0.8917,0.8692h-1.92405v2.70323c0,0.62166 -0.39662,0.96765 -0.93108,0.96765c-0.53165,0 -0.93108,-0.34599 -0.93108,-0.96765v-6.97046zM17.84968,12.53727z" />
</svg>