<?xml version="1.0" encoding="UTF-8"?>
<svg width="32" height="32" xmlns="http://www.w3.org/2000/svg">
  <path d="M2,6 V26 H30 V6 H2ZM6.95447,12.53727c0,-0.59634 0.33474,-0.96765 0.95359,-0.96765h2.18284c1.9128,0 3.08861,0.85513 3.08861,2.80169c0,1.36428 -1.02954,2.14627 -2.29254,2.34599l2.10689,2.25598c0.1744,0.18847 0.24754,0.37412 0.24754,0.54571c0,0.48383 -0.38256,0.9564 -0.92827,0.9564c-0.22504,0 -0.52039,-0.0872 -0.72011,-0.32349l-2.75387,-3.33615h-0.02532v2.69198c0,0.61885 -0.39662,0.96765 -0.92827,0.96765c-0.53446,0 -0.93108,-0.3488 -0.93108,-0.96765zM8.81382,15.47679h1.27707c0.68354,0 1.1533,-0.41069 1.1533,-1.10549c0,-0.70605 -0.46976,-1.09142 -1.1533,-1.09142h-1.27707zM8.81382,15.47679z M14.28604,12.73418c-0.03657,-0.16034 -0.04782,-0.24754 -0.04782,-0.42194c0,-0.39662 0.33474,-0.81856 0.88045,-0.81856c0.59353,0 0.88045,0.3488 0.99015,0.89451l1.05485,5.27145h0.02532l1.61181,-5.4346c0.13783,-0.44444 0.50914,-0.73136 0.96765,-0.73136c0.46132,0 0.83263,0.28692 0.96765,0.73136l1.61181,5.4346h0.02532l1.05485,-5.27145c0.11252,-0.54571 0.39662,-0.89451 0.99297,-0.89451c0.54571,0 0.88045,0.42194 0.88045,0.81856c0,0.1744 -0.01125,0.2616 -0.05063,0.42194l-1.57243,6.77356c-0.12658,0.52039 -0.53446,0.96765 -1.22926,0.96765c-0.60759,0 -1.08017,-0.39662 -1.22644,-0.90577l-1.44022,-4.78762h-0.02532l-1.43741,4.78762c-0.14909,0.50914 -0.62166,0.90577 -1.22925,0.90577c-0.6948,0 -1.10267,-0.44726 -1.22925,-0.96765zM14.28604,12.73418z" />
</svg>