<?xml version="1.0" encoding="UTF-8"?>
<svg xmlns="http://www.w3.org/2000/svg" xmlns:xlink="http://www.w3.org/1999/xlink" width="32px" height="32px" viewBox="0 0 32 32" version="1.1">
  <path d="M6,6 V26 H26 V6 ZM 19.402344 11.363281 C 19.402344 12.035156 18.953125 12.636719 18.25 12.636719 C 17.542969 12.636719 16.992188 12.121094 15.957031 12.121094 C 15.21875 12.121094 14.546875 12.515625 14.546875 13.238281 C 14.546875 15.015625 20.300781 13.878906 20.300781 18.320312 C 20.300781 20.785156 18.265625 22.316406 15.890625 22.316406 C 14.5625 22.316406 11.703125 22.007812 11.703125 20.386719 C 11.703125 19.714844 12.152344 19.164062 12.859375 19.164062 C 13.667969 19.164062 14.632812 19.835938 15.75 19.835938 C 16.886719 19.835938 17.507812 19.199219 17.507812 18.355469 C 17.507812 16.324219 11.753906 17.546875 11.753906 13.550781 C 11.753906 11.136719 13.734375 9.640625 16.027344 9.640625 C 16.992188 9.640625 19.402344 10 19.402344 11.363281 Z M 19.402344 11.363281 "/>
</svg>
