<?xml version="1.0" encoding="UTF-8"?>
<svg xmlns="http://www.w3.org/2000/svg" xmlns:xlink="http://www.w3.org/1999/xlink" width="32px" height="32px" viewBox="0 0 32 32" version="1.1">
  <path d="M6,6 V26 H26 V6 ZM 11.988281 11.191406 C 11.988281 10.378906 12.46875 9.847656 13.332031 9.847656 L 16.378906 9.847656 C 18.914062 9.847656 20.789062 11.5 20.789062 13.964844 C 20.789062 16.476562 18.84375 18.046875 16.484375 18.046875 L 14.570312 18.046875 L 14.570312 20.871094 C 14.570312 21.734375 14.019531 22.214844 13.28125 22.214844 C 12.539062 22.214844 11.988281 21.734375 11.988281 20.871094 Z M 14.570312 15.773438 L 16.328125 15.773438 C 17.414062 15.773438 18.101562 14.980469 18.101562 13.945312 C 18.101562 12.914062 17.414062 12.121094 16.328125 12.121094 L 14.570312 12.121094 Z M 14.570312 15.773438 "/>
</svg>
