<?xml version="1.0" encoding="UTF-8"?>
<svg width="32" height="32" xmlns="http://www.w3.org/2000/svg">
  <path d="M2,6 V26 H30 V6 H2ZM8.06751,12.46132c0,-0.61885 0.39662,-0.96765 0.93108,-0.96765c0.23347,0 0.61885,0.18565 0.782,0.41069l3.92968,5.24613h0.02532v-4.68917c0,-0.61885 0.39662,-0.96765 0.93108,-0.96765c0.53446,0 0.93108,0.3488 0.93108,0.96765v7.04641c0,0.61885 -0.39662,0.96765 -0.93108,0.96765c-0.23629,0 -0.60759,-0.18565 -0.782,-0.41069l-3.93249,-5.18425h-0.02532v4.62729c0,0.61885 -0.39662,0.96765 -0.93108,0.96765c-0.53165,0 -0.92827,-0.3488 -0.92827,-0.96765zM8.06751,12.46132z M17.87623,12.53727c0,-0.58509 0.34599,-0.96765 0.96765,-0.96765h2.19409c1.8256,0 3.17581,1.18987 3.17581,2.96484c0,1.80872 -1.40084,2.93952 -3.09986,2.93952h-1.37834v2.03376c0,0.62166 -0.39662,0.96765 -0.92827,0.96765c-0.53446,0 -0.93108,-0.34599 -0.93108,-0.96765zM19.73558,15.83685h1.26582c0.782,0 1.27707,-0.57103 1.27707,-1.31646c0,-0.74262 -0.49508,-1.31364 -1.27707,-1.31364h-1.26582zM19.73558,15.83685z" />
</svg>