<?xml version="1.0" encoding="UTF-8"?>
<svg width="32" height="32" xmlns="http://www.w3.org/2000/svg">
  <path d="M2,6 V26 H30 V6 H2ZM7.36674,12.46132c0,-0.61885 0.46695,-0.96765 0.99859,-0.96765c0.53446,0 1.00141,0.3488 1.00141,0.96765v4.32911c0,1.14205 0.82138,1.96906 2,1.96906c1.12799,0 2,-0.87764 2,-1.96906v-4.32911c0,-0.61885 0.46695,-0.96765 1.00141,-0.96765c0.53165,0 0.98734,0.3488 0.98734,0.96765v4.42757c0,2.08439 -1.94374,3.65963 -3.98875,3.65963c-2.07032,0 -4,-1.54993 -4,-3.65963zM7.36674,12.46132z M19.44198,12.45007c0.21097,-0.57103 0.6948,-1.02954 1.32771,-1.02954c0.65823,0 1.11674,0.43319 1.32771,1.02954l2.43038,6.74824c0.07595,0.19691 0.10127,0.37131 0.10127,0.45851c0,0.48383 -0.39944,0.81857 -0.85795,0.81857c-0.52039,0 -0.782,-0.27285 -0.90577,-0.64416l-0.37131,-1.16737h-3.44866l-0.37131,1.1533c-0.12377,0.38537 -0.38537,0.65823 -0.89452,0.65823c-0.49508,0 -0.91702,-0.37412 -0.91702,-0.8692c0,-0.19691 0.06188,-0.34599 0.0872,-0.40788zM19.57982,16.95359h2.35724l-1.1533,-3.59775h-0.02532zM19.57982,16.95359z" />
</svg>