<?xml version="1.0" encoding="UTF-8"?>
<svg width="32" height="32" xmlns="http://www.w3.org/2000/svg">
  <path d="M2,6 V26 H30 V6 H2ZM14.36911,12.66104c0,0.48383 -0.32349,0.91702 -0.82982,0.91702c-0.50914,0 -0.90577,-0.37131 -1.6512,-0.37131c-0.53165,0 -1.01547,0.28411 -1.01547,0.8045c0,1.27989 4.14346,0.46132 4.14346,3.65963c0,1.77496 -1.46554,2.87764 -3.17581,2.87764c-0.9564,0 -3.01547,-0.22222 -3.01547,-1.38959c0,-0.48383 0.32349,-0.88045 0.83263,-0.88045c0.58228,0 1.27707,0.48383 2.08158,0.48383c0.81857,0 1.26582,-0.45851 1.26582,-1.0661c0,-1.46273 -4.14346,-0.58228 -4.14346,-3.45992c0,-1.7384 1.42616,-2.81575 3.07736,-2.81575c0.6948,0 2.43038,0.25879 2.43038,1.24051zM14.36911,12.66104z M17.14425,12.53727c0,-0.59634 0.33474,-0.96765 0.95359,-0.96765h2.18284c1.9128,0 3.08861,0.85513 3.08861,2.80169c0,1.36428 -1.02954,2.14627 -2.29254,2.34599l2.10689,2.25598c0.1744,0.18847 0.24754,0.37412 0.24754,0.54571c0,0.48383 -0.38256,0.9564 -0.92827,0.9564c-0.22504,0 -0.52039,-0.0872 -0.72011,-0.32349l-2.75387,-3.33615h-0.02532v2.69198c0,0.61885 -0.39662,0.96765 -0.92827,0.96765c-0.53446,0 -0.93108,-0.3488 -0.93108,-0.96765zM19.0036,15.47679h1.27707c0.68354,0 1.1533,-0.41069 1.1533,-1.10549c0,-0.70605 -0.46976,-1.09142 -1.1533,-1.09142h-1.27707zM19.0036,15.47679z" />
</svg>