<?xml version="1.0" encoding="UTF-8"?>
<svg xmlns="http://www.w3.org/2000/svg" xmlns:xlink="http://www.w3.org/1999/xlink" width="32px" height="32px" viewBox="0 0 32 32" version="1.1">
  <path d="M6,6 V26 H26 V6 ZM 8.386719 11.464844 C 8.335938 11.242188 8.320312 11.121094 8.320312 10.878906 C 8.320312 10.328125 8.785156 9.742188 9.542969 9.742188 C 10.367188 9.742188 10.765625 10.226562 10.917969 10.984375 L 12.382812 18.304688 L 12.417969 18.304688 L 14.65625 10.757812 C 14.847656 10.140625 15.363281 9.742188 16 9.742188 C 16.640625 9.742188 17.15625 10.140625 17.34375 10.757812 L 19.582031 18.304688 L 19.617188 18.304688 L 21.082031 10.984375 C 21.238281 10.226562 21.632812 9.742188 22.460938 9.742188 C 23.21875 9.742188 23.683594 10.328125 23.683594 10.878906 C 23.683594 11.121094 23.667969 11.242188 23.613281 11.464844 L 21.429688 20.871094 C 21.253906 21.59375 20.6875 22.214844 19.722656 22.214844 C 18.878906 22.214844 18.222656 21.664062 18.019531 20.957031 L 16.019531 14.308594 L 15.984375 14.308594 L 13.988281 20.957031 C 13.78125 21.664062 13.125 22.214844 12.28125 22.214844 C 11.316406 22.214844 10.75 21.59375 10.574219 20.871094 Z M 8.386719 11.464844 "/>
</svg>
