<?xml version="1.0" encoding="UTF-8"?>
<svg width="32" height="32" xmlns="http://www.w3.org/2000/svg">
  <path d="M2,6 V26 H30 V6 H2ZM13.95464,12.66104c0,0.48383 -0.32349,0.91702 -0.82982,0.91702c-0.50914,0 -0.90577,-0.37131 -1.6512,-0.37131c-0.53165,0 -1.01547,0.28411 -1.01547,0.8045c0,1.27989 4.14346,0.46132 4.14346,3.65963c0,1.77496 -1.46554,2.87764 -3.17581,2.87764c-0.9564,0 -3.01547,-0.22222 -3.01547,-1.38959c0,-0.48383 0.32349,-0.88045 0.83263,-0.88045c0.58228,0 1.27707,0.48383 2.08158,0.48383c0.81857,0 1.26582,-0.45851 1.26582,-1.0661c0,-1.46273 -4.14346,-0.58228 -4.14346,-3.45992c0,-1.7384 1.42616,-2.81575 3.07736,-2.81575c0.6948,0 2.43038,0.25879 2.43038,1.24051zM13.95464,12.66104z M18.76828,15.6737l-2.01125,-2.72855c-0.12377,-0.16034 -0.19691,-0.34599 -0.19691,-0.54571c0,-0.54571 0.40788,-0.90577 0.94233,-0.90577c0.30942,0 0.63291,0.21097 0.8045,0.45851l1.53868,2.18565l1.53868,-2.18565c0.1744,-0.24754 0.49508,-0.45851 0.80731,-0.45851c0.53165,0 0.94233,0.36006 0.94233,0.90577c0,0.19972 -0.07314,0.38537 -0.19691,0.54571l-2.01125,2.72855l2.4557,3.29958c0.09845,0.13783 0.21097,0.37412 0.21097,0.63291c0,0.52039 -0.39662,0.8692 -0.94233,0.8692c-0.33474,0 -0.58228,-0.14909 -0.76793,-0.41069l-2.03657,-2.827l-2.03376,2.827c-0.18565,0.2616 -0.43319,0.41069 -0.76793,0.41069c-0.54571,0 -0.94233,-0.3488 -0.94233,-0.8692c0,-0.25879 0.1097,-0.49508 0.21097,-0.63291zM18.76828,15.6737z" />
</svg>