<svg width="32" height="32" viewBox="0 0 32 32" xmlns="http://www.w3.org/2000/svg">
  <polygon id="bg" fill="#F4F4F4" points="6.8,26 2.2,26 2.1,25.9 2.1,6.1 2.2,6 6.8,6 7.8,7 7.8,25" />
  <polygon fill="#CF0828" points="6.8,6 30,6 30,19.5 29,20.5 7.8,20.5 6.8,19.5" />
  <path fill="#CF0828" d="M4.6,14.5246H4.4v-0.3279h0.2V14.5246z M4.6,23.0492H4.4v0.6557h0.2V23.0492z M5.6,24.6885h0.2v-0.3279H5.6V24.6885z M6.6,7.3115h0.2v0.3279H6.6v0.3279H6.4v0.3279H6.2v0.3278H6v0.3279H5.8v0.3279H5.6V8.9508H5.4V8.6229H5.2V8.2951H5V7.9672H4.8V7.6393H4.6V7.3115h0.2V6.9836H5V6.6558h0.2V6.3279h0.2V6H6v0.3279h0.2v0.3279h0.2v0.3278h0.2V7.3115z M6.2,7.3115H6V6.9836H5.8V6.6558H5.6v0.3278H5.4v0.3279H5.2v0.3279h0.2v0.3279h0.2v0.3279h0.2V7.9672H6V7.6393h0.2V7.3115z M6.6,25.6721h0.2v-0.3279H6.6V25.6721z M4.4,21.4099h0.2v-0.6558H4.4V21.4099z M5.2,21.4099v0.3279h0.2v0.3278h0.2v0.3279H5.4v0.3279H5.2v0.3279H5v-0.3279H4.8v-0.3279H4.6v-0.3279h0.2v-0.3278H5v-0.3279H5.2z M5.2,22.0656H5v0.3279h0.2V22.0656z M6.6,6.3279v0.3279h0.2V6.3279H6.6z M5.2,8.9508v0.3279h0.2v0.3279h0.2v0.3279H5.4v0.3278H5.2v0.3279H5v-0.3279H4.8V9.9344H4.6V9.6066h0.2V9.2787H5V8.9508H5.2z M5.2,9.6066H5v0.3279h0.2V9.6066z M4.6,6H4.4v0.6558h0.2V6z M4.4,8.9508h0.2V8.2951H4.4V8.9508z M5.6,7.6393h0.2V7.3115H5.6V7.6393z M4.6,10.5901H4.4v0.6558h0.2V10.5901z M3.8,10.5901v-0.3279H3.6V9.9344H3.4V9.6066h0.2V9.2787h0.2V8.9508H4v0.3279h0.2v0.3279h0.2v0.3279H4.2v0.3278H4v0.3279H3.8z M3.8,9.9344H4V9.6066H3.8V9.9344z M4.4,26h0.2v-0.6558H4.4V26z M3.8,23.0492v-0.3279H3.6v-0.3279H3.4v-0.3279h0.2v-0.3278h0.2v-0.3279H4v0.3279h0.2v0.3278h0.2v0.3279H4.2v0.3279H4v0.3279H3.8z M3.8,22.3934H4v-0.3279H3.8V22.3934z M4.8,15.1803H4.6v0.3279H4.4v-0.3279H4.2v-0.3278H4v0.6557h0.2v0.3279h0.2v0.3279H4.2v0.3279H4v0.6557h0.2v-0.3278h0.2v-0.3279h0.2v0.3279h0.2v0.3278H5v-0.6557H4.8v-0.3279H4.6v-0.3279h0.2v-0.3279H5v-0.6557H4.8V15.1803z M6.6,11.2459h0.2V10.918H6.6V11.2459z M6.6,11.9016h0.2v0.6558H6.6v0.3279H6.4v0.3279H6.2v0.3278H6v-0.3278H5.8v-0.3279H5.6v-0.3279H6v-0.3279H5.4v0.3279H5.2v0.3279H5v0.3279h0.2v0.3278h0.2v0.3279h0.2v0.3279h0.2v0.3279H6v0.3279h0.2v-0.3279h0.2v-0.3279h0.2v-0.3279h0.2v0.9836H6.6v0.3278H6.4v0.3279H6.2v0.3279H6v0.3279h0.2v0.3279h0.2v0.3279h0.2v0.3278h0.2v0.9836H6.6v-0.3279H6.4v-0.3279H6.2v-0.3279H6v0.3279H5.8v0.3279H5.6v0.3279H5.4v0.3279H5.2v0.3278H5v0.3279h0.2v0.3279h0.2v0.3279H6v-0.3279H5.6v-0.3279h0.2v-0.3279H6V18.459h0.2v0.3278h0.2v0.3279h0.2v0.3279h0.2v0.6558H6.6v0.3278H6.4v0.3279H6.2v0.3279H6v0.3279H5.8v0.3279H5.6v-0.3279H5.4V21.082H5.2v-0.3279H5v-0.3279H4.8v-0.3278H4.6v-0.3279H4.4v0.3279H4.2v0.3278H4v0.3279H3.8v0.3279H3.6v0.3279H3.4v0.3279H3.2v-0.3279H3V21.082H2.8v-0.3279H2.6v-0.3279H2.4v-0.3278H2.2v0.6557h0.2v0.3279H2.2v0.9836h0.2v-0.3278h0.2v-0.3279h0.2v0.3279H3v0.3278h0.2v0.3279H3v0.3279H2.8v0.3279H2.6v-0.3279H2.4v-0.3279H2.2v0.9836h0.2v0.3278H2.2v0.6558h0.2v-0.3279h0.2v-0.3279h0.2v-0.3278H3v-0.3279h0.2v-0.3279h0.2v0.3279h0.2v0.3279h0.2v0.3278H4v0.3279h0.2v0.3279h0.2v0.3279H4.2v0.3279H4v0.3278H3.8v0.3279H3.6V26H3v-0.3279H2.8v-0.3279H2.6v-0.3278H2.4v-0.3279H2.2v0.6557h0.2v0.3279H2.2V26H2V6h0.2v0.3279h0.2v0.3279H2.2v0.6557h0.2V6.9836h0.2V6.6558h0.2V6.3279H3V6h0.6v0.3279h0.2v0.3279H4v0.3278h0.2v0.3279h0.2v0.3279H4.2v0.3279H4v0.3279H3.8v0.3278H3.6v0.3279H3.4v0.3279H3.2V8.9508H3V8.6229H2.8V8.2951H2.6V7.9672H2.4V7.6393H2.2v0.6558h0.2v0.3278H2.2v0.9836h0.2V9.2787h0.2V8.9508h0.2v0.3279H3v0.3279h0.2v0.3279H3v0.3278H2.8v0.3279H2.6v-0.3279H2.4V9.9344H2.2v0.9836h0.2v0.3279H2.2v0.6557h0.2v-0.3278h0.2v-0.3279h0.2V10.918H3v-0.3279h0.2v-0.3279h0.2v0.3279h0.2v0.3279h0.2v0.3279H4v0.3279h0.2v0.3278h0.2v0.3279h0.2v-0.3279h0.2v-0.3278H5v-0.3279h0.2V10.918h0.2v-0.3279h0.2v-0.3279h0.2v0.3279H6v0.3279h0.2v0.3279h0.2v0.3279h0.2V11.9016z M2.6,9.9344h0.2V9.6066H2.6V9.9344z M2.8,7.6393H3v0.3279h0.2v0.3279h0.2V7.9672h0.2V7.6393h0.2V7.3115H3.6V6.9836H3.4V6.6558H3.2v0.3278H3v0.3279H2.8V7.6393z M2.8,24.6885H3v0.3279h0.2v0.3278h0.2v-0.3278h0.2v-0.3279h0.2v-0.3279H3.6v-0.3279H3.4v-0.3279H3.2v0.3279H3v0.3279H2.8V24.6885z M2.6,22.3934h0.2v-0.3279H2.6V22.3934z M2.2,13.8688h0.2v0.3279h0.2v0.3279h0.2v0.3279H3v-0.3279h0.2v-0.3279h0.2v-0.3279h0.2V13.541h0.2v-0.3278H4v-0.3279H3.8v-0.3279H3.6v-0.3279H3v0.3279h0.4v0.3279H3.2v0.3279H3v0.3278H2.8v-0.3278H2.6v-0.3279H2.4v-0.3279H2.2v0.6558h0.2v0.3278H2.2V13.8688z M2.2,17.1475h0.2v-0.3278h0.2v-0.3279h0.2v-0.3279H3v-0.3279H2.8v-0.3279H2.6v-0.3279H2.4v-0.3278H2.2V17.1475z M4,18.7869H3.8V18.459H3.6v-0.3279H3.4v-0.3279H3.2v-0.3279H3v-0.3279H2.8v0.3279H2.6v0.3279H2.4v0.3279H2.2v0.3279h0.2v0.3278H2.2v0.6558h0.2v-0.3279h0.2v-0.3279h0.2V18.459H3v0.3278h0.2v0.3279h0.2v0.3279H3v0.3279h0.6v-0.3279h0.2v-0.3279H4V18.7869z M5,14.5246v-0.3279H4.8v-0.3279H4.6V13.541H4.4v0.3279H4.2v0.3279H4v0.3279H3.8v0.3279H3.6v0.3278H3.4v1.6394h0.2v0.3278h0.2v0.3279H4v0.3279h0.2v0.3279h0.2v0.3279h0.2v-0.3279h0.2v-0.3279H5v-0.3279h0.2v-0.3279h0.2v-0.3278h0.2v-1.6394H5.4v-0.3278H5.2v-0.3279H5z M3.4,24.3607H3.2v0.3279h0.2V24.3607z M5.4,15.8361H5.2v0.3279h0.2V15.8361z M3.4,7.3115H3.2v0.3279h0.2V7.3115z M6.6,24.3607h0.2v0.3279H6.6v0.3279H6.4v0.3278H6.2v0.3279H6V26H5.4v-0.3279H5.2v-0.3279H5v-0.3278H4.8v-0.3279H4.6v-0.3279h0.2v-0.3279H5v-0.3279h0.2v-0.3278h0.2v-0.3279h0.2v-0.3279h0.2v0.3279H6v0.3279h0.2v0.3278h0.2v0.3279h0.2V24.3607z M6.2,24.3607H6v-0.3279H5.8v-0.3279H5.6v0.3279H5.4v0.3279H5.2v0.3279h0.2v0.3279h0.2v0.3278h0.2v-0.3278H6v-0.3279h0.2V24.3607z M3.6,16.1639h0.2v-0.3279H3.6V16.1639z M4.4,17.8033h0.2v-0.3279H4.4V17.8033z M6.6,22.0656h0.2v0.3279H6.6v0.3279H6.4v0.3279H6.2v-0.3279H6v-0.3279H5.8v-0.3279H6v-0.3278h0.2v-0.3279h0.2v0.3279h0.2V22.0656z M6.4,22.0656H6.2v0.3279h0.2V22.0656z M6.6,8.6229h0.2V8.2951H6.6V8.6229z M6.6,23.7049h0.2v-0.3278H6.6V23.7049z M6.6,9.6066h0.2v0.3279H6.6v0.3278H6.4v0.3279H6.2v-0.3279H6V9.9344H5.8V9.6066H6V9.2787h0.2V8.9508h0.2v0.3279h0.2V9.6066z M6.4,9.6066H6.2v0.3279h0.2V9.6066z M6.6,13.541h0.2v-0.3278H6.6V13.541z M6.6,18.7869h0.2V18.459H6.6V18.7869z M6.6,21.082h0.2v-0.3279H6.6V21.082z" />
  <rect fill="#00753B" x="6.8" y="19.5" width="23.2" height="6.5" />
</svg>