<svg width="32" height="32" viewBox="0 0 32 32" xmlns="http://www.w3.org/2000/svg">
  <polygon fill="#5AB557" points="2,6 30,6 30,16 29,17 6,17" />
  <polygon fill="#00A6ED" points="2,26 30,26 30,16 6,16" />
  <polygon fill="#E71A43" points="2,6 30,16 2,26" />
  <path fill="#FDBB11" d="M8.9497,11.0001c-0.066,0.001-0.1488,0.0117-0.2442,0.0348c-0.316,0.0766-0.6136,0.3723-0.8089,0.7235c-0.06,0.0739-0.2244,0.1401-0.3008,0.149c-0.0073-0.0462,0.0188-0.1768,0.0683-0.2756c0.042-0.0837,0.2183-0.2556,0.4183-0.4019l0.1977-0.1447l-0.2572,0.0285c-0.5001,0.0552-0.926,0.3398-1.1303,0.7578c-0.053,0.1085-0.1088,0.3171-0.1329,0.4944c-0.0223,0.1635-0.0468,0.2726-0.0729,0.3313c-0.014,0.0314-0.0228,0.0371-0.0228,0.0371c-0.0025-0.0001-0.0267-0.0244-0.0545-0.1086c-0.043-0.1302-0.0268-0.2746,0.0724-0.5578c0.0364-0.104,0.0731-0.2282,0.0077-0.2282c-0.0285,0-0.1239,0.0572-0.2196,0.1211c-0.3485,0.2329-0.5597,0.6791-0.5883,1.2282c-0.0138,0.2641-0.0051,0.3768,0.0425,0.4906c0.0537,0.1283,0.064,0.2568,0.0461,0.2906c-0.1153-0.0493-0.2487-0.6165-0.1888-0.9198l0.0543-0.2748l-0.174,0.1667c-0.1583,0.1516-0.3064,0.4026-0.3953,0.6667c-0.0661,0.1966-0.0771,0.2978-0.0637,0.5842c0.0143,0.3054,0.0328,0.3818,0.1532,0.6321c0.0745,0.155,0.1995,0.3518,0.2785,0.4375c0.1244,0.1349,0.1513,0.2372,0.1152,0.2678c-0.0807-0.0311-0.3478-0.3102-0.4284-0.4659C5.2776,14.98,5.2152,14.8162,5.183,14.7008l-0.085-0.3053l-0.096,0.2674c-0.0409,0.114-0.0719,0.3341-0.0832,0.5841c-0.0154,0.3381-0.0063,0.4439,0.0575,0.6541c0.1313,0.4324,0.4721,0.8649,0.878,1.1154c0.1628,0.1005,0.2261,0.1691,0.2306,0.2229c-0.0178-0.0013-0.0463-0.0089-0.0996-0.0277c-0.3035-0.1071-0.6087-0.3392-0.8668-0.6614l-0.1715-0.214l0.0233,0.2892c0.0777,0.9657,0.795,1.8184,1.7129,2.0348c0.1272,0.03,0.2708,0.0553,0.3237,0.0556c0.068,0.0004,0.191,0.0947,0.213,0.1442c-0.0055,0.0009-0.0085,0.0019-0.0168,0.0025c-0.1318,0.0095-0.5006-0.034-0.7861-0.1011c-0.1613-0.0379-0.4119-0.1238-0.557-0.1909c-0.1191-0.055-0.2191-0.0924-0.2517-0.0904c-0.0055,0.0003-0.0191,0.0033-0.0271,0.0128c-0.0142,0.0169-0.0074,0.032-0.0024,0.0405c0.3683,0.6308,1.036,1.155,1.7955,1.4112c0.4759,0.1605,0.8116,0.2067,1.5971,0.2213c0.4212,0.0078,0.7811,0.0141,0.8112,0.0138c-0.0196,0.019-0.052,0.0423-0.1036,0.0717c-0.0751,0.0429-0.2363,0.1533-0.359,0.2455l-0.2467,0.1854l0.0946,0.1278c0.0406,0.0549,0.0699,0.1137,0.1472,0.0786c0.0584-0.0265,0.1515-0.1097,0.3519-0.2798c0.1151-0.0977,0.2118-0.1638,0.227-0.171c0.0059,0.0461-0.0203,0.1679-0.0758,0.2791c-0.0266,0.0533-0.0486,0.1056-0.0484,0.1258c0.0001,0.0046,0.0004,0.0168,0.0126,0.0263c0.0146,0.0114,0.116,0.0238,0.228,0.0364l0.2416,0.0272l-0.0219-0.2077c-0.0096-0.0912-0.0037-0.2102,0.0119-0.2638l0.0166-0.0574l0.2916,0.2763l0.0088,0.0084h0.0008c0.1573,0.1486,0.2994,0.2752,0.3437,0.3025C10.9086,20.9945,10.9181,21,10.9287,21c0.0312,0,0.0864-0.0471,0.1307-0.0942l0.1007-0.1073l-0.2084-0.1874c-0.1031-0.0927-0.2934-0.2318-0.4228-0.3093c-0.084-0.0503-0.135-0.082-0.1615-0.1031c0.0021-0.0006,0.004-0.0012,0.0064-0.0018c0.0391-0.0098,0.4408-0.026,0.8822-0.0326c0.7166-0.0108,0.8493-0.0225,1.193-0.1054c0.4737-0.1142,0.8647-0.2719,1.193-0.4821c0.2946-0.1886,0.6198-0.5075,0.7395-0.7273l0.1308-0.2399l-0.2607,0.13c-0.2175,0.1085-0.4166,0.1561-0.7683,0.1821c-0.1572,0.0116-0.3623,0.0292-0.4559,0.0391c-0.1319,0.0139-0.1354,0.0046-0.1354-0.0054c0-0.0464,0.1369-0.1183,0.3595-0.1468c0.255-0.0326,0.6106-0.1643,0.8379-0.3101c0.5195-0.3333,0.9054-1.0349,0.9072-1.6493l0.0008-0.2763l-0.1175,0.1695c-0.1591,0.2298-0.7075,0.6281-0.8494,0.6281c-0.0368,0-0.0379-0.0088-0.0194-0.0399c0.0176-0.0297,0.0532-0.0673,0.1083-0.1083c0.4103-0.3055,0.7514-0.7492,0.8975-1.1688c0.096-0.2757,0.0938-0.901-0.0028-1.2292l-0.0974-0.3309l-0.0901,0.3032c-0.084,0.2831-0.3837,0.7862-0.51,0.8828c-0.0131,0.01-0.0192,0.012-0.0209,0.0121c-0.0339,0.0017-0.0092-0.1378,0.1241-0.3135c0.2846-0.3751,0.387-0.7089,0.35-1.1464c-0.0265-0.3136-0.1752-0.6952-0.3809-0.9792l-0.1867-0.2578l-0.0273,0.4523c-0.0211,0.3489-0.0751,0.6041-0.1299,0.6821c-0.0115,0.0163-0.0183,0.0179-0.0183,0.0179s-0.0027-0.0005-0.0075-0.0054c-0.0314-0.0314-0.0336-0.1474,0.0178-0.4729c0.0983-0.6228-0.1333-1.221-0.6231-1.609c-0.0718-0.0569-0.141-0.1041-0.1675-0.1082c-0.0056-0.0009-0.02-0.0016-0.0309,0.0099c-0.0081,0.0086-0.0095,0.022-0.0096,0.0261c-0.0007,0.0321,0.0243,0.1508,0.0584,0.2835c0.0634,0.2466,0.0718,0.4661,0.0372,0.536c-0.0066,0.0132-0.0122,0.0142-0.0122,0.0142s0.0032,0.0017-0.0011-0.0026c-0.0243-0.0245-0.0583-0.1153-0.1038-0.2952c-0.0449-0.1776-0.1212-0.405-0.1701-0.5061c-0.1716-0.3538-0.5512-0.6713-0.9298-0.7778c-0.1533-0.0431-0.2354-0.0663-0.2645-0.0634c-0.0104,0.0011-0.0316,0.0083-0.0345,0.0308c-0.0041,0.0311,0.0409,0.0626,0.0931,0.1043c0.2756,0.2204,0.4966,0.5255,0.4684,0.5989c-0.0067,0.0174-0.0227,0.0274-0.0988,0.013c-0.0451-0.0085-0.0776-0.0197-0.1064-0.0339c-0.0036-0.013-0.0088-0.026-0.0156-0.0389c-0.1936-0.3647-0.5214-0.6455-0.8457-0.7241c-0.3814-0.0924-0.5636,0.0129-0.2606,0.1507c0.156,0.0709,0.2561,0.177,0.2561,0.2715c0,0.0521-0.0345,0.0367-0.1362-0.0608c-0.3007-0.288-0.9732-0.3722-0.7906-0.099c0.0989,0.148,0.2644,0.2244,0.5964,0.2752c0.3173,0.0485,0.3916,0.0813,0.2292,0.101c-0.2311,0.028-0.3325,0.0203-0.433-0.0331c-0.1962-0.1044-0.2063-0.0405-0.0237,0.1486c0.2391,0.2474,0.4651,0.3412,0.7683,0.3185c0.2521-0.0189,0.4188-0.0579,0.5218-0.1076c0.0579,0.0021,0.1085,0.0214,0.2123,0.0689c0.1233,0.0564,0.1817,0.108,0.1817,0.1222c0,0.0153-0.0116,0.0263-0.3159,0.0135c-0.191-0.008-0.3731-0.0282-0.4026-0.0415c-0.0252-0.0113-0.0525-0.0244-0.0732-0.0131c-0.0391,0.0214-0.0092,0.0712,0.022,0.1314c0.088,0.1702,0.3153,0.3721,0.5371,0.4814c0.1788,0.0881,0.249,0.1001,0.5921,0.1015c0.3511,0.0015,0.3778,0.0086,0.4518,0.0781c0.0474,0.0445,0.0807,0.1035,0.0807,0.128c0,0.0264,0.0085,0.0322-0.1712,0.0136c-0.1788-0.0185-0.4614-0.0864-0.6026-0.1445c-0.015-0.0062-0.0391-0.0107-0.0554,0.0091c-0.0112,0.0136-0.0101,0.0333-0.0076,0.0452c0.019,0.0905,0.2259,0.3849,0.3788,0.5258c0.2037,0.1877,0.641,0.4204,0.8609,0.456c0.0918,0.0149,0.1136,0.0325,0.171,0.1625c0.0388,0.0878,0.0683,0.1761,0.0683,0.197c0,0.0206-0.0498,0.0266-0.0654,0.0012c-0.0194-0.0315-0.1164-0.0571-0.2101-0.0711c-0.187-0.028-0.3672-0.112-0.5265-0.2461l-0.113-0.095l-0.0484,0.0348l0.0713,0.1808c0.1495,0.3792,0.1879,0.4546,0.3433,0.6722c0.165,0.2312,0.4553,0.5148,0.6401,0.6239c0.0754,0.0446,0.0871,0.0652,0.0867,0.1778c-0.0003,0.0698-0.0077,0.122-0.0201,0.1572c-0.0155,0.044-0.0292,0.048-0.05,0.0332c-0.0277-0.0198-0.1445-0.1023-0.2599-0.1835c-0.2337-0.1646-0.3296-0.2627-0.4085-0.4123l-0.0565-0.1071l-0.058,0.0142l-0.0011,0.2319c-0.0024,0.4736,0.1467,1.0558,0.3577,1.3939c0.2189,0.3508,0.2183,0.3597,0.1235,0.574c-0.035,0.0792-0.065,0.1279-0.0909,0.1531c-0.012,0.0116-0.0194,0.0132-0.0194,0.0132c-0.0014-0.0003-0.0128-0.0097-0.0216-0.0553c-0.009-0.0463-0.0648-0.1476-0.1234-0.2328c-0.1592-0.2314-0.2424-0.4483-0.2704-0.7023l-0.0384-0.3491l-0.1223,0.2714c-0.1559,0.3459-0.2041,0.6865-0.2088,1.448l-0.0044,0.7009l-0.1272,0.1462c-0.0965,0.111-0.1765,0.183-0.2334,0.2175c-0.0316,0.0192-0.046,0.0191-0.0472,0.0192c-0.0005-0.0026-0.001-0.0063-0.0005-0.0126c0.0014-0.0188,0.009-0.0468,0.0259-0.0867c0.0301-0.0714,0.0626-0.3084,0.0772-0.5349c0.0159-0.2463,0.0553-0.4971,0.0989-0.6333c0.0366-0.1143,0.0634-0.2192,0.0621-0.2501c-0.0002-0.0048-0.0001-0.0156-0.0103-0.0258c-0.0186-0.0186-0.0434-0.0085-0.0559-0.0019c-0.0964,0.051-0.4424,0.4169-0.6383,0.6766c-0.1269,0.1682-0.3269,0.4941-0.4446,0.7242c-0.2328,0.455-0.331,0.5877-0.5016,0.6931c-0.09,0.0556-0.6379,0.2902-0.7076,0.3084c-0.0071-0.079-0.0185-0.2889-0.0287-0.54c-0.0206-0.5123-0.0448-0.7323-0.1125-1.0189c-0.0094-0.0397-0.0066-0.048,0.0516-0.0626c0.0603-0.0151,0.2152-0.1416,0.3491-0.2774l0.2295-0.2327l0.1555,0.0483c0.374,0.1161,0.8767-0.0035,1.1184-0.2689c0.0963-0.1057,0.2167-0.2732,0.2368-0.3254c0.0024-0.0063,0.0059-0.0203,0.0033-0.0303c-0.0081-0.0306-0.0375-0.0266-0.0502-0.0205c-0.0183,0.0087-0.1222,0.0589-0.2314,0.1117c-0.1919,0.0928-0.3277,0.1275-0.3783,0.1199c-0.0012-0.0002-0.0011-0.0004-0.002-0.0006c0.0088-0.0219,0.05-0.0648,0.1483-0.1297c0.1838-0.1214,0.3843-0.371,0.448-0.56c0.0217-0.0642,0.0551-0.1566-0.0016-0.1566c-0.016,0-0.0811,0.0265-0.1516,0.0559c-0.067,0.028-0.1908,0.0511-0.2757,0.0511c-0.2136,0-0.3579,0.0532-0.4608,0.178c-0.0432,0.0524-0.0858,0.0668-0.1073,0.0627c-0.0138-0.0026-0.0304-0.0176-0.0167-0.0687c0.0126-0.0469,0.0226-0.1402,0.0228-0.2077c0.0003-0.0827,0.0241-0.1283,0.1233-0.2193l0.1329-0.1217l-0.0309-0.0517l-0.1176,0.0409c-0.2449,0.0854-0.4592,0.2642-0.5676,0.4754c-0.0923,0.1799-0.1026,0.2366-0.0888,0.4796c0.0101,0.1773-0.0002,0.2886-0.0284,0.3439c-0.0587,0.1151-0.2904,0.3223-0.4634,0.4106c-0.1334,0.0681-0.1163,0.0591-0.1378,0.0189c-0.1283-0.2398-0.3219-1.1587-0.3163-1.506c0.0054-0.334,0.0233-0.3576,0.2025-0.4033c0.0985-0.0251,0.25-0.0966,0.3362-0.1585c0.1637-0.1175,0.3721-0.1377,0.5179-0.0543c0.2393,0.1368,0.7118,0.0156,0.9452-0.2329c0.0589-0.0627,0.1056-0.1099,0.0838-0.143c-0.0238-0.0362-0.0842-0.0025-0.1588,0.0364c-0.1125,0.0587-0.2969,0.0652-0.4471,0.0128c-0.0639-0.0223-0.0872-0.0443-0.0888-0.0502c0,0,0.0304-0.0283,0.1399-0.0429c0.2081-0.0278,0.4415-0.1733,0.5975-0.3697c0.0602-0.0757,0.116-0.1459,0.116-0.1655c0-0.0382-0.0232-0.031-0.0306-0.0315c-0.0196-0.0012-0.076,0.0163-0.141,0.0387c-0.1021,0.0351-0.1478,0.0345-0.301-0.0091c-0.1845-0.0525-0.2114-0.0513-0.3568,0.0244c-0.0693,0.0361-0.1099,0.0569-0.1334,0.0648c-0.0001,0-0.0002,0-0.0004,0.0001c-0.0002-0.0044-0.0003-0.0091-0.0003-0.0152c0-0.0372,0.0364-0.0886,0.2152-0.273l0.1285-0.1324h-0.1766c-0.1684,0-0.4206,0.1384-0.5077,0.2792c-0.0414,0.0669-0.1162,0.2323-0.1674,0.3685c-0.1232,0.3281-0.2296,0.4563-0.4512,0.5543c-0.1055,0.0467-0.2057,0.0824-0.2145,0.0824c-0.0098,0-0.003-0.0749,0.1694-0.3947c0.2011-0.3731,0.3605-0.7464,0.4312-1.0117c0.0543-0.2037,0.0969-0.2595,0.3242-0.4133c0.1595-0.1079,0.174-0.1115,0.3768-0.0926c0.3456,0.0323,0.5339-0.0077,0.7129-0.1608c0.0618-0.0529,0.1074-0.1004,0.1327-0.1363c0.0539-0.0766,0.0159-0.1289-0.0796-0.089c-0.1108,0.0462-0.3535,0.0821-0.3963,0.0656c-0.0338-0.013-0.0341-0.0268-0.0318-0.0329c0.0049-0.013,0.0286-0.0347,0.079-0.0458c0.1702-0.0374,0.4898-0.3586,0.4898-0.5043c0-0.0374-0.0207-0.0688-0.0653-0.0535c-0.0155,0.0054-0.0372,0.0186-0.0624,0.0362c-0.0432,0.0303-0.1405,0.05-0.2663,0.05c-0.1977,0-0.2284,0.0113-0.3283,0.1365c-0.0368,0.0461-0.0678,0.0763-0.0904,0.0955c-0.0041-0.0193-0.0081-0.0427-0.0081-0.0749c0-0.0838,0.0266-0.1391,0.1287-0.2464l0.1866-0.1961h-0.168c-0.1453,0-0.3434,0.1448-0.4232,0.3023c-0.0372,0.0733-0.0822,0.2518-0.102,0.3982c-0.0299,0.2208-0.0507,0.2704-0.1436,0.3663c-0.0905,0.0934-0.1406,0.1137-0.1454,0.1107c0,0-0.0086-0.0199,0.0038-0.079c0.111-0.5272,0.1028-0.7575-0.0429-1.1645c-0.0831-0.232-0.082-0.239-0.0323-0.3433c0.0333-0.0698,0.0602-0.1979,0.06-0.2839c-0.0004-0.1668-0.1318-0.4928-0.2371-0.5799c-0.0338-0.028-0.0821-0.0475-0.0993,0.017c-0.0094,0.0353-0.0103,0.105-0.0103,0.2297c0,0.2461-0.006,0.2412-0.0406,0.2412c-0.0301,0-0.0419-0.0136-0.0419-0.0147c-0.0011-0.039-0.0972-0.1577-0.2048-0.2718l-0.2288-0.2428l-0.055,0.1445c-0.0542,0.1424-0.0158,0.2758,0.1161,0.4416c0.0444,0.0558,0.0727,0.0981,0.0865,0.1278c0.0151,0.0326,0.0115,0.0295-0.0021,0.0294C9.845,12.232,9.6306,12.103,9.5737,12.0339c-0.0168-0.0204-0.034-0.0417-0.0544-0.0428c-0.0533-0.0029-0.0363,0.0602-0.0245,0.115c0.0577,0.2673,0.3437,0.4824,0.6652,0.5087c0.2767,0.0226,0.2986,0.0527,0.2946,0.6828c-0.0027,0.428-0.0161,0.529-0.1282,0.9662c-0.0694,0.2705-0.1365,0.4962-0.1389,0.4986c-0.0281,0.0281-0.1783-0.044-0.3895-0.2416l-0.2215-0.2072l0.0031-0.2065c0.002-0.1301-0.0209-0.2846-0.0556-0.3668c-0.0502-0.1192-0.3382-0.4594-0.4393-0.5281c-0.0117-0.008-0.0292-0.0167-0.0421-0.0167c-0.0675,0-0.0248,0.1031,0.012,0.1781c0.0349,0.0713,0.0738,0.1956,0.0864,0.2766c0.0187,0.1195,0.0114,0.1162-0.0015,0.1162c-0.0144,0-0.0393-0.0193-0.0492-0.0502c-0.0381-0.12-0.2232-0.1995-0.4181-0.1995c-0.1276,0-0.161-0.0143-0.2488-0.1064l-0.1867-0.196l0.0476,0.2149c0.0526,0.2372,0.1801,0.4346,0.3587,0.551c0.1227,0.08,0.1518,0.1244,0.1496,0.1282c-0.0077,0.0136-0.083,0.0284-0.2482,0.0214l-0.3402-0.0144l0.1391,0.151c0.1725,0.1872,0.3514,0.2378,0.803,0.2387l0.3948,0.0008l0.2219,0.1948c0.2984,0.262,0.3081,0.3003,0.2082,0.4584c-0.376,0.5956-0.5519,1.292-0.4487,1.7937c0.0352,0.1712,0.0347,0.2462,0.0263,0.2516c-0.0047,0.003-0.0629-0.0296-0.1822-0.1465c-0.2564-0.2513-0.28-0.303-0.3013-0.66c-0.0269-0.4501-0.1772-0.6893-0.5388-0.8482c-0.0747-0.0328-0.1277-0.0539-0.1576-0.0625c-0.0477-0.0137-0.0981,0.0092-0.0501,0.059c0.0099,0.0103,0.0288,0.025,0.0539,0.0425c0.0366,0.0257,0.0818,0.0933,0.1,0.1532c0.0653,0.2156,0.0634,0.3239,0.0489,0.3318c-0.0023,0.0013-0.0389-0.0123-0.1058-0.0957c-0.1021-0.1272-0.136-0.1421-0.3128-0.1421c-0.2316,0-0.3919-0.0481-0.4894-0.1397l-0.1353-0.1271v0.15c0,0.2282,0.3482,0.6265,0.6516,0.7613c0.0816,0.0363,0.1334,0.0842,0.1334,0.0874c0,0-0.0002-0.0002-0.0073,0.0033c-0.0505,0.0251-0.2057,0.0171-0.3188-0.0332c-0.1541-0.0685-0.3253-0.1228-0.378-0.1178C7.5517,16.421,7.5387,16.424,7.53,16.4327c-0.0134,0.0134-0.0124,0.0311-0.0101,0.0416c0.0146,0.0695,0.1816,0.2664,0.2836,0.3382c0.3568,0.2514,0.7321,0.3139,1.034,0.1636l0.1348-0.0671l0.1593,0.167c0.0767,0.0804,0.1411,0.1555,0.1627,0.1878c0.0005,0.0007,0.0009,0.0015,0.0014,0.0022c0.0004,0.0006,0.0007,0.0011,0.0011,0.0017c0.0003,0.0005,0.0006,0.001,0.0008,0.0014c0.0002,0.0004,0.0005,0.0007,0.0007,0.0011c0.0002,0.0003,0.0003,0.0005,0.0004,0.0008c0.0001,0.0002,0.0003,0.0004,0.0004,0.0006L9.298,17.2645c0,0.0338,0.0881,0.1087,0.1816,0.1799c0.188,0.1434,0.2437,0.2306,0.2454,0.3577c0.0008,0.0617,0.0472,0.2161,0.1016,0.3501c0.0981,0.2415,0.0958,0.2298,0.0868,1.0297C9.909,19.5673,9.9,19.8823,9.8928,19.9596c-0.1075-0.0327-0.5042-0.2441-0.6624-0.3602c-0.1902-0.1396-0.3995-0.4027-0.6229-0.7866c-0.3927-0.6748-0.6618-1.0042-1.0364-1.2639c-0.055-0.0381-0.1024-0.0641-0.1325-0.0741c-0.038-0.0126-0.0863-0.0002-0.0691,0.0506c0.0052,0.0152,0.0203,0.0366,0.0405,0.0587c0.0438,0.0482,0.1095,0.359,0.1414,0.7193c0.017,0.1917,0.0554,0.3993,0.0907,0.4674c0.0507,0.098,0.0391,0.1338,0.0053,0.1338c-0.003,0-0.0988-0.0713-0.2012-0.1682L7.269,18.5688l-0.0052-0.4972c-0.0066-0.6358-0.1476-1.4178-0.3127-1.7158c-0.0108-0.0195-0.0207-0.0366-0.0292-0.0469c-0.029-0.0348-0.0635-0.0207-0.0763,0.0196c-0.008,0.0253-0.0146,0.072-0.0243,0.1451c-0.0269,0.203-0.1278,0.4599-0.2161,0.5575c-0.0371,0.041-0.0835,0.1512-0.1077,0.2463c-0.0244,0.096-0.059,0.1429-0.0619,0.1449c-0.0008-0.0006-0.0017-0.0012-0.0027-0.002c-0.0284-0.0225-0.0783-0.0921-0.1226-0.1782l-0.0939-0.1825l0.1242-0.1942c0.2777-0.4341,0.4157-0.939,0.4123-1.5057l-0.0021-0.3316l-0.0591-0.0115l-0.0604,0.1468c-0.0792,0.1922-0.1251,0.2414-0.3156,0.338c-0.0941,0.0477-0.2151,0.1379-0.2683,0.2011c-0.0561,0.0666-0.0941,0.0914-0.1095,0.0911c-0.0158-0.0002-0.0395-0.0517-0.0395-0.2101c0-0.1076,0.0091-0.1251,0.1648-0.2341c0.0653-0.0457,0.1146-0.0946,0.1421-0.1222c0.4192-0.4192,0.5165-0.6042,0.6716-0.9689c0.0571-0.1378,0.0952-0.2414,0.1124-0.3019c0.0103-0.0361,0.0212-0.0761-0.0052-0.0931c-0.0394-0.0253-0.0757,0.0385-0.119,0.115c-0.0893,0.1577-0.1916,0.2155-0.4489,0.2421C6.3079,14.2316,6.1919,14.2628,6.1611,14.3c-0.04,0.0482-0.1199,0.0439-0.1199,0.0124c0-0.0252,0.0309-0.1213,0.0713-0.2151c0.0681-0.1582,0.0625-0.1544,0.2399-0.1727c0.2777-0.0287,0.4999-0.1386,0.7361-0.3617c0.1804-0.1704,0.4143-0.4988,0.4153-0.6012c0.0002-0.0137-0.0082-0.0308-0.0255-0.0362c-0.0295-0.0093-0.0698,0.0206-0.106,0.0538c-0.1035,0.0947-0.1716,0.1109-0.4307,0.0819c-0.1943-0.0217-0.2099-0.0345-0.2154-0.0731c-0.0038-0.0262,0.0245-0.0944,0.0698-0.1434l0.0734-0.0791l0.1492,0.066c0.1378,0.061,0.2255,0.0737,0.3961,0.0582c0.2993-0.0271,0.6555-0.2047,0.7994-0.4034c0.0578-0.0798,0.1107-0.1627,0.1107-0.1897c0-0.0535-0.0967-0.0491-0.1754-0.0386c-0.074,0.0099-0.2396,0.0073-0.3672-0.0063c-0.1442-0.0154-0.2022-0.0406-0.2049-0.0512c-0.0016-0.0061,0.0351-0.0453,0.16-0.1032c0.116-0.0538,0.1614-0.0919,0.318-0.0909c0.1029,0.0344,0.2549,0.0837,0.4442,0.1009c0.3032,0.0226,0.5292-0.0711,0.7683-0.3185c0.1827-0.1891,0.1725-0.2528-0.0237-0.1485c-0.1004,0.0534-0.2019,0.0611-0.433,0.033c-0.1624-0.0197-0.0881-0.0525,0.2292-0.101c0.332-0.0508,0.4975-0.1271,0.5964-0.2751c0.1827-0.2732-0.4899-0.189-0.7906,0.099C8.7445,11.4938,8.71,11.5093,8.71,11.4572c0-0.0944,0.1002-0.2007,0.2561-0.2715C9.1934,11.0823,9.1476,10.9972,8.9497,11.0001L8.9497,11.0001z" />
</svg>