<svg width="32" height="32" viewBox="0 0 32 32" xmlns="http://www.w3.org/2000/svg">
  <path fill="#F4F4F4" d="M2,6h28v2l-1,1.5l1,1.5v10l-1,1.5l1,1.5v2H2v-2l1-1.5L2,21V11l1-1.5L2,8V6z" />
  <path fill="#1345B7" d="M2,8h28v3H2V8z" />
  <path fill="#1345B7" d="M2,21h28v3H2V21z" />
  <path fill="#1345B7" d="M16,20.3301l-1.25-2.165h-2.5L13.5,16l-1.25-2.165h2.5l1.25-2.165l1.25,2.165h2.5L18.5,16l1.25,2.165h-2.5L16,20.3301z M15.5439,18.165L16,18.9551l0.4561-0.79H15.5439z M17.6465,17.4775h0.9121l-0.4561-0.79L17.6465,17.4775z M15.147,17.4775h1.7061L17.7061,16l-0.853-1.4775H15.147L14.2939,16L15.147,17.4775z M13.4404,17.4775h0.9126l-0.4561-0.79L13.4404,17.4775z M13.4404,14.5225l0.4565,0.79l0.4561-0.79H13.4404z M17.6465,14.5225l0.4561,0.79l0.4561-0.79H17.6465z M15.5439,13.835h0.9121L16,13.0449L15.5439,13.835z" />
</svg>