<svg width="32" height="32" viewBox="0 0 32 32" xmlns="http://www.w3.org/2000/svg">
  <polygon fill="#0b338d" points="2,6 7.2808,6 8.2469,6.25 9.2131,6 10.6154,6 17.7739,10 23.6923,6 30,6 30,26 21.4746,26 20.9392,25.75 20.4039,26 2,26" />
  <path fill="#F4F4F4" d="M7.5115,7.2361l0.7354-0.5346l0.7346,0.5346l-0.28-0.8638L9.2131,6H7.2808l0.5115,0.3723L7.5115,7.2361z M22.1285,25.2161H21.22l-0.2808-0.8631l-0.2808,0.8631H19.75l0.7346,0.5346L20.4038,26h1.0708l-0.0815-0.2492L22.1285,25.2161z M9.8454,7.3961l0.28,0.8638h0.9092l-0.7354,0.5346L10.58,9.6584L9.8454,9.1238L9.11,9.6584l0.2808-0.8638L8.6562,8.26h0.9077L9.8454,7.3961z M11.4369,9.8192l0.2808,0.8631h0.9092l-0.7354,0.5346l0.2808,0.8638l-0.7354-0.5338l-0.7346,0.5338l0.2808-0.8638l-0.7354-0.5346h0.9085L11.4369,9.8192z M13.0169,12.2408l0.2808,0.8638h0.9085l-0.7354,0.5346l0.2808,0.8638l-0.7346-0.5346l-0.7354,0.5346l0.2808-0.8638l-0.7346-0.5346h0.9085L13.0169,12.2408z M14.6023,14.6638l0.2808,0.8638h0.9085l-0.7346,0.5338l0.2808,0.8638l-0.7354-0.5338l-0.7346,0.5338l0.2808-0.8638l-0.7354-0.5338h0.9085L14.6023,14.6638z M16.1877,17.0861l0.2808,0.8638h0.9092l-0.7354,0.5338l0.2808,0.8646l-0.7354-0.5346l-0.7346,0.5346l0.2808-0.8646L14.9992,17.95h0.9085L16.1877,17.0861z M17.7738,19.5084l0.2808,0.8638h0.9085l-0.7346,0.5338l0.28,0.8638l-0.7346-0.5338L17.0392,21.77l0.28-0.8638l-0.7346-0.5338h0.9085L17.7738,19.5084z M19.3531,21.93l0.2808,0.8646h0.9092l-0.7354,0.5338l0.2808,0.8638l-0.7354-0.5338l-0.7346,0.5338l0.2808-0.8638l-0.7354-0.5338h0.9085L19.3531,21.93z" />
  <path fill="#FCD53F" d="M23.6923,26V6H10.6154L23.6923,26z" />
</svg>