<svg width="32" height="32" viewBox="0 0 32 32" xmlns="http://www.w3.org/2000/svg">
  <rect fill="#F8312F" x="2" y="6" width="28" height="20" />
  <path fill="#1c1c1c" d="M16.7574,21.1127c-0.1757-0.1523-0.3887-0.4609-0.3857-0.7582c0.0157-0.2217,0.1678-0.3506,0.2661-0.0799c0.1389,0.2988,0.4369,0.7928,0.8474,0.503c0.1794-0.1317,0.1766-0.3255-0.0694-0.3033c-0.3037-0.0208-0.4903-0.1879-0.6262-0.6182c-0.0247-0.2366,0.0737-0.2307,0.2111-0.0785c0.1766,0.2026,0.5279,0.5087,0.9156,0.3447c0.2154-0.0903,0.2762-0.2766-0.0492-0.3224c-0.3081,0.0045-0.5596-0.1953-0.81-0.4999c-0.1373-0.1686,0.0652-0.3387,0.1868-0.1953c0.1084,0.0931,0.2603,0.2647,0.3904,0.2884c0.1505,0.0295,0.337,0.0149,0.5437-0.0946c0.2228-0.1865,0.1505-0.321-0.12-0.352c-0.2097,0.0104-0.3239,0.0901-0.5943-0.0903c-0.4861-0.3286-0.8726-0.7676-0.9329-1.2956c-0.0397-0.3473,0.1471-0.4525,0.3023-0.4125c0.4223,0.1086,0.6985,0.8978,0.9907,1.3313c0.0957,0.1249,0.1835,0.127,0.2457,0.0885c0.1172-0.1005,0.2108-0.1831,0.328-0.2954c0,0,0.8596,0.1545,1.3277,0.307l-0.5212,0.1852c-0.1973-0.109-0.4355,0.0085-0.4355,0.1976c-0.1867,0.1291-0.1717,0.2805-0.0911,0.4267c0.0246-0.1017,0.0455-0.2339,0.1931-0.2515c0.2105,0.0871,0.4559-0.0372,0.4559-0.2016l0.6148-0.2417l0.6211,0.3517c0,0.2377,0.2252,0.313,0.4596,0.2489c0.1104,0.0686,0.1814,0.1875,0.2188,0.3148c0.0691-0.1835,0.0547-0.313-0.0536-0.4031c0.0621-0.2372-0.2703-0.4653-0.5276-0.3134l-0.4469-0.2566l0.7649-0.0214c0.0888,0.1571,0.4096,0.1658,0.5032,0c0.08-0.0219,0.1476-0.0359,0.3036,0.0801c-0.0491-0.1876-0.1448-0.2678-0.2883-0.2678c-0.109-0.1932-0.5036-0.1923-0.5606,0.0252l-0.7966,0.0221l0.4727-0.3365c0.1764,0.1042,0.424-0.0116,0.4736-0.2009c0.0703-0.0836,0.1571-0.1229,0.3278-0.0662c-0.088-0.1559-0.212-0.2024-0.4359-0.0966c-0.2043-0.1548-0.4735,0.0329-0.4327,0.1888l-0.6289,0.4279c-0.4565-0.1362-1.2831-0.3483-1.2831-0.3483c0.0984-0.1035,0.1983-0.1997,0.2965-0.3047c0.0355-0.0615-0.0187-0.1331-0.0941-0.148c-0.7376-0.1522-1.1599-0.4496-1.4158-1.2053c-0.107-0.3165,0.1244-0.4111,0.2039-0.2175c0.11,0.2693,0.2314,0.5635,0.5626,0.7914c0.1142,0.0799,0.4543,0.0147,0.2531-0.1761c-0.2083-0.1716-0.2979-0.2454-0.4006-0.6626c0-0.2114,0.2154-0.3061,0.3356-0.1035c0.1286,0.4156,0.1417,0.5945,0.3745,0.8623c0.1764,0.2026,0.4064,0.3388,0.5206,0.3357c0.2055-0.0029,0.4123-0.2249,0.1375-0.386c-0.4036-0.1612-0.5511-0.3815-0.6105-0.5917c-0.065-0.3667,0.006-0.5442,0.2272-0.3638c0.3137,0.3565,0.9126,1.0205,1.2263,1.3297c0.3516,0.2693,0.7549,0.278,1.076,0.0045c0.1838-0.2115,0.1186-0.4392-0.1692-0.3905c-0.6493,0.0548-1.141-0.2676-1.6805-1.1389c-0.1056-0.1967-0.1346-0.4792,0.0984-0.269c0.2689,0.3638,0.6609,0.673,1.0254,0.8061c0.3659,0.1315,0.668,0.0589,0.7852-0.0562c0.1412-0.1412,0.1041-0.4969-0.1403-0.4111c-0.2011,0.071-0.4845,0.0887-0.7794-0.0252c-0.2952-0.1154-0.6017-0.3638-0.9271-0.7853c-0.1114-0.2381-0.0751-0.4392,0.1504-0.3166c0.5337,0.4527,1.2221,0.8194,1.5735,0.5991c0.2589-0.1612,0.2633-0.5754-0.065-0.5487c-0.6611,0.0901-0.9112-0.0562-1.5461-0.6167c-0.1445-0.108-0.1345-0.3817,0.0954-0.2071c0.5337,0.3447,1.2626,0.4791,1.549,0.2988c0.2575-0.1612,0.2198-0.6539-0.214-0.4794c-0.3472,0.2115-0.7304,0.2056-1.4983-0.343c-0.1937-0.1612-0.0492-0.3713,0.1098-0.2811c0.6176,0.352,1.5173,0.5028,1.7514-0.213c0.0911-0.2735-0.0737-0.4333-0.3153-0.244c-0.5307,0.491-1.1324,0.2499-1.4692,0.0029c-0.0965-0.0569-0.2734-0.3446,0.0374-0.2912c0.8042,0.1834,1.5996,0.0237,1.7443-0.5458c0.0839-0.1849-0.0811-0.5118-0.3747-0.2381c-0.3861,0.3815-0.7954,0.3948-1.3102,0.3919c-0.2619-0.0548-0.2647-0.3432-0.0449-0.386c0.4064,0.0087,0.807-0.1688,1.1281-0.3491c0.3139-0.1804,0.5742-0.4333,0.6567-0.7839c0.0506-0.3135-0.2517-0.6463-0.4339-0.3135c-0.2691,0.4865-0.8649,0.9451-1.5274,1.0279c-0.0345-0.0577-0.1214-0.2057-0.2284-0.1641c-0.1945,0.0754-0.4263,0.1763-0.6649,0.2897c-0.5144,0.2443-0.7288,0.362-0.667,0.784c0.0645,0.4404-0.275,0.7187-0.5554,0.6418c-0.2446-0.0658-0.3795-0.2867-0.3357-0.6699c0.0351-0.3053,0.3416-0.6746,0.687-0.8683c0.2236-0.1251,0.5612-0.1936,0.9676-0.2839c0.2473-0.0487,0.3733-0.1449,0.3877-0.2456c0,0-0.1691,0.1237-0.4397,0.1051c-0.1279-0.0091-0.2137-0.0654-0.2459-0.1229c0.0941-0.0191,0.2647,0.0031,0.4179,0.0031c0.2039-0.0016,0.6772-0.0473,0.8028-0.3343c0.0391-0.1893-0.0853-0.2233-0.2011-0.1021c-0.1244,0.1311-0.1756,0.2489-0.4251,0.2929c-0.1518,0.0267-0.3037,0.0577-0.499,0.0104c0.11-0.1307,0.2848-0.2643,0.4339-0.2397c0.049,0.0082,0.1142,0.0534,0.1664,0.1347c0.0319-0.2071-0.0247-0.4409-0.5786-0.3432c0.0088-0.1567-0.3211-0.2248-0.5191-0.2217c-0.1128,0.0029-0.3428,0.0695-0.509,0.1492c-0.2633,0.0815-0.5235,0.1406-0.8303,0.1629c0.178,0.1522,0.2113,0.1612,0.389,0.2898c-0.2689,0.1005-0.4771,0.3076-0.5712,0.4437c0,0,0.3139-0.0088,0.3934,0.0267c-0.3285,0.096-0.476,0.1537-0.6495,0.3312c0.0608,0.0104,0.1518,0.0281,0.1909,0.043c0.0407,0.0147,0.0301,0.0414-0.0028,0.0665c-0.0707,0.054-0.3631,0.3935-0.4484,0.4749c-0.0853-0.0813-0.3777-0.4209-0.4484-0.4749c-0.0329-0.0251-0.0435-0.0518-0.0028-0.0665c0.0391-0.0149,0.1301-0.0326,0.1909-0.043c-0.1736-0.1775-0.3211-0.2352-0.6495-0.3312c0.0795-0.0355,0.3934-0.0267,0.3934-0.0267c-0.0941-0.1361-0.3023-0.3432-0.5712-0.4437c0.1778-0.1286,0.2111-0.1376,0.389-0.2898c-0.3067-0.0222-0.567-0.0813-0.8303-0.1629c-0.1662-0.0797-0.3962-0.1463-0.509-0.1492c-0.1981-0.0031-0.5279,0.065-0.5191,0.2217c-0.5539-0.0976-0.6105,0.1362-0.5786,0.3433c0.0522-0.0813,0.1174-0.1266,0.1664-0.1347c0.1491-0.0247,0.3239,0.109,0.4339,0.2397c-0.1953,0.0473-0.3472,0.0163-0.4991-0.0104c-0.2495-0.044-0.3007-0.1618-0.4251-0.2929c-0.1157-0.1213-0.2401-0.0873-0.2011,0.1021c0.1256,0.287,0.5989,0.3326,0.8028,0.3343c0.1533,0,0.3239-0.0222,0.4179-0.0031c-0.0323,0.0575-0.118,0.1137-0.2459,0.1229c-0.2706,0.0186-0.4397-0.1051-0.4397-0.1051c0.0144,0.1007,0.1403,0.1969,0.3877,0.2456c0.4064,0.0903,0.744,0.1588,0.9676,0.2839c0.3454,0.1936,0.6519,0.5629,0.687,0.8683c0.0438,0.3831-0.0911,0.6041-0.3356,0.6699c-0.2804,0.0769-0.6199-0.2014-0.5554-0.6418c0.0618-0.422-0.1526-0.5397-0.667-0.784c-0.2386-0.1133-0.4704-0.2143-0.6649-0.2897c-0.107-0.0415-0.1939,0.1064-0.2284,0.1641c-0.6625-0.0828-1.2584-0.5413-1.5274-1.0279c-0.1822-0.3328-0.4845,0-0.4339,0.3135c0.0825,0.3506,0.3428,0.6035,0.6567,0.7839c0.3211,0.1804,0.7217,0.3579,1.1281,0.3491c0.2198,0.0428,0.217,0.3312-0.0449,0.386c-0.5148,0.0029-0.9241-0.0104-1.3102-0.3919c-0.2935-0.2737-0.4586,0.0532-0.3747,0.2381c0.1447,0.5694,0.9401,0.7292,1.7443,0.5458c0.3109-0.0534,0.1339,0.2344,0.0374,0.2913c-0.3368,0.247-0.9385,0.4881-1.4692-0.0029c-0.2415-0.1893-0.4064-0.0296-0.3153,0.244c0.2342,0.7158,1.1338,0.565,1.7514,0.213c0.1591-0.0903,0.3035,0.1199,0.1098,0.2811c-0.7679,0.5487-1.1511,0.5546-1.4983,0.343c-0.4339-0.1745-0.4715,0.3181-0.214,0.4794c0.2864,0.1804,1.0152,0.0459,1.5489-0.2988c0.23-0.1747,0.2399,0.0991,0.0954,0.2071c-0.6349,0.5605-0.8851,0.7068-1.5461,0.6167c-0.3283-0.0267-0.3239,0.3874-0.065,0.5487c0.3513,0.2203,1.0397-0.1463,1.5734-0.599c0.2256-0.1227,0.2619,0.0785,0.1505,0.3165c-0.3254,0.4215-0.632,0.6699-0.9271,0.7853c-0.2949,0.1139-0.5783,0.0962-0.7794,0.0253c-0.2444-0.0858-0.2815,0.2699-0.1403,0.4111c0.1172,0.1151,0.4193,0.1877,0.7852,0.0562c0.3645-0.1331,0.7565-0.4423,1.0254-0.8061c0.233-0.2101,0.2041,0.0723,0.0984,0.269c-0.5395,0.8713-1.0311,1.1937-1.6805,1.1389c-0.2878-0.0487-0.3529,0.1789-0.1692,0.3905c0.3211,0.2735,0.7245,0.2648,1.076-0.0045c0.3137-0.3092,0.9126-0.9732,1.2263-1.3297c0.2212-0.1804,0.2922-0.0029,0.2272,0.3638c-0.0594,0.2101-0.2069,0.4305-0.6105,0.5917c-0.2749,0.1612-0.068,0.3831,0.1375,0.386c0.1142,0.0031,0.3442-0.1331,0.5206-0.3357c0.2328-0.2678,0.2459-0.4467,0.3745-0.8623c0.1202-0.2026,0.3356-0.1078,0.3356,0.1035c-0.1026,0.4172-0.1923,0.491-0.4006,0.6626c-0.2011,0.1908,0.1389,0.256,0.2531,0.1761c0.3312-0.2279,0.4526-0.5222,0.5626-0.7914c0.0795-0.1936,0.3109-0.099,0.2039,0.2175c-0.2559,0.7557-0.6782,1.0531-1.4158,1.2053c-0.0753,0.0149-0.1296,0.0865-0.0941,0.148c0.0983,0.105,0.1981,0.2011,0.2966,0.3047c0,0-0.8267,0.2121-1.2832,0.3483l-0.6289-0.4279c0.0409-0.1559-0.2284-0.3436-0.4327-0.1889c-0.224-0.1057-0.3479-0.0592-0.4359,0.0966c0.1707-0.0567,0.2575-0.0175,0.3278,0.0661c0.0496,0.1893,0.2971,0.3051,0.4736,0.2009l0.4727,0.3366l-0.7966-0.0222c-0.057-0.2175-0.4516-0.2184-0.5606-0.0252c-0.1434,0-0.2391,0.0802-0.2883,0.2678c0.156-0.1159,0.2236-0.102,0.3036-0.0801c0.0936,0.1658,0.4145,0.1571,0.5032,0l0.7649,0.0214l-0.4469,0.2566c-0.2573-0.1519-0.5898,0.0762-0.5276,0.3134c-0.1083,0.09-0.1227,0.2196-0.0536,0.4031c0.0374-0.1272,0.1084-0.2462,0.2189-0.3148c0.2343,0.0642,0.4595-0.0111,0.4595-0.2489l0.6211-0.3516l0.6149,0.2417c0,0.1644,0.2453,0.2887,0.4558,0.2016c0.1475,0.0176,0.1685,0.1497,0.1931,0.2514c0.0806-0.1461,0.0956-0.2975-0.0911-0.4266c0-0.1891-0.2382-0.3066-0.4355-0.1976l-0.5212-0.1852c0.4681-0.1526,1.3277-0.307,1.3277-0.307c0.1172,0.1123,0.2108,0.1949,0.328,0.2954c0.0622,0.0385,0.1501,0.0365,0.2457-0.0885c0.2922-0.4335,0.5684-1.2227,0.9907-1.3313c0.1553-0.04,0.342,0.0652,0.3023,0.4125c-0.0604,0.5281-0.4469,0.9671-0.9329,1.2956c-0.2705,0.1804-0.3847,0.1007-0.5943,0.0903c-0.2705,0.031-0.3428,0.1655-0.12,0.352c0.2067,0.1094,0.3932,0.1241,0.5437,0.0946c0.1301-0.0237,0.282-0.1953,0.3904-0.2884c0.1216-0.1435,0.3241,0.0267,0.1867,0.1953c-0.2503,0.3047-0.5019,0.5044-0.81,0.4999c-0.3254,0.0459-0.2646,0.2321-0.0492,0.3224c0.3877,0.1641,0.739-0.1421,0.9156-0.3447c0.1373-0.1522,0.2358-0.1581,0.2111,0.0785c-0.1359,0.4303-0.3225,0.5974-0.6262,0.6182c-0.2459-0.0222-0.2487,0.1716-0.0694,0.3033c0.4106,0.2898,0.7085-0.2042,0.8474-0.503c0.0983-0.2707,0.2503-0.1419,0.2661,0.0799c0.003,0.2974-0.21,0.6059-0.3857,0.7582C15.067,21.2651,16,22.2337,16,22.2337S16.9331,21.265,16.7574,21.1127L16.7574,21.1127z M18.0078,10.143L18.0078,10.143c0.1443,0,0.2361,0.0461,0.2361,0.1079c0,0.0628-0.0917,0.1185-0.2361,0.1185c-0.1452,0-0.2349-0.0511-0.2349-0.1138C17.7729,10.1938,17.8626,10.143,18.0078,10.143z M13.9923,10.143c0.1452,0,0.2349,0.0509,0.2349,0.1126c0,0.0627-0.0897,0.1138-0.2349,0.1138c-0.1444,0-0.2361-0.0557-0.2361-0.1185C13.7562,10.1891,13.8479,10.1429,13.9923,10.143L13.9923,10.143z" />
</svg>