<svg width="32" height="32" viewBox="0 0 32 32" xmlns="http://www.w3.org/2000/svg">
  <rect fill="#CF0828" x="2" y="6" width="28" height="20" />
  <g fill="#FCD53F">
    <polygon points="22.8187,8.6268 20.6753,7.0695 23.3247,7.0696 21.1813,8.6268 22,6.1072" />
    <polygon points="16,6.1071 15.1813,8.6269 17.3247,7.0696 14.6753,7.0696 16.8187,8.6268" />
    <polygon points="10,6.1072 9.1813,8.6268 11.3247,7.0696 8.6753,7.0696 10.8187,8.6268" />
    <polygon points="22.8187,25.6268 20.6753,24.0695 23.3247,24.0696 21.1813,25.6268 22,23.1072" />
    <polygon points="16,23.1071 15.1813,25.6269 17.3247,24.0695 14.6753,24.0696 16.8187,25.6268" />
    <polygon points="10,23.1072 9.1813,25.6268 11.3247,24.0696 8.6753,24.0696 10.8187,25.6268" />
  </g>
  <polygon fill="#FCD53F" points="5,9 8,16 5,23 27,23 24,16 27,9" />
  <polygon fill="#007356" points="5,9 5,23 27,9 27,23" />
  <path fill="#CF0828" d="M6.6689,16.0266c0.2919,0.5438,0.8598,1.1356,1.3557,1.3436c0.008-0.5522-0.188-1.26-0.4559-1.8239L6.6689,16.0266z" />
  <path fill="#FCD53F" d="M6.1739,14.1612c0.4232,0.8821-1.0975,2.9867,1.436,3.4799c-0.3125-0.4265-0.514-1.1304-0.4378-1.6956c0.5315,0.2022,1.0908,0.794,1.3168,1.2464C9.152,14.7841,6.7882,14.9306,6.1739,14.1612L6.1739,14.1612z" />
  <circle fill="#CF0828" cx="16" cy="16" r="2.5" />
  <polygon fill="#FCD53F" points="16,13.7083 14.653,17.854 18.1795,15.2918 13.8205,15.2918 17.347,17.854" />
</svg>