<svg width="32" height="32" viewBox="0 0 32 32" xmlns="http://www.w3.org/2000/svg">
  <polygon fill="#F4F4F4" points="2,12.75 3,11.75 29,11.75 30,12.75 30,19.25 29,20.25 3,20.25 2,19.25" />
  <rect fill="#FF6723" x="2" y="6" width="28" height="6.75" />
  <rect fill="#276038" x="2" y="19.25" width="28" height="6.75" />
  <circle fill="#06038D" cx="16" cy="16" r="2.875" />
  <path fill="#F4F4F4" d="M17.8842,17.4458c0.0405-0.0528,0.1142-0.0617,0.1686-0.0248c0.0777-0.112,0.1418-0.2329,0.2007-0.3571c-0.0558-0.03-0.0841-0.0951-0.0593-0.155c0.0246-0.0593,0.0896-0.085,0.1498-0.0676c0.0461-0.1281,0.0861-0.2585,0.1109-0.3953c-0.0636-0.0131-0.1088-0.0706-0.1003-0.136c0.0082-0.0626,0.063-0.1029,0.1245-0.1034C18.4849,16.1373,18.5,16.0707,18.5,16s-0.0151-0.1373-0.0209-0.2066c-0.0615-0.0005-0.1162-0.0408-0.1245-0.1034c-0.0085-0.0654,0.0367-0.1229,0.1003-0.136c-0.0248-0.1367-0.0648-0.2672-0.111-0.3953c-0.0602,0.0172-0.1252-0.0084-0.1498-0.0676c-0.0247-0.0598,0.0034-0.125,0.0593-0.1549c-0.0589-0.1242-0.123-0.2451-0.2008-0.3571c-0.0543,0.0368-0.128,0.0278-0.1685-0.0249c-0.0385-0.0501-0.0282-0.1174,0.0149-0.1611c-0.0895-0.1057-0.1865-0.2026-0.2922-0.2922c-0.0437,0.0431-0.111,0.0533-0.1611,0.0149c-0.0527-0.0405-0.0618-0.1141-0.0249-0.1685c-0.112-0.0778-0.2329-0.1419-0.3571-0.2009c-0.03,0.0558-0.0951,0.084-0.1549,0.0593c-0.0593-0.0245-0.0848-0.0895-0.0676-0.1497c-0.1281-0.0461-0.2585-0.0861-0.3953-0.1109c-0.0131,0.0635-0.0706,0.1088-0.1359,0.1002c-0.0626-0.0082-0.1028-0.063-0.1033-0.1245C16.1374,13.5151,16.0707,13.5,16,13.5s-0.1374,0.0151-0.2067,0.0209c-0.0005,0.0614-0.0408,0.1161-0.1033,0.1244c-0.0654,0.0085-0.1229-0.0367-0.136-0.1002c-0.1368,0.0248-0.2672,0.0648-0.3953,0.111c0.0172,0.0602-0.0084,0.1252-0.0676,0.1497c-0.0598,0.0248-0.1249-0.0034-0.1548-0.0592c-0.1242,0.0589-0.2452,0.1232-0.3572,0.2009c0.0367,0.0543,0.0278,0.1279-0.0249,0.1683c-0.0501,0.0384-0.1172,0.0282-0.161-0.0148c-0.1057,0.0896-0.2026,0.1865-0.2922,0.2922c0.043,0.0438,0.0532,0.1109,0.0148,0.161c-0.0405,0.0527-0.114,0.0616-0.1683,0.0249c-0.0778,0.112-0.142,0.233-0.2009,0.3572c0.0558,0.03,0.084,0.095,0.0592,0.1548c-0.0245,0.0592-0.0895,0.0848-0.1497,0.0676c-0.0462,0.1281-0.0862,0.2585-0.111,0.3953c0.0635,0.0131,0.1088,0.0706,0.1002,0.136c-0.0082,0.0626-0.063,0.1028-0.1244,0.1033C13.5151,15.8626,13.5,15.9293,13.5,16s0.0151,0.1374,0.0209,0.2067c0.0614,0.0005,0.1162,0.0408,0.1245,0.1033c0.0085,0.0654-0.0367,0.1229-0.1002,0.1359c0.0248,0.1368,0.0648,0.2672,0.1109,0.3953c0.0602-0.0172,0.1252,0.0084,0.1497,0.0676c0.0248,0.0598-0.0034,0.1249-0.0593,0.1549c0.059,0.1242,0.1231,0.2451,0.2009,0.3571c0.0544-0.0369,0.1279-0.0278,0.1685,0.0249c0.0384,0.0501,0.0282,0.1174-0.0149,0.1611c0.0895,0.1057,0.1865,0.2026,0.2922,0.2922c0.0438-0.0431,0.111-0.0533,0.1611-0.0149c0.0527,0.0405,0.0617,0.1141,0.0249,0.1685c0.112,0.0778,0.2329,0.1419,0.3571,0.2008c0.0299-0.0559,0.095-0.084,0.1549-0.0593c0.0592,0.0245,0.0848,0.0896,0.0676,0.1498c0.1281,0.0461,0.2585,0.0862,0.3953,0.111c0.0131-0.0636,0.0706-0.1088,0.136-0.1003c0.0626,0.0082,0.1028,0.063,0.1034,0.1245C15.8627,18.4849,15.9293,18.5,16,18.5s0.1373-0.0151,0.2066-0.0209c0.0005-0.0615,0.0408-0.1162,0.1034-0.1245c0.0654-0.0085,0.1229,0.0367,0.136,0.1003c0.1368-0.0248,0.2672-0.0648,0.3953-0.1109c-0.0173-0.0602,0.0083-0.1252,0.0676-0.1498c0.0599-0.0248,0.125,0.0035,0.155,0.0593c0.1242-0.0589,0.2452-0.123,0.3571-0.2007c-0.0369-0.0544-0.028-0.1281,0.0248-0.1686c0.0501-0.0385,0.1175-0.0282,0.1613,0.015c0.1057-0.0895,0.2026-0.1865,0.2921-0.2921C17.856,17.5633,17.8457,17.4959,17.8842,17.4458z" />
  <path id="path1148" fill="#06038D" d="M16,15.75l-0.0871-0.7462L16,13.375l0.0872,1.6288L16,15.75z M16.0647,15.7585l0.109-0.7433l0.5057-1.5507l-0.3374,1.5959L16.0647,15.7585z M16.125,15.7835l0.2976-0.6898l0.8899-1.367l-0.7389,1.4542L16.125,15.7835z M16.1768,15.8232l0.466-0.5893l1.2134-1.0901l-1.0901,1.2134L16.1768,15.8232z M16.2165,15.875l0.6027-0.4486l1.4542-0.7389l-1.367,0.8899L16.2165,15.875z M16.2415,15.9353l0.6982-0.2773l1.5959-0.3374l-1.5508,0.5058L16.2415,15.9353z M16.25,16l0.7462-0.0871L18.625,16l-1.6288,0.0872L16.25,16z M16.2415,16.0647l0.7433,0.109l1.5508,0.5057l-1.5959-0.3374L16.2415,16.0647z M16.2165,16.125l0.6898,0.2976l1.367,0.8899l-1.4542-0.7389L16.2165,16.125z M16.1768,16.1768l0.5893,0.466l1.0901,1.2134l-1.2134-1.0901L16.1768,16.1768z M16.125,16.2165l0.4486,0.6027l0.7389,1.4542l-0.8899-1.367L16.125,16.2165z M16.0647,16.2415l0.2773,0.6982l0.3374,1.5959l-0.5057-1.5508L16.0647,16.2415z M16,16.25l0.0872,0.7462L16,18.625l-0.0871-1.6288L16,16.25z M15.9353,16.2415l-0.1089,0.7433l-0.5057,1.5508l0.3374-1.5959L15.9353,16.2415z M15.875,16.2165l-0.2976,0.6898l-0.8899,1.367l0.7389-1.4542L15.875,16.2165z M15.8232,16.1768l-0.466,0.5893l-1.2134,1.0901l1.0901-1.2134L15.8232,16.1768z M15.7835,16.125l-0.6026,0.4486l-1.4542,0.7389l1.367-0.8899L15.7835,16.125z M15.7585,16.0647l-0.6982,0.2773l-1.5959,0.3374l1.5507-0.5057L15.7585,16.0647z M15.75,16l-0.7462,0.0872L13.375,16l1.6288-0.0871L15.75,16z M15.7585,15.9353l-0.7433-0.1089l-1.5507-0.5057l1.5959,0.3374L15.7585,15.9353z M15.7835,15.875l-0.6898-0.2976l-1.367-0.8899l1.4542,0.7389L15.7835,15.875z M15.8232,15.8232l-0.5893-0.466l-1.0901-1.2134l1.2134,1.0901L15.8232,15.8232z M15.875,15.7835l-0.4486-0.6026l-0.7389-1.4542l0.8899,1.367L15.875,15.7835z M15.9353,15.7585l-0.2773-0.6982l-0.3374-1.5959l0.5058,1.5507L15.9353,15.7585z" />
  <circle fill="#06038D" cx="16" cy="16" r="0.5" />
</svg>