<svg width="32" height="32" viewBox="0 0 32 32" xmlns="http://www.w3.org/2000/svg">
  <polygon fill="#F8312F" points="2,12.75 3,11.75 29,11.75 30,12.75 30,19.25 29,20.25 3,20.25 2,19.25" />
  <rect fill="#00A6ED" x="2" y="6" width="28" height="6.75" />
  <rect fill="#44911B" x="2" y="19.25" width="28" height="6.75" />
  <path fill="#f4f4f4" d="M15.675,18.4375c0.6426,0,1.2227-0.2536,1.6582-0.66c-0.5349,0.6933-1.3648,1.1475-2.3082,1.1475c-1.6155,0-2.925-1.3096-2.925-2.925s1.3096-2.925,2.925-2.925c0.9434,0,1.7733,0.4542,2.3082,1.1475c-0.4355-0.4064-1.0156-0.66-1.6582-0.66c-1.3462,0-2.4375,1.0913-2.4375,2.4375S14.3288,18.4375,15.675,18.4375z M19.9,16l-0.8743-0.3109l0.3984-0.8381l-0.8381,0.3984L18.275,14.375l-0.3109,0.8743L17.126,14.851l0.3984,0.8381L16.65,16l0.8743,0.3109L17.126,17.149l0.8381-0.3984l0.3109,0.8743l0.3109-0.8743l0.8381,0.3984l-0.3984-0.8381L19.9,16z" />
</svg>