<svg width="32" height="32" viewBox="0 0 32 32" xmlns="http://www.w3.org/2000/svg">
  <polygon fill="#83CBFF" points="16,6 30,6 30,26 2,26 2,16" />
  <polygon fill="#072975" points="4.1,6 7.25,6 9,7 10.75,6 13.9,6 16,7.5 16,9.25 15,11 16,12.75 16,14.5 13.9,16 10.75,16 9,15 7.25,16 4.1,16 2,14.5 2,12.75 3,11 2,9.25 2,7.5" />
  <polygon fill="#F4F4F4" points="16,6 15.3,6.25 14.6,6 13.9,6 10.75,8.25 10.75,6 10,6 9,6.5 8,6 7.25,6 7.25,8.25 4.1,6 2,6 2.25,6.5 2,7 2,7.5 4.45,9.25 2,9.25 2,10 2.5,11 2,12 2,12.75 4.45,12.75 2,14.5 2,16 2.7,15.75 3.4,16 4.1,16 7.25,13.75 7.25,16 8,16 9,15.5 10,16 10.75,16 10.75,13.75 13.9,16 16,16 15.75,15.5 16,15 16,14.5 13.55,12.75 16,12.75 16,12 15.5,11 16,10 16,9.25 13.55,9.25 16,7.5" />
  <path fill="#CF0828" d="M7.25,12.75h-0.7L2,16h1.4l3.85-2.75V12.75z M11.45,12.75L16,16v-1l-3.15-2.25H11.45z M10.75,9.25h0.7L16,6h-1.4l-3.85,2.75V9.25z M5.15,9.25L2,7V6l4.55,3.25H5.15z M16,12h-6v4H8v-4H2v-2h6V6h2v4h6V12z" />
  <path fill="#1c1c1c" d="M26.75,11.096L19.25,11.096L19.25,17.442C19.25,19.589 23,20.792 23,20.792C23,20.792 26.75,19.589 26.75,17.442L26.75,11.096Z" />
  <path d="M23,20.63C22.573,20.483 19.404,19.327 19.404,17.442L19.404,11.25L26.596,11.25L26.596,17.442C26.596,19.326 23.427,20.482 23,20.63Z" fill="#f4f4f4" />
  <path d="M26.596,13.612L23.497,13.612L23.497,16.225L26.596,16.225L26.596,17.234L23.497,17.234L23.497,20.439C23.26,20.537 23.08,20.602 23,20.629C22.918,20.601 22.731,20.534 22.487,20.432L22.487,17.234L19.404,17.234L19.404,16.225L22.487,16.225L22.487,13.612L19.404,13.612L19.404,11.25L26.596,11.25L26.596,13.612ZM20.337,12.686C20.337,12.475 20.139,12.303 19.897,12.303C19.654,12.303 19.457,12.475 19.457,12.686C19.457,12.898 19.654,13.069 19.897,13.069C20.139,13.069 20.337,12.898 20.337,12.686Z" fill="#cf0828" />
  <path d="M19.979,12.382C19.728,12.426 19.607,12.274 19.655,12.13C19.702,11.986 19.943,11.854 20.172,11.829C20.4,11.805 20.616,12.034 20.796,12.045C20.976,12.058 21.072,11.958 21.108,11.827C21.145,11.696 21.397,11.398 21.241,11.324C21.445,11.324 21.445,11.54 21.445,11.54C21.445,11.54 21.674,11.312 21.842,11.324C21.938,11.492 21.842,11.732 21.842,11.732C21.842,11.732 22.082,11.636 22.251,11.745C21.926,11.792 21.878,11.985 21.878,11.985C21.878,11.985 21.938,12.141 21.855,12.225C21.771,12.308 22.515,12.465 22.925,12.345C23.333,12.225 24.115,11.948 24.619,11.948C25.124,11.948 25.232,12.14 25.352,11.972C25.472,11.803 25.208,11.623 24.775,11.659C24.343,11.695 23.609,12.196 23.321,11.862C23.248,11.862 23.212,11.948 23.212,11.948C23.212,11.948 23.032,11.888 22.852,11.792C22.672,11.695 22.707,12.02 22.804,12.068C22.503,12.055 22.513,11.862 22.513,11.862C22.513,11.862 22.142,11.589 22.383,11.385C22.401,11.758 22.732,11.649 22.912,11.577C23.092,11.505 23.321,11.565 23.429,11.661C23.538,11.757 23.85,11.841 24.246,11.613C24.643,11.385 25.712,11.301 25.725,11.782C25.737,12.262 25.195,12.298 25.195,12.298C25.195,12.298 25.255,12.587 25.592,12.527C25.929,12.467 26.145,12.371 26.242,12.635C26.338,12.9 26.554,12.912 26.482,13.128C26.41,13.345 26.17,13.445 25.845,13.389C25.521,13.333 25.485,13.201 25.749,13.152C26.014,13.105 26.062,12.9 25.965,12.852C25.869,12.803 25.689,12.996 25.448,12.899C25.208,12.802 24.895,12.611 24.895,12.611C24.895,12.611 24.908,12.743 24.691,12.815C24.475,12.888 24.655,12.972 24.715,13.104C24.775,13.236 24.498,13.344 24.21,13.404C23.922,13.464 23.705,13.621 23.428,13.284C23.152,12.947 23.501,12.852 23.645,12.959C23.788,13.067 23.933,13.26 24.053,13.164C24.173,13.068 23.969,13.008 23.945,12.827C23.921,12.647 23.957,12.431 23.957,12.431C23.957,12.431 23.572,13.031 22.755,13.151C21.938,13.271 21.794,13.271 21.794,13.271L21.554,13.102L21.265,13.295L21.253,13.078C21.253,13.078 20.796,13.437 20.556,13.492C20.316,13.548 19.659,13.392 19.645,13.211C19.63,13.031 19.702,12.946 19.918,12.874C20.135,12.802 20.171,12.922 20.279,13.018C20.388,13.115 20.508,13.247 20.664,13.115C20.82,12.982 20.904,12.935 20.904,12.935L20.952,12.706L20.723,12.694L20.807,12.43C20.807,12.43 20.638,12.465 20.518,12.357C20.398,12.248 20.386,12.141 20.278,12.177C20.172,12.214 20.255,12.334 19.979,12.382Z" fill="#fcd53f" />
  <path d="M20.556,15.868C20.352,15.952 20.039,15.278 20.219,15.086C20.4,14.894 20.76,15.784 20.556,15.868ZM20.952,15.784C20.761,15.801 20.832,14.87 20.952,14.87C21.073,14.87 21.217,15.76 20.952,15.784ZM21.289,15.931C21.05,15.887 21.409,15.327 21.505,15.327C21.602,15.327 21.565,15.982 21.289,15.931ZM25.087,16.084C24.618,16.097 24.882,16.002 24.931,15.875C24.978,15.747 24.95,14.798 24.95,14.798L25.219,14.798C25.219,14.798 25.135,15.615 25.219,15.784C25.304,15.952 25.52,16.072 25.087,16.084ZM26.012,17.743C26.124,17.618 25.844,17.418 25.652,17.418C25.459,17.418 25.242,17.527 25.08,17.983C24.918,18.44 25.261,18.308 25.348,18.055C25.436,17.803 25.508,17.658 25.64,17.647C25.772,17.635 25.82,17.959 26.012,17.743ZM24.174,19.342C23.927,19.323 23.717,19.966 23.717,19.966C23.717,19.966 24.823,19.389 24.174,19.342Z" fill="#990838" />
  <path d="M20.337,15.327C20.397,15.519 19.787,15.296 19.775,15.63C19.523,15.592 19.884,15.098 20.112,15.171C20.065,14.906 19.723,14.798 19.689,15.231C19.307,14.894 19.794,14.57 20.013,14.714C19.896,14.305 19.672,14.312 19.645,14.558C19.355,14.318 19.647,13.933 19.898,14.113C20.148,14.293 20.167,14.485 20.167,14.485C20.167,14.485 20.342,13.863 20.786,14.066C20.247,14.294 20.142,14.702 20.337,15.327Z" fill="#00a85b" />
  <path d="M20.968,15.059C20.808,14.906 20.712,14.738 20.712,14.738C20.712,14.738 20.882,15.195 20.617,15.387C20.628,14.966 20.34,14.822 20.496,14.654C20.652,14.485 20.917,14.654 20.917,14.654C20.917,14.654 20.979,14.556 20.708,14.317C20.438,14.078 20.244,14.088 20.232,13.885C20.503,14.046 20.918,14.047 20.968,14.498C21.025,13.957 21.268,13.945 21.381,13.933C21.493,13.922 21.758,13.981 21.854,13.885C21.854,14.078 21.638,14.018 21.493,14.078C21.685,14.21 21.698,14.637 21.698,14.637C21.698,14.637 21.422,14.15 21.301,14.186C21.181,14.222 21.101,14.583 21.101,14.583C21.101,14.583 21.54,14.57 21.38,15.16C21.312,14.835 21.24,14.799 21.156,14.799C21.072,14.799 20.968,15.059 20.968,15.059Z" fill="#00a85b" />
  <path d="M21.381,15.467C21.397,15.242 21.505,14.858 21.625,14.828C21.665,14.582 21.794,14.233 22.058,14.173C22.322,14.113 22.382,14.389 22.322,14.545C22.166,14.317 21.95,14.257 21.902,14.798C22.13,14.738 22.262,14.918 22.202,15.158C21.986,14.906 21.83,14.876 21.734,15.059C21.986,15.158 21.991,15.375 21.862,15.555C21.806,15.243 21.639,15.267 21.551,15.555C21.462,15.843 21.381,15.467 21.381,15.467ZM25.038,15.059C24.763,15.059 24.402,15.343 24.378,15.784C24.09,15.351 24.443,14.87 24.813,14.702C24.162,14.714 23.922,15.002 23.838,15.242C23.754,14.605 24.563,14.353 24.813,14.461C24.655,14.185 24.03,14.208 23.717,14.436C23.717,13.908 24.652,13.781 25.038,14.258C24.991,13.872 25.148,13.775 25.148,13.775L25.148,14.292C25.148,14.292 26.018,13.475 26.496,14.461C25.725,14.064 25.349,14.473 25.349,14.473C25.349,14.473 26.148,14.281 26.038,15.206C25.785,14.642 25.255,14.702 25.255,14.702C25.255,14.702 25.868,14.978 25.628,15.663C25.388,15.002 25.038,15.059 25.038,15.059Z" fill="#00a85b" />
  <path d="M24.45,18.068C24.414,17.707 24.871,17.503 24.871,17.503C24.871,17.503 25.64,17.972 25.748,18.068C25.857,18.164 25.682,18.566 25.348,18.672C25.015,18.776 24.45,18.068 24.45,18.068Z" fill="#fcd53f" />
  <path d="M24.238,19.35C24.058,19.236 23.942,18.596 24.238,18.535C24.126,18.151 24.366,17.958 24.45,17.935C24.534,17.911 24.845,18.052 25.08,18.275C25.315,18.499 25.519,18.553 25.538,18.641C25.556,18.728 25.391,18.992 25.107,19.016C25.195,19.282 24.519,19.528 24.238,19.35Z" fill="#00a85b" />
  <path fill="#1c1c1c" d="M20.232,17.852C20.232,17.852 20.412,17.778 20.52,17.671C20.628,17.563 20.772,17.562 20.892,17.761C21.012,17.959 21.101,18.212 21.101,18.212C21.101,18.212 21.06,17.851 21.433,17.658C21.806,17.466 21.862,17.418 21.862,17.418L21.734,17.932C21.734,17.932 22.178,17.659 22.251,17.502C22.347,18.115 21.89,18.554 21.602,18.672C21.758,18.933 21.685,19.149 21.685,19.149L22.215,19.582L21.638,19.762L21.381,19.208C21.381,19.208 20.714,19.232 20.617,18.728C20.52,18.223 20.75,17.952 20.617,17.932C20.484,17.911 20.232,17.852 20.232,17.852ZM21.429,19.13L21.68,19.668L22.056,19.55L21.598,19.175L21.614,19.125C21.615,19.117 21.671,18.935 21.536,18.711L21.49,18.633L21.572,18.599C21.776,18.516 22.17,18.188 22.186,17.696C22.04,17.831 21.828,17.963 21.775,17.997L21.614,18.096L21.742,17.581C21.678,17.616 21.59,17.664 21.469,17.726C21.151,17.891 21.177,18.189 21.178,18.202L21.029,18.236C21.028,18.235 20.942,17.989 20.827,17.8C20.778,17.719 20.723,17.675 20.673,17.675C20.633,17.675 20.598,17.702 20.575,17.725C20.538,17.762 20.495,17.795 20.452,17.822C20.515,17.835 20.581,17.848 20.629,17.856L20.695,17.879L20.714,17.907C20.751,17.961 20.736,18.026 20.715,18.125C20.685,18.255 20.642,18.45 20.693,18.714C20.769,19.111 21.265,19.132 21.378,19.132L21.429,19.13Z"/>
  <path d="M20.392,17.768C20.304,17.563 20.304,17.563 20.165,17.502C20.159,17.635 20.165,17.718 20.165,17.718C20.165,17.718 20.088,17.466 19.967,17.502C19.895,17.791 20.153,17.852 20.153,17.852C20.153,17.852 20.039,17.888 20.051,18.092C20.255,18.175 20.231,17.995 20.231,17.995C20.231,17.995 20.188,18.179 20.336,18.285C20.435,18.128 20.392,17.768 20.392,17.768Z" fill="#00a85b" />
</svg>
