<svg xmlns="http://www.w3.org/2000/svg" width="32" height="32" viewBox="0 0 32 32">
  <polygon fill="#f4f4f4" points="2,12.75 3,11.75 29,11.75 30,12.75 30,19.25 29,20.25 3,20.25 2,19.25" />
  <rect fill="#73AFE5" x="2" y="6" width="28" height="6.75" />
  <rect fill="#73AFE5" x="2" y="19.25" width="28" height="6.75" />
  <polygon fill="#7D4533" points="16,12.75 15.6828,14.4062 14.7565,12.9977 15.0971,14.6486 13.7016,13.7016 14.6487,15.0972 12.9977,14.7565 14.4062,15.6828 12.75,16 14.4062,16.3172 12.9977,17.2441 14.6487,16.9029 13.7016,18.2978 15.0971,17.3507 14.7565,19.0023 15.6828,17.5938 16,19.25 16.3172,17.5938 17.2441,19.0023 16.9028,17.3507 18.2978,18.2978 17.3507,16.9029 19.0023,17.2441 17.5938,16.3172 19.25,16 17.5938,15.6828 19.0023,14.7565 17.3507,15.0972 18.2978,13.7016 16.9028,14.6486 17.2441,12.9977 16.3172,14.4062 16,12.75" />
  <polygon fill="#F9C23C" points="16,13.4145 16.1944,14.4297 16.2523,14.7321 16.4216,14.4749 16.9895,13.612 16.7804,14.6234 16.7181,14.9252 16.9731,14.7521 17.8275,14.172 17.2473,15.027 17.0744,15.2818 17.3759,15.2196 18.3882,15.0108 17.5251,15.5784 17.2677,15.7476 17.5703,15.8056 18.5855,16 17.5703,16.1944 17.2679,16.2523 17.5251,16.4216 18.3882,16.9896 17.376,16.7804 17.0742,16.7181 17.2473,16.9731 17.8272,17.8272 16.9731,17.2473 16.7181,17.0742 16.7804,17.376 16.9896,18.3882 16.4216,17.5251 16.2523,17.2679 16.1944,17.5703 16,18.5855 15.8056,17.5703 15.7476,17.2677 15.5784,17.5251 15.0108,18.3882 15.2196,17.3759 15.2818,17.0744 15.027,17.2473 14.172,17.8275 14.7521,16.9731 14.9252,16.7181 14.6234,16.7804 13.612,16.9895 14.4749,16.4216 14.7321,16.2523 14.4297,16.1944 13.4145,16 14.4297,15.8056 14.7323,15.7476 14.4749,15.5784 13.612,15.0109 14.6234,15.2196 14.925,15.2818 14.7521,15.027 14.1716,14.1716 15.027,14.7521 15.2818,14.925 15.2196,14.6234 15.0109,13.612 15.5784,14.4749 15.7476,14.7323 15.8056,14.4297 16,13.4145" />
  <path fill="#7D4533" d="M16,17.3627c-0.751,0-1.3623-0.6113-1.3623-1.3628c0-0.751,0.6113-1.3623,1.3623-1.3623s1.3623,0.6113,1.3623,1.3623C17.3623,16.7513,16.751,17.3627,16,17.3627z" />
  <path fill="#F9C23C" d="M16,14.7626c-0.6821,0-1.2373,0.5552-1.2373,1.2373c0,0.6826,0.5552,1.2378,1.2373,1.2378s1.2373-0.5552,1.2373-1.2378C17.2373,15.3177,16.6821,14.7626,16,14.7626z" />
  <path fill="#B35F47" d="M15.8707,15.8531c0,0.1008-0.1697,0.182-0.379,0.182c-0.2099,0-0.3796-0.0813-0.3796-0.182c0-0.1007,0.1697-0.182,0.3796-0.182C15.701,15.6711,15.8707,15.7523,15.8707,15.8531z M16.8801,15.8375c0-0.1046-0.1729-0.1898-0.3861-0.1898s-0.3861,0.0845-0.3861,0.1898c0,0.1053,0.1729,0.1898,0.3861,0.1898C16.7079,16.0273,16.8801,15.9421,16.8801,15.8375z" />
  <path fill="#E39D89" d="M15.6509,16.5681c0-0.0819,0.1599-0.1488,0.3562-0.1488c0.1969,0,0.3562,0.0663,0.3562,0.1488c0,0.0819-0.1599,0.1489-0.3562,0.1489C15.8102,16.717,15.6509,16.65,15.6509,16.5681z" />
</svg>