<svg width="32" height="32" viewBox="0 0 32 32" xmlns="http://www.w3.org/2000/svg">
  <polygon fill="#f4f4f4" points="14,6 18,6 30,14 30,18 18,26 14,26 2,18 2,14" />
  <rect fill="#072975" x="2" y="6" width="12" height="8" />
  <rect fill="#CF0828" x="18" y="6" width="12" height="8" />
  <rect fill="#CF0828" x="2" y="18" width="12" height="8" />
  <rect fill="#072975" x="18" y="18" width="12" height="8" />
  <path fill="#072975" d="M16.0147,14.63h-1.278l0.2233,0.2153v1.1033h1.0547C16.0147,15.9487,16.0147,14.63,16.0147,14.63z M16.0147,17.254c0.17-0.1853,0.286-0.178,0.7667-0.178c0.2567,0,0.2867-0.1747,0.2867-0.514v-0.6133h-1.0533V17.254z" />
  <path fill="#CF0828" d="M16.0147,17.254c-0.17-0.1853-0.286-0.178-0.7673-0.178c-0.2573,0-0.2873-0.1747-0.2873-0.514v-0.6133h1.0547V17.254z M16.0147,14.63h1.2767l-0.2233,0.2153v1.1033h-1.0533C16.0147,15.9487,16.0147,14.63,16.0147,14.63z" />
  <path fill="#F4F4F4" d="M16.1967,17.118V14.63H15.832v2.49c0.062,0.0213,0.128,0.0713,0.1827,0.134C16.0613,17.1973,16.1387,17.1393,16.1967,17.118z" />
  <path fill="#F4F4F4" d="M14.96,15.7627h2.1073v0.3647H14.96V15.7627z" />
  <path fill="#072975" d="M16.0147,15.704l0.692-0.7387v0.2233l0.128-0.1073v1.234c0,0.458-0.7213,0.4127-0.8207,0.2013c-0.0993,0.2113-0.8213,0.2567-0.8213-0.2013v-1.234l0.1287,0.1073v-0.2233L16.0147,15.704z" />
  <path fill="#F4F4F4" d="M16.0147,16.4953c-0.332,0.178-0.5473,0.038-0.5473-0.132v-0.212c-0.1287,0-0.274-0.066-0.274-0.108v-0.182c0,0.054,0.216,0.1033,0.274,0.1033V15.326l0.12,0.0953v-0.166L15.77,15.442v0.1307l-0.1207-0.102v0.54c0.1247,0,0.222,0.074,0.3653,0.074c0.1427,0,0.24-0.074,0.3647-0.074v-0.54l-0.12,0.102V15.442l0.182-0.1867v0.166l0.1207-0.0953v0.6387c0.058,0,0.2733-0.05,0.2733-0.1033v0.182c0,0.042-0.1453,0.108-0.2733,0.108v0.212C16.562,16.5333,16.346,16.674,16.0147,16.4953l0-0.186c0.178,0.1033,0.3647,0.1287,0.3647,0.0167v-0.1327c-0.1247,0-0.222,0.0747-0.3647,0.0747c-0.1433,0-0.2407-0.0747-0.3653-0.0747v0.1327c0,0.112,0.1873,0.0867,0.3653-0.0167C16.0147,16.3093,16.0147,16.4953,16.0147,16.4953z" />
  <path fill="#CF0828" d="M16.2593,15.4427v0.1307l0.12-0.102v0.54c-0.1247,0-0.222,0.074-0.3647,0.074c-0.1433,0-0.2407-0.074-0.3653-0.074v-0.54l0.1207,0.102v-0.1307l0.2447,0.262L16.2593,15.4427z M15.1933,16.044v0.2713c0,0.458,0.722,0.4127,0.8213,0.2013c0.0987,0.2113,0.8207,0.2567,0.8207-0.2013V16.044c0,0.0407-0.1453,0.1073-0.2733,0.1073v0.212c0,0.1693-0.216,0.31-0.5473,0.132c-0.332,0.178-0.5473,0.038-0.5473-0.132v-0.212C15.3387,16.1513,15.1933,16.0853,15.1933,16.044z" />
  <path fill="#072975" d="M16.292,14.188c0.0127-0.0333,0.0253-0.0813,0.0373-0.1253c-0.0947-0.012-0.2087-0.02-0.3147-0.02c-0.1067,0-0.2207,0.008-0.3153,0.02c0.012,0.044,0.0247,0.092,0.0373,0.1253c0.008,0.0253-0.0413,0.0873-0.2193,0.0767c-0.1527-0.0087-0.3753,0.006-0.5693,0.0393c0.0327,0.05,0.0447,0.06,0.0413,0.0987c-0.0047,0.0433-0.1067,0.084-0.2847,0.1093c-0.178,0.0247-0.2467,0.2093-0.308,0.474c-0.07-0.0293-0.1807-0.0573-0.25-0.0673c0.04-0.172,0.178-0.5627,0.3507-0.602c-0.042-0.0933-0.032-0.14,0.1287-0.2153c0.174-0.0813,0.4687-0.1307,0.7933-0.1427c-0.0207-0.0787,0-0.11,0.102-0.154c0.0873-0.038,0.226-0.0667,0.494-0.0667c0.2667,0,0.406,0.0287,0.4927,0.0667c0.1027,0.0433,0.1227,0.0753,0.1027,0.154c0.324,0.012,0.6193,0.0613,0.7927,0.1427c0.1607,0.0747,0.1707,0.122,0.1287,0.2153c0.172,0.0393,0.3107,0.43,0.35,0.602c-0.0673,0.01-0.18,0.0387-0.2487,0.0673c-0.0613-0.2647-0.1307-0.4493-0.3093-0.474c-0.178-0.0253-0.2807-0.066-0.2847-0.1093C17.0347,14.364,17.048,14.354,17.08,14.304c-0.1933-0.0333-0.4173-0.048-0.5687-0.0393C16.334,14.2753,16.2847,14.2127,16.292,14.188z" />
  <path fill="#B97028" d="M16.0147,15.7667l0.8487-0.7267l0.0187,0.022l-0.8673,0.742V15.7667z M16.0147,15.6853l0.7167-0.778l0.0207,0.0207l-0.7373,0.8V15.6853z M16.0147,15.5787l0.5693-0.786l0.0227,0.0167l-0.592,0.8187V15.5787z M16.0147,15.7667L15.166,15.04l-0.0187,0.022l0.8673,0.742V15.7667z M16.0147,15.6853l-0.7167-0.778l-0.0207,0.0207l0.7373,0.8V15.6853z M16.0147,15.5787l-0.57-0.786l-0.0233,0.0167l0.5933,0.8187V15.5787z" />
  <path fill="#FDBB11" d="M16.8493,15.0293l0.122-0.064L16.89,15.0767C16.8833,15.0827,16.844,15.0347,16.8493,15.0293z M16.716,14.8993l0.1147-0.078l-0.068,0.12C16.756,14.9473,16.7107,14.9047,16.716,14.8993z M16.5687,14.7847l0.1047-0.0913l-0.0547,0.1273C16.6133,14.8287,16.564,14.7913,16.5687,14.7847z M15.1793,15.0293l-0.1227-0.064l0.082,0.1113C15.1453,15.0827,15.1847,15.0347,15.1793,15.0293z M15.312,14.8993l-0.1133-0.078l0.0687,0.12C15.2727,14.9473,15.318,14.9047,15.312,14.8993z M15.46,14.7847l-0.104-0.0913l0.0533,0.1273C15.4153,14.8287,15.4647,14.7913,15.46,14.7847z" />
  <path fill="#1c1c1c" d="M15.9387,15.9653l-0.1313-0.3833l0.0007-0.002c0.036-0.0293,0.1293-0.0713,0.1847-0.0433c0.0387-0.0467,0.1433-0.0927,0.1993-0.0633l0.1187,0.3633c-0.0173,0.014-0.042,0.0173-0.068,0.0207C16.2167,15.86,16.19,15.864,16.17,15.876c-0.0147,0.0087-0.0433,0.0247-0.048,0.0373c-0.0213-0.008-0.0687-0.0013-0.098,0.0073c-0.0127,0.004-0.0233,0.012-0.0347,0.02C15.974,15.9513,15.9587,15.962,15.9387,15.9653z" />
  <path fill="#f4f4f4" d="M15.8113,15.582l0.1287,0.38c0.0167-0.004,0.0313-0.0147,0.046-0.0253c0.012-0.0087,0.0227-0.016,0.036-0.0207c0.03-0.01,0.076-0.016,0.0987-0.006c0.002-0.0127,0.0307-0.0287,0.044-0.0367c0.0233-0.014,0.0507-0.0173,0.0773-0.0207c0.0253-0.0027,0.0493-0.006,0.0647-0.0173l-0.1187-0.36c-0.05-0.026-0.1507,0.0133-0.1953,0.064C15.9387,15.5113,15.8473,15.554,15.8113,15.582z" />
  <path fill="#008E48" d="M17.138,17.52c0.1087-0.0007,0.2527,0.0287,0.298,0.0453c-0.046-0.0373-0.1153-0.072-0.19-0.0993c0.0993,0.016,0.1247,0.0327,0.1913,0.0493c0.046,0.0133,0.0533,0.018,0.0553,0.0847c0.0007,0.0447,0.0007,0.1027,0.028,0.0093c0.0253-0.084,0.0347-0.096-0.01-0.124c-0.0473-0.0327-0.108-0.0633-0.174-0.09c0.128,0.0333,0.232,0.0747,0.294,0.1153c-0.0313-0.048-0.0813-0.1067-0.1573-0.1527c0.0747,0.0173,0.1747,0.058,0.2447,0.096c-0.0333-0.0447-0.092-0.1193-0.1627-0.1527c0.1133,0.024,0.234,0.0613,0.2993,0.098c-0.0633-0.0833-0.1353-0.1567-0.23-0.1853c0.126,0.0153,0.2453,0.0533,0.2993,0.086c-0.0733-0.07-0.15-0.144-0.2253-0.1693c0.1033,0.014,0.1993,0.0407,0.2553,0.066c-0.07-0.07-0.188-0.1293-0.2993-0.1467c0.078,0.0013,0.178,0.0087,0.2627,0.026c-0.0707-0.0453-0.192-0.076-0.2453-0.072c0.1287-0.0293,0.2733-0.0253,0.4313,0.0267c-0.0667-0.0413-0.1827-0.0887-0.2953-0.114c0.0627-0.0033,0.154-0.018,0.2127-0.01c-0.0633-0.0213-0.2193-0.0527-0.2893-0.0487c0.1267-0.0373,0.2527-0.0613,0.3287-0.0753c-0.1327-0.0087-0.282,0-0.4147,0.0213c0.1467-0.1247,0.2533-0.1247,0.3487-0.1407c0.0947-0.0167,0.166-0.0373,0.0673-0.0473c-0.064-0.006-0.116-0.0113-0.1607-0.012c0.1033-0.0313,0.234-0.0973,0.2773-0.1207c0.0433-0.0227,0.1493-0.0993,0.0353-0.048c-0.114,0.052-0.2773,0.06-0.4253,0.0767c-0.0633,0.0073-0.1093,0.0193-0.1527,0.0427c0.08-0.046,0.17-0.0947,0.264-0.14c0.094-0.0453,0.0733-0.0607,0.1553,0.0327c0.0393,0.046,0.0367,0-0.0147-0.1187c-0.0413-0.092-0.0767-0.0493-0.1667-0.014c-0.0333,0.0133-0.076,0.032-0.1253,0.0587c0.052-0.062,0.232-0.27,0.2613-0.3053c0.032-0.0353,0.0793,0.006,0.1407,0.0453c0.0587,0.04,0.0387,0.002-0.0173-0.0627c-0.0567-0.064-0.0833-0.074-0.1207-0.0427c-0.0367,0.0313-0.2167,0.1453-0.3173,0.2407c0.184-0.174,0.3973-0.3707,0.446-0.426c-0.1053,0.0567-0.2,0.12-0.2847,0.1853c0.0293-0.0413,0.0827-0.1187,0.1107-0.1513c-0.0427,0.0287-0.1013,0.0593-0.1347,0.0907c0.0493-0.088,0.1013-0.1687,0.1087-0.1827c0.0113-0.0227,0.0233-0.028,0.0407-0.0293l0.0933-0.008c0.0533-0.004,0.0327-0.0153,0.0093-0.0213c-0.148-0.0387-0.142-0.022-0.1753,0.01c-0.024,0.0247-0.0567,0.0627-0.0907,0.1067c0.0373-0.1153,0.1493-0.2227,0.1673-0.2553c-0.116,0.064-0.1773,0.114-0.2187,0.1667c0.0527-0.0853,0.2187-0.216,0.2687-0.268c-0.0513,0.0207-0.1593,0.0747-0.188,0.108c0.0273-0.0487,0.0533-0.0993,0.0773-0.1513c-0.0907,0.0573-0.156,0.134-0.208,0.2227c0.0053-0.0213,0.014-0.0533,0.0227-0.08c0.0293-0.0567,0.1093-0.1347,0.1507-0.1807c0.042-0.0453,0.0513-0.058,0.1693,0.0167c-0.0173-0.0513-0.0407-0.0873-0.0607-0.116c-0.034-0.0513-0.05-0.0293-0.0967,0.0093c-0.026,0.0207-0.05,0.05-0.0967,0.0907c0.0507-0.1307,0.11-0.2707,0.1413-0.3613c-0.0847,0.0827-0.1507,0.196-0.204,0.3233c0.004-0.0913,0.054-0.278,0.0453-0.3733c-0.04,0.05-0.0827,0.1353-0.1027,0.2347c-0.0027-0.1007-0.004-0.2253-0.0287-0.2967c0.0073,0.062-0.0567,0.204-0.0733,0.3033c-0.04-0.0947-0.084-0.186-0.1093-0.2493c0.002,0.0493,0.016,0.1633,0.0373,0.298c-0.0333-0.1033-0.154-0.2113-0.158-0.294c-0.0033,0.12,0.0833,0.3233,0.0927,0.3813c0.0013,0.0187,0.0087,0.0467,0.0153,0.0787c-0.0413-0.0667-0.14-0.1867-0.166-0.2653c0,0.0493,0.0187,0.136,0.028,0.19c-0.052-0.048-0.0887-0.02-0.1767,0.146c0.0287-0.0087,0.062-0.0453,0.0867-0.062s0.048-0.0347,0.0747,0.008c0.0333,0.0547,0.1233,0.18,0.172,0.34c-0.014-0.046-0.0973-0.154-0.1267-0.2013c0.0067,0.0227,0.0213,0.0973,0.0313,0.1407c-0.04-0.1087-0.0813-0.186-0.1113-0.23c-0.0027,0.054,0.0373,0.206,0.0433,0.27c-0.0233-0.0553-0.0493-0.104-0.07-0.1453c0.0153,0.0427,0.038,0.1947,0.0353,0.2727c-0.034-0.0613-0.0687-0.1113-0.0947-0.1487c0.0213,0.0627,0.0393,0.1867,0.0427,0.258c-0.012-0.024-0.022-0.042-0.03-0.0547c-0.0413-0.0667-0.0687,0.054-0.0933,0.116c-0.0253,0.062-0.012,0.0533,0.0167,0.0107c0.0433-0.066,0.038-0.0573,0.0633,0.0147c0.016,0.0427,0.0607,0.1447,0.0973,0.278c-0.036-0.0587-0.086-0.1367-0.1127-0.1947c-0.0273-0.058-0.0293-0.0547,0,0.0607c0.0187,0.0753,0.066,0.2153,0.0467,0.3647c-0.0267-0.0947-0.0613-0.208-0.0993-0.31c0.0053,0.0647,0.0133,0.1873,0.0133,0.2393c-0.016-0.03-0.0347-0.0547-0.0553-0.0733c0.0273,0.0873,0.034,0.2387,0.034,0.3333c-0.0147-0.06-0.0353-0.1167-0.056-0.1527c-0.002,0.0687,0.0173,0.23,0.034,0.304c-0.014-0.0573-0.036-0.1133-0.06-0.158c0.014,0.0773,0.0187,0.2047-0.004,0.2873c-0.004-0.0427-0.0167-0.0813-0.032-0.126c-0.0067,0.0387-0.016,0.1513-0.0433,0.2c0.0153-0.0713,0.0167-0.138,0.0107-0.1787c-0.0207,0.078-0.048,0.15-0.0793,0.21c0.01-0.0367,0.024-0.1067,0.028-0.176c-0.0093,0.0433-0.0387,0.0787-0.0547,0.116c0.008-0.0613,0.01-0.1127,0.0073-0.1367c-0.0313,0.104-0.076,0.1787-0.136,0.2607c0.032-0.084,0.0407-0.1733,0.0407-0.2273c-0.0533,0.094-0.058,0.134-0.1427,0.246c0.0447-0.0933,0.0367-0.172,0.0273-0.216c-0.0067,0.024-0.036,0.0933-0.0787,0.168c-0.0087-0.0527,0.0033-0.1853,0.02-0.2227c-0.0367,0.0247-0.0867,0.096-0.0867,0.1493c-0.0133-0.054-0.0347-0.102-0.0667-0.1367c0.0287,0.1853,0.018,0.3467-0.0933,0.4207c-0.248,0.1627-0.458,0.5233-0.7613,0.6573c0.0213,0.012,0.0707,0.054,0.096,0.0833c0.29-0.128,0.4853-0.4167,0.71-0.578c0.1067-0.0573,0.3513,0.0713,0.6213,0.0013c0.104-0.0267,0.3067,0.0333,0.3973,0.0707C17.366,17.5953,17.284,17.5487,17.138,17.52z" />
  <path fill="#008E48" d="M15.05,17.3327c0.05-0.0087,0.1867-0.0073,0.2953,0.0107c-0.072-0.0273-0.026-0.1987-0.1133-0.2627c0.0893,0.0413,0.1273,0.0267,0.1747,0.0347l0.0167,0.0047c-0.004-0.022,0.002-0.072,0.0207-0.0987c0.012,0.0453,0.062,0.0553,0.1053,0.0887c0.0067,0.0047,0.014,0.0113,0.022,0.0187c0.002-0.054,0.08-0.1247,0.0887-0.16c0.0167,0.048,0.0607,0.082,0.0767,0.15c0.0413,0.1747-0.0953,0.2113-0.0453,0.336c0.248,0.1627,0.4687,0.4873,0.7713,0.622c-0.0213,0.012-0.0707,0.054-0.0953,0.0833c-0.402-0.178-0.6613-0.6933-1.0293-0.7187l-0.028,0.0113c-0.0913,0.044-0.1767,0.0773-0.2573,0.06c-0.0807-0.0153-0.1533,0.0093-0.22,0.04C14.9347,17.3947,14.9873,17.3493,15.05,17.3327c-0.0527,0.0207-0.156,0.0367-0.232,0.0047c-0.0453,0.11-0.152,0.1413-0.2473,0.1533c-0.0953,0.0133-0.1653,0.0513-0.1953,0.104c-0.01-0.048-0.0053-0.132,0.0067-0.156c-0.0413-0.0053-0.0913-0.0067-0.1513,0.0033c0.0567-0.022,0.108-0.1827,0.2467-0.202c-0.026-0.0173-0.0487-0.038-0.068-0.0653c0.0327,0.0187,0.062-0.002,0.122-0.018c0.03-0.0087,0.078-0.0147,0.122-0.0133c-0.0473-0.0327-0.0827-0.0927-0.0913-0.136c-0.0427,0.1293-0.184,0.164-0.2673,0.17c-0.1,0.0067-0.1473,0.0393-0.166,0.0667c0-0.0613,0.02-0.1113,0.0427-0.1447c-0.0413,0.004-0.0793,0.0053-0.1007,0.014c0.018-0.096,0.0647-0.1527,0.114-0.184c-0.0607-0.014-0.1447-0.1207-0.1493-0.1967c0.048,0.0553,0.2447-0.002,0.3407,0.1053c-0.0607-0.052-0.0927-0.1173-0.098-0.1913c0.022,0.0293,0.0693,0.03,0.116,0.0567c-0.0647-0.2347-0.2273-0.182-0.3233-0.2567c-0.122-0.096-0.0727-0.262-0.17-0.3407c0.0427,0,0.078,0.0027,0.1067,0.01c-0.0207-0.0507-0.02-0.1507-0.018-0.2107c0.0233,0.0747,0.106,0.0647,0.158,0.1373c0.0087-0.0207,0.0133-0.0413,0.01-0.0607c0.0373,0.0447,0.072,0.0833,0.094,0.1247c-0.0067-0.0787,0.0253-0.1247,0.0493-0.146c-0.002,0.028,0.006,0.096,0.0373,0.158c0.0313,0.062,0.0433,0.1327,0.02,0.2467c-0.0213,0.108,0.0227,0.1913,0.078,0.2707c0.006-0.0473-0.0007-0.1853-0.0153-0.2287c-0.0147-0.0433-0.0213-0.116-0.0067-0.1973c0.0087,0.0333,0.0473,0.0813,0.0893,0.122c0.0107,0.0107,0.018,0.0247,0.0233,0.0413c0.0133-0.0293,0.022-0.052,0.032-0.0767c0.0133-0.0373-0.1593-0.1-0.15-0.2947c-0.116-0.0647-0.2207-0.1507-0.2493-0.306c0.0127,0.0127,0.036,0.0227,0.064,0.0333c-0.064-0.0953-0.0807-0.216-0.058-0.276c0.0153,0.05,0.066,0.0627,0.1207,0.1013c0.0133-0.1033-0.096-0.178-0.0933-0.2773c0.004-0.1573,0.0867-0.1593,0.1153-0.2573c0.0227,0.036,0.0393,0.0693,0.0513,0.1047c0.0187-0.066,0.0987-0.1153,0.1-0.1653c0.0413,0.06,0.072,0.1273,0.0493,0.1953c0.054-0.016,0.116-0.0047,0.1507,0.02c-0.1013,0.0187-0.0953,0.1407-0.162,0.172c-0.0667,0.0313-0.1913,0.1187-0.16,0.2507c0.0413,0.0453,0.08,0.118,0.102,0.2427c0.02,0.0193,0.038,0.0433,0.0507,0.0713c0.0167-0.028,0.032-0.0613,0.044-0.0987c-0.006-0.052-0.0747-0.1093-0.0933-0.16c-0.0253-0.0673,0.0347-0.17,0.0107-0.2613c0.0327,0.0127,0.0887,0.0333,0.128,0.0833c0.0307-0.072,0.09-0.1173,0.0913-0.238c0.0247,0.0473,0.0453,0.0993,0.0587,0.1507c0.0367-0.05,0.1027-0.1073,0.18-0.13c-0.048,0.0827-0.0313,0.164-0.0333,0.2327c-0.002,0.068-0.004,0.1827-0.1033,0.2587c-0.0993,0.0773-0.1253,0.098-0.1467,0.292c0.042-0.0913,0.1427-0.162,0.1467-0.2107c0.0207,0.0867,0.0373,0.1533,0.0347,0.2127c0.0333-0.0393,0.0933-0.0613,0.164-0.0647c-0.05,0.0573-0.0873,0.2833-0.22,0.31c-0.132,0.0273-0.1853,0.1613-0.2213,0.216c-0.0453,0.0687-0.0567,0.1213-0.0113,0.212c-0.002-0.0727,0.0133-0.1513,0.036-0.1973c0.044-0.088,0.1387-0.1247,0.1447-0.1867c0.0127,0.0653,0.0193,0.1173,0.0167,0.1607c0.0667-0.1347,0.2073-0.096,0.2467-0.1353c-0.0273,0.0353-0.0553,0.0847-0.0687,0.158c-0.012,0.072-0.068,0.14-0.1467,0.178c-0.0613,0.0293-0.1147,0.034-0.1467,0.0973c-0.008,0.0373,0.024,0.0687,0.024,0.1253c0.0033-0.0207,0.0093-0.04,0.0187-0.0533c0.038-0.0547,0.0627-0.096,0.0627-0.1267c0.0833,0.0827,0.1013,0.164,0.0747,0.2507c-0.0267,0.088-0.0467,0.1587,0.0073,0.228c0.032,0.0273,0.0693,0.0473,0.104,0.058c0.044-0.044-0.0073-0.0973-0.0573-0.1493c-0.05-0.0513-0.0453-0.1733-0.004-0.2233c0.0413-0.0513,0.0773-0.104,0.0747-0.1493c0.0307,0.0267,0.064,0.0753,0.074,0.102c0.016-0.04,0.0393-0.0753,0.0707-0.0947c0.0067,0.0727,0.054,0.106,0.054,0.1847c0.0213-0.0473,0.056-0.0887,0.104-0.104c-0.0107,0.04,0.026,0.1007,0.0313,0.1387c0.004,0.03,0,0.064-0.0147,0.1013c-0.0147,0.0393-0.0407,0.0793-0.1013,0.11c-0.0193,0.0093-0.0493,0.0187-0.0793,0.0327c0.0707-0.0093,0.1993,0.014,0.2287,0.0667C15.22,17.268,15.106,17.31,15.05,17.3327z" />
  <path fill="#CF0828" d="M16.2847,17.786c0.0547,0.0067,0.1173,0.016,0.1587,0.0367c-0.006,0.0273-0.0193,0.1273-0.0193,0.15c-0.0313-0.0207-0.0973-0.0427-0.1387-0.0467v-0.14H16.2847z M15.748,17.786c-0.0547,0.0067-0.1167,0.016-0.1587,0.0367c0.0067,0.0273,0.02,0.1273,0.02,0.15c0.0307-0.0207,0.0973-0.0427,0.138-0.0467v-0.14H15.748z" />
  <path fill="#CF0828" d="M16.08,17.7913c-0.0133-0.012-0.0327-0.0173-0.0653-0.0173c-0.032,0-0.0513,0.006-0.0647,0.0173c-0.1307-0.0447-0.2153-0.0253-0.2153,0.0153v0.1253c0,0.0213,0.048,0.048,0.2247,0.0053c0.0133,0.008,0.0273,0.0147,0.0553,0.0147c0.0287,0,0.0447-0.0067,0.058-0.016v0.0007c0.1773,0.0433,0.2253,0.016,0.2253-0.0053V17.806C16.298,17.7647,16.2127,17.7447,16.08,17.7913z M16.0147,17.6567c0.378,0,0.682,0.0227,0.924,0.0747c-0.0293,0.0227-0.0553,0.0527-0.0747,0.0673c-0.022,0.0187-0.014,0.0707,0.036,0.1153c0.05,0.0427,0.1713,0.0807,0.292,0.028l0.0693-0.0307c-0.034,0.0287-0.062,0.0667-0.0467,0.102c0.0713,0.1593,0.346-0.05,0.51,0.1507c0.044-0.056,0.154-0.1727,0.1993-0.216c-0.0933-0.1133-0.2233-0.0947-0.3307-0.086c0.0393-0.0647,0.0433-0.114-0.0427-0.1753c-0.0347-0.0253-0.1553-0.0213-0.266,0.0287c0.02-0.052,0.0167-0.1373-0.1547-0.2127c-0.2613-0.1173-0.7047-0.1413-1.1147-0.1413c-0.4107,0-0.8547,0.024-1.116,0.1413c-0.1713,0.0753-0.1753,0.1607-0.154,0.2127c-0.112-0.05-0.2313-0.054-0.2673-0.0287c-0.0853,0.0613-0.0807,0.1107-0.0413,0.1753c-0.108-0.0087-0.238-0.0273-0.3313,0.086c0.0453,0.044,0.156,0.16,0.1987,0.216c0.164-0.2013,0.4393,0.0087,0.51-0.1507c0.016-0.036-0.012-0.0733-0.0453-0.102l0.0687,0.0307c0.1207,0.0527,0.2427,0.0147,0.292-0.028c0.05-0.0447,0.058-0.0967,0.036-0.1153c-0.02-0.0147-0.0447-0.0447-0.0753-0.0673C15.332,17.68,15.636,17.6567,16.0147,17.6567z" />
</svg>