<svg width="32" height="32" viewBox="0 0 32 32" xmlns="http://www.w3.org/2000/svg">
  <polygon fill="#CF0828" points="11.5,6 20.5,6 21.5,7 21.5,25 20.5,26 11.5,26 10.5,25 10.5,7" />
  <rect fill="#1c1c1c" x="2" y="6" width="9.5" height="20" />
  <rect fill="#01773f" x="20.5" y="6" width="9.5" height="20" />
  <path fill="#FF5E59" d="M12.225 11.642l-.663-.663C12.748 9.793 14.324 9.14 16 9.14s3.252.653 4.438 1.838l-.664.663c-1.008-1.008-2.348-1.564-3.774-1.564s-2.767.556-3.775 1.564z" />
  <path fill="#f4f4f4" d="M13.373 18.852l-.005-.474h5.091l.02.484-5.105-.01zm5.107-4.69l-.428-.053v-1.001c0-.022-.007-.043-.013-.064h.02a.12.12 0 000-.239h-.53a.12.12 0 000 .24h.02c-.005.02-.012.04-.012.063v.938l-.196-.024-.388-.418a.695.695 0 00.125-.386c0-.465-.481-.842-1.075-.842s-1.075.377-1.075.842c0 .138.047.268.123.384l-.39.42-.197.024v-.937c0-.023-.008-.043-.013-.064h.02a.12.12 0 000-.239h-.529a.12.12 0 00-.12.12c0 .065.054.119.12.119h.02c-.005.02-.012.041-.012.064v1.001l-.427.052.354.53h.055v.734h.548v-.733h3.04v.733h.548v-.733h.057l.355-.53zm-.686-1.443c.203 0 .366-.087.366-.194 0-.059-.052-.11-.13-.146l-.237-.34-.236.34c-.078.035-.13.086-.13.145.001.108.165.195.367.195zm-1.835-.445c.21 0 .38-.105.38-.234 0-.069-.05-.129-.127-.172l-.253-.364-.254.364c-.076.043-.127.104-.127.172 0 .129.17.234.38.234zm-1.753.445c.203 0 .366-.087.366-.194 0-.059-.052-.11-.13-.146l-.236-.34-.236.34c-.078.035-.13.086-.13.145 0 .108.164.195.366.195zm4.223 5.43l-.36-.39v-.683h-.549v.655h-.22l-1.413-1.957-1.079-.058-.055 1.669 1.417.014.666.332v.418h1.593zm-3.95-1.073h-.547v.715l-.331.358h1.592v-.418h-.713v-.655zm-1.477-2.697l-.169.147s-.726.53-.485 1.041c-.135.188-.44.565-.206.948.235.382.459.723.312 1.082.441-.23.641-.653.505-1.13-.113-.4.448-.705.633-.795l.34.512v.47h.548v-.808h-.475l-1.004-1.467zm6.65 1.189c.241-.511-.485-1.041-.485-1.041l-.168-.147-1.004 1.467h-.475v.808h.549v-.47l.339-.512c.184.088.746.395.633.795-.135.476.064.9.505 1.13-.147-.359.077-.7.312-1.083.235-.382-.071-.759-.206-.947zM18.78 22.064a.261.261 0 01-.26.261c-.145 0-.967-.117-.967-.26s.822-.262.966-.262a.26.26 0 01.261.261zm.938.02c.735-.137.764-.535.764-.535s-.4.255-.87.16-.895-.078-.895-.078.448.496.071.743c-.166.11-.627.063-.828.019-.201-.044-.634-.125-.729-.125a.261.261 0 000 .522c.096 0 .524-.08.747-.13.222-.051.378-.075.546-.11.2-.04.618.012 1.141.054.524.04.906-.2 1.082-.412-.37.118-.859-.023-1.03-.108zm-1.953-1.16s-.9.265-1.765.247c-.865.018-1.765-.247-1.765-.247l-.83.795s.319-.097.848.14c.495.223 1.068.457 1.746.457s1.253-.234 1.747-.456c.53-.239.847-.141.847-.141l-.828-.795zm-4.546 1.14c0 .144.117.261.261.261.144 0 .967-.117.967-.26s-.823-.262-.967-.262a.261.261 0 00-.261.261zm-.937.02c-.735-.137-.764-.535-.764-.535s.4.255.87.16.895-.078.895-.078-.448.496-.072.743c.167.11.628.063.83.019.2-.044.633-.125.727-.125a.261.261 0 010 .522c-.096 0-.523-.08-.746-.13s-.379-.075-.546-.11c-.2-.04-.618.012-1.141.054-.524.04-.906-.2-1.083-.412.371.118.86-.023 1.03-.108zm5.394-2.276c-.147.036-.33.219-.501.474a.476.476 0 00-.474-.446.486.486 0 00-.171.035.34.34 0 00-.279-.15.345.345 0 00-.234.094.345.345 0 00-.234-.094.342.342 0 00-.278.15.467.467 0 00-.172-.035.48.48 0 00-.478.473c-.177-.269-.366-.464-.519-.5-.25-.062-.445-.327-.613-.446 0 0 .016.455.468.78.3.217.22.716.22.716s.547.136.795.163c-.038-.11-.086-.21-.133-.312.044.03.09.05.143.064l.14.26s.32.03.66.03.663-.03.663-.03l.14-.26a.49.49 0 00.112-.043c-.044.095-.089.19-.124.292.247-.026.794-.164.794-.164s-.08-.499.22-.715c.452-.325.469-.78.469-.78-.168.117-.363.382-.614.444zM21.622 19.838s-.537-.006-.996-.316-1.4-.88-2.151-.141c0 0 .525-.089.92.24.394.328 1.005.712 1.52.67a.872.872 0 00.707-.453zm1.626-3.68c.029-.071-.642.43-1.1.374-.459-.056-1.34-.182-1.52.16-.18.341-.342.695-.342.695s.306-.177.701-.18c.397-.002 1.23-.04 1.558-.15.33-.11.586-.617.703-.899zm-.634-2.215c-.008-.15-.305-.087-.367-.21-.06-.124.167-.387.04-.477-.125-.089-.764.483-1.12.867-.355.384-.454.997-.339 1.177.113.18.04.016.04.016s.226-.446.586-.629c.361-.181 1.16-.744 1.16-.744zm-12.236 5.895s.537-.006.996-.316c.46-.31 1.4-.88 2.151-.141 0 0-.525-.089-.92.24-.394.328-1.005.712-1.52.67-.513-.042-.707-.453-.707-.453zm-1.626-3.68c-.029-.071.642.43 1.1.374.459-.056 1.34-.182 1.52.16.18.341.341.695.341.695s-.305-.177-.7-.18c-.397-.002-1.23-.04-1.558-.15-.328-.11-.586-.617-.703-.899zm.634-2.215c.008-.15.305-.087.367-.21s-.167-.387-.04-.477c.125-.089.764.483 1.12.867.355.384.454.997.339 1.177-.113.18-.04.016-.04.016s-.226-.446-.586-.629c-.361-.181-1.16-.744-1.16-.744z" />
  <path fill="#f4f4f4" d="M19.063 20.338c-.024.06-.106.113-.17.088-.065-.026-.088-.121-.064-.181.024-.06.208-.24.228-.232.02.008.03.265.006.325zm.045.056c-.063.01-.134.078-.123.147.012.069.099.112.163.101.064-.01.28-.15.276-.17-.004-.02-.252-.088-.316-.078zm.264-.3c-.022.055-.098.104-.157.081-.06-.023-.081-.112-.059-.168.023-.056.193-.222.211-.215.018.007.027.246.005.301zm.042.052c-.059.01-.124.073-.114.137s.092.103.151.093c.06-.01.259-.14.256-.159s-.233-.08-.293-.071zm-1.373.403c-.014.077-.097.16-.18.144-.082-.015-.131-.121-.118-.198.015-.076.189-.331.213-.327.025.005.099.305.085.381zm.067.056c-.073.027-.14.124-.11.203.029.078.142.108.216.08.073-.027.293-.243.284-.267-.01-.023-.317-.043-.39-.016zm.199-.362c-.012.064-.081.132-.15.12-.068-.012-.11-.101-.097-.165.011-.064.157-.276.177-.272s.082.253.07.317zm.055.046c-.06.023-.115.104-.091.168.024.065.118.09.179.068.06-.023.244-.203.236-.223-.007-.019-.263-.035-.324-.013zm.2-.346c-.01.06-.075.122-.14.11-.062-.01-.1-.093-.09-.152.01-.06.146-.256.164-.253.02.004.076.236.066.295zm.051.042c-.056.021-.107.096-.084.156.022.06.11.084.166.063.056-.021.226-.188.22-.206s-.245-.034-.302-.013zm.17-.301c-.01.053-.07.111-.126.1-.057-.01-.092-.084-.082-.137s.131-.232.149-.228c.016.002.068.212.058.265zm.046.039c-.051.019-.098.086-.077.141.02.055.1.075.15.056.052-.019.206-.17.2-.187-.006-.016-.222-.029-.273-.01zm-.073 1.316c-.057.053-.173.068-.23.007-.057-.061-.032-.176.024-.229.057-.052.35-.151.367-.133.017.018-.104.303-.161.355zm.02.085c-.076-.022-.187.016-.21.095-.024.08.05.172.124.195.075.021.381-.02.388-.043.007-.023-.228-.224-.303-.247zm.377-.17c-.048.045-.144.057-.192.006-.047-.05-.027-.146.021-.19.048-.044.291-.126.306-.111.013.015-.088.251-.135.296zm.016.071c-.062-.019-.154.013-.174.08-.02.066.04.143.103.16.062.02.316-.015.322-.035.006-.02-.19-.187-.25-.205zm.368-.157c-.045.04-.134.052-.178.005-.044-.048-.025-.136.02-.177.044-.04.27-.117.282-.102.014.013-.08.232-.124.273zm.015.065c-.057-.017-.143.012-.162.073-.018.062.039.133.096.15.057.018.294-.014.299-.033.005-.018-.176-.173-.233-.19zm.316-.14c-.04.037-.12.048-.16.005-.04-.042-.023-.123.017-.16.04-.036.244-.105.256-.092.012.012-.073.21-.113.247zm.014.06c-.051-.016-.13.01-.146.066-.016.056.035.12.086.136.052.016.266-.013.271-.03.005-.016-.159-.157-.21-.172zm.258-2.079c.01.077-.046.181-.13.19-.082.01-.16-.076-.17-.154s.081-.372.106-.375c.025-.003.184.262.194.34zm.08.033c-.062.048-.096.16-.045.226.05.066.168.06.23.014.062-.048.208-.32.193-.34-.017-.02-.317.053-.378.1zm.082-.405c.008.065-.038.15-.107.16-.069.007-.134-.064-.142-.129-.008-.065.068-.31.088-.313.021-.002.154.218.161.282zm.067.028c-.05.04-.08.133-.037.188.042.054.14.05.19.01.052-.04.173-.266.16-.282-.011-.016-.261.045-.313.084zm.088-.39c.007.06-.035.14-.1.147-.064.007-.124-.06-.132-.12-.007-.059.063-.287.082-.289.02-.002.142.202.15.262zm.062.026c-.047.036-.074.123-.034.174s.13.047.177.01c.047-.037.16-.247.148-.262-.012-.015-.244.04-.29.078zm.071-.338c.007.054-.032.126-.09.134-.057.006-.112-.054-.119-.108-.007-.054.057-.26.074-.262.018-.003.13.182.135.236zm.057.023c-.043.033-.067.112-.032.158s.118.043.16.009c.043-.033.145-.224.135-.237s-.22.037-.263.07zm.32 1.279c-.038.068-.145.117-.217.075s-.082-.159-.044-.226c.039-.067.29-.249.31-.236.021.013-.01.32-.048.387zm.044.075c-.078 0-.173.07-.172.153s.099.15.176.148c.078 0 .358-.13.358-.156 0-.023-.284-.146-.362-.145zm.31-.274c-.032.057-.12.097-.18.063s-.07-.132-.038-.189.241-.207.26-.196c.017.01-.01.266-.042.322zm.037.063c-.065 0-.144.058-.144.127s.082.124.147.124.297-.109.297-.13c0-.02-.236-.122-.3-.122zm.304-.26c-.03.052-.112.09-.168.058-.055-.032-.064-.122-.034-.174.03-.052.223-.192.24-.182.018.01-.008.246-.038.298zm.035.058c-.06 0-.134.054-.133.118s.076.116.136.115c.06 0 .276-.101.276-.12 0-.019-.22-.114-.28-.113zm.26-.227c-.027.048-.101.082-.152.053-.05-.03-.058-.111-.031-.158.027-.046.202-.173.217-.165.015.008-.007.223-.034.27zm.03.053c-.053 0-.12.049-.12.107.001.059.069.104.124.103.054 0 .25-.091.25-.108 0-.018-.199-.103-.253-.102zm-.788-.416c-.001.078-.072.172-.155.17s-.148-.1-.147-.177c.002-.077.134-.357.16-.357.025 0 .145.285.142.364zm.075.044c-.067.039-.118.144-.077.217s.158.085.226.047.251-.287.24-.309-.321.007-.389.046zm.14-.389c0 .065-.059.143-.128.142s-.124-.083-.123-.148c.002-.064.112-.297.133-.296.02 0 .12.238.119.302zm.062.038c-.056.031-.098.12-.064.18.033.061.13.071.187.039.056-.032.21-.239.199-.257-.01-.019-.265.005-.322.038zm.143-.375c-.001.06-.055.133-.119.132-.064-.002-.115-.077-.113-.137.001-.06.103-.275.123-.275.019 0 .11.22.11.28zm.058.035c-.052.03-.091.111-.06.167.033.056.122.065.175.035s.194-.22.184-.237c-.01-.017-.247.006-.299.035zm-.634-1.281c.031.072.006.187-.07.219s-.177-.03-.208-.101c-.03-.072-.025-.381-.001-.391.023-.009.25.202.28.273zm.087.01c-.046.063-.048.18.018.23.068.05.179.012.225-.051.045-.063.11-.364.091-.38s-.288.139-.334.201zm-.033-.412c.026.06.005.155-.059.182s-.147-.025-.172-.084c-.024-.059-.02-.316-.001-.324.02-.009.208.167.232.226zm.072.008c-.038.053-.04.15.016.191.056.042.149.01.187-.042.038-.052.092-.303.076-.315-.017-.012-.24.114-.279.166zm-.023-.399c.023.056.005.144-.055.169-.059.025-.136-.023-.16-.078-.023-.056-.018-.293 0-.3.017-.008.192.154.215.21zm.067.008c-.035.049-.038.139.014.177.052.038.138.009.173-.04.036-.048.086-.28.07-.292-.015-.012-.222.107-.257.155zm-.025-.345c.021.05.004.13-.05.153-.053.022-.122-.02-.144-.07-.021-.051-.017-.266 0-.273.016-.007.173.14.194.19zm.06.007c-.031.044-.033.126.014.16.048.035.125.01.157-.035.032-.043.078-.254.064-.264-.014-.012-.202.095-.234.14zm.662 1.141c-.02.076-.108.152-.189.132s-.123-.13-.104-.205c.019-.076.21-.32.233-.313s.078.31.06.386zm.063.06c-.075.022-.147.115-.123.195.024.08.135.117.21.095.074-.023.308-.226.3-.249-.006-.024-.312-.063-.387-.041zm.222-.349c-.015.063-.089.127-.156.11-.068-.016-.103-.108-.087-.17.015-.063.174-.266.194-.26.02.005.064.257.05.32zm.052.05c-.062.019-.122.095-.102.162.02.067.113.097.175.079.062-.02.256-.187.25-.207-.006-.02-.26-.052-.323-.034zm.221-.333c-.014.058-.083.118-.145.102s-.095-.1-.081-.158c.014-.059.161-.247.18-.242.019.005.061.24.046.298zm.05.046c-.059.018-.114.089-.095.15.018.062.104.09.162.073.057-.017.237-.173.232-.192-.006-.018-.242-.049-.3-.03zm.187-.29c-.013.052-.075.106-.13.092-.057-.014-.087-.09-.074-.143s.147-.223.163-.218c.017.004.054.216.041.269zm.045.042c-.052.016-.103.08-.086.136.017.055.095.081.146.066s.216-.157.21-.174c-.005-.017-.219-.044-.27-.028zm-.873-.182c.02.075-.021.185-.102.206-.081.021-.17-.055-.19-.13-.02-.075.03-.38.054-.386.024-.006.218.234.238.31zm.084.021c-.055.056-.074.172-.015.23s.175.037.23-.018c.055-.056.163-.345.145-.362-.018-.018-.306.096-.36.15zm.027-.412c.017.063-.018.154-.084.172-.067.017-.142-.045-.159-.108-.016-.063.026-.317.046-.322.02-.005.18.196.197.258zm.07.019c-.046.046-.061.142-.012.19.05.05.146.032.191-.014s.135-.287.121-.302c-.014-.014-.254.08-.3.126zm.035-.399c.015.058-.017.144-.08.16-.062.016-.13-.042-.146-.101-.015-.058.024-.293.042-.298.019-.005.168.181.184.24zm.064.018c-.042.042-.057.132-.011.177.046.045.135.029.177-.014s.125-.266.112-.28c-.014-.013-.236.074-.278.117zm-1.002-.856c.068.026.127.118.098.19-.028.072-.134.097-.2.071-.068-.026-.269-.231-.26-.253.009-.021.295-.034.362-.008zm.063-.051c.011.071.088.15.164.137.077-.013.124-.11.113-.182-.011-.071-.169-.31-.192-.307-.023.004-.097.28-.085.352zm-.294-.246c.056.022.106.098.082.158-.023.06-.112.08-.167.059-.056-.022-.223-.192-.216-.21.007-.018.246-.03.301-.007zm.053-.042c.01.06.072.124.136.113s.103-.091.094-.15c-.01-.06-.14-.259-.16-.256-.02.004-.08.234-.07.293zm-.28-.245c.052.02.098.091.076.147-.023.055-.104.075-.156.055s-.206-.179-.2-.195.228-.027.28-.007zm.049-.038c.009.054.067.114.126.104.06-.01.096-.084.087-.14-.009-.054-.13-.239-.147-.237-.02.004-.075.218-.066.273zm-.244-.208c.046.018.088.081.069.132-.02.05-.094.068-.14.05-.047-.02-.187-.162-.181-.177.006-.015.205-.024.252-.005zm.043-.036c.009.05.062.105.115.096s.086-.077.079-.127c-.008-.05-.118-.217-.134-.214-.016.002-.067.196-.06.245zm1.185.304c.037.062.03.17-.036.211-.066.04-.165-.003-.203-.064-.037-.062-.075-.346-.055-.358s.255.15.294.211zm.08-.002c-.034.064-.02.172.049.208.068.036.165-.014.198-.077.034-.064.052-.35.032-.361-.02-.011-.245.165-.28.23zm-.086-.373c.031.05.025.141-.03.175-.054.034-.138-.002-.17-.053s-.061-.288-.045-.298c.017-.01.213.124.245.176zm.067-.003c-.028.054-.016.143.04.173.058.03.138-.012.166-.065.028-.053.043-.29.027-.3-.018-.009-.205.139-.233.192zm-.077-.363c.03.047.024.131-.027.163-.051.032-.128-.002-.157-.05-.03-.047-.058-.266-.043-.275.015-.01.198.114.227.162zm.062-.002c-.026.05-.015.133.038.16.052.028.127-.01.153-.06.027-.049.04-.27.024-.278-.015-.008-.189.129-.215.178zm-.07-.313c.027.043.022.119-.024.147-.046.029-.116-.001-.142-.045-.026-.043-.053-.241-.038-.25.013-.008.178.105.204.148zm.057-.001c-.024.044-.014.12.034.144.048.025.116-.01.139-.054.023-.044.036-.243.022-.25-.015-.008-.171.115-.195.16zm-.687.458c.063.036.108.134.07.202-.038.066-.147.077-.21.041-.062-.036-.23-.267-.219-.287.01-.02.296.008.359.044zm.069-.041c.001.072.065.16.142.159.077-.002.139-.092.137-.164-.001-.072-.122-.331-.145-.331-.023 0-.135.264-.134.336zm-.255-.286c.051.03.09.112.058.168-.031.055-.121.064-.174.034-.052-.03-.193-.222-.183-.24.01-.016.247.008.299.038zm.057-.034c.001.06.054.133.119.131.064 0 .115-.075.114-.135 0-.06-.102-.276-.12-.276-.02 0-.113.22-.113.28zm-.241-.282c.048.028.084.104.054.155-.03.052-.113.06-.161.033-.048-.028-.179-.207-.17-.222.01-.016.229.007.277.034zm.054-.032c0 .056.05.124.11.122.06 0 .107-.07.106-.126s-.095-.255-.113-.255-.104.204-.103.259zm-7.823 8.547c.024.06.106.113.17.088.065-.026.088-.121.064-.181-.024-.06-.208-.24-.228-.232-.02.008-.03.265-.006.325zm-.045.056c.064.01.135.078.123.147-.01.068-.098.112-.162.101-.065-.01-.28-.15-.276-.17.003-.02.252-.088.315-.078zm-.264-.3c.023.055.099.104.158.081.06-.023.08-.112.058-.168-.022-.056-.192-.222-.21-.215-.018.007-.028.246-.006.301zm-.042.052c.06.01.125.073.114.137s-.091.103-.15.093c-.06-.01-.26-.14-.256-.159.003-.02.233-.08.292-.071zm1.374.403c.014.077.097.16.18.144.081-.015.13-.121.117-.198-.014-.076-.188-.331-.213-.327s-.099.305-.084.381zm-.067.056c.073.027.14.124.11.203-.03.078-.142.108-.216.08-.073-.027-.293-.243-.284-.267.008-.023.317-.043.39-.016zm-.2-.362c.012.064.081.132.15.12.068-.013.11-.101.097-.165-.011-.064-.156-.276-.177-.272-.02.003-.08.253-.07.317zm-.055.046c.06.023.115.104.091.168-.024.065-.118.09-.179.068-.06-.023-.244-.204-.236-.223.007-.019.263-.035.324-.013zm-.2-.346c.01.059.075.122.14.11.062-.01.1-.093.09-.152-.01-.06-.145-.256-.164-.253-.02.004-.076.236-.066.295zm-.05.042c.056.021.107.096.084.156-.022.06-.11.084-.166.063-.057-.021-.226-.188-.22-.207.007-.017.245-.032.301-.012zm-.17-.301c.01.053.069.111.126.1s.091-.084.082-.137c-.01-.054-.132-.232-.149-.228-.017.002-.068.212-.058.265zm-.047.039c.051.019.098.086.077.141-.02.055-.1.075-.15.056-.052-.018-.206-.17-.2-.187.008-.015.223-.029.273-.01zm.074 1.316c.057.053.173.068.23.007.057-.061.032-.176-.025-.229s-.35-.151-.366-.133c-.018.018.103.303.16.355zm-.02.085c.075-.022.186.016.209.095.024.08-.05.172-.124.195-.075.021-.38-.02-.388-.043-.006-.024.228-.224.303-.247zm-.377-.17c.047.045.144.057.191.006s.027-.146-.02-.19c-.048-.044-.292-.126-.306-.111-.014.015.087.251.135.296zm-.016.071c.062-.019.154.013.174.08.02.066-.04.143-.103.16-.062.02-.317-.015-.323-.035-.006-.02.19-.187.252-.205zm-.369-.157c.045.04.134.052.178.005.044-.048.025-.136-.02-.177-.044-.04-.27-.117-.282-.102-.014.013.08.232.124.273zm-.015.065c.058-.017.144.012.162.073.018.062-.038.133-.095.15-.058.018-.294-.014-.3-.033s.176-.173.233-.19zm-.316-.14c.04.037.12.048.16.005s.023-.123-.017-.16c-.04-.036-.244-.105-.256-.092-.012.012.073.21.113.247zm-.014.06c.052-.016.13.01.147.066.016.056-.035.12-.087.136-.052.016-.265-.013-.27-.03-.006-.016.158-.157.21-.172zm-.257-2.079c-.01.077.046.181.13.19.082.01.16-.076.17-.154.01-.077-.082-.372-.106-.375-.025-.003-.185.262-.194.34zm-.08.033c.061.048.096.16.045.226-.051.066-.168.06-.23.013s-.208-.32-.193-.34c.016-.019.316.054.378.101zm-.083-.405c-.008.065.038.15.107.16.069.008.134-.064.142-.129.008-.064-.068-.31-.088-.313-.021-.002-.153.218-.161.282zm-.067.028c.05.04.08.133.037.188-.042.054-.14.05-.19.01-.052-.039-.173-.266-.16-.282.012-.016.262.045.313.084zm-.088-.39c-.007.06.035.14.1.147.064.007.124-.06.132-.12.007-.058-.063-.287-.082-.289-.019-.002-.142.202-.15.262zm-.061.026c.047.036.074.123.034.174-.039.05-.13.047-.177.01-.047-.037-.16-.247-.148-.262.012-.015.243.04.29.078zm-.072-.338c-.007.054.032.126.09.134.057.006.112-.054.119-.108.007-.054-.057-.26-.074-.262-.018-.003-.129.182-.135.236zm-.057.023c.043.033.067.112.032.158s-.118.042-.16.009c-.043-.033-.145-.224-.135-.237s.22.037.263.07zm-.32 1.279c.04.068.146.117.218.075.072-.042.082-.159.044-.226-.038-.067-.29-.249-.31-.236-.022.013.01.32.048.387zm-.044.075c.078 0 .173.07.172.153-.002.083-.099.15-.176.148-.078 0-.358-.13-.358-.156 0-.023.284-.146.362-.145zm-.31-.274c.032.056.12.097.18.062.06-.034.07-.132.037-.188-.032-.056-.24-.207-.258-.196-.017.01.009.266.041.322zm-.037.063c.065 0 .144.058.144.127-.001.07-.082.124-.146.124-.065 0-.298-.109-.298-.13 0-.02.236-.122.3-.122zm-.304-.26c.03.052.112.09.168.058.055-.032.064-.122.034-.174s-.223-.192-.24-.182.008.246.038.298zm-.034.058c.06 0 .134.054.133.118 0 .065-.076.116-.136.115-.06 0-.276-.101-.276-.12s.22-.114.28-.113zm-.26-.227c.026.047.1.082.151.053.05-.03.058-.111.031-.158-.027-.046-.202-.173-.217-.165-.015.008.007.223.034.27zm-.032.053c.054 0 .121.048.12.107 0 .058-.068.104-.123.103-.054 0-.25-.091-.25-.108.001-.018.2-.103.253-.102zm.789-.416c.001.078.072.172.155.17.083-.002.148-.1.147-.177-.002-.077-.134-.357-.16-.356-.025 0-.144.284-.142.363zm-.075.044c.068.039.119.144.078.217s-.158.085-.226.047c-.068-.038-.251-.287-.24-.308.013-.023.32.006.388.044zm-.14-.389c.002.065.06.143.13.142.069-.002.123-.083.121-.148-.001-.064-.111-.297-.132-.296s-.12.238-.119.302zm-.062.038c.056.031.098.12.064.18-.033.061-.13.07-.187.039-.056-.033-.21-.239-.199-.257.01-.019.266.005.322.038zm-.143-.375c.002.06.056.133.12.132.064-.002.114-.077.113-.137-.002-.06-.103-.275-.123-.275-.019 0-.111.22-.11.28zm-.057.035c.052.03.091.111.059.167s-.122.065-.174.035c-.053-.029-.194-.22-.185-.237.01-.017.247.006.3.035zm.633-1.281c-.031.072-.006.187.07.219s.177-.03.208-.101.025-.381.001-.391c-.023-.009-.249.202-.28.273zm-.087.01c.046.063.048.18-.018.23-.068.05-.179.012-.225-.051-.046-.063-.111-.364-.092-.38.02-.014.29.139.335.201zm.033-.412c-.026.06-.005.155.059.182.064.027.147-.025.172-.084.024-.059.02-.316.001-.324-.019-.009-.207.167-.232.226zm-.072.008c.038.053.04.15-.016.191s-.149.01-.187-.042c-.038-.052-.092-.303-.076-.315.017-.013.24.114.279.166zm.024-.399c-.024.056-.005.144.054.169s.137-.023.16-.078c.023-.056.019-.293 0-.3-.016-.008-.191.154-.214.21zm-.067.008c.035.049.037.139-.014.177-.052.038-.138.009-.174-.04-.035-.048-.085-.28-.07-.292.015-.012.222.107.258.155zm.024-.345c-.021.05-.004.13.05.153.053.022.122-.02.144-.07.021-.051.017-.266 0-.273-.015-.007-.173.14-.194.19zm-.06.007c.031.044.033.126-.014.16-.048.035-.125.009-.157-.035-.032-.043-.078-.254-.064-.264.015-.012.203.095.234.14zm-.662 1.141c.02.076.108.152.189.132.08-.02.123-.13.104-.205-.019-.076-.21-.32-.233-.313-.024.006-.078.31-.06.386zm-.063.06c.075.022.147.115.123.195-.024.08-.135.117-.21.095-.074-.023-.308-.226-.3-.249.006-.024.313-.063.387-.041zm-.222-.349c.016.063.09.127.157.11.068-.016.103-.108.087-.17-.016-.064-.174-.266-.194-.26s-.065.257-.05.32zm-.052.05c.062.018.122.095.102.162-.02.067-.113.097-.175.079s-.256-.187-.25-.207c.006-.02.26-.052.323-.034zm-.221-.333c.014.058.083.117.145.102s.095-.1.081-.158c-.014-.059-.161-.247-.18-.242-.019.005-.06.24-.046.298zm-.05.046c.059.017.114.089.095.15-.018.062-.104.09-.162.073-.057-.017-.237-.173-.232-.192.006-.018.242-.049.3-.03zm-.187-.29c.014.052.075.106.132.092.056-.014.086-.09.073-.143-.014-.053-.147-.223-.163-.218-.018.004-.055.216-.042.269zm-.044.042c.052.016.103.08.086.136-.017.055-.095.081-.147.066-.051-.016-.215-.157-.21-.174.005-.017.219-.044.271-.028zm.872-.182c-.02.075.021.185.102.206.081.021.17-.055.19-.13.02-.075-.03-.38-.054-.386-.024-.007-.217.234-.238.31zm-.084.021c.055.056.074.172.015.23s-.175.037-.23-.018c-.055-.056-.163-.345-.145-.362.018-.018.306.096.36.15zm-.027-.412c-.016.063.018.154.085.172.067.017.142-.045.158-.108.017-.063-.025-.317-.045-.322s-.182.196-.198.258zm-.07.019c.046.046.061.142.012.19-.05.05-.146.032-.191-.014s-.135-.287-.121-.302c.014-.014.255.08.3.126zm-.034-.399c-.015.058.017.144.079.16.062.016.131-.042.147-.101.015-.058-.024-.293-.042-.298-.02-.005-.169.181-.184.24zm-.065.018c.042.042.057.132.011.177-.046.045-.135.029-.177-.014s-.125-.266-.112-.28c.014-.013.236.074.278.117zm1.003-.856c-.068.026-.127.118-.099.19.029.072.135.097.201.071.067-.026.268-.231.26-.253-.01-.021-.296-.034-.362-.008zm-.063-.051c-.012.071-.088.15-.165.137-.076-.013-.123-.11-.112-.182s.169-.31.192-.307c.022.004.096.28.085.352zm.293-.246c-.056.022-.106.098-.082.158.023.06.112.08.167.059s.223-.192.216-.21c-.007-.018-.245-.03-.301-.007zm-.052-.042c-.01.06-.073.124-.136.113s-.103-.091-.094-.15c.01-.06.14-.259.16-.256.018.004.08.234.07.293zm.28-.245c-.053.02-.1.091-.077.147.023.055.104.075.156.055s.206-.179.2-.195c-.007-.017-.228-.027-.28-.007zm-.049-.038c-.009.054-.067.114-.127.104-.059-.01-.095-.084-.087-.14.01-.054.13-.239.148-.237.018.004.075.218.066.273zm.244-.208c-.047.018-.089.081-.07.132.02.05.095.068.141.05.047-.02.187-.162.18-.177-.005-.015-.205-.024-.251-.005zm-.044-.036c-.009.05-.062.105-.115.096-.053-.01-.086-.077-.079-.127.008-.05.118-.217.134-.214.017.002.068.196.06.245zm-1.184.304c-.037.062-.03.17.035.211.066.04.166-.003.204-.064.037-.062.075-.346.054-.358-.02-.012-.255.15-.293.211zm-.08-.002c.033.064.019.172-.05.208s-.165-.014-.198-.077c-.034-.064-.052-.35-.032-.361.02-.011.245.165.28.23zm.085-.373c-.031.05-.025.141.03.175.054.034.138-.002.17-.053s.061-.288.045-.298-.213.124-.245.176zm-.066-.003c.027.054.016.143-.04.173-.058.03-.138-.012-.167-.065-.027-.053-.042-.29-.026-.3.017-.009.205.139.233.192zm.076-.363c-.03.047-.024.131.027.163.051.032.128-.002.157-.05.03-.047.057-.266.043-.275-.015-.01-.198.114-.227.162zm-.062-.002c.026.05.015.133-.038.16-.052.028-.127-.01-.153-.06-.027-.049-.04-.27-.024-.278.015-.008.19.129.215.178zm.07-.313c-.027.043-.022.119.024.147.047.029.116-.001.142-.045.026-.043.053-.241.038-.25-.013-.008-.178.105-.204.148zm-.057-.001c.024.044.014.12-.034.144s-.116-.01-.139-.054c-.023-.044-.036-.243-.022-.25.015-.009.172.115.195.16zm.688.458c-.063.036-.109.134-.07.202.038.066.147.077.209.041.063-.036.232-.267.22-.287-.012-.02-.297.008-.359.044zm-.07-.041c-.001.072-.065.16-.142.159-.077-.002-.139-.092-.137-.164.001-.072.122-.331.145-.331.023 0 .136.264.134.336zm.255-.286c-.051.03-.09.112-.058.168.032.055.122.064.174.034s.193-.222.183-.239c-.01-.017-.247.007-.299.037zm-.057-.034c-.001.06-.054.133-.119.131-.064 0-.115-.075-.114-.135 0-.06.102-.276.12-.276.02 0 .113.22.113.28zm.241-.282c-.048.028-.084.104-.054.155s.113.06.161.033c.048-.028.179-.207.17-.222-.008-.016-.229.007-.277.034zm-.053-.032c0 .056-.05.124-.11.122-.06 0-.107-.07-.106-.126s.094-.255.112-.255c.018 0 .105.204.104.259z" />
</svg>