<svg width="32" height="32" viewBox="0 0 32 32" xmlns="http://www.w3.org/2000/svg">

  <polygon fill="#F4F4F4" points="2,6 13.5,6 16,7 18.5,6 30,6 30,13.5 29,16 30,18.5 30,26 18.5,26 16,25 13.5,26 2,26 2,18.5 3,16 2,13.5" />
  <rect x="2" y="13.5" fill="#E71A43" width="28" height="5" />
  <rect x="13.5" y="6" fill="#E71A43" width="5" height="20" />
  <path fill="#FCD53F" d="M8.5,17.6667l0.8333-0.8333h5.8333v5.8333L14.3333,23.5h3.3333l-0.8333-0.8333v-5.8333h5.8333L23.5,17.6667v-3.3333l-0.8333,0.8333h-5.8333V9.3333L17.6667,8.5h-3.3333l0.8333,0.8333v5.8333H9.3333L8.5,14.3333V17.6667z" />
</svg>