<svg width="32" height="32" viewBox="0 0 32 32" xmlns="http://www.w3.org/2000/svg">
  <polygon fill="#062365" points="2,6 13.5,6 16,8 18.5,6 30,6 30,11 29,12 3,12 2,11" />
  <polygon fill="#f4f4f4" points="2,11 30,11 30,16 29,17 3,17 2,16" />
  <polygon fill="#44911B" points="2,16 30,16 30,21 29,22 3,22 2,21" />
  <polygon fill="#FFC83D" points="2,21 30,21 30,26 18.5,26 16,24 13.5,26 2,26" />
  <rect fill="#CF0828" x="13.5" y="6" width="5" height="20" />
  <polygon fill="#FFC83D" points="6.64,6.4647 5.3175,10.5353 8.78,8.0195 4.5,8.0195 7.9625,10.5353" />
</svg>