<svg width="32" height="32" viewBox="0 0 32 32" xmlns="http://www.w3.org/2000/svg">
  <polygon fill="#0074BA" points="2,6 6.44444,6 7.55556,7 8.66667,6 30,6 30,8.17967 29,9.29078 30,10.40189 30,12.62411 29,13.73522 30,14.84634 30,17.11111 29,18.22222 30,19.33333 30,21.55556 29,22.66667 30,23.77778 30,26 2,26 2,23.77778 3,22.66667 2,21.55556 2,19.33333 3,18.22222 2,17.11111 2,12.62411 3,11.55556 2,10.40189" />
  <g fill="#F4F4F4">
    <path d="M6.44444,12.62411H2V10.40189H6.44444V6H8.66667V10.40189H13.11111V12.62411H8.66667V17.11111H30V19.33333H2V17.11111H6.44444V12.62411Z" />
    <rect x="13.11111" y="8.17967" width="16.88889" height="2.22222" />
    <rect x="13.11111" y="12.62411" width="16.88889" height="2.22222" />
    <rect x="2" y="21.55556" width="28" height="2.22222" />
  </g>
</svg>