<svg width="32" height="32" viewBox="0 0 32 32" xmlns="http://www.w3.org/2000/svg">
  <polygon fill="#FDBB11" points="2,11 3,10 29,10 30,11 30,21 29,22 3,22 2,21" />
  <rect fill="#cf0828" x="2" y="6" width="28" height="5" />
  <rect fill="#cf0828" x="2" y="21" width="28" height="5" />
  <path fill="#FF5C76" d="M8.5,15.1667v2.5c0,1.3808,1.1192,2.5,2.5,2.5s2.5-1.1192,2.5-2.5v-2.5H8.5z" />
  <path fill="#FF9CB1" d="M11,14.3333h2.5v2.5H11V14.3333z" />
  <path fill="#E71A43" d="M8.5,14.3333H11v2.5H8.5V14.3333z" />
  <ellipse fill="#FF5C76" cx="11" cy="13.0833" rx="2.5" ry="1.25" />
  <ellipse fill="#F59F00" cx="11" cy="12.4583" rx="2.5" ry="0.625" />
  <path fill="#B6BFC6" d="M6.8333,14.3333h0.8333v5.8333H6.8333V14.3333z M14.3333,14.3333h0.8333v5.8333h-0.8333V14.3333z" />
  <path fill="#728592" d="M6,19.3333h2.5v0.8333H6V19.3333z M13.5,19.3333H16v0.8333h-2.5V19.3333z M6.8333,13.5h0.8333v0.8333H6.8333V13.5z M14.3333,13.5h0.8333v0.8333h-0.8333V13.5z" />
</svg>