<svg width="32" height="32" viewBox="0 0 32 32" xmlns="http://www.w3.org/2000/svg">
  <polygon fill="#F4F4F4" points="11.5,6 20.5,6 21.5,7 21.5,25 20.5,26 11.5,26 10.5,25 10.5,7" />
  <rect fill="#5A93CB" x="2" y="6" width="9.5" height="20" />
  <rect fill="#5A93CB" x="20.5" y="6" width="9.5" height="20" />
  <path fill="#44911B" d="M19.4935,16.552c0.0848-0.1815,0.0728-0.297-0.0255-0.1943c-0.0863,0.09-0.2123,0.1215-0.369,0.2325l0.0128-0.0442c0.1373-0.2595,0.4343-0.1343,0.6098-0.5483c0.0308-0.0765,0.1875-0.1582-0.0263-0.1455c-0.153,0.009-0.3458,0.0997-0.4852,0.2947c0.1065-0.2895,0.363-0.1417,0.468-0.8392c0.0187-0.1283,0.0337-0.39-0.051-0.1755c-0.0345,0.0855-0.117,0.171-0.204,0.273c0.0285-0.144,0.0187-0.2692-0.0112-0.3645c0.054-0.0833,0.1027-0.1687,0.1163-0.2677c0.0233-0.1702-0.0173-0.321-0.0817-0.1417c-0.0225,0.0645-0.0653,0.1065-0.1103,0.15c-0.0165-0.06-0.0322-0.081-0.0787,0c-0.0487,0.084-0.075,0.1912-0.09,0.3105l-0.0015,0.0075c-0.0112-0.063-0.0263-0.1252-0.0405-0.1868c0.0345-0.234,0.3953-0.2273,0.27-0.9832c-0.0293-0.183-0.0427-0.2362-0.1073-0.009c-0.06,0.2107-0.246,0.228-0.255,0.6495l-0.0157-0.0488c-0.0413-0.4042,0.2355-0.7425,0.0263-1.089c-0.111-0.1845-0.1702-0.201-0.1583-0.051c0.0142,0.1748-0.0907,0.36-0.0712,0.6143l-0.0075-0.0165c-0.0442-0.3127,0.0683-0.4072-0.0585-0.6105c-0.066-0.1035-0.1643-0.24-0.1388-0.069c0.0052,0.0345,0.0082,0.075,0.012,0.117c-0.0405-0.177-0.1935-0.2857-0.387-0.348c-0.183-0.0592-0.1275,0.0278-0.06,0.0982c0.096,0.1028,0.0712,0.2288,0.1905,0.384c-0.129-0.0623-0.2407-0.0682-0.315-0.1613c-0.1462-0.1808-0.0705,0.0503-0.0353,0.1545c0.0712,0.204,0.1905,0.3135,0.3285,0.3832c-0.0135,0.015-0.0075,0.0675,0.0315,0.177c0.048,0.135,0.1072,0.2355,0.171,0.3165c-0.048-0.03-0.0915-0.063-0.1238-0.111c-0.1537-0.2273-0.2137-0.2527-0.1845,0.018c0.0262,0.2347,0.126,0.36,0.2467,0.4425c0.0015,0.0473,0.0187,0.1132,0.0668,0.1823c0.0855,0.1238,0.1755,0.1755,0.2587,0.207c0.0413,0.096,0.0637,0.1852,0.0855,0.2775c-0.0053-0.0037-0.009-0.0105-0.015-0.0142c-0.2302-0.1627-0.1725-0.069-0.1537,0.0728c0.0863,0.6683,0.4028,0.4387,0.3383,0.87c-0.009,0.0397-0.018,0.078-0.0285,0.1163c0.0112-0.2483-0.1035-0.3885-0.198-0.498c-0.1305-0.1508-0.1755-0.1072-0.111,0.1718c0.015,0.0653,0.03,0.1462,0.0427,0.2318l-0.003-0.009c-0.1305-0.2633-0.1688-0.1875-0.1567,0.0127c0.015,0.1928-0.1478,0.2692-0.0427,0.639c0.0315,0.108,0.0473,0.3158-0.0577,0.4748l-0.018,0.024c0.231-0.4268-0.048-0.5542-0.0225-0.6832c0.0308-0.1462-0.0075-0.1718-0.0893,0.009c-0.0938,0.2085-0.0743,0.3555-0.0457,0.48c-0.0173,0.0098-0.03,0.015-0.0525,0.03c-0.0743,0.0502-0.1343,0.099-0.1845,0.1455c0.0068-0.0405,0.018-0.0795,0.0218-0.12c0.0187-0.1912-0.0338-0.285-0.1155-0.078c-0.1027,0.2543-0.2872,0.249-0.4042,0.6308c-0.0922,0.3082-0.1605,0.3705-0.3038,0.4312l-0.021,0.009c0.2168-0.168,0.336-0.3937,0.3682-0.6562c0.0338-0.291-0.0382-0.249-0.1365-0.0735c-0.0938,0.1688-0.2723,0.144-0.3855,0.5123c-0.0352,0.114-0.1185,0.2887-0.3375,0.3682c0.2962-0.2108,0.426-0.5588,0.3915-0.7673c-0.0157-0.1035-0.0645-0.1673-0.111,0.0037c-0.0555,0.21-0.2092,0.159-0.3337,0.5573c-0.0637,0.2025-0.1192,0.2437-0.3848,0.3638l0.039-0.0075c-0.1553,0.063-0.2902,0.1283-0.4028,0.195c-0.1058-0.0637-0.237-0.126-0.3878-0.1868l0.0217,0.0037c-0.2625-0.1193-0.318-0.1597-0.381-0.36c-0.1215-0.3937-0.2753-0.3428-0.33-0.5497c-0.045-0.1702-0.093-0.1073-0.1095-0.0053c-0.0345,0.2055,0.0938,0.5483,0.3832,0.7568c-0.2137-0.0795-0.2955-0.2505-0.3307-0.3623c-0.111-0.3638-0.2872-0.339-0.3802-0.5055c-0.0967-0.174-0.1687-0.2153-0.1342,0.072c0.0308,0.2587,0.1485,0.4823,0.3623,0.648l-0.045-0.0187c-0.1238-0.0585-0.1883-0.1297-0.2753-0.4155c-0.114-0.378-0.297-0.372-0.399-0.6225c-0.0825-0.204-0.1328-0.1125-0.1133,0.0765c0.0038,0.0405,0.0143,0.0795,0.0218,0.1192c-0.0495-0.0465-0.1088-0.0945-0.1823-0.144c-0.0225-0.015-0.0352-0.0203-0.0525-0.03c0.0278-0.123,0.0472-0.2692-0.0457-0.4755c-0.081-0.177-0.1185-0.1523-0.0893-0.009c0.0262,0.1298-0.2512,0.255-0.018,0.681l-0.0173-0.0225c-0.1095-0.1582-0.0922-0.3667-0.0623-0.4762c0.1042-0.3645-0.0555-0.4403-0.042-0.6307c0.0135-0.1987-0.0255-0.273-0.1537-0.0128l-0.0038,0.0105c0.0128-0.0855,0.0278-0.1658,0.0428-0.2302c0.0638-0.276,0.0173-0.3188-0.1095-0.1695c-0.0938,0.1087-0.2078,0.2475-0.1965,0.4928c-0.0105-0.0383-0.0195-0.0773-0.0285-0.117c-0.063-0.4245,0.249-0.1995,0.3352-0.8595c0.018-0.1403,0.0758-0.2333-0.153-0.072c-0.006,0.0037-0.0098,0.0105-0.015,0.0142c0.0218-0.0915,0.0443-0.18,0.0863-0.2752c0.0825-0.0315,0.171-0.0825,0.2557-0.2048c0.0472-0.069,0.0645-0.1335,0.0652-0.1807c0.1185-0.0817,0.2168-0.2063,0.2423-0.438c0.03-0.2663-0.0292-0.2415-0.1807-0.0173c-0.0323,0.0472-0.075,0.0802-0.1223,0.1095c0.0623-0.0803,0.1215-0.1785,0.1688-0.312c0.0375-0.108,0.0435-0.1605,0.03-0.1755c0.1372-0.0698,0.2557-0.1778,0.3247-0.3795c0.0352-0.1035,0.1095-0.3307-0.0345-0.153c-0.0743,0.0922-0.1837,0.0982-0.3112,0.1597c0.1185-0.153,0.0938-0.2783,0.1883-0.3802c0.066-0.0705,0.1222-0.156-0.0585-0.0975c-0.1927,0.0615-0.3435,0.1695-0.384,0.3442c0.0037-0.0413,0.0068-0.0817,0.012-0.1155c0.0255-0.1695-0.0728-0.0338-0.1357,0.0675c-0.126,0.201-0.0165,0.2947-0.0577,0.6023l-0.0083,0.0187c0.0195-0.252-0.0848-0.435-0.0712-0.6082c0.012-0.1477-0.0457-0.1313-0.1553,0.051c-0.2062,0.3412,0.0653,0.675,0.027,1.0732l-0.015,0.0472c-0.0113-0.4132-0.195-0.4297-0.2527-0.6382c-0.0645-0.225-0.0765-0.1718-0.1065,0.009c-0.123,0.747,0.234,0.7403,0.267,0.972c-0.0142,0.0615-0.0285,0.123-0.0398,0.1853l-0.0023-0.0105c-0.0052-0.0405-0.0165-0.0743-0.0255-0.1102l-0.003-0.0082c-0.0165-0.0653-0.0315-0.1328-0.0608-0.1845c-0.0458-0.0803-0.0608-0.0593-0.0773,0c-0.0442-0.0427-0.0862-0.084-0.1088-0.1485c-0.063-0.1777-0.1042-0.0285-0.081,0.1402c0.0135,0.0975,0.0615,0.1823,0.1147,0.2648c-0.0293,0.0945-0.039,0.219-0.0105,0.3615c-0.0863-0.1012-0.1672-0.186-0.201-0.2708c-0.0847-0.2115-0.0697,0.0465-0.051,0.174c0.1035,0.6915,0.3577,0.543,0.4627,0.831c-0.138-0.1943-0.3278-0.2843-0.48-0.2933c-0.2115-0.0128-0.057,0.069-0.0255,0.144c0.1732,0.4102,0.4657,0.2865,0.6015,0.5422l0.0128,0.0443c-0.1553-0.1103-0.2783-0.1418-0.3638-0.231c-0.0975-0.1012-0.1088,0.0135-0.0247,0.1928c-0.0915,0.0105-0.189,0.018-0.2505-0.0023c-0.0765-0.0255-0.0765,0.0892,0.1357,0.1785c0.0968,0.0405,0.2498,0.1035,0.3968,0.1755c0.1088,0.0817,0.2175,0.1372,0.3112,0.2227c-0.2917-0.21-0.5115-0.1087-0.675-0.204c-0.2033-0.1178-0.093,0.0667-0.0368,0.123c0.573,0.5737,0.663,0.1403,0.9803,0.4447c-0.0495-0.0225-0.1027-0.0397-0.1627-0.0472c-0.2543-0.0292-0.345-0.0668-0.2123,0.0938c0.1583,0.192,0.288,0.285,0.402,0.336c-0.075-0.0008-0.1477,0.003-0.2145,0.0165c-0.1635,0.0345-0.1072,0.0645,0.003,0.0975c0.135,0.0405,0.2205,0.135,0.3705,0.1965h-0.0015c-0.246,0.0765-0.288,0.105-0.1013,0.1973c0.3188,0.1597,0.5415,0.1642,0.7185,0.135c-0.0855,0.027-0.1627,0.0645-0.2288,0.1132c-0.135,0.0998-0.0982,0.1373,0.0173,0.1185c0.2183-0.0353,0.354,0.03,0.534,0.03c-0.1095,0.0802-0.201,0.171-0.3652,0.2197c-0.1102,0.033-0.1462,0.0945,0.0338,0.111c0.6877,0.0585,0.8625-0.372,1.191-0.3675c0.168,0.0518,0.3255,0.1133,0.4747,0.213c-0.045,0.0345-0.093,0.0697-0.1192,0.102c0.0082,0.0772,0.1852,0.039,0.2032,0.0817c0.0225-0.024,0.0465-0.0413,0.0698-0.0623c0.0232,0.021,0.0465,0.0382,0.0698,0.0623c0.0173-0.0427,0.1642-0.0292,0.1725-0.1057c-0.0203-0.0255-0.06-0.0518-0.0915-0.078c0.153-0.1027,0.3127-0.165,0.4845-0.2183c0.3323-0.0045,0.5093,0.4312,1.2045,0.372c0.1815-0.0165,0.1462-0.0787,0.0352-0.1125c-0.1665-0.0487-0.2595-0.141-0.3705-0.222c0.1823,0.0007,0.3202-0.0653,0.5408-0.03c0.117,0.018,0.1537-0.0195,0.0165-0.1207c-0.066-0.0495-0.1448-0.087-0.231-0.1147c0.1793,0.0292,0.405,0.0255,0.7275-0.1365c0.189-0.093,0.1462-0.1223-0.1012-0.1995H18.433c0.1515-0.0623,0.2377-0.1575,0.3735-0.1987c0.1125-0.0338,0.1688-0.0637,0.003-0.0982c-0.0668-0.0142-0.141-0.018-0.2167-0.0173c0.1155-0.0518,0.2475-0.1462,0.4087-0.3405c0.132-0.1627,0.0413-0.1238-0.2153-0.0945c-0.0623,0.0075-0.117,0.0247-0.168,0.0487c0.3232-0.3113,0.4125,0.1305,0.9945-0.4515c0.0555-0.0548,0.1672-0.243-0.0382-0.123c-0.1658,0.0968-0.39-0.0082-0.6893,0.2122c0.0968-0.0907,0.2108-0.147,0.3232-0.2325c0.1478-0.0728,0.3015-0.1357,0.3998-0.177c0.2153-0.0907,0.2153-0.2055,0.1365-0.18C19.684,16.57,19.5865,16.5625,19.4935,16.552z M14.2885,18.3167l0.0788,0.0495c-0.0848-0.0383-0.183-0.075-0.2888-0.1073c0.0593,0.0023,0.1282,0.0157,0.2175,0.066C14.296,18.325,14.2885,18.3167,14.2885,18.3167z M15.211,18.5597l-0.0398-0.012l0.0278,0.0045C15.199,18.5522,15.211,18.5597,15.211,18.5597z M13.6225,17.479c0.0068,0.0105,0.0083,0.0165,0.0158,0.0285c0.0645,0.1005,0.075,0.204,0.1372,0.3263c-0.0292-0.0263-0.0585-0.0525-0.087-0.0802C13.609,17.6575,13.6037,17.572,13.6225,17.479z M13.4987,14.1093c-0.084,0.1118-0.2227,0.129-0.3517,0.2355c0.0743-0.129,0.171-0.2498,0.2925-0.282c0.0472-0.0128,0.093-0.0292,0.138-0.0472C13.5557,14.0387,13.5303,14.068,13.4987,14.1093z M13.3713,17.5143l0.012,0.0135l-0.009-0.0052L13.3713,17.5143z M14.2232,18.5358c0.129-0.0263,0.2362-0.06,0.3413-0.054l0.0442,0.0225C14.4693,18.4975,14.3388,18.5058,14.2232,18.5358z M18.676,13.8468C18.676,13.8468,18.6752,13.8468,18.676,13.8468C18.6752,13.8468,18.676,13.8468,18.676,13.8468z M18.4862,14.053c-0.0322-0.042-0.0577-0.072-0.081-0.0953c0.045,0.0187,0.0915,0.0345,0.1395,0.048c0.123,0.033,0.2212,0.1552,0.2955,0.285C18.7105,14.1835,18.571,14.1655,18.4862,14.053z M17.902,18.2485c-0.1065,0.0322-0.2055,0.069-0.291,0.1073l0.0735-0.0465l-0.0037,0.0045C17.7722,18.2643,17.842,18.2508,17.902,18.2485z M18.3445,17.4888l0.0165-0.0292c0.0187,0.0938,0.0142,0.18-0.066,0.2767c-0.0292,0.0285-0.0593,0.0563-0.09,0.0825C18.2687,17.695,18.2792,17.5907,18.3445,17.4888z M16.7665,18.5455l0.0315-0.0053l-0.0458,0.0142C16.7567,18.5522,16.762,18.5492,16.7665,18.5455z M17.365,18.496l0.0465-0.0232c0.1095-0.0053,0.2205,0.0315,0.357,0.0577C17.6485,18.4983,17.5112,18.49,17.365,18.496z M18.6025,17.5105l0.0112-0.0135l-0.0022,0.0075C18.6077,17.506,18.6055,17.509,18.6025,17.5105z" />
  <path fill="#b7c0c5" d="M14.9462,16.3165c0,0-0.5723,0.5145-0.6427,0.5842c-0.0697,0.0698-0.1403,0.3743-0.1403,0.3743l0.1867,0.1162l0.8302-0.8527C15.1802,16.5385,14.9462,16.3165,14.9462,16.3165z" />
  <path fill="#5C2614" d="M14.152,17.2638l0.1755,0.1395c0,0-0.1523,0.1515-0.1755,0.3038c-0.0233,0.1523-0.4327,0.6188-0.5145,0.7358c-0.0818,0.1178-0.1875,0.093-0.234,0c-0.0457-0.093-0.1507-0.1635-0.1627-0.2332c-0.0128-0.0697,0.2572-0.3158,0.3855-0.4553c0.1275-0.141,0.2677-0.1987,0.3383-0.2797C14.035,17.3913,14.152,17.2638,14.152,17.2638z M14.9823,16.4447l-0.3547,0.3968l0.0945,0.0945l0.3412-0.3862L14.9823,16.4447z" />
  <path fill="#b7c0c5" d="M13.345,12.9858l1.134,1.1797l0.2805-0.1403l-0.0878-0.1267l-0.1927,0.045L13.345,12.9858z" />
  <path fill="#FDBB11" d="M14.7595,17.893l0.1403,0.2348l0.1275-0.1178c0,0,0.1035,0.1875,0,0.222c-0.1042,0.036-0.1815,0-0.1815,0l-0.3555,0.2902c0,0-0.1403-0.0848-0.2573,0c0,0,0.024-0.1718,0.0945-0.1718c0.0698,0,0.3255-0.339,0.3255-0.339s-0.1357-0.0382-0.108-0.1178C14.5728,17.8127,14.7595,17.893,14.7595,17.893z" />
  <path fill="#b7c0c5" d="M14.7595,17.9875c0,0,2.0798-2.0685,2.9452-2.1465c0,0-0.6547,0.3983-1.0635,0.7253c-0.4095,0.3278-1.7408,1.5623-1.7408,1.5623S14.7595,17.9875,14.7595,17.9875z" />
  <path fill="#b7c0c5" d="M17.1198,16.3165c0,0,0.573,0.5145,0.6412,0.5842c0.0705,0.0698,0.141,0.3743,0.141,0.3743l-0.186,0.1162l-0.8302-0.8527C16.8857,16.5385,17.1198,16.3165,17.1198,16.3165z" />
  <path fill="#5C2614" d="M17.914,17.2638l-0.1755,0.1395c0,0,0.1523,0.1515,0.1755,0.3038c0.0233,0.1523,0.4335,0.6188,0.5145,0.7358c0.0817,0.1178,0.1875,0.093,0.234,0c0.0465-0.093,0.1508-0.1635,0.1628-0.2332c0.0135-0.0697-0.258-0.3158-0.3855-0.4553c-0.1275-0.141-0.2677-0.1987-0.3383-0.2797C18.031,17.3913,17.914,17.2638,17.914,17.2638z M17.083,16.4447l0.3547,0.3968L17.344,16.936l-0.3412-0.3862L17.083,16.4447z" />
  <path fill="#b7c0c5" d="M16.5887,14.698l-0.132,0.3735l1.1287-1.128l-0.1733-0.0315L16.5887,14.698z" />
  <path fill="#b7c0c5" d="M18.7195,12.9858l-1.134,1.1797l-0.2797-0.1403l0.2797-0.0817L18.7195,12.9858z" />
  <path fill="#FDBB11" d="M17.3057,17.893l-0.1388,0.2348L17.0395,18.01c0,0-0.1042,0.1875,0,0.222c0.1028,0.036,0.1815,0,0.1815,0l0.3547,0.2902c0,0,0.141-0.0848,0.2565,0c0,0-0.0233-0.1718-0.0938-0.1718s-0.3255-0.339-0.3255-0.339s0.135-0.0382,0.1073-0.1178C17.4933,17.8127,17.3058,17.893,17.3057,17.893z" />
  <path fill="#b7c0c5" d="M17.3057,17.9875c0,0-2.0798-2.0685-2.9445-2.1465c0,0,0.6555,0.3983,1.0635,0.7253c0.4095,0.3278,1.7415,1.5623,1.7415,1.5623S17.3057,17.9875,17.3057,17.9875z" />
  <path fill="#FFF9BA" d="M14.7753,13.873c0.3397-0.0195,1.32,0.012,1.683,0c0.3615-0.0112,0.2797,0.1755,0.303,0.2812c0.0233,0.105-0.1973,0.222-0.1973,0.222s0.2325,0.1403,0.537,0.9585c0.303,0.8183,0.2325,1.191-0.1755,1.2157c-0.408,0.0233-1.4602,0.0938-1.812,0.0938c-0.3503,0-0.4087-0.1283-0.4087-0.3158c0-0.1867,0.2805-0.468,0.561-0.3082c0,0,0-0.1245-0.1635-0.5917c-0.1635-0.4672-0.5145-0.9698-0.549-1.1918C14.5172,14.0133,14.5997,13.8835,14.7753,13.873z" />
  <path fill="#44911B" d="M15.8035,13.0667c-0.1403-0.129,0.0547-0.2692,0.1973-0.2572c0.141,0.012,0.2115,0.093,0.06,0.2572c0,0,0.4095,0.222,0.7358,0.5258c0.327,0.3038,0.999,1.1235,1.0635,2.01c0.0817,1.1453-0.549,1.7408-0.7837,2.1495c-0.2333,0.4095-0.7583,1.4377-0.7583,1.4377s-0.012-0.5258,0.678-1.4843c0,0-0.537,0.9585-1.3672,1.134c0,0,1.0388-0.732,1.3305-1.317c0.2917-0.5835,0.7178-1.4617,0.6488-2.0693c-0.0705-0.6083-0.18-1.1242-0.9863-1.5225c0,0-0.5107-0.0285-0.7358-0.21C15.523,13.429,15.8035,13.0667,15.8035,13.0667z" />
  <path opacity="0.5" fill="#F3AD61" d="M16.5632,14.3763c0,0.0352,0.1515,0.225,0.1313,0.225h-1.7858c-0.0195,0-0.12-0.1237-0.12-0.159l-0.1365-0.1597c0.1065,0.0413,0.2363,0,0.2557,0h1.785C16.714,14.2825,16.5632,14.3403,16.5632,14.3763z M15.2665,16.4447c0,0.0353-0.075,0.1508-0.0547,0.1508h1.7857c0.0188,0,0.1838-0.1238,0.1838-0.159l0.072-0.159c-0.1065,0.0413-0.2362,0-0.2557,0h-1.7858C15.1923,16.2775,15.2665,16.4088,15.2665,16.4447z" />
</svg>