<?xml version="1.0" encoding="UTF-8"?>
<svg xmlns="http://www.w3.org/2000/svg" xmlns:xlink="http://www.w3.org/1999/xlink" width="32px" height="32px" viewBox="0 0 32 32" version="1.1">
  <path fill="#00a6ed" d="M 6 6 L 26 6 L 26 26 L 6 26 Z M 6 6 "/>
  <path fill="#f4f4f4" d="M 20.253906 14.839844 C 21.339844 14.839844 21.773438 15.394531 21.773438 16.496094 C 21.773438 19.820312 19.601562 22.316406 16.15625 22.316406 C 12.660156 22.316406 10.230469 19.542969 10.230469 15.980469 C 10.230469 12.394531 12.640625 9.640625 16.15625 9.640625 C 18.757812 9.640625 20.894531 10.863281 20.894531 12.070312 C 20.894531 12.808594 20.429688 13.273438 19.824219 13.273438 C 18.652344 13.273438 18.414062 12.015625 16.15625 12.015625 C 14.003906 12.015625 12.917969 13.894531 12.917969 15.980469 C 12.917969 18.078125 13.96875 19.941406 16.15625 19.941406 C 17.515625 19.941406 19.085938 19.183594 19.085938 17.21875 L 17.328125 17.21875 C 16.621094 17.21875 16.121094 16.71875 16.121094 16.015625 C 16.121094 15.289062 16.671875 14.84375 17.328125 14.84375 L 20.253906 14.84375 Z M 20.253906 14.839844 "/>
</svg>
