<svg width="32" height="32" viewBox="0 0 32 32" xmlns="http://www.w3.org/2000/svg">
  <rect fill="#f4f4f4" x="2" y="6" width="28" height="20" />
  <path fill="#cf0828" d="M10.1469,18.5031c0,0-0.2592,0.7808-0.1946,1.5608c0.0654,0.7808,1.8862,0.7154,2.2762,0.6508c0.39-0.0654,0.6508-0.0654,0.39,0.2608c-0.2592,0.3238-0.5846,0.8446-0.52,1.43c0.0646,0.5838-0.7808,0.1946-1.04-0.3915c-0.26-0.5846-0.5208-0.5846-0.9762-0.8446c-0.4554-0.26-0.8962-0.9154-1.1708-1.3008C8.5862,19.4138,8.3908,19.0885,10.1469,18.5031z M21.8523,18.5031c0,0,0.2608,0.7808,0.1954,1.5608c-0.0638,0.7808-1.8862,0.7154-2.2762,0.6508c-0.3908-0.0654-0.65-0.0654-0.3908,0.2608c0.2615,0.3238,0.5862,0.8446,0.5215,1.43c-0.0654,0.5838,0.78,0.1946,1.04-0.3915c0.2615-0.5846,0.5208-0.5846,0.9762-0.8446c0.4562-0.26,0.8954-0.9154,1.1708-1.3008C23.4138,19.4138,23.6092,19.0885,21.8523,18.5031z" />
  <path fill="#FFDEA7" d="M22.9592,19.7377c-0.7162,0.3262-2.2008,0.5408-2.7977,0.5862c-0.7885,0.0608-0.91,0.26-0.91,0.4554c0,0.1962,0.8454,0.3254,1.3,0.26c0.4554-0.0638,0.9762,0.0654,0.1954,0.5208c-0.7808,0.4546-1.8208,1.1062-2.7969,1.3654C16.9754,23.1862,16,23.1208,16,23.1208s-0.9754,0.0654-1.9515-0.1954c-0.9754-0.26-2.0162-0.9108-2.7962-1.3654c-0.7808-0.4554-0.2608-0.5846,0.1946-0.5208c0.4554,0.0654,1.3008-0.0638,1.3008-0.26c0-0.1954-0.1215-0.3946-0.9108-0.4554c-0.5954-0.0454-2.0815-0.26-2.7962-0.5862c-0.3015-0.1369-0.39-0.3892-0.39-0.3892s0,0.1308,0.0654,0.52c0.0646,0.39,0.39,0.65,0.4554,1.0408c0.0646,0.3892,0.0646,0.5854,0.39,0.65c0.3254,0.0654,1.0408,0.1308,1.0408,0.1308s0,0.5838-0.13,0.91c-0.1308,0.3254,0.3254,0.9115,2.0808,1.5608C14.3092,24.8123,15.09,24.7469,16,24.7469c0.9108,0,1.6908,0.0654,3.4462-0.5862c1.7569-0.65,2.2108-1.2362,2.0815-1.5608c-0.13-0.3262-0.13-0.91-0.13-0.91s0.7154-0.0654,1.04-0.1308c0.3269-0.0646,0.3269-0.2608,0.3908-0.65c0.0654-0.3915,0.39-0.6515,0.4554-1.0408c0.0646-0.3892,0.0646-0.52,0.0646-0.52S23.26,19.6015,22.9592,19.7377z" />
  <path opacity="0.5" fill="#9B9B9B" d="M13.1385,23.1862c0.7215,0.2408,3.7177,0.8692,5.5269,0.0654c0.5862-0.2623,0.7808,0.5185,0.2608,0.7154c-0.4085,0.1523-2.0162,0.3892-2.7315,0.3892c-0.7154,0-2.6785-0.2269-3.2515-0.4546C12.6177,23.77,12.7485,23.0546,13.1385,23.1862z" />
  <path fill="#636363" d="M11.8377,10.2438h8.3238v1.17h-8.3238V10.2438z" />
  <path fill="#cf0828" d="M16,11.0238h-4.1623v4.9423c0,2.4723,1.5608,3.4477,2.3408,4.0323c0.7808,0.5854,2.8615,0.5854,3.6415,0c0.7808-0.5846,2.3415-1.5592,2.3415-4.0323v-4.9423C20.1615,11.0238,16,11.0238,16,11.0238z" />
  <path fill="#1345B7" d="M11.9408,17.0077c0.36,1.7223,1.5785,2.4969,2.2377,2.9915C14.9592,20.5846,16,20.9762,16,20.9762s1.0408-0.3915,1.82-0.9769c0.6615-0.4938,1.8785-1.2685,2.2392-2.9915H11.9408z M11.8377,11.0238h8.3238v3.0569h-8.3238V11.0238z" />
  <path fill="#F9C23C" d="M13.5292,12.13c0,0,0.0646-0.13,0-0.3254c-0.0585-0.1746-0.3254-0.3254-0.3254-0.3254s-0.2669,0.1508-0.3246,0.3254c-0.0654,0.1946,0,0.3254,0,0.3254c-0.3254-0.13-0.4554,0.1954-0.4554,0.39c0,0.1954,0.2608,0.3246,0.2608,0.3246s0-0.26,0.1292-0.26c0.13,0,0.13,0.26,0.13,0.26c-0.26,0,0,0.1954,0,0.1954l-0.1946,0.3246l0.26-0.0654c-0.0646,0.1954,0.1954,0.39,0.1954,0.39s0.2608-0.1946,0.1946-0.39l0.2608,0.0654L13.4654,13.04c0,0,0.26-0.1954,0-0.1954c0,0,0-0.26,0.1292-0.26c0.13,0,0.13,0.26,0.13,0.26s0.26-0.1292,0.26-0.3246C13.9838,12.3254,13.8538,11.9992,13.5292,12.13z M19.1223,12.13c0,0,0.0646-0.13,0-0.3254c-0.0577-0.1746-0.3254-0.3254-0.3254-0.3254S18.53,11.63,18.4715,11.8046c-0.0654,0.1946,0,0.3254,0,0.3254c-0.3254-0.13-0.4554,0.1954-0.4554,0.39c0,0.1954,0.26,0.3246,0.26,0.3246s0-0.26,0.13-0.26s0.13,0.26,0.13,0.26c-0.26,0,0,0.1954,0,0.1954l-0.1946,0.3246l0.2592-0.0654c-0.0646,0.1954,0.1962,0.39,0.1962,0.39s0.26-0.1946,0.1946-0.39l0.2608,0.0654L19.0569,13.04c0,0,0.26-0.1954,0-0.1954c0,0,0-0.26,0.13-0.26c0.13,0,0.13,0.26,0.13,0.26s0.2608-0.1292,0.2608-0.3246C19.5769,12.3254,19.4462,11.9992,19.1223,12.13z M16.3254,12.13c0,0,0.0646-0.13,0-0.3254C16.2669,11.63,16,11.4792,16,11.4792s-0.2669,0.1508-0.3254,0.3254c-0.0646,0.1946,0,0.3254,0,0.3254c-0.3254-0.13-0.4554,0.1954-0.4554,0.39c0,0.1954,0.26,0.3246,0.26,0.3246s0-0.26,0.13-0.26c0.13,0,0.13,0.26,0.13,0.26c-0.26,0,0,0.1954,0,0.1954l-0.1946,0.3246l0.26-0.0654C15.74,13.4954,16,13.6908,16,13.6908s0.26-0.1946,0.1946-0.39l0.26,0.0654L16.26,13.0415c0,0,0.26-0.1954,0-0.1954c0,0,0-0.26,0.13-0.26c0.13,0,0.13,0.26,0.13,0.26s0.26-0.1292,0.26-0.3246C16.7808,12.3254,16.6508,11.9992,16.3254,12.13z" />
  <path fill="#f4f4f4" d="M16.7154,15.5769l0.3254-0.4562L16.13,15.3815l0.26-0.8462L16,14.7962l-0.39-0.2608l0.26,0.8462l-0.9108-0.2608l0.3254,0.4562l-0.3254,0.3892l0.9108-0.3246l-0.3254,0.91L16,16.2915l0.4554,0.26l-0.3254-0.91l0.9108,0.3246L16.7154,15.5769z" />
  <path fill="#F9C23C" d="M16.7154,19.0885c0,0-0.1954,0-0.1954,0.1954c0,0.1962,0.1954,0.26,0.1954,0.26s-0.1308,0.1946-0.3254,0.1946c-0.1954,0-0.26-0.1946-0.26-0.1946s0.26-0.0638,0.26-0.1946s-0.1954-0.1954-0.1954-0.1954s0-0.3254-0.1946-0.3254c-0.1946,0-0.1946,0.3254-0.1946,0.3254S15.61,19.2185,15.61,19.3492s0.26,0.1946,0.26,0.1946s-0.0654,0.1946-0.26,0.1946c-0.1946,0-0.3246-0.1946-0.3246-0.1946s0.1946-0.0638,0.1946-0.26c0-0.1954-0.1946-0.1954-0.1946-0.1954c0-0.26-0.26-0.1308-0.26-0.1308l0.1946,1.3662h1.5608l0.1946-1.3662C16.9754,18.9577,16.7154,18.8285,16.7154,19.0885z M15.2192,17.3962c0,0-0.1946,0-0.1946,0.1969c0,0.1946,0.1946,0.26,0.1946,0.26s-0.1292,0.1946-0.3246,0.1946c-0.1946,0-0.26-0.1946-0.26-0.1946s0.26-0.0654,0.26-0.1946c0-0.1315-0.1946-0.1969-0.1946-0.1969s0-0.3238-0.1954-0.3238c-0.1946,0-0.1946,0.3238-0.1946,0.3238s-0.1954,0.0654-0.1954,0.1969c0,0.1292,0.26,0.1946,0.26,0.1946s-0.0646,0.1946-0.26,0.1946c-0.1946,0-0.3254-0.1946-0.3254-0.1946s0.1954-0.0654,0.1954-0.26c0-0.1969-0.1954-0.1969-0.1954-0.1969c0-0.2585-0.2592-0.1292-0.2592-0.1292l0.1946,1.3662h1.5615l0.1946-1.3662C15.48,17.2669,15.2192,17.1377,15.2192,17.3962z M18.2108,17.3962c0,0-0.1946,0-0.1946,0.1969c0,0.1946,0.1946,0.26,0.1946,0.26s-0.1292,0.1946-0.3254,0.1946c-0.1946,0-0.26-0.1946-0.26-0.1946s0.26-0.0654,0.26-0.1946c0-0.1315-0.1946-0.1969-0.1946-0.1969s0-0.3238-0.1954-0.3238c-0.1946,0-0.1946,0.3238-0.1946,0.3238s-0.1962,0.0654-0.1962,0.1969c0,0.1292,0.2608,0.1946,0.2608,0.1946s-0.0646,0.1946-0.2608,0.1946c-0.1946,0-0.3246-0.1946-0.3246-0.1946s0.1946-0.0654,0.1946-0.26c0-0.1969-0.1946-0.1969-0.1946-0.1969c0-0.2585-0.26-0.1292-0.26-0.1292l0.1954,1.3662h1.5608l0.1954-1.3662C18.4715,17.2669,18.2108,17.1377,18.2108,17.3962z M21.0077,7.9031l-0.1308,0.39l-0.2592-0.0654l0.0646-0.39l-0.65-0.13L19.9608,8.12l-0.2546-0.0708l0.0008-0.4715l-0.6508-0.0646l-0.0546,0.4062l-0.4654-0.0815v0.26h-0.13V7.7723h-0.3246v0.2608h-0.1962V7.7077h-0.3246v0.26l-0.26-0.0646V7.3169L16.65,7.2523v0.39h-0.3254v-0.39h-0.6508v0.39h-0.3254v-0.39L14.7,7.3169v0.5854l-0.2608,0.0646V7.7077h-0.3246v0.3254H13.92V7.7723h-0.3254v0.3254h-0.1292v-0.26l-0.4662,0.0815l-0.0546-0.4062l-0.6515,0.0638v0.4715l-0.2546,0.0708l-0.0708-0.4115l-0.6508,0.13l0.0646,0.39l-0.26,0.0654l-0.1292-0.39l-0.65,0.1946l0.3254,0.8454l0.1946-0.0646l0.9754,2.1462c0,0,1.1062-0.3246,2.1462-0.4554c1.0408-0.13,2.0162-0.13,2.0162-0.13s0.9754,0,2.0162,0.13c1.04,0.13,2.1454,0.4554,2.1454,0.4554l0.9754-2.1462l0.1954,0.0646l0.3246-0.8454C21.6569,8.0977,21.0077,7.9031,21.0077,7.9031z" />
  <path opacity="0.75" fill="#1C1C1C" d="M16,8.2931c-0.1438,0-0.26,0.1162-0.26,0.2592v0.6508h0.5208V8.5523C16.26,8.4092,16.1438,8.2931,16,8.2931z M12.06,8.6977c-0.1392,0.0362-0.2231,0.1777-0.1862,0.3177l0.1638,0.6292l0.5031-0.1308l-0.1638-0.6292C12.3415,8.7446,12.1992,8.6615,12.06,8.6977z M19.9392,8.6977c0.14,0.0362,0.2223,0.1777,0.1869,0.3177l-0.1646,0.6285l-0.5031-0.1308l0.1638-0.6292C19.6585,8.7446,19.8,8.6615,19.9392,8.6977z" />
</svg>