<svg width="32" height="32" viewBox="0 0 32 32" xmlns="http://www.w3.org/2000/svg">
  <polygon fill="#CF0828" points="2,12.5 3,11.5 29,11.5 30,12.5 30,19.5 29,20.5 3,20.5 2,19.5" />
  <polygon fill="#f4f4f4" points="2,9.25 3,8.25 29,8.25 30,9.25 30,12.5 2,12.5" />
  <polygon fill="#f4f4f4" points="2,22.75 3,23.75 29,23.75 30,22.75 30,19.5 2,19.5" />
  <rect fill="#0b338d" x="2" y="6" width="28" height="3.25" />
  <rect fill="#0b338d" x="2" y="22.75" width="28" height="3.25" />
  <ellipse fill="#F4F4F4" cx="9" cy="16" rx="2.45" ry="2.8" />
  <path fill="#F9C23C" d="M10.2383,17.05c0,0.5796-0.5544,1.4553-1.2383,1.4553S7.7617,17.6296,7.7617,17.05C7.7617,16.4697,8.3161,16,9,16S10.2383,16.4697,10.2383,17.05z" />
  <ellipse fill="#E19747" cx="9" cy="17.05" rx="1.75" ry="1.05" />
  <ellipse fill="#83CBFF" cx="9" cy="14.6" rx="1.05" ry="0.7" />
  <path fill="#028f4d" d="M9,14.9514c0.5799,0,1.05,0.4321,1.05,1.3986c0,0.9665-0.4701,1.75-1.05,1.75s-1.05-0.7835-1.05-1.75C7.95,15.3835,8.4201,14.9514,9,14.9514z" />
  <ellipse fill="#E19747" cx="9" cy="14.95" rx="1.05" ry="0.35" />
  <path fill="#83CBFF" d="M10.05,16c0,0.7728-0.4697,1.4-1.05,1.4S7.95,16.7728,7.95,16S8.4197,14.9514,9,14.9514S10.05,15.2272,10.05,16z" />
  <ellipse fill="#E19747" cx="9" cy="16.35" rx="1.05" ry="0.35" />
</svg>