<svg width="32" height="32" viewBox="0 0 32 32" xmlns="http://www.w3.org/2000/svg">
  <polygon fill="#FCD53F" points="2,6 30,6 30,15 26,18 30,23 30,26 2,26 2,17 6,14 2,9" />
  <path fill="#141414" d="M30,23L2,17v-4l28,6V23z" />
  <path fill="#F4F4F4" d="M30,19L2,13V9l28,6V19z" />
  <path fill="#CF0828" d="M18.7662,13.6423c0.3408,0.5292,0.5377,1.1592,0.5377,1.8354c0,1.8769-1.5215,3.3992-3.3985,3.3992c-1.8777,0-3.3992-1.5223-3.3992-3.3992c0-0.6762,0.1977-1.3062,0.5377-1.8354c-0.6446,0.6962-1.0392,1.6277-1.0392,2.6515c0,2.1546,1.7462,3.9008,3.9008,3.9008s3.9008-1.7469,3.9008-3.9008C19.8062,15.27,19.4115,14.3385,18.7662,13.6423z M9.6177,14.0815c0.4131,0.0908,0.5046,0.2485,0.4838,0.5831c0,0,0.21,0.0408,0.3562,0.25c0.1469,0.2092,0.2823,0.4177,0.5331,0.5015c0.2515,0.0838,0.45,0.25,0.45,0.7523V18.03c0,0-0.0462,0.1885,0.0585,0.4385c0.1046,0.2515,0.0454,0.6069-0.7285,0.6069c-0.7738,0-0.7785-0.3346-0.6746-0.5854c0.1046-0.2508,0.2254-0.4608,0.2254-0.4608v-1.6c0,0-0.1508-0.2192-0.36-0.3662c-0.2092-0.1462-0.6508-0.6692-0.7131-1.1715C9.1854,14.3908,9.0685,13.9615,9.6177,14.0815z M22.1231,14.0815c-0.4131,0.0908-0.5046,0.2485-0.4838,0.5831c0,0-0.2108,0.0408-0.3569,0.25c-0.1462,0.2092-0.2062,0.4177-0.4569,0.5015c-0.2508,0.0838-0.3731,0.25-0.3731,0.7523V18.03c0,0-0.03,0.1885-0.1354,0.4385c-0.1046,0.2515-0.0823,0.6069,0.6908,0.6069c0.7738,0,0.8362-0.3346,0.7315-0.5854c-0.1046-0.2508-0.1685-0.4608-0.1685-0.4608v-1.6c0,0,0.0746-0.2192,0.2831-0.3662c0.21-0.1462,0.6123-0.6692,0.6754-1.1715C22.5931,14.3908,22.6715,13.9615,22.1231,14.0815z M20.1808,21.1831c0,0,0.25-0.5015-0.0215-0.6062c-0.2723-0.1046-0.8154,0-0.8154,0s0.4531-0.5746,0.02-0.8162c-0.4315-0.2408-0.7285,0.3554-1.1069,0.6269c-0.3777,0.2723-0.7585,0.4223-1.22,0.5754c-0.46,0.1531-1.06,0.2192-1.06,0.2192s-0.6731-0.0662-1.1331-0.2192c-0.4608-0.1531-0.9138-0.3038-1.2923-0.5754c-0.3785-0.2715-0.6746-0.8685-1.1069-0.6269c-0.4323,0.2408,0.0215,0.8162,0.0215,0.8162s-0.5438-0.1046-0.8154,0c-0.2723,0.1046-0.02,0.6062-0.02,0.6062c-0.6062,0.0838-0.3946,0.4608-0.3946,0.4608s0.1508-0.1946,0.7785-0.1946s0.8869,0.6131,1.3054,0.6131c0.4185,0,0.4154-0.3977,0.4154-0.3977c0.7746,0.6485,2.2423,0.6485,2.2423,0.6485s1.3954,0,2.1692-0.6485c0,0-0.0392,0.3977,0.3792,0.3977c0.4185,0,0.6592-0.6131,1.2877-0.6131c0.6269,0,0.7692,0.1946,0.7692,0.1946S20.7885,21.2677,20.1808,21.1831z M15.2469,11.1692c0-0.0931,0.2946-0.1677,0.6592-0.1677c0.3638,0,0.6592,0.0746,0.6592,0.1677c0,0.0923-0.2954,0.1669-0.6592,0.1669C15.5415,11.3369,15.2469,11.2615,15.2469,11.1692z M16.6785,11.5038c-0.0208-0.1469-0.1092-0.1677-0.1092-0.1677s-0.3454,0.0892-0.6638,0.0892c-0.3192,0-0.6592-0.0892-0.6592-0.0892s-0.0838,0.0208-0.1046,0.1677C15.1208,11.65,14.9746,12.1,14.9746,12.1l0.2723-0.2985l0.23,0.2985l0.23-0.2985L15.9054,12.1l0.2038-0.2985L16.3423,12.1l0.2308-0.2985L16.8462,12.1C16.8462,12.1,16.7,11.6508,16.6785,11.5038z M15.9762,9.7162v0.8154l0.5608,0.2408l-0.2162-0.3346l0.44-0.21L15.9762,9.7162z M15.7377,12.1h0.3454v0.8785h-0.3454V12.1z M16.3654,18.3123c0,0,0.2262-0.3131,0.1792-0.5492c-0.0469-0.2354-0.2662-0.6069-0.3285-0.8446c-0.0631-0.2377,0.1523-0.4577,0.1523-0.4577l-0.1669-0.0315c0,0,0.2246-0.2038,0.1669-0.4238c-0.0577-0.22-0.1669-0.5015-0.1985-0.7523c-0.0315-0.2515,0.1985-0.5492,0.1985-0.5492l-0.2977,0.1723l-0.1623-0.1723l-0.1577,0.1723l-0.2923-0.1723c0,0,0.23,0.2977,0.1985,0.5492c-0.0315,0.2508-0.1415,0.5331-0.1985,0.7523c-0.0577,0.22,0.1677,0.4238,0.1677,0.4238l-0.1677,0.0315c0,0,0.2146,0.22,0.1515,0.4577c-0.0623,0.2377-0.2823,0.6092-0.3292,0.8446c-0.0469,0.2362,0.1777,0.5492,0.1777,0.5492l-0.4492-0.0938c0.2454,0.5015,0.5323,0.5638,0.8992,0.5638c0.3669,0,0.6585-0.0623,0.9038-0.5638C16.8123,18.2185,16.3654,18.3123,16.3654,18.3123z" />
  <path fill="#CF0828" d="M18.5192,13.0515c-0.46-0.1254-0.9523-0.7108-1.6008-0.7108s-0.9423,0.5023-0.9423,0.5023s-0.3592-0.5023-1.0077-0.5023s-1.2069,0.5854-1.6677,0.7108c-0.46,0.1262-0.8992,0-0.8992,0c0.1046,0.4808,0.6423,0.5908,0.6423,0.5908c0.0569,0.2985,0.5069,0.3085,0.5069,0.3085c0.0608,0.3554,0.7131,0.1108,0.7131,0.1108s-0.0408,0.35,0.2938,0.3077c0.3346-0.0415,0.9015-0.6277,0.9015-0.6277s-0.1631,0.1677-0.1415,0.3192c0.0208,0.1523,0.2808,0.1408,0.2808,0.1408c-0.23,0.23,0.1854,0.5023,0.1854,0.5023l0.1923-0.1462l0.1269,0.1462c0,0,0.3823-0.2715,0.1515-0.5023c0,0,0.2431,0.0115,0.2646-0.1408c0.0208-0.1523-0.15-0.3192-0.15-0.3192s0.5631,0.5862,0.8977,0.6277c0.3354,0.0415,0.2923-0.3077,0.2923-0.3077s0.6515,0.2454,0.7131-0.1108c0,0,0.4492-0.0108,0.5054-0.3085c0,0,0.5377-0.11,0.6423-0.5908C19.4192,13.0515,18.98,13.1777,18.5192,13.0515z" />
</svg>