<svg width="32" height="32" viewBox="0 0 32 32" xmlns="http://www.w3.org/2000/svg">
  <polygon fill="#FCD53F" points="11,6 21,6 22,7 22,25 21,26 11,26 10,25 10,7" />
  <rect fill="#0b338d" x="2" y="6" width="9" height="20" />
  <rect fill="#CF0828" x="21" y="6" width="9" height="20" />
  <path fill="#ccae6a" d="M20.036 17.373c-.127-.378-.451-.306-.451-.18a.648.648 0 01-.108-.885s.63.075.27-.412a1.18 1.18 0 00.558-.936c.017-.63-.703-1.027-1.009-.775 0 0-.018-.252-.144-.252s-.198.162-.198.162a1.015 1.015 0 01.288-.649c.27-.234.828-.865-.343-1.224s-1.225.379-1.045.54a1.269 1.269 0 01-.613.144c-.323-.017-.09-.395-.018-.558s.018-.738-.38-.72c-.395.018-.414.18-.557.234a.538.538 0 01-.286.017.538.538 0 01-.289-.018c-.143-.054-.162-.216-.558-.235s-.45.558-.378.72.306.542-.018.558a1.272 1.272 0 01-.613-.143c.18-.162.126-.901-1.044-.541s-.613.99-.343 1.225a1.013 1.013 0 01.289.648s-.072-.162-.199-.162-.143.252-.143.252c-.307-.252-1.027.144-1.01.775a1.181 1.181 0 00.56.937c-.362.485.27.412.27.412a.648.648 0 01-.11.885c0-.126-.323-.198-.451.18a.39.39 0 00.253.504 1.074 1.074 0 00.306 1.62 3.948 3.948 0 001.891.343c.469.036.56.27.56.27-.36.343.18.613.18.613.107.36.54-.036.54-.036l.306.271.306-.27s.433.396.54.036c0 0 .541-.27.18-.613 0 0 .09-.234.56-.27a3.946 3.946 0 001.89-.342 1.075 1.075 0 00.306-1.621.389.389 0 00.255-.504z" />
  <path fill="#cf0828" d="M15.856 15.77v-2.378h-2.378v2.378z" />
  <path fill="#FCD53F" d="M14.343 14.86l-.707.73.11.125.597-.657zm1.162-.927s.313.081.313-.199-.188-.28-.25-.28-.351.046-.36.162.112.19.047.253-.243.219-.243.219l.105.125a1.649 1.649 0 00.27-.3c.061-.087.015-.302.073-.315.17-.035.234.046.225.109s-.117.126-.117.126z" />
  <path fill="#f4f4f4" d="M14.92 15.184s.044.334.206.351.217-.518.482-.518.292.465 0 .537l-.04-.135s.19-.19.054-.217c-.135-.027-.198.144-.216.217s-.127.26-.289.26c-.27 0-.306-.247-.347-.438s.15-.057.15-.057zm-.482 0s-.045.334-.207.351-.217-.518-.482-.518-.293.465 0 .537l.04-.135s-.19-.19-.054-.217c.135-.027.198.144.216.217s.126.26.288.26c.27 0 .306-.247.347-.438s-.148-.057-.148-.057z" />
  <path fill="#f4f4f4" d="M14.713 13.491l.693.883-.347.946a.742.742 0 00-.347-.082.904.904 0 00-.37.082l-.37-.955z" />
  <polygon fill="#FCD53F" points="14.77 13.797 15.254 14.378 15.009 15.122 14.775 15.049 14.77 13.797" />
  <polygon fill="#FCD53F" points="14.611 13.797 14.126 14.378 14.372 15.122 14.606 15.049 14.611 13.797" />
  <path fill="#FCD53F" d="M13.478 15.986v1.477c0 .973.71 1.107 1.321.973a3.023 3.023 0 011.057 0v-2.45zm2.666-.216v-2.378h2.378v2.378zm2.378.216v1.477c0 .973-.71 1.107-1.321.973a3.023 3.023 0 00-1.057 0v-2.45z" />
  <path fill="#cf0828" d="M14.799 18.436l.048-.01v-2.44h-.36v2.49a1.858 1.858 0 00.312-.04zm.769-.037v-2.413h-.36v2.403a3.16 3.16 0 01.36.011zm-1.441.047v-2.46h-.36v2.277a.802.802 0 00.36.183zM16.432 13.392h.36v2.378h-.36zm.72 0h.361v2.378h-.36zm.721 0h.36v2.378h-.36zM16.504 16.382l.225-.18h.28v.145s.396-.007.72-.04.423.21.324.273.018.307 0 .423-.234.288-.18.19a.823.823 0 000-.37 1.106 1.106 0 01-.117.27c-.055.063-.244.072-.172.018s.145-.17.081-.234a.53.53 0 00-.357-.045 1.787 1.787 0 01-.101.36c-.037.018-.082-.027-.055-.126a.832.832 0 000-.27s-.188-.01-.18.072c.01.081.09.117.073.18s-.135.144-.144.036-.19-.18-.108-.234a1.161 1.161 0 00.162-.139.324.324 0 01-.173-.122c-.072-.099-.133-.09-.277-.09-.073.001 0-.117 0-.117zm0 1.081l.225-.18h.28v.144s.396-.005.72-.039.423.21.324.273.018.307 0 .424-.234.287-.18.189a.822.822 0 000-.37 1.12 1.12 0 01-.117.27c-.055.064-.244.073-.172.018s.145-.172.081-.234a.535.535 0 00-.357-.046 1.78 1.78 0 01-.101.361c-.037.017-.082-.027-.055-.127a.834.834 0 000-.27s-.188-.008-.18.072c.01.081.09.118.073.18s-.135.146-.144.037c-.01-.108-.19-.18-.108-.234a1.161 1.161 0 00.162-.14.325.325 0 01-.173-.121c-.072-.1-.133-.09-.277-.09-.073 0 0-.117 0-.117z" />
  <path opacity=".25" fill="#636363" d="M13.298 18.616c0 .026 1.324.386 1.472.414.15.027.095.333-.103.315a9.746 9.746 0 01-1.306-.296c-.126-.064-.063-.433-.063-.433zm1.82.446s.396.053.738.068a3.848 3.848 0 00.576-.016l.244.33s-.423.045-.712.045-.757-.045-.757-.045zm1.729 0s.567-.104.91-.186.792-.242.91-.26.198.193.234.222l.036.03a8.427 8.427 0 01-.883.36c-.288.082-1.207.208-1.207.208s-.132-.35 0-.374z" />
</svg>