<svg width="32" height="32" viewBox="0 0 32 32" xmlns="http://www.w3.org/2000/svg">
  <polygon fill="#028f4d" points="30,6 2,6 12,20 30,26" />
  <polygon fill="#0b338d" points="2,26 30,26 2,6" />
  <path fill="#f4f4f4" d="M8.34,16.6256l-0.51-0.4774l-0.5162,0.4708l0.0553-0.6962l-0.69-0.1101l0.579-0.391l-0.3442-0.6079l0.6667,0.2088l0.2607-0.6482l0.2524,0.6515l0.6694-0.2003l-0.352,0.6034l0.5739,0.3984l-0.6913,0.1013L8.34,16.6256L8.34,16.6256z M9.6987,20.8408l-0.5501-0.3667L8.613,20.8606l0.1885-0.6227l-0.5433-0.3766l0.6667-0.0178l0.1995-0.6198l0.2238,0.612l0.6667-0.0062l-0.5284,0.3961L9.6987,20.8408L9.6987,20.8408z M8.4149,24.6256l-0.51-0.4774l-0.5162,0.4708l0.0553-0.6962l-0.69-0.1101l0.579-0.391l-0.3442-0.6079l0.6667,0.2088l0.2607-0.6482l0.2524,0.6515l0.6694-0.2003L8.486,23.429L9.06,23.8274l-0.6913,0.1013L8.4149,24.6256L8.4149,24.6256z M5.0079,20.2894l-0.51-0.4774l-0.5162,0.4708l0.0553-0.6962l-0.69-0.1101l0.579-0.391l-0.3442-0.6079l0.6667,0.2088l0.2607-0.6482l0.2524,0.6515l0.6694-0.2003l-0.352,0.6034l0.5739,0.3984l-0.6913,0.1013L5.0079,20.2894L5.0079,20.2894z M11.5638,19.1537l-0.51-0.4774l-0.5162,0.4708l0.0553-0.6962l-0.69-0.1101l0.579-0.391l-0.3442-0.6079l0.6667,0.2088l0.2607-0.6482l0.2524,0.6515l0.6694-0.2003l-0.352,0.6034l0.5739,0.3984l-0.6913,0.1013L11.5638,19.1537L11.5638,19.1537z" />
  <path fill="#FFC83D" d="M13.2592,16c0-1.5138,1.2269-2.7408,2.7408-2.7408S18.7408,14.4862,18.7408,16S17.5138,18.7408,16,18.7408S13.2592,17.5138,13.2592,16z" />
  <path fill="#1B8A42" d="M14.3554,14.7377c0,0,0.8346,0.7738,1.2638,0.8069c0.7,0.0538,1.3669-0.5292,1.3669-0.9592l0.6577-0.2777v0.8615l0.6269,0.43l-1.1746,1.0762v1.2915l-0.7031-0.1708l-0.0508-0.8969c0,0-0.0315-0.3408-0.4615-0.3408c-0.4308,0-0.7677-0.0269-0.8569-0.26C14.9992,16.2346,13.86,16.46,13.86,16.46l0.7377-1.0285l-0.2423-0.2623V14.7377z" />
  <path fill="#FFC83D" d="M25.09,7.1677c0.1785-0.14,1.8531,1.5146,2.0523,1.8338c0.1992,0.3192,0.12,1.5146,0.3192,2.0531c0.1992,0.5385,0.3777,0.6585,0.5777,0.5385c0.1992-0.12,0.8977,0,0.9969,0.2592c0,0-0.5585,0.3392-0.5977,0.5785c0,0-1.7738,0.6177-2.7908,1.1362c-1.0162,0.5185-0.7531,0.2523-1.5938,0.6185c-1.2362,0.5377-2.3531,0.2785-3.1692,0.1592c-0.8185-0.1192-0.5792-0.2992,0-0.2185c0.5777,0.08,2.3108-0.1,2.77-0.2592c0.4585-0.1592,1.3562-0.8769,1.7346-1.0562c0.3785-0.1792,0.8569-0.8369,0.4385-1.2362c-0.42-0.4008-1.6754-0.9592-2.1738-1.4977c-0.4985-0.5377-0.4977-0.6177,0.2792-0.4977c0.7777,0.12,1.46,0.53,1.8331,0.9023c0.4,0.3992,0.7546-0.1115,0.5146-0.75c-0.2392-0.6385-0.5731-0.5715-0.7931-1.15C25.2692,8.0038,24.91,7.3069,25.09,7.1677z" />
</svg>