<svg width="32" height="32" viewBox="0 0 32 32" xmlns="http://www.w3.org/2000/svg">
  <polygon fill="#CF0828" points="16,6 30,6 30,26 2,26 2,16" />
  <polygon fill="#062365" points="4.1,6 7.25,6 9,7 10.75,6 13.9,6 16,7.5 16,9.25 15,11 16,12.75 16,14.5 13.9,16 10.75,16 9,15 7.25,16 4.1,16 2,14.5 2,12.75 3,11 2,9.25 2,7.5" />
  <polygon fill="#F4F4F4" points="16,6 15.3,6.25 14.6,6 13.9,6 10.75,8.25 10.75,6 10,6 9,6.5 8,6 7.25,6 7.25,8.25 4.1,6 2,6 2.25,6.5 2,7 2,7.5 4.45,9.25 2,9.25 2,10 2.5,11 2,12 2,12.75 4.45,12.75 2,14.5 2,16 2.7,15.75 3.4,16 4.1,16 7.25,13.75 7.25,16 8,16 9,15.5 10,16 10.75,16 10.75,13.75 13.9,16 16,16 15.75,15.5 16,15 16,14.5 13.55,12.75 16,12.75 16,12 15.5,11 16,10 16,9.25 13.55,9.25 16,7.5" />
  <path fill="#CF0828" d="M7.25,12.75h-0.7L2,16h1.4l3.85-2.75V12.75z M11.45,12.75L16,16v-1l-3.15-2.25H11.45z M10.75,9.25h0.7L16,6h-1.4l-3.85,2.75V9.25z M5.15,9.25L2,7V6l4.55,3.25H5.15z M16,12h-6v4H8v-4H2v-2h6V6h2v4h6V12z" />
  <path fill="#1c1c1c" d="M18.8735,11.8346v6.9746c0,0.4915,0.1123,1.1654,1.0092,1.5823c0.7638,0.3554,1.9023,0.7638,2.42,1.0915c0.29,0.1815,0.7377,0.4908,0.7377,0.4908s0.4477-0.3085,0.7369-0.4908c0.5185-0.3277,1.5762-0.7362,2.34-1.0915c0.8977-0.4169,1.0092-1.0908,1.0092-1.5823v-6.9746H18.8735z" />
  <path fill="#44911B" d="M19.2358,18.6562c0.0054,0.4569,0.1646,1.1415,0.9854,1.5231c0.7154,0.3323,1.6438,0.7146,2.1292,1.0215c0.2708,0.1708,0.69,0.4592,0.69,0.4592s0.4192-0.2885,0.6892-0.4592c0.4854-0.3069,1.4169-0.6892,2.1315-1.0215c0.8208-0.3815,0.8977-1.0669,0.9031-1.5231C26.7642,18.6562,19.2358,18.6562,19.2358,18.6562z" />
  <path fill="#f4f4f4" d="M19.2358,12.2354h7.5285v6.4915h-7.5285L19.2358,12.2354z" />
  <path fill="#CF0828" d="M25.9717,17.8277c-0.0538-0.3,0-0.7638-0.0815-0.9008c-0.0815-0.1362-0.8454-0.4085-1.3915-0.3546c-0.5446,0.0546-0.1638-0.6815,0.2185-0.8723c0.3823-0.1915,0.7369-0.3554,0.7908-0.5731c0.0546-0.2185-0.1369-0.3823-0.4638-0.3277c-0.3277,0.0546-0.5185,0.0546-0.71,0.2454c-0.1908,0.1908-0.2177-0.0269-0.3-0.2454c-0.0808-0.2177,0.0538-0.3,0.0823-0.5185c0.0269-0.2177-0.0277-0.8185-0.1915-1.0638c-0.1631-0.2454-0.0792-0.4085-0.3515-0.5454c-0.2731-0.1369-0.5708-0.2454-0.5708-0.2454s-0.3,0.1092-0.5731,0.2454c-0.2723,0.1369-0.1908,0.3-0.3538,0.5454c-0.1638,0.2454-0.2185,0.8462-0.1915,1.0638c0.0277,0.2185,0.1631,0.3008,0.0823,0.5185c-0.0823,0.2185-0.1092,0.4362-0.3,0.2454c-0.1915-0.1908-0.3823-0.1908-0.71-0.2454c-0.3269-0.0546-0.5185,0.1092-0.4638,0.3277c0.0538,0.2177,0.4085,0.3815,0.7908,0.5731c0.3823,0.1908,0.7631,0.9269,0.2185,0.8723c-0.5462-0.0538-1.3092,0.2185-1.3915,0.3546c-0.0815,0.1369-0.0277,0.6008-0.0815,0.9008c-0.0546,0.3-0.1908,0.5454-0.0546,0.4908c0.1369-0.0538,0.7638-0.2723,1.0646-0.4908c0.3-0.2185,0.6546,0.8731,0.5185,1.1454c-0.1377,0.2723-0.1638,0.4638-0.3823,0.3546c-0.2185-0.1092-0.5454,0.0546-0.6546,0.2731c-0.1092,0.2177,0.1362,0.3538,0.4092,0.5446c0.2723,0.1915,0.5992-0.1908,0.7362-0.3815c0.1362-0.1915,1.3362-0.7908,1.3362-0.7908s1.1985,0.5992,1.3338,0.7908c0.1369,0.1908,0.4631,0.5731,0.7362,0.3815c0.2723-0.1908,0.5177-0.3269,0.4077-0.5446c-0.1092-0.2185-0.4362-0.3823-0.6546-0.2731c-0.2185,0.1092-0.2454-0.0823-0.3831-0.3546c-0.1354-0.2723,0.2185-1.3638,0.5185-1.1454c0.3008,0.2185,0.9277,0.4362,1.0646,0.4908C26.1625,18.3731,26.0271,18.1277,25.9717,17.8277z" />
  <path fill="#FCD53F" d="M25.2056,16.3c0,0,0.0823,0.1908,0.1908,0.1908c0.1085,0,0.3008-0.2446,0.1369-0.4354c-0.1631-0.1915-0.3008-0.2731-0.2177-0.4362c0.0808-0.1638-0.1369-0.4369-0.1369-0.4369c-0.1092,0.1631-0.4092,0.4092-0.9277,0.0815c-0.5185-0.3269-0.9277-0.3823-1.0092-0.1908h-0.4823c-0.0808-0.1908-0.4908-0.1362-1.0092,0.1908s-0.8192,0.0815-0.9277-0.0815c0,0-0.2177,0.2731-0.1369,0.4369c0.0823,0.1631-0.0546,0.2446-0.2177,0.4362c-0.1638,0.1908,0.0277,0.4354,0.1369,0.4354c0.1092,0,0.1908-0.1908,0.1908-0.1908s0.3538,0.3,0.3277,0.7092c-0.0277,0.4085-0.5731,0.79-0.5731,0.79c0.1638,0.1908,0.1638,0.4646,0.3277,0.9546c0.1631,0.4915,0.7362,0.3546,0.7362,0.3546c0.0277,0.3008,0.5462,0.6008,0.7362,0.6008c0.1915,0,0.2454,0.1631,0.2454,0.1631s-0.2177,0.1369-0.1092,0.2462c0.1023,0.1015,0.4685-0.0362,0.5138-0.0531c0.0454,0.0169,0.4115,0.1546,0.5138,0.0531c0.1092-0.11-0.1092-0.2462-0.1092-0.2462s0.0538-0.1631,0.2454-0.1631c0.19,0,0.7085-0.3008,0.7362-0.6008c0,0,0.5731,0.1369,0.7362-0.3546c0.1638-0.4908,0.1638-0.7638,0.3277-0.9546c0,0-0.5454-0.3815-0.5731-0.79C24.8517,16.6,25.2056,16.3,25.2056,16.3z" />
  <path fill="#83CBFF" d="M25.5379,16.0815c-0.1638-0.1908-0.3-0.2731-0.2185-0.4362c0.0823-0.1638-0.1092-0.2723-0.1092-0.2723c-0.1092,0.1638-0.5646,0.3969-0.9538,0.1638c-0.4092-0.2462-0.5185-0.1915-0.6277-0.2462c0,0,0.0669,0.19-0.0815,0.2462c-0.2177,0.0815-0.3008-0.11-0.3008-0.11h-0.49c0,0-0.0823,0.1915-0.3008,0.11c-0.1485-0.0562-0.0815-0.2462-0.0815-0.2462c-0.11,0.0546-0.2185,0-0.6277,0.2462c-0.3892,0.2331-0.8454,0-0.9538-0.1638c0,0-0.1915,0.1092-0.1092,0.2723c0.0815,0.1631-0.0546,0.2454-0.2185,0.4362c-0.1638,0.1908,0.0815,0.0269,0.1908,0.0269S21.0379,16.3,21.0379,16.3s0.3,0.2185,0.2723,0.7369c-0.0215,0.4092-0.6277,0.8169-0.6277,0.8169c0.1631,0.1923,0.3269,0.8738,0.3269,0.8738c0.1638,0.3554,3.7046-1.2815,3.6823-1.6908C24.6648,16.5185,24.964,16.3,24.964,16.3s0.2731-0.1915,0.3823-0.1915C25.4556,16.1092,25.7017,16.2723,25.5379,16.0815z" />
  <path fill="#D3D3D3" d="M24.6917,17.0369c-0.0038-0.0723-0.0008-0.1385,0.0062-0.1985c-0.2592,0.0154-0.5131-0.1215-0.6062-0.2385c-0.1092-0.1362-0.2446-0.1362-0.4908,0c-0.2454,0.1369-0.2454,0.5177-0.2454,0.5177v0.0554l1.5,0.9808l0.4323-0.2585c0.0108-0.0154,0.02-0.0285,0.0315-0.0423C25.3194,17.8538,24.714,17.4462,24.6917,17.0369z" />
  <path fill="#F3C07B" d="M21.2009,15.9185l0.1908,2.0185l0.8723,0.6546l0.9008-0.7369l-0.1908-0.5723l-0.1092-0.7362l-0.3277-0.2185l-0.2731-0.5454l-0.3538-0.0277l-0.1908,0.1362c0,0-0.1638-0.1092-0.1638-0.0815s-0.1369,0.1638-0.1369,0.1638S21.2009,15.9185,21.2009,15.9185z" />
  <path fill="#1c1c1c" d="M22.7279,16l0.3277-0.0815l0.4638,0.8185l0.4631-0.0546L24.0648,16.9l-1.2546,0.4092v-0.3277l0.0546-0.1085L22.7279,16z" />
  <path fill="#1c1c1c" d="M21.8556,16.2723l0.1362,1.9646l0.1369-0.0823c0,0-0.1908-1.6092-0.1638-1.5823c0.0269,0.0277,0.4092,1.3915,0.4092,1.3915l0.1638,0.0546l-0.4638-1.6915l0.7362,1.2823l0.1362-0.3277l-0.7631-1.0362l-0.2185-0.2723C21.9648,15.9731,21.8556,16.2723,21.8556,16.2723z" />
  <path fill="#8A4B1E" d="M22.7825,17.1177l1.2285-0.2723l0.5454,0.8177L24.3379,18.29c0,0-0.9277,0.4638-0.9538,0.4915c-0.0277,0.0269-0.9008-0.0823-0.9008-0.0823L22.7825,17.1177z" />
  <path fill="#D3D3D3" d="M24.2009,18.8646c0,0,0.0546-0.1638,0.2185-0.1369c0.1631,0.0269,0.1092,0.2177,0.1092,0.2177s0.3,0.1377,0.4638-0.2177c0.0115-0.0162,0.02-0.0338,0.0269-0.0538c0.0985-0.2954,0.1369-0.6269,0.3-0.8192c0,0-0.0154-0.0092-0.0408-0.0285c-0.1446,0.0585-0.2592,0.1385-0.2592,0.1385s0-0.2446-0.2723-0.3c-0.2723-0.0546-0.5454,0.3546-0.5454,0.3546c-0.1092-0.3269-0.5462,0-0.7369,0.3c-0.19,0.3008-0.6546,0.2185-0.6546,0.2185l-0.0831-0.1638c0,0,0.0285-0.2723-0.19-0.4092c-0.2185-0.1362-0.5462,0.1908-0.5462,0.1908c0.0823-0.3546-0.3-0.3008-0.3808-0.2446c-0.0823,0.0538-0.2185-0.1369-0.4092-0.1908c-0.1431-0.0408-0.2708,0.2692-0.3369,0.53c0.0392,0.1369,0.0723,0.2846,0.1185,0.4246c0.0069,0.02,0.0162,0.0385,0.0269,0.0538c0.1638,0.3554,0.4638,0.2177,0.4638,0.2177s-0.0538-0.1908,0.1092-0.2177c0.1638-0.0269,0.2185,0.1369,0.2185,0.1369s0.1908-0.0546,0.2454,0.1092c0.0538,0.1638-0.1908,0.2185-0.1908,0.2185c-0.0269,0.0538,0.1362,0.3,0.7038,0.4269c0.1085,0.0769,0.1685,0.2262,0.1685,0.2262v0.2446h0.5462v-0.2446c0,0,0.0592-0.1492,0.1685-0.2277c0.5677-0.1269,0.7308-0.3723,0.7038-0.4269c0,0-0.2446-0.0546-0.1908-0.2185C24.0102,18.8092,24.2009,18.8646,24.2009,18.8646z" />
  <path fill="#f4f4f4" d="M22.6602,12.9723l0.2738,0.1362l-0.0546,0.1092l-0.2723-0.0546C22.6071,13.1631,22.6602,12.9723,22.6602,12.9723z M23.3971,12.9723l-0.2723,0.1362l0.0538,0.1092l0.2723-0.0546L23.3971,12.9723z" />
  <path fill="#1c1c1c" d="M23.574,13.3262l0.0538-0.1908l-0.2446,0.2462l-0.1092,0.1362l-0.1369-0.1362l-0.1362,0.1362l-0.1362-0.1362l-0.1369,0.1362l-0.1092-0.1362l-0.2446-0.2462l0.0538,0.1908l-0.2731,0.1915l0.2462-0.1092l0.1362,0.0546l0.1362,0.1362l0.1915-0.0538l0.1362,0.1631l0.1362-0.1631l0.1915,0.0538l0.1362-0.1362l0.1362-0.0546l0.2462,0.1092L23.574,13.3262z" />
</svg>