<?xml version="1.0" encoding="UTF-8"?>
<svg xmlns="http://www.w3.org/2000/svg" xmlns:xlink="http://www.w3.org/1999/xlink" width="32px" height="32px" viewBox="0 0 32 32" version="1.1">
  <path fill="#00a6ed" d="M 6 6 L 26 6 L 26 26 L 6 26 Z M 6 6 "/>
  <path fill="#f4f4f4" d="M 11.03125 11.171875 C 11.03125 10.378906 11.582031 9.847656 12.359375 9.847656 L 15.21875 9.847656 C 19.074219 9.847656 21.28125 12.328125 21.28125 16.152344 C 21.28125 19.769531 18.9375 22.109375 15.390625 22.109375 L 12.390625 22.109375 C 11.824219 22.109375 11.03125 21.800781 11.03125 20.820312 Z M 13.617188 19.734375 L 15.355469 19.734375 C 17.578125 19.734375 18.59375 18.097656 18.59375 16.03125 C 18.59375 13.824219 17.5625 12.222656 15.183594 12.222656 L 13.617188 12.222656 Z M 13.617188 19.734375 "/>
</svg>
