<svg xmlns="http://www.w3.org/2000/svg" width="32" height="32" viewBox="0 0 32 32">
  <rect x="2" y="6" fill="#FCD53F" width="11.2" height="8" />
  <polygon fill="#0C338C" points="30,26 30,6 12.5,13.5 2,26" />
  <polygon fill="#F4F4F4" points="2,26 30,6 13.2,6 2,14" />
  <path fill="#1c1c1c" d="M10.3973,18.5975L10,19.2857l-0.3973-0.6882c-2.0743-0.1887-3.7257-1.8402-3.9145-3.9145L5,14.2857l0.6882-0.3973c0.1887-2.0743,1.8402-3.7257,3.9145-3.9145L10,9.2857l0.3973,0.6882c2.0743,0.1887,3.7257,1.8402,3.9145,3.9145L15,14.2857l-0.6882,0.3973C14.1231,16.7573,12.4716,18.4088,10.3973,18.5975z M6.25,14.2857c0,2.0711,1.6789,3.75,3.75,3.75s3.75-1.6789,3.75-3.75s-1.6789-3.75-3.75-3.75S6.25,12.2146,6.25,14.2857z" />
  <polygon fill="#CF0828" points="11.4434,14.2857 12.1651,13.0357 10.7217,13.0357 10,11.7857 9.2783,13.0357 7.8349,13.0357 8.5566,14.2857 7.8349,15.5357 9.2783,15.5357 10,16.7857 10.7217,15.5357 12.1651,15.5357" />
</svg>