<svg width="32" height="32" viewBox="0 0 32 32" xmlns="http://www.w3.org/2000/svg">
  <polygon fill="#418FDE" points="2,6 30,6 30,19.33333 29.5,19.88889 30,20.44444 30,21.55555 29.5,22.11111 30,22.66667 30,26 2,26 2,22.66667 2.5,22.11111 2,21.55556 2,20.44444 2.5,19.88889 2,19.33333" />
  <rect x="2" y="19.33333" width="28" height="1.11111" fill="#FCD53F" />
  <rect x="2" y="21.55556" width="28" height="1.11111" fill="#FCD53F" />
  <polygon fill="#f4f4f4" points="6.4443,13.8133 5.6499,11.2391 3.0757,10.4447 5.6499,9.6498 6.4443,7.0755 7.2388,9.6498 9.813,10.4447 7.2388,11.2391" /> <polygon fill="#EF3340" points="3.9233,10.4447 5.8501,11.0389 6.4443,12.9657 7.0386,11.0389 8.9653,10.4447 7.0386,9.85 6.4443,7.9232 5.8501,9.85" />
</svg>