<svg width="32" height="32" viewBox="0 0 32 32" xmlns="http://www.w3.org/2000/svg">
  <rect x="2" y="6" fill="#008E48" width="28" height="20" />
  <path fill="#FCD53F" d="M27.2,16L16,24L4.8,16L16,8L27.2,16z" />
  <circle fill="#072975" cx="15.9815" cy="15.9415" r="5" />
  <path fill="#B4F6FC" d="M11.5692,13.5902c-0.257,0.4808-0.432,1.0088-0.5203,1.5663c3.0931-0.2245,7.291,1.4641,9.0926,3.5576c0.3112-0.4676,0.542-0.991,0.6836-1.5516C18.6015,14.9885,14.6955,13.5778,11.5692,13.5902z" />
  <path fill="#83CBFF" d="M11.3547,16.1808h0.7742v0.7742h-0.7742V16.1808z M12.129,17.7292h0.7742v0.7742H12.129V17.7292z" />
  <path fill="#5A93CB" d="M13.6774,16.1808h0.7742v0.7742h-0.7742V16.1808z M15.2259,16.955h0.7742v0.7742h-0.7742V16.955z M18.3228,18.5035h0.7742v0.7742h-0.7742V18.5035z M16.0001,19.2777h0.7742v0.7742h-0.7742V19.2777z M18.3228,14.6323h0.7742v0.7742h-0.7742V14.6323z" />
  <path fill="#0084CE" d="M16.7744,17.7292h0.7742v0.7742h-0.7742V17.7292z" />
</svg>