<svg width="32" height="32" viewBox="0 0 32 32" xmlns="http://www.w3.org/2000/svg">
  <polygon fill="#F4F4F4" points="2,12.75 3,11.75 29,11.75 30,12.75 30,19.25 29,20.25 3,20.25 2,19.25" />
  <rect fill="#F8312F" x="2" y="6" width="28" height="6.75" />
  <rect fill="#0C338C" x="2" y="19.25" width="28" height="6.75" />
  <path fill="#F8312F" d="M11.3426,9.1334v7.4971c0,2.366,1.9181,4.2842,4.2841,4.2842s4.2842-1.9181,4.2842-4.2842V9.1334H11.3426z" />
  <path fill="#F4F4F4" d="M13.1893,16h1.625v1.625h-1.625V16z M14.8143,17.625h1.625v1.625h-1.625V17.625z M14.8143,14.375h1.625V16h-1.625V14.375z M16.4393,16h1.625v1.625h-1.625V16z M16.4393,12.75h1.625v1.625h-1.625V12.75z M18.0643,14.375h1.5217V16h-1.5217V14.375z M13.1893,12.75h1.625v1.625h-1.625V12.75z M18.0643,19.25h0.5233c0.4069-0.4596,0.7079-1.0133,0.8671-1.625h-1.3904V19.25z M16.4393,19.25v1.2551c0.6039-0.1267,1.1557-0.3932,1.625-0.7612V19.25H16.4393z M13.1893,19.25v-1.625h-1.3903c0.1592,0.6117,0.4595,1.1654,0.8671,1.625H13.1893z M11.6676,14.375h1.5216V16h-1.5216V14.375z M13.1893,19.25v0.494c0.4693,0.3679,1.0212,0.6344,1.625,0.7612V19.25H13.1893z" />
  <path fill="#0C338C" d="M20.0188,9.5917l-1.2987,0.5141l-0.8632-1.0933l-1.1889,0.7319l-1.0413-0.9276l-1.042,0.9282l-1.1869-0.7332l-0.8652,1.0946L11.236,9.591l-0.7293,1.352l0.8652,1.8603l0.1144-0.0533c0.507-0.2359,1.0419-0.4303,1.5879-0.5772l0.026-0.0072c0.5551-0.1475,1.1063-0.2457,1.64-0.2931l0.0416-0.0039c0.4583-0.039,1.2324-0.039,1.6906,0l0.0377,0.0033c0.5356,0.0481,1.0907,0.1469,1.6484,0.2944l0.0215,0.0058c0.5434,0.1463,1.0777,0.3406,1.5867,0.5779l0.1137,0.0533l0.8652-1.8596C20.7455,10.9437,20.0188,9.5917,20.0188,9.5917z" />
  <path fill="#0092E7" d="M14.7415,9.9426l0.1437,1.6659c0.2145-0.0169,0.4739-0.0331,0.7417-0.0331s0.5272,0.0162,0.7416,0.0331l0.1437-1.6659l-0.8853-0.7885L14.7415,9.9426z M19.9031,9.9082l-1.1037,0.4375l-0.4342,1.6179c0.4752,0.1339,0.9425,0.3042,1.3936,0.5064l0.7059-1.5184C20.4647,10.9515,19.9031,9.9082,19.9031,9.9082z M11.3511,9.9069l-0.5629,1.0439l0.7065,1.5184c0.4485-0.2015,0.9159-0.3718,1.3936-0.5064l-0.4355-1.6185C12.4528,10.3443,11.3511,9.9069,11.3511,9.9069z" />
</svg>