<?xml version="1.0" encoding="UTF-8"?>
<svg xmlns="http://www.w3.org/2000/svg" xmlns:xlink="http://www.w3.org/1999/xlink" width="32px" height="32px" viewBox="0 0 32 32" version="1.1">
  <path fill="#00a6ed" d="M 6 6 L 26 6 L 26 26 L 6 26 Z M 6 6 "/>
  <path fill="#f4f4f4" d="M 18.835938 18.667969 C 18.835938 21.558594 16.992188 22.316406 15.425781 22.316406 C 14.234375 22.316406 12.253906 21.851562 12.253906 20.355469 C 12.253906 19.890625 12.652344 19.304688 13.21875 19.304688 C 13.90625 19.304688 14.511719 19.941406 15.285156 19.941406 C 16.25 19.941406 16.25 19.042969 16.25 18.492188 L 16.25 11.085938 C 16.25 10.226562 16.800781 9.742188 17.542969 9.742188 C 18.285156 9.742188 18.835938 10.226562 18.835938 11.085938 Z M 18.835938 18.667969 "/>
</svg>
