<svg width="32" height="32" viewBox="0 0 32 32" xmlns="http://www.w3.org/2000/svg">
  <polygon fill="#F4F4F4" points="3.96,6 28.04,6 30,7.4 30,24.6 28.04,26 3.96,26 2,24.6 2,7.4" />
  <polygon fill="#F8312F" points="2,6 3.96,6 30,24.6 30,26 28.04,26 2,7.4" />
  <polygon fill="#F8312F" points="30,6 28.04,6 2,24.6 2,26 3.96,26 30,7.4" />
  <path fill="#FCD53F" d="M17.947,7.538C17.818,7.588 17.752,7.819 17.752,7.819C17.752,7.819 17.636,7.558 17.286,7.728C17.286,7.728 17.477,7.919 17.436,8.079C17.395,8.24 17.285,8.311 17.095,8.285C16.875,8.255 16.834,7.999 16.834,7.999C16.834,7.999 16.971,7.974 16.985,7.858C16.995,7.788 16.96,7.688 16.84,7.678C16.748,7.671 16.659,7.728 16.659,7.838C16.659,7.919 16.76,7.988 16.76,7.988C16.76,7.988 16.68,8.161 16.498,8.169C16.268,8.179 16.166,8.049 16.163,7.828C16.158,7.512 16.564,7.508 16.564,7.508C16.564,7.508 16.528,7.352 16.388,7.272C16.248,7.192 16.118,7.302 16.118,7.302C16.118,7.302 16.218,7.077 16.188,6.921C16.162,6.788 16.062,6.655 16.025,6.611L16.025,6.596L16.019,6.604L16.013,6.596L16.013,6.612C15.977,6.656 15.876,6.788 15.851,6.922C15.821,7.078 15.921,7.304 15.921,7.304C15.921,7.304 15.791,7.193 15.65,7.274C15.509,7.354 15.474,7.509 15.474,7.509C15.474,7.509 15.88,7.514 15.875,7.83C15.872,8.051 15.769,8.181 15.538,8.171C15.358,8.162 15.278,7.99 15.278,7.99C15.278,7.99 15.378,7.921 15.378,7.84C15.378,7.729 15.288,7.672 15.198,7.68C15.078,7.69 15.043,7.79 15.052,7.86C15.068,7.975 15.203,8.001 15.203,8.001C15.203,8.001 15.163,8.257 14.942,8.286C14.752,8.312 14.642,8.242 14.602,8.081C14.562,7.921 14.752,7.73 14.752,7.73C14.401,7.559 14.286,7.821 14.286,7.821C14.286,7.821 14.221,7.588 14.092,7.538C13.961,7.488 13.831,7.508 13.831,7.508C13.831,7.508 14.072,7.89 14.232,8.26C14.392,8.631 14.452,9.012 14.452,9.012C14.452,9.012 14.726,8.82 15.174,8.712C15.52,8.628 15.962,8.622 16.02,8.621C16.078,8.622 16.519,8.627 16.865,8.712C17.314,8.821 17.588,9.012 17.588,9.012C17.588,9.012 17.648,8.631 17.808,8.26C17.969,7.89 18.209,7.508 18.209,7.508C18.209,7.508 18.078,7.488 17.947,7.538Z" />
  <path fill="#F8312F" d="M17.586,9.012C17.586,9.012 17.219,8.772 16.835,8.686C16.475,8.607 16.073,8.606 16.018,8.606C15.964,8.606 15.562,8.607 15.203,8.686C14.817,8.772 14.452,9.012 14.452,9.012C14.452,9.012 14.137,10.182 14.322,11.032C14.685,12.714 15.876,13.406 16.013,13.482L16.013,13.489L16.019,13.486L16.025,13.489L16.025,13.482C16.162,13.407 17.354,12.714 17.717,11.032C17.902,10.182 17.586,9.012 17.586,9.012Z" />
  <path fill="#FCD53F" d="M17.082,9.017C17.082,9.017 17.011,9.112 16.765,9.112C16.52,9.112 16.629,9.08 16.435,9.08C16.238,9.08 16.154,9.13 16.154,9.19C16.154,9.25 16.224,9.288 16.485,9.288C16.745,9.288 16.842,9.222 17.052,9.222C17.262,9.222 17.342,9.298 17.342,9.393C17.342,9.488 17.206,9.664 16.99,9.608C16.99,9.608 17.142,9.683 17.302,9.673C17.462,9.664 17.597,9.634 17.608,9.669C17.618,9.704 17.683,9.889 17.674,9.99C17.658,10.145 17.462,10.2 17.382,10.191C17.302,10.181 17.198,10.256 17.168,10.291L17.187,10.185L17.106,10.215L17.152,10.085L17.052,10.085C17.052,10.085 17.102,9.985 17.182,9.985C17.262,9.985 17.443,10.005 17.454,9.95C17.463,9.895 17.403,9.82 17.288,9.825C17.173,9.829 16.952,9.895 16.817,9.859C16.817,9.859 16.772,9.924 16.812,9.975C16.852,10.025 16.912,10.085 16.882,10.12C16.852,10.155 16.776,10.155 16.707,10.15C16.636,10.145 16.395,10.165 16.311,10.195C16.225,10.225 16.145,10.271 16.145,10.271L16.185,10.155C16.185,10.155 16.105,10.13 16.065,10.165C16.065,10.165 16.081,10.091 16.145,10.075L16.07,10.055C16.07,10.055 16.101,9.965 16.211,9.975C16.321,9.985 16.371,10.01 16.406,9.97C16.442,9.93 16.321,9.85 16.321,9.85C16.321,9.85 16.231,9.885 16.031,9.915C15.83,9.946 15.7,9.935 15.7,9.935C15.7,9.935 15.675,10.146 15.354,10.181C15.033,10.215 14.873,10.065 14.798,10.035C14.722,10.005 14.617,10.031 14.617,10.031L14.667,9.935L14.546,9.961C14.546,9.961 14.538,9.845 14.622,9.841L14.512,9.811C14.512,9.811 14.592,9.715 14.702,9.741C14.812,9.765 14.868,9.859 14.972,9.911C15.143,9.996 15.539,9.936 15.244,9.876C15.175,9.862 15.126,9.796 15.126,9.796C15.126,9.796 14.938,9.836 14.792,9.611C14.693,9.456 14.647,9.33 14.466,9.365C14.466,9.365 14.552,9.255 14.647,9.29C14.647,9.29 14.592,9.22 14.507,9.225C14.507,9.225 14.547,9.125 14.667,9.16C14.667,9.16 14.602,9.1 14.542,9.105C14.542,9.105 14.576,8.999 14.737,9.089C14.896,9.177 14.8,9.253 14.831,9.308C14.851,9.342 14.895,9.404 15.002,9.498C15.182,9.658 15.267,9.699 15.212,9.536C15.152,9.496 15.116,9.393 15.102,9.343C15.086,9.293 15.002,9.173 15.026,9.142C15.052,9.112 15.126,9.168 15.126,9.168C15.126,9.168 15.222,9.127 15.352,9.127C15.482,9.127 15.532,9.187 15.532,9.187C15.532,9.187 15.622,9.117 15.637,9.152C15.652,9.187 15.587,9.243 15.557,9.303C15.527,9.363 15.562,9.433 15.562,9.433C15.562,9.433 15.649,9.548 15.83,9.553C16.01,9.558 16.278,9.528 16.374,9.508C16.468,9.488 16.634,9.455 16.745,9.475C16.855,9.495 17.166,9.488 17.156,9.408C17.145,9.328 17.071,9.302 16.916,9.322C16.76,9.342 16.625,9.392 16.339,9.372C16.053,9.352 16.025,9.207 16.043,9.136C16.068,9.041 16.229,8.983 16.379,8.983C16.53,8.983 16.718,9.046 16.828,9.046C16.939,9.048 17.082,9.017 17.082,9.017ZM16.938,10.399C16.938,10.399 16.876,10.485 16.655,10.485C16.434,10.485 16.533,10.455 16.357,10.455C16.182,10.455 16.105,10.5 16.105,10.555C16.105,10.608 16.168,10.642 16.402,10.642C16.635,10.642 16.722,10.584 16.91,10.584C17.099,10.584 17.172,10.652 17.172,10.737C17.172,10.823 17.05,10.98 16.858,10.931C16.858,10.931 16.992,10.998 17.135,10.989C17.28,10.981 17.402,10.954 17.41,10.985C17.418,11.017 17.476,11.183 17.468,11.274C17.455,11.414 17.279,11.463 17.207,11.454C17.135,11.445 17.04,11.512 17.013,11.544L17.031,11.449L16.958,11.476L16.999,11.359L16.909,11.359C16.909,11.359 16.955,11.269 17.026,11.269C17.098,11.269 17.261,11.287 17.269,11.238C17.278,11.188 17.224,11.121 17.121,11.125C17.017,11.129 16.818,11.188 16.698,11.157C16.698,11.157 16.658,11.215 16.694,11.261C16.729,11.305 16.783,11.359 16.756,11.391C16.729,11.422 16.662,11.422 16.599,11.418C16.536,11.414 16.32,11.432 16.244,11.458C16.167,11.485 16.095,11.525 16.095,11.525L16.131,11.422C16.131,11.422 16.058,11.399 16.022,11.431C16.022,11.431 16.036,11.363 16.095,11.349L16.027,11.332C16.027,11.332 16.054,11.251 16.153,11.26C16.252,11.268 16.298,11.292 16.329,11.255C16.36,11.219 16.252,11.147 16.252,11.147C16.252,11.147 16.172,11.178 15.991,11.205C15.811,11.233 15.694,11.223 15.694,11.223C15.694,11.223 15.672,11.412 15.383,11.444C15.095,11.475 14.951,11.34 14.883,11.313C14.816,11.286 14.722,11.309 14.722,11.309L14.766,11.223L14.658,11.246C14.658,11.246 14.652,11.142 14.725,11.138L14.627,11.111C14.627,11.111 14.699,11.025 14.798,11.048C14.897,11.07 14.948,11.155 15.041,11.201C15.193,11.278 15.549,11.223 15.284,11.169C15.222,11.156 15.178,11.098 15.178,11.098C15.178,11.098 15.009,11.133 14.878,10.931C14.789,10.792 14.748,10.678 14.586,10.71C14.586,10.71 14.663,10.612 14.748,10.642C14.748,10.642 14.698,10.579 14.622,10.584C14.622,10.584 14.658,10.494 14.765,10.525C14.765,10.525 14.707,10.472 14.653,10.476C14.653,10.476 14.685,10.382 14.828,10.462C14.973,10.543 14.886,10.611 14.914,10.66C14.932,10.692 14.972,10.746 15.067,10.832C15.229,10.976 15.306,11.012 15.256,10.865C15.202,10.829 15.171,10.736 15.158,10.692C15.144,10.646 15.068,10.538 15.09,10.512C15.112,10.485 15.18,10.535 15.18,10.535C15.18,10.535 15.265,10.498 15.382,10.498C15.499,10.498 15.544,10.553 15.544,10.553C15.544,10.553 15.625,10.49 15.638,10.521C15.652,10.553 15.594,10.602 15.567,10.656C15.54,10.71 15.572,10.773 15.572,10.773C15.572,10.773 15.65,10.877 15.812,10.882C15.974,10.885 16.215,10.858 16.3,10.841C16.385,10.823 16.535,10.794 16.633,10.812C16.733,10.829 17.012,10.823 17.002,10.75C16.993,10.678 16.925,10.656 16.786,10.674C16.647,10.692 16.526,10.737 16.269,10.718C16.013,10.701 15.987,10.571 16.004,10.507C16.026,10.422 16.17,10.37 16.305,10.37C16.44,10.37 16.609,10.426 16.708,10.426C16.81,10.426 16.938,10.399 16.938,10.399ZM16.665,11.74C16.665,11.74 16.617,11.803 16.454,11.803C16.29,11.803 16.364,11.782 16.233,11.782C16.103,11.782 16.046,11.815 16.046,11.855C16.046,11.895 16.092,11.92 16.267,11.92C16.441,11.92 16.505,11.876 16.645,11.876C16.785,11.876 16.838,11.927 16.838,11.99C16.838,12.054 16.748,12.171 16.605,12.134C16.605,12.134 16.705,12.184 16.812,12.178C16.918,12.171 17.01,12.151 17.016,12.175C17.022,12.198 17.066,12.322 17.06,12.388C17.049,12.492 16.918,12.529 16.866,12.522C16.812,12.515 16.742,12.566 16.722,12.589L16.735,12.518L16.682,12.538L16.713,12.452L16.645,12.452C16.645,12.452 16.679,12.385 16.732,12.385C16.785,12.385 16.907,12.398 16.913,12.362C16.919,12.325 16.88,12.274 16.802,12.278C16.726,12.282 16.579,12.325 16.488,12.302C16.488,12.302 16.458,12.345 16.485,12.378C16.512,12.412 16.552,12.452 16.532,12.476C16.512,12.498 16.462,12.498 16.415,12.495C16.368,12.492 16.208,12.505 16.151,12.525C16.094,12.545 16.041,12.575 16.041,12.575L16.068,12.498C16.068,12.498 16.014,12.482 15.988,12.505C15.988,12.505 15.998,12.455 16.042,12.445L15.992,12.431C15.992,12.431 16.011,12.371 16.085,12.377C16.158,12.384 16.192,12.401 16.215,12.374C16.238,12.347 16.158,12.293 16.158,12.293C16.158,12.293 16.098,12.317 15.965,12.337C15.831,12.357 15.744,12.351 15.744,12.351C15.744,12.351 15.727,12.492 15.513,12.515C15.299,12.538 15.192,12.438 15.142,12.418C15.092,12.398 15.022,12.415 15.022,12.415L15.055,12.352L14.975,12.368C14.975,12.368 14.971,12.291 15.025,12.288L14.952,12.268C14.952,12.268 15.005,12.205 15.078,12.222C15.152,12.238 15.19,12.301 15.259,12.335C15.373,12.392 15.638,12.352 15.44,12.312C15.394,12.302 15.362,12.258 15.362,12.258C15.362,12.258 15.236,12.285 15.138,12.134C15.072,12.031 15.042,11.947 14.922,11.97C14.922,11.97 14.978,11.897 15.042,11.92C15.042,11.92 15.005,11.873 14.948,11.876C14.948,11.876 14.975,11.81 15.055,11.832C15.055,11.832 15.012,11.792 14.972,11.795C14.972,11.795 14.995,11.726 15.102,11.786C15.209,11.846 15.145,11.897 15.166,11.934C15.18,11.958 15.208,11.998 15.28,12.061C15.4,12.168 15.457,12.195 15.42,12.086C15.38,12.059 15.357,11.99 15.347,11.958C15.337,11.924 15.28,11.844 15.297,11.823C15.314,11.803 15.364,11.84 15.364,11.84C15.364,11.84 15.428,11.813 15.515,11.813C15.602,11.813 15.635,11.853 15.635,11.853C15.635,11.853 15.695,11.806 15.705,11.83C15.715,11.853 15.672,11.891 15.652,11.931C15.632,11.971 15.655,12.018 15.655,12.018C15.655,12.018 15.714,12.095 15.834,12.098C15.955,12.101 16.133,12.081 16.197,12.068C16.261,12.054 16.372,12.033 16.445,12.045C16.518,12.059 16.726,12.054 16.719,12C16.712,11.947 16.662,11.93 16.558,11.943C16.455,11.958 16.365,11.99 16.174,11.977C15.984,11.963 15.965,11.867 15.977,11.819C15.994,11.756 16.101,11.717 16.201,11.717C16.301,11.717 16.427,11.759 16.5,11.759C16.569,11.76 16.665,11.74 16.665,11.74Z" />
  <path fill="#F8312F" d="M15.227,9.455C15.227,9.455 15.287,9.484 15.322,9.481C15.358,9.478 15.42,9.446 15.42,9.446C15.42,9.446 15.4,9.484 15.4,9.518C15.4,9.553 15.392,9.589 15.332,9.591C15.242,9.593 15.255,9.535 15.25,9.511C15.245,9.486 15.227,9.455 15.227,9.455ZM15.263,10.795C15.263,10.795 15.317,10.82 15.348,10.818C15.38,10.815 15.436,10.786 15.436,10.786C15.436,10.786 15.418,10.82 15.418,10.852C15.418,10.883 15.412,10.915 15.357,10.917C15.275,10.919 15.288,10.867 15.283,10.845C15.279,10.822 15.263,10.795 15.263,10.795ZM15.427,12.033C15.427,12.033 15.467,12.051 15.491,12.049C15.514,12.048 15.555,12.025 15.555,12.025C15.555,12.025 15.542,12.051 15.542,12.075C15.542,12.098 15.537,12.122 15.497,12.122C15.437,12.125 15.445,12.086 15.442,12.068C15.439,12.052 15.427,12.033 15.427,12.033Z" />
  <path fill="#0b338d" d="M15.377,9.779C15.377,9.804 15.357,9.825 15.332,9.825L15.322,9.825C15.297,9.825 15.277,9.804 15.277,9.779L15.277,9.584C15.277,9.559 15.297,9.538 15.322,9.538L15.332,9.538C15.357,9.538 15.377,9.558 15.377,9.584L15.377,9.779ZM14.585,9.753C14.538,9.775 14.51,9.809 14.51,9.809L14.62,9.839C14.537,9.844 14.545,9.959 14.545,9.959L14.664,9.934L14.585,9.753ZM17.135,9.997C17.082,10.024 17.052,10.085 17.052,10.085L17.152,10.085L17.106,10.215L17.187,10.185L17.168,10.291C17.182,10.273 17.215,10.246 17.255,10.225L17.135,9.997ZM16.217,10.233L16.135,9.985C16.085,10.008 16.069,10.054 16.069,10.054L16.145,10.074C16.079,10.088 16.065,10.164 16.065,10.164C16.105,10.129 16.185,10.154 16.185,10.154L16.145,10.269C16.145,10.27 16.174,10.253 16.217,10.233ZM14.54,9.102C14.575,9.099 14.612,9.118 14.636,9.135L14.65,9.054C14.562,9.037 14.54,9.102 14.54,9.102ZM14.665,9.935L14.615,10.03C14.615,10.03 14.655,10.021 14.702,10.02L14.665,9.935ZM14.616,9.26L14.634,9.152C14.538,9.14 14.505,9.222 14.505,9.222C14.553,9.22 14.592,9.241 14.616,9.26ZM14.465,9.363C14.52,9.352 14.562,9.357 14.598,9.372L14.613,9.282C14.532,9.277 14.465,9.363 14.465,9.363ZM15.398,11.085C15.398,11.108 15.381,11.126 15.358,11.126L15.349,11.126C15.327,11.126 15.308,11.108 15.308,11.085L15.308,10.91C15.308,10.887 15.327,10.869 15.349,10.869L15.358,10.869C15.38,10.869 15.398,10.887 15.398,10.91L15.398,11.085ZM14.656,11.06C14.615,11.079 14.588,11.111 14.588,11.111L14.688,11.138C14.613,11.142 14.62,11.246 14.62,11.246L14.727,11.224L14.656,11.06ZM16.945,11.278C16.898,11.302 16.87,11.357 16.87,11.357L16.96,11.357L16.921,11.474L16.993,11.447L16.975,11.542C16.988,11.526 17.018,11.502 17.054,11.482L16.945,11.278ZM16.122,11.491L16.048,11.268C16.002,11.288 15.988,11.331 15.988,11.331L16.055,11.348C15.997,11.362 15.984,11.43 15.984,11.43C16.02,11.398 16.092,11.421 16.092,11.421L16.055,11.525C16.056,11.524 16.083,11.509 16.122,11.491ZM14.616,10.475C14.648,10.472 14.681,10.489 14.703,10.505L14.715,10.431C14.635,10.417 14.616,10.475 14.616,10.475ZM14.728,11.224L14.683,11.308C14.683,11.308 14.718,11.3 14.761,11.3L14.728,11.224ZM14.685,10.617L14.701,10.519C14.615,10.509 14.585,10.583 14.585,10.583C14.628,10.581 14.662,10.6 14.685,10.617ZM14.548,10.709C14.598,10.7 14.636,10.703 14.668,10.718L14.682,10.636C14.608,10.632 14.548,10.709 14.548,10.709ZM15.527,12.248C15.527,12.265 15.514,12.278 15.497,12.278L15.491,12.278C15.474,12.278 15.461,12.265 15.461,12.248L15.461,12.118C15.461,12.102 15.474,12.088 15.491,12.088L15.497,12.088C15.514,12.088 15.527,12.101 15.527,12.118L15.527,12.248ZM14.999,12.231C14.968,12.245 14.949,12.268 14.949,12.268L15.023,12.288C14.968,12.291 14.973,12.368 14.973,12.368L15.052,12.352L14.999,12.231ZM16.699,12.393C16.665,12.412 16.645,12.452 16.645,12.452L16.712,12.452L16.682,12.539L16.735,12.519L16.722,12.59C16.731,12.578 16.754,12.56 16.78,12.545L16.699,12.393ZM16.088,12.552L16.033,12.386C16,12.402 15.989,12.432 15.989,12.432L16.039,12.446C15.995,12.456 15.985,12.506 15.985,12.506C16.012,12.484 16.065,12.499 16.065,12.499L16.038,12.577C16.039,12.576 16.059,12.565 16.088,12.552ZM14.968,11.796C14.992,11.794 15.017,11.808 15.033,11.818L15.042,11.765C14.983,11.753 14.968,11.796 14.968,11.796ZM15.052,12.353L15.019,12.415C15.019,12.415 15.045,12.409 15.077,12.408L15.052,12.353ZM15.02,11.902L15.032,11.829C14.968,11.822 14.945,11.877 14.945,11.877C14.977,11.875 15.003,11.889 15.02,11.902ZM14.918,11.971C14.955,11.964 14.983,11.967 15.007,11.977L15.017,11.916C14.963,11.914 14.918,11.971 14.918,11.971Z" />
</svg>
