<svg width="32" height="32" viewBox="0 0 32 32" xmlns="http://www.w3.org/2000/svg">
  <polygon fill="#072975" points="16,6 14.95,6.5 13.9,6 10.75,6 9,7 7.25,6 4.1,6 2,7.5 2,9.25 3,11 2,12.75 2,14.5 2.5,15.25 2,16 2,26 30,26 30,6" />
  <polygon fill="#f4f4f4" points="16 6 15.3 6.25 14.6 6 13.9 6 10.75 8.25 10.75 6 10 6 9 6.5 8 6 7.25 6 7.25 8.25 4.1 6 2 6 2.25 6.5 2 7 2 7.5 4.45 9.25 2 9.25 2 10 2.5 11 2 12 2 12.75 4.45 12.75 2 14.5 2 16 2.7 15.75 3.4 16 4.1 16 7.25 13.75 7.25 16 8 16 9 15.5 10 16 10.75 16 10.75 13.75 13.9 16 16 16 15.75 15.5 16 15 16 14.5 13.55 12.75 16 12.75 16 12 15.5 11 16 10 16 9.25 13.55 9.25 16 7.5" />
  <path fill="#cf0828" d="M7.25 12.75h-.7L2 16h1.4l3.85-2.75v-.5zm4.2 0L16 16v-1l-3.15-2.25h-1.4zm-.7-3.5h.7L16 6h-1.4l-3.85 2.75v.5zm-5.6 0L2 7V6l4.55 3.25h-1.4zM16 12h-6v4H8v-4H2v-2h6V6h2v4h6v2z" />
  <path fill="#f4f4f4" d="M9,18l0.5785,1.7987l1.767-0.6692l-1.0456,1.5738l1.6249,0.9643l-1.8823,0.1638l0.2592,1.8716L9,22.3333l-1.3017,1.3696l0.2592-1.8716l-1.8823-0.1638l1.6249-0.9643l-1.0456-1.5738l1.767,0.6692L9,18z" />
  <path fill="#f4f4f4" d="M23.25,21.2381l0.2755,0.8565l0.8414-0.3187l-0.4979,0.7494l0.7738,0.4592l-0.8964,0.078l0.1234,0.8912L23.25,23.3016l-0.6198,0.6522l0.1234-0.8912l-0.8964-0.078l0.7738-0.4592l-0.4979-0.7494l0.8414,0.3187L23.25,21.2381zM18.25,13.3214l0.2755,0.8565l0.8414-0.3187l-0.4979,0.7494l0.7738,0.4592l-0.8964,0.078l0.1234,0.8912L18.25,15.3849l-0.6198,0.6522l0.1234-0.8912l-0.8964-0.078l0.7738-0.4592l-0.4979-0.7494l0.8414,0.3187L18.25,13.3214z M23.25,7.9048l0.2755,0.8565l0.8414-0.3187L23.869,9.192l0.7738,0.4592l-0.8964,0.078l0.1234,0.8912L23.25,9.9683l-0.6198,0.6522l0.1234-0.8912l-0.8964-0.078L22.631,9.192l-0.4979-0.7494l0.8414,0.3187L23.25,7.9048z M27.6944,11.9881l0.2755,0.8565l0.8414-0.3187l-0.4979,0.7494l0.7738,0.4592l-0.8964,0.078l0.1234,0.8912l-0.6198-0.6522l-0.6198,0.6522l0.1234-0.8912l-0.8964-0.078l0.7738-0.4592l-0.4979-0.7494l0.8414,0.3187L27.6944,11.9881z M25.25,16l0.2177,0.5337l0.5748,0.0421l-0.4403,0.372l0.1376,0.5597L25.25,17.2037l-0.4898,0.3038l0.1376-0.5597l-0.4403-0.372l0.5748-0.0421L25.25,16z" />
</svg>