<svg width="32" height="32" viewBox="0 0 32 32" xmlns="http://www.w3.org/2000/svg">
  <polygon fill="#F4F4F4" points="2,12.75 3,11.75 29,11.75 30,12.75 30,19.25 29,20.25 3,20.25 2,19.25" />
  <rect fill="#3BC6F6" x="2" y="6" width="28" height="6.75" />
  <rect fill="#3BC6F6" x="2" y="19.25" width="28" height="6.75" />
  <g fill="#3BC6F6">
    <path d="M10.5833,13.2917l0.6368,1.9598L9.553,14.0402h2.0606l-1.6671,1.2112L10.5833,13.2917z" />
    <path d="M10.5833,16.5417l0.6368,1.9598L9.553,17.2902	h2.0606l-1.6671,1.2112L10.5833,16.5417z" />
    <path d="M16,14.9167l0.6368,1.9598l-1.6671-1.2112	h2.0606l-1.6671,1.2112L16,14.9167z" />
    <path d="M21.4167,13.2917l0.6368,1.9598	l-1.6671-1.2112h2.0606l-1.6671,1.2112L21.4167,13.2917z" />
    <path d="M21.4167,16.5417l0.6368,1.9598	l-1.6671-1.2112h2.0606l-1.6671,1.2112L21.4167,16.5417z" />
  </g>
</svg>