<svg width="32" height="32" viewBox="0 0 32 32" xmlns="http://www.w3.org/2000/svg">
  <polygon fill="#f4f4f4" points="2,12.75 3,11.75 29,11.75 30,12.75 30,19.25 29,20.25 3,20.25 2,19.25" />
  <rect fill="#CF0828" x="2" y="6" width="28" height="6.75" />
  <rect fill="#1c1c1c" x="2" y="19.25" width="28" height="6.75" />
  <path fill="#BF9300" d="M17.5236,18.1326c0,0-0.0129-0.0328-0.0428-0.0717c-0.0248-0.2188-0.3375-0.2123-0.3375-0.2123l-0.2919-0.8534l0.0819,0.0818l0.7397,0.6572l0.002,0.0436l0.3555,0.2743l-0.1722-3.6874c0,0-0.0201-0.4771-0.4569-0.4167c-0.4368,0.0611-0.4674,0.2743-0.9348,0.325l-0.0962,0.0091c-0.0702-0.1852-0.1274-0.4531-0.1274-0.6591c0-0.3048,0.0917-0.4368-0.2236-0.5889c-0.3146-0.1521-0.3757-0.0104-0.3757-0.0104s-0.2438-0.1222-0.3555-0.0305c-0.1118,0.0917-0.0507,0.325,0,0.2542c0.0507-0.0709,0.2542,0.132,0.2542,0.132c0.0689,0.3373-0.1268,0.7026-0.2607,0.9061c-0.0461-0.0045-0.0832-0.0065-0.1352-0.0123c-0.4673-0.0507-0.4979-0.2639-0.9347-0.325s-0.457,0.4167-0.457,0.4167l-0.1729,3.6868l0.3555-0.2743l0.002-0.0436l0.7397-0.6571l0.1235-0.1235l-0.3061,0.8951c0,0-0.3051-0.0069-0.3376,0.2025c-0.045,0.0454-0.068,0.0926-0.068,0.0926s-0.1833,0.0812-0.2034,0.1722c0,0,0.0104,0.1625,0.1521,0.2437c0,0-0.0403,0.1223,0.1118,0.1931c0.1521,0.0709,0.7007,0.1827,1.6555,0.1827s1.493-0.1014,1.6354-0.1729c0.1424-0.0709,0.1521-0.2333,0.1521-0.2333s0.1521-0.0812,0.1424-0.1827C17.7264,18.2444,17.5236,18.1326,17.5236,18.1326z M15.8388,16.5993c-0.7325-0.4524-0.793-1.5945-0.793-1.5945s0.4531-0.0234,0.782-0.2542c0.2964,0.2633,0.8021,0.2334,0.8021,0.2334S16.5954,16.1307,15.8388,16.5993z M14.7864,14.8384l-0.6857-0.6155l-0.1801,0.0741c0.0078-0.0734,0.0481-0.2385,0.2717-0.2061c0.3666,0.0527,0.5181,0.2542,0.9042,0.2944l0.1092,0.011l-0.0383,0.0494c0.0598,0,0.1482-0.0176,0.2132-0.0319l0.0734,0.0071l-0.0331,0.1157c0.052-0.0156,0.1274-0.0605,0.1891-0.1001l0.169,0.0162l0.0383,0.0533l0.1287-0.0643l0.0864-0.0085c0.0748,0.0436,0.1814,0.0826,0.1814,0.0826l0.0201-0.1014c0.0916,0.0611,0.2437,0.0611,0.2437,0.0611c-0.0175-0.0143-0.0351-0.0507-0.0533-0.0819l0.0936-0.0098c0.3861-0.0403,0.5369-0.2418,0.9041-0.2944c0.2236-0.0319,0.2639,0.1326,0.2717,0.2061l-0.1807-0.0728l-0.6194,0.5889l-0.104,0.0416c-0.1066,0.0039-0.6253,0.0052-0.9522-0.2853c-0.4062,0.2847-0.9646,0.3049-0.9646,0.3049L14.7864,14.8384z M15.1979,15.1166c0.1417-0.0305,0.3146-0.132,0.3146-0.132v1.1778C15.2486,15.7056,15.1979,15.1166,15.1979,15.1166z M16.1528,15.0048c-0.0007,0,0.1722,0.1014,0.3146,0.132c0,0-0.0507,0.5889-0.3146,1.0459V15.0048z M17.625,18.3257c0.0104,0.0812-0.132,0.1827-0.132,0.1827s-0.0611,0.132-0.132,0.1931s-0.6903,0.1118-1.5639,0.1222c-0.8736,0.0104-1.4118-0.091-1.5437-0.132c-0.132-0.041-0.132-0.1931-0.132-0.1931s-0.1307-0.1326-0.1222-0.1931c0.0104-0.0709,0.1631-0.1124,0.1631-0.1124s0.0604-0.1722,0.1521-0.1827c0.091-0.0104,0.6188,0.2132,1.5333,0.2132c0.9347,0,1.3715-0.2535,1.4391-0.2028c0.0676,0.0507,0.1248,0.1729,0.1248,0.1729S17.6146,18.2444,17.625,18.3257z M16.0481,16.5792l0.3452-0.5181l0.6298,1.7875l-0.6097,0.1216L16.0481,16.5792z M15.2278,17.9702l-0.609-0.1216l0.6298-1.7875l0.3452,0.5181L15.2278,17.9702z M15.3195,13.1257c0,0,0.0709-0.0708,0.2743,0.0709c0.132,0.0923,0.249,0.1625,0.249,0.1625s0.0832-0.0878,0.2054-0.0676s0.054,0.1898,0.0741,0.5447c0.0201,0.3556,0.1625,0.5077,0.1625,0.5077l-0.1729-0.1014l0.0104,0.1118l-0.1931-0.0916l-0.0916,0.1319l-0.0917-0.1423l-0.1482,0.0904l-0.0449-0.1209l-0.1729,0.0916c0,0,0.2542-0.3146,0.2743-0.6604c0.0059-0.1033-0.0201-0.3354-0.0201-0.3354S15.4722,13.1153,15.3195,13.1257z" />
</svg>