<svg width="32" height="32" viewBox="0 0 32 32" xmlns="http://www.w3.org/2000/svg">
  <polygon fill="#f4f4f4" points="9,6 23,6 24,7 24,25 23,26 9,26 8,25 8,7" />
  <rect fill="#F8312F" x="2" y="6" width="7" height="20" />
  <rect fill="#F8312F" x="23" y="6" width="7" height="20" />
  <path fill="#F8312F" d="M16.2625,21.9208l-0.1313-2.5171c-0.007-0.1529,0.1112-0.2825,0.264-0.2895c0.02-0.0009,0.04,0.0003,0.0597,0.0037l2.5054,0.4404l-0.3383-0.9333c-0.0281-0.0761-0.0047-0.1618,0.0583-0.2129l2.7446-2.2225l-0.6183-0.2887c-0.0864-0.0408-0.1289-0.1396-0.0992-0.2304l0.5425-1.6683l-1.5808,0.3354c-0.0883,0.0184-0.1773-0.0279-0.2129-0.1108L19.15,13.5063l-1.2337,1.3242c-0.072,0.076-0.192,0.0792-0.268,0.0071c-0.0469-0.0445-0.068-0.1099-0.0557-0.1734l0.595-3.0683l-0.9538,0.5512c-0.0903,0.0529-0.2065,0.0226-0.2594-0.0677c-0.0021-0.0036-0.0041-0.0073-0.006-0.0111L16,10.1667l-0.9683,1.9017c-0.0468,0.0936-0.1607,0.1316-0.2544,0.0847c-0.0037-0.0019-0.0074-0.0039-0.0111-0.006l-0.9537-0.5512l0.595,3.0683c0.0198,0.1028-0.0475,0.2022-0.1504,0.222c-0.0635,0.0122-0.1289-0.0088-0.1734-0.0557L12.85,13.5063l-0.3063,0.7204c-0.0356,0.0829-0.1246,0.1292-0.2129,0.1108L10.75,14.0021l0.5425,1.6683c0.0297,0.0908-0.0128,0.1896-0.0992,0.2304l-0.6183,0.2887l2.7446,2.2225c0.063,0.0512,0.0865,0.1368,0.0583,0.2129l-0.3383,0.9333l2.5054-0.4404c0.1508-0.0259,0.2941,0.0753,0.32,0.2261c0.0034,0.0197,0.0046,0.0397,0.0037,0.0597l-0.1312,2.5171H16.2625z" />
</svg>