<svg width="32" height="32" viewBox="0 0 32 32" xmlns="http://www.w3.org/2000/svg">
  <polygon fill="#FCD53F" points="2,6 30,6 30,16 29,17 3,17 2,16" />
  <polygon fill="#F8312F" points="2,26 30,26 30,21 29,20 3,20 2,21" />
  <rect fill="#1345B7" x="2" y="16" width="28" height="5" />
  <path fill="#FCD53F" d="M19.8462,17.1538c0,0.8492-0.6892,1.5385-1.5385,1.5385h-4.6154c-0.8492,0-1.5385-0.6892-1.5385-1.5385v-2.3077c0-0.8492,0.6892-1.5385,1.5385-1.5385h4.6154c0.8492,0,1.5385,0.6892,1.5385,1.5385V17.1538z" />
  <path fill="#1345B7" d="M19.0769,16.3846c0,0.8492-0.6892,2.3077-1.5385,2.3077h-3.0769c-0.8492,0-1.5385-1.4585-1.5385-2.3077v-0.7692c0-0.8492,0.6892-1.5385,1.5385-1.5385h3.0769c0.8492,0,1.5385,0.6892,1.5385,1.5385V16.3846z" />
  <path fill="#F8312F" d="M18.3077,16.3846c0,0.8492-0.6892,2.3077-1.5385,2.3077h-1.5385c-0.8492,0-1.5385-1.4585-1.5385-2.3077v-0.7692c0-0.8492,0.6892-1.5385,1.5385-1.5385h1.5385c0.8492,0,1.5385,0.6892,1.5385,1.5385V16.3846z" />
  <path fill="#60BC55" d="M17.5177,13.4115c-0.1023,0.3754-0.7392,0.6654-1.5177,0.6654c-0.7785,0-1.4154-0.29-1.5177-0.6654c-0.9269,0.1323-0.79,0.3792-0.79,0.6654c0,0.4246,0.6085,0.7692,2.3077,0.7692s2.3077-0.3446,2.3077-0.7692C18.3077,13.7908,18.4446,13.5438,17.5177,13.4115z" />
  <path fill="#492725" d="M18.6923,11.7692c0.3385,0,0.66,0.04,0.9585,0.1054c-0.4792-0.8277-2.1123-1.6438-3.6508-0.1054c-1.5385-1.5385-3.1715-0.7223-3.6508,0.1054c0.2985-0.0654,0.62-0.1054,0.9585-0.1054c1.4869,0,2.6923,0.6892,2.6923,1.5385C16,12.4585,17.2046,11.7692,18.6923,11.7692z" />
  <ellipse fill="#3BC6F6" cx="16" cy="16" rx="1.5385" ry="2.6923" />
  <path fill="#60BC55" d="M15.6154,15.6154c-0.4123,0-0.7977,0.1-1.1469,0.2654c-0.0008,0.04-0.0069,0.0785-0.0069,0.1192c0,1.4869,0.6892,2.6923,1.5385,2.6923c0.7715,0,1.4038-0.9962,1.5154-2.2915C17.0285,15.9162,16.3569,15.6154,15.6154,15.6154z" />
  <ellipse fill="#FCD53F" cx="16" cy="19.4615" rx="2.3077" ry="0.7692" />
  <path fill="#034EA2" d="M17.5385,20.2308C17.5385,20.8677,16.8492,21,16,21c-0.8492,0-1.5385-0.1323-1.5385-0.7692c0-0.6369,0.6892-1.5385,1.5385-1.5385C16.8492,18.6923,17.5385,19.5938,17.5385,20.2308z" />
  <path fill="#E71A43" d="M15.2308,20.2308c0-0.6369,0.3446-1.5385,0.7692-1.5385s0.7692,0.9015,0.7692,1.5385C16.7692,20.8677,16.4246,21,16,21S15.2308,20.8677,15.2308,20.2308z" />
  <path fill="#D3D3D3" d="M15.2308,11c0-0.4246,0.3446,0,0.7692,0s0.7692-0.4246,0.7692,0S16.4246,11.7692,16,11.7692S15.2308,11.4246,15.2308,11z" />
  <ellipse fill="#f4f4f4" cx="16" cy="16" rx="0.7692" ry="0.3846" />
  <ellipse fill="#B35F47" cx="12.1538" cy="14.4615" rx="0.7692" ry="0.3846" />
  <ellipse fill="#B35F47" cx="12.9231" cy="12.9231" rx="0.7692" ry="0.3846" />
  <ellipse fill="#B35F47" cx="19.8462" cy="14.4615" rx="0.7692" ry="0.3846" />
  <ellipse fill="#B35F47" cx="19.0769" cy="12.9231" rx="0.7692" ry="0.3846" />
</svg>