<svg width="32" height="32" viewBox="0 0 32 32" xmlns="http://www.w3.org/2000/svg">
  <polygon fill="#F4F4F4" points="2,6 3.96,6 16,10 28.04,6 30,6 30,7.4 26,16 30,24.6 30,26 28.04,26 16,22 3.96,26 2,26 2,24.6 6,16 2,7.4" />
  <path fill="#41A521" d="M11.377,17.9021L2,24.6V7.4l9.377,6.6979A5 5 0 0 0 11.377,17.9021z M20.623,14.0978a5 5 0 0 1,0,3.8043L30,24.6V7.4L20.623,14.0978z" />
  <path fill="#41A521" d="M16.8285,13.8969l0.2438-0.4215l0.1662-0.2885h-0.82l-0.2438-0.4215l-0.1662-0.2885l-0.1669,0.2885l-0.2431,0.4215h-0.8208l0.1669,0.2885l0.2431,0.4215l-0.2431,0.4223l-0.1669,0.2885h0.8208l0.2431,0.4215l0.1669,0.2885l0.1662-0.2885l0.2438-0.4215h0.82l-0.1662-0.2885L16.8285,13.8969z M19.0215,17.3885l0.2438-0.4223l0.1669-0.2885h-0.8208l-0.2431-0.4215l-0.1669-0.2885l-0.1662,0.2885l-0.2438,0.4215h-0.82l0.1662,0.2885l0.2438,0.4223L17.1377,17.81l-0.1662,0.2885h0.82l0.2438,0.4215l0.1662,0.2892l0.1669-0.2892l0.2431-0.4215h0.8208L19.2654,17.81L19.0215,17.3885z M14.8785,17.81l-0.2431-0.4215l0.2431-0.4223l0.1669-0.2885h-0.82l-0.2438-0.4215l-0.1669-0.2885l-0.1662,0.2885l-0.2438,0.4215h-0.82l0.1662,0.2885l0.2438,0.4223L12.7508,17.81l-0.1662,0.2885h0.82l0.2438,0.4215l0.1662,0.2892l0.1669-0.2892l0.2438-0.4215h0.82L14.8785,17.81z" />
  <path fill="#cf0828" d="M12.7191,12.2565L3.96,6h24.08l-8.7591,6.2565A5 5 0 0 0,12.7191,12.2565z M12.7191,19.7435L3.96,26h24.08l-8.7591-6.2565A5 5 0 0 1,12.7191,19.7435z" />
  <path fill="#cf0828" d="M16.9054,13.3792h-0.5977l-0.2992-0.5177l-0.2992,0.5177h-0.5985l0.2992,0.5177l-0.2992,0.5185h0.5985l0.2992,0.5177l0.2992-0.5177h0.5977l-0.2992-0.5185L16.9054,13.3792z M18.2015,16.3523L17.9023,16.87h-0.5977l0.2985,0.5185l-0.2985,0.5177h0.5977l0.2992,0.5177l0.2992-0.5177h0.5985L18.8,17.3885l0.2992-0.5185h-0.5985L18.2015,16.3523z M14.7123,16.87h-0.5985l-0.2992-0.5177L13.5162,16.87h-0.5985l0.2992,0.5185l-0.2992,0.5177h0.5985l0.2985,0.5177l0.2992-0.5177h0.5985l-0.2992-0.5177L14.7123,16.87z" />
</svg>