<svg width="32" height="32" viewBox="0 0 32 32" xmlns="http://www.w3.org/2000/svg">
  <polygon fill="#072975" points="6.2,6 12.5,6 16,8 19.5,6 25.8,6 30,9 30,12.5 28,16 30,19.5 30,23 25.8,26 19.5,26 16,24 12.5,26 6.2,26 2,23 2,19.5 4,16 2,12.5 2,9" />
  <polygon fill="#f4f4f4" points="30,6 28.6,6.5 27.2,6 25.8,6 19.5,10.5 19.5,6 18,6 16,7 14,6 12.5,6 12.5,10.5 6.2,6 2,6 2.5,7 2,8 2,9 6.9,12.5 2,12.5 2,14 3,16 2,18 2,19.5 6.9,19.5 2,23 2,26 3.4,25.5 4.8,26 6.2,26 12.5,21.5 12.5,26 14,26 16,25 18,26 19.5,26 19.5,21.5 25.8,26 30,26 29.5,25 30,24 30,23 25.1,19.5 30,19.5 30,18 29,16 30,14 30,12.5 25.1,12.5 30,9" />
  <path fill="#cf0828" d="M12.5,19.5h-1.4L2,26h2.8l7.7-5.5V19.5z M20.9,19.5L30,26v-2l-6.3-4.5H20.9z M19.5,12.5h1.4L30,6h-2.8l-7.7,5.5V12.5z M8.3,12.5L2,8V6l9.1,6.5H8.3z M30,18H18v8h-4v-8H2v-4h12V6h4v8h12V18z" />
</svg>