<svg width="32" height="32" viewBox="0 0 32 32" xmlns="http://www.w3.org/2000/svg">
  <polygon fill="#072975" points="16,6 30,6 30,26 2,26 2,16" />
  <polygon fill="#072975" points="4.1,6 7.25,6 9,7 10.75,6 13.9,6 16,7.5 16,9.25 15,11 16,12.75 16,14.5 13.9,16 10.75,16 9,15 7.25,16 4.1,16 2,14.5 2,12.75 3,11 2,9.25 2,7.5" />
  <polygon fill="#F4F4F4" points="16,6 15.3,6.25 14.6,6 13.9,6 10.75,8.25 10.75,6 10,6 9,6.5 8,6 7.25,6 7.25,8.25 4.1,6 2,6 2.25,6.5 2,7 2,7.5 4.45,9.25 2,9.25 2,10 2.5,11 2,12 2,12.75 4.45,12.75 2,14.5 2,16 2.7,15.75 3.4,16 4.1,16 7.25,13.75 7.25,16 8,16 9,15.5 10,16 10.75,16 10.75,13.75 13.9,16 16,16 15.75,15.5 16,15 16,14.5 13.55,12.75 16,12.75 16,12 15.5,11 16,10 16,9.25 13.55,9.25 16,7.5" />
  <path fill="#CF0828" d="M7.25,12.75h-0.7L2,16h1.4l3.85-2.75V12.75z M11.45,12.75L16,16v-1l-3.15-2.25H11.45z M10.75,9.25h0.7L16,6h-1.4l-3.85,2.75V9.25z M5.15,9.25L2,7V6l4.55,3.25H5.15z M16,12h-6v4H8v-4H2v-2h6V6h2v4h6V12z" />
  <path d="M21.87,9.846C21.766,9.766 21.605,9.666 21.377,9.534C21.148,9.402 21.101,9.125 21.208,8.921C21.317,8.716 21.574,8.645 21.511,8.837C21.448,9.029 21.381,9.265 21.511,9.285C21.641,9.305 21.605,9.029 21.725,9.042C21.845,9.054 21.605,9.486 21.725,9.498C21.845,9.511 21.808,9.114 21.941,9.162C22.073,9.209 22.049,9.558 21.941,9.582C21.832,9.606 21.955,9.762 22.032,9.846C22.111,9.93 21.978,9.929 21.87,9.846ZM22.485,9.846C22.588,9.766 22.749,9.666 22.978,9.534C23.206,9.402 23.254,9.125 23.146,8.921C23.038,8.716 22.781,8.645 22.843,8.837C22.905,9.029 22.973,9.265 22.843,9.285C22.713,9.305 22.749,9.029 22.629,9.042C22.509,9.054 22.749,9.486 22.629,9.498C22.509,9.511 22.545,9.114 22.413,9.162C22.281,9.209 22.305,9.558 22.413,9.582C22.521,9.606 22.401,9.762 22.323,9.847C22.245,9.93 22.377,9.929 22.485,9.846Z" fill="#d0a339" />
  <path d="M22.071,10.519C22.141,10.252 22.055,9.991 21.846,10.071C21.638,10.151 21.445,10.023 21.478,9.958C21.51,9.894 21.751,9.702 22.071,9.702C22.391,9.702 22.807,9.878 22.775,9.958C22.744,10.038 22.391,10.111 22.391,10.111C22.391,10.111 22.439,10.423 23.032,10.423C23.625,10.423 24.121,10.568 24.01,11.288C23.898,12.009 23.865,12.105 23.77,12.074C23.675,12.042 23.658,11.802 23.706,11.593C23.755,11.385 23.626,11.096 23.561,11.305C23.497,11.513 23.368,11.914 23.208,11.945C23.048,11.977 23.272,11.336 23.256,11.192C23.24,11.048 22.871,11.08 22.855,11.305C22.839,11.529 22.884,11.898 22.749,11.994C22.615,12.09 22.599,11.769 22.615,11.545C22.63,11.322 22.471,10.968 22.455,11.273C22.438,11.578 22.422,11.962 22.278,12.01C22.135,12.058 22.278,11.642 22.231,11.385C22.183,11.129 21.991,10.824 22.071,10.519Z" fill="#b76a1e" />
  <path d="M22.531,14.161C22.327,14.353 21.558,14.785 21.258,14.077C21.979,14.365 22.405,13.74 22.405,13.74L22.531,14.161ZM21.474,12.455C21.155,11.468 20.44,11.385 20.44,11.385C20.44,11.385 20.404,11.697 20.56,11.919C20.045,11.872 19.538,11.637 19.538,11.637C19.394,12.045 20.26,12.478 20.788,12.454C20.536,12.706 20.776,12.923 21.017,12.965C20.897,12.671 21.281,12.474 21.365,12.705C21.449,12.935 21.474,12.455 21.474,12.455Z" fill="#f4f4f4" />
  <path d="M21.605,14.152C20.957,14.222 20.496,13.226 20.498,12.931C20.885,13.044 21.198,13.308 21.198,13.308C21.198,13.308 21.3,12.43 21.381,12.215C21.702,12.455 21.786,13.128 21.678,13.441C22.031,13.458 22.099,13.753 21.991,13.97C21.822,13.728 21.644,13.957 21.605,14.152Z" fill="#3f5fff" />
  <path d="M23.477,14.161C23.681,14.353 24.451,14.785 24.751,14.077C24.029,14.365 23.604,13.74 23.604,13.74L23.477,14.161ZM24.535,12.455C24.854,11.468 25.568,11.385 25.568,11.385C25.568,11.385 25.605,11.697 25.448,11.919C25.964,11.872 26.47,11.637 26.47,11.637C26.615,12.045 25.748,12.478 25.22,12.454C25.472,12.706 25.232,12.923 24.991,12.965C25.111,12.671 24.727,12.474 24.643,12.705C24.558,12.935 24.535,12.455 24.535,12.455Z" fill="#f4f4f4" />
  <path d="M24.403,14.152C25.051,14.222 25.512,13.226 25.511,12.931C25.124,13.044 24.811,13.308 24.811,13.308C24.811,13.308 24.709,12.43 24.628,12.215C24.307,12.455 24.223,13.128 24.331,13.441C23.978,13.458 23.91,13.753 24.018,13.97C24.186,13.728 24.364,13.957 24.403,14.152Z" fill="#3f5fff" />
  <path d="M23.06,15.543C22.062,15.543 21.714,15.086 21.81,14.774C21.906,14.462 22.242,14.629 22.351,14.545C22.459,14.462 22.459,13.908 22.206,13.656C21.954,13.404 21.798,13.139 21.905,13.007C21.761,12.767 21.988,12.658 22.055,12.382C22.121,12.106 22.193,11.848 22.298,11.818C22.403,11.787 22.458,12.046 22.494,11.998C22.53,11.95 22.571,11.733 22.748,11.722C22.926,11.709 22.902,11.902 22.962,11.95C23.022,11.998 23.071,11.727 23.238,11.722C23.407,11.715 23.455,11.95 23.527,11.962C23.599,11.975 23.623,11.789 23.767,11.818C23.911,11.846 23.863,12.215 23.959,12.371C24.055,12.527 24.26,12.828 24.139,13.008C24.308,13.128 24.127,13.345 23.923,13.501C23.718,13.657 23.478,14.042 23.622,14.475C23.755,14.763 24.259,14.462 24.379,14.643C24.502,14.822 24.455,15.543 23.06,15.543Z" fill="#636363" />
  <path d="M21.795,12.839C21.795,12.551 22.568,12.455 23,12.455C23.432,12.455 24.226,12.555 24.226,12.839C24.226,13.124 23.622,12.839 23.011,12.839C22.399,12.839 21.795,13.115 21.795,12.839Z" fill="#f4f4f4" />
  <path d="M22.587,12.479C22.451,12.495 22.315,12.518 22.194,12.551C22.154,12.681 22.177,12.822 22.247,12.93C22.363,12.911 22.494,12.888 22.634,12.868C22.553,12.773 22.521,12.633 22.587,12.479ZM22.964,12.455L22.964,12.842C22.98,12.841 22.995,12.839 23.011,12.839C23.158,12.839 23.305,12.856 23.444,12.878C23.487,12.83 23.517,12.775 23.517,12.71C23.517,12.618 23.461,12.542 23.386,12.476C23.246,12.461 22.975,12.455 22.964,12.455ZM23.71,12.922C24.011,12.975 24.226,13.008 24.226,12.838C24.226,12.689 24.007,12.592 23.737,12.532C23.781,12.588 23.817,12.647 23.817,12.71C23.818,12.799 23.767,12.867 23.71,12.922Z" fill="#3f5fff" />
  <path d="M21.875,13.143C21.906,13.008 23.011,13.765 23.011,13.765C23.011,13.765 24.179,12.948 24.191,13.059C24.202,13.17 23.011,13.968 23.011,13.968C23.011,13.968 21.843,13.278 21.875,13.143Z" fill="#BEBEBE" />
  <path d="M21.895,16.337C21.365,16.842 19.25,18.668 19.13,19.053C19.01,19.438 19.262,19.534 19.635,19.282C19.502,19.582 19.671,19.702 19.755,19.714C19.838,19.726 20.187,19.605 20.331,19.293C20.488,19.545 20.885,19.582 20.956,19.533C21.028,19.485 21.065,19.401 21.065,19.401C21.065,19.401 21.134,19.763 21.268,19.714C21.401,19.665 21.52,19.473 21.605,19.485C21.69,19.497 21.6,19.665 21.795,19.653C21.991,19.641 22.07,19.557 22.175,19.448C22.279,19.34 22.447,19.496 22.531,19.472C22.615,19.448 22.7,18.932 22.832,18.558C22.964,18.188 21.895,16.337 21.895,16.337Z" fill="#6d4534" />
  <path d="M23.818,18.212C24.171,18.292 24.563,18.195 24.751,18.308C24.94,18.42 25.084,18.516 25.356,18.532C25.628,18.548 26.141,18.308 26.254,18.532C26.366,18.756 26.51,19.077 26.655,19.125C26.799,19.174 27.344,19.349 26.799,19.382C26.255,19.414 25.037,19.382 25.037,19.382L25.181,19.574L24.115,19.638C24.115,19.638 23.49,19.093 23.518,18.708C23.547,18.324 23.818,18.212 23.818,18.212Z" fill="#f4f4f4" />
  <path d="M22.531,18.212C22.097,18.475 22.299,18.805 22.299,18.805C22.299,18.805 22.369,19.254 22.405,19.205C22.44,19.158 22.635,18.997 22.635,18.997C22.635,18.997 22.601,19.355 22.606,19.341C22.611,19.326 22.844,19.342 22.844,19.342C22.844,19.342 22.928,19.656 22.965,19.719C23.001,19.782 23.201,19.574 23.201,19.574C23.201,19.574 23.394,19.697 23.478,19.732C23.561,19.766 23.594,19.51 23.594,19.51C23.594,19.51 23.821,19.801 23.968,19.719C24.114,19.638 24.298,19.398 24.298,19.398L24.026,19.158C24.026,19.158 24.074,19.095 24.026,18.974C23.978,18.853 23.802,18.805 23.802,18.805C23.802,18.805 23.978,18.677 23.85,18.596C23.721,18.515 23.248,17.778 22.531,18.212Z" fill="#00753b" />
  <path d="M24.492,15.218L24.271,15.217L23.109,16L21.946,15.217L21.754,15.218L21.654,15.218L21.654,16.925C21.654,17.074 21.68,17.308 21.766,17.566C21.834,17.77 21.94,17.988 22.105,18.197C22.186,18.299 22.284,18.397 22.394,18.491C22.546,18.62 22.735,18.735 22.955,18.834C23.008,18.858 23.052,18.887 23.11,18.908C23.17,18.886 23.216,18.856 23.271,18.831C23.49,18.731 23.678,18.616 23.831,18.487C23.945,18.389 24.047,18.287 24.129,18.181C24.295,17.967 24.386,17.741 24.461,17.54C24.551,17.296 24.565,17.068 24.565,16.925L24.565,15.218L24.492,15.218Z" fill="#f4f4f4" />
  <path d="M24.566,15.939L24.252,15.532L24.493,15.218L24.272,15.217L23.109,16L21.946,15.217L21.754,15.218L21.995,15.531L21.654,15.974L21.654,16.002L21.984,16.43L21.654,16.858L21.654,16.886L21.971,17.299L21.766,17.566C21.834,17.77 21.94,17.988 22.105,18.197L22.403,17.81L22.661,18.144L22.394,18.49C22.546,18.619 22.735,18.734 22.955,18.833L23.114,18.626L23.271,18.83C23.49,18.73 23.678,18.615 23.831,18.486L23.567,18.144L23.834,17.797L24.129,18.181C24.295,17.967 24.395,17.745 24.461,17.54L24.275,17.298L24.565,16.921L24.565,16.823L24.262,16.43L24.565,16.037L24.566,15.939ZM24.118,16.43L23.834,16.8L23.549,16.43L23.834,16.06L24.118,16.43ZM23.561,17.298L23.834,16.944L24.106,17.298L23.834,17.653L23.561,17.298ZM22.678,16.43L22.403,16.787L22.128,16.43L22.403,16.073L22.678,16.43ZM22.14,17.298L22.403,16.957L22.666,17.298L22.403,17.64L22.14,17.298ZM22.839,18.145L23.113,17.788L23.387,18.145L23.113,18.501L22.839,18.145Z" fill="#1c5cd7" />
  <path d="M23.11,15.423C22.8,15.234 22.332,15.216 21.946,15.217L23.105,18.474C23.105,18.488 23.114,18.488 23.114,18.474L24.272,15.217C23.886,15.216 23.418,15.234 23.11,15.423Z" fill="#44911b" />
  <path d="M19.767,15.724C19.795,14.955 19.923,14.57 19.911,14.269C19.9,13.968 20.164,13.968 20.368,13.908C20.573,13.848 20.669,14.017 20.837,14.028C21.005,14.041 21.101,14.065 21.053,14.268C21.005,14.472 20.848,14.736 20.813,14.809C20.777,14.882 21.018,15.338 21.21,15.723C21.402,16.108 21.678,16.601 21.475,17.37C21.27,18.139 21.15,18.415 21.066,18.476C20.982,18.536 21.047,17.972 20.972,17.707C20.898,17.442 20.801,17.382 20.801,17.382C20.801,17.382 20.477,17.688 20.357,18.076C20.237,18.464 20.333,18.746 20.561,18.905C20.79,19.065 21.307,19.161 21.391,19.209C21.475,19.257 21.222,19.365 20.874,19.342C20.525,19.318 19.701,19.025 19.391,18.696C19.083,18.368 18.661,17.831 18.902,17.238C19.035,16.913 19.287,16.805 19.371,16.697C19.455,16.589 19.758,15.954 19.767,15.724Z" fill="#8F9DA7" />
  <path d="M25.62,14.155C25.882,14.118 26.534,15.795 26.605,16.517C26.678,17.238 26.665,18.536 26.233,18.585C25.801,18.632 25.411,18.465 25.275,17.743C25.139,17.022 25.243,16.469 25.275,16C25.308,15.531 25.235,14.208 25.62,14.155Z" fill="#f4f4f4" />
  <path d="M25.511,14.155C25.529,13.847 25.825,13.74 26.173,13.801C26.521,13.861 26.498,14.402 26.485,14.654C26.473,14.906 27.032,14.846 27.035,16.205C27.038,17.563 26.654,18.332 26.761,18.525C26.87,18.717 27.362,18.969 27.086,19.018C26.81,19.066 26.461,18.778 26.221,18.693C25.98,18.608 26.241,18.272 26.339,17.864C26.437,17.455 26.388,17.009 26.185,17.064C25.98,17.118 26.268,18.11 25.932,18.077C25.595,18.044 25.415,17.301 25.451,16.621C25.488,15.941 25.62,15.892 25.812,15.676C26.005,15.46 25.885,15.364 25.68,15.135C25.475,14.907 25.548,14.727 25.764,14.606C25.981,14.485 25.485,14.569 25.511,14.155Z" fill="#1c1c1c" />
  <path d="M25.207,15.315C24.918,15.338 24.622,15.423 24.622,15.543C24.622,15.663 24.61,16.06 24.622,16.108C24.635,16.155 25.031,15.904 25.207,15.915L25.207,15.315Z" fill="#f4f4f4" />
  <path d="M25.62,14.155C25.691,13.783 25.019,14.137 24.983,14.233C24.947,14.329 25.548,14.533 25.62,14.155Z" fill="#ff8101" />
  <path d="M25.825,13.968C25.861,13.861 26.666,13.728 26.798,13.74C26.931,13.752 26.923,13.723 26.887,13.784C26.874,13.805 26.491,13.858 26.486,13.895C26.475,13.962 26.824,13.92 26.883,13.968C26.922,14.001 26.495,13.997 26.568,14.05C26.664,14.122 27.028,14.285 26.921,14.245C26.735,14.175 25.765,14.144 25.825,13.968Z" fill="#fee559" />
  <path d="M25.696,18.487C25.517,18.52 24.959,18.478 25.151,18.592C25.344,18.704 25.404,18.716 25.404,18.716C25.404,18.716 25.058,18.842 25.207,18.905C25.355,18.968 25.697,18.929 25.923,18.925C26.149,18.92 26.315,18.793 26.221,18.692C26.128,18.59 25.965,18.438 25.696,18.487Z" fill="#ff8101" />
  <path d="M20.638,21.445C21.07,21.528 21.635,21.709 21.635,21.709L21.563,22.491C21.563,22.491 21.383,22.226 20.433,22.058C20.325,21.745 20.638,21.445 20.638,21.445ZM20.781,20.135C20.781,20.135 20.794,20.387 20.457,20.675C20.12,20.964 19.736,20.94 19.76,20.615C20.085,20.532 20,19.888 20.27,19.805C20.241,20.075 20.349,20.255 20.781,20.135ZM25.761,21.445C25.328,21.528 24.763,21.709 24.763,21.709L24.835,22.491C24.835,22.491 25.015,22.226 25.965,22.058C26.073,21.745 25.761,21.445 25.761,21.445Z" fill="#cf0828" />
  <path d="M25.568,20.76C25.845,20.459 26.037,20.472 26.181,20.183C26.326,19.895 26.109,19.666 25.737,19.735C25.365,19.803 24.98,20.399 24.98,20.399C24.98,20.399 24.271,19.978 23.2,19.978C22.128,19.978 21.419,20.399 21.419,20.399C21.419,20.399 21.035,19.803 20.662,19.735C20.29,19.666 20.073,19.895 20.218,20.183C20.362,20.472 20.555,20.459 20.831,20.76C20.386,21.061 20.025,21.662 20.025,21.662L20.434,22.058C20.434,22.058 20.662,21.674 21.143,21.277C21.564,21.758 21.564,22.491 21.564,22.491C21.564,22.491 21.69,21.974 21.885,21.805C21.876,21.337 21.744,20.988 21.744,20.988C21.744,20.988 22.371,20.604 23.2,20.604C24.028,20.604 24.656,20.988 24.656,20.988C24.656,20.988 24.524,21.337 24.515,21.805C24.71,21.974 24.836,22.491 24.836,22.491C24.836,22.491 24.836,21.758 25.257,21.277C25.738,21.674 25.966,22.058 25.966,22.058L26.375,21.662C26.374,21.661 26.013,21.06 25.568,20.76Z" fill="#fcb100" />
  <path d="M25.616,20.135C25.616,20.135 25.604,20.387 25.941,20.675C26.278,20.964 26.662,20.94 26.638,20.615C26.313,20.532 26.398,19.888 26.128,19.805C26.157,20.075 26.049,20.255 25.616,20.135Z" fill="#cf0828" />
</svg>
