<svg width="32" height="32" viewBox="0 0 32 32" xmlns="http://www.w3.org/2000/svg">
  <polygon fill="#FCD53F" points="2,6 30,6 20,20 2,26" />
  <polygon fill="#F95725" points="2,26 30,6 30,26" />
  <path fill="#f4f4f4" d="M26.7115,10.2146c-0.2777,0.0185-0.4262,0.2223-0.5931,0.2223h-0.2969c0,0,0.24-0.3338,0.3708-0.4262c0.1292-0.0931,0.6108-0.13,0.7223-0.2223c0.1108-0.0931,0.1292-0.2223,0.1292-0.2223c-0.2408,0.1669-0.7969,0.0738-1.0369,0.1292s-0.4454,0.3154-0.4454,0.3154s0.2777-0.5562,0.3523-0.7977c0.0738-0.2408,0.0738-0.6485,0.3708-0.8708c0.2962-0.2223,0.1115-0.5008,0.1115-0.5008s-0.0746,0.1854-0.2777,0.3523c-0.2038,0.1669-0.4077,0.1485-0.3892,0.4638c0.0192,0.3146,0.0369,0.3146-0.1108,0.4631S25.4708,9.2315,25.2292,9.64c-0.2408,0.4077-0.3523-0.0185-0.8715,0.1669s-0.76-0.3338-1.1669-0.2777c-0.4077,0.0554-1.3715-0.1308-1.76-0.26c-0.39-0.13-0.1854-0.2969-1.1315-0.7408c-0.9446-0.4454-1.5385-0.0185-1.1677-0.0377c0.1831-0.0092,0.4654,0.0631,0.7038,0.1385c-0.2969-0.0215-0.5369,0.1023-0.5369,0.1023s0.5192,0.1477,0.9454,0.5185c0.4262,0.3708,0,0.3338-0.5562,0s-1.1485-0.4077-1.6492-0.3523c-0.5,0.0554-0.37,0.2223-0.0923,0.2038c0.2777-0.0185,0.9085,0.1669,1.4092,0.3523c0.4992,0.1854-0.0377,0.2231-0.0377,0.2231c-1.0938-0.6492-1.5754-0.13-1.2792-0.2415c0.2977-0.1115,0.63,0.1485,1.1492,0.4269c0.5192,0.2785-0.7408,0.1115-0.7408,0.1115s-0.5746-0.2408-1.1315-0.2969c-0.5562-0.0554-0.9815,0.4815-0.7969,0.7408c0.1854,0.2592,0.5369,0.1108,0.5369,0.1108c-0.3985-0.1154-0.2777-0.4077-0.0177-0.4815c0.2592-0.0738,1.2608,0.1854,1.5385,0.2969c0.2777,0.1108,0.3892,0.5377-0.37,0.1846c-0.76-0.3523-0.4823,0.0562-0.4823,0.0562c-0.7415-0.0562,0.3338,0.4262-0.13,0.2969c-0.4631-0.13-1.0008,0.0554-1.4454,0.0554s-0.6115,0.4823-0.6115,0.4823s0.2592-0.1485,0.5838-0.26c0.3246-0.1108,1.2323,0.1115,1.2323,0.1115c-0.37,0.3708-0.3523,1.0562-0.3523,1.0562c-0.3885,0.0923-0.7592,0.7969-0.7592,0.7969c0.1477-0.2408,0.6669-0.3154,0.6669-0.3154s0.0923,0.2038-0.1477,0.5008c-0.2408,0.2962-0.1669,0.6669-0.1669,0.6669s0.1108-0.2962,0.26-0.4446c0.1469-0.1485,0.5185-0.13,0.5185-0.13c-0.1669,0.3892,0.4638,0.63,0.4638,0.63c-0.1854,0.3331,0.1677,0.7046,0.1108,0.6862c-0.0546-0.0185-0.6492,0.1846-0.6492,0.1846s0.8169,0.0185,0.3892,0.13c-0.4262,0.1108-1.2038-0.3338-1.2038-0.3338l-0.9077-0.4077c0,0,0.3892,0.3708-0.0554,0.3154c-0.4454-0.0554-0.89,0.1669-1.2792-0.0923c-0.3892-0.26-1.0385-0.4085-0.9085-0.1669c0.1292,0.2415,0.3154,0.4815,0.3154,0.4815c-0.7038-0.1485-0.3523,0.4815-0.8708,0.4269c-0.5192-0.0562-0.0931,0.4446-0.5931,0.2962c-0.5008-0.1485-0.9823,0.4077-0.9823,0.4077c0.1669-0.0931,0.7038,0.0554,0.7038,0.0554c-0.2038,0.0738-0.1108,0.4623-0.1108,0.4623c-0.4823,0.1285-0.3523,0.8538-0.3523,0.8538c-0.4077,0-0.4815,0.2769-0.6485,0.4623c-0.1662,0.1854-0.5562,0.1854-0.5562,0.1854c0.2723,0.2115,0.8085,0.0669,1,0.0062c-0.1754,0.1138-0.1477,0.6238-0.1477,0.6238c-0.3338,0.0554-0.0369,0.5562-0.1108,0.5c-0.0746-0.0554-0.2592,0.0746-0.4446,0.2223c-0.1854,0.1485-0.4262,0.1854-0.4262,0.1854c0.1292,0.1669,0.4262,0.1854,0.4262,0.1854s-0.2231,0.4262-0.5008,0.5192c-0.2777,0.0915-1.0562,0.2769-1.26,0.2962c-0.2038,0.0185-0.6485,0-1.0562-0.1115c-0.4077-0.1108-0.8338,0-1.1677-0.0377c-0.3338-0.0369-0.5377,0.2969-0.5377,0.2969s0.2777-0.0923,0.5185-0.0369s0.3154,0.2777,0.5746,0.1669c0.2592-0.1115,0.7969,0.1485,0.7969,0.1485s-0.1854,0.1108-0.4446,0.2038c-0.2592,0.0923-0.6115,0.2031-0.9085,0.2592c-0.2962,0.0554-0.6485,0.4823-0.4077,0.2777C6.3823,21.48,6.53,21.6469,6.8638,21.5908c0.3346-0.0554,0.6492-0.0738,0.6492-0.0738s-0.2223,0-0.3892,0.2038c-0.1669,0.2046-0.63,0.39-0.89,0.39c-0.2592,0-0.6854,0.13-0.9269,0.4446c-0.2408,0.3154-0.5377,0.3708-0.5377,0.3708s0.1854,0.2038,0.4638,0c0.2777-0.2046,0.3338-0.2969,0.7415-0.3708c0.4077-0.0746,0.8338-0.2223,0.8338-0.2223c-0.2223,0.1854-0.3523,0.4077-0.7223,0.4631c-0.3708,0.0562-0.9454,0.5-1.1677,0.7231c-0.2223,0.2223-0.6115,0.39-0.6115,0.39c0.37,0.2223,0.5562-0.0554,0.9454-0.2777s0.5931-0.0746,1.0569-0.2046c0.4631-0.13,0.4077-0.5185,0.5554-0.5369c0.1485-0.0177,0.5377,0,0.6492-0.1854c0.1115-0.1846,0.0369-0.3331,0.3154-0.3331c0.2777,0,0.3885-0.13,0.3885-0.13c-0.1115,0.24-0.3885,0.4446-0.3885,0.4446c0.3338,0.0923,0.5931-0.2223,0.9269-0.4269c0.3338-0.2038,0.5562-0.2038,0.5562-0.2038s-0.2038,0.3523-0.4262,0.3892c-0.2231,0.0369-0.4823,0.4269-0.4823,0.4269c0.1485-0.3154,0.8523-0.26,1.1123-0.4823c0.2592-0.2223,0.6115-0.5938,0.8338-0.7231c0.2223-0.13,0.4446-0.4069,0.8338-0.7592c0.3892-0.3523,1.0746-0.2777,1.0746-0.3338c0-0.0554-0.0185,0.5185-0.0185,0.5185l-0.6485,0.0562l0.4077,0.2962c-0.2592-0.1115-0.63,0.4077-0.63,0.4077l0.6415-0.0746l0.1369,0.3715c0.2038-0.4277,0.3523-0.3346,0.3523-0.3346c0.2223,0.2592,0.2408,0.8523,0.2408,0.8523s-0.2962-0.0746-0.63,0.3146c-0.3338,0.39,0.2777,1.1308,0.2777,1.1308s-0.1115,0.1669,0,0.4823c0.1108,0.3146,0.6854,0.6485,1.26,0.4631c0.5746-0.1854,0.5192-0.9631,0.5192-0.9631s0.2038-0.2046,0.1662-0.6123c-0.0369-0.4077-0.2223-0.6292-0.2223-0.6292s0.3523-0.13,0.5746,0.1108c0.2223,0.24,0.2777,0.7962,0.2777,0.7962s0.2223-1.0377-0.1108-1.2962c-0.3331-0.2585-1.1492-0.2408-1.1492-0.2408c-0.0185-0.4269-0.3892-0.6677-0.4823-0.9454c-0.0931-0.2777,0.0554-0.9638,0.0554-0.9638l0.4631,0.0377c0,0-0.0369,0.1669,0.2962,0.4077c0.3338,0.24,0.8708,0.0738,0.8708,0.0738s0.6115,0.0554,0.9085-0.4815c0.2962-0.5369-0.2592-0.9638-0.2592-0.9638c-0.0923-0.8523-1.3531-0.37-1.3531-0.37c0.13-0.5746,0.6862-0.5746,0.6862-0.5746s-0.6485-0.3346-1.0192-0.2046c-0.3708,0.13-0.2415,1.0569-0.5377,1.02c-0.2962-0.0369-0.3338-0.9462-0.0931-1.6508c0.2408-0.7038,1.4638-0.7408,2.6315-0.2769c1.1669,0.4623,2.8169,0.5554,2.8169,0.5554c-0.0546,0.2223-0.3515,0.5569-0.3515,0.5569l-0.5192-0.2046l0.3146,0.39c-0.1115,0.2777-0.4077,0.4815-0.4077,0.4815c0.3146,0.2223,0.6669-0.2223,0.6669-0.2223l0.13,0.5377l0.3154-0.4446c0,0,0.6477,0.4631,1.1854,0.6662c0.5369,0.2046,1.5762,0.39,1.5762,0.39s-0.3523,0.1669,0.0177,0.7592c0.3708,0.5931,1.2231,0.7592,1.2231,0.7592s0.6492,0.2969,1.2408-0.2223c0.5938-0.5192,0.1115-1.4638,0.1115-1.4638c0-1.0923-1.1669-0.75-1.1669-0.75c0.24-0.4723,0.8062-0.7885,0.8062-0.7885c-0.9177-0.5369-1.3062,0.52-1.9923,0.7423c-0.6862,0.2223-1.8908-0.4269-1.9454-0.4269c-0.0562,0,0.0362-0.1115,0.0546-0.3523c0.0185-0.24,0.5746-0.7038,0.8523-1.2785c0.2785-0.5746,0.2046-1.52,0.2046-1.52c0.37-0.37,0.8715-0.0931,0.8715-0.0931c-0.0185,0.3892-0.26,0.5562-0.26,0.5562c0.2777,0.0185,0.4077-0.2415,0.4077-0.2415c-0.13,0.4077,0.2969,0.89,0.2969,0.89l0.1292-0.6308l0.3892,0.4454l-0.24-0.8154c0.7408,0,1.5192-0.5377,1.5192-0.5377s0.3708,0.5377,1.1123,0.5377c0.7408,0,1.4823-0.7969,1.4823-1.1492c0-0.3523-0.6669-0.8523-0.6669-0.8523s0.2592-0.5931-0.7223-0.5931c-0.9815,0-1.2785,1.1962-1.2785,1.1962s-0.4085-0.1762-0.9646-0.0292c-0.5554,0.1485-1.4631-0.3146-2.0192-0.5923c-0.5569-0.2777-1.3346-1.0385-1.3346-1.0385c0-0.2592,0.1446-0.6677,0.1446-0.6677s0.8,0.0562,0.56,0.1485c-0.2415,0.0931-0.8708,0.2785-0.37,0.3154c0.4992,0.0369,0.9815-0.1669,0.8331,0c-0.1477,0.1669-0.7038,0.5562-0.4815,0.5562s0.5192-0.2785,0.6677-0.3154c0.1477-0.0369,0.4069,0.0554,0.7785,0.0554c0.0985,0,0.2023-0.0569,0.3015-0.1377c0.3815,0.1808,0.9462,0.7185,1.2177,0.99c0.3338,0.3331,0.5369-0.1115,0.6862-0.3146c0.0854-0.1177-0.1492-0.3385-0.4023-0.5377c0.0423-0.0523,0.0854-0.1038,0.1238-0.1485c0.02-0.0231,0.0531-0.0392,0.0831-0.0569l0.4254,0.1538c0.0023,0.3215-0.0077,0.7562-0.0077,0.7562c0.2046-0.1454,0.2138-0.4377,0.2177-0.6838c0.2915,0.1008,0.5469,0.1777,0.71,0.1831c0.5369,0.0185,0.8885-0.1669,1.3892-0.2223c0.5-0.0554,0.5369,0.4085,0.5369,0.4085s0.2046-0.1485-0.0923-0.4454c-0.2962-0.2969-0.6862-0.2777-0.6862-0.2777c0-0.4269-0.5146-0.4077-0.5146-0.4077c0.4308,0.2408-0.0038,0.5-0.0038,0.5c0.0554-0.2408-0.4823-0.3877-0.4823-0.3877s0.3523,0.1654,0.1308,0.3685c-0.1385,0.1269-0.3292,0.1262-0.5669,0.09c0.0277-0.1277,0.0769-0.3223,0.1577-0.4977c0.1308-0.2777-0.0923-0.5554-0.0923-0.5554l0.2408-0.4454c0,0,0.7969-0.13,1.0185-0.2408c0.2231-0.1115,0.4446-0.2046,1.0008-0.1854c0.5569,0.0185,0.6869-0.2962,0.6869-0.2962C27.6938,10.3992,26.9892,10.1961,26.7115,10.2146z M23.0238,11.4192c0.1854-0.1292,0.2969-0.0185,0.2969-0.0185l0.1462,0.3338l0.1869-0.4077l0.2592,0.2038L23.7662,11.79l0.5562-0.0738l-0.0554,0.1854c0,0-0.1977,0.1777-0.3915,0.3338c-0.3838-0.1192-0.83-0.2877-1.1492-0.46C22.7869,11.6723,22.8992,11.5062,23.0238,11.4192z M23.6531,12.4008c-0.0569,0.0377-0.0962,0.0877-0.1238,0.1415c-0.1408-0.1054-0.2731-0.1985-0.3385-0.2523c-0.0623-0.0508-0.1454-0.0977-0.2362-0.1431c0.2354,0.06,0.4838,0.1392,0.7346,0.2277C23.6892,12.3746,23.6531,12.4008,23.6531,12.4008z M24.1838,12.3246c0.0562-0.01,0.0992-0.0162,0.0992-0.0162l0.0023,0.0408C24.2523,12.3415,24.2208,12.3346,24.1838,12.3246z M24.5262,12.4008c0.0508-0.21,0.2215-0.3331,0.2215-0.3331c-0.0077,0.1469,0.0169,0.2754,0.0454,0.3846L24.5262,12.4008z" />
</svg>