<svg width="32" height="32" viewBox="0 0 32 32" xmlns="http://www.w3.org/2000/svg">
  <rect fill="#44911B" x="2" y="6" width="28" height="20" />
  <path fill="#FCD53F" d="M17.0394,18.7429c-1.5148,0-2.7429-1.228-2.7429-2.7429s1.228-2.7429,2.7429-2.7429c0.4305,0,0.8325,0.108,1.1951,0.2847c-0.592-0.5384-1.3712-0.8752-2.2344-0.8752c-1.8409,0-3.3333,1.4924-3.3333,3.3333S14.1591,19.3333,16,19.3333c0.8633,0,1.6424-0.3368,2.2344-0.8752C17.8718,18.6349,17.4698,18.7429,17.0394,18.7429z" />
  <path fill="#FCD53F" d="M24,20.1905l0.2204,0.6852l0.6731-0.2549l-0.3983,0.5995l0.619,0.3673L24.3971,21.65l0.0987,0.713L24,21.8413l-0.4959,0.5217l0.0987-0.713l-0.7171-0.0624l0.619-0.3673l-0.3983-0.5995l0.6731,0.2549L24,20.1905z M20,13.8571l0.2204,0.6852l0.6731-0.2549l-0.3983,0.5995l0.619,0.3673l-0.7171,0.0624l0.0987,0.713L20,15.5079l-0.4959,0.5217l0.0987-0.713l-0.7171-0.0624l0.619-0.3673l-0.3983-0.5995l0.6731,0.2549L20,13.8571z M24,9.5238l0.2204,0.6852l0.6731-0.2549l-0.3983,0.5995l0.619,0.3673l-0.7171,0.0624l0.0987,0.713L24,11.1746l-0.4959,0.5217l0.0987-0.713l-0.7171-0.0624l0.619-0.3673l-0.3983-0.5995l0.6731,0.2549L24,9.5238z M27.5556,12.7905l0.2204,0.6852l0.6731-0.2549l-0.3983,0.5995l0.619,0.3673L27.9527,14.25l0.0987,0.713l-0.4959-0.5217l-0.4959,0.5217l0.0987-0.713l-0.7171-0.0624l0.619-0.3673l-0.3983-0.5995l0.6731,0.2549L27.5556,12.7905z M25.6,16l0.1742,0.427l0.4599,0.0337l-0.3522,0.2976l0.1101,0.4478L25.6,16.963l-0.3919,0.243l0.1101-0.4478l-0.3522-0.2976l0.4599-0.0337L25.6,16z" />
  <path fill="#FCD53F" d="M7,7.5079c1.9286,0,3.4921,1.5634,3.4921,3.4921S8.9286,14.4921,7,14.4921S3.5079,12.9286,3.5079,11S5.0714,7.5079,7,7.5079z M5.8259,8.8846H5.0473l1.5572,0.7793L5.096,9.3961L6.1177,9.931L4.9622,10.163l-0.5843,0.7051l2.1903-0.412l-0.4257,1.5435h0.4374l0.3289-0.5472l0.0748,0.4346L7.298,11.793l0.0851-0.5719l0.1215-0.5719l1.4357,1.3505v-0.7786l-0.6811-0.5108l1.3629,0.1092l-0.2314-0.7662H8.8312l0.1943-0.6083l-1.034,0.0968l0.4744-0.6928l-0.4257-0.219l0.1092-0.414l-0.815,0.0735L7.2444,9.0274L6.9451,9.2135L7.274,9.8101L6.3004,8.8846H5.8259z" />
  <path fill="#5C2614" d="M7.6538,13.6699H6.7207l0.0015-0.0386c0.0005-0.0103,0.0044-0.1035,0.0288-0.1494c0.0156-0.0288,0.0386-0.04,0.0547-0.0483c0.0156-0.0073,0.0264-0.0127,0.0381-0.0322l0.0288-0.0503c0.0186-0.0327,0.0186-0.0327,0.0635-0.105l0.0498-0.0796c0.1074-0.1709,0.1138-0.1807,0.1841-0.3696l0.0063-0.0171c0.0664-0.1792,0.0801-0.2163,0.1572-0.541c0.02-0.0845,0.0366-0.1509,0.0513-0.209c0.0425-0.1719,0.0684-0.2759,0.1226-0.6021c0.0713-0.4287,0.0483-0.7632,0.0479-0.7666l-0.0029-0.0396h0.2041l-0.001,0.0381c-0.0005,0.0107-0.0327,1.0918-0.0972,1.7754c-0.0532,0.5625-0.0737,0.6143-0.1353,0.7676c-0.0146,0.0356-0.0312,0.0771-0.0513,0.1328c-0.0205,0.0581,0.0068,0.0796,0.1006,0.1138c0.0298,0.0112,0.0557,0.0205,0.0737,0.0356c0.0557,0.0464,0.0376,0.125,0.0181,0.1646L7.6538,13.6699z" />
</svg>