<svg width="32" height="32" viewBox="0 0 32 32" xmlns="http://www.w3.org/2000/svg">
  <polygon fill="#1345B7" points="2,8 3,7 29,7 30,8 30,24 29,25 3,25 2,24" />
  <rect fill="#CF0828" x="2" y="6" width="28" height="2" />
  <rect fill="#CF0828" x="2" y="24" width="28" height="2" />
  <circle fill="#f4f4f4" cx="16" cy="16" r="6" />
  <circle fill="#5C2614" cx="16" cy="16" r="5.4" />
  <circle fill="#f4f4f4" cx="16" cy="16" r="5.2458" />
  <path fill="#44911B" d="M21.4,15.7c0.24,0,0.42,0.12,0.42,0.3c0,0.18-0.18,0.3-0.42,0.3c-0.24,0-0.42-0.12-0.42-0.3C20.98,15.82,21.16,15.7,21.4,15.7z M21.28,17.08c0.24,0.06,0.36,0.24,0.3,0.42c-0.06,0.18-0.24,0.24-0.48,0.18c-0.24-0.06-0.36-0.24-0.3-0.42C20.86,17.08,21.1,17.02,21.28,17.08z M20.8,18.46c0.18,0.12,0.3,0.3,0.18,0.48c-0.12,0.18-0.3,0.18-0.48,0.06s-0.3-0.3-0.18-0.48C20.44,18.34,20.62,18.34,20.8,18.46z M20.02,19.6c0.18,0.18,0.18,0.36,0.06,0.48c-0.12,0.12-0.3,0.12-0.48-0.06c-0.18-0.18-0.18-0.36-0.06-0.48C19.66,19.42,19.9,19.42,20.02,19.6z M18.94,20.5c0.12,0.18,0.06,0.42-0.06,0.48s-0.36,0-0.48-0.18c-0.12-0.18-0.06-0.42,0.06-0.48C18.64,20.26,18.88,20.32,18.94,20.5z M17.68,21.16c0.06,0.24-0.06,0.42-0.18,0.48c-0.18,0.06-0.36-0.12-0.42-0.3c-0.06-0.24,0.06-0.42,0.18-0.48C17.44,20.8,17.62,20.92,17.68,21.16z M16.3,21.4c0,0.24-0.12,0.42-0.3,0.42c-0.18,0-0.3-0.18-0.3-0.42c0-0.24,0.12-0.42,0.3-0.42C16.18,20.98,16.3,21.16,16.3,21.4z M14.92,21.28c-0.06,0.24-0.24,0.36-0.42,0.3c-0.18-0.06-0.24-0.24-0.18-0.48c0.06-0.24,0.24-0.36,0.42-0.3C14.86,20.86,14.98,21.1,14.92,21.28z M13.54,20.8c-0.12,0.18-0.3,0.3-0.48,0.18s-0.18-0.3-0.06-0.48s0.3-0.3,0.48-0.18C13.66,20.44,13.66,20.62,13.54,20.8z M12.4,20.02c-0.18,0.18-0.36,0.18-0.48,0.06c-0.12-0.12-0.12-0.3,0.06-0.48c0.18-0.18,0.36-0.18,0.48-0.06C12.58,19.66,12.58,19.9,12.4,20.02z M11.5,18.94c-0.18,0.12-0.42,0.06-0.48-0.06c-0.06-0.12,0-0.36,0.18-0.48c0.18-0.12,0.42-0.06,0.48,0.06C11.74,18.58,11.68,18.88,11.5,18.94z M10.84,17.68c-0.24,0.06-0.42-0.06-0.48-0.18c-0.06-0.18,0.12-0.36,0.3-0.42c0.24-0.06,0.42,0.06,0.48,0.18C11.2,17.44,11.08,17.62,10.84,17.68z M10.6,16.3c-0.24,0-0.42-0.12-0.42-0.3c0-0.18,0.18-0.3,0.42-0.3s0.42,0.12,0.42,0.3C11.02,16.18,10.84,16.3,10.6,16.3z M10.72,14.92c-0.24-0.06-0.36-0.24-0.3-0.42c0.06-0.18,0.24-0.24,0.48-0.18c0.24,0.06,0.36,0.24,0.3,0.42C11.14,14.86,10.9,14.98,10.72,14.92z M11.2,13.54c-0.18-0.12-0.3-0.3-0.18-0.48c0.06-0.12,0.3-0.18,0.48-0.06s0.3,0.3,0.18,0.48S11.38,13.66,11.2,13.54z M11.98,12.4c-0.18-0.18-0.18-0.36-0.06-0.48s0.36-0.12,0.48,0.06c0.18,0.18,0.18,0.36,0.06,0.48S12.1,12.58,11.98,12.4z M13.06,11.5c-0.12-0.18-0.06-0.42,0.06-0.48c0.12-0.06,0.36,0,0.48,0.18s0.06,0.42-0.06,0.48C13.36,11.74,13.12,11.68,13.06,11.5z M14.32,10.84c-0.06-0.24,0.06-0.42,0.18-0.48c0.18-0.06,0.36,0.12,0.42,0.3c0.06,0.24-0.06,0.42-0.18,0.48C14.56,11.2,14.38,11.08,14.32,10.84z M15.7,10.6c0-0.24,0.12-0.42,0.3-0.42c0.18,0,0.3,0.18,0.3,0.42s-0.12,0.42-0.3,0.42C15.82,11.02,15.7,10.84,15.7,10.6z M17.08,10.72c0.06-0.24,0.24-0.36,0.42-0.3s0.24,0.24,0.18,0.48c-0.06,0.24-0.24,0.36-0.42,0.3C17.14,11.14,17.02,10.9,17.08,10.72z M18.46,11.2c0.12-0.18,0.3-0.3,0.48-0.18c0.12,0.06,0.18,0.3,0.06,0.48c-0.12,0.18-0.3,0.3-0.48,0.18S18.34,11.38,18.46,11.2z M19.6,11.98c0.18-0.18,0.36-0.18,0.48-0.06s0.12,0.36-0.06,0.48c-0.18,0.12-0.36,0.18-0.48,0.06C19.42,12.34,19.42,12.1,19.6,11.98z M20.5,13.06c0.18-0.12,0.42-0.06,0.48,0.06c0.06,0.12,0,0.36-0.18,0.48c-0.18,0.12-0.42,0.06-0.48-0.06C20.26,13.36,20.32,13.12,20.5,13.06z M21.16,14.32c0.24-0.06,0.42,0.06,0.48,0.18c0.06,0.18-0.12,0.36-0.3,0.42c-0.24,0.06-0.42-0.06-0.48-0.18S20.92,14.38,21.16,14.32z" />
  <path fill="#B76A1E" d="M14.176,12.5188l0.5952,1.0158h0.6522l0.2922,0.2346l0.18,0.6216L15.25,14.1076l0.6024,0.4932l-0.1452,0.4944h0.4962v-0.8778l0.81-0.4962l-0.1338-0.0996l-0.672,0.3756l-0.078-0.5484l-0.1212-0.1302l0.4128-0.5094l-0.213-0.0864l-0.312,0.462l-0.0438-0.3756l0.0438-0.4638c0,0-0.2076-0.165-0.1884-0.111s0,0.408,0,0.408l-0.39-0.4188l-0.1806,0.072l0.3918,0.3474l-0.4554,0.3396l-0.5526-0.1518l0.1062-0.5634h-0.1134l-0.0978,0.531l-0.0978-0.4524l-0.1416,0.2502 M16.2688,11.974h0.1302v0.4878h-0.1302V11.974z M16.9516,12.0718h0.1626v0.2598h-0.1626V12.0718z" />
  <path fill="#f4f4f4" d="M14.896,13.0954c0.0198,0.0492,0.1074,0.2874,0.1074,0.2874l0.627,0.0648l0.2658,0.273l-0.1044-0.3132l-0.1614-0.3624C15.6304,13.045,14.896,13.0954,14.896,13.0954z" />
  <path fill="#44911B" d="M14.1886,11.9848c0.3774-0.2268,0.6234,0.1518,0.6234,0.1518s0.156-0.477,0.6222-0.5094c0.4656-0.0324,0.462,0.1734,0.462,0.1734s0.1032-0.2994,0.7254-0.177c0.6228,0.1224,0.6036,0.3288,0.4992,0.4152c-0.1044,0.087-1.047,0.0324-1.047,0.0324s0.0972,0.1842,0.108,0.2598c0.0108,0.0762,0.3468-0.1404,0.8772,0c0,0,0.261-0.4548,0.6618-0.2166c0.4014,0.2388,0.6636,0.6936,0.5646,0.8238c-0.0984,0.1302-0.8142,0.0432-0.8952-0.0432c0,0-0.1452,0.2388-0.4818,0.195c-0.3366-0.0432-0.9-0.4008-0.9-0.4008l-0.1128-0.174c0,0-0.2616-0.2058-0.5784-0.2166c-0.3168-0.0102-0.5376,0-0.5376,0s-0.2136,0.2496-0.4626,0.282c-0.249,0.033-0.5088,0.0216-0.5088,0.0216S13.756,12.2452,14.1886,11.9848z M14.6266,12.6784c0.6234-0.0978,1.035,0,1.0782,0.3036c0.0432,0.3036-0.465,0.2496-0.5682,0.2604c-0.1038,0.0108-0.7002,0.2166-0.8946,0.2058c-0.195-0.0108-0.5964-0.2058-0.3036-0.4872C14.2312,12.6784,14.6266,12.6784,14.6266,12.6784z M17.014,13.231c0.6132,0.1428,0.9024,0.477,0.7608,0.618c-0.1404,0.1404-0.5022,0.1194-0.831,0s-0.7848-0.0324-0.8868-0.2604C15.9544,13.3612,16.318,13.0684,17.014,13.231z M16.8052,14.0116c0.4656,0.0762,0.4824,0.4872,0.4068,0.5634c-0.0762,0.0756-0.7914-0.0216-0.9534-0.2166C16.0954,14.1634,16.3444,13.936,16.8052,14.0116z M15.0736,13.8052c0.5808-0.2196,0.8298,0.033,0.8226,0.2604c-0.0066,0.2274-0.4938,0.2166-0.684,0.3036c-0.1896,0.087-0.5364,0.195-0.6552,0.0648C14.437,14.3038,14.6146,13.9786,15.0736,13.8052z" />
  <path fill="#E6E6E6" d="M18.2518,18.8992c-0.282,0-0.6612,0.2274-0.6612,0.2274s-0.1734-0.1734-0.4554-0.0222c-0.282,0.1524-0.444,0.1956-0.4224,0.477c0,0-0.1536,0.0786-0.3036,0.1194c-0.2382,0.0654-0.4008,0.0102-0.4008,0.0102s-0.1626,0.0552-0.4008-0.0102c-0.15-0.0408-0.303-0.1194-0.303-0.1194c0.0216-0.2814-0.141-0.3246-0.423-0.477c-0.282-0.1512-0.4554,0.0222-0.4554,0.0222s-0.3792-0.2274-0.6612-0.2274c-0.282,0-0.531,0.2706-0.5202,0.3468c0.0108,0.0762,0.141,0.3354,0.2166,0.465c0.0756,0.1302,0.141,0.2064,0.3468,0.2064c0.2058,0,0.639-0.1302,0.639-0.1302s0.0978,0.0972,0.6072,0.2928c0.5094,0.1944,0.9534,0.1842,0.9534,0.1842s0.444,0.0108,0.9534-0.1842c0.5094-0.1956,0.6072-0.2928,0.6072-0.2928s0.4338,0.1302,0.6396,0.1302c0.2058,0,0.2706-0.0762,0.3468-0.2064c0.0756-0.1302,0.2064-0.3888,0.2166-0.465C18.7828,19.1698,18.5338,18.8992,18.2518,18.8992z" />
  <path fill="#bebebe" d="M14.6752,19.8016c-0.162,0.1596-0.4062,0.492,0.1182,0.594c0.525,0.102,0.3204-0.414,0.21-0.4992C14.8924,19.81,14.6752,19.8016,14.6752,19.8016z M17.3416,19.8016c0.1626,0.1596,0.4068,0.492-0.1176,0.594c-0.5256,0.102-0.3204-0.414-0.2106-0.4992C17.125,19.81,17.3416,19.8016,17.3416,19.8016z" />
  <path fill="#5092FF" d="M14.9362,19.9504c0.0108,0.0318,0.0756,0.1842,0,0.2706c-0.0762,0.087-0.2058,0.1524-0.3252,0.1404c0,0,0.5094,0.087,0.6174,0.1416c0.1086,0.0528,0.2058-0.1092,0.1518-0.3366C15.3262,19.9396,14.9362,19.9504,14.9362,19.9504z M17.0818,19.9504c-0.0108,0.0318-0.0762,0.1842,0,0.2706c0.0756,0.087,0.2058,0.1524,0.3246,0.1404c0,0-0.5094,0.087-0.6174,0.1416c-0.1086,0.0528-0.2058-0.1092-0.1512-0.3366C16.6912,19.9396,17.0818,19.9504,17.0818,19.9504z" />
  <path fill="#bebebe" d="M14.4748,19.162c0.2076,0.1404,0.6408,0.3384,0.8298,0.4194c0,0,0.0672-0.183-0.1002-0.288c-0.1674-0.1068-0.4104-0.2028-0.5286-0.2496C14.5564,18.9964,14.4748,19.162,14.4748,19.162z M14.5564,19.8016c-0.2922-0.2628-0.4764-0.3606-0.6936-0.4044c-0.2166-0.0432-0.4704,0.0366-0.4626,0.2028c0.0072,0.1662,0.2148,0.3396,0.4086,0.3174C14.0014,19.8964,14.5564,19.8016,14.5564,19.8016z M17.5426,19.162c-0.2088,0.1404-0.6408,0.3384-0.8298,0.4194c0,0-0.0672-0.183,0.1002-0.288c0.1674-0.1068,0.411-0.2028,0.5286-0.2496C17.461,18.9964,17.5426,19.162,17.5426,19.162z M17.461,19.8016c0.2922-0.2628,0.4764-0.3606,0.6936-0.4044c0.216-0.0432,0.4698,0.0366,0.4626,0.2028c-0.0078,0.1662-0.2148,0.3396-0.4086,0.3174C18.0148,19.8964,17.461,19.8016,17.461,19.8016z" />
  <path fill="#5092FF" d="M14.5564,19.2238c0,0,0.0108-0.2052,0.1518-0.1194c0.141,0.0876,0.0978,0.2436,0.0978,0.2436L14.5564,19.2238z M14.3614,19.7338c0,0-0.3684-0.2706-0.531-0.2706c-0.1632,0-0.3252,0.0108-0.3144,0.135c0.0108,0.1254,0.228,0.1794,0.3474,0.2004C13.9822,19.8202,14.3614,19.7338,14.3614,19.7338z M17.461,19.2238c0,0-0.0108-0.2052-0.1512-0.1194c-0.1416,0.0876-0.0978,0.2436-0.0978,0.2436L17.461,19.2238z M17.656,19.7338c0,0,0.3684-0.2706,0.531-0.2706s0.3252,0.0108,0.3144,0.135c-0.0108,0.1254-0.228,0.1794-0.3468,0.2004C18.0352,19.8202,17.656,19.7338,17.656,19.7338z" />
  <path fill="#D3D3D3" d="M14.2102,19.1596c0.2532,0.0984,0.6612,0.5412,0,0.2604C13.5484,19.1374,13.8196,19.0072,14.2102,19.1596z M15.0874,19.6798c0.2874,0.0786,0.7692,0.162,1.0404,0.162c0.2706,0,0.444,0.2826,0.108,0.2496c-0.336-0.033-1.0296-0.1056-1.2678-0.204C14.7298,19.7872,14.8516,19.6138,15.0874,19.6798z M16.7998,19.711c0.303-0.1614,0.8778-0.519,1.0728-0.5634c0.195-0.0432,0.4338-0.021,0.4122,0.0762c-0.0216,0.0984-0.141,0.1512-0.3252,0.1734c-0.1848,0.0222-0.7806,0.5202-1.1598,0.5742C16.4212,20.0266,16.7998,19.711,16.7998,19.711z" />
  <path fill="#44911B" d="M13.0282,17.9662c0.5976-0.1194,3.2946-0.1944,4.0638-0.0972c0.7698,0.0972,2.4498,0.564,2.2326,0.8346c-0.216,0.2706-1.1484,0.2496-1.6794,0.1626c-0.531-0.087-0.7374,0.3798-1.6368,0.39c-0.9,0.0108-1.3548-0.2826-1.734-0.423c-0.3792-0.1404-0.921-0.0648-1.2462,0.033C12.703,18.964,11.6302,18.2488,13.0282,17.9662z" />
  <path fill="#1c1c1c" d="M14.4154,14.965v2.0484c0,0.7476,0.5634,1.3548,0.7962,1.5714c0.2334,0.2154,0.7968,0.531,0.7968,0.531s0.5634-0.315,0.7962-0.531c0.2334-0.2166,0.7962-0.8238,0.7962-1.5714V14.965C17.6008,14.965,14.4154,14.965,14.4154,14.965z" />
  <path fill="#83CBFF" d="M14.578,15.0952v1.9206c0,0.6714,0.5058,1.2822,0.7152,1.4766c0.2094,0.1944,0.7152,0.477,0.7152,0.477s0.5058-0.2826,0.7146-0.477c0.2094-0.1944,0.7152-0.8052,0.7152-1.4766v-1.9206H14.578z" />
  <path fill="#007ACF" d="M15.0736,18.2488h1.8708c0.0732-0.0924,0.15-0.2016,0.2214-0.3246h-2.3136C14.923,18.0472,15.0004,18.1564,15.0736,18.2488z" />
  <path fill="#86D72F" d="M15.0736,18.2488c0.0846,0.1068,0.1632,0.1908,0.2202,0.2436c0.0384,0.036,0.0876,0.0738,0.141,0.1134h1.149c0.054-0.0396,0.1026-0.0774,0.1404-0.1134c0.057-0.0528,0.1356-0.1374,0.2202-0.2436H15.0736z" />
  <path fill="#FCD53F" d="M16.009,18.9694c0,0,0.3366-0.1884,0.5742-0.363h-1.149C15.6718,18.781,16.009,18.9694,16.009,18.9694z" />
  <path fill="#f4f4f4" d="M14.695,17.5984l1.314-1.1706v-1.3326h-1.431v1.9206C14.578,17.2186,14.6248,17.4166,14.695,17.5984z" />
  <path fill="#FCD53F" d="M17.3218,17.5984c0.0708-0.1818,0.117-0.3798,0.117-0.5826v-1.9206h-1.4304v1.3326C16.0084,16.4278,17.3218,17.5984,17.3218,17.5984z" />
  <path fill="#B76A1E" d="M15.8218,16.1962l-0.0066-0.006c-0.0186-0.0192-0.0498-0.0192-0.069,0l-0.0408,0.0408l-0.2838-0.2838c0.0336-0.045,0.0372-0.1002,0.0066-0.1308l-0.5748-0.5646c-0.0348-0.0348-0.1008-0.024-0.1476,0.0234c-0.0462,0.0474-0.0558,0.1128-0.021,0.147l0.5748,0.5652c0.024,0.0234,0.0624,0.0252,0.099,0.0096l0.2898,0.2898l-0.0594,0.06c-0.0192,0.0192-0.0192,0.0498,0,0.0696l0.0066,0.006c0.0186,0.0186,0.0498,0.0186,0.069,0l0.1566-0.1572C15.841,16.246,15.841,16.2148,15.8218,16.1962z" />
  <path fill="#7D4533" d="M14.9002,16.4902c-0.0222,0.0294-0.0642,0.0354-0.0936,0.0126c-0.0294-0.0222-0.0348-0.0636-0.0126-0.093l0.615-0.8034c0.0222-0.0294,0.0642-0.0348,0.093-0.0126c0.0294,0.0228,0.0348,0.0642,0.0126,0.0936C15.5146,15.6874,14.9002,16.4902,14.9002,16.4902z" />
  <path fill="#D3D3D3" d="M15.3016,15.496l0.171-0.27l0.36,0.228l-0.1716,0.27L15.3016,15.496z" />
  <path fill="#7D4533" d="M17.2006,16.3936c0.0246,0.027,0.0672,0.0294,0.0942,0.0042c0.027-0.0246,0.0294-0.0666,0.0042-0.0936l-0.6822-0.7476c-0.0252-0.027-0.0672-0.0288-0.0942-0.0042s-0.0294,0.0666-0.0042,0.0942L17.2006,16.3936z" />
  <path fill="#f4f4f4" d="M16.1296,15.604l0.309-0.2928l0.2202,0.2322l-0.309,0.2928L16.1296,15.604z M16.258,16.084l0.807-0.7752l0.2028,0.2112l-0.8076,0.7746L16.258,16.084z" />
  <path fill="#B76A1E" d="M15.2122,17.5588c0,0,0.438,0.2016,0.813,0.2106s0.4686-0.0528,0.4686-0.0528l-0.1068,0.2076h-0.9138C15.4732,17.9242,15.2122,17.5588,15.2122,17.5588z" />
  <path fill="#f4f4f4" d="M15.3562,17.5306l0.2298,0.165h0.8502l-0.1152-0.5622l-0.735,0.0348L15.3562,17.5306z" />
  <path fill="#892614" d="M13.7326,13.4452c0.252-0.1218,0.7314-0.39,0.8046-0.4308c0.0732-0.0408,0.195,0.1056,0.0816,0.1548c-0.114,0.0486-0.7152,0.4062-0.8862,0.4872C13.5622,13.7374,13.7326,13.4452,13.7326,13.4452z" />
  <path fill="#C68D7B" d="M12.8548,18.1948c-0.0324,0.2382-0.1734,0.477,0.0978,0.552c0.2706,0.0762,0.3216-0.1758,0.2478-0.402C13.126,18.1186,12.8548,18.1948,12.8548,18.1948z M13.798,18.1822c-0.0432,0.0996-0.1734,0.3174,0.0864,0.2892c0.2604-0.0282,0.423-0.0258,0.585,0c0.1632,0.027,0.2604-0.15,0.087-0.1428c-0.1734,0.0072-0.3036-0.0564-0.369-0.2178C14.1226,17.95,13.798,18.1822,13.798,18.1822z M13.1614,15.1876l-0.0774-0.42c0,0-0.219,0.2238-0.2946,0.3324c-0.0756,0.1086-0.2262-0.0486-0.3132-0.1194c-0.087-0.0702-0.1842-0.2868-0.2058-0.471c-0.0216-0.1842-0.2388-0.2922-0.1626-0.4224c0.0756-0.1302,0.141-0.195,0.2712-0.195c0.1296,0,0.1626,0.1734,0.1626,0.1734s0.2508,0.0318,0.1518,0.1518c-0.2436,0.2958-0.051,0.3456-0.051,0.3456L12.79,14.38c0,0-0.0546-0.3468,0-0.4116c0.0546-0.0654,0.3798-0.1842,0.4884-0.1956c0.1086-0.0108,0.2388-0.108,0.1896-0.1734c-0.0486-0.0648-0.1572-0.1842-0.1572-0.3258c0-0.1404-0.0492-0.444,0.2682-0.4002c0.3174,0.0432,0.426,0.249,0.339,0.4224s-0.1296,0.2274-0.0978,0.3252c0.0324,0.0978,0.042,0.2166,0.2538,0.2274c0.2118,0.0108,0.2526,0.0786,0.285,0.2628s0.0354,0.279,0.0246,0.4308c-0.0114,0.1518,0.0006,0.2058,0.0006,0.2058s0.1944-0.0378,0.3348-0.0162c0.141,0.0216,0.4338,0.201,0.4338,0.201h-0.7044l-0.054,0.228c0,0-0.0762,0.087-0.1086,0.0756c-0.0324-0.0114-0.2118-0.2928-0.2118-0.2928l-0.0804,0.2928C13.9936,15.2362,13.1614,15.1876,13.1614,15.1876z" />
  <path fill="#1c1c1c" d="M13.654,12.7c0.2388,0,0.3426,0.1842,0.3318,0.3792c-0.0108,0.195-0.0696,0.2496-0.0696,0.2496s0.039-0.2112-0.0858-0.1086v-0.2058c0,0-0.2712,0.0216-0.363,0c-0.0924-0.0216-0.1464-0.0432-0.1464-0.0432l-0.0378,0.1464c0,0-0.1254-0.1464-0.006-0.2874c0.1194-0.1404,0.3204-0.1302,0.3204-0.1302" />
  <path fill="#892614" d="M11.8228,14.4694c0.1104-0.1626,0.309-0.2844,0.309-0.2844s0.0324,0.0402,0.1464,0c0.114-0.0408,0.1056-0.0732,0.171-0.0978c0.0648-0.0246,0.057-0.0978,0.057-0.0978s0.3822-0.1548,0.5448-0.228c0.1626-0.0732,0.3498-0.1866,0.3498-0.1866l0.0732,0.057c0,0,0,0.1218-0.0648,0.162c-0.0654,0.0408-0.5526,0.285-0.5934,0.3174c-0.0408,0.0324-0.1302,0.0648-0.1302,0.0648s-0.0402-0.0816-0.081-0.0486c-0.0408,0.0324-0.0654,0.1218-0.0654,0.1218s-0.1626,0.0732-0.2604,0.1386c-0.0978,0.0648-0.2112,0.2928-0.3168,0.3414C11.8552,14.7778,11.7814,14.5306,11.8228,14.4694z" />
  <path fill="#D3D3D3" d="M14.161,13.1692c0.0594-0.057,0.2784-0.2106,0.3318-0.1296c0.0528,0.081,0.1344,0.528,0.3942,0.4872c0,0-0.1542,0.138-0.2844,0.2028c-0.1302,0.0648-0.3606,0.0816-0.3606,0.0816s-0.003-0.2112,0-0.333C14.245,13.3558,14.161,13.1692,14.161,13.1692z" />
  <path fill="#B76A1E" d="M16.6834,12.592c0.0894-0.0408,0.9714,0.4308,1.1196,0.4956c0.1482,0.0648,0.2376,0.3252,0.3846,0.3822c0.1458,0.057,0.024,0.1542-0.0648,0.1056c-0.0894-0.0492-0.285-0.0324-0.456-0.0894c-0.1704-0.057-1.0836-0.5436-1.1082-0.6162C16.5346,12.7966,16.6834,12.592,16.6834,12.592z" />
  <path fill="#573739" d="M19.1356,18.1948c0.0324,0.2382,0.1734,0.477-0.0978,0.552c-0.2706,0.0762-0.321-0.1758-0.2466-0.402C18.8638,18.1186,19.1356,18.1948,19.1356,18.1948z M18.1924,18.1822c0.0432,0.0996,0.1728,0.3174-0.087,0.2892c-0.2604-0.0282-0.4224-0.0258-0.5856,0c-0.1626,0.027-0.2598-0.15-0.0864-0.1428c0.1728,0.0072,0.3042-0.0564,0.3684-0.2178C17.8678,17.95,18.1924,18.1822,18.1924,18.1822z M18.829,15.1876l0.0774-0.42c0,0,0.174,0.1746,0.2502,0.2832c0.0756,0.108,0.2526,0.12,0.3384,0.0492c0.0876-0.0702,0.204-0.4062,0.2256-0.5898c0.021-0.1842,0.2268-0.1518,0.1506-0.282c-0.0756-0.1302-0.1566-0.2136-0.2868-0.2136s-0.135,0.051-0.135,0.051s-0.1656,0.0432-0.1008,0.1842s-0.0192,0.33-0.0192,0.33l-0.129-0.1104c0,0-0.0408-0.4146-0.0954-0.4794c-0.0552-0.0654-0.2844-0.2058-0.3924-0.2172c-0.1086-0.0108-0.2382-0.108-0.1896-0.1734c0.0492-0.0648,0.1572-0.1842,0.1572-0.3258c0-0.1404,0.0498-0.444-0.2676-0.4002c-0.3174,0.0432-0.426,0.249-0.3384,0.4224c0.0858,0.1734,0.0726,0.2382,0.0402,0.336c-0.033,0.0972,0.0144,0.2058-0.1974,0.2166c-0.2112,0.0108-0.2826,0.1224-0.315,0.3066c-0.0324,0.1842-0.0048,0.2352,0.006,0.387c0.0114,0.1518-0.0012,0.2058-0.0012,0.2058S17.413,14.71,17.272,14.7316c-0.141,0.0216-0.4338,0.201-0.4338,0.201h0.7044l0.0546,0.228c0,0,0.0756,0.087,0.1086,0.0756c0.033-0.0114,0.2112-0.2928,0.2112-0.2928l0.081,0.2928C17.998,15.2362,18.829,15.1876,18.829,15.1876z" />
  <path fill="#D3D3D3" d="M13.1038,15.1606c-0.1188,0.2598-0.2274,0.8232-0.2058,1.1262c0.0216,0.303,0.081,0.6174-0.003,0.8988c-0.084,0.2826-0.2028,1.0842-0.2028,1.0842l0.3036,0.2064l0.336-0.2166l0.054-1.2678l0.192-0.6276l0.1872,0.4542l-0.0762,1.4088l0.5526-0.0102c0,0-0.0438-1.3008-0.0546-1.506c-0.0108-0.2058-0.0876-0.8346-0.114-1.0296c-0.0264-0.195-0.0804-0.444-0.0804-0.444S13.1038,15.1606,13.1038,15.1606z M18.886,15.1606c0.1188,0.2598,0.2274,0.8232,0.2058,1.1262c-0.0216,0.303-0.0816,0.6174,0.003,0.8988c0.084,0.2826,0.2028,1.0842,0.2028,1.0842l-0.303,0.2064l-0.336-0.2166l-0.054-1.2678l-0.192-0.6276l-0.1872,0.4542l0.0762,1.4088l-0.5532-0.0102c0,0,0.0432-1.3008,0.0546-1.506c0.0114-0.2058,0.0876-0.8346,0.114-1.0296c0.027-0.195,0.081-0.444,0.081-0.444L18.886,15.1606z" />
  <path fill="#B97028" d="M13.126,15.106c0,0,0.2232,0.0612,0.4524,0.0546c0.2394-0.0072,0.4854-0.0822,0.4902-0.0546c0.0114,0.0546,0,0.2388,0,0.2388s-0.201-0.0438-0.4686,0c-0.2676,0.0432-0.3762,0.0324-0.474,0C13.0282,15.3124,13.126,15.106,13.126,15.106z M18.8638,15.106c0,0-0.2226,0.0612-0.4518,0.0546c-0.2388-0.0072-0.4854-0.0822-0.4908-0.0546c-0.0102,0.0546,0,0.2388,0,0.2388s0.2016-0.0438,0.4692,0c0.2676,0.0432,0.3762,0.0324,0.4734,0C18.9622,15.3124,18.8638,15.106,18.8638,15.106z" />
  <path fill="#1c1c1c" d="M18.3364,12.7c-0.2376,0-0.3426,0.1842-0.3318,0.3792c0.0108,0.195,0.0666,0.2496,0.0666,0.2496s-0.0468-0.2112,0.0834-0.1086v-0.2058c0,0,0.2736,0.0216,0.3654,0c0.0924-0.0216,0.1482-0.0432,0.1482-0.0432l0.0378,0.1464c0,0,0.1248-0.1464,0.006-0.2874C18.5926,12.6898,18.3922,12.7,18.3922,12.7" />
  <path fill="#B76A1E" d="M18.523,13.5754l0.8904,0.4782c0,0-0.1182-0.0006-0.1158,0.102c0.003,0.1026-0.729-0.3444-0.729-0.3444S18.523,13.5754,18.523,13.5754z M19.7716,14.2906l0.2766,0.0894c0,0,0.033-0.0894,0.1134-0.045c0.0816,0.045-0.0402,0.4068-0.0972,0.4008c-0.057-0.0066-0.1218-0.096-0.1302-0.1686c-0.0084-0.0732-0.252-0.171-0.252-0.171S19.7716,14.2906,19.7716,14.2906z" />
</svg>