<svg width="32" height="32" viewBox="0 0 32 32" xmlns="http://www.w3.org/2000/svg">
  <polygon fill="#FCD53F" points="11.5,6 20.5,6 21.5,7 21.5,25 20.5,26 11.5,26 10.5,25 10.5,7" />
  <rect fill="#0C338C" x="2" y="6" width="9.5" height="20" />
  <rect fill="#0C338C" x="20.5" y="6" width="9.5" height="20" />
  <path fill="#1c1c1c" d="M19.7879,12.8905c-0.7155,0.1114-1.4524,0.4871-1.9564,1.0091c-0.0585,0.072,0.3116-0.0787,0.3454-0.0832c0.2768-0.0833-0.0821,0.3892-0.1024,0.513c-0.2835,0.9056-0.5299,1.7809-0.621,2.8226c0,0.072-0.0113,0.1249-0.045,0.1283l-0.9473-0.1406v-3.3548c0.2227-0.0056,0.5693,0.0529,0.7673,0.1181c-0.6379-0.6356-0.936-1.4659-1.2285-2.2635c-0.2925,0.7976-0.5906,1.6279-1.2285,2.2635c0.198-0.0652,0.5445-0.1237,0.7673-0.1181v3.3548l-0.9472,0.1406c-0.0338-0.0034-0.045-0.0562-0.045-0.1283c-0.0911-1.0417-0.3375-1.917-0.621-2.8226c-0.0203-0.1237-0.3791-0.5962-0.1024-0.513c0.0338,0.0045,0.4039,0.1552,0.3454,0.0832c-0.504-0.522-1.2409-0.8977-1.9564-1.0091c-0.063-0.0157-0.1001,0.0157-0.0439,0.0889c0.9495,1.4614,1.7437,3.186,1.737,5.2324c0.369,0,1.2634-0.2183,1.6335-0.2183v2.367h0.9225v-2.367c0.3701,0,1.2645,0.2183,1.6335,0.2183c-0.0068-2.0464,0.7875-3.771,1.737-5.2324C19.888,12.9062,19.8509,12.8748,19.7879,12.8905z" />
</svg>