<svg width="32" height="32" viewBox="0 0 32 32" xmlns="http://www.w3.org/2000/svg">
  <polygon fill="#CF0828" points="2,17.6667 3,16.6667 29,16.6667 30,17.6667 30,19.3333 29,20.3333 3,20.3333 2,19.3333" />
  <polygon fill="#f4f4f4" points="2,16 3,15 29,15 30,16 30,17.6667 2,17.667" />
  <polygon fill="#f4f4f4" points="2,21 3,22 29,22 30,21 30,19.3333 2,19.3333" />
  <rect fill="#0b338d" x="2" y="6" width="28" height="10" />
  <rect fill="#0b338d" x="2" y="21" width="28" height="5" />
  <g fill="#FCD53F">
    <polygon points="12.9511,13.191 11.4122,14.309 12,12.5 12.5878,14.3091 11.049,13.191" />
    <polygon points="12,22.5 11.4123,24.3091 12.9511,23.1909 11.049,23.191 12.5878,24.309" />
    <polygon points="15.8042,16.6459 17.3431,17.764 16.7553,15.9549 16.1675,17.764 17.7064,16.6459" />
    <polygon points="8.1958,19.736 6.2936,19.736 7.8325,20.8541 7.2447,19.045 6.6569,20.8541" />
    <polygon points="14.9389,21.5451 14.3511,23.3542 15.8899,22.2362 13.9878,22.2361 15.5267,23.3542" />
    <polygon points="9.0611,13.4549 8.4732,15.264 10.0121,14.1459 8.11,14.1459 9.6488,15.264" />
    <polygon points="9.0611,21.5451 8.4732,23.3541 10.0121,22.236 8.11,22.2361 9.6488,23.354" />
    <polygon points="14.3511,15.2639 15.8899,14.1458 13.9877,14.1458 15.5267,15.2639 14.9388,13.4548" />
    <polygon points="6.6569,17.7639 8.1958,16.6458 6.2936,16.6458 7.8325,17.7639 7.2447,15.9548" />
    <polygon points="16.7553,19.0451 16.1675,20.8542 17.7064,19.7361 15.8042,19.7361 17.3431,20.8542" />
  </g>
</svg>