<svg xmlns="http://www.w3.org/2000/svg" width="32" height="32" viewBox="0 0 32 32">
  <polygon fill="#062365" points="16 6 14.95 6.5 13.9 6 10.75 6 9 7 7.25 6 4.1 6 2 7.5 2 9.25 3 11 2 12.75 2 14.5 2.5 15.25 2 16 2 26 30 26 30 6" />
  <polygon fill="#f4f4f4" points="16 6 15.3 6.25 14.6 6 13.9 6 10.75 8.25 10.75 6 10 6 9 6.5 8 6 7.25 6 7.25 8.25 4.1 6 2 6 2.25 6.5 2 7 2 7.5 4.45 9.25 2 9.25 2 10 2.5 11 2 12 2 12.75 4.45 12.75 2 14.5 2 16 2.7 15.75 3.4 16 4.1 16 7.25 13.75 7.25 16 8 16 9 15.5 10 16 10.75 16 10.75 13.75 13.9 16 16 16 15.75 15.5 16 15 16 14.5 13.55 12.75 16 12.75 16 12 15.5 11 16 10 16 9.25 13.55 9.25 16 7.5" />
  <path fill="#cf0828" d="M7.25 12.75h-.7L2 16h1.4l3.85-2.75v-.5zm4.2 0L16 16v-1l-3.15-2.25h-1.4zm-.7-3.5h.7L16 6h-1.4l-3.85 2.75v.5zm-5.6 0L2 7V6l4.55 3.25h-1.4zM16 12h-6v4H8v-4H2v-2h6V6h2v4h6v2z" />
  <path fill="#ffb02e" d="M27.64 11.634s-1.13.392-2.395.392c-1.263 0-2.214-.657-2.214-.657s-.948.657-2.213.657c-1.265 0-2.457-.392-2.457-.392-.119 3.17.077 6.506 1.238 8.254 1.248 1.88 3.431 3.035 3.431 3.035s2.119-1.155 3.368-3.035c1.163-1.748 1.36-5.085 1.241-8.254z" />
  <path fill="#f4f4f4" d="M27.205 12.008s-.904.338-2.103.338c-1.202 0-2.104-.6-2.104-.6s-.9.6-2.101.6c-1.202 0-2.101-.338-2.101-.338-.114 3.001 0 6.078 1.163 7.691 1.164 1.615 4.918 1.614 6.082 0 1.162-1.612 1.276-4.689 1.164-7.69z" />
  <path fill="#83cbff" d="M19.786 19.439c.055.09.112.178.173.261 1.164 1.615 3.04 2.74 3.04 2.74s1.879-1.126 3.043-2.74c.06-.083.117-.17.172-.261h-6.428z" />
  <path fill="#ff944c" d="M21.98 12.46s.037.525.262.711c0 0 .563-.112 1.013.076.356.148 1.013.412 1.35.3.337-.112.638-.225.714-.15.075.075-.376.188-.451.262-.076.076-.337.151-.187.376.15.225.413.413.338.638 0 0-.338-.262-.488-.488-.15-.225-.489-.413-1.052-.337-.563.075-1.012.375-1.087.713-.075.337.337.3.675.374 0 0-.488.188-.75.188 0 0-.225.413-.45.788-.225.375-.264.6-.375.563-.113-.038-.151-.563-.076-.863 0 0-.262-.15-.225-.9.032-.641.488-1.239.488-1.239s-.037-.224 0-.487c.038-.263.3-.526.3-.526zm-1.198 6.408s.384-.362.387-.654c0 0-.443-.365-.583-.833-.11-.37-.32-1.046-.621-1.236-.302-.191-.578-.353-.568-.458.012-.105.383.172.49.183.105.01.328.167.408-.091.08-.259.059-.581.28-.666 0 0 .011.428-.069.686-.08.258-.011.639.402 1.027.414.389.931.548 1.24.392.31-.155.02-.45-.136-.76 0 0 .454.259.62.464 0 0 .463-.087.895-.15.433-.064.63-.177.673-.065.042.11-.34.471-.622.604 0 0 .05.297-.555.743-.517.38-1.268.405-1.268.405s-.15.172-.378.308c-.225.138-.595.1-.595.1zm5.967-2.23s-.49-.196-.756-.076c0 0-.144.554-.51.877-.29.257-.815.731-.862 1.083-.046.354-.077.673-.176.707-.1.035-.005-.419-.04-.52-.034-.1.013-.369-.255-.333-.268.036-.552.19-.722.025 0 0 .385-.19.653-.226.268-.036.584-.258.764-.796.178-.54.106-1.075-.166-1.29-.27-.216-.417.172-.633.443 0 0 .046-.522.16-.757 0 0-.272-.384-.51-.75-.24-.367-.426-.499-.342-.584.082-.084.572.111.808.31 0 0 .251-.17.91.192.562.31.898.98.898.98s.22.065.44.215c.218.149.34.5.34.5z" />
  <path fill="#f4f4f4" d="M21.567 15.104c0 .073-.059.131-.132.131a.131.131 0 110-.262.13.13 0 01.132.13zm1.525 2.41a.132.132 0 01.167.204.131.131 0 01-.167-.203zm1.46-2.405a.13.13 0 01-.06-.176.13.13 0 11.235.115.13.13 0 01-.175.06z" />
</svg>