<?xml version="1.0" encoding="UTF-8"?>
<svg xmlns="http://www.w3.org/2000/svg" xmlns:xlink="http://www.w3.org/1999/xlink" width="32px" height="32px" viewBox="0 0 32 32" version="1.1">
  <path fill="#00a6ed" d="M 6 6 L 26 6 L 26 26 L 6 26 Z M 6 6 "/>
  <path fill="#f4f4f4" d="M 12.789062 11.34375 C 12.789062 10.484375 13.21875 9.847656 14.132812 9.847656 L 18.402344 9.847656 C 19.230469 9.847656 19.625 10.433594 19.625 11.035156 C 19.625 11.621094 19.214844 12.222656 18.402344 12.222656 L 15.371094 12.222656 L 15.371094 14.738281 L 18.195312 14.738281 C 19.042969 14.738281 19.453125 15.324219 19.453125 15.929688 C 19.453125 16.511719 19.023438 17.117188 18.195312 17.117188 L 15.371094 17.117188 L 15.371094 19.734375 L 18.558594 19.734375 C 19.386719 19.734375 19.78125 20.320312 19.78125 20.921875 C 19.78125 21.507812 19.367188 22.113281 18.558594 22.113281 L 14.113281 22.113281 C 13.355469 22.113281 12.789062 21.59375 12.789062 20.820312 Z M 12.789062 11.34375 "/>
</svg>
