<svg xmlns="http://www.w3.org/2000/svg" width="32" height="32" viewBox="0 0 32 32">
  <rect width="28" height="20" x="2" y="6" fill="#062365" />
  <path fill="#f4f4f4" d="M23.332 16.718c-.039-.404.616-1.406.09-1.334-.644.088-1.147-.355-1.364-.345.697-.985.179-1.236.024-1.875-.274-1.122.6-1.67-.962-1.91-1.016-.157-1.718-.052-2.023-1.212-.449.314-.98.393-1.486.172-.323-.14-.424-.41-.728-.54-.23-.097-.711-.096-.97-.137-.71-.112-1.075.203-1.712.098.06.092.07.21.112.309-.393.014-.631.277-.674.644-.574-.058-.72.69-.656 1.163l-.06.018.024.024c-.121 1.25-.63 1.876-1.91 2.072-.843.129-1.593-.431-2.321-.882a3.287 3.287 0 01-.59-.48c-.215-.24-.367-.575-.576-.746-.096-.079-.3-.145-.272.016-.133.83.473 1.862 1.17 2.26-.955.442.242.706.413.856.004.003.416.569.419.59.065.405-.214.359-.243.683-.03.336-.03.605.082.94l-.024.023c.005.27-.199.174-.463.113.036.817.814.887.944 1.047.42.515.275 1.264.764 1.743 1.203 1.178 2.574.483 3.936.68.765.112 1.42.754 2.113.029.815.892-.627 1.95-.274 2.252.1.086.207.122.315.128-.02.055-.051.105-.065.162.978.093 2.009.326 2.924-.155-.001.147.097.325.103.403.224-.269.4-.253.686-.396.358-.179.989-.393 1.227-.751.283-.426-.162-1.015.729-.832.07-.308.098-.276.261-.48-.245-.616.484-1.031.703-1.471.044-.09.047-.502.106-.657.11-.296.428-.46.515-.832.16-.682-.23-.8-.287-1.39z" />
</svg>