<svg width="32" height="32" viewBox="0 0 32 32" xmlns="http://www.w3.org/2000/svg">
  <rect fill="#0b338d" x="2" y="6" width="28" height="20" />
  <g fill="#FDBB11">
    <polygon points="17.0568,8.99 15.3469,10.2323 16,8.2222 16.6532,10.2323 14.9433,8.99" />
    <polygon points="16,21.5555 15.3468,23.5656 17.0567,22.3233 14.9432,22.3233 16.6531,23.5656" />
    <polygon points="9.9865,16.8989 9.3333,14.8889 8.6802,16.899 10.3901,15.6567 8.2766,15.6567" />
    <polygon points="12.6667,9.1154 12.0135,11.1255 13.7233,9.8832 11.6099,9.8832 13.3197,11.1255" />
    <polygon points="10.2265,11.5555 9.5733,13.5656 11.2831,12.3233 9.1697,12.3233 10.8795,13.5656" />
    <polygon points="10.2265,18.2222 9.5733,20.2323 11.2831,18.99 9.1697,18.99 10.8795,20.2323" />
    <polygon points="12.6666,20.6624 12.0134,22.6725 13.7232,21.4302 11.6098,21.4302 13.3196,22.6725" />
    <polygon points="23.7234,15.6567 21.6098,15.6567 23.3196,16.899 22.6666,14.8889 22.0134,16.899" />
    <polygon points="19.3333,9.1154 18.6801,11.1255 20.3899,9.8832 18.2765,9.8832 19.9863,11.1255" />
    <polygon points="21.1204,13.5656 22.8302,12.3233 20.7166,12.3233 22.4266,13.5656 21.7734,11.5555" />
    <polygon points="21.7735,18.2222 21.1203,20.2323 22.8301,18.99 20.7167,18.99 22.4265,20.2323" />
    <polygon points="19.3333,20.6624 18.6801,22.6725 20.3899,21.4302 18.2765,21.4302 19.9863,22.6725" />
  </g>
</svg>