<svg width="32" height="32" viewBox="0 0 32 32" xmlns="http://www.w3.org/2000/svg">
  <polygon fill="#44911B" points="2,6 30,6 30,12.75 29,13.75 6,13.75" />
  <polygon fill="#F8312F" points="2,26 30,26 30,19.25 29,18.25 6,18.25" />
  <rect fill="#f4f4f4" x="6" y="12.75" width="24" height="6.5" />
  <polygon fill="#007ACF" points="2,6 10,16 2,26" />
  <path fill="#1c1c1c" d="M16.288,14.05h-1.5574v3.0875c0,0.6298,0.3556,0.7312,0.5382,0.7312h0.5993c0.3757,0,0.4199,0.3113,0.4199,0.3113s0.0442-0.3113,0.4199-0.3113h0.5993c0.1826,0,0.5382-0.1014,0.5382-0.7312V14.05H16.288z" />
  <path fill="#f4f4f4" d="M16.288,17.9045c-0.0865-0.0917-0.2204-0.1658-0.4199-0.1658h-0.5993c-0.1222,0-0.4082-0.0585-0.4082-0.6012V14.18h2.8548v2.9575c0,0.5427-0.2853,0.6012-0.4082,0.6012h-0.5986C16.5083,17.7388,16.3744,17.8128,16.288,17.9045z" />
  <path fill="#1c1c1c" d="M13.9993,16.4569c0,0,0.1618,0.2847,0.3653,0.4771c0.3757,0.3556-0.2288,0.6396-0.2288,0.6396s-0.1878-0.1222-0.249-0.2639C13.8264,17.168,14.0396,16.7416,13.9993,16.4569z" />
  <path fill="#f4f4f4" d="M14.1462,17.4202c-0.0553-0.0449-0.1164-0.1066-0.1398-0.1612c-0.0098-0.0364,0.026-0.1775,0.05-0.2717c0.0136-0.0507,0.0267-0.104,0.039-0.1579c0.0533,0.0676,0.1144,0.1384,0.1794,0.2002c0.0929,0.0878,0.0838,0.143,0.0813,0.1612C14.3431,17.276,14.2333,17.3663,14.1462,17.4202z" />
  <path fill="#1c1c1c" d="M14.1813,17.1245c0,0,0.0006,0.5044,0.4985,0.7026c0.613,0.2444,1.0361,0.143,1.0868,0.1632c0.0507,0.0201,0,0.5181,0,0.5181s-0.6779,0.1118-1.2786-0.1729c-0.6006-0.2847-0.57-0.5083-0.5388-0.5694c0.0312-0.0611,0.0715-0.1046,0.1007-0.2633C14.0773,17.3552,14.1813,17.1245,14.1813,17.1245z" />
  <path fill="#f4f4f4" d="M15.4371,18.3998c-0.232,0-0.5765-0.0312-0.8931-0.1813c-0.4342-0.2054-0.4875-0.364-0.4777-0.3952c0.0429-0.0747,0.0793-0.1378,0.1066-0.2691c0.0832,0.1489,0.2229,0.3003,0.4589,0.3946c0.2938,0.1177,0.5934,0.1762,0.8905,0.1762c0.0533,0,0.0994-0.0013,0.1371-0.0033c0.0006,0.0683-0.0045,0.1703-0.0123,0.2704C15.5938,18.3966,15.5223,18.3998,15.4371,18.3998z" />
  <path fill="#1c1c1c" d="M18.5772,16.4569c0,0-0.1618,0.2847-0.3653,0.4771c-0.3757,0.3556,0.2288,0.6396,0.2288,0.6396s0.1878-0.1222,0.2489-0.2639C18.7495,17.168,18.5363,16.7416,18.5772,16.4569z" />
  <path fill="#f4f4f4" d="M18.4297,17.4202c0.0552-0.0449,0.1164-0.1066,0.1397-0.1612c0.0098-0.0364-0.026-0.1775-0.05-0.2717c-0.0137-0.0507-0.0267-0.104-0.039-0.1579c-0.0533,0.0676-0.1144,0.1384-0.1794,0.2002c-0.093,0.0878-0.0839,0.143-0.0813,0.1612C18.2328,17.276,18.3426,17.3663,18.4297,17.4202z" />
  <path fill="#1c1c1c" d="M18.3953,17.1245c0,0-0.0007,0.5044-0.4986,0.7026c-0.613,0.2444-1.0361,0.143-1.0868,0.1632c-0.0507,0.0201,0,0.5181,0,0.5181s0.6779,0.1118,1.2785-0.1729c0.6006-0.2847,0.5701-0.5083,0.5389-0.5694c-0.0318-0.0611-0.0715-0.1046-0.1007-0.2633C18.4992,17.3552,18.3952,17.1245,18.3953,17.1245z" />
  <path fill="#f4f4f4" d="M17.1395,18.3998c0.2327,0,0.5765-0.0312,0.8931-0.1813c0.4342-0.2054,0.4875-0.364,0.4778-0.3952c-0.0429-0.0747-0.0793-0.1378-0.1066-0.2691c-0.0832,0.1489-0.2229,0.3003-0.4589,0.3946c-0.2938,0.1177-0.5935,0.1762-0.8905,0.1762c-0.0533,0-0.0994-0.0013-0.1371-0.0033c-0.0006,0.0683,0.0046,0.1703,0.013,0.2704C16.9828,18.3966,17.0543,18.3998,17.1395,18.3998z" />
  <path fill="#1c1c1c" d="M17.1147,18.1801c0,0-0.0078,0.2197-0.8261,0.2197c-0.819,0-0.8262-0.2197-0.8262-0.2197s-0.0306,0.3497,0,0.4907c0.0306,0.1411,0.2438,0.2236,0.8262,0.2236c0.5824,0,0.7962-0.0826,0.8261-0.2236C17.1453,18.5304,17.1147,18.1801,17.1147,18.1801z" />
  <path fill="#f4f4f4" d="M16.288,18.7645c-0.6545,0-0.6968-0.1085-0.6994-0.1202c-0.0097-0.0436-0.0117-0.1235-0.0104-0.2074c0.1424,0.054,0.364,0.0943,0.7098,0.0943c0.3451,0,0.5674-0.0397,0.7098-0.0943c0.0013,0.0845-0.0006,0.1638-0.0104,0.2074C16.9854,18.6559,16.9425,18.7645,16.288,18.7645z" />
  <path fill="#FCD53F" d="M15.9051,13.0594l0.1098,0.1905h0.2204l-0.1105,0.1904l0.1105,0.1911h-0.2204l-0.1098,0.1904l-0.1098-0.1904h-0.2204l0.1098-0.1911l-0.1098-0.1904h0.2204L15.9051,13.0594z M15.0347,13.1601l0.1495,0.1612l0.2145-0.0494l-0.0644,0.2106l0.1502,0.1612L15.27,13.6932l-0.0644,0.2106l-0.1502-0.1612L14.841,13.792l0.0637-0.2106l-0.1495-0.1612l0.2145-0.0494L15.0347,13.1601z M14.2164,13.4403l0.1774,0.1306l0.2015-0.0897l-0.024,0.2197l0.1781,0.1293l-0.2009,0.0891l-0.0234,0.219l-0.1781-0.13l-0.2008,0.089l0.0227-0.2184l-0.1781-0.13l0.2015-0.089L14.2164,13.4403z M16.7267,13.0594l-0.1098,0.1904h-0.2204l0.1105,0.1905l-0.1105,0.1911h0.2204l0.1098,0.1905l0.1105-0.1905h0.2204l-0.1098-0.1911l0.1098-0.1905h-0.2204L16.7267,13.0594z M17.5977,13.1601l-0.1495,0.1612l-0.2151-0.0494l0.065,0.2106l-0.1502,0.1612l0.2145,0.0494l0.0637,0.2106l0.1508-0.1612l0.2145,0.0494l-0.0644-0.2106l0.1502-0.1612l-0.2145-0.0494L17.5977,13.1601z M18.416,13.4403l-0.1781,0.1307l-0.2009-0.0897l0.0241,0.2197l-0.1788,0.1293l0.2015,0.0891l0.0234,0.2191l0.1781-0.13l0.2008,0.0891l-0.0227-0.2184l0.1775-0.13L18.4401,13.66L18.416,13.4403z" />
  <path fill="#B76A1E" d="M16.288,17.7062c-0.39,0-0.4505-0.1423-0.3185-0.4472c0.1319-0.3048,0.2028-0.7176,0.2028-1.2174c0-0.4992-0.1775-0.611-0.3835-0.8041c-0.2054-0.1931,0.1053-0.1222,0.2496,0c0.1443,0.1222,0.1969,0.2333,0.1969,0.2333v-0.4674l0.1612,0.0507v0.3556c0,0,0.234-0.2028,0.3913-0.2236c0.1567-0.0202,0.2483,0.1014,0.0448,0.1625c-0.2028,0.0611-0.4361,0.1657-0.4361,0.6923s0.0806,1.0751,0.182,1.2682C16.6805,17.5028,16.6779,17.7063,16.288,17.7062z" />
  <path fill="#008E48" d="M15.8375,15.7056c-0.2067,0.1086-0.3529-0.1319-0.3529-0.1319s-0.1878,0.1319-0.3647,0.0403c-0.1761-0.0917-0.1488-0.1729,0-0.2542c0.1489-0.0813,0.3282-0.1014,0.3282-0.1014s0.0461-0.2236,0.1261-0.3757c0.0799-0.1521,0.2145-0.2132,0.2145-0.2132s0.1638-0.3556,0.4466-0.3757c0.2827-0.0201,0.2827,0.2743,0.2827,0.2743s0.1755,0,0.2093,0.1014c0.156-0.1625,0.4303-0.1424,0.4914-0.0709c0.0611,0.0709,0,0.2236,0,0.2236s0.2411-0.0708,0.2931,0.0104s0,0.1859,0,0.1859s0.1943,0.0377,0.1027,0.2509c-0.0917,0.2132-0.3757,0.1521-0.3757,0.1521s-0.1157,0.1222-0.2405,0.1118c-0.1248-0.0104-0.1658-0.1833-0.1658-0.1833s-0.1937,0.0507-0.3146-0.1222c-0.1215,0.1827-0.3451,0.0813-0.3757,0.0104C16.1118,15.4722,16.0507,15.5938,15.8375,15.7056z" />
</svg>