<svg width="32" height="32" viewBox="0 0 32 32" xmlns="http://www.w3.org/2000/svg">

  <rect fill="#F4F4F4" x="2" y="6" width="28" height="20" />
  <path fill="#608842" d="M14.4651,21.9632c0.2233,0,0.4967,0.0759,0.8124,0.2257c-0.1872,0.1112-0.4011,0.1695-0.6189,0.1685c-0.2336-0.0021-0.4624-0.0662-0.6632-0.1856h-0.0002v-0.0003c0.0244-0.0407,0.0571-0.0759,0.0959-0.1033c0.0647-0.0475,0.1814-0.1043,0.37-0.105H14.4651z M13.5708,21.8476H13.567c-0.0179,0.0007-0.0356,0.0047-0.0521,0.0118C13.512,21.9066,13.516,21.954,13.5267,22c0.0074,0.0355,0.0237,0.0685,0.0473,0.096c0.0274,0.0291,0.0657,0.0452,0.1057,0.0444l0.0002-0.0003c0.0329,0.0022,0.0638-0.0159,0.078-0.0457c0.0095-0.0341,0.0063-0.0704-0.0091-0.1022C13.7204,21.9202,13.6545,21.8476,13.5708,21.8476z M15.4023,21.9407l0.0004,0.0002l-0.0002-0.0005c-0.379-0.7173-0.7727-0.7947-0.9267-0.7947c-0.0298-0.0002-0.0595,0.0031-0.0886,0.0098h-0.0004v0.0005c-0.0089,0.1174,0.022,0.2343,0.0878,0.332C14.5784,21.6489,14.8237,21.8581,15.4023,21.9407z M13.5341,21.5619c0.0277,0.0562,0.0701,0.1037,0.1229,0.1375c0.124,0.084,0.3122,0.1267,0.5594,0.1267l-0.0003,0c0.1286-0.0011,0.257-0.0104,0.3843-0.028h0.0004l-0.0003-0.0003c-0.3066-0.297-0.5971-0.3593-0.7882-0.3593c-0.0135,0-0.0264,0.0004-0.0391,0.001c-0.0888,0.003-0.1765,0.0216-0.2588,0.055C13.5173,21.5178,13.524,21.5406,13.5341,21.5619z M13.3003,21.5484c-0.1246-0.0934-0.3117-0.1408-0.5561-0.1408c-0.0165,0-0.0329,0.0002-0.0492,0.0006c-0.1743,0.0056-0.3477,0.0286-0.5174,0.0687H12.177l0.0002,0.0003c0.2233,0.2233,0.5814,0.3029,0.8421,0.3029l0.0002,0.0006l0.02-0.0007c0.1418-0.0023,0.2421-0.0249,0.2982-0.0672c0.0243-0.0153,0.038-0.043,0.0352-0.0717C13.361,21.6023,13.3351,21.5693,13.3003,21.5484z M12.2345,21.3061c0.0079-0.0291,0.0058-0.0601-0.006-0.0878c-0.0118-0.0333-0.031-0.0634-0.0563-0.0882c-0.0227-0.0236-0.0536-0.0374-0.0863-0.0386c-0.014,0.0002-0.0278,0.0033-0.0406,0.0092v0.0006c-0.0021,0.0411,0.0012,0.0822,0.0097,0.1225c0.0055,0.0306,0.0181,0.0594,0.0369,0.0841c0.0203,0.0247,0.0507,0.039,0.0826,0.0389l-0.0001-0.0003C12.201,21.3467,12.2248,21.3307,12.2345,21.3061z M14.02,21.2583c0.0274,0.0291,0.0657,0.0452,0.1057,0.0444l0.0001-0.0003c0.0329,0.0022,0.0638-0.0159,0.078-0.0457c0.0095-0.0341,0.0063-0.0704-0.0091-0.1022c-0.0283-0.072-0.0942-0.1446-0.1779-0.1446H14.013c-0.0179,0.0007-0.0356,0.0047-0.0521,0.0118c-0.0029,0.0472,0.001,0.0945,0.0117,0.1406C13.9801,21.1978,13.9964,21.2308,14.02,21.2583z M12.2134,20.6915h-0.0123c-0.0439,0.0001-0.0875,0.0066-0.1295,0.0193l-0.0007,0.0003c0.007,0.0281,0.0172,0.0554,0.0303,0.0813c0.0352,0.0689,0.0831,0.1306,0.1413,0.1816c0.1361,0.1219,0.4082,0.2709,0.9326,0.2894v-0.0001C12.7504,20.7658,12.3903,20.6915,12.2134,20.6915z M13.1753,21.2634c-0.0001,0-0.0001,0-0.0002,0v0.0002L13.1753,21.2634z M13.745,21.2104l0.0002-0.0002h-0.0003c-0.1974-0.5921-0.5829-0.6882-0.7952-0.6928c-0.0063-0.0002-0.0125-0.0002-0.0184-0.0002c-0.006,0-0.0118,0.0002-0.0175,0.0002c-0.0438,0.0006-0.0873,0.0059-0.13,0.0156c0.0366,0.1083,0.0958,0.2076,0.1738,0.2913C13.0839,20.965,13.323,21.1461,13.745,21.2104z M11.4474,20.6219c-0.094-0.0186-0.1896-0.0278-0.2855-0.0277c-0.0082,0-0.0162,0.0002-0.0242,0.0002c-0.1176,0.0011-0.2347,0.016-0.3488,0.0443l-0.001,0.0004c-0.0012,0.0119-0.0008,0.0239,0.001,0.0358c0.0052,0.0303,0.0169,0.0592,0.0344,0.0845c0.0406,0.0611,0.1354,0.1454,0.3564,0.2007c0.1304,0.0321,0.2643,0.0482,0.3987,0.0477l-0.0003-0.0002c0.1361,0.0009,0.2718-0.015,0.404-0.0473h0.0004v-0.0003C11.8506,20.7865,11.6606,20.6665,11.4474,20.6219z M12.4523,20.6084c0.0276,0.0287,0.066,0.0444,0.1057,0.0433l0.0001,0.0002c0.0328,0.0023,0.0635-0.0161,0.077-0.046c0.0099-0.0336,0.007-0.0696-0.0081-0.1011c-0.0284-0.072-0.0944-0.1446-0.178-0.1446h-0.0037c-0.0179,0.0007-0.0356,0.0047-0.0521,0.0118c-0.0029,0.0468,0.001,0.0938,0.0117,0.1395C12.4123,20.5473,12.4286,20.5806,12.4523,20.6084z M11.0271,19.7438c-0.0143,0.0004-0.0286,0.0021-0.0426,0.0051H10.984c0.0276,0.3127,0.2536,0.5139,0.4384,0.6277c0.1244,0.0758,0.2585,0.1344,0.3987,0.1741c-0.1436-0.324-0.3041-0.5551-0.478-0.6876c-0.1367-0.1039-0.2497-0.1195-0.3049-0.1195C11.0343,19.7436,11.0304,19.7438,11.0271,19.7438z M11.8213,20.5507c-0.0001,0-0.0001,0-0.0002-0.0001c0.0001,0.0002,0.0002,0.0005,0.0003,0.0007L11.8213,20.5507z M12.3025,20.5332l0.001,0.0003l-0.0003-0.0011c-0.1183-0.377-0.2575-0.6535-0.4133-0.8217c-0.1357-0.1464-0.2581-0.1798-0.3385-0.1821c-0.0053-0.0003-0.0104-0.0003-0.0154-0.0003c-0.0035,0-0.0069,0.0001-0.0102,0.0003c-0.0333,0.0017-0.066,0.0098-0.0962,0.0239c0.121,0.3,0.312,0.5667,0.5572,0.7777c0.0949,0.0825,0.2012,0.1508,0.3156,0.2028L12.3025,20.5332z M10.8056,20.2485c-0.004,0.0421,0.0023,0.0845,0.0185,0.1236c0.0162,0.0375,0.0712,0.1247,0.2319,0.1247l-0.0001,0c0.061,0,0.1003-0.0137,0.1177-0.0407c0.0216-0.0342-0.0045-0.0781-0.013-0.0907c-0.0644-0.0831-0.1644-0.1306-0.2695-0.128h-0.0055c-0.027,0.0004-0.0538,0.0039-0.08,0.0105V20.2485z M10.8578,20.0416h0.0003c-0.0089-0.0867-0.0465-0.1679-0.1069-0.2307c-0.0974-0.1062-0.3065-0.2356-0.7493-0.2486h-0.0004c0.011,0.0718,0.0312,0.1418,0.06,0.2085c0.0428,0.0975,0.124,0.2192,0.2671,0.2452c0.1226,0.0214,0.2469,0.032,0.3714,0.0317l-0.0002-0.0001C10.7948,20.0476,10.8571,20.0416,10.8578,20.0416z M10.959,19.21c0,0.0695,0.0485,0.1546,0.1009,0.2361c0.0499,0.0776,0.1005,0.1402,0.1011,0.1409l-0.0001,0.0001h0.0003v-0.0004c0.0002-0.0025,0.0248-0.2537,0.0248-0.503s-0.2657-0.3489-0.2769-0.353h-0.0004c0.001,0.0072,0.0131,0.0924,0.025,0.1919C10.9432,19.0011,10.959,19.1428,10.959,19.21z M10.4392,19.4021c0.1524,0.0875,0.2906,0.1475,0.3691,0.1606c0.0028,0.0004,0.0055,0.0007,0.0083,0.0007l-0.0001,0.0001c0.005,0,0.01-0.001,0.0147-0.003c0.0058-0.0034,0.0104-0.0087,0.0128-0.0149c0.0058-0.0194,0.0058-0.04,0-0.0594c-0.0153-0.0661-0.038-0.1304-0.0675-0.1915c-0.059-0.1329-0.1347-0.2694-0.1436-0.2853l-0.0011-0.0013c-0.0752-0.0928-0.1553-0.1815-0.24-0.2657c-0.0667-0.0673-0.1391-0.1288-0.2163-0.1838c-0.0847-0.0584-0.1475-0.0848-0.2063-0.0858c-0.0149-0.0002-0.0297,0.0021-0.0438,0.0067c-0.0075,0.0794-0.0085,0.1592-0.0029,0.2388c0.0127,0.1756,0.056,0.3071,0.1293,0.3909C10.1323,19.2009,10.2698,19.3049,10.4392,19.4021z M16.2793,22.2589l0.189-0.0881l-0.101-0.1135l-0.3469,0.1485L16,22.2099l-0.0204-0.0042l-0.3469-0.1485l-0.101,0.1135l0.189,0.0881l0.0287,0.0089l-0.4667,0.3433l0.0004,0.0003c0.001,0.0008,0.0696,0.0579,0.1379,0.12c0.0304,0.0277,0.0688,0.0633,0.0959,0.0928c0.0112,0.012,0.0215,0.0247,0.031,0.038c0.0057,0.0095,0.0109,0.0193,0.0155,0.0293l0,0c0.0044-0.0019,0.0083-0.0047,0.0116-0.0082l0.0042-0.0039c0.0185-0.0173,0.0361-0.0356,0.0527-0.0548c0.0444-0.0504,0.104-0.1243,0.1563-0.1895c0.1038-0.1294,0.1896-0.2409,0.2058-0.2619L16,22.3652l0.0061,0.0079c0.0162,0.021,0.102,0.1325,0.2058,0.2619c0.0524,0.0652,0.1119,0.1391,0.1563,0.1895c0.0166,0.0192,0.0342,0.0375,0.0527,0.0548l0.0042,0.0039c0.0032,0.0035,0.0072,0.0063,0.0116,0.0082v0c0.0046-0.0101,0.0098-0.0199,0.0155-0.0293c0.0095-0.0133,0.0198-0.026,0.031-0.038c0.0271-0.0294,0.0655-0.0651,0.0959-0.0928c0.0682-0.0621,0.1369-0.1192,0.1379-0.12l0.0004-0.0003l-0.4667-0.3433L16.2793,22.2589z M17.9088,22.0682c-0.0647-0.0475-0.1814-0.1043-0.37-0.105h-0.0039c-0.2233,0-0.4967,0.0759-0.8124,0.2257c0.1872,0.1112,0.4011,0.1695,0.6189,0.1685c0.2336-0.0021,0.4624-0.0662,0.6632-0.1856h0.0002v-0.0003C17.9803,22.1308,17.9476,22.0956,17.9088,22.0682z M18.433,21.8476h-0.0037c-0.0837,0-0.1497,0.0726-0.1779,0.1446c-0.0154,0.0318-0.0187,0.0682-0.0091,0.1022c0.0142,0.0297,0.0451,0.0478,0.078,0.0457l0.0002,0.0003c0.0399,0.0008,0.0783-0.0154,0.1057-0.0444c0.0236-0.0275,0.0399-0.0605,0.0473-0.096c0.0107-0.046,0.0146-0.0934,0.0117-0.1406C18.4686,21.8523,18.4509,21.8483,18.433,21.8476z M17.5254,21.488c0.0658-0.0977,0.0967-0.2146,0.0878-0.332v-0.0005h-0.0004c-0.0291-0.0067-0.0588-0.01-0.0886-0.0098c-0.1539,0-0.5477,0.0774-0.9267,0.7947l-0.0002,0.0005l0.0004-0.0002C17.1763,21.8581,17.4216,21.6489,17.5254,21.488z M17.3993,21.7981h0.0004c0.1274,0.0176,0.2558,0.0269,0.3843,0.028l-0.0003,0c0.2472,0,0.4354-0.0427,0.5594-0.1267c0.0527-0.0338,0.0952-0.0813,0.1229-0.1375c0.0101-0.0213,0.0168-0.0441,0.0198-0.0674c-0.0824-0.0334-0.17-0.052-0.2588-0.055c-0.0128-0.0006-0.0256-0.001-0.0391-0.001c-0.1911,0-0.4816,0.0623-0.7882,0.3593L17.3993,21.7981z M19.3049,21.4082c-0.0163-0.0004-0.0327-0.0006-0.0492-0.0006c-0.2444,0-0.4315,0.0474-0.5561,0.1408c-0.0348,0.0209-0.0607,0.054-0.0726,0.0928c-0.0028,0.0286,0.0109,0.0564,0.0352,0.0717c0.0561,0.0424,0.1564,0.065,0.2982,0.0672l0.02,0.0007l0.0002-0.0006c0.2607,0,0.6188-0.0796,0.8421-0.3029l0.0002-0.0003h-0.0007C19.6526,21.4368,19.4792,21.4138,19.3049,21.4082z M19.9546,21.1007c-0.0127-0.0059-0.0266-0.009-0.0406-0.0092c-0.0327,0.0012-0.0636,0.015-0.0863,0.0386c-0.0252,0.0247-0.0445,0.0549-0.0563,0.0882c-0.0118,0.0278-0.0139,0.0587-0.006,0.0878c0.0097,0.0246,0.0336,0.0406,0.06,0.0403l-0.0001,0.0003c0.032,0.0001,0.0623-0.0142,0.0826-0.0389c0.0188-0.0247,0.0315-0.0535,0.0369-0.0841c0.0085-0.0402,0.0118-0.0814,0.0097-0.1225V21.1007z M17.8742,21.3025l0.0001,0.0003c0.0399,0.0008,0.0783-0.0154,0.1057-0.0444c0.0236-0.0275,0.0399-0.0605,0.0474-0.0959c0.0107-0.046,0.0146-0.0934,0.0117-0.1406c-0.0165-0.0071-0.0341-0.0111-0.0521-0.0118h-0.0037c-0.0837,0-0.1497,0.0726-0.1779,0.1446c-0.0154,0.0318-0.0187,0.0682-0.0091,0.1022C17.8104,21.2866,17.8413,21.3047,17.8742,21.3025z M18.8249,21.2633L18.8249,21.2633c0.5244-0.0184,0.7965-0.1675,0.9326-0.2893c0.0582-0.051,0.1062-0.1126,0.1413-0.1816c0.0131-0.0259,0.0232-0.0531,0.0303-0.0813l-0.0007-0.0003c-0.042-0.0127-0.0856-0.0192-0.1295-0.0193h-0.0123C19.6097,20.6915,19.2496,20.7658,18.8249,21.2633z M18.8249,21.2636v-0.0002c-0.0001,0-0.0001,0-0.0002,0L18.8249,21.2636z M19.0424,20.8242c0.0779-0.0837,0.1372-0.183,0.1738-0.2913c-0.0427-0.0098-0.0862-0.015-0.13-0.0156c-0.0056,0-0.0115-0.0002-0.0175-0.0002c-0.006,0-0.0122,0-0.0184,0.0002c-0.2123,0.0046-0.5978,0.1008-0.7952,0.6928h-0.0003l0.0002,0.0002C18.677,21.1461,18.9161,20.965,19.0424,20.8242z M21.2111,20.6387c-0.1141-0.0283-0.2312-0.0432-0.3488-0.0443c-0.008,0-0.016-0.0002-0.0242-0.0002c-0.0958-0.0002-0.1915,0.0091-0.2855,0.0277c-0.2132,0.0446-0.4032,0.1646-0.5351,0.338v0.0003h0.0004c0.1322,0.0323,0.2679,0.0482,0.404,0.0473l-0.0003,0.0002c0.1343,0.0004,0.2682-0.0156,0.3987-0.0477c0.221-0.0553,0.3158-0.1396,0.3564-0.2007c0.0175-0.0253,0.0292-0.0541,0.0344-0.0845c0.0018-0.0118,0.0022-0.0238,0.001-0.0358L21.2111,20.6387z M19.4419,20.6519l0.0001-0.0002c0.0398,0.0011,0.0782-0.0147,0.1057-0.0433c0.0237-0.0278,0.04-0.0611,0.0473-0.0969c0.0107-0.0457,0.0146-0.0927,0.0117-0.1395c-0.0165-0.0071-0.0341-0.0111-0.0521-0.0118H19.551c-0.0835,0-0.1496,0.0726-0.178,0.1446c-0.0151,0.0316-0.018,0.0676-0.0081,0.1011C19.3784,20.6358,19.4091,20.6542,19.4419,20.6519z M20.1786,20.5514c0.0001-0.0002,0.0002-0.0005,0.0003-0.0007c-0.0001,0-0.0001,0-0.0002,0.0001L20.1786,20.5514z M20.1789,20.5507c0.1402-0.0397,0.2743-0.0983,0.3987-0.1741c0.1848-0.1138,0.4109-0.315,0.4384-0.6277h-0.0005c-0.014-0.003-0.0283-0.0047-0.0426-0.0051c-0.0033,0-0.0072-0.0002-0.0111-0.0002c-0.0552,0-0.1682,0.0155-0.3049,0.1195C20.483,19.9956,20.3225,20.2267,20.1789,20.5507z M20.5705,19.5526c-0.0302-0.0142-0.0629-0.0223-0.0962-0.0239c-0.0033-0.0002-0.0067-0.0003-0.0102-0.0003c-0.005,0-0.0102,0-0.0154,0.0003c-0.0804,0.0023-0.2028,0.0357-0.3385,0.1821c-0.1559,0.1682-0.295,0.4447-0.4133,0.8217l-0.0003,0.0011l0.001-0.0003l0.0001-0.0001c0.1145-0.052,0.2208-0.1203,0.3156-0.2028C20.2585,20.1193,20.4495,19.8526,20.5705,19.5526z M20.8394,20.3654c-0.0085,0.0126-0.0346,0.0565-0.013,0.0907c0.0173,0.027,0.0567,0.0407,0.1177,0.0407l-0.0001,0c0.1607,0,0.2157-0.0872,0.2319-0.1247c0.0161-0.0391,0.0225-0.0815,0.0185-0.1236v-0.0007c-0.0262-0.0065-0.053-0.01-0.08-0.0105h-0.0055C21.0038,20.2348,20.9038,20.2823,20.8394,20.3654z M21.2488,19.8109c-0.0604,0.0628-0.098,0.1441-0.1069,0.2307h0.0003c0.0007,0,0.063,0.006,0.158,0.006L21.3,20.0477c0.1245,0.0003,0.2487-0.0103,0.3714-0.0317c0.1431-0.026,0.2243-0.1477,0.2671-0.2452c0.0288-0.0666,0.049-0.1367,0.06-0.2085h-0.0004C21.5553,19.5753,21.3462,19.7047,21.2488,19.8109z M20.8387,19.5871h0.0003L20.839,19.587c0.0006-0.0007,0.0512-0.0633,0.1011-0.1409c0.0524-0.0815,0.1009-0.1667,0.1009-0.2361c0-0.0672,0.0158-0.2089,0.0252-0.2873c0.0119-0.0995,0.024-0.1847,0.025-0.1919h-0.0004c-0.0112,0.0041-0.2769,0.1038-0.2769,0.353s0.0246,0.5005,0.0248,0.503V19.5871z M22.0745,18.4794c-0.0142-0.0046-0.029-0.0068-0.0438-0.0067c-0.0588,0.001-0.1216,0.0274-0.2063,0.0858c-0.0772,0.055-0.1496,0.1165-0.2163,0.1838c-0.0847,0.0842-0.1648,0.1729-0.24,0.2657l-0.0011,0.0013c-0.0088,0.0158-0.0846,0.1524-0.1436,0.2853c-0.0295,0.0612-0.0521,0.1254-0.0675,0.1915c-0.0058,0.0194-0.0058,0.04,0,0.0594c0.0025,0.0063,0.007,0.0115,0.0128,0.0149c0.0046,0.002,0.0096,0.003,0.0147,0.003l-0.0001-0.0001c0.0028,0,0.0056-0.0003,0.0083-0.0007c0.0785-0.0131,0.2167-0.0731,0.3691-0.1606c0.1694-0.0971,0.307-0.2012,0.3873-0.293c0.0733-0.0837,0.1167-0.2152,0.1293-0.3909C22.083,18.6386,22.082,18.5588,22.0745,18.4794z" />
  <path fill="#D67D00" d="M25.2377,9.4656c-0.0561,0.0292-0.141,0.0529-0.2044,0.0383c-0.0949,0.0288-0.2151,0.1545-0.313,0.1711l-0.0547-0.0236l-0.0311,0.0141c0.0072,0.1794-0.2104,0.1201-0.3091,0.2033l-0.1383-0.037c-0.0905,0.0183-0.1816,0.1584-0.2708,0.1813c-0.0766-0.0116-0.1679-0.0102-0.2145,0.0631l-0.1105,0.0086c-0.0612,0.0346-0.0835,0.1545-0.1468,0.1928l-0.0333,0.0071l-0.0362-0.0133l-0.0272,0.0048l-0.0123,0.0695c-0.057,0.0477-0.1476,0.0863-0.2114,0.1305c-0.0895-0.0143-0.1912,0.0584-0.2846,0.0478c-0.0374,0.041-0.0937,0.0836-0.1427,0.1087l-0.05-0.0089l-0.0583,0.0231l-0.0236-0.0363c-0.0628,0.0586-0.1476,0.0017-0.2111-0.0257l-0.0371,0.0054c0.002,0.089-0.0752,0.1355-0.136,0.1804c-0.1177,0.1708-0.2974,0.349-0.5113,0.382c-0.4726,0.3493-1.0966,0.504-1.6501,0.6747c-0.1846,0.0055-0.4053-0.0212-0.592,0.0122c-0.2701,0.0954-0.5188,0.3245-0.7931,0.3982c-0.0008-0.0027,0.002-0.0666-0.0006-0.0688c-0.0984,0.0315-0.2346,0.0706-0.3364,0.0365c-0.5463,0.196-1.1603,0.1858-1.7278,0.198c-0.1473-0.0656-0.3623-0.0594-0.5111-0.1197c-0.0836,0.0766-0.1901-0.0423-0.2811,0.0262c-0.0251-0.0012-0.0646-0.0241-0.0815-0.0421l-0.092-0.0137l-0.0561-0.0471c-0.2246,0.0807-0.5144-0.0253-0.7289-0.0642c-0.2393,0.2214-0.4765-0.0303-0.7265,0.0091c-0.1978-0.0856-0.4228-0.2886-0.636-0.3308l-0.008,0.0284c0.0582,0.1135,0.0184,0.2563,0.0498,0.3716c0.1778,0.1974,0.0815,0.5688,0.0615,0.811c-0.0447,0.1921-0.1113,0.5177-0.2145,0.6892c-0.1264,0.083-0.2951,0.2132-0.4354,0.2714c-0.1437,0.049-0.631-0.1762-0.7345-0.281c-0.0423,0.0014-0.1308-0.0221-0.1707-0.0364v-0.0002c-0.0144-0.0043-0.0474-0.0142-0.0616-0.0182c-0.1619,0.024-0.3274-0.1502-0.4806-0.0358l-0.045,0.021c-0.023-0.0118-0.0722-0.0285-0.0981-0.02c-0.0041,0.0064-0.0513,0.0765-0.0524,0.0813c-0.0549,0.029-0.1282,0.0093-0.1829,0.0502c-0.0126,0.0055-0.0478,0.0209-0.0599,0.0261l-0.0003-0.0003c-0.0167,0.0034-0.0435,0.0078-0.0603,0.0113c-0.0317-0.0187-0.0758-0.049-0.1139-0.0507l-0.0226,0.0163c0.0186,0.1104-0.0851,0.176-0.1568,0.2389c-0.0921,0.1215-0.1552,0.3801-0.2693,0.487c-0.542,0.6087-0.9509,0.3396-1.4461-0.1269l-0.0451,0.0012c-0.199,0.3687,0.1727,0.6534,0.2606,0.99l-0.0352,0.0845l0.0178,0.0567L9.108,15.5219l-0.0082,0.0488c0.035,0.0441,0.1539,0.1807,0.1604,0.2379c-0.0102,0.0573-0.0508,0.1364-0.0976,0.1719l0.0072,0.0427c0.122,0.0712,0.1812,0.2198,0.2602,0.319l0.0485-0.0103l0.027,0.0206l0.0409-0.0007c0.035,0.0495,0.1121,0.0605,0.1401,0.1158c-0.0064,0.218,0.1544,0.4292,0.0989,0.6445l0.0482,0.0435c0.0204-0.0058,0.0656-0.0136,0.086-0.0053c0.0403,0.0216,0.0973,0.1065,0.1198,0.1451l0.0642-0.0094c0.1004,0.0632,0.2588,0.2138,0.3566,0.2777c0.031-0.0296,0.0934-0.0515,0.136-0.0477c0.018,0.0122,0.0675,0.0457,0.0862,0.0583c0.3242-0.0141,0.5403,0.2944,0.8457,0.3435l0.0008-0.0021h0.0005l-0.0008,0.0021c0.1434,0.0508,0.323,0.1254,0.4712,0.1463l0.0667-0.0561c0.0925,0.0009,0.2116,0.0219,0.2695-0.0742c0.0663-0.0372,0.2435-0.0673,0.3148-0.0338l0.1487-0.0647l0.0996,0.0277l0.0882-0.0313c0.095,0.0158,0.2529,0.047,0.3011,0.1443c0.0013,0.0003,0.0673,0.0014,0.0707,0.0015l-0.0267,0.0444c0.1486,0.1431,0.2499,0.3752,0.2916,0.5702l-0.0447,0.0341c-0.0017,0.0046-0.0085,0.0224-0.0099,0.0266l0.0091,0.0218c0.056-0.0465,0.1367-0.0282,0.2024-0.0209c0.0282-0.014,0.0918-0.0455,0.1194-0.0593c0.0379,0.0246,0.1161,0.0399,0.1604,0.032c0.049,0.0193,0.1313,0.0695,0.1862,0.0658l0.0188-0.0124l0.012-0.0285l-0.0062-0.0333c-0.141-0.1289-0.2319-0.3099-0.187-0.5037c0.0209-0.0154,0.0347-0.0712,0.0393-0.0951h0.0003c0.1198-0.1574,0.3385-0.3108,0.5227-0.3951l0.0029-0.0133l0.0121,0.0049c0.2771-0.1855,0.9625-0.0532,1.2655-0.0667c0.0273-0.1727,0.2289-0.1537,0.3537-0.1067l0.0777-0.0436c0.0419,0.017,0.1349-0.0422,0.169-0.0613c0.1342,0.0074,0.2637-0.143,0.4005-0.1635c0.183-0.108,0.3745-0.2445,0.6015-0.2196l0.0428-0.0713l0.0915-0.0122c0.0224-0.0337,0.0774-0.0811,0.1186-0.088c0.0781-0.2111,0.3318-0.1617,0.5078-0.1364l0.0267-0.0162l0.0455-0.1625c0.0448-0.0068,0.1509-0.1847,0.176-0.2176c0.0036-0.3305-0.0098-0.8322,0.4269-0.8805v0c0.0068-0.0071,0.2966-0.0092,0.3139-0.0095c0.1602-0.0133,0.3776,0.0163,0.53,0.0684c0.096,0.0594,0.1801,0.1891,0.2913,0.2204c0.1139-0.0218,0.2421-0.1111,0.3062-0.2056l0.0009,0.0002v-0.0004h-0.0007l0.017-0.0258c0.1096-0.084,0.3249-0.0165,0.3991-0.1383c0.0305-0.0099,0.1193,0.0271,0.1477,0.0375l0.0733-0.0146c0.0512,0.0348,0.1324,0.0139,0.1892,0.008c0.0797,0.0418,0.3436,0.2214,0.4197,0.1683c0.0022,0.0029,0.023,0.0323,0.0256,0.0361l0.0294,0.0042l0.0348-0.0464c-0.0034-0.0052-0.0157-0.024-0.0191-0.0287L21.6567,15.43l-0.0605-0.1033l0.0576-0.062c-0.1566-0.1802-0.2895-0.4664-0.506-0.5901l0,0c-0.2349-0.144-0.312-0.4258-0.5124-0.5955c-0.0631-0.0633-0.1454-0.2754-0.2621-0.2383c-0.0021-0.0021-0.0086-0.0086-0.0105-0.0107c-0.0006,0.0004,0.0348-0.0347,0.0354-0.0353l0.0368-0.0093l0.0159-0.0363c-0.1931-0.4097,0.0868-0.9499,0.4308-1.1849c0.1982-0.0486,0.4119,0.0764,0.6085-0.0229c0.095-0.0348,0.1009-0.205,0.1351-0.2838c0.1295-0.2336,0.4265-0.4541,0.6418-0.6052c0.2528-0.1975,0.8736-0.336,1.0675-0.6077c0.1797-0.2452,0.6331-0.2489,0.6812-0.5927l0.0371-0.009c0.0519-0.1989,0.5497-0.3488,0.7028-0.4506l0.0745,0.0102l0.04-0.0598c0.0467-0.0107,0.1744-0.0201,0.2134-0.0481l0.0313-0.0533c-0.0005-0.0093,0.0042-0.143,0.0043-0.153c0.0571-0.0566,0.0335-0.1728,0.125-0.2063l-0.0073-0.0177L25.2377,9.4656z" />
</svg>