<svg width="32" height="32" viewBox="0 0 32 32" xmlns="http://www.w3.org/2000/svg">
  <polygon fill="#f4f4f4" points="2,6 9.5,6 12,7 14.5,6 30,6 30,13.5 29,16 30,18.5 30,26 14.5,26 12,25 9.5,26 2,26 2,18.5 3,16 2,13.5" />
  <polygon fill="#0065a3" points="30,18.5 2,18.5 2,17.25 3,16 2,14.75 2,13.5 30,13.5 30,14.75 29,16 30,17.25" />
  <polygon fill="#0065a3" points="14.5,26 13.25,26 12,25 10.75,26 9.5,26 9.5,6 10.75,6 12,7 13.25,6 14.5,6" />
  <rect fill="#F8312F" x="2" y="14.75" width="28" height="2.5" />
  <rect fill="#F8312F" x="10.75" y="6" width="2.5" height="20" />
</svg>