<svg width="32" height="32" viewBox="0 0 32 32" xmlns="http://www.w3.org/2000/svg">
  <polygon fill="#1c1c1c" points="2,6 30,6 26,13.8 6,13.8" />
  <polygon fill="#FCD53F" points="10,13.8 13.0576,13.2147 10.4567,11.5039 13.5056,12.1333 11.7574,9.5573 14.3333,11.3056 13.7039,8.2567 15.4147,10.8576 16,7.8 16.5853,10.8576 18.2961,8.2567 17.6667,11.3056 20.2426,9.5573 18.4944,12.1333 21.5433,11.5039 18.9424,13.2147 22,13.8 16,19.8" />
  <rect fill="#007ACF" x="6" y="13.8" width="20" height="4.4" />
  <polygon fill="#f4f4f4" points="6,18.2 26,18.2 16,26" />
  <polygon fill="#CF0828" points="2,6 16,26 30,6 30,26 2,26" />
</svg>