<svg width="32" height="32" viewBox="0 0 32 32" xmlns="http://www.w3.org/2000/svg">
  <polygon fill="#072975" points="16,6 14.95,6.5 13.9,6 10.75,6 9,7 7.25,6 4.1,6 2,7.5 2,9.25 3,11 2,12.75 2,14.5 2.5,15.25 2,16 2,26 30,26 30,6" />
  <polygon fill="#f4f4f4" points="16 6 15.3 6.25 14.6 6 13.9 6 10.75 8.25 10.75 6 10 6 9 6.5 8 6 7.25 6 7.25 8.25 4.1 6 2 6 2.25 6.5 2 7 2 7.5 4.45 9.25 2 9.25 2 10 2.5 11 2 12 2 12.75 4.45 12.75 2 14.5 2 16 2.7 15.75 3.4 16 4.1 16 7.25 13.75 7.25 16 8 16 9 15.5 10 16 10.75 16 10.75 13.75 13.9 16 16 16 15.75 15.5 16 15 16 14.5 13.55 12.75 16 12.75 16 12 15.5 11 16 10 16 9.25 13.55 9.25 16 7.5" />
  <path fill="#cf0828" d="M7.25 12.75h-.7L2 16h1.4l3.85-2.75v-.5zm4.2 0L16 16v-1l-3.15-2.25h-1.4zm-.7-3.5h.7L16 6h-1.4l-3.85 2.75v.5zm-5.6 0L2 7V6l4.55 3.25h-1.4zM16 12h-6v4H8v-4H2v-2h6V6h2v4h6v2z" />
  <path fill="#238647" d="M24.245 14.613L23 17.81l-1.245-3.197L23 11.417z" />
  <path fill="#f4f4f4" d="M20.333 15.725a.864.864 0 00.741.48 1.104 1.104 0 00.815-.37l.518.667s-.333.223-.333.482c0 0-.222-.222-.148-.408a.926.926 0 01-.258.186.578.578 0 01.036-.333 1.314 1.314 0 01-.593.148.87.87 0 01-.74-.407 1.038 1.038 0 01-.038-.446zm2.074-.482a.221.221 0 01-.223.221H22a.222.222 0 110-.444h.185a.222.222 0 01.222.223zm1.149-.297a.222.222 0 01-.222.223h-.187a.222.222 0 010-.445h.186a.223.223 0 01.223.222z" />
  <path fill="#6488bd" d="M22.55 15.41a.223.223 0 01-.307-.07l-.079-.124a.222.222 0 01.068-.307l.032-.02a.22.22 0 01.306.07l.08.124a.223.223 0 01-.068.307zm1.26-.148a.221.221 0 01-.307-.068l-.08-.126a.221.221 0 01.069-.306l.031-.02a.223.223 0 01.307.068l.08.126a.221.221 0 01-.07.306z" />
  <path fill="#297f47" d="M22.994 15.337a.222.222 0 01-.306-.07l-.08-.124a.222.222 0 01.068-.307l.032-.02a.222.222 0 01.307.07l.08.125a.223.223 0 01-.07.306zm1.089.108a.223.223 0 01-.215-.23l.005-.147a.223.223 0 01.23-.215l.036.001a.221.221 0 01.215.23l-.005.148a.222.222 0 01-.229.215z" />
  <path fill="#689f9e" d="M23 15.02c.481-.022 1.185 1.37 1.223 1.556a1.236 1.236 0 01-.408.814 1.835 1.835 0 01-1.26.038c-.222-.185-.258-.667-.296-.815a4.306 4.306 0 00-.408-.667l-.407-.074.149-.148.481.037.038-.148h-.222A1.395 1.395 0 0123 15.02z" />
  <path fill="#491918" d="M22.852 17.317c.185-.223.851-.778 1.074-.666s.185.333-.038.555c-.221.222-1.036.11-1.036.11z" />
  <path fill="#f4f4f4" d="M23 17.243h-2.223v1.963a3.061 3.061 0 00.908 2.408 5.15 5.15 0 001.314.703 5.15 5.15 0 001.315-.703 3.061 3.061 0 00.907-2.408v-1.963z" />
  <path fill="#34bbea" d="M24.63 21.02c-.296 0-.518.334-.815.334s-.518-.297-.777-.297-.482.297-.778.297-.519-.334-.815-.334a.519.519 0 00-.205.053 2.502 2.502 0 00.446.54 5.15 5.15 0 001.314.703 5.15 5.15 0 001.315-.703 2.497 2.497 0 00.46-.564.461.461 0 00-.145-.029zm0-1.592c-.296 0-.518.333-.815.333s-.518-.297-.777-.297-.482.297-.778.297-.519-.333-.815-.333c-.205 0-.462.211-.638.306a3.732 3.732 0 00.125.637.831.831 0 01.476-.202c.37 0 .63.332.89.332s.481-.258.74-.258.48.258.74.258.52-.332.89-.332a.736.736 0 01.413.158 3.737 3.737 0 00.117-.634 1.35 1.35 0 00-.568-.265zm0-1.593c-.296 0-.518.334-.815.334s-.518-.297-.777-.297-.482.297-.778.297-.519-.334-.815-.334c-.216 0-.491.236-.667.321v.728c.196-.12.38-.308.63-.308.37 0 .63.334.89.334s.481-.26.74-.26.48.26.74.26.52-.334.89-.334a1.023 1.023 0 01.556.26v-.72a1.479 1.479 0 00-.594-.28z" />
  <path fill="#238647" d="M20.966 20.48a2.69 2.69 0 00.413.798L23 19.464l1.62 1.814a2.71 2.71 0 00.414-.799L23 18.281z" />
  <path fill="#8F9DA7" d="M19.667 20.872a1.424 1.424 0 01.48.037 1.42 1.42 0 01.52.482s.444.333.482.556c0 0 .333.149.333.296s-.482.295-.63.259a1.528 1.528 0 00-.704-.074 1.827 1.827 0 01-.778.148 2.748 2.748 0 00-.556 0c-.148 0-.333-.148-.556-.222-.222-.074-.74.075-.814-.148-.074-.222.518-.445.74-.445s.853-.852 1.483-.889zm6.666 0a1.424 1.424 0 00-.48.037 1.42 1.42 0 00-.52.482s-.445.333-.482.556c0 0-.333.149-.333.296s.482.295.63.259a1.527 1.527 0 01.703-.074 1.827 1.827 0 00.778.148 2.748 2.748 0 01.556 0c.148 0 .333-.148.556-.222.222-.074.74.075.815-.148.074-.222-.519-.445-.741-.445s-.852-.852-1.482-.889z" />
  <path fill="#CDD4D9" d="M19.259 21.058s.185.037.222.037.259-.075.333-.037.037.148.148.185.15.075.075.186l-.149.221a3.129 3.129 0 00-.556.15c-.148.074-.444.185-.11.22.332.038.814.186.74.223a4.006 4.006 0 01-.666 0c-.15 0-.445.074-.52.074s-.295.038-.185.112-.149-.038-.296-.074-.482-.15-.259-.223a1.337 1.337 0 01.519-.037c.111 0 .259-.15.148-.186s.111-.296.334-.333.592-.112.295-.185c-.295-.074-.332-.185-.073-.333zm7.482 0s-.185.037-.222.037-.259-.075-.333-.037-.037.148-.148.185-.15.075-.075.186l.149.221a3.129 3.129 0 01.556.15c.148.074.444.185.11.22-.332.038-.814.186-.74.223a4.006 4.006 0 00.666 0c.15 0 .445.074.52.074s.295.038.185.112.149-.038.296-.074.482-.15.259-.223a1.337 1.337 0 00-.519-.037c-.111 0-.259-.15-.148-.186s-.111-.296-.334-.333-.592-.112-.295-.185c.295-.074.332-.185.073-.333zm-7.223.74c.15-.037.52.037.482.112s-.074.148-.185.11a1.162 1.162 0 01-.297-.221zm6.963 0c-.149-.037-.519.037-.481.112s.074.148.184.11a1.155 1.155 0 00.297-.221z" />
  <path fill="#394249" d="M26.779 22.43a3.03 3.03 0 01-.815 0c-.222-.038-.37-.186-.593-.112a.168.168 0 00-.13.162l-.092.023-.003-.003.001.002c-.147.036-.629-.111-.629-.26s.333-.296.333-.296c.037-.223.482-.556.482-.556a1.438 1.438 0 01.49-.466c.11.04.154.133.03.208-.186.111-.186.184-.112.222a.443.443 0 01.185.185c.037.074-.111-.037-.296 0s-.186.037-.333.074c-.149.037-.296.186-.222.223s-.074.075-.11.184c-.038.112.073.075.22.075a2.676 2.676 0 01.594.037c.037.037-.704.037-.704.111s.408 0 .518.037a1.733 1.733 0 00.63.075 1.3 1.3 0 01.519-.037c.074.037.259.074.037.111zm-5.63-.483l-.003.005.002-.005c-.038-.223-.482-.556-.482-.556a1.438 1.438 0 00-.49-.467c-.11.041-.154.133-.03.208.186.111.186.185.112.222a.437.437 0 00-.185.186c-.036.074.112-.038.297 0s.185.036.333.074c.149.037.296.185.223.222s.074.075.11.185c.038.111-.074.075-.222.075a2.676 2.676 0 00-.593.036c-.037.038.704.038.704.112s-.408 0-.519.037a1.733 1.733 0 01-.629.074 1.3 1.3 0 00-.52-.037c-.073.037-.258.074-.036.111a3.03 3.03 0 00.815 0c.221-.037.37-.185.593-.111a.168.168 0 01.13.162l.092.023v-.001c.149.036.63-.11.63-.259s-.332-.296-.332-.296z" />
  <path fill="#238647" d="M19.852 20.725s-.074-.334 0-.37.186.112.186.112 0-.408.11-.372a.282.282 0 01.15.186s.111-.296.22-.221c.112.074 0 .296 0 .296s.26.111.187.222-.445.112-.519.149-.037.148.037.11.445-.185.407-.036-.111.186-.258.186a1.985 1.985 0 01-.408-.075l-.333.222-.038-.037zm-.63-.37c.037.148.074.186.222.186s.259.074.185.148a.455.455 0 01-.259.074l.112.296-.037.037-.149-.296-.149.186s-.221-.15-.148-.223.223-.074.148-.149-.184-.296.038-.258-.148.111-.148.111M17 21.91c.037-.075.259-.149.259-.149s.037-.296.149-.296.221.222.221.222.038-.148.112-.112.259.223.221.297-.074.333-.221.37-.297-.222-.297-.222a.53.53 0 01-.221.037.274.274 0 01-.223-.147zm3.37-.593s.112-.333.223-.297.11.186.11.186a.869.869 0 01.483.075.229.229 0 01-.037.407.582.582 0 01-.482-.112c-.037-.036-.037.408-.185.408-.149 0-.223-.185-.185-.296a.395.395 0 000-.222s-.297 0-.37.149a.611.611 0 01.221-.185zm5.778-.592s.074-.334 0-.37-.185.111-.185.111 0-.408-.11-.37a.282.282 0 00-.15.185s-.111-.296-.221-.222c-.112.074 0 .297 0 .297s-.259.111-.186.222.445.111.519.149.037.148-.037.11-.445-.185-.408-.036.112.186.26.186a1.985 1.985 0 00.407-.075l.333.222.037-.038zm.63-.37c-.037.148-.074.185-.222.185s-.259.075-.185.149a.455.455 0 00.259.074l-.112.296.037.037.149-.296.149.186s.221-.15.148-.223-.222-.074-.148-.148.184-.297-.038-.26.148.112.148.112M29 21.91c-.037-.075-.259-.149-.259-.149s-.037-.296-.149-.296-.221.222-.221.222-.038-.148-.112-.112-.259.223-.221.297.074.333.221.37.297-.222.297-.222a.53.53 0 00.221.037.274.274 0 00.223-.147zm-3.37-.593s-.112-.333-.224-.297-.11.186-.11.186a.869.869 0 00-.482.075.229.229 0 00.036.407.582.582 0 00.482-.112c.038-.036.038.408.186.408s.222-.185.185-.296a.395.395 0 010-.222s.296 0 .37.149a.61.61 0 00-.223-.185z" />
  <path fill="#937a61" d="M20.814 16.613a.872.872 0 01.815.593h-.666a.756.756 0 00-.186-.037.863.863 0 00-.445.407c-.111.223-.665-.036-.555-.221a1.192 1.192 0 011.037-.742zm4.37 0a.874.874 0 00-.814.593h.666a.756.756 0 01.186-.037.863.863 0 01.444.407c.112.223.666-.036.555-.221a1.19 1.19 0 00-1.036-.742z" />
  <path fill="#af987e" d="M18.963 20.355a4.068 4.068 0 01.111.74c0 .025-.036.197-.037.222a1.04 1.04 0 01-.185.593.97.97 0 01-.37-.334.7.7 0 01-.112-.74 1.827 1.827 0 01.593-.481zm8.074 0a4.068 4.068 0 00-.111.74c0 .025.036.197.037.222a1.04 1.04 0 00.185.593.97.97 0 00.37-.334.7.7 0 00.112-.74 1.827 1.827 0 00-.593-.481z" />
  <path fill="#ba8f69" d="M26.667 18.243l-.667.074a1.514 1.514 0 00.112.926 15.76 15.76 0 001.073 1.334l.112-.63zm-7.334 0l.667.074a1.514 1.514 0 01-.112.926 15.76 15.76 0 01-1.073 1.334l-.112-.63z" />
  <path fill="#d1bea7" d="M20.185 15.984s-.111-.222-.482-.074a.721.721 0 00-.48.593c-.038.185.073.37-.186.556s-.445 1.333-.15 1.296.37-.074.52.037a.535.535 0 00.703-.11l-.26-1.075-.037-.259a1.257 1.257 0 01.223-.295.665.665 0 00.148-.482zm5.63 0s.112-.222.482-.074a.721.721 0 01.481.593c.038.185-.074.37.186.556s.444 1.333.149 1.296-.37-.074-.519.037a.536.536 0 01-.704-.11l.26-1.075.038-.259a1.263 1.263 0 00-.222-.295.665.665 0 01-.148-.482c0-.112-.003-.187-.003-.187z" />
  <path fill="#020202" d="M19.74 16.02c.149-.073.26-.036.149.076-.11.11-.297-.001-.148-.075zm6.52 0c-.149-.073-.26-.036-.149.076.11.11.296-.001.148-.075z" />
  <path fill="#af987e" d="M19.518 17.317c.016-.062.127-.074.26-.047a3.37 3.37 0 01.407.195 1.214 1.214 0 01.704 1.036 2.89 2.89 0 01-.37 1.074c-.037.111-.111 0-.149-.112a2.594 2.594 0 01-.037-.592.87.87 0 00-.296-.666c-.185-.11-.667-.296-.518-.888zm6.963 0c-.016-.062-.127-.074-.258-.047a3.378 3.378 0 00-.408.195 1.214 1.214 0 00-.704 1.036 2.89 2.89 0 00.37 1.074c.037.111.111 0 .149-.112a2.594 2.594 0 00.037-.592.87.87 0 01.296-.666c.185-.11.667-.296.518-.888z" />
  <path fill="#d1bea7" d="M18.74 19.947a3.29 3.29 0 01.074 1.073c-.111.594-.556 1.26-.852 1.186s-.11-.26-.037-.407a1.176 1.176 0 00.112-.741c-.075-.259.703-1.111.703-1.111zm8.519 0a3.29 3.29 0 00-.075 1.073c.112.594.556 1.26.853 1.186s.11-.26.036-.407a1.171 1.171 0 01-.111-.741c.075-.259-.703-1.111-.703-1.111z" />
  <path fill="#d37034" d="M18.777 16.984a.521.521 0 01.667.295 4.2 4.2 0 01.037.964 5.096 5.096 0 01-.074.777c-.075.186-.37.37-.408.63s-.259.481-.592.852-.852.963-1 .889a3.704 3.704 0 01.111-2.556 5.11 5.11 0 011.259-1.851zm8.445 0a.522.522 0 00-.666.295 4.2 4.2 0 00-.038.964 4.994 4.994 0 00.075.777c.074.186.37.37.407.63s.259.481.593.852.852.963 1 .889a3.704 3.704 0 00-.111-2.556 5.118 5.118 0 00-1.26-1.851z" />
  <path fill="#f4f4f4" d="M19.408 13.428a.577.577 0 00.592.333c.445-.036.777-.148.889.259a.571.571 0 00-.37.222c-.11.185.186.667.186.667a.523.523 0 01-.407-.186 1.048 1.048 0 01-.26.556.665.665 0 01-.333.111l.37-.74c.074-.149.148-.334-.186-.111s-.777.407-1.036.11c0 0 1.074-.48 1.296-.592a4.88 4.88 0 00-.74 0 1.685 1.685 0 00-.408.111s-.036-.296.37-.296c.26 0-.037-.074-.074-.222a.202.202 0 01.11-.222zm5.666 3.036s.815-.11.704-.851-.666-1.26-.556-1.704a.513.513 0 00-.334.296c-.148.482.323.872.408 1a1.96 1.96 0 01.223.482s-.407-.333-.63 0c0 0 .258-.038.37.074a.296.296 0 01.074.408 3.147 3.147 0 01-.259.295zm2.333-2.517s.37.149.37.37c0 .223-.186.296-.481.296a.556.556 0 00.186-.259.866.866 0 00-.075-.407z" />
  <path fill="#8c5a3e" d="M21.703 13.687a5.227 5.227 0 00.704.408 4.89 4.89 0 00.74 0l.112-.26a2.59 2.59 0 01.482-.074 2.935 2.935 0 01.408.037l.074.222-.297.667h-1a.791.791 0 01-.556-.259c-.074-.149-.37-.333-.444-.444s-.482-.408-.223-.297z" />
  <path fill="#8c5a3e" d="M23.221 14.087a.074.074 0 11-.148 0V12.62a.074.074 0 11.148 0zm-.665.045a.074.074 0 01-.15 0v-1.334a.074.074 0 01.15 0zm1.073 0a.074.074 0 11-.148 0v-1.334a.074.074 0 11.148 0z" />
  <path fill="#f4f4f4" d="M22.704 13.17c0 .04-.133.073-.297.073s-.295-.033-.295-.074.133-.074.295-.074.297.033.297.074zm.148.37c0 .04-.174.073-.39.073s-.39-.033-.39-.074.175-.074.39-.074.39.033.39.075zm.556-.501c0 .03-.133.055-.296.055s-.297-.025-.297-.055.133-.056.297-.056.296.025.296.056zm.444-.019c0 .02-.108.037-.24.037s-.242-.017-.242-.037.108-.037.241-.037.241.017.241.037zm-.52.37c0 .042-.106.075-.24.075s-.24-.033-.24-.075.107-.074.24-.074.24.034.24.075zm.52 0c0 .033-.108.058-.24.058s-.242-.025-.242-.058.108-.057.241-.057.241.026.241.058z" />
  <path fill="#8fd2e2" d="M21.777 14.799s.297-.037.15-.296c0 0 .148-.074.332.111s.52 0 .297-.222a.278.278 0 01.332.037c.15.149.408.186.297-.111a.32.32 0 01.37.149c.111.222.518.185.333-.112a.244.244 0 01.26.112.407.407 0 00.148.185.179.179 0 01.295 0c.15.184.075.37-.184.407s-.372-.258-.372-.258a.31.31 0 01-.295.111.538.538 0 01-.296-.186 1.062 1.062 0 01-.333.111c-.186 0-.324-.18-.37-.11a.418.418 0 01-.519.11s-.185.296-.408.296-.444-.133-.444-.332c0-.186.112-.26.221-.223.112.035.186.221.186.221z" />
  <path fill="#238647" d="M21.259 15.576s-.407.112-.445.334-.074.259-.074.259a.777.777 0 01-.296-.222.895.895 0 01-.112-.593 2.638 2.638 0 01.334-.63 1.069 1.069 0 00.186-.703.722.722 0 00-.222-.296s.482 0 .556.296a.696.696 0 01-.074.52s.074.036.185-.112c0 0 .037.37-.186.444a2.647 2.647 0 00-.222.408c-.074.185-.202.406-.111.333a.555.555 0 01.48-.038zm-2.445-1.519a.707.707 0 00-.148.297.599.599 0 00.37.444s-.666-.259-.666-.482c0-.221.297-.259.444-.259zm6.037.223s.075-.555.482-.519 1 .15 1.111.038a.437.437 0 00.074-.333s.222.036.259.148-.11.259-.11.259a.357.357 0 01.295.074 2.843 2.843 0 01.222.259 2.792 2.792 0 00-.556-.111c-.185 0-.703-.038-.703-.038a7.852 7.852 0 00.815.408 1.205 1.205 0 00.888.111s-.37.222-.482.296a.527.527 0 01-.518-.037 6.457 6.457 0 01-.592-.37 1.482 1.482 0 00.11.518 1.601 1.601 0 00.297.445 1.216 1.216 0 01-.482-.222.818.818 0 01-.148-.481.45.45 0 01-.444.185.584.584 0 00.185-.26c.074-.185.185-.333.074-.48s-.258-.297-.444-.26c-.184.037-.333.37-.333.37zm-1.333.74a.81.81 0 00-.518.927 1.476 1.476 0 01.37-.482 2.049 2.049 0 00.112.63.926.926 0 00.629.556 1.725 1.725 0 01-.26-.741 2.757 2.757 0 00.593.889l.037-.259a.744.744 0 01-.185-.334.756.756 0 00.519.297.531.531 0 00.556-.445 1.458 1.458 0 01-.407.112.875.875 0 01-.778-.408 1.34 1.34 0 01-.26-.556z" />
</svg>