<svg width="32" height="32" viewBox="0 0 32 32" xmlns="http://www.w3.org/2000/svg">
  <rect fill="#F8312F" x="2" y="6" width="28" height="20" />
  <path fill="#f4f4f4" d="M17.2508,9.2315c-0.4646-0.2415-0.9915-0.37-1.5654-0.2385c-0.6969,0.16-1.5469,0.8831-1.7785,1.7231c-0.1092,0.3962-0.2008,0.7462-0.1954,1.07c0.0038,0.2231,0.0031,0.5954,0.03,0.9631C13.76,13.01,13.89,13.5731,14.0962,14.07l0.0131-0.0046c0.1131,0.3777,0.4869,0.9638,0.8531,1.4446c0.42,0.5515,0.7485,0.8,0.8146,0.7992c-0.04-0.0246-0.0808-0.0508-0.1246-0.1054c-0.24-0.3008-0.48-0.8492-0.5292-1.2208c-0.0954-0.7254,0.0277-1.25,0.2285-1.88c0.05-0.1577,0.1538-0.2031,0.2223-0.1623c0.0054,0.0031,0.0085,0.01,0.0138,0.0146c0.0423,0.0392,0.0685,0.1108,0.0308,0.2415c-0.0962,0.3369-0.3315,1.1846-0.2062,1.7862c0.1154,0.5546,0.28,0.8854,0.4746,1.1192c-0.0777-0.1554-0.1654-0.4554-0.1715-0.7646c-0.0031-0.1723-0.0177-0.3431,0.0685-0.4977c0.1446-0.2592,0.3554-0.3985,0.5992-0.53c0.1685-0.0908,0.3269-0.2146,0.4723-0.3077c0.6615-0.4215,0.8838-1.2554,0.8654-1.5923l-0.0162-0.2515c0.0138-0.0915-0.0277-0.3431-0.1377-0.5954c-0.0823-0.1892-0.2123-0.3754-0.3169-0.5177c-0.0531-0.0731-0.0831-0.1569-0.1123-0.2085c-0.1131-0.1962-0.1131-0.4185-0.1115-0.5592c0.0008-0.1662,0.0223-0.1854,0.07-0.2646c0.0377-0.0631,0.0785-0.1485,0.2062-0.2169c0.0938-0.0492,0.3054-0.0346,0.43,0.0292c0.1062,0.0531,0.1262,0.0485,0.1808,0.0785c0.0492,0.0269,0.1777,0.0946,0.17,0.0677C18.0531,9.87,17.6808,9.4546,17.2508,9.2315z M14.3754,16.8215c-0.7238-0.0992-1.1985-0.3562-1.7538-0.7162c-0.1377-0.0892-0.1554-0.2008-0.1-0.2562l0.0046-0.0023c0.0454-0.04,0.1277-0.0508,0.2554,0.0262c0.3008,0.1815,1.0562,0.6315,1.6692,0.67c0.4992,0.0308,0.8362-0.0238,1.1-0.1238c-0.1785,0.0185-0.4338,0.0123-0.6846-0.0523c-0.1669-0.0438-0.3354-0.0762-0.4615-0.2c-0.21-0.2085-0.2877-0.4492-0.3492-0.72c-0.0423-0.1869-0.1185-0.3723-0.1692-0.5377c-0.2269-0.7508-0.97-1.19-1.3-1.2631L12.34,13.5946c-0.0846-0.0385-0.3385-0.0646-0.6108-0.0285c-0.2046,0.0277-0.4185,0.1038-0.5838,0.1662c-0.0854,0.0323-0.1731,0.0377-0.2308,0.0523c-0.22,0.0562-0.4338-0.0038-0.5685-0.0431c-0.16-0.0462-0.1731-0.0723-0.2362-0.14c-0.0508-0.0531-0.1223-0.1138-0.1538-0.2562c-0.0223-0.1031,0.0492-0.3031,0.1438-0.4062c0.08-0.0862,0.0808-0.1077,0.1238-0.1531c0.0392-0.0408,0.1392-0.1454,0.1108-0.1446c-0.1046,0-0.6046,0.2462-0.9346,0.6c-0.3585,0.3831-0.6246,0.8554-0.6523,1.4431c-0.0331,0.7146,0.4338,1.7285,1.18,2.1785c0.3508,0.2108,0.6638,0.3946,0.9777,0.4762c0.2162,0.0562,0.5738,0.1577,0.9354,0.2315c0.2562,0.0515,0.8331,0.08,1.3669,0.0154v-0.0146c0.3946-0.0069,1.0592-0.2092,1.62-0.4308c0.7085-0.2815,1.0546-0.5662,1.0023-0.5923l-0.0092,0.0077c-0.0069,0.0077-0.02,0.01-0.0338,0.0123c-0.03,0.0223-0.05,0.0462-0.0962,0.0662C15.3392,16.7854,14.7462,16.8731,14.3754,16.8215z M16.3108,17.7223c-0.0469-0.6646-0.1754-1.0446-0.2354-1.1069c0.0046,0.02,0.0138,0.0292,0.0169,0.0523c0.0469,0.3815-0.0362,0.9746-0.19,1.3169c-0.2992,0.6669-0.6792,1.0492-1.1808,1.4823c-0.0831,0.0708-0.1646,0.0915-0.2215,0.0762c-0.0377-0.01-0.0646-0.0354-0.0723-0.0723c-0.0115-0.0554,0.0185-0.1354,0.1154-0.2238c0.2585-0.2377,0.9038-0.8346,1.1131-1.4138c0.1615-0.4485,0.2069-0.7762,0.1923-1.05c-0.0315,0.1762-0.1162,0.4369-0.2638,0.6708c-0.0915,0.1454-0.1731,0.2962-0.33,0.3785c-0.2623,0.1377-0.5154,0.1385-0.7915,0.1138c-0.19-0.0154-0.3908,0.0015-0.5638-0.0015c-0.7846-0.0108-1.4277,0.5646-1.5969,0.8569l-0.1238,0.2192c-0.0623,0.0685-0.1638,0.3023-0.2108,0.5731c-0.0362,0.2038-0.0285,0.4308-0.0192,0.6069c0.0046,0.0908-0.0169,0.1762-0.02,0.2362c-0.0138,0.2262-0.1354,0.4123-0.2138,0.5292c-0.0923,0.1377-0.1208,0.1423-0.2038,0.1823c-0.0654,0.0315-0.1462,0.0815-0.2915,0.0692c-0.1046-0.01-0.2738-0.1385-0.3431-0.26c-0.0585-0.1023-0.0785-0.1092-0.1085-0.1646c-0.0269-0.0492-0.0962-0.1769-0.1046-0.1492c-0.0315,0.1,0.0515,0.6515,0.2885,1.0723c0.2569,0.4585,0.6269,0.8538,1.1792,1.0585c0.67,0.2477,1.7777,0.11,2.4323-0.4662c0.3085-0.2708,0.5777-0.5146,0.7508-0.7877c0.1192-0.1885,0.3238-0.4985,0.5038-0.8208c0.1269-0.2277,0.3269-0.7708,0.4277-1.2985l-0.0131-0.0038C16.3438,19.02,16.3531,18.3254,16.3108,17.7223z M20.9938,19.8985c-0.1392-0.3869-0.2662-0.7254-0.4585-0.9869c-0.1315-0.18-0.3454-0.4838-0.58-0.77c-0.1654-0.2015-0.5962-0.5862-1.0515-0.8738l-0.0069,0.0108c-0.3115-0.2423-0.9546-0.5054-1.5308-0.6869c-0.6023-0.1892-1.0085-0.2192-1.1177-0.1938c0.0469-0.0038,0.0985-0.0046,0.1677,0.0162c0.3692,0.1085,0.88,0.4223,1.1331,0.6985c0.4931,0.5408,0.6908,1.0415,0.8885,1.6738c0.05,0.1592-0.0108,0.2569-0.0923,0.2592c-0.0023,0-0.0023,0.0038-0.0046,0.0038c-0.0038,0-0.0046-0.0046-0.0069-0.0062c-0.0577-0.0054-0.1223-0.0492-0.1677-0.1815c-0.1146-0.3315-0.4062-1.1608-0.8531-1.5838c-0.4115-0.3885-0.7362-0.5654-1.03-0.6469c-0.0546-0.0146-0.0831-0.0385-0.1123-0.0608c-0.0038,0.0031-0.0077,0.0023-0.0115,0.0069l0.11,0.0654c0.1531,0.0823,0.3985,0.2762,0.5815,0.5254c0.1008,0.14,0.2115,0.2708,0.2308,0.4469c0.0315,0.2938-0.06,0.5292-0.1823,0.7792c-0.0846,0.1715-0.1431,0.3638-0.2085,0.5238c-0.2977,0.7254,0.0015,1.5346,0.2115,1.7992l0.1585,0.1962c0.0415,0.0831,0.2215,0.2638,0.4562,0.4062c0.1762,0.1085,0.3908,0.1838,0.5592,0.2415c0.0854,0.0285,0.1569,0.0792,0.2115,0.1046c0.2054,0.0946,0.3338,0.2769,0.4138,0.3931c0.0946,0.1362,0.0885,0.1646,0.0954,0.2569c0.0054,0.0723,0.0215,0.1654-0.0431,0.2954c-0.0477,0.0938-0.2292,0.2046-0.3669,0.2254c-0.1169,0.0162-0.1308,0.0323-0.1931,0.04c-0.0554,0.0069-0.2008,0.0246-0.1769,0.0431c0.0808,0.0662,0.6246,0.1908,1.1031,0.1246c0.5208-0.0708,1.0246-0.2708,1.4169-0.7085C21.0123,21.7992,21.2885,20.7177,20.9938,19.8985z M22.9308,13.7454c-0.3815-0.6046-1.3438-1.1685-2.2138-1.1108c-0.4077,0.0277-0.77,0.0569-1.0731,0.1685c-0.21,0.0769-0.5615,0.1985-0.9,0.3454c-0.24,0.1038-0.7277,0.4131-1.1292,0.7708l0.0085,0.01c-0.32,0.2323-0.7508,0.7785-1.0831,1.2823c-0.35,0.53-0.4846,0.9008-0.4885,1.01c0.0108-0.0438,0.0208-0.0885,0.0562-0.1454c0.2046-0.3262,0.6446-0.7323,0.98-0.9008c0.6538-0.3269,1.1892-0.3831,1.8508-0.4015c0.1669-0.0046,0.2438,0.0792,0.2254,0.1577c-0.0031,0.0123-0.0108,0.0238-0.0192,0.0354c-0.0315,0.0438-0.0892,0.0823-0.2085,0.0885c-0.3492,0.02-1.2269,0.0762-1.7546,0.3915c-0.4862,0.2915-0.7446,0.5562-0.9023,0.8162c-0.0292,0.0492-0.06,0.0715-0.09,0.0931c0.0015,0.0038,0,0.0069,0.0031,0.0115l0.0938-0.0885c0.1208-0.1238,0.3754-0.3062,0.6646-0.4138c0.1615-0.06,0.3185-0.13,0.4938-0.1c0.2915,0.05,0.4931,0.2038,0.6977,0.3908c0.1423,0.1285,0.3108,0.2377,0.4454,0.3438c0.6169,0.4854,1.4777,0.4208,1.79,0.2923l0.2323-0.0992c0.09-0.0162,0.3131-0.14,0.5162-0.3262c0.1515-0.14,0.2838-0.3238,0.3838-0.47c0.0515-0.0754,0.12-0.1292,0.16-0.1746c0.1477-0.1715,0.3577-0.2446,0.4908-0.29c0.1569-0.0531,0.1823-0.0392,0.2731-0.02c0.0715,0.0146,0.1654,0.0238,0.2723,0.1223c0.0777,0.0715,0.1338,0.2769,0.1138,0.4154c-0.0162,0.1169-0.0031,0.1346-0.0138,0.1962c-0.0092,0.0554-0.03,0.1992-0.0069,0.1823c0.0854-0.06,0.3554-0.5485,0.4238-1.0269C23.2969,14.7823,23.2446,14.2431,22.9308,13.7454z M15.8385,11.86l0.0423,0.5077l0.4915,0.1362l-0.0131,0.0054l-0.4569,0.1923l0.0223,0.51l-0.3331-0.3862l-0.4777,0.1777l0.0069-0.0123l0.2569-0.4231l-0.3162-0.3992l0.0131,0.0031l0.4823,0.1131L15.8385,11.86z M12.3162,14.9831l0.0623,0.4915l0.4962,0.1162l-0.0131,0.0062l-0.4485,0.2108l0.0431,0.5077l-0.01-0.0108l-0.3385-0.3608l-0.47,0.1977l0.0069-0.0123l0.2385-0.4338L11.55,15.3092l0.5015,0.0962l0.2631-0.4362L12.3162,14.9831z M20.2762,14.8354l-0.0131,0.0062l-0.4523,0.2015l0.0323,0.5085l-0.01-0.01l-0.3315-0.3685l-0.4731,0.1892l0.0062-0.0123l0.2485-0.4292l-0.3254-0.3923l0.0131,0.0031l0.4854,0.1023l0.2715-0.4308l0.0538,0.5069L20.2762,14.8354z M14.2454,19.1308l0.0654,0.4923l0.4969,0.1123l-0.0123,0.0062l-0.4477,0.2146l0.0462,0.5069l-0.01-0.0108l-0.3408-0.3592l-0.4685,0.2008l0.0069-0.0123l0.2354-0.4362l-0.3346-0.3838l0.0138,0.0031l0.4862,0.09l0.2615-0.4369L14.2454,19.1308z M18.6892,18.7408l0.0354,0.4954l0.4892,0.1431L19.2,19.3838l-0.4585,0.1869l0.0138,0.5092l-0.0092-0.0115l-0.3177-0.3792l-0.4792,0.1723l0.0069-0.0115l0.2623-0.4208l-0.3115-0.4031l0.0138,0.0031l0.4808,0.12l0.2869-0.4223L18.6892,18.7408z" />
</svg>