<svg width="32" height="32" viewBox="0 0 32 32" xmlns="http://www.w3.org/2000/svg">
  <polygon fill="#f4f4f4" points="2,12.75 3,11.75 29,11.75 30,12.75 30,19.25 29,20.25 3,20.25 2,19.25" />
  <rect fill="#44911B" x="2" y="6" width="28" height="6.75" />
  <rect fill="#F8312F" x="2" y="19.25" width="28" height="6.75" />
  <polygon opacity=".5" fill="#f4f4f4" points="2,11.5 30,11.5 30,12.75 29,13.75 3,13.75 2,12.75" />
  <polygon opacity=".5" fill="#f4f4f4" points="2,20.5 30,20.5 30,19.25 29,18.25 3,18.25 2,19.25" />
  <path fill="#F8312F" d="M16.3881,17.8873c0.3023,0.1099,0.6227,0.1671,0.948,0.1514c-0.3839,0.1247-0.7746,0.13-1.143,0.052l-0.0035,0.0858L16,18.4375l-0.1896-0.261l-0.0035-0.0858c-0.3684,0.078-0.7592,0.0727-1.143-0.052c0.3253,0.0157,0.6456-0.0414,0.948-0.1514c-0.4933-0.2606-0.891-0.7035-1.077-1.276c-0.277-0.8523-0.015-1.7876,0.6643-2.3721c-0.7368,1.0903-0.4675,2.5577,0.5865,3.3275l-0.0734-1.8115v-1.4327C15.827,14.2675,15.926,14.1844,16,14.081c0.074,0.1035,0.173,0.1865,0.2877,0.2415v1.4327l-0.0734,1.8115c1.054-0.7698,1.3232-2.2372,0.5865-3.3275c0.6793,0.5845,0.9413,1.5198,0.6643,2.3721C17.2791,17.1838,16.8814,17.6267,16.3881,17.8873z M18.1876,15.0682c-0.2523-0.4365-0.6708-0.7521-1.1599-0.8746c1.076,0.809,1.2925,2.3371,0.4835,3.4131c-0.0013,0.0018-0.0027,0.0036-0.0041,0.0054C18.3976,17.0976,18.7022,15.9586,18.1876,15.0682z M14.9722,14.1937c-0.4891,0.1225-0.9075,0.438-1.1599,0.8746c-0.5146,0.8904-0.21,2.0294,0.6804,2.5439c-0.0013-0.0018-0.0027-0.0036-0.0041-0.0054C13.6797,16.5308,13.8962,15.0027,14.9722,14.1937z M16,13.9739c0.1118,0.1589,0.3312,0.1971,0.4901,0.0853c0.1332-0.0938,0.1847-0.2667,0.1243-0.418c-0.0341,0.1804-0.2079,0.2991-0.3884,0.265c-0.095-0.0179-0.1776-0.0764-0.226-0.16c-0.0485,0.0837-0.131,0.1421-0.226,0.16c-0.1805,0.0341-0.3544-0.0846-0.3884-0.265c-0.0604,0.1513-0.0089,0.3243,0.1243,0.418C15.6688,14.171,15.8882,14.1328,16,13.9739z" />
</svg>