<svg xmlns="http://www.w3.org/2000/svg" width="32" height="32" viewBox="0 0 32 32">
  <polygon fill="#062365" points="2 6 30 6 23 16 30 26 2 26" />
  <polygon fill="#CF0828" points="2 16 30 26 30 25 23 16 30 7 30 6" />
  <polygon fill="#F4F4F4" points="30 7 4.8 16 30 25" />
  <path fill="#D3883E" d="M19.111 17.195s.597.094.847 0c.251-.094.565-.188.565-.188l.47.502.189-.47.345.093-.032.157s.282.095.282.126c0 .03-.03.282-.03.282l.877.22.157-.345s.565.501.785.533c.219.031.878 0 1.004.094.125.095.407.282.407.282s2.228.502 2.228.534c0 .031-.031.219-.22.188-.188-.031-3.074-.597-3.451-.722-.377-.125-.941.125-.941.125v-.345l-.973-.282-.094.251h-.251l-.094.22-.345-.094.062-.471s-.281-.032-.406.063c-.126.094-.314.188-.314.188s-.188-.345-.471-.534a34.404 34.404 0 01-.596-.407zm3.2 1.663s4.204.345 4.456.376c.25.032.25.251 0 .282-.251.032-4.456-.313-4.456-.313s-.188.188-.188.251c0 .062 1.663.094 1.663.094l-.157.156s.66.032.91-.03c.25-.064.282-.251.314-.189.03.063-.188.314-.125.314.062 0 .752-.063.752-.063l-.502.25.754.283s-.377.094-.535.094c-.156 0-.407-.063-.407-.063s.251.345.44.408c0 0-.628-.157-.723-.251-.094-.094.188.47-.376-.031-.565-.503-.565-.25-.565-.25l.188.313s-.47 0-.785-.189c-.314-.188-.69-.282-.972-.376s-.533-.188-.753-.313c-.22-.126-.691-.408-.597-.69.094-.283.47-.189.47-.189s.251-.063.44-.031c.188.031.313-.22.502-.126.19.095.252.283.252.283z" />
  <path fill="#76858f" d="M28.752 15.756l-2.17-.362v-.05l.034-1.422.071.018c.179.044.56.064 1.355-.095.066-.014.128-.028.185-.042.225-.053.405-.096.525.027.088.086.112.152.116.196.065.038.184.121.184.22v.08c.048.092.093.247.008.345.02.071.053.222-.004.333a.22.22 0 01-.08.087c.024.061.049.158.009.237a.191.191 0 01-.134.099l-.099.329z" />
  <path fill="#f4f4f4" d="M26.7 15.295l1.97.328.091-.301.037-.005c.066-.008.079-.034.083-.043.025-.05-.012-.146-.033-.184l-.036-.065.071-.02a.102.102 0 00.068-.054c.042-.082.005-.228-.013-.277l-.015-.041.035-.026c.081-.061-.015-.236-.017-.238l-.008-.013v-.11c0-.033-.081-.099-.154-.136l-.052-.026.025-.051c-.002 0-.003-.042-.083-.122-.072-.073-.199-.047-.415.005l-.19.042c-.603.122-1.053.158-1.336.109l-.028 1.228z" />
  <path fill="#F9C23C" d="M24.444 17.415c-.012.029-.25.628-.376.722-.125.094-.408.313-.533.344-.125.032-.125.157-.125.157s-.282.157-.377.22c-.094.063-.188.063.063.094.25.03.314.063.314.063s-.188.187-.125.282c.062.093.316.11.627.187.25.063.503-.03.503-.125s-.063-.344-.063-.313c0 .03.188-.094.376-.188s.282-.314.22-.472c-.063-.156 0-.407.156-.69.157-.282-.031-.627-.188-.66-.157-.029-.409.222-.472.379zM20.397 16.537s.66.219.879-.22c.219-.44-.533-.596-.816-.44-.282.158-.503.44-.47.66.031.219.313.314.313.314l.094-.314z" />
  <path fill="#994908" d="M21.997 14.78c.283-.188.534-.565.534-.565s-.094-.126-.439.031c-.344.157-.785.345-.973.126-.288-.338.133-.762.47-.879 1.005-.344-.407-.72.786-1.254.5-.224 1.474-.377 1.663-.471s.47-.44.47-.408c0 .032.031.252.031.252s.691-.189.91-.283c.22-.094.408-.344.408-.344l.062.219s.565-.063.785-.22c.22-.156.376-.03.376-.03s.628-.157.878-.283c.252-.125.597-.188.534.032-.062.22-.439 1.318-.597 1.538-.156.22-.125.565-.313.722-.187.157-1.474.878-1.474.878s.628.03.879.126c.25.094.125.407.125.407s.063.126.063.25c0 .127-.157.158-.157.158s.157.063.125.188c-.03.126-.313.126-.25.126s.313.25.282.345c-.032.094-.533-.125-.754-.062a.4.4 0 00.22.25c.188.095.188.158.032.252-.157.094-.314.22-.157.22s.219.093.125.156.376 0 .094.22c-.282.22-.345.22-.345.22s.283.344.157.376c-.126.031-.534-.189-.534-.189s.094.314.251.408c0 0-.345.219-.533-.031 0 0 .03.345.125.439 0 0-.188.031-.345-.094 0 0-.126.25-.063.407l-.313-.502-.44-.124-.25.438s-.157-.314-.125-.596c.031-.282 0-.69-.032-.847-.031-.157-.408-.596-.721-.66-.314-.062-.91-.062-.91-.062l-.723-.879" />
  <path fill="#76858f" d="M21.297 16.375h-.844l-.185-.444.021-.027a.833.833 0 00.147-.29l.012-.08c.015-.111.028-.215.214-.277.18-.06.943-.425 1.216-.561.238-.12.605-.547.609-.551l.168-.197-.136.502c.32-.07.408-.037.437.032.028.061-.019.135-.092.207.145-.014.222.01.247.071.027.064-.023.139-.092.205h.007c.19 0 .277.033.295.103.017.071-.054.151-.212.241.096.022.173.063.173.142 0 .159-.372.278-.716.296-.54.03-1.246.608-1.252.615l-.017.013z" />
  <path fill="#f4f4f4" d="M20.53 16.258h.725c.114-.092.767-.597 1.305-.627.36-.02.589-.137.605-.18-.006 0-.05-.038-.26-.048l-.244-.013.223-.099c.144-.064.28-.147.316-.19-.028-.01-.11-.028-.352-.012l-.213.015.177-.121a.693.693 0 00.188-.174c-.023-.008-.101-.018-.332.028l-.281.056.237-.161a.862.862 0 00.22-.2c-.03-.007-.125-.012-.393.053l-.096.024.056-.208c-.135.14-.327.323-.481.4-.228.114-1.032.502-1.232.568-.116.039-.12.077-.134.18-.004.027-.008.057-.015.089a.894.894 0 01-.147.31l.129.31z" />
  <path fill="#1c1c1c" d="M21.073 15.626c.03.06-.016.145-.104.188-.087.044-.183.03-.213-.03s.016-.144.104-.188c.087-.044.183-.03.213.03z" />
</svg>