<svg xmlns="http://www.w3.org/2000/svg" width="32" height="32" viewBox="0 0 32 32">
  <polygon fill="#cf0828" points="2,6 30,6 30,16 29,17 3,17 2,16" />
  <rect fill="#1c1c1c" width="28" height="10" x="2" y="16" />
  <path fill="#FCD53F" d="M21.25,16L21.257,15.004L20.422,15.01C20.391,14.694 20.328,14.383 20.235,14.079L20.982,13.78L20.646,12.843L19.841,13.163C19.705,12.916 19.547,12.682 19.369,12.463L19.906,11.85L19.142,11.21L18.661,11.757C18.422,11.563 18.166,11.393 17.896,11.248L18.246,10.505L17.312,10.153L16.972,10.873C16.695,10.792 16.41,10.737 16.123,10.708L16.017,11.744C17.937,11.942 19.437,13.544 19.437,15.514C19.435,16.626 18.942,17.683 18.091,18.4L18.516,18.694L19.566,19.475L19.975,19.031L19.334,18.555C19.528,18.322 19.7,18.073 19.848,17.806L20.622,18.12L21.006,17.2L20.236,16.888C20.322,16.605 20.387,16.311 20.419,16.007L21.251,16.001L21.25,16ZM17.459,19.939L17.142,19.324L16.749,19.137C16.387,19.255 16.009,19.318 15.628,19.324C14.706,19.324 13.872,18.984 13.213,18.44L12.573,19.193C12.81,19.389 13.07,19.557 13.342,19.704L12.998,20.442L13.917,20.829L14.263,20.081C14.529,20.161 14.803,20.217 15.085,20.25L15.08,21.027L16.076,21.016L16.082,20.276C16.392,20.247 16.695,20.189 16.985,20.103L17.25,20.867L17.78,20.711L17.448,19.943L17.458,19.939L17.459,19.939Z" />
  <path fill="#FCD53F" d="M14.651,15.007L15.579,14.52L16.506,15.007L16.328,13.974L17.078,13.243L16.042,13.092L15.579,12.153L15.115,13.092L14.077,13.243L14.828,13.974L14.651,15.007Z" style="fill:#fcd53f;fill-rule:nonzero;"/>
  <path fill="#FCD53F" d="M19.834,19.962C19.689,20.167 19.537,20.367 19.377,20.562C19.617,20.598 20.23,20.899 20.543,21.547C20.855,22.197 21.421,21.86 21.373,21.511C21.325,21.162 20.639,20.406 19.833,19.961L19.834,19.962ZM20.044,20.634C19.968,20.634 19.906,20.571 19.906,20.495C19.906,20.419 19.968,20.357 20.044,20.357C20.12,20.357 20.183,20.419 20.183,20.495C20.183,20.571 20.12,20.634 20.044,20.634ZM20.814,21.404C20.738,21.404 20.676,21.341 20.676,21.265C20.676,21.189 20.738,21.127 20.814,21.127C20.89,21.127 20.953,21.189 20.953,21.265C20.953,21.341 20.89,21.404 20.814,21.404ZM19.468,20.152C19.391,20.249 19.308,20.35 19.222,20.442C18.921,20.202 16.169,18.507 15.267,18.051C14.365,17.594 13.549,16.801 13.549,16.043C13.548,15.285 13.812,14.876 13.812,14.876C14.077,15.309 16.252,17.581 18.368,18.903C18.644,19.083 19.402,19.661 19.69,19.864L19.609,19.969L15.98,17.497C15.961,17.485 15.938,17.478 15.915,17.478C15.877,17.478 15.841,17.497 15.82,17.528C15.785,17.581 15.798,17.653 15.85,17.688L19.468,20.151Z" />
</svg>