<?xml version="1.0" encoding="UTF-8"?>
<svg xmlns="http://www.w3.org/2000/svg" xmlns:xlink="http://www.w3.org/1999/xlink" width="32px" height="32px" viewBox="0 0 32 32" version="1.1">
  <path fill="#00a6ed" d="M 6 6 L 26 6 L 26 26 L 6 26 Z M 6 6 "/>
  <path fill="#f4f4f4" d="M 20.167969 9.890625 C 19.398438 9.890625 18.777344 10.511719 18.777344 11.277344 L 18.777344 14.332031 L 13.222656 14.332031 L 13.222656 11.277344 C 13.222656 10.511719 12.601562 9.890625 11.832031 9.890625 C 11.066406 9.890625 10.445312 10.511719 10.445312 11.277344 L 10.445312 20.722656 C 10.445312 21.488281 11.066406 22.109375 11.832031 22.109375 C 12.601562 22.109375 13.222656 21.488281 13.222656 20.722656 L 13.222656 17.109375 L 18.777344 17.109375 L 18.777344 20.722656 C 18.777344 21.488281 19.398438 22.109375 20.167969 22.109375 C 20.933594 22.109375 21.554688 21.488281 21.554688 20.722656 L 21.554688 11.277344 C 21.554688 10.511719 20.933594 9.890625 20.167969 9.890625 Z M 20.167969 9.890625 "/>
</svg>
