<svg width="32" height="32" viewBox="0 0 32 32" xmlns="http://www.w3.org/2000/svg">
  <polygon fill="#0065a3" points="2,6 10,6 13,7 16,6 30,6 30,13 29,16 30,19 30,26 16,26 13,25 10,26 2,26 2,19 3,16 2,13" />
  <polygon fill="#FCD53F" points="30,19 2,19 2,17.25 3,16 2,14.75 2,13 30,13 30,14.75 29,16 30,17.25" />
  <polygon fill="#FCD53F" points="16,26 14.25,26 13,25 11.75,26 10,26 10,6 11.75,6 13,7 14.25,6 16,6" />
  <rect fill="#CF0828" x="2" y="14.75" width="28" height="2.5" />
  <rect fill="#CF0828" x="11.75" y="6" width="2.5" height="20" />
</svg>