<svg width="32" height="32" viewBox="0 0 32 32" xmlns="http://www.w3.org/2000/svg">
  <polygon fill="#1c1c1c" points="2,6 30,6 30,12.75 29,13.75 6,13.75" />
  <polygon fill="#01773f" points="2,26 30,26 30,19.25 29,18.25 6,18.25" />
  <rect fill="#f4f4f4" x="6" y="12.75" width="24" height="6.5" />
  <polygon fill="#CF0828" points="2,6 16,16 2,26" />
  <path fill="#f4f4f4" d="M7.252,17.029L8.064,17.78L7.983,16.676L9.077,16.509L8.164,15.885L8.715,14.925L7.658,15.249L7.252,14.22L6.845,15.249L5.788,14.925L6.338,15.885L5.426,16.509L6.519,16.676L6.439,17.78L7.252,17.029Z" />
</svg>
