<svg width="32" height="32" viewBox="0 0 32 32" xmlns="http://www.w3.org/2000/svg">
  <polygon fill="#01773f" points="2,6 16,6 17,7 17,25 16,26 2,26" />
  <rect fill="#f4f4f4" x="16" y="6" width="14" height="20" />
  <path fill="#CF0828" d="M20.3301,18.5c-0.4388,0.7601-1.0701,1.3913-1.8301,1.8301c-2.3915,1.3807-5.4494,0.5613-6.8301-1.8301c-1.3807-2.3915-0.5613-5.4494,1.8301-6.8301c2.3915-1.3807,5.4494-0.5613,6.8301,1.8301c-0.184-0.2298-0.3928-0.4385-0.6225-0.6225c-1.7245-1.3807-4.2418-1.102-5.6225,0.6225c-1.3807,1.7245-1.1021,4.2418,0.6225,5.6225C16.4321,20.5032,18.9494,20.2245,20.3301,18.5z M17.7275,16.9082l1.0676,1.4694v-1.8163L20.5225,16l-1.7274-0.5613v-1.8163l-1.0676,1.4694L16,14.5305L17.0676,16L16,17.4695L17.7275,16.9082z" />
</svg>