<svg width="32" height="32" viewBox="0 0 32 32" xmlns="http://www.w3.org/2000/svg">
  <polygon fill="#f4f4f4" points="2,6 14,6 16,7 18,6 30,6 30,14 29,16 30,18 30,26 18,26 16,25 14,26 2,26 2,18 3,16 2,14" />
  <rect fill="#F8312F" x="2" y="14" width="28" height="4" />
  <rect fill="#F8312F" x="14" y="6" width="4" height="20" />
  <path fill="#F8312F" d="M10.0459,10.702c-0.4992-0.0996-1.011-0.164-1.5332-0.1893c0.0254,0.5222,0.0897,1.034,0.1893,1.5332C8.4722,12.016,8.238,12,8,12s-0.4722,0.016-0.702,0.0459c0.0996-0.4992,0.164-1.011,0.1893-1.5332c-0.5222,0.0254-1.034,0.0897-1.5332,0.1893C5.984,10.4722,6,10.238,6,10S5.984,9.5278,5.9541,9.298c0.4992,0.0996,1.011,0.164,1.5332,0.1893C7.462,8.9651,7.3976,8.4533,7.298,7.9541C7.5278,7.984,7.762,8,8,8s0.4722-0.016,0.702-0.0459c-0.0996,0.4992-0.164,1.011-0.1893,1.5332c0.5222-0.0254,1.034-0.0897,1.5332-0.1893C10.016,9.5278,10,9.762,10,10S10.016,10.4722,10.0459,10.702z M10,22c0-0.238,0.016-0.4722,0.0459-0.702c-0.4992,0.0996-1.011,0.164-1.5332,0.1893c0.0254-0.5222,0.0897-1.034,0.1893-1.5332C8.4722,19.984,8.238,20,8,20s-0.4722-0.016-0.702-0.0459c0.0996,0.4992,0.164,1.011,0.1893,1.5332c-0.5222-0.0254-1.034-0.0897-1.5332-0.1893C5.984,21.5278,6,21.762,6,22s-0.016,0.4722-0.0459,0.702c0.4992-0.0996,1.011-0.164,1.5332-0.1893c-0.0254,0.5222-0.0897,1.034-0.1893,1.5332C7.5278,24.016,7.762,24,8,24s0.4722,0.016,0.702,0.0459c-0.0996-0.4992-0.164-1.011-0.1893-1.5332c0.5222,0.0254,1.034,0.0897,1.5332,0.1893C10.016,22.4722,10,22.238,10,22z M26,10c0-0.238,0.016-0.4722,0.0459-0.702c-0.4992,0.0996-1.011,0.164-1.5332,0.1893c0.0254-0.5222,0.0897-1.034,0.1893-1.5332C24.4722,7.984,24.238,8,24,8s-0.4722-0.016-0.702-0.0459c0.0996,0.4992,0.164,1.011,0.1893,1.5332c-0.5222-0.0254-1.034-0.0897-1.5332-0.1893C21.984,9.5278,22,9.762,22,10s-0.016,0.4722-0.0459,0.702c0.4992-0.0996,1.011-0.164,1.5332-0.1893c-0.0254,0.5222-0.0897,1.034-0.1893,1.5332C23.5278,12.016,23.762,12,24,12s0.4722,0.016,0.702,0.0459c-0.0996-0.4992-0.164-1.011-0.1893-1.5332c0.5222,0.0254,1.034,0.0897,1.5332,0.1893C26.016,10.4722,26,10.238,26,10z M26,22c0-0.238,0.016-0.4722,0.0459-0.702c-0.4992,0.0996-1.011,0.164-1.5332,0.1893c0.0254-0.5222,0.0897-1.034,0.1893-1.5332C24.4722,19.984,24.238,20,24,20s-0.4722-0.016-0.702-0.0459c0.0996,0.4992,0.164,1.011,0.1893,1.5332c-0.5222-0.0254-1.034-0.0897-1.5332-0.1893C21.984,21.5278,22,21.762,22,22s-0.016,0.4722-0.0459,0.702c0.4992-0.0996,1.011-0.164,1.5332-0.1893c-0.0254,0.5222-0.0897,1.034-0.1893,1.5332C23.5278,24.016,23.762,24,24,24s0.4722,0.016,0.702,0.0459c-0.0996-0.4992-0.164-1.011-0.1893-1.5332c0.5222,0.0254,1.034,0.0897,1.5332,0.1893C26.016,22.4722,26,22.238,26,22z" />
</svg>