<svg width="32" height="32" viewBox="0 0 32 32" xmlns="http://www.w3.org/2000/svg">
  <polygon fill="#007ACF" points="11.5,6 20.5,6 21.5,7 21.5,25 20.5,26 11.5,26 10.5,25 10.5,7" />
  <rect fill="#F4F4F4" x="2" y="6" width="9.5" height="20" />
  <rect fill="#FDBB11" x="20.5" y="6" width="9.5" height="20" />
  <path fill="#D3883E" d="M18.2717,14.725c-0.2085-0.2175-0.4605,0-0.5715-0.066c-0.1095-0.066-0.252-0.1155-0.2407,0.1155s0.1868,0.3375,0.2857,0.4147c0.099,0.0773,0.0443,0.306,0.0443,0.306s-0.165-0.1875-0.231-0.3082c-0.066-0.1207-0.1207-0.231-0.2415-0.231c-0.1208,0-0.2415,0.1643-0.165,0.2302c0.0773,0.066,0.3518,0.132,0.3518,0.3075c0,0.1755,0.1095,0.3517,0.1095,0.3517l-0.033,0.1207c0,0-0.1095-0.0547-0.1425-0.1207s0.033-0.2745-0.1207-0.2745c-0.1538,0-0.198,0.3405-0.099,0.3953c0.099,0.0548,0.3848,0.3735,0.3848,0.3735s0.12,0.2303,0.3068,0.3405c0.1868,0.1095,0.429,0.3517,0.429,0.3517s-0.3187,0.231-0.3405,0.3735c-0.0217,0.1418,0.1095,0.1973,0.0983,0.3188c-0.0112,0.12-0.153,0.0585-0.2738,0.1245c-0.1215,0.066,0.0023,0.234,0.0023,0.234h0.33l0.1627-0.3037v-0.2205l0.348-0.0773c0,0-0.0315,0.132,0.0345,0.2085c0.066,0.078,0.3195,0.1868,0.3195,0.3735c0,0.1867-0.0983,0.1927-0.2085,0.2032c-0.1095,0.012-0.1642,0.1395-0.1642,0.1395h0.429c0,0,0.12-0.2812,0.1868-0.4125c0.0653-0.1327,0.021-0.2235-0.0555-0.2572c-0.0773-0.033-0.153-0.2048-0.1313-0.3472c0,0,0.153,0.123,0.3293,0.09c0.1755-0.033,0.3292-0.1807,0.3405-0.3668c0.0112-0.1875,0-0.3713-0.1755-0.4365c-0.1755-0.0652-0.1418,0.123-0.0773,0.177c0.066,0.0547,0.066,0.297-0.0217,0.3525c-0.0877,0.0555-0.2302,0.1215-0.2745-0.0322c-0.0442-0.1537-0.1395-0.3945-0.327-0.4605c-0.1868-0.066-0.4418-0.4837-0.4305-0.78C18.448,15.637,18.5245,14.9882,18.2717,14.725z M13.726,14.725c0.2085-0.2175,0.4612,0,0.5707-0.066c0.1095-0.066,0.2528-0.1155,0.2415,0.1155c-0.0112,0.231-0.1867,0.3375-0.285,0.4147c-0.099,0.0773-0.0443,0.306-0.0443,0.306s0.165-0.1875,0.231-0.3082c0.066-0.1207,0.1207-0.231,0.2415-0.231c0.1208,0,0.2415,0.1643,0.165,0.2302c-0.0773,0.066-0.3517,0.132-0.3517,0.3075c0,0.1755-0.1095,0.3517-0.1095,0.3517l0.033,0.1207c0,0,0.1095-0.0547,0.1425-0.1207c0.033-0.066-0.033-0.2745,0.1207-0.2745c0.1538,0,0.198,0.3405,0.099,0.3953c-0.099,0.0548-0.3848,0.3735-0.3848,0.3735s-0.1208,0.2303-0.3075,0.3405C13.9015,16.7897,13.66,17.032,13.66,17.032s0.3188,0.231,0.3405,0.3735c0.0218,0.1418-0.1095,0.1973-0.099,0.3188c0.0113,0.12,0.1538,0.0585,0.2745,0.1245c0.1208,0.066,0.0885,0.2302,0.0885,0.2302h-0.3307l-0.252-0.2993v-0.2205l-0.342-0.0773c0,0,0.0285,0.132-0.0375,0.2085c-0.066,0.078-0.321,0.1868-0.321,0.3735c0,0.1868,0.0975,0.1928,0.2078,0.2033c0.1095,0.012,0.1635,0.1395,0.1635,0.1395h-0.4283c0,0-0.1215-0.2812-0.1867-0.4125c-0.066-0.1327-0.0225-0.2235,0.0547-0.2572c0.0765-0.033,0.1538-0.2048,0.132-0.3472c0,0-0.1538,0.123-0.3293,0.09c-0.1755-0.033-0.3293-0.1807-0.3405-0.3667c-0.0113-0.1875,0-0.3713,0.1755-0.4365c0.1755-0.0653,0.1432,0.123,0.0772,0.177c-0.066,0.0548-0.066,0.297,0.0218,0.3525c0.0877,0.0555,0.231,0.1215,0.2745-0.0322c0.0443-0.1538,0.1395-0.3945,0.327-0.4605c0.1868-0.066,0.4418-0.4838,0.4313-0.78C13.5497,15.637,13.4732,14.9882,13.726,14.725z" />
  <path fill="#A56953" d="M18.4255,15.4338c-0.1597,0.027-0.4163,0.0068-0.6038-0.0052c-0.066-0.0037-0.0915,0.1868-0.0442,0.198c0.147,0.0337,0.5347,0.057,0.6562-0.0135C18.4795,15.586,18.4967,15.4218,18.4255,15.4338z" />
  <path fill="#1c1c1c" d="M17.638,14.6268c0,0-0.0645,0.0982-0.1793,0.1155c0,0-0.0128-0.093,0.054-0.129C17.5802,14.5772,17.638,14.6267,17.638,14.6268z M17.9035,14.791c-0.096-0.0195-0.1702,0.0382-0.0772,0.0712C17.9207,14.8953,17.9635,14.803,17.9035,14.791z M18.316,15.016c0,0-0.0112,0.351-0.2025,0.3457c-0.1927-0.0052-0.1155-0.3015,0-0.4282c0,0-0.1387,0.3525-0.012,0.3623C18.2282,15.307,18.316,15.016,18.316,15.016z" />
  <path fill="#A56953" d="M13.5715,15.4338c0.1597,0.027,0.4163,0.0068,0.6045-0.0052c0.066-0.0037,0.0915,0.1868,0.0435,0.198c-0.147,0.0337-0.534,0.057-0.6562-0.0135C13.5175,15.586,13.5002,15.4218,13.5715,15.4338z" />
  <path fill="#1c1c1c" d="M14.3597,14.6268c0,0,0.0638,0.0982,0.1793,0.1155c0,0,0.0127-0.093-0.054-0.129C14.4175,14.5772,14.3598,14.6267,14.3597,14.6268z M14.0935,14.791c0.0968-0.0195,0.1702,0.0382,0.0772,0.0712C14.077,14.8953,14.0335,14.803,14.0935,14.791z M13.6818,15.016c0,0,0.0113,0.351,0.2032,0.3457c0.192-0.0052,0.1155-0.3015,0-0.4282c0,0,0.138,0.3525,0.0113,0.3623C13.7688,15.307,13.6818,15.016,13.6818,15.016z" />
  <path fill="#FDBB11" d="M16.564,13.8535c0,0-0.222-0.2137-0.462-0.159L16.0502,13.66l0.0045-0.2347h-0.1095l0.0052,0.2347l-0.0518,0.0345c-0.2393-0.054-0.462,0.159-0.462,0.159c-0.3563-0.1425-0.6998,0.0922-0.6998,0.363s0.2055,0.393,0.249,0.4403c0.0443,0.048,0.2805,0.6353,0.2805,0.6353h1.4663c0,0,0.237-0.5873,0.2812-0.6353c0.0443-0.0472,0.249-0.1702,0.249-0.4403C17.2638,13.9457,16.9202,13.7102,16.564,13.8535z" />
  <path fill="#E71A43" d="M15.8575,14.0883v0.1755l-0.1222,0.1365c0,0-0.1185,0.0105-0.1733-0.03c-0.054-0.0413-0.102-0.1395-0.102-0.1395s0.1252-0.0848,0.1987-0.1058C15.7322,14.1048,15.8575,14.0883,15.8575,14.0883z M15.4165,14.2885c0,0-0.0203,0.1425-0.126,0.18c-0.105,0.0375-0.21,0.0203-0.21,0.0203s0.027-0.0743,0.1147-0.1357C15.2837,14.2923,15.4165,14.2885,15.4165,14.2885z M16.1215,14.0883v0.1755l0.1327,0.1365c0,0,0.1245,0.0105,0.1785-0.03c0.054-0.0413,0.1042-0.1395,0.1042-0.1395s-0.135-0.0848-0.2078-0.1058C16.2565,14.1048,16.1215,14.0883,16.1215,14.0883z M16.5842,14.2885c0,0,0.0203,0.1425,0.1252,0.18c0.1058,0.0375,0.2108,0.0203,0.2108,0.0203s-0.027-0.0743-0.1155-0.1357C16.717,14.2923,16.5842,14.2885,16.5842,14.2885z" />
  <path fill="#007ACF" d="M15.6265,13.9352c0.1095-0.0262,0.231,0,0.231,0s-0.0022,0.1553-0.1455,0.1778c-0.1425,0.0225-0.2002-0.042-0.2002-0.042S15.5417,13.9555,15.6265,13.9352z M14.9492,14.2308c-0.039-0.1875,0.219-0.2565,0.348-0.1132c0,0,0.0255,0.1942-0.126,0.2535C15.019,14.431,14.965,14.305,14.9492,14.2308z M15.2995,13.969c0.0322-0.072,0.1777-0.006,0.1343,0.0712C15.3887,14.119,15.2432,14.092,15.2995,13.969z M15.334,14.1528c0.0682-0.0713,0.1702,0.0705,0.0863,0.108C15.3355,14.299,15.2815,14.2067,15.334,14.1528z M16.3735,13.9352c-0.1088-0.0262-0.2302,0-0.2302,0s0.0022,0.1553,0.1455,0.1778c0.1425,0.0225,0.201-0.042,0.201-0.042S16.459,13.9555,16.3735,13.9352z M17.0507,14.2308c0.039-0.1875-0.219-0.2565-0.348-0.1132c0,0-0.0255,0.1942,0.1268,0.2535C16.981,14.431,17.0357,14.305,17.0507,14.2308z M16.7012,13.969c-0.033-0.072-0.1777-0.006-0.1343,0.0712C16.6112,14.119,16.7582,14.092,16.7012,13.969z M16.6697,14.1528c-0.0675-0.0713-0.1695,0.0705-0.0855,0.108C16.6682,14.299,16.7222,14.2067,16.6697,14.1528z" />
  <path fill="#E71A43"
    d="M15.2672,15.187c0-0.1395,0.3232-0.2528,0.7222-0.2528s0.7222,0.1132,0.7222,0.2528s-0.3232,0.2528-0.7222,0.2528C15.5897,15.439,15.2672,15.3258,15.2672,15.187z" />
  <path fill="#020202"
    d="M16.0071,15.1405h-1.4055v2.2972c0,0.9053,1.4062,0.9053,1.4062,0.9053s1.3905,0,1.3905-0.9053v-2.2972H16.0071z" />
  <path fill="#4C86C7"
    d="M16.0064,15.2927h-1.2457v2.1458c0,0.7463,1.2457,0.735,1.2457,0.735s1.2458,0.0112,1.2458-0.735v-2.1458H16.0064z" />
  <path fill="#919da5"
    d="M17.7831,13.5535c0.1815-0.066,0.33-0.315,0.33-0.315s-0.2925,0.0367-0.4762,0s-0.3202-0.1687-0.3202-0.1687c0.1327-0.234-0.0848-0.3758-0.5018-0.4253c-0.3225-0.0375-0.807-0.051-0.807-0.051s-0.4927,0.0135-0.816,0.051c-0.4163,0.0487-0.6382,0.1905-0.5062,0.4253c0,0-0.1387,0.132-0.3225,0.1687c-0.1838,0.0367-0.4762,0-0.4762,0s0.147,0.249,0.3293,0.315c0,0-0.0518,0.1687-0.279,0.2047c0,0,0.4763,0.0803,0.8197-0.0652c0.3442-0.1462,0.5347-0.2708,0.5857-0.3225c0.0518-0.051-0.1357-0.168,0.003-0.183c0.1395-0.0142,0.6615-0.0292,0.6615-0.0292s0.5138,0.015,0.6533,0.0292c0.1395,0.015-0.0578,0.132-0.006,0.183c0.051,0.051,0.2415,0.1755,0.5858,0.3225c0.3442,0.1462,0.8197,0.0652,0.8197,0.0652C17.8349,13.7222,17.7831,13.5535,17.7831,13.5535z" />
  <path fill="#f4f4f4"
    d="M16.4256,17.9103h-0.849l0.4245-0.4253L16.4256,17.9103z M15.8106,16.5047h-0.8498l0.4253-0.4252L15.8106,16.5047z M15.8106,15.8455h-0.8498l0.4253-0.4245L15.8106,15.8455z M15.8106,17.2068h-0.8498l0.4253-0.4237L15.8106,17.2068z M16.9964,16.5047h-0.849l0.4245-0.4252L16.9964,16.5047z M16.9964,15.8455h-0.849l0.4245-0.4245L16.9964,15.8455z M16.9964,17.2068h-0.849l0.4245-0.4237L16.9964,17.2068z" />
</svg>