<svg width="32" height="32" viewBox="0 0 32 32" xmlns="http://www.w3.org/2000/svg">
  <polygon fill="#FCD53F" points="2,12.75 3,11.75 29,11.75 30,12.75 30,19.25 29,20.25 3,20.25 2,19.25" />
  <rect fill="#CF0828" x="2" y="6" width="28" height="6.75" />
  <rect fill="#028f4d" x="2" y="19.25" width="28" height="6.75" />
  <path fill="#f4f4f4" d="M12.6811,14.9177c0.0267,0.0403,0.2477,0.3575,0.2477,0.3575h0.3179l-0.13-0.1787L12.6811,14.9177z M13.1575,14.6005c0.0267,0.0396,0.2477,0.3575,0.2477,0.3575h0.3179l-0.13-0.1788C13.5931,14.7793,13.1575,14.6005,13.1575,14.6005z M13.6009,14.2014c0.0124,0.0462,0.1202,0.4179,0.1202,0.4179l0.3003,0.102l-0.065-0.2106L13.6009,14.2014z M19.3182,14.9177c-0.026,0.0403-0.2477,0.3575-0.2477,0.3575h-0.3179l0.1294-0.1787C18.8821,15.0965,19.3182,14.9177,19.3182,14.9177z M18.8418,14.6005c-0.026,0.0396-0.247,0.3575-0.247,0.3575H18.277l0.1293-0.1788C18.4063,14.7793,18.8418,14.6005,18.8418,14.6005z M18.3992,14.2014l-0.1203,0.4179l-0.3009,0.102l0.0656-0.2106C18.0436,14.5108,18.3992,14.2014,18.3992,14.2014z" />
  <path fill="#B76A1E" d="M13.3694,18.2737c-0.026,0.0137-0.0578,0.0033-0.0708-0.0234c-0.0136-0.026-0.0026-0.0585,0.0227-0.0708l1.6035-0.819c0.026-0.0137,0.0579-0.0033,0.0709,0.0221c0.0136,0.0266,0.0026,0.0585-0.0228,0.0715C14.973,17.4541,13.3694,18.2737,13.3694,18.2737z M13.6905,18.5701c-0.0247,0.0156-0.0572,0.0085-0.0734-0.0156c-0.0156-0.0234-0.0098-0.0572,0.0149-0.0735l1.5015-0.9925c0.0247-0.0163,0.0572-0.0104,0.0735,0.0143c0.0162,0.0247,0.0097,0.0565-0.015,0.0728C15.192,17.5756,13.6905,18.5701,13.6905,18.5701z M14.0155,18.8451c-0.0195,0.0215-0.0533,0.024-0.0747,0.0052c-0.0221-0.0195-0.024-0.0533-0.0045-0.0754l1.1902-1.3507c0.0195-0.0221,0.0526-0.0234,0.0747-0.0045s0.0241,0.052,0.0045,0.0741C15.2057,17.4937,14.0155,18.8451,14.0155,18.8451z M15.5762,17.7647l-0.3705,0.7677l-0.0663-0.0676l-0.1443,0.1995l-0.3919-0.2132l0.4868-0.9516L15.5762,17.7647z M18.6306,18.2737c0.026,0.0137,0.0585,0.0033,0.0709-0.0234c0.0136-0.026,0.0032-0.0585-0.0228-0.0708l-1.6029-0.819c-0.0266-0.0137-0.0578-0.0033-0.0715,0.0221c-0.0136,0.0266-0.0032,0.0585,0.0234,0.0715C17.0276,17.4541,18.6305,18.2737,18.6306,18.2737z M18.3095,18.5701c0.0247,0.0156,0.0579,0.0085,0.0735-0.0156c0.0162-0.0234,0.0097-0.0572-0.015-0.0735l-1.5008-0.9925c-0.0241-0.0163-0.0572-0.0104-0.0728,0.0143c-0.0163,0.0247-0.0098,0.0565,0.0143,0.0728C16.8086,17.5756,18.3095,18.5701,18.3095,18.5701z M17.9851,18.8451c0.0189,0.0215,0.0527,0.024,0.0741,0.0052c0.0221-0.0195,0.0241-0.0533,0.0052-0.0754l-1.1901-1.3507c-0.0182-0.0221-0.052-0.0234-0.0741-0.0045s-0.024,0.052-0.0052,0.0741C16.795,17.4937,17.9851,18.8451,17.9851,18.8451z M16.4238,17.7647l0.3705,0.7677l0.0663-0.0676l0.1443,0.1995l0.392-0.2132L16.91,17.4995L16.4238,17.7647z" />
  <path fill="#CF0828" d="M15.7355,18.9412L16,17.6848l-0.0273-1.0991l-1.9051-1.82l-0.1326,0.4173l-0.2645-0.2119l-0.0793,0.4368c0,0-0.3315-0.2379-0.3445-0.1982c-0.013,0.0396-0.0929,1.0062-0.1196,1.549c-0.026,0.5421-0.0481,1.3494,0.5427,1.456c1.0322,0.1852,1.7999-0.5824,1.7999-0.5824s0.2515,0.2386,0.2645,0.2782c0.013,0.0396-0.0929,0.5025-0.1326,0.6884C15.5632,18.7826,15.7355,18.9412,15.7355,18.9412z M16.2645,18.9412L16,17.6848l0.0273-1.0991l1.9051-1.82l0.1333,0.4173l0.2645-0.2119l0.0793,0.4368c0,0,0.3302-0.2379,0.3432-0.1982c0.0137,0.0396,0.0936,1.0062,0.1196,1.549c0.0267,0.5421,0.0488,1.3494-0.5421,1.456c-1.0329,0.1852-1.8005-0.5824-1.8005-0.5824s-0.2515,0.2386-0.2645,0.2782c-0.013,0.0396,0.0929,0.5025,0.1326,0.6884C16.4368,18.7826,16.2645,18.9412,16.2645,18.9412z" />
  <path fill="#FCD53F" d="M14.4108,15.1186l-0.1053,0.3023l-0.1723-0.0929c0,0-0.4387,2.2107,0.2769,2.3829c0.7157,0.1722,0.7956-0.1196,0.7956-0.1196l-0.3445-0.4628l-0.258,0.1189c0,0-0.1255-0.3419-0.1255-0.806c0-0.414,0.0663-0.8223,0.0663-0.8223l0.1313,0.0923l0.0273-0.3042C14.7026,15.4072,14.4107,15.1186,14.4108,15.1186z M17.5893,15.1186l0.1046,0.3023l0.1723-0.0929c0,0,0.4394,2.2107-0.2769,2.3829c-0.7157,0.1722-0.7956-0.1196-0.7956-0.1196l0.3438-0.4628l0.2587,0.1189c0,0,0.1248-0.3419,0.1248-0.806c0-0.414-0.0663-0.8223-0.0663-0.8223l-0.1313,0.0923l-0.0273-0.3042C17.2961,15.4072,17.5892,15.1186,17.5893,15.1186z" />
  <path fill="#028f4d" d="M15.1394,15.7783l-0.4368-0.3711l-0.0273,0.3042l-0.1709-0.1189c0,0-0.0949,0.3179-0.0936,0.728s0.054,0.8079,0.054,0.8079s0.3042,0.1053,0.4628,0C15.0868,17.0225,15.1394,15.7784,15.1394,15.7783z M16.8606,15.7783l0.4368-0.3711l0.0273,0.3042l0.171-0.1189c0,0,0.0949,0.3179,0.0936,0.728c-0.0013,0.4102-0.054,0.8079-0.054,0.8079s-0.3048,0.1053-0.4634,0C16.9126,17.0225,16.8606,15.7784,16.8606,15.7783z" />
  <path fill="#F1A11E" d="M14.9951,17.0224c-0.3439,0.1476-1.0471,0.4128-0.8619,0.7423c0.1859,0.3302,0.728,0.1983,1.0725-0.1735C15.5502,17.2207,14.9951,17.0224,14.9951,17.0224z M17.0049,17.0224c0.3438,0.1476,1.0465,0.4128,0.8612,0.7423c-0.1852,0.3302-0.728,0.1983-1.0718-0.1735C16.4498,17.2207,17.0049,17.0224,17.0049,17.0224z" />
  <path fill="#CF0828" d="M14.9151,14.5863c0.1111,0.1313,0.106,0.3178-0.0117,0.4173c-0.117,0.0995-0.3016,0.0735-0.4128-0.0579c-0.1105-0.1313-0.106-0.3179,0.0111-0.4173C14.6187,14.4289,14.804,14.4549,14.9151,14.5863z" />
  <path fill="#E6E6E6" d="M17.1375,14.5863c-0.1105,0.1313-0.1053,0.3178,0.0123,0.4173c0.1177,0.0995,0.3016,0.0735,0.4134-0.0579c0.1111-0.1313,0.1059-0.3179-0.0117-0.4173C17.4339,14.4289,17.2493,14.4549,17.1375,14.5863z" />
  <path fill="#028f4d" d="M16.715,13.0646c-0.0929,0.0663,0.1722,0.4895,0.1196,0.9529C16.7807,14.481,16,14.8514,16,14.8514s-0.7813-0.3705-0.834-0.834c-0.0533-0.4628,0.2119-0.8866,0.119-0.9529c-0.0929-0.0663-0.5824,0.3575-0.6084,0.8073c-0.0266,0.4498,0.429,1.1278,0.728,1.2577c0.299,0.13,0.5961,0.1983,0.5961,0.1983s0.2964-0.0689,0.596-0.1983c0.2997-0.13,0.7553-0.808,0.728-1.2577S16.8073,12.9983,16.715,13.0646z" />
  <path fill="#f4f4f4" d="M16,14.8384c0,0,0.0793-0.2782,0.5961-0.4368c0.5161-0.1593,1.0056-0.2782,1.1915-0.2912c0.1859-0.0136-0.7345-0.3705-0.9529-0.3972c-0.2184-0.026-0.4895,0.0267-0.5298,0.1859c-0.0396,0.1586-0.1059,0.106-0.3042,0.1326c-0.1989,0.026-0.3309-0.1593-0.4238-0.2912c-0.0923-0.1326-0.4439-0.0663-0.6156-0.0527c-0.1722,0.013-0.8274,0.4232-0.8274,0.4232s1.1388,0.1852,1.3767,0.3042c0.2379,0.1196,0.013,0.5427-0.0526,0.6624C15.3909,15.196,15.8511,15.0406,16,14.8384z" />
  <path fill="#1c1c1c" d="M16,14.8384c0,0,0.0793-0.2782,0.5961-0.4368c0.5161-0.1593,1.0056-0.2782,1.1915-0.2912c0.1859-0.0136-0.6747-0.2782-0.8938-0.3048c-0.2184-0.026-0.39-0.026-0.4296,0.1326c-0.0396,0.1586-0.2645,0.0663-0.4634,0.0929c-0.1989,0.026-0.4238-0.0396-0.5161-0.1722c-0.0929-0.1326-0.2515-0.0793-0.4238-0.0663c-0.1716,0.013-0.9262,0.3179-0.9262,0.3179s1.1388,0.1853,1.3767,0.3042c0.2379,0.1196,0.013,0.5427-0.0526,0.6623C15.391,15.1959,15.8512,15.0406,16,14.8384z" />
  <path fill="#00A6ED" d="M14.5836,16.4264c0-0.8554,0.6344-1.5483,1.4164-1.5483c0.7826,0,1.4164,0.6935,1.4164,1.5483c0,0.8554-0.6338,1.549-1.4164,1.549C15.2181,17.9753,14.5836,17.2824,14.5836,16.4264z" />
  <path fill="#F1A11E" d="M14.9606,16.4264c0-0.6721,0.4654-1.2174,1.0394-1.2174c0.574,0,1.0393,0.5454,1.0393,1.2174c0,0.6734-0.4654,1.2181-1.0393,1.2181S14.9607,17.0998,14.9606,16.4264z" />
  <path fill="#CF0828" d="M15.5502,15.8973c0-0.2483,0.2015-0.4498,0.4498-0.4498c0.2483,0,0.4498,0.2022,0.4498,0.4498c0,0.249-0.2015,0.4504-0.4498,0.4504C15.7517,16.3477,15.5502,16.1462,15.5502,15.8973z" />
  <path fill="#028f4d" d="M16,17.6445c0.5518,0,1.0036-0.5037,1.0374-1.1407c-0.3387-0.1255-0.8983-0.6065-1.0374-0.6065c-0.1456,0-0.3309,0.1593-0.5688,0.3705c-0.1222,0.1092-0.312,0.1969-0.4667,0.2568C15.0068,17.1512,15.454,17.6445,16,17.6445z" />
  <path fill="#F1A11E" d="M16.1326,14.1364c0,0.0663-0.1365,0.1196-0.3042,0.1196c-0.1684,0-0.3048-0.0533-0.3048-0.1196c0-0.0656,0.1365-0.1189,0.3048-0.1189C15.9961,14.0175,16.1326,14.0715,16.1326,14.1364z" />
  <path fill="#f4f4f4" d="M15.4702,17.0224h0.3179l0.0923-0.2645L16,16.9028l-0.1326,0.3842h-0.2912L15.4702,17.0224z" />
  <path fill="#B76A1E" d="M16.2775,17.2474c0,0.1241-0.0617,0.2255-0.1384,0.2255S16,17.3722,16,17.2474c0-0.1241,0.0624-0.2249,0.1391-0.2249S16.2775,17.1232,16.2775,17.2474z M16.4764,17.4729c0,0.0156-0.0124,0.0266-0.0266,0.0266c-0.0143,0-0.0267-0.011-0.0267-0.0266v-0.6884c0-0.0143,0.0117-0.0266,0.0267-0.0266c0.0143,0,0.0266,0.0124,0.0266,0.0266V17.4729z" />
  <path fill="#00C263" d="M16.6747,16.7176c0,0.117-0.1033,0.2119-0.2314,0.2119c-0.1281,0-0.2314-0.0949-0.2314-0.2119s0.104-0.2119,0.2314-0.2119C16.5714,16.5063,16.6747,16.6006,16.6747,16.7176z" />
</svg>