<svg width="32" height="32" viewBox="0 0 32 32" xmlns="http://www.w3.org/2000/svg">
  <polygon fill="#FCD53F" points="2,12.75 3,11.75 29,11.75 30,12.75 30,19.25 29,20.25 3,20.25 2,19.25" />
  <rect fill="#028f4d" x="2" y="6" width="28" height="6.75" />
  <rect fill="#CF0828" x="2" y="19.25" width="28" height="6.75" />
  <circle fill="#1345B7" cx="16" cy="16" r="6.5" />
  <path fill="#FCD53F" d="M16,10.8l-0.2278,0.7011l0.9397,2.892H15.459l-0.1408,0.4333h4.0171l0.5964-0.4333h-2.7643L16,10.8z M17.5703,14.0508l-0.2021-0.1465l1.5874-2.1846l0.2021,0.1465L17.5703,14.0508z M20.9455,14.3931h-0.7372l-2.4601,1.7873l-0.3871-1.1915h-0.4556l1.2414,3.8205l0.5964,0.4333l-0.8542-2.629L20.9455,14.3931z M20.9067,17.7256l-2.5669-0.834l0.0771-0.2373l2.5669,0.834L20.9067,17.7256z M19.0565,20.2069l-0.2278-0.7011l-2.4601-1.7873l1.0135-0.7364l-0.1408-0.4333l-3.2499,2.3612l-0.2278,0.7011L16,17.9862L19.0565,20.2069z M16.125,21.2002h-0.25V18.5h0.25V21.2002z M12.9435,20.2069l0.5964-0.4333l0.9397-2.892l1.0135,0.7364l0.3686-0.2678l-3.2499-2.3612h-0.7372l2.2364,1.6248L12.9435,20.2069z M11.0933,17.7256l-0.0771-0.2373l2.5674-0.8345l0.0771,0.2373L11.0933,17.7256z M11.0545,14.3931l0.5964,0.4333h3.0408l-0.3871,1.1915l0.3686,0.2678l1.2414-3.8205l-0.2278-0.7011l-0.8542,2.629H11.0545z M14.4297,14.0508l-1.5874-2.1846l0.2021-0.1465l1.5874,2.1846L14.4297,14.0508z" />
</svg>