<svg width="32" height="32" viewBox="0 0 32 32" xmlns="http://www.w3.org/2000/svg">
  <path fill="#CF0828" d="M2,6h28v20H2V6z" />
  <path fill="#072975" d="M29,25.25H3a.25.25 0 01-0.25-0.25V7a.25.25 0 01 0.25-0.25h26a.25.25 0 01 0.25,0.25v18a.25.25 0 01-.25.25z" />
  <path fill="#CF0828" d="M16.002,22.2861l-0.2891-0.2168c-0.1631-0.1221-3.9922-3.0215-3.9922-6.106c0-3.0884,3.834-5.9175,3.9971-6.0366l0.2842-0.207l0.291,0.1978c0.1626,0.1104,3.9863,2.7427,3.9863,6.0459c0,3.2993-3.8184,6.0024-3.981,6.1157L16.002,22.2861z" />
  <path fill="#83CBFF" d="M16.0121,10.331c0,0-3.7914,2.7626-3.7914,5.6322c0,2.87,3.7915,5.7058,3.7915,5.7058s3.7671-2.6292,3.7671-5.7058C19.7793,12.8871,16.0121,10.331,16.0121,10.331L16.0121,10.331z" />
  <path fill="#0092E7" d="M12.6402,17.7148c0.9867,2.1701,3.3719,3.9541,3.3719,3.9541s2.4276-1.6943,3.3853-3.9543" />
  <path fill="#CFCFCF" d="M19.4107,17.0885c-0.5845,0.3829-3.8735,0.199-3.8735,0.199l-0.1839,0.4287l3.9162,0.0111c0.0164-0.0588,0.0555-0.1287,0.0691-0.1881L19.4107,17.0885z" />
  <path fill="#FCD53F" d="M13.5255,18.8631c0.1665,0.005,0.3324,0.0372,0.4814,0.1103c0.2663,0.128,0.4207,0.127,0.7077,0.131c0.3004,0.0042,0.5362,0.2067,0.8609,0.2151c0.5981,0.0153,0.8496,0.2874,0.3845,0.2872c-0.2196-0.0002-0.6906-0.1353-0.9182-0.1069c-0.346,0.0322-0.546,0.0564-0.8021,0.2428C13.9958,19.4744,13.7519,19.1794,13.5255,18.8631L13.5255,18.8631z M14.7088,20.2287c0.1484-0.0929,0.2504-0.1655,0.3944-0.1695c0.2797-0.0078,0.3751-0.1663,0.6983-0.1661c0.3674,0.0617,0.8653-0.0404,1.1567-0.0996c0.5173-0.1092,0.272-0.4406-0.0412-0.561c-0.2532-0.0992-0.7276-0.005-1.022-0.1035c-0.2228-0.0797-0.0391-0.2067,0.0807-0.2337c0.1209-0.0203,0.2507,0.0163,0.4011,0.0387c0.2686,0.0217,0.606-0.0013,0.842-0.0348c0.4876-0.0684,0.4676-0.1995,0.7029-0.2025c0.1717-0.0073,0.3025-0.054,0.4196-0.1307c0.1377-0.0841,0.281-0.2567,0.4475-0.2498l0.0979,0.0038c-1.0284,1.8219-2.8756,3.018-2.8756,3.018S15.4145,20.9196,14.7088,20.2287L14.7088,20.2287z" />
  <path fill="#8C4200" d="M17.0732,18.8941c0.0638,0.226,0.1314,0.3028,0.3908,0.3609c0.2561,0.058,0.6473-0.17,0.4048-0.3912c-0.2308-0.2058-0.4739-0.2584-0.6805-0.4437c-0.3207-0.2912-0.7607-0.8932-0.9697-1.4623c-0.2287-0.6222-0.1889-2.374-0.1787-3.2614c0.0002-0.0103,0.0278-0.0164,0.0309-0.0207c0.0148-0.0196,0.0291,0.0063,0.0059-0.1237c-0.006-0.0333-0.0349-0.0678-0.0348-0.1015c0.0002-0.0602-0.2268,0.0657-0.2866,0.173c-0.0136,0.0245,0.0436,0.0945,0.0436,0.1083c0.0077,0.8514-0.0923,2.5323,0.1546,3.2932c0.1527,0.4711,0.4314,0.8349,0.6837,1.1715C16.7884,18.4122,17.0072,18.6449,17.0732,18.8941L17.0732,18.8941z" />
  <path fill="#44911B" d="M13.6556,13.445c0.0161,0.0203,0.0138,0.1078,0.0138,0.1078c0.0132,0.0073,0.227-0.1667,0.227-0.1588c0.0002,0.0366,0.005,0.1121,0.005,0.1121s0.2213-0.1927,0.2306-0.1724c0.0102,0.0228-0.0008,0.1345-0.0008,0.1345s0.1473-0.1486,0.1743-0.1755c0.0195-0.0192,0.0164,0.0242,0.0182,0.094c0.0004,0.0124,0.2414-0.1628,0.2561-0.1659c0.0312-0.0061,0.0408,0.091,0.0391,0.1153c-0.0012,0.018,0.2224-0.1169,0.2125-0.099l0.0165,0.1036c0.0623-0.0078,0.2108-0.0587,0.3002-0.0454c0.0286,0.0042,0.0272,0.0174,0.0017,0.027c-0.4306,0.1596-0.7618,0.4002-0.9547,0.7355c-0.0657,0.1142-0.0858,0.2138-0.0684,0.2389c0,0,0.0774-0.1525,0.1646-0.1764c0.0117-0.003,0.0195,0.0977,0.0314,0.092c0,0,0.0661-0.1529,0.1138-0.2092c0.0128-0.0151,0.0341,0.0803,0.0477,0.0661c0,0,0.0343-0.1023,0.1015-0.1736c0.0096-0.0101,0.027,0.0967,0.0377,0.0877c0.0697-0.0588,0.1351-0.2063,0.1613-0.2172c0.0182-0.0131,0.0213,0.1226,0.0387,0.1109c0,0,0.0994-0.1828,0.1588-0.2159c0.038-0.0214,0.0366,0.0998,0.0366,0.0998c0.0757-0.0684,0.1592-0.1818,0.1988-0.231c0.0182-0.0226,0.0082,0.1494,0.0276,0.1562c0.0249,0.0088,0.1881-0.1318,0.2065-0.1347c0.0122-0.002,0.0264,0.04-0.0054,0.0738c-0.0025,0.0027-0.2017,0.2131-0.2017,0.2131c0.0387,0.0067,0.0538-0.0033,0.0816,0.0035c0.0827,0.0199-0.1548,0.1446-0.1508,0.168c0,0,0.1144-0.002,0.0762,0.0184c-0.0276,0.0148-0.1788,0.1931-0.1788,0.1868c0-0.0033,0.0759,0.0015,0.0756,0.0214c-0.0006,0.037-0.1258,0.2276-0.127,0.2264c-0.0069-0.0063,0.0672-0.0083,0.0772,0.0106c0.0184,0.0347-0.1284,0.1889-0.0998,0.2151c0.004,0.0036,0.0839,0.0012,0.1195,0.0084c0.0172,0.0035,0.0652,0.2801,0.0532,0.269c-0.0028-0.0027,0.0515-0.2594,0.0844-0.3376c0.0201-0.0473,0.0844,0.0715,0.0895,0.0609c-0.0028,0-0.013-0.1688-0.004-0.2456c0.0025-0.0214,0.0487,0.0224,0.0481,0.002c-0.0017-0.0466-0.0059-0.0964,0.0046-0.1418c0.0079-0.0343,0.0473,0.0619,0.0626,0.036c0,0-0.0477-0.167-0.0278-0.2142c0.0132-0.031,0.045,0.0751,0.0659,0.0793c0,0-0.0117-0.1299,0.0102-0.1634l0.0663,0.0652c0.0144-0.0209,0.0117-0.2232,0.0251-0.2421c0.0111-0.0159,0.0799,0.0758,0.0901,0.0615c0.0092-0.0131-0.0291-0.1632-0.0205-0.1751c0.0122-0.0171,0.0876,0.0418,0.0892,0.0406c0.0308-0.0284,0.0297-0.099,0.0427-0.1253c0.0348-0.0711,0.2339-0.0803,0.2573-0.0297c0.0115,0.0245,0.0036,0.0561-0.0011,0.0942c0.0019,0.0015,0.0998,0.0081,0.1006,0.0012c0,0-0.0117,0.0837-0.0048,0.1759c0.0011,0.0123,0.0994-0.003,0.1006,0.0092c0.009,0.0868-0.0128,0.0948-0.0128,0.0948c0.0008,0.0063,0.0663-0.0092,0.0674-0.0025c0.0071,0.0423-0.0077,0.0939-0.0371,0.1435c-0.0044,0.0071,0.0937-0.0069,0.0952,0.0013c0.0119,0.0652,0.0142,0.1169,0.0019,0.2088c-0.0011,0.0075,0.096-0.065,0.0975-0.0575c0.0147,0.0774-0.0023,0.1609,0.0065,0.241c0.0021,0.0186,0.0643-0.0554,0.0699-0.0339c0.0057,0.0211-0.0138,0.1743-0.0044,0.1829c0,0,0.104-0.0048,0.1132,0.0033c0.0824,0.0708,0.0668,0.1947,0.0668,0.1947c0.0226-0.0153,0.014-0.1644-0.0088-0.3008c-0.0025-0.0144,0.0799-0.0088,0.0774-0.0222c0,0-0.0904-0.0498-0.1201-0.1885c-0.0063-0.0297,0.0872-0.0236,0.0872-0.0236c-0.026-0.0546-0.0716-0.065-0.1102-0.1174c-0.0125-0.0172,0.0971-0.0251,0.0971-0.03c0.0002-0.0523-0.0924-0.0772-0.1404-0.1316c-0.0205-0.0232,0.1-0.0244,0.1-0.0244c-0.0354-0.045-0.1519-0.0647-0.2113-0.1244c-0.0324-0.0324,0.1182-0.0642,0.1164-0.0698c-0.0165-0.0477-0.1581-0.0627-0.2268-0.1164c-0.0142-0.0111,0.0895-0.0486,0.0895-0.0486c-0.0105-0.0203-0.2366-0.1565-0.1215-0.1441c0.0485,0.0053,0.1471,0.0686,0.1548,0.059c0,0-0.0042-0.0795,0.0059-0.0891c0.0379-0.036,0.1684,0.1529,0.2128,0.1452c0,0,0.0164-0.1353,0.0364-0.1389c0.0477-0.0083,0.1059,0.197,0.153,0.197c0.0063,0,0.0099-0.1186,0.0341-0.1251c0.0274-0.0073,0.0581,0.133,0.0929,0.164c0.0322,0.0285,0.0326-0.1096,0.0515-0.0834c0.032,0.0423,0.0397,0.1307,0.0835,0.1695c0.0284,0.0252,0.0337-0.1219,0.0652-0.1021c0.0366,0.0228,0.028,0.099,0.0692,0.1366c0.0196,0.0178,0.0329-0.0972,0.0552-0.0803c0.0199,0.0148,0.0332,0.1554,0.0546,0.1776c0.0272,0.0284,0.0586-0.0741,0.0868-0.0579c0.0203,0.0119,0.0155,0.1335,0.0343,0.1596c0.0385,0.054,0.0586-0.0653,0.0841-0.0469c0.0178,0.0124,0.0563,0.1523,0.0724,0.1634c0.0357,0.0249,0.0555-0.0636,0.0827-0.0511c0.0196,0.0088,0.0594,0.1889,0.0757,0.1843c0.0107-0.003,0.0371-0.4104-0.1341-0.5822c-0.2788-0.2801-0.7782-0.4418-1.1858-0.4458c0,0,0.2048-0.0373,0.2102-0.0684c0.0108-0.0619,0.1125-0.0546,0.1835-0.0404c0.0125,0.0025,0.0059-0.1094,0.0076-0.11c0.0634-0.0013,0.1201,0.033,0.1808,0.0667c0.0188,0.0106-0.0383-0.1121-0.0182-0.1015c0.0779,0.0412,0.1644,0.0532,0.217,0.1033c0.0138,0.0132-0.0159-0.0945-0.0159-0.0945c0.0389-0.0086,0.1157,0.0428,0.1458,0.0908c0.0147,0.0237-0.0008-0.1255,0.0107-0.099c0,0,0.1356,0.0421,0.1502,0.0945c0,0,0.0111-0.0947,0.0293-0.0897c0.0544,0.0131,0.1021,0.0972,0.1445,0.1092c0,0-0.0176-0.0843-0.0037-0.0811c0.1021,0.0236,0.213,0.0814,0.2128,0.0811c-0.0575-0.1318-0.2757-0.27-0.6596-0.3069c-0.0705-0.0067-0.3565-0.0174-0.5989,0.0341c-0.1988,0.0421-0.3556,0.0661-0.3235,0.0373c0.1314-0.1178,0.3437-0.1322,0.4021-0.1596c0.0419-0.0196-0.1408-0.0841-0.1046-0.0933c0.036-0.0078,0.1992-0.0203,0.1992-0.0203c0.0354-0.0252-0.1186-0.0748-0.0956-0.1115c0.046-0.0738,0.3182-0.0067,0.3414-0.0347c0.0076-0.0094-0.117-0.0768-0.1117-0.0868c0.0199-0.0373,0.2621,0.0276,0.2678-0.005c0,0-0.0734-0.0502-0.1258-0.0914c-0.0063-0.005,0.2164-0.0597,0.2164-0.0597c-0.0042-0.0038-0.038-0.0257-0.0892-0.0439c-0.0467-0.0167,0.1954-0.0743,0.1954-0.0743c-0.3067-0.1284-1.1028,0.2368-1.2607,0.6157c-0.041,0.0904-0.0422-0.0078-0.0337-0.0844c0.0082-0.0824,0.0195-0.1546,0.0099-0.2303c-0.0029-0.0224-0.0651,0.0596-0.0692,0.0378c-0.0159-0.0804,0.0312-0.1688,0.0096-0.258c-0.0071-0.03-0.0895,0.0887-0.1004,0.0587c-0.0301-0.0826,0.0226-0.1987,0.0012-0.3124c-0.0084-0.0444-0.0864,0.0952-0.1125,0.0554c-0.0306-0.0461-0.0172-0.2172-0.0316-0.2431c-0.0117-0.0207-0.0812,0.082-0.087,0.0627c-0.0941-0.3136,0.0309-0.3527-0.1498-0.1759c-0.0063,0.0061-0.0464-0.1854-0.0533-0.1789c-0.074,0.1452-0.1954-0.1035-0.2368-0.0803c-0.0309,0.0176,0.0845,0.1138,0.0858,0.1571c0.0006,0.0209-0.1063,0.0222-0.1063,0.0222c0.0023,0.0358,0.2034,0.1362,0.2099,0.1755c0.0052,0.0324-0.1422,0.0244-0.1422,0.0244c0.0046,0.0439,0.1722,0.0856,0.1814,0.1322c0.0052,0.0257-0.0785,0.0314-0.0757,0.0575c0.0044,0.04,0.162,0.1192,0.1672,0.16c0.0036,0.0284-0.1006,0.04-0.1031,0.0665c-0.0031,0.032,0.2092,0.1393,0.2094,0.1693c0.0002,0.0425-0.0845,0.0207-0.123,0.0421c-0.0542,0.03,0.1739,0.1519,0.1835,0.1866c0.0076,0.0305-0.0912,0.0036-0.0946,0.0314c-0.0042,0.0364,0.1117,0.0914,0.1383,0.1539c0.0266,0.0617-0.0006,0.0774-0.0387,0.0529c-0.0764-0.0492-0.3844-0.3489-0.4661-0.4287c-0.1188-0.1161-0.3621-0.2461-0.6048-0.2539c-0.0253,0.0071,0.1306,0.1081,0.1316,0.1446c0.0002,0.0094-0.07,0.0234-0.0669,0.0262c0.0431,0.0395,0.1772,0.0864,0.1772,0.0864l-0.0385,0.0634c0.009,0.0186,0.0726,0.0236,0.1745,0.0542c0,0-0.0764,0.0433-0.0708,0.0473c0.054,0.0395,0.1586,0.0686,0.1586,0.0686L15.165,12.688c-0.006,0.0182,0.2316,0.1053,0.2316,0.1053s-0.0743,0.0587-0.0709,0.0617c0.0182,0.0167,0.1929,0.0536,0.1929,0.0536c0.0029,0.0027-0.1235,0.0387-0.1226,0.0395c0.0458,0.042,0.1722,0.0556,0.2017,0.1249c0,0,0.0173,0.0395-0.0326,0.032c-0.1966-0.0653-0.5012-0.2006-1.0919-0.1476c-0.6038,0.072-1.0638,0.5527-1.0559,0.6006C13.417,13.558,13.6329,13.4162,13.6556,13.445L13.6556,13.445z" />
  <path fill="#8C4200" d="M14.9377,16.9417c0.014-0.0191,0.0279-0.0109,0.0419,0l0.0303,1.3927h-0.1008L14.9377,16.9417z" />
  <path fill="#8C4200" d="M13.7247,18.2875c0,0,1.263,0.0881,2.0375-0.0642c0,0,0.0651,0.0404-0.0284,0.1404c-0.0935,0.0998-0.3301,0.1212-0.4601,0.1428c0,0-0.0312,0.0642-0.0286,0.0975c0.0028,0.0333,0.082,0.0299,0.1209,0.0226l0.0389-0.0071c0,0-0.0182,0.1249-0.4963,0.1416c-0.1569,0.0056-0.6743,0.0156-0.7837-0.1249c0,0,0.0948,0.0071,0.1195,0c0.0247-0.0071,0.0067-0.0975-0.0025-0.1108c-0.009-0.0131-0.3354,0-0.5067-0.1452c-0.0425-0.0414-0.0628-0.0854-0.0628-0.1012C13.6724,18.2777,13.7247,18.2875,13.7247,18.2875z M14.3829,18.5301c0,0,0.3456,0.0404,0.7433,0c0,0,0.0105,0.069-0.0077,0.0952c-0.0182,0.0262-0.477,0.0464-0.7084,0.0096C14.3729,18.624,14.3716,18.5822,14.3829,18.5301z" />
  <path fill="#FDF9FF" d="M13.9538,18.193c0,0,0.4001-0.502,0.2717-1.3704c0.6184,0.3442,1.1437,0.8627,1.2867,1.3445C14.9513,18.0374,14.4561,18.127,13.9538,18.193L13.9538,18.193z" />
  <circle id="path4248-0" fill="#8C4200" cx="15.8157" cy="13.4407" r="0.1428" />
  <circle fill="#8C4200" cx="15.8022" cy="13.6751" r="0.1428" />
  <circle id="path4248-9" fill="#8C4200" cx="15.9989" cy="13.3868" r="0.1428" />
  <circle id="path4248-8" fill="#8C4200" cx="16.0204" cy="13.5862" r="0.1428" />
  <path fill="#CF0828" d="M14.2951,16.0843c-0.0066,0-0.0111,0.0029-0.0136,0.0088c-0.0025,0.0049-0.0041,0.0117-0.0049,0.0205h-0.0148v-0.205h0.0148c0.0016,0.0176,0.0078,0.0263,0.0185,0.0263h0.3637v0.0176c-0.0132,0.001-0.0197,0.0092-0.0197,0.0249v0.243c0,0.0068,0.0008,0.0127,0.0025,0.0176c0.0017,0.0049,0.0058,0.0073,0.0124,0.0073h0.0061v0.0176c-0.1118,0.0702-0.2442,0.1054-0.3971,0.1054c-0.0518,0-0.102-0.0073-0.1504-0.022c-0.0476-0.0156-0.09-0.0396-0.127-0.0717c-0.037-0.0322-0.067-0.0727-0.09-0.1215c-0.0222-0.0498-0.0333-0.1078-0.0333-0.1742s0.0111-0.1239,0.0333-0.1727c0.023-0.0498,0.053-0.0908,0.09-0.1229c0.037-0.0332,0.0793-0.0576,0.127-0.0732c0.0485-0.0166,0.0987-0.0249,0.1504-0.0249c0.0205,0,0.0387,0.0004,0.0542,0.0014c0.0156,0.001,0.0308,0.0029,0.0456,0.0059s0.03,0.0068,0.0456,0.0117c0.0156,0.0039,0.0341,0.0092,0.0555,0.0161c0.0205,0.0068,0.0395,0.0151,0.0567,0.0249c0.0172,0.0088,0.0284,0.0132,0.0333,0.0132c0.0066,0,0.0124-0.0039,0.0172-0.0117l0.0148,0.0059l-0.0802,0.1932l-0.0148-0.0102c0.0016-0.0059,0.0025-0.0112,0.0025-0.0161c0-0.0068-0.007-0.0141-0.021-0.022c-0.014-0.0088-0.0316-0.0166-0.053-0.0234c-0.0213-0.0068-0.0456-0.0127-0.0727-0.0176c-0.0263-0.0049-0.0522-0.0073-0.0777-0.0073c-0.0296,0-0.058,0.0049-0.0851,0.0147c-0.0263,0.0088-0.0501,0.0229-0.0716,0.0425c-0.0205,0.0196-0.037,0.0439-0.0493,0.0732c-0.0124,0.0283-0.0185,0.0625-0.0185,0.1025c0,0.039,0.0074,0.0732,0.0222,0.1025c0.0148,0.0283,0.0333,0.0517,0.0555,0.0702c0.023,0.0186,0.0485,0.0322,0.0764,0.041s0.0555,0.0132,0.0826,0.0132c0.0345,0,0.0653-0.0024,0.0924-0.0073c0.0279-0.0049,0.0547-0.0117,0.0802-0.0205v-0.0966L14.2951,16.0843z M15.443,15.6295c0-0.0069-0.002-0.0124-0.0058-0.0163c-0.0031-0.005-0.012-0.0084-0.0267-0.0104v-0.0178h0.2392v0.0178c-0.0147,0.002-0.024,0.0054-0.0279,0.0104c-0.0031,0.0039-0.0046,0.0093-0.0046,0.0163v0.3968c0,0.0652-0.0085,0.1199-0.0255,0.1644c-0.0163,0.0444-0.0391,0.0799-0.0685,0.1066c-0.0286,0.0267-0.0627,0.0454-0.1022,0.0563c-0.0387,0.0099-0.0801,0.0148-0.1243,0.0148c-0.0441,0-0.086-0.005-0.1254-0.0148c-0.0387-0.0108-0.0728-0.0296-0.1022-0.0563c-0.0286-0.0267-0.0515-0.0622-0.0685-0.1066c-0.0163-0.0444-0.0244-0.0992-0.0244-0.1644v-0.3968c0-0.0069-0.002-0.0124-0.0058-0.0163c-0.0031-0.005-0.012-0.0084-0.0267-0.0104v-0.0178h0.2392v0.0178c-0.0147,0.002-0.024,0.0054-0.0279,0.0104c-0.0031,0.0039-0.0046,0.0093-0.0046,0.0163v0.3968c0,0.0572,0.0128,0.0982,0.0383,0.1228c0.0255,0.0247,0.0615,0.037,0.108,0.037c0.0465,0,0.0825-0.0124,0.108-0.037c0.0255-0.0247,0.0383-0.0656,0.0383-0.1228L15.443,15.6295z M16.3671,16.3356c0,0.005,0.0013,0.0089,0.004,0.0119c0.0036,0.002,0.0101,0.0029,0.0198,0.0029v0.0179h-0.234v-0.0179c0.0097-0.002,0.0167-0.005,0.0212-0.0089c0.0044-0.005,0.0088-0.0134,0.0132-0.0253c0.0018-0.005,0.0061-0.0184,0.0132-0.0402s0.0163-0.0492,0.0277-0.0819c0.0115-0.0338,0.0243-0.0709,0.0383-0.1116c0.0141-0.0407,0.0282-0.0819,0.0423-0.1236c0.0141-0.0427,0.0277-0.0839,0.041-0.1236c0.0141-0.0407,0.0264-0.0769,0.037-0.1087c0.0106-0.0317,0.0189-0.0576,0.0252-0.0774c0.007-0.0198,0.0106-0.0303,0.0106-0.0313c0-0.005-0.0031-0.0084-0.0092-0.0104c-0.0052-0.002-0.011-0.0035-0.0172-0.0044v-0.0179h0.345v0.0179c-0.007,0.001-0.0128,0.0025-0.0172,0.0044c-0.0044,0.002-0.0066,0.0069-0.0066,0.0149c0,0.002,0.004,0.0148,0.0119,0.0387c0.0088,0.0238,0.0198,0.0551,0.0331,0.0938c0.0132,0.0377,0.0282,0.0809,0.045,0.1295c0.0176,0.0476,0.0356,0.0968,0.0542,0.1474c0.0185,0.0496,0.0361,0.0983,0.0529,0.146c0.0176,0.0476,0.0335,0.0903,0.0476,0.1281c0.007,0.0179,0.0128,0.0298,0.0172,0.0357c0.0052,0.006,0.0119,0.0089,0.0198,0.0089v0.0179h-0.2604v-0.0179c0.0167-0.001,0.0251-0.0069,0.0251-0.0179c0-0.001-0.0022-0.0075-0.0066-0.0194c-0.0044-0.0129-0.0092-0.0268-0.0146-0.0417c-0.0052-0.0159-0.0106-0.0308-0.0158-0.0447c-0.0044-0.0139-0.007-0.0233-0.0079-0.0283h-0.3132c-0.0088,0.0268-0.0158,0.0486-0.0212,0.0655c-0.0052,0.0169-0.0097,0.0303-0.0132,0.0402c-0.0027,0.01-0.0049,0.0173-0.0066,0.0223C16.3676,16.3306,16.3671,16.3335,16.3671,16.3356L16.3671,16.3356z M16.6883,16.0795l-0.1282-0.3544l-0.1176,0.3544H16.6883z M17.9155,16.3563c0.0161-0.002,0.0259-0.005,0.0292-0.0089c0.0043-0.005,0.0064-0.0109,0.0064-0.0179v-0.5479l-0.0026-0.003l-0.2263,0.5777l-0.2238-0.5836h-0.0026v0.5569c0,0.0069,0.0017,0.0129,0.0051,0.0179c0.0043,0.004,0.0144,0.0069,0.0305,0.0089v0.0179h-0.2238v-0.0179c0.0161-0.002,0.0259-0.005,0.0292-0.0089c0.0043-0.005,0.0064-0.0109,0.0064-0.0179v-0.6939c0-0.0069-0.0021-0.0124-0.0064-0.0164c-0.0034-0.005-0.0132-0.0084-0.0292-0.0104V15.591h0.3319v0.0179c-0.0204,0.001-0.0305,0.01-0.0305,0.0268c0,0.001,0.0026,0.0089,0.0076,0.0238c0.0051,0.0148,0.0115,0.0332,0.0191,0.0551c0.0084,0.0219,0.0174,0.0457,0.0267,0.0715c0.0101,0.0248,0.0195,0.0492,0.028,0.073c0.0093,0.0228,0.0174,0.0432,0.0242,0.0611c0.0068,0.0179,0.0115,0.0298,0.014,0.0357c0.0144-0.0377,0.0292-0.0744,0.0445-0.1102c0.0153-0.0357,0.0288-0.0685,0.0407-0.0983c0.0127-0.0298,0.0228-0.0546,0.0305-0.0745c0.0076-0.0198,0.0115-0.0323,0.0115-0.0372c0-0.0169-0.0101-0.0258-0.0305-0.0268v-0.0179h0.3446v0.0179c-0.0161,0.002-0.0263,0.0054-0.0305,0.0104c-0.0034,0.004-0.0051,0.0094-0.0051,0.0164v0.6939c0,0.0069,0.0017,0.0129,0.0051,0.0179c0.0043,0.004,0.0144,0.0069,0.0305,0.0089v0.0179h-0.2543L17.9155,16.3563z" />
</svg>