<svg width="32" height="32" viewBox="0 0 32 32" xmlns="http://www.w3.org/2000/svg">
  <polygon fill="#1c1c1c" points="2,6 30,6 30,12.75 29,13.75 6,13.75" />
  <polygon fill="#01773f" points="2,26 30,26 30,19.25 29,18.25 6,18.25" />
  <rect fill="#f4f4f4" x="6" y="12.75" width="24" height="6.5" />
  <polygon fill="#CF0828" points="2,6 12,16 2,26" />
  <path fill="#CF0828" d="M14.375,16c0-1.2689,0.9101-2.3223,2.1125-2.5508C16.3293,13.4191,16.167,13.4,16,13.4c-1.4359,0-2.6,1.1641-2.6,2.6s1.1641,2.6,2.6,2.6c0.167,0,0.3293-0.019,0.4875-0.0491C15.2851,18.3223,14.375,17.2689,14.375,16z" />
  <path fill="#CF0828" d="M15.3021,17.5743l1.1087-0.7925l1.1,0.8045l-0.4111-1.2993l1.1051-0.7975l-1.3628-0.0105l-0.417-1.2974l-0.4311,1.2928l-1.3628-0.0043l1.0963,0.8095L15.3021,17.5743L15.3021,17.5743z" />
</svg>