<svg width="32" height="32" viewBox="0 0 32 32" xmlns="http://www.w3.org/2000/svg">
  <polygon fill="#0C338C" points="2,6 30,6 30,16 29,17 3,17 2,16" />
  <rect fill="#CF0828" x="2" y="16" width="28" height="10" />
  <path fill="#f4f4f4" d="M12.5,13.0724h7v5.8553h-7V13.0724z" />
  <path fill="#00753B" d="M19.5,18.1175c-0.8813-0.4474-2.0748-0.7273-3.4694-0.7273c-1.3934,0-2.6493,0.2799-3.5306,0.7273v0.8102h7C19.5,18.9276,19.5,18.1175,19.5,18.1175z" />
  <path fill="#0C338C" d="M14.579,15.2354l0.6849,0.7708l-0.0858,0.4833l-0.1482-0.0841l-0.1335,0.5045h-0.0347l-0.0629,0.2663l-1.1635-0.0982l0.0282-0.8302l0.2804,0.0805l0.0341-0.7749l0.4074,0.2769l0.0206-0.4692L14.579,15.2354z" />
  <path fill="#CF0828" d="M16.0382,16.7417v1.1771l-0.8819-0.2593l-0.2246-0.3292l-0.154-0.1123l0.0841-0.2975l0.1329-0.515h0.2034l0.05-0.4345L16.0382,16.7417z M13.5024,16.209c0.1052-0.1258,0.3016-0.0417,0.3081,0c0.0071,0.0423-0.077,0.0347-0.154,0.1052c-0.077,0.07-0.0559,0.2869-0.1893,0.2593C13.3343,16.5453,13.5024,16.209,13.5024,16.209z M13.9781,15.5535c0.1358-0.0917,0.3016,0.0435,0.2963,0.0858c-0.0053,0.0423-0.0841,0.0123-0.177,0.0582c-0.0935,0.0459-0.1335,0.2605-0.254,0.1964C13.7235,15.8298,13.9781,15.5535,13.9781,15.5535z M14.539,15.1525c0.1464-0.0735,0.2934,0.0823,0.2828,0.1235c-0.0106,0.0412-0.1135-0.0317-0.2117,0.0018c-0.0988,0.0335-0.1376,0.274-0.2487,0.1946C14.2503,15.3935,14.539,15.1525,14.539,15.1525z" />
  <path fill="#F1A11E" d="M14.2391,14.8256l0.4545,0.2769l-0.05,0.1329l1.227,1.3587v0.1052l-1.2752-1.4293l-0.1664-0.0276L14.2391,14.8256z M13.5865,15.2354c0,0,0.4557,0.1752,0.4557,0.1964c0,0.0212,0.0835,0.1611,0.0835,0.1611l1.6603,1.3452l-0.0488,0.0635l-1.6468-1.3452l-0.2381-0.1052C13.8523,15.5511,13.5865,15.2354,13.5865,15.2354z M13.1032,15.9256c0,0,0.5256,0.0735,0.5327,0.0947c0.0071,0.0212,0.0423,0.1405,0.0423,0.1405l1.9261,1.0506l-0.0841,0.0494l-1.8773-1.0377L13.426,16.209L13.1032,15.9256z" />
  <path fill="#F1A11E" d="M13.5586,16.9239l1.9796,0.2416l-0.1876,0.2258l-0.2934,0.0294l0.2193,0.2946l-0.1058,0.1194l-0.2946-0.3222c0,0-0.0911,0.4692-0.4903,0.4692c-0.3992,0-0.5262-0.3992-0.5262-0.5327c0-0.1335,0.0353-0.2028,0.0353-0.2028h-0.3786C13.5163,17.2461,13.5586,16.9239,13.5586,16.9239z" />
  <path fill="#0C338C" d="M17.4728,15.1931l-0.7155,0.8484l0.0294,0.4898l0.184-0.1258l0.1329,0.5045h0.0353l0.0629,0.2663l1.1629-0.0982l-0.0282-0.8302l-0.2799,0.0805l-0.0347-0.7749l-0.4069,0.2769l-0.0218-0.4692L17.4728,15.1931z" />
  <path fill="#CF0828" d="M16.0382,16.7417v1.1771l0.8443-0.2593l0.2052-0.3292l0.1446-0.1123l-0.0888-0.2975l-0.1382-0.515l-0.1564,0.1164l-0.0541-0.4803L16.0382,16.7417z M18.4976,16.209c-0.1058-0.1258-0.3022-0.0417-0.3087,0c-0.0071,0.0423,0.0776,0.0347,0.1546,0.1052c0.077,0.07,0.0564,0.2869,0.1893,0.2593C18.6657,16.5453,18.4976,16.209,18.4976,16.209z M18.0219,15.5535c-0.1358-0.0917-0.301,0.0435-0.2963,0.0858c0.0053,0.0423,0.0841,0.0123,0.1776,0.0582c0.0935,0.0459,0.1329,0.2605,0.254,0.1964C18.2765,15.8298,18.0219,15.5535,18.0219,15.5535z M17.4616,15.1525c-0.147-0.0735-0.2928,0.0823-0.2828,0.1235c0.0106,0.0412,0.1129-0.0317,0.2111,0.0018c0.0988,0.0335,0.1382,0.274,0.2493,0.1946C17.7503,15.3935,17.4616,15.1525,17.4616,15.1525z" />
  <path fill="#F1A11E" d="M17.7609,14.8256l-0.4539,0.2769l0.0876,0.1329l-1.1876,1.3587v0.1052l1.2364-1.4293l0.1476-0.0276L17.7609,14.8256z M18.4135,15.2354c0,0-0.4551,0.1752-0.4551,0.1964c0,0.0212-0.0841,0.1611-0.0841,0.1611l-1.6603,1.3452l0.0494,0.0635l1.6462-1.3452l0.2375-0.1052C18.1472,15.5511,18.4135,15.2354,18.4135,15.2354z M18.8968,15.9256c0,0-0.5256,0.0735-0.5321,0.0947c-0.0076,0.0212-0.0417,0.1405-0.0417,0.1405l-1.9267,1.0506l0.0841,0.0494l1.8773-1.0371l0.2175-0.0141C18.5752,16.2096,18.8968,15.9256,18.8968,15.9256z" />
  <path fill="#F1A11E" d="M18.4414,16.9239l-1.979,0.2416l0.1876,0.2258l0.2928,0.0294l-0.2193,0.2946l0.1064,0.1194l0.2946-0.3222c0,0,0.0911,0.4692,0.4903,0.4692c0.3998,0,0.5256-0.3992,0.5256-0.5321c0-0.1335-0.0347-0.2028-0.0347-0.2028h0.378C18.4837,17.2467,18.4414,16.9239,18.4414,16.9239z" />
  <path fill="#f4f4f4" d="M18.8218,18.4232c0,0-0.3469,0.0123-0.7108-0.0664c-0.3639-0.0794-0.4268-0.2217-0.585-0.1899c-0.1582,0.0317-0.525,0.1676-0.8255,0.2064c-0.301,0.0376-0.7332,0.0506-0.7332,0.0506s-0.3974-0.0123-0.6985-0.0506c-0.301-0.0388-0.6332-0.1746-0.792-0.2064c-0.1582-0.0317-0.2217,0.1111-0.5862,0.1899c-0.3639,0.0794-0.7126,0.0664-0.7126,0.0664l0.0952,0.1681l-0.0952,0.0823c0.8237,0.0153,1.2041-0.2505,1.2041-0.2505c0.4116,0.2728,1.5851,0.2804,1.5851,0.2804s1.2088-0.0076,1.6204-0.2804c0,0,0.3974,0.2657,1.2206,0.2505l-0.087-0.0823L18.8218,18.4232z" />
  <path fill="#F1A11E" d="M16.1717,15.9256c0,0.876-0.0764,1.5868-0.1717,1.5868c-0.0947,0-0.1717-0.7108-0.1717-1.5868c0-0.8766,0.077-1.5868,0.1717-1.5868C16.0952,14.3388,16.1717,15.049,16.1717,15.9256z" />
  <path fill="#CF0828" d="M15.639,17.372h0.722v0.6726h-0.722L15.639,17.372z" />
  <path fill="#f4f4f4" d="M16.361,17.372c0,0.0776-0.1611,0.1399-0.361,0.1399c-0.1993,0-0.361-0.0629-0.361-0.1399c0-0.077,0.1617-0.1399,0.361-0.1399C16.1999,17.232,16.361,17.2949,16.361,17.372z" />
  <path fill="#CF0828" d="M16.361,18.0446c0,0.0776-0.1611,0.1399-0.361,0.1399c-0.1993,0-0.361-0.0623-0.361-0.1399c0-0.0776,0.1617-0.1399,0.361-0.1399C16.1999,17.9046,16.361,17.9669,16.361,18.0446z" />
  <path fill="#00753B" d="M17.4931,14.0442c-0.1346-0.1611-0.4809-0.154-0.7161-0.1611c-0.2346-0.0071-0.3533,0.077-0.2481-0.0347c0.1052-0.1117,0.2675-0.0835,0.4386-0.0911c0.1717-0.0071,0.2017-0.0276,0.0964-0.0835c-0.1052-0.0559-0.2899-0.1252-0.535-0.0623c-0.2405,0.0617-0.3922,0.2117-0.5203,0.2375c-0.1282-0.0253-0.2887-0.1758-0.5291-0.2375c-0.2452-0.0629-0.4351,0.0059-0.5397,0.0623c-0.1052,0.0559-0.077,0.0764,0.0947,0.0835c0.1717,0.0071,0.3322-0.0212,0.4374,0.0911s-0.0141,0.0276-0.2487,0.0347s-0.5815,0-0.7161,0.1611s0.117,0.0559,0.2505,0.0347c0.1329-0.0212,0.3292-0.0276,0.3292-0.0276s-0.3292,0.0976-0.4204,0.224c-0.0911,0.1258,0.0276,0.2381,0.1964,0.1399c0.1682-0.0982,0.4274-0.2311,0.5674-0.2452c0,0-0.3645,0.1517-0.5256,0.2828c-0.1611,0.1311,0.0076,0.117,0.1299,0.117s0.2481-0.0488,0.3534-0.1264c0.1052-0.077-0.0694,0.154-0.0982,0.3016c-0.0276,0.147,0.1893,0.1123,0.2281,0c0.0382-0.1123,0.164-0.3363,0.164-0.3363s-0.0553,0.3222-0.0482,0.5397c0.0071,0.2175,0.0788,0.2311,0.1346,0.1329s0.2499,0.0582,0.2499,0.0582s0.1764-0.1564,0.2322-0.0582c0.0564,0.0982,0.1094,0.0841,0.1164-0.1329s-0.0488-0.5397-0.0488-0.5397s0.1258,0.224,0.1646,0.3363c0.0382,0.1123,0.2558,0.147,0.2275,0c-0.0276-0.147-0.2028-0.3786-0.0976-0.3016c0.1052,0.077,0.2311,0.1264,0.3534,0.1264c0.1229,0,0.291,0.0141,0.1305-0.117c-0.1611-0.1311-0.5256-0.2828-0.5256-0.2828c0.1405,0.0141,0.3992,0.147,0.5674,0.2452c0.1681,0.0982,0.2869-0.0141,0.1958-0.1399c-0.0911-0.1264-0.4204-0.224-0.4204-0.224s0.1964,0.0071,0.3298,0.0276C17.3761,14.1007,17.6277,14.2053,17.4931,14.0442z" />
</svg>