<svg width="32" height="32" viewBox="0 0 32 32" xmlns="http://www.w3.org/2000/svg">
  <polygon fill="#062365" points="16,6 14.95,6.5 13.9,6 10.75,6 9,7 7.25,6 4.1,6 2,7.5 2,9.25 3,11 2,12.75 2,14.5 2.5,15.25 2,16 2,26 30,26 30,6" />
  <polygon fill="#f4f4f4" points="16 6 15.3 6.25 14.6 6 13.9 6 10.75 8.25 10.75 6 10 6 9 6.5 8 6 7.25 6 7.25 8.25 4.1 6 2 6 2.25 6.5 2 7 2 7.5 4.45 9.25 2 9.25 2 10 2.5 11 2 12 2 12.75 4.45 12.75 2 14.5 2 16 2.7 15.75 3.4 16 4.1 16 7.25 13.75 7.25 16 8 16 9 15.5 10 16 10.75 16 10.75 13.75 13.9 16 16 16 15.75 15.5 16 15 16 14.5 13.55 12.75 16 12.75 16 12 15.5 11 16 10 16 9.25 13.55 9.25 16 7.5" />
  <path fill="#cf0828" d="M7.25 12.75h-.7L2 16h1.4l3.85-2.75v-.5zm4.2 0L16 16v-1l-3.15-2.25h-1.4zm-.7-3.5h.7L16 6h-1.4l-3.85 2.75v.5zm-5.6 0L2 7V6l4.55 3.25h-1.4zM16 12h-6v4H8v-4H2v-2h6V6h2v4h6v2z" />
  <g fill="#f4f4f4">
  <polygon points="23,10.19 23.6182,12.0887 22.0025,10.9163 23.9974,10.9163 22.3817,12.0887" />
  <polygon points="25.3631,10.6923 25.1556,12.6785 24.1563,10.9501 25.9789,11.7615 24.0258,12.1755" />
  <polygon points="27.3177,12.1124 26.3205,13.8424 26.1106,11.8571 27.4455,13.3396 25.493,12.9234" />
  <polygon points="28.5256,14.2046 26.9108,15.3794 27.5265,13.4803 28.1431,15.3777 26.5286,14.2032" />
  <polygon points="28.7782,16.6073 26.8251,17.0237 28.16,15.5393 27.9516,17.5234 26.9543,15.7938" />
  <polygon points="28.0316,18.905 26.078,18.4912 27.9013,17.6781 26.9039,19.4058 26.6963,17.4202" />
  <polygon points="26.415,20.7004 24.7987,19.5277 26.795,19.5265 25.1811,20.6992 25.7991,18.8008" />
  <polygon points="24.208,21.683 23.2084,19.9542 25.0326,20.765 23.0813,21.18 24.418,19.697" />
  <polygon points="21.792,21.683 21.5819,19.6972 22.9186,21.1802 20.9673,20.7652 22.7915,19.9544" />
  <polygon points="19.585,20.7004 20.2007,18.8008 20.8187,20.6992 19.2048,19.5265 21.2011,19.5277" />
  <polygon points="17.9684,18.905 19.3036,17.4201 19.096,19.4057 18.0986,17.678 19.9219,18.4911" />
  <polygon points="17.2218,16.6073 19.0455,15.7938 18.0482,17.5234 17.8398,15.5393 19.1747,17.0237" />
  <polygon points="17.4744,14.2046 19.4712,14.2032 17.8567,15.3777 18.4733,13.4803 19.089,15.3794" />
  <polygon points="18.6823,12.1124 20.5071,12.9234 18.5546,13.3396 19.8895,11.8571 19.6796,13.8424" />
  <polygon points="20.6369,10.6923 21.974,12.1755 20.0209,11.7615 21.8435,10.9501 20.8442,12.6785" />
  </g>
</svg>