<svg width="32" height="32" viewBox="0 0 32 32" xmlns="http://www.w3.org/2000/svg">
  <polygon fill="#00578d" points="2,6 9.75,6 12,7 14.25,6 30,6 30,13.75 29,16 30,18.25 30,26 14.25,26 12,25 9.75,26 2,26 2,18.25 3,16 2,13.75" />
  <polygon fill="#F4F4F4" points="30,18.25 2,18.25 2,17.125 3,16 2,14.875 2,13.75 30,13.75 30,14.875 29,16 30,17.125" />
  <polygon fill="#F4F4F4" points="14.25,26 13.125,26 12,25 10.875,26 9.75,26 9.75,6 10.875,6 12,7 13.125,6 14.25,6" />
  <rect fill="#E71A43" x="2" y="14.875" width="28" height="2.25" />
  <rect fill="#E71A43" x="10.875" y="6" width="2.25" height="20" />
</svg>
