<svg width="32" height="32" viewBox="0 0 32 32" xmlns="http://www.w3.org/2000/svg">
  <rect fill="#CF0828" x="2" y="6" width="28" height="20" />
  <circle fill="#FCD53F" cx="15.7506" cy="15.2056" r="1.2" />
  <path fill="#f4f4f4" d="M15.5178,22.2749c-0.2924-0.1927,0.517-1.4799,0.208-1.949c-0.309-0.4691-1.9648-1.1892-2.4249-1.8385c0,0-0.2924,0.1688-0.6224-0.4027s-0.0928-0.8222,0.2452-1.0938c0,0,0.4507-0.8686,0.8778-1.3826c0.4272-0.514,0.7989-0.7286,0.7989-0.7286s0.676,0.1817,0.8532,0.4223c0.1771,0.2406,0.3323,1.1032,0.3323,1.1032s-1.0009,0.7679-1.2976,1.0156l-0.1005,0.3245c0,0,0.479,0.1036,0.8623,0.5689c0.3832,0.4653,0.8155,1.2817,1.0378,1.5344c0.2223,0.2527,0.5775,0.0095,0.6973,0.2831c0.1198,0.2737-0.5675,0.4032-0.6177,1.0424C16.3178,21.8129,15.887,22.5191,15.5178,22.2749z M21.9893,11.8726c-0.0206,0.3496-1.5401,0.2922-1.7918,0.7943c-0.2517,0.5022-0.0475,2.2962-0.3797,3.0193c0,0,0.2924,0.1688-0.0375,0.7404s-0.6657,0.4915-1.0698,0.3345c0,0-0.9776,0.044-1.6363-0.0689s-1.0304-0.3276-1.0304-0.3276s-0.1807-0.6763-0.0608-0.95c0.1198-0.2737,0.7893-0.8394,0.7893-0.8394s1.1655,0.4828,1.5283,0.6159l0.3312-0.0752c0,0-0.1498-0.4667,0.0616-1.0312c0.2114-0.5646,0.7022-1.3471,0.8099-1.6659c0.1077-0.3189-0.2806-0.5048-0.1034-0.7454c0.1771-0.2406,0.6329,0.2899,1.2116,0.0138C21.1892,11.4107,22.0161,11.4307,21.9893,11.8726z M9.7448,11.4692c0.3131-0.1569,1.0231,1.1877,1.5838,1.1546c0.5608-0.0331,2.0123-1.1069,2.8046-1.1808c0,0,0-0.3377,0.66-0.3377s0.7585,0.3308,0.8246,0.7592c0,0,0.5269,0.8246,0.7585,1.4515s0.2315,1.0562,0.2315,1.0562s-0.4954,0.4946-0.7923,0.5277c-0.2969,0.0331-1.1215-0.2638-1.1215-0.2638s-0.1646-1.2508-0.2308-1.6315l-0.2308-0.2492c0,0-0.3292,0.3631-0.9238,0.4623c-0.5946,0.0992-1.5177,0.0654-1.8477,0.1315c-0.33,0.0662-0.2969,0.4954-0.5938,0.4623c-0.2969-0.0331-0.0654-0.6931-0.5938-1.0562C9.7448,12.3931,9.3487,11.6669,9.7448,11.4692z" />
  <path fill="#FCD53F" d="M16.6903,20.0257l0.0732-0.3763l-0.2676-0.2727l0.3801-0.0462l0.1768-0.3384l0.1611,0.3467l0.3775,0.0645l-0.2804,0.2605l0.0558,0.3782l-0.3345-0.187L16.6903,20.0257z M19.4552,11.9817l-0.3625,0.1247l-0.1024,0.3681l-0.2301-0.3061l-0.3814,0.016l0.2197-0.3128l-0.1328-0.3592l0.3658,0.1126l0.2996-0.2374l0.0053,0.3832L19.4552,11.9817z M11.1064,13.6092l0.2892,0.2515l0.37-0.0954l-0.15,0.3523l0.2046,0.3223l-0.3808-0.0338l-0.2446,0.2946l-0.0854-0.3731l-0.3554-0.1408l0.3292-0.1962L11.1064,13.6092z" />
</svg>