<svg width="32" height="32" viewBox="0 0 32 32" xmlns="http://www.w3.org/2000/svg">
  <path d="M16,6L30,6L30,6.474L29,7L30,8.182L30,9.79L29,10.5L30,11.5L30,13.107L29,14L30,14.816L30,16.424L29,17L30,18.132L30,19.741L29,20.5L30,21.449L30,23.058L29,24L30,24.766L30,26L2,26L2,25.908L3,25L2,24.2L2,22.591L3,22L2,20.868L2,19.274L3,18.5L2,17.566L2,16L16,6Z" fill="#f4f4f4" />
  <polygon fill="#062365" points="4.1,6 7.25,6 9,7 10.75,6 13.9,6 16,7.5 16,9.25 15,11 16,12.75 16,14.5 13.9,16 10.75,16 9,15 7.25,16 4.1,16 2,14.5 2,12.75 3,11 2,9.25 2,7.5" />
  <polygon fill="#F4F4F4" points="16,6 15.3,6.25 14.6,6 13.9,6 10.75,8.25 10.75,6 10,6 9,6.5 8,6 7.25,6 7.25,8.25 4.1,6 2,6 2.25,6.5 2,7 2,7.5 4.45,9.25 2,9.25 2,10 2.5,11 2,12 2,12.75 4.45,12.75 2,14.5 2,16 2.7,15.75 3.4,16 4.1,16 7.25,13.75 7.25,16 8,16 9,15.5 10,16 10.75,16 10.75,13.75 13.9,16 16,16 15.75,15.5 16,15 16,14.5 13.55,12.75 16,12.75 16,12 15.5,11 16,10 16,9.25 13.55,9.25 16,7.5" />
  <path fill="#CF0828" d="M7.25,12.75h-0.7L2,16h1.4l3.85-2.75V12.75z M11.45,12.75L16,16v-1l-3.15-2.25H11.45z M10.75,9.25h0.7L16,6h-1.4l-3.85,2.75V9.25z M5.15,9.25L2,7V6l4.55,3.25H5.15z M16,12h-6v4H8v-4H2v-2h6V6h2v4h6V12z" />
  <path d="M2,19.274L2,17.566C2.303,17.624 2.64,17.658 3.024,17.658C4.214,17.658 4.809,16.331 6,16.331C7.786,16.331 8.381,17.658 10.762,17.658C11.952,17.658 12.548,16.331 13.738,16.331C15.524,16.331 16.119,17.658 18.5,17.658C19.69,17.658 20.286,16.331 21.476,16.331C23.262,16.331 23.857,17.658 26.238,17.658C27.429,17.658 28.024,16.331 29.214,16.331C29.503,16.331 29.761,16.366 30,16.424L30,18.132C29.761,18.074 29.503,18.039 29.214,18.039C28.024,18.039 27.429,19.366 26.238,19.366C23.857,19.366 23.262,18.039 21.476,18.039C20.286,18.039 19.69,19.366 18.5,19.366C16.119,19.366 15.524,18.039 13.738,18.039C12.548,18.039 11.952,19.366 10.762,19.366C8.381,19.366 7.786,18.039 6,18.039C4.809,18.039 4.214,19.366 3.024,19.366C2.64,19.366 2.303,19.332 2,19.274ZM2,20.883C2.303,20.941 2.64,20.975 3.024,20.975C4.214,20.975 4.809,19.648 6,19.648C7.786,19.648 8.381,20.975 10.762,20.975C11.952,20.975 12.548,19.648 13.738,19.648C15.524,19.648 16.119,20.975 18.5,20.975C19.69,20.975 20.286,19.648 21.476,19.648C23.262,19.648 23.857,20.975 26.238,20.975C27.429,20.975 28.024,19.648 29.214,19.648C29.503,19.648 29.761,19.683 30,19.741L30,21.449C29.761,21.391 29.503,21.356 29.214,21.356C28.024,21.356 27.429,22.683 26.238,22.683C23.857,22.683 23.262,21.356 21.476,21.356C20.286,21.356 19.69,22.683 18.5,22.683C16.119,22.683 15.524,21.356 13.738,21.356C12.548,21.356 11.952,22.683 10.762,22.683C8.381,22.683 7.786,21.356 6,21.356C4.809,21.356 4.214,22.683 3.024,22.683C2.64,22.683 2.303,22.649 2,22.591L2,20.883ZM2,24.2C2.303,24.258 2.64,24.292 3.024,24.292C4.214,24.292 4.809,22.965 6,22.965C7.786,22.965 8.381,24.292 10.762,24.292C11.952,24.292 12.548,22.965 13.738,22.965C15.524,22.965 16.119,24.292 18.5,24.292C19.69,24.292 20.286,22.965 21.476,22.965C23.262,22.965 23.857,24.292 26.238,24.292C27.429,24.292 28.024,22.965 29.214,22.965C29.503,22.965 29.761,23 30,23.058L30,24.766C29.761,24.708 29.503,24.673 29.214,24.673C28.024,24.673 27.429,26 26.238,26C23.857,26 23.262,24.673 21.476,24.673C20.286,24.673 19.69,26 18.5,26C16.119,26 15.524,24.673 13.738,24.673C12.548,24.673 11.952,26 10.762,26C8.381,26 7.786,24.673 6,24.673C4.809,24.673 4.214,26 3.024,26C2.64,26 2.303,25.966 2,25.908L2,24.2ZM16,8.803L16,7.095C16.643,7.409 17.371,7.707 18.5,7.707C19.69,7.707 20.286,6.381 21.476,6.381C23.262,6.381 23.857,7.707 26.238,7.707C27.429,7.707 28.024,6.381 29.214,6.381C29.503,6.381 29.761,6.415 30,6.474L30,8.182C29.761,8.123 29.503,8.089 29.214,8.089C28.024,8.089 27.429,9.415 26.238,9.415C23.857,9.415 23.262,8.089 21.476,8.089C20.286,8.089 19.69,9.415 18.5,9.415C17.371,9.415 16.643,9.117 16,8.803ZM16,10.412C16.643,10.726 17.371,11.024 18.5,11.024C19.69,11.024 20.286,9.698 21.476,9.698C23.262,9.698 23.857,11.024 26.238,11.024C27.429,11.024 28.024,9.698 29.214,9.698C29.503,9.698 29.761,9.732 30,9.79L30,11.499C29.761,11.44 29.503,11.406 29.214,11.406C28.024,11.406 27.429,12.732 26.238,12.732C23.857,12.732 23.262,11.406 21.476,11.406C20.286,11.406 19.69,12.732 18.5,12.732C17.371,12.732 16.643,12.434 16,12.12L16,10.412ZM16,13.729C16.643,14.043 17.371,14.341 18.5,14.341C19.69,14.341 20.286,13.014 21.476,13.014C23.262,13.014 23.857,14.341 26.238,14.341C27.429,14.341 28.024,13.014 29.214,13.014C29.503,13.014 29.761,13.049 30,13.107L30,14.816C29.761,14.757 29.503,14.723 29.214,14.723C28.024,14.723 27.429,16.049 26.238,16.049C23.857,16.049 23.262,14.723 21.476,14.723C20.286,14.723 19.69,16.049 18.5,16.049C17.371,16.049 16.643,15.751 16,15.437L16,13.729Z" fill="#062365" />
  <path d="M23.248,24.213C23.248,24.351 23.138,24.462 23.001,24.462C22.863,24.462 22.752,24.35 22.752,24.213L22.752,12.012C22.752,11.875 22.864,11.763 23.001,11.763C23.138,11.763 23.248,11.875 23.248,12.012L23.248,24.213Z" fill="#b76a1e" />
  <path d="M25.086,19.866L20.924,19.866C20.924,19.866 20.848,19.158 20.728,18.812C20.607,18.467 20.502,17.998 20.758,17.848C21.015,17.698 21.255,17.818 21.255,17.818C21.255,17.818 21.362,17.562 21.737,17.562C22.114,17.562 22.204,17.758 22.43,17.848C22.656,17.938 22.942,17.984 22.942,17.984L23.067,17.984C23.067,17.984 23.353,17.938 23.579,17.848C23.805,17.758 23.895,17.562 24.272,17.562C24.648,17.562 24.754,17.818 24.754,17.818C24.754,17.818 24.995,17.698 25.252,17.848C25.507,17.998 25.402,18.467 25.282,18.812C25.161,19.158 25.086,19.866 25.086,19.866Z" fill="#cf0828" />
  <path d="M20.654,18.852C20.623,18.831 20.586,18.799 20.54,18.753C20.156,18.368 20.042,17.781 20.156,17.397C20.269,17.013 20.518,16.629 21.105,16.629C21.693,16.629 22.077,16.945 22.348,17.104C22.478,17.179 22.651,17.226 22.775,17.261L22.775,17.058C22.597,16.971 22.473,16.784 22.473,16.568C22.473,16.351 22.597,16.164 22.775,16.077L22.775,15.755L22.527,15.755L22.527,15.378L22.775,15.378L22.775,15.122L23.226,15.122L23.226,15.378L23.475,15.378L23.475,15.755L23.226,15.755L23.226,16.078C23.404,16.165 23.528,16.351 23.528,16.568C23.528,16.784 23.404,16.971 23.226,17.057L23.226,17.263C23.351,17.228 23.529,17.181 23.662,17.104C23.932,16.945 24.315,16.629 24.904,16.629C25.491,16.629 25.74,17.013 25.852,17.397C25.966,17.781 25.852,18.368 25.468,18.753C25.423,18.798 25.386,18.83 25.356,18.851C25.365,18.982 25.373,19.165 25.356,19.28C25.325,19.475 25.205,19.881 25.205,19.881L24.888,19.732L25.129,19.385L24.724,19.475C24.724,19.475 24.769,19.039 24.784,18.978C24.799,18.918 25.115,19.158 25.115,19.158L25.025,18.677L25.267,18.688C25.303,18.569 25.374,18.421 25.445,18.323C25.626,18.075 25.65,17.442 25.356,17.194C24.904,16.808 24.321,17.046 24.045,17.238C23.745,17.449 23.414,17.539 23.226,17.576L23.226,18.452L23.334,18.452L23.138,18.948L23.59,18.708L23.59,19.369L23.152,19.219L23.384,19.57C23.557,19.575 23.718,19.584 23.87,19.597L24.06,19.416L24.06,19.159L23.758,19.34L23.805,18.904L24.121,18.904C24.121,18.904 23.835,18.362 24.255,18.345C24.637,18.331 24.376,18.918 24.376,18.918L24.678,18.948L24.603,19.416L24.392,19.175L24.376,19.445L24.525,19.691C24.748,19.738 24.963,19.801 25.187,19.882C25.187,19.882 25.233,20.275 25.142,20.47C25.058,20.653 23.263,20.377 23.016,20.338C22.769,20.377 20.975,20.653 20.89,20.47C20.8,20.275 20.846,19.882 20.846,19.882C21.061,19.804 21.267,19.743 21.481,19.697L21.632,19.445L21.618,19.175L21.407,19.416L21.331,18.948L21.632,18.918C21.632,18.918 21.372,18.331 21.752,18.345C22.175,18.362 21.888,18.904 21.888,18.904L22.205,18.904L22.25,19.34L21.949,19.159L21.949,19.416L22.14,19.599C22.305,19.584 22.479,19.575 22.667,19.57L22.852,19.219L22.415,19.324L22.415,18.737L22.822,18.932L22.627,18.452L22.775,18.452L22.775,17.575C22.587,17.537 22.26,17.446 21.963,17.238C21.688,17.046 21.105,16.808 20.653,17.194C20.359,17.442 20.382,18.075 20.564,18.323C20.635,18.421 20.706,18.569 20.742,18.688L20.985,18.677L20.895,19.158C20.895,19.158 21.211,18.918 21.226,18.978C21.24,19.039 21.286,19.475 21.286,19.475L20.878,19.385L21.119,19.732L20.804,19.881C20.804,19.881 20.683,19.475 20.653,19.28C20.635,19.165 20.644,18.983 20.654,18.852Z" fill="#fdbb11" />
  <path d="M25.425,20.869C25.425,21.165 24.339,21.402 23.001,21.402C21.662,21.402 20.575,21.165 20.575,20.869C20.575,20.573 21.662,20.334 23.001,20.334C24.339,20.334 25.425,20.573 25.425,20.869Z" fill="#fafafa" />
  <path d="M24.629,21.064C24.629,21.227 23.9,21.359 23.001,21.359C22.101,21.359 21.371,21.227 21.371,21.064C21.371,20.902 22.101,20.77 23.001,20.77C23.9,20.77 24.629,20.902 24.629,21.064Z" fill="#b7c0c5" />
  <path d="M22.023,7.441L22.52,8.058C22.52,8.058 22.867,7.848 22.882,7.893C22.898,7.938 22.852,8.405 22.852,8.405L23.093,8.465L22.897,9.083C22.897,9.083 23.199,8.918 23.183,8.978C23.168,9.038 23.093,9.565 23.093,9.565L23.214,9.641L23.198,10.228C23.198,10.228 23.319,10.438 23.319,10.394C23.319,10.349 23.439,9.626 23.439,9.626L23.605,9.762L23.664,9.385L23.8,8.738L23.951,8.978L24.267,7.908L24.433,8.285L24.809,7.848L25.065,7.833L25.442,7.728L25.518,7.953L25.864,7.953C25.864,7.953 25.684,8.104 25.698,8.148C25.712,8.194 26.029,8.359 25.984,8.375C25.938,8.39 25.17,8.314 25.17,8.314L24.735,8.751L25.005,8.842L24.598,9.082L24.945,9.188L24.628,9.428L24.9,9.398L24.463,9.73L24.9,9.821L24.312,10.122L24.448,10.272L23.861,10.619L23.785,10.86L24.342,10.423C24.342,10.423 24.795,10.122 25.02,9.986C25.246,9.851 25.427,9.595 25.805,9.489C26.182,9.384 26.904,9.505 26.904,9.505L26.225,9.866L26.362,10.077L25.925,10.212L25.985,10.468L25.262,10.574L25.277,10.845L24.659,10.951L24.584,11.207L24.162,11.358L24.358,11.523C24.358,11.523 23.996,11.644 24.042,11.658C24.088,11.674 24.569,11.718 24.569,11.718C24.569,11.718 24.328,11.929 24.372,11.929C24.418,11.929 25.02,11.959 25.02,11.959L24.764,12.14L25.368,12.17L25.095,12.381C25.095,12.381 25.592,12.426 25.592,12.472C25.592,12.516 25.382,12.742 25.382,12.742L25.818,12.788C25.818,12.788 25.608,13.013 25.652,13.029C25.699,13.044 26.271,13.435 26.271,13.435L25.592,13.345C25.592,13.345 25.427,13.571 25.412,13.525C25.398,13.481 25.232,13.209 25.232,13.209L25.066,13.39L24.886,13.028C24.886,13.028 24.675,13.148 24.689,13.104C24.705,13.058 24.448,12.772 24.448,12.772L24.388,12.908L24.223,12.502L24.073,12.712L23.786,12.32L23.681,12.485L23.288,12.139C23.288,12.139 23.274,12.365 23.288,12.411C23.304,12.456 23.575,12.652 23.575,12.652C23.575,12.652 23.395,12.727 23.395,12.772C23.395,12.817 23.757,13.103 23.757,13.103L23.591,13.224L23.982,13.555C23.982,13.555 23.621,13.631 23.665,13.661C23.712,13.691 23.892,13.932 23.892,13.932L23.742,14.293L23.441,13.826L23.275,13.872L23.244,13.48L23.079,13.465L23.168,13.028L22.988,13.058L22.973,12.697L22.897,12.335L22.747,12.094C22.747,12.094 22.642,12.275 22.656,12.319C22.672,12.365 22.793,12.651 22.793,12.651C22.793,12.651 22.627,12.741 22.656,12.786C22.687,12.832 22.852,13.162 22.852,13.162C22.852,13.162 22.491,13.238 22.536,13.238C22.582,13.238 22.702,13.448 22.702,13.448L22.506,13.524L22.416,13.75C22.416,13.75 22.191,13.494 22.205,13.539C22.221,13.585 22.07,14.006 22.07,14.006L21.845,13.75L22.07,12.862L21.798,12.786L21.602,13.193C21.602,13.193 21.437,12.998 21.422,13.042C21.406,13.088 21.241,13.389 21.241,13.389C21.241,13.389 21.047,13.058 21.062,13.103C21.076,13.148 20.835,13.631 20.835,13.631C20.835,13.631 20.624,13.208 20.624,13.269C20.624,13.329 20.474,13.857 20.474,13.857C20.474,13.857 20.234,13.45 20.248,13.525C20.264,13.601 20.082,13.948 20.082,13.948L20.036,13.571L19.705,13.766L20.082,13.224L20.715,12.636L21.197,12.275L20.878,12.231C20.878,12.231 21.338,12.072 21.39,12.065C21.527,12.05 21.181,11.93 21.181,11.93L22.024,11.674C22.024,11.674 21.648,11.478 21.602,11.523C21.557,11.568 21.105,11.658 21.105,11.658L21.045,11.312L20.578,11.508C20.578,11.508 20.502,11.191 20.488,11.236C20.473,11.282 20.111,11.477 20.111,11.477L19.932,11.282L19.72,11.613L19.478,11.432L19.043,11.568L19.253,11.252L19.012,11.116L19.509,10.8L19.615,10.589L20.293,10.635C20.293,10.635 20.112,10.393 20.142,10.438C20.173,10.484 20.835,10.589 20.835,10.589L21.032,10.559L21.694,10.8L21.152,10.363L20.685,10.272L20.986,10.032L20.278,9.776L20.429,9.535L19.494,9.295L20.068,9.144L19.675,8.481L20.488,8.963L20.85,8.842L21.032,9.309L21.363,9.505L21.422,9.852L21.588,9.776L21.738,10.182L21.935,10.122L22.04,10.408L22.328,10.423L22.251,10.046L22.371,9.865L22.039,9.594L22.327,9.458L21.904,9.112L22.265,9.066L21.753,8.569L22.161,8.585L21.753,8.118L22.085,8.042L22.023,7.441Z" fill="#60BC55" />
</svg>
