<svg width="32" height="32" viewBox="0 0 32 32" xmlns="http://www.w3.org/2000/svg">
  <polygon fill="#F4F4F4" points="2,12.75 3,11.75 29,11.75 30,12.75 30,19.25 29,20.25 3,20.25 2,19.25" />
  <rect fill="#CF0828" x="2" y="6" width="28" height="6.75" />
  <rect fill="#1c1c1c" x="2" y="19.25" width="28" height="6.75" />
  <path fill="#01773f" d="M15.8129,17.3665h-4.7642c-0.0374,0.3357-0.3837,0.5817-0.7735,0.5496c-0.0423-0.0035-0.0842-0.0103-0.1252-0.0202c0.6672-0.3275,0.6254-0.6598,0.2044-1.3985c0.2339-0.0837,0.2708-0.1059,0.5072-0.2659c-0.1674,0.5072,0.4333,0.4456,0.8765,0.4456c0-0.1773,0.0172-0.3792-0.1157-0.4062c0.1723-0.0616,0.1871-0.0813,0.4604-0.3127v0.682h3.2869v-0.4678c0-0.0544-0.0441-0.0985-0.0985-0.0985s-0.0985,0.0441-0.0985,0.0985v0.2708c0,0.0408-0.0331,0.0739-0.0739,0.0739l0,0h-2.5114v-0.4432l1.886-1.822c-0.0123,0.0936,0.1822,0.3447,0.2634,0.3866c-0.0616,0.0098-0.1305-0.0025-0.1748,0.0419l-1.5437,1.492h1.7112c0-0.3964,0.3693-0.3964,0.5417-0.5367c0.1723,0.1403,0.5417,0.1403,0.5417,0.5367V17.3665z M16.1699,17.3665v-3.1146c0.1748,0.096,0.3102,0.2068,0.5269,0.261c-0.0098,0.1231-0.1206,0.1625-0.1206,0.2487v1.9155c0.2413,0.0542,0.2955-0.0862,0.4112-0.1576c0.0295,0.3053,0.2241,0.6057,0.2167,0.847H16.1699z M19.4248,15.286l0.3816-0.3201v1.6742h0.2708v-1.9032c0.133-0.1108,0.3053-0.2314,0.3816-0.3718v3.0013h-2.4006c-0.0345-0.6205-0.0345-1.2581,0.6894-1.1203v-0.2536c0-0.0591-0.0886-0.0123-0.0886-0.0665l0.4949-0.4136v1.1277h0.2708V15.286z M19.2992,14.4292c-0.0468,0.0025-0.1182-0.2536-0.1009-0.3028c0.0172-0.0566,0.0813-0.0566,0.1083-0.0295C19.3509,14.1386,19.346,14.4267,19.2992,14.4292z M18.8536,14.7763c-0.1354-0.0788-0.1133-0.1108,0.0049-0.0763c0.2044,0.0616,0.3078,0.0098,0.4555-0.1403l0.1108,0.0566c0.1453,0.0739,0.2339,0.0419,0.2856-0.1354c0.0148-0.0542,0.0591-0.0394,0.0714,0.0222c0.0468,0.2462-0.1403,0.3225-0.3299,0.2536c-0.1034-0.0345-0.1206-0.0345-0.1723,0.0049C19.1663,14.8502,19.0038,14.865,18.8536,14.7763z M20.8159,17.3665v-3.1146c0.1748,0.096,0.3102,0.2068,0.5269,0.261c-0.0098,0.1231-0.1206,0.1625-0.1206,0.2487v1.9155c0.2413,0.0542,0.2955-0.0862,0.4112-0.1576c0.0295,0.3053,0.2241,0.6057,0.2167,0.847H20.8159z M11.482,17.7112c0-0.0802,0.065-0.1453,0.1453-0.1453c0.0802,0,0.1453,0.065,0.1453,0.1453c0,0.0802-0.065,0.1453-0.1453,0.1453C11.547,17.8564,11.482,17.7914,11.482,17.7112z M18.5261,16.5786c0,0.0462,0.0496,0.0837,0.1108,0.0837s0.1108-0.0375,0.1108-0.0837c0-0.0462-0.0496-0.0837-0.1108-0.0837S18.5261,16.5324,18.5261,16.5786z" />
</svg>