<svg width="32" height="32" viewBox="0 0 32 32" xmlns="http://www.w3.org/2000/svg">
  <polygon fill="#072975" points="2,6 30,6 30,13 29,14 3,14 2,13" />
  <rect x="2" y="13" fill="#1C1C1C" width="28" height="13" />
  <path fill="#FCD53F" d="M7.1545,11.0613c0,0,0.0339-1.1665-0.7225-1.7912C5.6764,8.6454,5.2,9.319,5.2324,9.6976c0.0331,0.3778,0.3589,0.8708,0.9599,1.0514c-0.3683-0.7233,0.1317-0.7367,0.3052-0.6405c0.2453,0.1357,0.3778,0.493,0.3778,0.9528C6.8753,11.0613,7.1545,11.0613,7.1545,11.0613z M7.5008,7.0025C6.6789,7.43,6.712,8.6951,6.9747,9.3355c0.2626,0.6412,0.3289,1.7257,0.3289,1.7257h0.3944c0,0,0.0655-1.0845,0.3289-1.7257C8.2895,8.6951,8.3218,7.4292,7.5008,7.0025z M7.8462,11.0613c0,0-0.0339-1.1665,0.7225-1.7912c0.7556-0.6247,1.232,0.0489,1.1989,0.4275c-0.0331,0.3778-0.3589,0.8708-0.9599,1.0514c0.3683-0.7233-0.1317-0.7367-0.3052-0.6405c-0.2453,0.1357-0.3778,0.493-0.3778,0.9528C8.1246,11.0613,7.8462,11.0613,7.8462,11.0613z M7.5008,11.2088L6.809,11.2664l0.6917,0.0576l0.6909-0.0576L7.5008,11.2088z M8.3999,12.0638c-0.4314-0.2343-0.5537-0.5915-0.5537-0.5915H7.1545c0,0-0.1223,0.3573-0.5537,0.5915c0.3817,0.0615,0.7761-0.1357,0.7761-0.1357S7.1545,12.4708,7.5,13c0.3455-0.53,0.123-1.0719,0.123-1.0719S8.0182,12.1253,8.3999,12.0638z" />
  <path fill="#FCD53F" d="M15.6545,11.0613c0,0,0.0339-1.1665-0.7225-1.7912c-0.7556-0.6247-1.2328,0.0489-1.1997,0.4275c0.0331,0.3778,0.3589,0.8708,0.9599,1.0514c-0.3683-0.7233,0.1317-0.7367,0.3052-0.6405c0.2453,0.1357,0.3778,0.493,0.3778,0.9528C15.3753,11.0613,15.6545,11.0613,15.6545,11.0613z M16,7.0025c-0.8219,0.4275-0.7887,1.6926-0.5261,2.3331c0.2626,0.6412,0.3289,1.7257,0.3289,1.7257h0.3944c0,0,0.0655-1.0845,0.3289-1.7257C16.7887,8.6951,16.8219,7.4292,16,7.0025z M16.3455,11.0613c0,0-0.0339-1.1665,0.7225-1.7912c0.7556-0.6247,1.232,0.0489,1.1997,0.4275c-0.0331,0.3778-0.3589,0.8708-0.9607,1.0514c0.3691-0.7233-0.1317-0.7367-0.3052-0.6405c-0.2453,0.1357-0.3778,0.493-0.3778,0.9528H16.3455z M16,11.2088l-0.6917,0.0576L16,11.3239l0.6917-0.0576L16,11.2088z M16.8999,12.0638c-0.4314-0.2343-0.5537-0.5915-0.5537-0.5915h-0.6917c0,0-0.1223,0.3573-0.5537,0.5915c0.3817,0.0615,0.7761-0.1357,0.7761-0.1357S15.6545,12.47,16,13c0.3455-0.53,0.123-1.0719,0.123-1.0719S16.5174,12.1253,16.8999,12.0638z" />
  <path fill="#FCD53F" d="M24.1541,11.0613c0,0,0.0339-1.1665-0.7217-1.7912c-0.7564-0.6247-1.2328,0.0489-1.1997,0.4275c0.0331,0.3778,0.3589,0.8708,0.9599,1.0514c-0.3683-0.7233,0.1325-0.7367,0.306-0.6405c0.2453,0.1357,0.3778,0.493,0.3778,0.9528C23.8765,11.0613,24.1541,11.0613,24.1541,11.0613z M24.5004,7.0025c-0.8219,0.4275-0.7887,1.6926-0.5253,2.3331c0.2626,0.6412,0.3281,1.7257,0.3281,1.7257h0.3944c0,0,0.0655-1.0845,0.3281-1.7257C25.2891,8.6951,25.3223,7.4292,24.5004,7.0025z M24.8459,11.0613c0,0-0.0339-1.1665,0.7225-1.7912c0.7556-0.6247,1.232,0.0489,1.1989,0.4275c-0.0331,0.3778-0.3589,0.8708-0.9607,1.0514c0.3691-0.7233-0.1317-0.7367-0.3052-0.6405c-0.2453,0.1357-0.3778,0.493-0.3778,0.9528C25.1235,11.0613,24.8459,11.0613,24.8459,11.0613z M24.5004,11.2088l-0.6917,0.0576l0.6917,0.0576l0.6917-0.0576L24.5004,11.2088z M25.3995,12.0638c-0.4314-0.2343-0.5537-0.5915-0.5537-0.5915h-0.6909c0,0-0.1223,0.3573-0.5537,0.5915c0.3817,0.0615,0.7761-0.1357,0.7761-0.1357S24.1549,12.4708,24.5004,13c0.3455-0.53,0.123-1.0719,0.123-1.0719S25.0178,12.1253,25.3995,12.0638z" />
  <path fill="#008E48" d="M24.4118,24.0722c0,0-6.4205-3.3777-9.5267-4.3971c-3.1062-1.0194-3.9352-0.2233-4.1103,0.1591c0.3349-0.9085,0.6852-1.131,0.6852-1.131s-1.2266,0.3181-1.2105,1.0828c-0.2546-0.6852,0.6049-1.5294,1.7366-1.5455c-1.0194-0.1438-2.7881,0.0161-3.1062,1.0194c0.0161-1.0354,1.8162-1.3222,2.5488-1.2908c-1.8322-0.5735-3.3616-0.5575-3.4733,0.2072c-0.1277-0.3349,0.2233-0.6095,0.2233-0.6095s-0.7173-0.0604-1.0675,0.2585c-0.0161-0.2868,1.1631-0.5728,1.7366-0.5093c-1.0033-0.3984-1.7841-0.4634-1.9752-0.0092c-0.065-0.5307,1.7994-0.6745,2.6596-0.4833c-2.0074-0.7326-2.756-1.0194-3.5046-0.2386c0-0.5414,0.6531-0.7486,1.1149-0.7012c-0.3984-0.4145-0.7005-0.6852-1.1149-0.7012c0.2386-0.0956,0.7486,0.0956,0.7486,0.0956s-0.5735-0.6056-0.9719-0.7968c0.7012,0.1116,2.0074,1.4659,2.1029,1.5768c0.0956,0.1109,0.6531,0.2386,0.6531,0.2386s-1.8162-1.482-1.8796-1.9592c0.7486,0.3663,2.2146,1.9752,2.2146,1.9752s0.3663,0.2072,0.3824,0.0474c0.0161-0.1591-2.1985-1.6089-2.1664-2.4379c0.4458,0.6209,1.0836,1.3222,1.0836,1.3222s-0.4619-0.6056-0.4145-1.1631c0.4458,0.7968,1.1149,1.768,1.7206,2.1029c-0.9956-0.9773-1.0996-1.5455-1.0194-1.7527c0.5414,0.988,1.4178,1.9752,1.5615,2.0395c0.1438,0.0642,0.2233,0.0474,0.2233,0.0474s-0.6209-0.6531-0.7173-1.0675c0.4298,0.3028,0.7326,1.0033,0.8282,1.0354c0.0956,0.0321,0.2072-0.0321,0.2072-0.0321s-0.9238-0.9559-0.9238-1.4178c0.4458,0.3502,1.0354,1.3222,1.1149,1.4659s0.4458,0.3984,0.494,0.2868c0.0482-0.1116-1.3222-1.3543-0.9238-1.5615c0.637,0.5261,1.0033,1.2908,1.0675,1.3061c0.0642,0.0153,0.3502,0.1277,0.3028,0.0321c-0.0474-0.0956-0.8985-1.1708-0.6852-1.768c0.0466,0.6339,0.7012,1.8483,1.8322,2.119s4.4926,2.5327,6.7386,3.2026s6.2928,1.5615,6.2928,1.5615l-0.1277,0.1912c0,0-5.9425-1.5615-5.9425-1.5134c0,0.0482,0.1751,0.2072,0.1751,0.2072s5.7039,1.4973,5.6879,1.5455c-0.0161,0.0482-0.1285,0.2722-0.1285,0.2722l-5.7827-1.8001H19.601c0,0,5.7674,1.9439,5.7674,1.9913c0,0.0474-0.1116,0.2546-0.1116,0.2546l-5.9586-2.2467l0.1912,0.2233c0,0,5.6879,2.1656,5.6718,2.2299c-0.0161,0.0642-0.1598,0.2233-0.1598,0.2233l-5.4164-2.2146l-0.3189-0.0795l5.6397,2.4379l-0.1751,0.2072l-5.2413-2.3255h-0.1751l5.3055,2.6291C24.6198,23.9139,24.4118,24.0722,24.4118,24.0722z" />
  <path fill="#FCD53F" d="M21.6214,20.9109c0,0-0.1981-0.6752-1.5072-0.7028l0.0031-0.0031c0.7135-0.7135,1.3619-0.6462,1.7168-0.507c0,0-0.3311-0.5965-1.5722-0.3755c0.5475-0.7739,1.1708-0.8366,1.5355-0.7724c0,0-0.4573-0.5536-1.6938-0.0329c0.0076-0.0176,0.0184-0.0329,0.0252-0.052c0.3602-0.9421,0.9796-1.1455,1.3604-1.1631c0,0-0.5437-0.416-1.5852,0.2914c0.1874-0.9215,0.728-1.2319,1.0866-1.3206c0,0-0.6401-0.3174-1.5516,0.6508c0-0.013,0.0023-0.0245,0.0015-0.0367c-0.0497-1.0064,0.4336-1.4438,0.7754-1.6128c0,0-0.6852-0.1682-1.3619,0.9536l-0.0008-0.0038c-0.2623-0.9727,0.1185-1.5026,0.4168-1.7405c0,0-0.6989-0.0184-1.1249,1.2052c-0.4428-0.8855-0.1843-1.4766,0.0566-1.768c0,0-0.6844,0.13-0.8481,1.4101c-0.611-0.7739-0.4802-1.404-0.3051-1.7382c0,0-0.6439,0.2684-0.5399,1.5562c-0.7609-0.6324-0.7624-1.2763-0.6592-1.6403c0,0-0.5751,0.3954-0.2072,1.6349c-0.8748-0.4596-1.0117-1.0912-0.9865-1.469c0,0-0.4848,0.5078,0.1407,1.6525c-0.9681-0.2638-1.2358-0.8588-1.2901-1.2358c0,0-0.3663,0.5919,0.4688,1.5707c-0.9742-0.0711-1.352-0.5881-1.4805-0.9421c0,0-0.2432,0.6653,0.806,1.4629c-0.0061,0.0008-0.0115,0-0.0176,0.0015c-0.9941,0.1568-1.482-0.2776-1.6862-0.6003c0,0-0.0895,0.6745,1.0331,1.2235c-0.8825,0.286-1.417-0.0252-1.6694-0.2921c0,0,0.0405,0.7173,1.3459,1.027c-0.0168,0.0099-0.0336,0.0161-0.0505,0.0268c-0.8458,0.546-1.4675,0.3456-1.7841,0.1338c0,0,0.1981,0.6752,1.5065,0.7028l-0.0038,0.0031c-0.7112,0.7119-1.3612,0.6477-1.716,0.507c0,0,0.3311,0.5972,1.5715,0.3755c-0.546,0.7724-1.17,0.8381-1.5348,0.7724c0,0,0.4573,0.5536,1.6931,0.0321c-0.0076,0.0184-0.0184,0.0336-0.0252,0.052c-0.3586,0.9398-0.9788,1.1471-1.3596,1.1631c0,0,0.5429,0.416,1.5837-0.2906c-0.1858,0.9199-0.7265,1.2327-1.0851,1.3199c0,0,0.6393,0.3174,1.5508-0.6508c0,0.0122-0.0023,0.0237-0.0015,0.0367c0.0512,1.0048-0.4321,1.4445-0.7746,1.6128c0,0,0.6852,0.1682,1.3619-0.9536l0.0008,0.0038c0.2631,0.9719-0.1178,1.5026-0.416,1.7397c0,0,0.6989,0.0184,1.1241-1.2044c0.4428,0.884,0.1851,1.4759-0.0566,1.768c0,0,0.6844-0.1308,0.8481-1.4101c0.6118,0.7731,0.481,1.4032,0.3051,1.7374c0,0,0.6439-0.2684,0.5406-1.5562c0.7609,0.6316,0.7624,1.2763,0.6592,1.6395c0,0,0.5751-0.3954,0.2072-1.6342c0.8771,0.4611,1.0102,1.0928,0.9865,1.4682c0,0,0.4841-0.507-0.1399-1.651c0.9696,0.2646,1.2335,0.8595,1.2901,1.2342c0,0,0.3655-0.5904-0.4672-1.5692c0.975,0.0711,1.3497,0.5888,1.4797,0.9406c0,0,0.2432-0.6645-0.806-1.4629l0.0161-0.0008c0.9964-0.1575,1.482,0.2784,1.6862,0.5995c0,0,0.0895-0.6737-1.0331-1.2243c0.8832-0.286,1.4162,0.0268,1.6694,0.2921c0,0-0.0405-0.7165-1.3451-1.0278c0.0168-0.0099,0.0336-0.0161,0.0497-0.026C20.6838,20.4979,21.3032,20.6998,21.6214,20.9109z" />
</svg>