<?xml version="1.0" encoding="UTF-8"?>
<svg xmlns="http://www.w3.org/2000/svg" xmlns:xlink="http://www.w3.org/1999/xlink" width="32px" height="32px" viewBox="0 0 32 32" version="1.1">
  <path fill="#00a6ed" d="M 6 6 L 26 6 L 26 26 L 6 26 Z M 6 6 "/>
  <path fill="#f4f4f4" d="M 12.953125 11.191406 C 12.953125 10.484375 13.433594 9.847656 14.296875 9.847656 L 18.703125 9.847656 C 19.464844 9.847656 19.859375 10.433594 19.859375 11.035156 C 19.859375 11.621094 19.480469 12.222656 18.703125 12.222656 L 15.535156 12.222656 L 15.535156 14.738281 L 18.207031 14.738281 C 19.03125 14.738281 19.445312 15.324219 19.445312 15.910156 C 19.445312 16.511719 19.03125 17.117188 18.207031 17.117188 L 15.535156 17.117188 L 15.535156 20.871094 C 15.535156 21.734375 14.984375 22.214844 14.242188 22.214844 C 13.503906 22.214844 12.949219 21.734375 12.949219 20.871094 L 12.949219 11.191406 Z M 12.953125 11.191406 "/>
</svg>
