<svg width="32" height="32" viewBox="0 0 32 32" xmlns="http://www.w3.org/2000/svg">
  <polygon fill="#00753B" points="2,6 13.5,6 16,7 18.5,6 30,6 30,13.5 29,16 30,18.5 30,26 18.5,26 16,25 13.5,26 2,26 2,18.5 3,16 2,13.5" />
  <polygon fill="#FCD53F" points="2,13.5 30,13.5 30,15.1667 29,16 3,16 2,15.1667" />
  <polygon fill="#f4f4f4" points="2,18.5 30,18.5 30,16.8883 29,16 3,16 2,16.8883" />
  <rect fill="#1c1c1c" x="2" y="15.1667" width="28" height="1.666" />
  <polygon fill="#FCD53F" points="13.5,6 13.5,26 15.1667,26 16,25 16,7 15.1667,6" />
  <polygon fill="#f4f4f4" points="18.5,6 18.5,26 16.8883,26 16,25 16,7 16.8883,6" />
  <rect fill="#1c1c1c" x="15.1667" y="6" width="1.666" height="20" />
  <circle fill="#E71A43" cx="16" cy="16" r="5" />
  <path fill="#00753B" d="M16,11.5333L15.8592,11.97h-0.4625l0.3758,0.2708l-0.1442,0.4367L16,12.4067l0.3708,0.2708l-0.1425-0.44l0.3742-0.2667h-0.46L16,11.5333z M13.4333,12.3667l0.1425,0.4358l-0.3733,0.2717l0.4625-0.0008l0.14,0.4375l0.1408-0.4375l0.46,0.0008l-0.3733-0.2717l0.1458-0.435l-0.3725,0.27L13.4333,12.3667z M11.8467,14.5508l0.3717,0.2683l-0.1425,0.4392l0.3742-0.2725l0.3708,0.2717L12.6775,14.82l0.3725-0.2692L12.5875,14.55l-0.1383-0.4375l-0.1417,0.4383L11.8467,14.5508z M11.8467,17.25l0.4583-0.0017l0.1425,0.4392l0.1425-0.4408l0.46,0.0017L12.6775,16.98l0.1433-0.4375l-0.375,0.2708l-0.3683-0.2725l0.1425,0.4375L11.8467,17.25z M13.4333,19.4325l0.37-0.27l0.3733,0.2717l-0.1433-0.4408l0.3733-0.2683l-0.46,0.0008l-0.1417-0.4375l-0.1433,0.4392l-0.4583-0.0025l0.3725,0.27L13.4333,19.4325z M16,20.2658l0.1408-0.4358h0.4617l-0.3758-0.2717l0.1442-0.4367L16,19.3933l-0.3708-0.2717l0.1417,0.4392l-0.3733,0.2675h0.46L16,20.2658z M18.5667,19.4325l-0.1433-0.4358l0.3733-0.2717l-0.4625,0.0008l-0.14-0.4375l-0.1408,0.4375l-0.46-0.0008l0.3733,0.2717l-0.1458,0.4358l0.3733-0.2717L18.5667,19.4325z M20.1525,17.2483L19.7808,16.98l0.1425-0.4392l-0.3742,0.2725l-0.37-0.2717l0.1425,0.4367l-0.3717,0.27h0.4617l0.1383,0.4375l0.1425-0.4375L20.1525,17.2483z M20.1517,14.55l-0.4575,0.0008l-0.1425-0.4392l-0.1425,0.4408l-0.46-0.0025l0.3725,0.2692l-0.1425,0.4375l0.3742-0.2708l0.3683,0.2725L19.7792,14.82L20.1517,14.55z M18.5658,12.3667l-0.37,0.27l-0.3733-0.2708l0.1425,0.44l-0.3725,0.2683l0.46-0.0008l0.1417,0.4375l0.1433-0.44l0.4575,0.0042l-0.3717-0.27L18.5658,12.3667z" />
  <path fill="#00753B" d="M17.3283,18.3483c-0.015-0.1142-0.0508-0.5433-0.0575-0.885c-0.0042-0.23-0.4217-0.5383-0.6975-0.5358c-0.1883-0.385-0.7392-0.85-1.1092-0.48c-0.0358,0.2575,0.0283,0.7583,0.15,0.95l0.565,0.1283c0.0567-0.0358,0.1208-0.12,0.1425-0.1917c0.0158-0.005,0.0258-0.02,0.0408-0.0267c0.105,0.4058,0.3142,1.0392,0.3733,1.1908c0.0642,0.1642,0.1575,0.5,0.365,0.5583c0.0925,0.0492,0.2217,0.0133,0.1642-0.415C17.3283,18.6267,17.3417,18.4625,17.3283,18.3483z" />
  <path fill="#8D65C5" d="M16.7167,14.1333c0.0108,0.085,0.0642,0.1717,0.1283,0.225c-0.0425,0.0317-0.0642,0.075-0.075,0.1067c-0.2358,0.2033-0.7825,1.6175-0.7925,1.9283C15.94,16.5592,15.8642,16.8225,15.8,16.935c-0.3642-0.3267-0.7392-0.9375-0.6767-1.2125c-0.0217-0.0033-0.0533-0.0067-0.0892-0.0175c0.0075-0.025,0.0208-0.15,0.025-0.225c-0.0217,0-0.0608,0-0.0933-0.0108c0.0075-0.0467,0.0217-0.1825,0.0217-0.2433c-0.0358-0.0108-0.0792-0.0467-0.1108-0.0825c0.0242-0.0642,0.0892-0.1892,0.1217-0.2642c-0.0533-0.0067-0.0925-0.0608-0.1108-0.0925c0.0467-0.0283,0.1075-0.1108,0.1317-0.1608c-0.0392-0.0325-0.085-0.0783-0.0925-0.1c0.05-0.0467,0.1967-0.2067,0.2608-0.2958c-0.04,0-0.0533-0.0033-0.0867-0.0108c0.0533-0.0208,0.115-0.1,0.1867-0.1675c0.1225,0.1067,0.3567,0.0875,0.4692,0.0233c0.2033,0.1175,0.4233,0.1342,0.7075,0.0425C16.5192,14.1333,16.6633,14.155,16.7167,14.1333z" />
  <path fill="#00753B" d="M17.5317,18.0233c0.0425-1.5108-0.215-2.8933-0.6108-3.3967c-0.3967-0.5042-1.1242-0.3917-1.3283,0.0425c-0.0867,0.1825-0.0983,0.6175-0.0117,0.8042c0.1508,0.3217,0.7292,1.3392,1.1258,1.725C17.1025,17.5833,17.3808,17.8408,17.5317,18.0233z" />
  <path fill="#B76A1E" d="M16.935,17.6633c-0.1142,0.0133-0.25-0.015-0.3575-0.065c-0.1075-0.0508-0.2-0.0992-0.3142-0.0992c-0.115,0-0.7358-0.0442-0.8358-0.08c-0.1-0.0358-0.3792-0.085-0.4933-0.0783c-0.1142,0.0067-0.2933,0.0867-0.365,0.0867s-0.1067,0.0567-0.1067,0.1142c0,0.0567,0.0142,0.1642,0.0992,0.2217c0.1508-0.0067,0.365-0.0208,0.3933-0.05c0.2075,0.0567,0.4858,0.1158,0.6575,0.1217c0.1717,0.0067,0.4783,0.0208,0.5933,0.015c0.1142-0.0083,0.135-0.0442,0.2858,0.0067c0.15,0.05,0.35,0.1575,0.4425,0.1858c0.0925,0.0292,0.15-0.0633,0.1708-0.1642C17.1283,17.7775,17.0567,17.655,16.935,17.6633z" />
  <path fill="#FCD53F" d="M15.3992,13.5017c-0.0042,0-0.0092,0.005-0.0133,0.005c-0.0325-0.1442-0.1825-0.2458-0.2667-0.2417c-0.2617,0.0692-0.2467,0.5525-0.0108,0.7183c-0.0067-0.0867,0.0233-0.1567,0.065-0.2175c0.0192,0.0583,0.0642,0.1133,0.1817,0.1275C15.4792,13.8492,15.4367,13.5758,15.3992,13.5017z" />
  <path fill="#8D65C5" d="M15.2883,14.0517c0.1225,0.1067,0.3567,0.0875,0.4692,0.0233c0.2033,0.1175,0.4233,0.1342,0.7075,0.0425c0.0533,0.0167,0.1975,0.0375,0.2517,0.0167c0.0325-0.0325,0.0642-0.0533,0.0967-0.075c-0.0642-0.0533-0.1283-0.15-0.1608-0.2458c0,0,0.0542-0.065,0.075-0.0967c-0.0525-0.0533-0.16-0.1392-0.2142-0.1717c0.0325-0.0317,0.0642-0.1283,0.0642-0.1283c-0.1075-0.0317-0.2142-0.1067-0.2575-0.15l0.0108-0.0642c-0.175-0.0108-0.1675-0.225-0.5458-0.2892c-0.2575-0.0433-0.6433,0.0642-0.665,0.3533c0.1433,0.1392,0.3617,0.325,0.2358,0.6283c-0.0325,0.0433-0.0925,0.1-0.1283,0.1183C15.2492,14.0367,15.2633,14.04,15.2883,14.0517z" />
  <path fill="#FCD53F" d="M16.285,17.8492c-0.0717-0.0083-0.1425-0.0867-0.1425-0.15c0-0.065,0.0067-0.1942,0.1283-0.2083c-0.04-0.0683-0.0967-0.0867-0.1517-0.0783c-0.0517-0.0625-0.1342-0.0758-0.2133-0.0583c0.0025-0.0033,0.0042-0.0108,0.0075-0.0133c-0.0667-0.0542-0.1433-0.0425-0.21-0.0092c-0.1233-0.0725-0.3108,0.0183-0.34,0.245c-0.0283,0.2217,0.0858,0.3792,0.25,0.3708V17.945c0.0742,0.0367,0.18,0.0033,0.2075-0.04L15.82,17.8892c0.0683,0.045,0.1367,0.0458,0.1975,0.0025c0.0217,0.02,0.0425,0.0417,0.075,0.0492C16.1858,17.9633,16.2567,17.885,16.285,17.8492z" />
  <path fill="#FCD53F" d="M15.635,13.1583c-0.1925,0-0.1875,0.2892,0,0.2892S15.8275,13.1583,15.635,13.1583z" />
  <path fill="#1c1c1c" d="M15.635,13.2667c-0.0483,0-0.0467,0.0717,0,0.0717C15.6817,13.3392,15.6833,13.2667,15.635,13.2667z" />
</svg>