<svg width="32" height="32" viewBox="0 0 32 32" xmlns="http://www.w3.org/2000/svg">
  <polygon fill="#062365" points="16,6 30,6 30,26 2,26 2,16" />
  <polygon fill="#062365" points="4.1,6 7.25,6 9,7 10.75,6 13.9,6 16,7.5 16,9.25 15,11 16,12.75 16,14.5 13.9,16 10.75,16 9,15 7.25,16 4.1,16 2,14.5 2,12.75 3,11 2,9.25 2,7.5" />
  <polygon fill="#F4F4F4" points="16,6 15.3,6.25 14.6,6 13.9,6 10.75,8.25 10.75,6 10,6 9,6.5 8,6 7.25,6 7.25,8.25 4.1,6 2,6 2.25,6.5 2,7 2,7.5 4.45,9.25 2,9.25 2,10 2.5,11 2,12 2,12.75 4.45,12.75 2,14.5 2,16 2.7,15.75 3.4,16 4.1,16 7.25,13.75 7.25,16 8,16 9,15.5 10,16 10.75,16 10.75,13.75 13.9,16 16,16 15.75,15.5 16,15 16,14.5 13.55,12.75 16,12.75 16,12 15.5,11 16,10 16,9.25 13.55,9.25 16,7.5" />
  <path fill="#CF0828" d="M7.25,12.75h-0.7L2,16h1.4l3.85-2.75V12.75z M11.45,12.75L16,16v-1l-3.15-2.25H11.45z M10.75,9.25h0.7L16,6h-1.4l-3.85,2.75V9.25z M5.15,9.25L2,7V6l4.55,3.25H5.15z M16,12h-6v4H8v-4H2v-2h6V6h2v4h6V12z" />
  <path d="M19.41,19.582C19.622,19.185 19.77,18.788 19.942,18.668C20.115,18.548 21.084,18.644 21.272,18.86C21.461,19.076 21.364,20.194 20.992,20.819C20.62,21.444 19.925,21.685 19.665,21.636C19.405,21.588 19.237,21.119 19.189,20.951C19.141,20.782 19.3,20.722 19.665,20.831C20.031,20.939 20.571,20.014 20.559,19.677C20.247,19.448 19.973,19.629 19.851,19.905C19.731,20.183 19.41,19.582 19.41,19.582ZM26.59,19.582C26.59,19.582 26.269,20.183 26.148,19.905C26.026,19.629 25.752,19.448 25.44,19.677C25.428,20.014 25.962,20.939 26.328,20.831C26.693,20.722 26.851,20.782 26.804,20.951C26.756,21.119 26.594,21.588 26.334,21.636C26.074,21.685 25.379,21.444 25.007,20.819C24.634,20.194 24.538,19.076 24.727,18.86C24.916,18.644 25.884,18.548 26.058,18.668C26.23,18.788 26.378,19.185 26.59,19.582Z" fill="#b35f47" />
  <path d="M26.818,20.195C26.874,19.955 26.59,19.582 26.41,19.223C25.676,20.602 23.741,20.781 23,20.783C22.259,20.781 20.324,20.602 19.59,19.223C19.41,19.582 19.125,19.954 19.181,20.195C19.238,20.435 20.979,21.685 22.988,21.695L22.988,21.697L23,21.696L23.012,21.697L23.012,21.695C25.021,21.685 26.762,20.435 26.818,20.195Z" fill="#ffe5d9" />
  <path d="M18.925,20.387C18.889,20.226 18.865,19.978 19.262,19.954C19.658,19.93 19.622,20.399 19.666,20.639C19.709,20.88 19.923,21.3 19.754,21.252C19.791,20.988 19.301,20.782 19.41,21.438C19.185,21.142 18.976,20.611 18.925,20.387ZM27.074,20.387C27.024,20.611 26.814,21.142 26.59,21.438C26.699,20.782 26.209,20.988 26.245,21.252C26.077,21.3 26.291,20.88 26.334,20.639C26.378,20.399 26.341,19.93 26.738,19.954C27.134,19.978 27.111,20.226 27.074,20.387Z" fill="#e4b29a" />
  <path d="M26.616,10.343L19.404,10.343L19.404,15.343C19.404,19.734 23.01,20.695 23.01,20.695C23.01,20.695 26.616,19.734 26.616,15.343L26.616,10.343Z" fill="#f4f4f4" />
  <path d="M23.009,20.387C22.611,20.268 19.66,19.248 19.66,15.348L19.66,10.646L26.359,10.646L26.359,15.348C26.359,19.212 23.381,20.27 23.009,20.387Z" fill="#46a4fb" />
  <path d="M21.576,14.991C21.66,14.654 21.721,14.185 21.516,14.113C21.311,14.041 20.95,13.825 20.83,13.44C20.711,13.055 20.771,12.166 20.662,12.106C20.554,12.046 20.23,12.19 20.038,11.95C19.845,11.71 19.965,11.625 20.098,11.541C20.23,11.457 20.602,11.265 20.578,11.192C20.554,11.12 20.602,11.005 20.83,10.928C21.251,10.783 21.588,11.156 21.72,11.3C21.852,11.445 22.201,11.637 22.357,11.648C22.513,11.661 24.4,11.685 24.617,11.708C24.833,11.732 25.386,11.877 25.338,12.538C25.291,13.198 25.197,13.836 25.105,13.956C25.014,14.076 24.954,14.112 24.954,14.112C24.954,14.112 25.05,14.642 25.038,14.737C25.025,14.833 24.858,14.869 24.845,14.701C24.833,14.532 24.773,14.136 24.773,14.136L24.448,14.077C24.448,14.077 24.461,14.654 24.352,14.822C24.244,14.991 23.968,14.882 24.04,14.762C24.112,14.642 24.148,14.534 24.148,14.39C24.148,14.246 24.112,14.029 24.04,14.005C23.968,13.982 23.608,14.125 23.343,14.125C23.078,14.125 22.49,13.957 22.381,14.053C22.273,14.149 22.129,14.642 22.057,14.918C21.984,15.195 21.864,15.027 21.877,14.895C21.889,14.762 21.937,14.318 21.864,14.39C21.792,14.462 21.817,14.798 21.768,14.907C21.72,15.015 21.576,14.991 21.576,14.991Z" fill="#f4f4f4" />
  <path d="M20.722,14.389C20.722,14.389 20.878,15.286 21.468,15.675C22.057,16.065 24.528,15.964 24.953,15.663C25.378,15.362 25.77,14.629 25.77,14.629C25.77,14.629 25.421,14.629 25.301,14.497C24.953,14.689 24.748,14.605 24.677,14.485C24.401,14.761 24.424,14.593 24.388,14.508C24.148,14.785 23.799,14.617 23.691,14.521C23.451,14.677 23.091,14.581 23.018,14.485C22.742,14.725 22.333,14.665 22.249,14.557C22.069,14.858 21.804,14.749 21.66,14.653C21.455,14.845 21.371,14.629 21.299,14.497C21.131,14.786 20.854,14.582 20.722,14.389Z" fill="#44911b" />
  <path d="M19.521,15.519C19.521,15.519 19.893,15.567 20.181,15.303C20.47,15.038 20.963,14.906 21.323,15.303C21.684,15.7 22.092,15.688 22.404,15.363C22.717,15.038 23.186,14.885 23.631,15.328C24.075,15.772 24.46,15.582 24.724,15.328C24.989,15.075 25.541,14.909 25.902,15.328C26.263,15.748 26.515,15.52 26.515,15.52L26.359,16.626C26.359,16.626 26.251,16.65 25.914,16.362C25.578,16.073 25.109,15.965 24.773,16.325C24.436,16.686 23.931,16.698 23.571,16.349C23.211,16.001 22.79,16.037 22.478,16.313C22.165,16.589 21.624,16.722 21.191,16.313C20.759,15.905 20.386,16.108 20.17,16.325C19.954,16.542 19.661,16.626 19.661,16.626L19.521,15.519ZM19.891,17.492C19.986,17.46 20.088,17.408 20.181,17.322C20.47,17.057 20.963,16.925 21.323,17.322C21.684,17.718 22.092,17.706 22.404,17.382C22.717,17.057 23.186,16.903 23.631,17.347C24.075,17.79 24.46,17.6 24.724,17.347C24.989,17.093 25.541,16.927 25.902,17.347C25.974,17.43 26.042,17.488 26.104,17.527C26.167,17.766 25.828,18.31 25.782,18.28C25.463,18.071 25.067,18.027 24.773,18.342C24.436,18.703 23.931,18.715 23.571,18.366C23.211,18.018 22.79,18.054 22.478,18.33C22.165,18.606 21.624,18.738 21.191,18.33C20.818,17.976 20.488,18.082 20.266,18.257C20.231,18.286 19.692,17.561 19.891,17.492ZM20.83,19.068C21.001,19.079 21.174,19.152 21.324,19.317C21.684,19.714 22.093,19.702 22.405,19.377C22.718,19.052 23.187,18.898 23.631,19.342C24.076,19.785 24.461,19.595 24.725,19.342C24.821,19.25 24.956,19.168 25.105,19.124C24.61,19.835 23.198,20.555 23.01,20.555C22.819,20.555 21.288,19.882 20.83,19.068Z" fill="#f4f4f4" />
  <path d="M20.506,11.457C20.566,11.325 20.769,11.361 20.83,11.457C20.891,11.553 20.446,11.589 20.506,11.457Z" fill="#1c1c1c" />
  <path d="M19.847,17.322C19.774,17.411 20.771,17.847 20.771,17.847C20.771,17.847 20.859,18.32 20.939,18.26C21.019,18.2 21.36,18.265 21.36,18.265C21.36,18.265 21.441,19.678 23.018,19.678C24.595,19.678 25.019,18.168 25.019,18.168C25.019,18.168 25.588,18.175 25.655,18.21C25.722,18.245 25.518,18.023 25.603,17.847C25.687,17.671 25.891,17.467 25.771,17.418C25.651,17.371 24.378,17.719 24.378,17.719C24.378,17.719 24.401,18.861 23.019,18.861C21.637,18.861 21.818,18.115 21.818,18.115C21.818,18.115 19.959,17.185 19.847,17.322Z" fill="#f1a11e" />
  <path d="M21.876,18.555C21.876,18.592 21.847,18.622 21.81,18.622C21.773,18.622 21.744,18.592 21.744,18.555L21.744,15.513C21.744,15.477 21.773,15.447 21.81,15.447C21.847,15.447 21.876,15.476 21.876,15.513L21.876,18.555ZM23.018,18.927C23.018,18.957 22.994,18.981 22.964,18.981C22.934,18.981 22.911,18.957 22.911,18.927L22.911,15.297C22.911,15.267 22.934,15.243 22.964,15.243C22.994,15.243 23.018,15.267 23.018,15.297L23.018,18.927ZM24.208,18.728C24.208,18.762 24.181,18.788 24.148,18.788C24.115,18.788 24.088,18.762 24.088,18.728L24.088,15.507C24.088,15.474 24.115,15.447 24.148,15.447C24.181,15.447 24.208,15.474 24.208,15.507L24.208,18.728Z" fill="#f1a11e" />
  <path d="M21.408,16C21.408,16 21.516,16.216 21.876,16.12C22.237,16.024 22.248,15.723 22.248,15.723L21.408,16ZM23.391,15.519L22.574,15.724C22.574,15.724 22.658,15.991 22.964,15.929C23.271,15.868 23.391,15.519 23.391,15.519ZM23.751,15.904C23.751,15.904 23.944,16.132 24.208,16.048C24.473,15.965 24.641,15.652 24.641,15.652L23.751,15.904ZM22.369,16.145L21.338,16.428C21.338,16.428 21.239,16.612 21.275,16.805C21.311,16.997 21.408,17.177 21.408,17.177C21.408,17.177 21.504,16.937 21.744,16.888C21.985,16.84 22.153,17.033 22.153,17.033C22.153,17.033 22.061,16.593 22.369,16.145ZM22.574,16.145C22.574,16.145 22.364,16.264 22.369,16.625C22.372,16.823 22.574,17.072 22.574,17.072C22.574,17.072 22.682,16.878 22.911,16.805C23.139,16.733 23.391,16.938 23.391,16.938C23.391,16.938 23.297,16.646 23.331,16.421C23.366,16.195 23.524,15.93 23.524,15.93L22.574,16.145ZM23.679,16.325C23.679,16.325 23.607,16.482 23.607,16.662C23.607,16.842 23.751,17.178 23.751,17.178C23.751,17.178 23.824,16.925 24.088,16.865C24.353,16.805 24.497,16.985 24.497,16.985C24.497,16.985 24.408,16.808 24.447,16.548C24.485,16.288 24.75,16.067 24.75,16.067L23.679,16.325ZM22.189,17.118L21.288,17.286C21.288,17.286 21.396,17.575 21.738,17.538C22.081,17.502 22.189,17.118 22.189,17.118ZM23.439,17.072C23.439,17.072 22.574,17.119 22.574,17.178C22.574,17.237 22.658,17.455 22.946,17.407C23.234,17.359 23.439,17.072 23.439,17.072ZM24.557,17.118L23.704,17.308C23.704,17.308 23.824,17.526 24.131,17.466C24.436,17.406 24.557,17.118 24.557,17.118Z" fill="#fee55e" />
  <path d="M21.744,15.513L21.107,15.724L21.744,15.792L21.744,15.513ZM22.958,15.308L22.321,15.518L22.958,15.586L22.958,15.308ZM24.16,15.447L23.523,15.658L24.16,15.726L24.16,15.447Z" fill="#cf0828" />
</svg>
