<svg width="32" height="32" viewBox="0 0 32 32" xmlns="http://www.w3.org/2000/svg">
  <polygon fill="#F4F4F4" points="2,6 30,6 30,19.5 29,20.5 3,20.5 2,19.5" />
  <rect x="2" y="19.5" fill="#CF0828" width="28" height="6.5" />
  <path fill="#CF0828" d="M12.824,18.508L9.586,18.508L9.586,17.909L10.185,17.589L10.185,14.317L9.586,14.317L9.586,13.119L10.185,13.119L10.185,13.718L10.775,13.718L10.775,11.323L10.177,11.323L10.177,10.125L10.775,10.125L10.775,10.725L11.374,10.725L11.374,10.125L12.572,10.125L12.572,10.725L13.17,10.725L13.17,10.125L13.77,10.125L13.77,11.323L13.17,11.323L13.17,12.154L13.593,12.154L13.593,12.923L14.362,12.923L14.362,12.154L14.362,9.846L13.593,9.846L13.593,8.308L14.362,8.308L14.362,9.077L15.131,9.077L15.131,8.308L16.67,8.308L16.67,9.077L17.439,9.077L17.439,8.308L18.208,8.308L18.208,9.846L17.439,9.846L17.439,12.154L17.439,12.923L18.208,12.923L18.208,12.154L18.821,12.154L18.821,11.323L18.222,11.323L18.222,10.125L18.821,10.125L18.821,10.725L19.42,10.725L19.42,10.125L20.617,10.125L20.617,10.725L21.216,10.725L21.216,10.125L21.816,10.125L21.816,11.323L21.216,11.323L21.216,13.119L21.216,13.718L21.816,13.718L21.816,13.119L22.413,13.119L22.413,14.317L21.816,14.317L21.816,17.589L22.413,17.909L22.413,18.508L18.977,18.508L18.977,19.077L12.824,19.077L12.824,18.508Z" />
  <!-- <g fill="#CF0828">
    <path d="M13.1704,10.1254v0.5992h-0.5985v-0.5992h-1.1977v0.5992H10.775v-0.5992h-0.5985v1.1977h0.5985v2.9938h2.3954v-2.9938h0.5992v-1.1977H13.1704z" />
    <path d="M13.7781,13.1192v0.5992h-0.5992v-0.5992h-0.5985v0.5992h-1.1977v-0.5992h-0.5992v0.5992H10.185v-0.5992H9.5865v1.1977v-0.0008v0.0008h0.5985v3.2723l-0.5985,0.32v0.5992h4.79v-0.5992l-0.5985-0.32v-3.2723h0.5985v-1.1977H13.7781z" />
    <path d="M21.2158,10.1254v0.5992h-0.5985v-0.5992h-1.1977v0.5992h-0.5985v-0.5992h-0.5992v1.1977h0.5992v2.9938h2.3946v-2.9938h0.6v-1.1977H21.2158z" />
    <path d="M21.8158,13.1192v0.5992h-0.6v-0.5992h-0.5985v0.5992h-1.1977v-0.5992h-0.5985v0.5992h-0.5992v-0.5992h-0.5985v1.1977v-0.0008v0.0008h0.5985v3.2723l-0.5985,0.32v0.5992h4.79v-0.5992l-0.5977-0.32v-3.2723h0.5977v-1.1977H21.8158z" />
    <path d="M17.4388,8.3077v0.7692h-0.7692V8.3077h-1.5385v0.7692h-0.7692V8.3077h-0.7692v1.5385h0.7692v3.8462h3.0769V9.8462h0.7692V8.3077H17.4388z" />
    <path d="M18.2081,12.1538v0.7692h-0.7692v-0.7692h-0.7692v0.7692h-1.5385v-0.7692h-0.7692v0.7692h-0.7692v-0.7692h-0.7692v6.9231h6.1538v-6.9231H18.2081z" />
  </g> -->
  <path fill="#1c1c1c" d="M12.5719,13.7184h-1.1977v-1.1977h0.0008c0-0.3307,0.2677-0.5984,0.5984-0.5984c0.3308-0.0008,0.5984,0.2677,0.5984,0.5984V13.7184z M11.9734,15.4269c-0.4777,0-0.5984,0.3877-0.5984,0.8654v1.0192h1.1977v-1.0192h-0.0008C12.5719,15.8146,12.4512,15.4269,11.9734,15.4269z M20.6173,12.5208c0-0.3307-0.2685-0.5992-0.5984-0.5984c-0.33,0-0.5984,0.2677-0.5984,0.5984h-0.0008v1.1977h1.1977V12.5208z M20.6173,16.2923c0-0.4777-0.1208-0.8654-0.5984-0.8654c-0.4777,0-0.5984,0.3877-0.5984,0.8654v1.0192h1.1977v-1.0192H20.6173z M16.6696,11.3846c0-0.4249-0.3444-0.7693-0.7692-0.7693c-0.4249,0-0.7692,0.3444-0.7692,0.7693v1.5385h1.5385V11.3846z M15.9004,15.1177c-0.6138,0-1.1108,0.4977-1.1108,1.1116v1.6669h2.2223v-1.6669h-0.0007C17.0112,15.6154,16.5142,15.1177,15.9004,15.1177z" />
  <path fill="#FCD53F" d="M16.025,20.1146v0.1023l0.83,0.8292l-0.83,0.8292v3.6285h-0.2677v-0.4054h-0.9162v-0.5438h0.2677v0.2777h0.6485v-0.8069h-0.6485v0.2731h-0.2677v-0.54h0.9162v-1.8846l-0.8308-0.8277l0.8308-0.8262v-0.1054L16.025,20.1146z" />
  <path fill="#CF0828" d="M15.3158,21.0438l0.5754-0.5754l0.5754,0.5762L15.8904,21.62L15.3158,21.0438z" />
  <path fill="#FCD53F" d="M16.9204,17.7423c-0.0823-0.0462-0.1923-0.0446-0.2446,0.0023l-0.7754,0.6992l-0.7754-0.6992c-0.0523-0.0469-0.1623-0.0477-0.2446-0.0023c-0.0831,0.0454-0.1077,0.12-0.0554,0.1677l0.9477,0.8523c0.0292,0.0262,0.0769,0.0346,0.1277,0.0315c0.0508,0.0031,0.0977-0.0054,0.1277-0.0315l0.9477-0.8523C17.0288,17.8623,17.0042,17.7869,16.9204,17.7423z" />
  <path fill="#FCD53F" d="M16.0135,18.5538h-0.2262c-0.1869,0-0.3385,0.2308-0.3385,0.5146v1.0292c0,0.2838,0.1515,0.5146,0.3385,0.5146h0.2262c0.1869,0,0.3385-0.2308,0.3385-0.5146v-1.0292C16.3519,18.7846,16.2004,18.5538,16.0135,18.5538z M16.0981,20.1146c0,0.1608-0.0854,0.29-0.19,0.29s-0.1908-0.1292-0.1908-0.29v-1.0377c0-0.1592,0.0854-0.2885,0.1908-0.2885s0.19,0.1292,0.19,0.2885V20.1146z" />
</svg>