<svg width="32" height="32" viewBox="0 0 32 32" xmlns="http://www.w3.org/2000/svg">
  <polygon fill="#062365" points="16,6 30,6 30,26 2,26 2,16" />
  <polygon fill="#062365" points="4.1,6 7.25,6 9,7 10.75,6 13.9,6 16,7.5 16,9.25 15,11 16,12.75 16,14.5 13.9,16 10.75,16 9,15 7.25,16 4.1,16 2,14.5 2,12.75 3,11 2,9.25 2,7.5" />
  <polygon fill="#F4F4F4" points="16,6 15.3,6.25 14.6,6 13.9,6 10.75,8.25 10.75,6 10,6 9,6.5 8,6 7.25,6 7.25,8.25 4.1,6 2,6 2.25,6.5 2,7 2,7.5 4.45,9.25 2,9.25 2,10 2.5,11 2,12 2,12.75 4.45,12.75 2,14.5 2,16 2.7,15.75 3.4,16 4.1,16 7.25,13.75 7.25,16 8,16 9,15.5 10,16 10.75,16 10.75,13.75 13.9,16 16,16 15.75,15.5 16,15 16,14.5 13.55,12.75 16,12.75 16,12 15.5,11 16,10 16,9.25 13.55,9.25 16,7.5" />
  <path fill="#CF0828" d="M7.25,12.75h-0.7L2,16h1.4l3.85-2.75V12.75z M11.45,12.75L16,16v-1l-3.15-2.25H11.45z M10.75,9.25h0.7L16,6h-1.4l-3.85,2.75V9.25z M5.15,9.25L2,7V6l4.55,3.25H5.15z M16,12h-6v4H8v-4H2v-2h6V6h2v4h6V12z" />
  <path d="M19.17,11.385L19.17,14.251C19.17,18.235 21.391,19.691 23.136,20.639C24.882,19.691 26.83,18.235 26.83,14.251L26.83,11.385L19.17,11.385Z" fill="#f4f4f4" />
  <path d="M23.136,20.177C21.442,19.23 19.491,17.863 19.491,14.251L19.491,11.898L26.565,11.898L26.565,14.251C26.565,17.863 24.83,19.23 23.136,20.177Z" fill="#fcd53f" />
  <path d="M24.518,18.295C24.471,17.875 24.122,16.552 23.713,16.156C23.305,15.759 23.136,16.066 23.136,16.066C23.136,16.066 22.968,15.76 22.559,16.156C22.151,16.553 21.802,17.875 21.754,18.295C21.705,18.716 21.802,18.812 22.018,18.812C22.115,19.017 22.487,19.052 22.487,19.052C22.487,19.052 22.908,19.328 23.136,19.052C23.365,19.328 23.785,19.052 23.785,19.052C23.785,19.052 24.158,19.016 24.254,18.812C24.471,18.812 24.567,18.716 24.518,18.295Z" fill="#028f4d" />
  <path d="M23.749,15.674C23.749,16.04 23.846,16.336 23.148,16.336C22.451,16.336 22.548,16.039 22.548,15.674C22.548,15.308 22.817,15.011 23.148,15.011C23.481,15.011 23.749,15.308 23.749,15.674Z" fill="#cf0828" />
  <path d="M21.85,15.195C21.658,15.519 21.357,15.291 21.225,14.906C21.094,14.522 20.565,14.413 20.372,14.305C20.18,14.198 20.132,14.017 20.372,13.885C20.612,13.752 20.468,13.584 20.637,13.536C20.421,13.488 20.227,13.608 20.209,13.536C20.192,13.464 20.36,13.264 20.637,13.232C20.408,12.947 20.541,12.346 20.637,12.334C20.733,12.322 20.93,12.502 21.03,12.682C21.13,12.862 21.418,12.827 21.395,13.079C21.455,13.139 21.659,13.103 21.852,13.416C22.042,13.728 21.85,15.195 21.85,15.195Z" fill="#ff9c38" />
  <path d="M21.936,15.147C21.664,15.168 21.562,14.931 21.514,14.582C21.466,14.234 20.973,14.364 21.202,13.842C21.43,13.321 21.515,13.637 21.538,13.232C21.562,12.828 21.694,12.492 21.814,12.492C21.934,12.492 22.09,12.864 22.151,13.021C22.212,13.178 22.442,13.141 22.543,13.682C22.644,14.222 22.524,14.619 22.392,14.739C22.259,14.859 22.199,14.877 22.175,15.012C22.151,15.147 22.115,15.133 21.936,15.147Z" fill="#ff8687" />
  <path d="M21.936,12.851C22.018,12.911 22.022,12.995 21.936,13.139C21.851,13.284 21.992,13.428 21.999,13.668C22.007,13.908 21.882,13.993 21.908,14.113C21.935,14.233 22.127,14.462 22.103,14.738C22.079,15.014 22.022,15.098 21.936,15.146C21.851,15.194 21.887,15.002 21.905,14.822C21.922,14.642 21.802,14.437 21.742,14.257C21.682,14.077 21.823,13.945 21.861,13.764C21.898,13.584 21.802,13.419 21.79,13.231C21.778,13.043 21.936,12.851 21.936,12.851Z" fill="#fe9de0" />
  <path d="M24.723,13.308C24.759,13.043 24.747,12.635 24.663,12.491C24.579,12.346 24.447,12.262 24.531,12.238C24.615,12.215 25.012,12.635 24.795,13.488C24.578,14.342 24.723,13.308 24.723,13.308Z" fill="#b76a1e" />
  <path d="M24.681,13.234C24.518,13.139 24.308,12.898 24.329,12.767C24.35,12.635 24.506,12.395 24.531,12.442C24.555,12.49 24.458,12.639 24.531,12.835C24.603,13.032 24.638,13.042 24.736,13.173C24.833,13.305 24.681,13.234 24.681,13.234ZM24.592,13.416C24.495,13.299 23.425,12.611 23.533,12.563C23.641,12.515 24.562,13.092 24.708,13.416C24.855,13.74 24.592,13.416 24.592,13.416Z" fill="#b76a1e" />
  <path d="M24.531,13.62C24.139,13.232 23.172,13.163 23.221,13.103C23.269,13.043 24.508,13.157 24.682,13.515C24.855,13.872 24.531,13.62 24.531,13.62Z" fill="#b76a1e" />
  <path d="M24.504,13.825C24.062,13.596 23.29,13.548 23.219,13.56C23.148,13.572 23.965,13.331 24.548,13.692C25.132,14.053 24.504,13.825 24.504,13.825ZM24.531,14.149C24.074,13.945 23.401,14.005 23.281,14.077C23.161,14.149 23.629,13.805 23.954,13.838C24.278,13.872 24.592,13.94 24.682,14.002C24.771,14.065 24.69,14.22 24.531,14.149Z" fill="#b76a1e" />
  <path d="M24.797,13.232C24.742,12.936 24.741,12.687 24.345,12.717C23.948,12.747 23.877,13.488 23.976,14.522C24.075,15.555 23.955,15.894 23.936,15.953C23.918,16.012 24.157,15.748 24.14,15.291C24.123,14.834 24.022,13.83 24.055,13.461C24.087,13.092 24.266,12.815 24.505,12.887C24.743,12.96 24.689,13.145 24.682,13.371C24.675,13.596 24.797,13.232 24.797,13.232Z" fill="#b76a1e" />
  <path d="M25.059,15.154C25.059,15.154 25.179,15.086 25.335,14.269C25.492,13.452 25.155,13.103 24.855,13.103C24.554,13.103 24.218,13.452 24.374,14.269C24.53,15.086 24.65,15.154 24.65,15.154C24.65,15.154 24.282,15.504 24.334,15.674C24.385,15.844 24.855,15.848 24.855,15.848C24.855,15.848 25.323,15.844 25.375,15.674C25.428,15.504 25.059,15.154 25.059,15.154Z" fill="#b76a1e" />
  <path d="M24.991,13.308C24.955,13.043 24.967,12.635 25.051,12.491C25.135,12.347 25.267,12.262 25.183,12.238C25.099,12.215 24.702,12.635 24.918,13.488C25.135,14.342 24.991,13.308 24.991,13.308Z" fill="#b76a1e" />
  <path d="M25.033,13.234C25.195,13.139 25.405,12.898 25.385,12.767C25.364,12.635 25.208,12.395 25.183,12.442C25.159,12.49 25.255,12.639 25.183,12.835C25.111,13.032 25.075,13.042 24.978,13.173C24.881,13.305 25.033,13.234 25.033,13.234ZM25.122,13.416C25.218,13.299 26.289,12.611 26.181,12.563C26.072,12.515 25.152,13.092 25.005,13.416C24.859,13.74 25.122,13.416 25.122,13.416Z" fill="#b76a1e" />
  <path d="M25.183,13.62C25.575,13.232 26.542,13.163 26.493,13.103C26.445,13.043 25.205,13.157 25.032,13.515C24.859,13.872 25.183,13.62 25.183,13.62Z" fill="#b76a1e" />
  <path d="M25.211,13.825C25.652,13.596 26.425,13.548 26.495,13.56C26.566,13.572 25.75,13.331 25.166,13.692C24.582,14.053 25.211,13.825 25.211,13.825ZM25.183,14.149C25.64,13.945 26.313,14.005 26.433,14.077C26.553,14.149 26.085,13.805 25.76,13.838C25.435,13.872 25.122,13.94 25.032,14.002C24.943,14.065 25.024,14.22 25.183,14.149Z" fill="#b76a1e" />
  <path d="M24.918,13.232C24.973,12.936 24.974,12.687 25.37,12.717C25.766,12.747 25.837,13.488 25.738,14.522C25.64,15.555 25.76,15.894 25.778,15.953C25.797,16.012 25.558,15.748 25.575,15.291C25.592,14.834 25.692,13.83 25.66,13.461C25.628,13.092 25.448,12.815 25.21,12.887C24.972,12.96 25.025,13.145 25.032,13.371C25.039,13.596 24.918,13.232 24.918,13.232Z" fill="#b76a1e" />
</svg>
