<svg width="32" height="32" viewBox="0 0 32 32" xmlns="http://www.w3.org/2000/svg">
  <polygon fill="#028f4d" points="2,10 3,9 29,9 30,10 30,22 29,23 3,23 2,22" />
  <rect fill="#CF0828" x="2" y="6" width="28" height="4" />
  <rect fill="#CF0828" x="2" y="22" width="28" height="4" />
  <path d="M21.4,13.094C21.387,16.066 18.975,18.472 16,18.472C13.025,18.472 10.613,16.066 10.6,13.094C10.476,13.557 10.404,14.041 10.404,14.543C10.404,17.633 12.909,20.139 16.001,20.139C19.092,20.139 21.597,17.634 21.597,14.543C21.597,14.041 21.524,13.557 21.4,13.094ZM16.001,10.958L14.737,14.843L18.043,12.443L13.957,12.443L17.259,14.843L16.001,10.958Z" fill="#FDBB11" />
</svg>
