<svg width="32" height="32" viewBox="0 0 32 32" xmlns="http://www.w3.org/2000/svg">
  <polygon fill="#F8312F" points="2,12.75 3,11.75 29,11.75 30,12.75 30,19.25 29,20.25 3,20.25 2,19.25" />
  <rect fill="#1345B7" x="2" y="6" width="28" height="6.75" />
  <rect fill="#008E48" x="2" y="19.25" width="28" height="6.75" />
  <path id="path34" d="M12,9.7C15.479,9.7 18.3,12.521 18.3,16C18.3,19.479 15.479,22.3 12,22.3C8.521,22.3 5.7,19.479 5.7,16C5.7,12.521 8.521,9.7 12,9.7" fill="#FCD53F" />
  <path fill="#1c1c1c" d="M12,9.5C15.59,9.5 18.5,12.41 18.5,16C18.5,19.59 15.59,22.5 12,22.5C8.41,22.5 5.5,19.59 5.5,16C5.5,12.41 8.41,9.5 12,9.5ZM11.75,9.905C8.497,10.036 5.9,12.715 5.9,16C5.9,18.524 7.433,20.69 9.619,21.618C9.919,21.313 10.548,20.694 10.818,20.48C11.013,20.326 11.37,20.235 11.75,20.211L11.75,19.864C11.484,19.717 11.295,19.343 11.295,18.905C11.295,18.467 11.484,18.093 11.75,17.946L11.75,17.831C11.474,17.912 11.215,18.124 11.088,18.436C10.774,19.214 10.505,19.546 10.505,19.546C10.505,19.546 10.672,18.842 10.756,17.938C10.793,17.545 11.107,17.263 11.75,17.207L11.75,16.667C11.4,16.599 11.146,16.393 11.146,16.15C11.146,15.906 11.4,15.7 11.75,15.632L11.75,15.099C11.282,15.078 10.752,14.961 10.718,14.313C10.693,13.831 10.526,13.352 10.526,13.352C10.526,13.352 10.882,13.779 11.018,14.056C11.23,14.492 11.475,14.624 11.75,14.662L11.75,14.468C11.4,14.361 11.146,14.035 11.146,13.651C11.146,13.266 11.4,12.94 11.75,12.833L11.75,12.16C11.529,12.276 11.369,12.309 11.31,12.356C11.154,12.483 11.088,12.475 11.088,12.475C11.099,12.36 11.11,11.89 11.118,11.845C11.173,11.542 11.423,11.387 11.75,11.236L11.75,9.905ZM14.271,21.663C16.515,20.763 18.1,18.566 18.1,16C18.1,12.715 15.503,10.036 12.25,9.905L12.25,11.01C12.473,10.902 12.704,10.771 12.918,10.586C13.033,10.486 13.025,10.467 13.025,10.467C13.025,10.467 13.099,10.591 12.944,10.871C12.706,11.299 12.468,11.593 12.25,11.799L12.25,12.833C12.6,12.94 12.854,13.266 12.854,13.651C12.854,14.035 12.6,14.361 12.25,14.468L12.25,14.662C12.525,14.624 12.77,14.492 12.983,14.056C13.118,13.779 13.474,13.352 13.474,13.352C13.474,13.352 13.307,13.831 13.282,14.313C13.248,14.961 12.718,15.078 12.25,15.099L12.25,15.632C12.6,15.7 12.854,15.906 12.854,16.15C12.854,16.393 12.6,16.599 12.25,16.667L12.25,17.207C12.893,17.263 13.207,17.545 13.244,17.938C13.328,18.842 13.495,19.546 13.495,19.546C13.495,19.546 13.226,19.214 12.912,18.436C12.785,18.124 12.526,17.912 12.25,17.831L12.25,17.946C12.516,18.093 12.705,18.467 12.705,18.905C12.705,19.343 12.516,19.717 12.25,19.864L12.25,20.218C12.587,20.249 12.893,20.336 13.069,20.48C13.408,20.76 13.984,21.359 14.271,21.663Z"/>
</svg>
