<svg width="32" height="32" viewBox="0 0 32 32" xmlns="http://www.w3.org/2000/svg">
  <polygon fill="#062365" points="2,12.75 3,11.75 29,11.75 30,12.75 30,19.25 29,20.25 3,20.25 2,19.25" />
  <rect fill="#FDBB11" x="2" y="6" width="28" height="6.75" />
  <rect fill="#CF0828" x="2" y="19.25" width="28" height="6.75" />
  <path d="M16.45,14.703L16.98,14.445L17.391,14.869L17.308,14.285L17.839,14.026L17.258,13.923L17.175,13.339L16.899,13.86L16.317,13.758L16.727,14.182L16.45,14.703ZM18.789,15.102L19.029,15.642L19.151,15.065L19.738,15.003L19.227,14.708L19.35,14.13L18.911,14.525L18.4,14.23L18.64,14.769L18.201,15.165L18.789,15.102ZM19.689,16.197L20.262,16.339L20.304,16.928L20.616,16.428L21.189,16.57L20.809,16.118L21.123,15.618L20.575,15.839L20.196,15.386L20.237,15.975L19.689,16.197ZM21.224,18.005L21.061,18.572L21.527,18.209L22.016,18.54L21.814,17.985L22.279,17.621L21.69,17.642L21.487,17.088L21.324,17.655L20.735,17.676L21.224,18.005ZM14.61,14.869L15.02,14.444L15.55,14.703L15.273,14.182L15.684,13.757L15.102,13.86L14.825,13.339L14.742,13.923L14.161,14.026L14.692,14.285L14.61,14.869ZM12.849,15.065L12.972,15.641L13.212,15.102L13.799,15.164L13.36,14.769L13.6,14.23L13.089,14.525L12.65,14.13L12.773,14.708L12.262,15.002L12.849,15.065ZM11.384,16.427L11.697,16.928L11.738,16.339L12.311,16.196L11.763,15.975L11.804,15.386L11.425,15.839L10.877,15.617L11.191,16.118L10.811,16.57L11.384,16.427ZM9.984,18.539L10.473,18.209L10.939,18.572L10.776,18.005L11.265,17.675L10.676,17.654L10.513,17.087L10.311,17.642L9.721,17.621L10.186,17.984L9.984,18.539Z" fill="#f4f4f4" />
</svg>
