<svg width="32" height="32" viewBox="0 0 32 32" xmlns="http://www.w3.org/2000/svg">
  <path d="M5.441,6L8.022,6L17.122,12.5L30,12.5L30,14L28,16L30,18L30,19.5L17.122,19.5L8.022,26L5.441,26Z" fill="#f4f4f4" />
  <path d="M2,10.301L2,8.458L16,16L2,23.542L2,21.699L6,16L2,10.301Z" fill="#fdbb11" />
  <path d="M2,21.699L2,10.301L9.978,16L2,21.699Z" fill="#1c1c1c" />
  <path d="M30,14L30,18L16.641,18L5.441,26L2,26L2,23.542L12.559,16L2,8.458L2,6L5.441,6L16.641,14L30,14Z" fill="#01773f" />
  <path d="M8.022,6L30,6L30,12.5L17.122,12.5L8.022,6Z" fill="#f8312f" />
  <path d="M30,19.5L30,26L8.022,26L17.122,19.5L30,19.5Z" fill="#0b338d" />
</svg>
