<svg width="32" height="32" viewBox="0 0 32 32" xmlns="http://www.w3.org/2000/svg">
  <path d="M30,6L30,8.9L29,9.9L5.9,9.9L2,6L30,6Z" fill="#44911b" />
  <path d="M30,23.1L30,26L2,26L5.9,22.1L29,22.1L30,23.1Z" fill="#44911b" />
  <path d="M30,11.8L30,14.6L29,15.6L4,15.6L4,10.8L29,10.8L30,11.8Z" fill="#cf0828" />
  <path d="M30,17.4L30,20.2L29,21.2L4,21.2L4,16.4L29,16.4L30,17.4Z" fill="#cf0828" />
  <rect x="4" y="8.9" width="26" height="2.9" fill="#fdbb11" />
  <rect x="4" y="20.2" width="26" height="2.9" fill="#fdbb11" />
  <path d="M2,25L16,16L2,7L2,25Z" fill="#f4f4f4" />
  <path d="M14.04,17.4L2,26L2,25L14.6,16L2,7L2,6L14.04,14.6L30,14.6L30,17.4L14.04,17.4Z" fill="#1c1c1c" />
  <path d="M6.5,11.626L7.718,14.094L10.443,14.49L8.471,16.412L8.937,19.126L6.5,17.844L4.063,19.126L4.528,16.412L2.557,14.49L5.281,14.094L6.5,11.626Z" fill="#cf0828" />
  <path d="M8.885,18.699L4.759,18.699L4.754,18.672L4.495,17.304C4.455,17.282 4.358,17.213 4.305,17.068C4.23,16.863 4.276,16.594 4.437,16.269C4.498,16.149 4.554,16.041 4.606,15.941C4.893,15.39 5.051,15.087 5.004,14.322C4.972,13.812 4.823,13.452 4.575,13.28C4.396,13.156 4.172,13.134 3.909,13.214L3.851,13.232L3.866,13.172C3.871,13.155 3.987,12.736 4.387,12.639C4.514,12.34 4.724,12.156 4.966,12.135C5.244,12.111 5.522,12.292 5.75,12.65C6.189,13.336 6.447,13.719 7.081,14.237C7.699,14.742 9.762,16.185 9.783,16.199L9.872,16.262L9.449,16.262L8.885,18.699Z" fill="#f95725" />
  <path d="M7.059,14.263C6.432,13.751 6.176,13.381 5.721,12.669C5.266,11.958 4.668,12.043 4.412,12.669C4.013,12.755 3.899,13.182 3.899,13.182C4.554,12.982 4.981,13.409 5.038,14.321C5.095,15.232 4.867,15.488 4.469,16.285C4.071,17.082 4.526,17.281 4.526,17.281L4.788,18.665L8.858,18.665L9.422,16.228L9.764,16.228C9.763,16.228 7.685,14.776 7.059,14.263Z" fill="#fcd53f" />
  <path d="M5.906,14.996L5.671,15.158C5.671,15.158 6.098,16.093 6.717,16.228C7.336,16.362 9.338,16.585 9.338,16.585L9.421,16.228C9.421,16.228 7.35,15.978 6.83,15.893C6.31,15.807 5.906,14.996 5.906,14.996ZM5.393,17.303C5.393,17.303 6.268,17.23 6.717,17.303C7.136,17.37 8.899,17.468 9.132,17.481L9.209,17.146C8.97,17.108 7.108,16.811 6.589,16.78C6.034,16.747 5.479,17.017 5.393,17.303ZM5.842,17.964L5.949,18.665L8.858,18.665L8.982,18.129C7.566,17.849 5.842,17.964 5.842,17.964Z" fill="#fcb100" />
</svg>
