<svg width="32" height="32" viewBox="0 0 32 32" xmlns="http://www.w3.org/2000/svg">
  <polygon fill="#f4f4f4" points="2,12 3,11 29,11 30,12 30,13 29,14 3,14 2,13" />
  <polygon fill="#f4f4f4" points="2,20 3,21 29,21 30,20 30,19 29,18 3,18 2,19" />
  <rect fill="#1c1c1c" x="2" y="6" width="28" height="6" />
  <rect fill="#CF0828" x="2" y="13" width="28" height="6" />
  <rect fill="#276038" x="2" y="20" width="28" height="6" />
  <path fill="#1c1c1c" d="M15.802,15.938L13.635,12.295C13.152,12.408 12.846,11.692 12.631,11.052C12.523,10.731 12.42,10.439 12.338,10.205C12.106,9.548 12.065,9.417 12.112,9.388C12.163,9.358 12.255,9.457 12.723,9.975C12.889,10.16 13.097,10.389 13.327,10.637C13.795,11.139 14.284,11.761 13.929,12.125L16,15.606L18.071,12.125C17.716,11.761 18.205,11.139 18.673,10.637C18.903,10.39 19.111,10.16 19.277,9.975C19.745,9.456 19.837,9.358 19.888,9.388C19.935,9.416 19.894,9.548 19.662,10.206C19.579,10.44 19.476,10.732 19.368,11.052C19.152,11.692 18.846,12.409 18.365,12.295L16.197,15.938L19.517,21.518C19.525,21.532 19.531,21.554 19.515,21.585C19.479,21.648 19.362,21.719 19.288,21.721L19.286,21.721C19.251,21.721 19.234,21.705 19.225,21.691L16,16.27L12.774,21.692C12.765,21.705 12.748,21.722 12.713,21.722L12.711,21.722C12.638,21.72 12.52,21.649 12.485,21.585C12.468,21.555 12.474,21.532 12.482,21.518L15.802,15.938Z" />
  <path fill="#f4f4f4" d="M15.855,15.939L13.665,12.257L13.655,12.242L13.638,12.246C13.286,12.346 12.988,11.973 12.674,11.037C12.567,10.716 12.463,10.425 12.381,10.19C12.252,9.825 12.139,9.506 12.139,9.433C12.203,9.468 12.429,9.718 12.688,10.006C12.855,10.191 13.062,10.421 13.293,10.668C13.975,11.401 14.158,11.844 13.885,12.105L13.869,12.118L15.999,15.698L18.129,12.118L18.115,12.105C17.842,11.844 18.025,11.401 18.707,10.668C18.938,10.421 19.145,10.191 19.312,10.006C19.571,9.718 19.796,9.468 19.859,9.432C19.859,9.505 19.747,9.824 19.618,10.189C19.535,10.424 19.432,10.715 19.325,11.036C19.011,11.972 18.712,12.345 18.36,12.245L18.343,12.241L18.334,12.256L16.143,15.939L19.477,21.543C19.48,21.548 19.476,21.558 19.473,21.564C19.446,21.613 19.343,21.675 19.287,21.675L19.285,21.675C19.278,21.675 19.268,21.675 19.264,21.668L15.999,16.18L12.735,21.667C12.731,21.674 12.721,21.675 12.713,21.675L12.712,21.675C12.655,21.674 12.552,21.612 12.525,21.563C12.522,21.558 12.518,21.548 12.522,21.542L15.855,15.939Z" />
  <path fill="#1c1c1c" d="M16.014,10.198L16,10.188L15.986,10.198C14.069,11.637 13.137,13.53 13.137,15.985C13.137,18.441 14.068,20.334 15.986,21.773L16,21.783L16.014,21.773C17.931,20.335 18.863,18.442 18.863,15.985C18.863,13.529 17.931,11.635 16.014,10.198Z" />
  <path fill="#CF0828" d="M18.215,12.968C17.751,11.92 17.022,11.015 15.999,10.245C14.979,11.014 14.251,11.918 13.786,12.963C14.19,13.872 14.388,14.862 14.388,15.992C14.388,17.12 14.191,18.108 13.788,19.013C14.253,20.056 14.981,20.958 15.998,21.726C17.018,20.958 17.747,20.054 18.211,19.008C17.81,18.102 17.614,17.115 17.614,15.992C17.615,14.867 17.812,13.878 18.215,12.968Z" />
  <path fill="#f4f4f4" d="M16,16.713C16.235,16.713 16.427,16.387 16.427,15.985C16.427,15.584 16.235,15.257 16,15.257C15.765,15.257 15.574,15.583 15.574,15.985C15.573,16.387 15.765,16.713 16,16.713ZM15.822,14.792C15.436,14.224 15.248,13.502 15.248,12.622C15.248,11.742 15.436,11.02 15.822,10.451L15.822,14.792ZM16.178,14.792C16.563,14.224 16.75,13.502 16.75,12.622C16.75,11.742 16.563,11.02 16.178,10.451L16.178,14.792ZM15.822,17.177C15.436,17.745 15.248,18.467 15.248,19.347C15.248,20.228 15.436,20.948 15.822,21.518L15.822,17.177ZM16.178,17.177C16.563,17.745 16.75,18.467 16.75,19.347C16.75,20.228 16.563,20.948 16.178,21.518L16.178,17.177Z" />
</svg>
