<svg width="32" height="32" viewBox="0 0 32 32" xmlns="http://www.w3.org/2000/svg">
  <path d="M30,6L26,12L30,14L30,26L2,26L2,6L30,6Z" fill="#0b338d" />
  <path d="M2,26L30,6L30,10L28,13L2,26Z" fill="#FF8101" />
  <path d="M2,26L30,10L30,14L2,26Z" fill="#f4f4f4" />
  <path d="M9,7.552L9.235,11.518L10.022,9.858L9.682,11.663L10.942,10.327L10.061,11.94L11.673,11.058L10.337,12.319L12.142,11.979L10.482,12.766L14.448,13L10.482,13.236L12.142,14.022L10.337,13.682L11.673,14.943L10.061,14.061L10.942,15.673L9.682,14.338L10.022,16.143L9.235,14.483L9,18.448L8.765,14.483L7.978,16.143L8.318,14.338L7.058,15.673L7.939,14.061L6.327,14.943L7.663,13.682L5.858,14.022L7.518,13.236L3.552,13L7.518,12.766L5.858,11.979L7.663,12.319L6.327,11.058L7.939,11.94L7.058,10.327L8.318,11.663L7.978,9.858L8.765,11.518L9,7.552Z" fill="#f4f4f4" />
</svg>
