<svg width="32" height="32" viewBox="0 0 32 32" xmlns="http://www.w3.org/2000/svg">
  <polygon fill="#062365" points="16,6 30,6 30,26 2,26 2,16" />
  <polygon fill="#062365" points="4.1,6 7.25,6 9,7 10.75,6 13.9,6 16,7.5 16,9.25 15,11 16,12.75 16,14.5 13.9,16 10.75,16 9,15 7.25,16 4.1,16 2,14.5 2,12.75 3,11 2,9.25 2,7.5" />
  <polygon fill="#F4F4F4" points="16,6 15.3,6.25 14.6,6 13.9,6 10.75,8.25 10.75,6 10,6 9,6.5 8,6 7.25,6 7.25,8.25 4.1,6 2,6 2.25,6.5 2,7 2,7.5 4.45,9.25 2,9.25 2,10 2.5,11 2,12 2,12.75 4.45,12.75 2,14.5 2,16 2.7,15.75 3.4,16 4.1,16 7.25,13.75 7.25,16 8,16 9,15.5 10,16 10.75,16 10.75,13.75 13.9,16 16,16 15.75,15.5 16,15 16,14.5 13.55,12.75 16,12.75 16,12 15.5,11 16,10 16,9.25 13.55,9.25 16,7.5" />
  <path fill="#CF0828" d="M7.25,12.75h-0.7L2,16h1.4l3.85-2.75V12.75z M11.45,12.75L16,16v-1l-3.15-2.25H11.45z M10.75,9.25h0.7L16,6h-1.4l-3.85,2.75V9.25z M5.15,9.25L2,7V6l4.55,3.25H5.15z M16,12h-6v4H8v-4H2v-2h6V6h2v4h6V12z" />
  <path d="M27.611,19.631C27.396,19.662 27.306,19.969 27.214,20.154C27.214,20.154 26.999,20.338 26.66,20.308C26.66,20.308 26.816,20.062 26.969,19.815C27.122,19.569 27.031,19.261 26.816,19.231C26.601,19.199 26.57,19.076 26.292,18.831C26.016,18.585 25.523,18.554 25.431,18.769C25.339,18.984 24.907,19.138 24.969,19.446C25.03,19.754 25.184,20.154 25.338,20.4C25.338,20.4 24.61,20.862 24.025,21.077C23.44,21.292 23.016,21.323 23.016,21.323C23.016,21.323 22.402,21.292 21.817,21.077C21.232,20.862 20.676,20.4 20.676,20.4C20.829,20.154 20.982,19.754 21.046,19.446C21.106,19.139 20.676,18.984 20.583,18.769C20.491,18.554 19.999,18.585 19.722,18.831C19.445,19.076 19.415,19.199 19.198,19.231C18.983,19.261 18.89,19.568 19.044,19.815C19.198,20.061 19.35,20.308 19.35,20.308C19.012,20.338 18.796,20.154 18.796,20.154C18.703,19.969 18.608,19.662 18.392,19.631C18.177,19.6 18.172,19.815 18.203,20.032C18.234,20.246 18.376,20.647 18.468,20.892C18.56,21.138 18.722,21.169 19.062,21.231C19.4,21.292 19.909,21.016 19.909,21.016C21.111,22.185 22.839,22.154 22.839,22.154C22.839,22.154 24.735,22.185 25.935,21.016C25.935,21.016 26.529,21.292 26.868,21.231C27.206,21.169 27.412,21.138 27.503,20.892C27.596,20.647 27.76,20.246 27.791,20.032C27.823,19.815 27.827,19.6 27.611,19.631Z" fill="#fff478" />
  <path d="M27.494,20.861C27.494,20.861 27.739,20.123 27.801,19.876C27.862,19.631 27.616,19.538 27.432,19.692C27.248,19.846 26.97,20.738 26.97,20.738C26.97,20.738 27.062,20.554 27.247,20.584C27.432,20.615 27.494,20.861 27.494,20.861ZM26.016,19.723C26.016,19.723 26.355,19.322 26.386,19.076C26.416,18.831 26.078,18.522 25.831,18.553C25.586,18.584 25.4,18.768 25.462,18.984C25.524,19.199 25.739,19.631 25.739,19.631C25.739,19.631 25.739,19.569 25.862,19.569C25.986,19.569 26.016,19.723 26.016,19.723ZM18.523,20.861C18.523,20.861 18.277,20.123 18.215,19.876C18.154,19.631 18.399,19.538 18.584,19.692C18.769,19.846 19.046,20.738 19.046,20.738C19.046,20.738 18.954,20.554 18.769,20.584C18.584,20.615 18.523,20.861 18.523,20.861ZM20,19.723C20,19.723 19.662,19.322 19.631,19.076C19.6,18.831 19.939,18.522 20.185,18.553C20.431,18.584 20.616,18.768 20.554,18.984C20.492,19.199 20.277,19.631 20.277,19.631C20.277,19.631 20.277,19.569 20.155,19.569C20.031,19.569 20,19.723 20,19.723Z" fill="#cf0828" />
  <rect x="20.531" y="14.337" width="5.385" height="2.252" fill="#cf0828" />
  <path d="M24.942,20.122C25.373,19.598 25.916,18.645 25.916,17.322L25.916,16.178C25.751,16.175 25.573,16.16 25.529,16.173C25.245,16.255 25.197,16.552 24.852,16.552C24.453,16.552 24.344,16.152 23.944,16.152C23.543,16.152 23.412,16.552 23.012,16.552C22.675,16.552 22.393,16.152 22.086,16.152C21.778,16.152 21.437,16.552 21.16,16.552C20.916,16.552 20.754,16.241 20.53,16.168L20.532,17.322C20.532,18.242 20.719,18.972 20.937,19.525C21.064,19.845 21.416,20.326 21.48,20.376C21.48,20.376 22.207,20.534 22.629,21.275C22.629,21.275 22.705,21.33 23.025,21.33C23.345,21.33 23.415,21.259 23.415,21.259C23.836,20.491 24.558,20.589 24.942,20.122Z" fill="#f4f4f4" />
  <path d="M21.066,18.215C21.434,18.215 21.896,17.877 22.142,17.877C22.388,17.877 22.603,18.215 22.942,18.215C23.28,18.215 23.711,17.877 23.926,17.877C24.142,17.877 24.48,18.215 24.818,18.215C25.156,18.215 25.279,17.877 25.586,17.877C25.648,17.877 25.829,17.901 25.879,17.922C25.91,17.722 25.926,17.385 25.915,17.072C25.786,17.068 25.696,17.064 25.635,17.064C25.599,17.064 25.553,17.057 25.502,17.075C25.24,17.166 25.186,17.446 24.851,17.446C24.452,17.446 24.342,17.046 23.942,17.046C23.542,17.046 23.411,17.446 23.011,17.446C22.673,17.446 22.392,17.046 22.084,17.046C21.776,17.046 21.436,17.446 21.159,17.446C20.969,17.446 20.83,17.258 20.673,17.14C20.602,17.086 20.53,17.068 20.53,17.068C20.512,17.495 20.553,17.917 20.553,17.917C20.706,18.005 20.776,18.215 21.066,18.215ZM23.961,20.031C23.565,20.031 23.439,20.419 23.049,20.428C22.66,20.419 22.533,20.031 22.138,20.031C21.87,20.031 21.657,20.258 21.479,20.377C21.685,20.507 21.983,20.589 22.374,20.879C22.652,21.086 23.049,21.108 23.049,21.108C23.049,21.108 23.446,21.085 23.725,20.879C24.116,20.589 24.415,20.507 24.619,20.377C24.442,20.258 24.229,20.031 23.961,20.031ZM25.739,18.399C25.308,18.399 25.34,18.799 24.941,18.799C24.54,18.799 24.448,18.399 24.049,18.399C23.648,18.399 23.525,18.799 23.126,18.799C22.786,18.799 22.509,18.399 22.202,18.399C21.895,18.399 21.556,18.799 21.279,18.799C21.069,18.799 20.839,18.567 20.62,18.455C20.62,18.455 20.727,19.098 20.932,19.512C21.002,19.543 21.096,19.568 21.186,19.568C21.556,19.568 22.016,19.231 22.263,19.231C22.509,19.231 22.725,19.568 23.063,19.568C23.402,19.568 23.832,19.231 24.048,19.231C24.263,19.231 24.602,19.568 24.939,19.568C25.159,19.568 25.309,19.421 25.456,19.321C25.598,19.061 25.705,18.761 25.79,18.402C25.776,18.4 25.756,18.399 25.739,18.399Z" fill="#0b338d" />
  <path d="M21.535,17.411L21.808,16.482L22.089,17.408L23.056,17.381L22.262,17.935L22.587,18.846L21.816,18.262L21.049,18.853L21.366,17.938L20.567,17.392L21.535,17.411ZM24.366,17.411L24.639,16.482L24.92,17.408L25.888,17.381L25.093,17.935L25.419,18.846L24.646,18.262L23.88,18.853L24.197,17.938L23.398,17.392L24.366,17.411ZM22.951,19.072L23.223,18.143L23.505,19.07L24.472,19.043L23.678,19.596L24.003,20.508L23.232,19.925L22.464,20.515L22.782,19.601L21.982,19.053L22.951,19.072Z" fill="#028f4d" />
  <path d="M21.029,14.537C21.222,14.379 21.399,14.629 21.43,14.783C21.461,14.937 21.646,15.152 21.83,15.152C21.83,15.152 21.953,14.783 22.046,14.598C22.138,14.414 22.384,14.352 22.539,14.414C22.692,14.475 22.969,14.445 22.939,14.722C22.908,14.998 22.816,15.122 22.816,15.122C22.816,15.122 23.369,15.152 23.616,15.122C23.862,15.091 24.139,14.937 24.324,15.029C24.508,15.122 24.786,15.152 24.878,15.091C24.97,15.029 25.032,14.845 24.816,14.875C24.601,14.907 24.416,14.907 24.232,14.938C24.047,14.968 23.247,14.999 23.247,14.753C23.247,14.507 23.554,14.476 23.616,14.507C23.678,14.538 24.139,14.199 24.232,14.353C24.324,14.507 24.324,14.692 24.047,14.692C23.77,14.692 23.369,14.63 23.369,14.722C23.369,14.815 23.493,14.876 23.678,14.876C23.862,14.876 24.17,14.753 24.385,14.753C24.6,14.753 24.909,14.507 25.092,14.661C25.277,14.815 25.431,15.03 25.277,15.122C25.124,15.215 24.569,15.245 24.385,15.215C24.385,15.215 24.6,15.338 24.786,15.368C24.97,15.4 25.339,15.461 25.309,15.645C25.278,15.83 25.37,16.076 25.125,16.045C24.879,16.015 24.909,15.892 24.971,15.799C25.032,15.707 24.879,15.615 24.602,15.645C24.326,15.676 23.986,15.522 23.986,15.522C23.986,15.522 23.894,15.768 24.017,15.83C24.017,15.83 23.648,15.984 23.432,16.015C23.217,16.045 23.002,16.138 23.002,16.015C23.002,15.892 23.156,15.707 23.279,15.768C23.402,15.83 23.616,15.737 23.679,15.737C23.74,15.737 23.463,15.552 23.617,15.491C23.771,15.429 23.495,15.398 23.341,15.491C23.187,15.583 22.264,15.829 21.956,15.952C21.649,16.075 21.371,16.045 21.248,16.106C21.125,16.168 20.879,16.014 21.002,15.86C21.125,15.706 21.186,15.614 21.279,15.706C21.371,15.798 21.525,15.768 21.74,15.706C21.956,15.645 21.618,15.583 21.556,15.522C21.495,15.46 21.249,15.091 21.249,14.998C21.245,14.906 20.691,14.814 21.029,14.537ZM22.17,12.215C21.986,11.938 21.432,11.568 21.432,11.568L21.955,11.722C21.955,11.722 21.709,11.384 21.432,11.322C21.492,11.322 21.986,11.384 22.139,11.507C22.139,11.507 21.708,11.015 21.492,10.922C21.492,10.922 22.016,11.076 22.201,11.261L21.986,10.799C21.986,10.799 22.386,10.984 22.509,11.23C22.509,11.23 22.386,10.738 22.139,10.492C22.139,10.492 22.509,10.708 22.633,10.892L22.724,10.452L22.996,10.697L23.181,10.355L23.398,10.708L23.771,10.322C23.771,10.322 23.679,10.622 23.648,10.899C23.648,10.899 23.802,10.649 24.14,10.526C24.14,10.526 23.709,11.186 23.648,11.432C23.648,11.432 24.263,10.823 24.663,10.669C24.663,10.669 24.109,11.319 23.956,11.565C23.956,11.565 24.417,11.167 24.847,11.044C24.847,11.044 24.293,11.629 24.201,11.752C24.201,11.752 24.509,11.629 24.909,11.66C24.909,11.66 23.986,12.183 23.771,12.368C23.555,12.552 22.17,12.215 22.17,12.215Z" fill="#fcd53f" />
  <path d="M21.732,13.572C21.4,13.633 21.309,13.815 21.339,13.996C21.369,14.178 21.582,14.328 21.792,14.238C22.004,14.147 22.102,14.102 22.186,14.087C22.392,14.049 22.67,13.966 22.67,13.966C22.67,13.966 23.003,14.026 23.185,13.966C23.185,13.966 23.517,14.117 23.789,13.996C23.789,13.996 24.455,14.298 24.757,14.178C25.059,14.057 24.812,13.652 24.666,13.603C24.394,13.512 23.729,13.422 23.214,13.392C22.7,13.361 21.732,13.572 21.732,13.572Z" fill="#f4f4f4" />
  <path d="M24.693,13.599C24.58,13.562 24.399,13.523 24.189,13.489C24.189,13.489 24.232,13.66 24.262,13.845C24.283,13.968 24.29,14.105 24.357,14.182C24.515,14.232 24.675,14.227 24.786,14.182C25.093,14.061 24.842,13.648 24.693,13.599ZM22.891,13.389C22.986,13.5 23.044,13.79 23.176,13.972C23.224,14.001 23.529,14.136 23.788,14.005C23.816,13.954 23.572,13.412 23.572,13.412C23.45,13.4 23.009,13.381 22.891,13.389ZM22.229,14.078C22.276,14.107 22.647,13.998 22.647,13.972C22.642,13.924 22.601,13.857 22.54,13.722C22.49,13.612 22.425,13.523 22.355,13.45C22.051,13.496 21.791,13.55 21.726,13.564C21.856,13.784 21.998,13.94 22.229,14.078Z" fill="#062365" />
  <path d="M20.724,12.338C20.724,12.338 20.816,11.998 21.216,11.998C21.616,11.998 21.432,12.245 21.893,12.275C22.356,12.306 23.986,12.522 24.232,12.645C24.478,12.768 24.786,12.737 24.939,12.706C25.093,12.675 24.971,12.86 24.817,12.952C24.663,13.045 24.355,12.983 24.355,12.983C24.355,12.983 24.694,13.291 24.786,13.506C24.879,13.722 24.786,13.814 24.632,13.722C24.479,13.629 24.294,13.814 24.262,13.691C24.232,13.568 23.925,13.137 23.925,13.137C23.925,13.137 23.032,13.014 22.786,13.229C22.541,13.445 22.239,13.525 21.74,13.475C21.433,13.445 21.248,13.291 21.31,13.106C21.372,12.922 21.525,12.86 21.525,12.86C21.525,12.86 21.494,12.491 21.372,12.583C21.249,12.675 20.971,12.614 20.94,12.552C20.909,12.492 20.724,12.338 20.724,12.338Z" fill="#028f4d" />
  <path d="M21.708,12.215C21.84,12.135 22.477,11.845 22.97,11.876C23.462,11.907 23.77,12.03 24.108,12.215C24.447,12.399 24.416,12.553 24.601,12.615C24.786,12.676 24.693,12.768 24.601,12.861C24.509,12.953 24.2,13.476 23.216,13.445C22.231,13.415 22.139,13.138 21.985,13.015C21.831,12.892 21.739,12.584 21.739,12.492C21.739,12.399 21.555,12.306 21.708,12.215Z" fill="#028f4d" />
  <path d="M23.555,13.138C23.889,13.046 24.341,12.925 24.561,12.598C24.419,12.528 24.419,12.384 24.109,12.215C23.771,12.03 23.462,11.907 22.971,11.876C22.623,11.854 22.202,11.992 21.939,12.104C21.925,12.322 21.925,12.584 21.925,12.584C21.925,12.584 22.202,12.738 22.417,12.922C22.632,13.107 23.216,13.23 23.555,13.138Z" fill="#276038" />
</svg>