<?xml version="1.0" encoding="UTF-8"?>
<svg xmlns="http://www.w3.org/2000/svg" xmlns:xlink="http://www.w3.org/1999/xlink" width="32px" height="32px" viewBox="0 0 32 32" version="1.1">
  <path fill="#00a6ed" d="M 6 6 L 26 6 L 26 26 L 6 26 Z M 6 6 "/>
  <path fill="#f4f4f4" d="M 10.773438 11.085938 C 10.773438 10.226562 11.324219 9.742188 12.066406 9.742188 C 12.390625 9.742188 12.925781 10 13.152344 10.3125 L 18.609375 17.597656 L 18.644531 17.597656 L 18.644531 11.085938 C 18.644531 10.226562 19.195312 9.742188 19.9375 9.742188 C 20.679688 9.742188 21.230469 10.226562 21.230469 11.085938 L 21.230469 20.871094 C 21.230469 21.730469 20.679688 22.214844 19.9375 22.214844 C 19.609375 22.214844 19.09375 21.957031 18.851562 21.644531 L 13.390625 14.445312 L 13.355469 14.445312 L 13.355469 20.871094 C 13.355469 21.730469 12.804688 22.214844 12.0625 22.214844 C 11.324219 22.214844 10.773438 21.730469 10.773438 20.871094 Z M 10.773438 11.085938 "/>
</svg>
