<svg width="32" height="32" viewBox="0 0 32 32" xmlns="http://www.w3.org/2000/svg">
  <polygon fill="#f4f4f4" points="2,11 3,10 29,10 30,11 30,21 29,22 3,22 2,21" />
  <rect fill="#F8312F" x="2" y="6" width="28" height="5" />
  <rect fill="#F8312F" x="2" y="21" width="28" height="5" />
  <path fill="#00A85B" d="M15.864,11C15.649,11.452 15.245,11.768 14.858,12.067C14.795,12.122 14.637,12.23 14.751,12.312C14.85,12.202 15.119,12.347 14.963,12.465C14.822,12.597 14.629,12.645 14.473,12.753C14.335,12.828 14.195,12.906 14.086,13.021C14.078,13.201 14.308,13.101 14.401,13.176C14.523,13.306 14.35,13.525 14.19,13.475C13.987,13.481 13.846,13.66 13.769,13.832C13.609,14.078 13.307,14.151 13.066,14.292C12.929,14.372 12.795,14.461 12.667,14.554C12.502,14.667 12.646,14.891 12.821,14.836C13.011,14.817 13.182,14.668 13.378,14.711C13.557,14.774 13.607,15.006 13.546,15.169C13.501,15.299 13.392,15.391 13.304,15.493C13.163,15.636 12.977,15.729 12.782,15.774C12.593,15.837 12.423,15.953 12.299,16.109C12.155,16.254 12.012,16.401 11.847,16.522C11.795,16.655 11.942,16.769 12.065,16.765C12.324,16.749 12.503,16.537 12.724,16.428C12.907,16.346 13.122,16.543 13.077,16.734C13.063,16.919 12.889,17.013 12.735,17.07C12.281,17.298 11.887,17.629 11.537,17.994C11.465,18.142 11.266,18.099 11.159,18.201C11.089,18.332 11.264,18.4 11.369,18.387C11.818,18.333 12.237,18.143 12.634,17.934C12.781,17.864 12.92,17.771 13.073,17.715C13.217,17.679 13.418,17.742 13.444,17.906C13.444,18.079 13.272,18.175 13.136,18.242C12.717,18.463 12.258,18.584 11.81,18.73C11.642,18.683 11.516,18.981 11.7,19.035C11.894,19.102 12.101,19.048 12.3,19.039C12.915,18.945 13.453,18.612 14.028,18.397C14.267,18.319 14.549,18.428 14.667,18.652C14.786,18.852 14.775,19.114 14.65,19.308C14.452,19.731 14.152,20.119 13.749,20.362C13.496,20.488 13.2,20.536 12.983,20.728C12.782,20.794 13.084,21.065 13.127,20.85C13.248,20.685 13.46,20.636 13.653,20.629C13.943,20.598 14.251,20.544 14.476,20.344C14.678,20.187 14.877,19.97 15.151,19.967C15.303,19.985 15.453,20.107 15.607,20.033C15.741,19.971 15.953,20.007 15.988,20.173C16.052,20.366 16.252,20.454 16.41,20.558C16.467,20.638 16.658,20.846 16.702,20.663C16.666,20.533 16.717,20.333 16.888,20.376C17.038,20.383 17.18,20.438 17.329,20.447C17.528,20.488 17.694,20.625 17.807,20.789C17.884,20.896 18.055,21.08 18.181,20.938C18.259,20.791 18.11,20.668 17.988,20.616C17.81,20.506 17.658,20.359 17.503,20.22C17.274,20.007 17.076,19.735 17.04,19.415C16.99,19.097 17.016,18.772 17.058,18.454C17.11,18.249 17.372,18.138 17.555,18.246C17.812,18.364 18.068,18.532 18.363,18.514C18.789,18.523 19.227,18.441 19.643,18.565C20.049,18.692 20.339,19.035 20.734,19.183C20.822,19.236 20.935,19.185 20.967,19.091C21.007,19.006 20.979,18.897 20.897,18.849C20.44,18.387 19.814,18.163 19.285,17.802C19.118,17.759 19.087,17.491 19.242,17.414C19.444,17.266 19.731,17.335 19.911,17.487C20.062,17.576 20.233,17.642 20.412,17.642C20.594,17.585 20.506,17.321 20.342,17.302C20.046,17.134 19.834,16.86 19.578,16.643C19.43,16.518 19.269,16.391 19.07,16.367C18.962,16.347 18.851,16.343 18.741,16.35C18.638,16.238 18.775,16.067 18.909,16.081C19.045,16.09 19.181,16.1 19.318,16.081C19.47,16.07 19.623,16.054 19.776,16.053C19.9,16.137 20.147,15.992 20.035,15.847C19.913,15.74 19.737,15.749 19.591,15.695C19.336,15.611 19.075,15.542 18.811,15.49C18.627,15.479 18.65,15.236 18.812,15.209C18.918,15.169 19.01,15.251 19.112,15.264C19.286,15.301 19.465,15.3 19.639,15.338C19.787,15.266 19.673,15.05 19.539,15.038C19.225,14.925 18.953,14.722 18.687,14.525C18.394,14.304 18.127,14.049 17.83,13.833C17.723,13.766 17.546,13.747 17.518,13.599C17.508,13.463 17.668,13.401 17.781,13.433C17.943,13.48 18.093,13.563 18.257,13.604C18.386,13.626 18.519,13.664 18.643,13.648C18.801,13.549 18.576,13.485 18.494,13.451C18.284,13.337 18.097,13.186 17.908,13.042C17.748,12.906 18.043,12.845 18.145,12.898C18.315,12.969 18.334,12.721 18.207,12.659C18.058,12.595 17.929,12.49 17.793,12.397C17.548,12.223 17.27,12.085 16.968,12.046C16.63,12.012 16.315,11.818 16.135,11.529C16.024,11.364 15.942,11.182 15.864,11ZM14.753,12.897C14.928,12.902 14.901,13.216 14.729,13.195C14.563,13.184 14.573,12.863 14.753,12.897ZM16.397,13.066C16.566,13.036 16.602,13.345 16.433,13.359C16.256,13.391 16.191,13.046 16.397,13.066ZM15.916,13.106C16.087,13.14 16.057,13.439 15.883,13.442C15.756,13.47 15.62,13.557 15.491,13.492C15.387,13.382 15.538,13.218 15.654,13.182C15.744,13.164 15.826,13.124 15.916,13.106ZM17.023,13.107C17.189,13.168 17.131,13.46 16.956,13.457C16.791,13.479 16.714,13.203 16.868,13.138C16.918,13.12 16.97,13.105 17.023,13.107ZM15.154,13.439C15.276,13.555 15.204,13.779 15.054,13.832C14.946,13.893 14.798,14.035 14.68,13.918C14.616,13.775 14.777,13.667 14.871,13.587C14.956,13.522 15.049,13.462 15.154,13.439ZM16.546,14.086C16.72,14.168 16.631,14.482 16.44,14.463C16.283,14.423 16.303,14.153 16.462,14.132C16.492,14.12 16.519,14.104 16.546,14.086ZM15.992,14.117C16.155,14.193 16.031,14.466 15.867,14.426C15.696,14.406 15.699,14.107 15.887,14.134C15.923,14.132 15.959,14.131 15.992,14.117ZM17.185,14.273C17.364,14.218 17.579,14.402 17.521,14.589C17.441,14.733 17.244,14.752 17.103,14.698C16.941,14.69 16.832,14.446 16.977,14.343C17.036,14.298 17.112,14.279 17.185,14.273ZM14.544,14.32C14.692,14.239 14.849,14.481 14.724,14.588C14.64,14.71 14.426,14.76 14.332,14.624C14.254,14.491 14.381,14.268 14.545,14.32L14.544,14.32ZM13.862,14.434C14.03,14.457 14.139,14.61 14.201,14.755C14.217,14.931 13.956,15.028 13.842,14.9C13.714,14.82 13.602,14.654 13.669,14.501C13.711,14.44 13.793,14.415 13.863,14.434L13.862,14.434ZM17.943,15.073C18.125,15.025 18.257,15.316 18.1,15.421C17.958,15.551 17.68,15.379 17.754,15.194C17.791,15.125 17.865,15.08 17.943,15.073L17.943,15.073ZM15.626,15.405C15.779,15.424 15.73,15.689 15.589,15.68C15.437,15.652 15.472,15.39 15.626,15.405ZM14.852,15.545C14.977,15.457 15.137,15.672 15.034,15.772C14.91,15.86 14.749,15.648 14.852,15.545ZM16.083,15.571C16.227,15.659 16.313,15.822 16.331,15.987C16.262,16.141 15.995,16.104 15.965,15.94C15.912,15.81 15.961,15.644 16.083,15.571L16.083,15.571ZM16.513,15.826C16.698,15.78 16.632,16.168 16.477,16.033C16.425,15.972 16.453,15.871 16.513,15.826L16.513,15.826ZM13.815,16.097C13.938,16.061 14.118,16.099 14.152,16.24C14.166,16.373 14.02,16.442 13.913,16.475C13.742,16.528 13.574,16.615 13.39,16.603C13.251,16.524 13.202,16.362 13.153,16.221C13.286,16.096 13.482,16.133 13.648,16.102C13.703,16.099 13.759,16.097 13.815,16.097ZM17.999,16.706C18.156,16.629 18.325,16.878 18.194,16.994C18.029,17.184 17.713,17.219 17.516,17.06C17.492,16.892 17.66,16.771 17.808,16.747C17.871,16.729 17.933,16.703 17.999,16.706ZM18.882,16.897C19.06,16.866 19.201,17.121 19.073,17.252C18.953,17.434 18.665,17.482 18.501,17.333C18.437,17.182 18.567,17.025 18.705,16.977C18.765,16.951 18.821,16.919 18.882,16.897ZM14.444,17.168C14.609,17.151 14.761,17.315 14.739,17.478C14.859,17.596 14.647,17.815 14.528,17.693C14.423,17.566 14.423,17.393 14.383,17.241C14.381,17.207 14.406,17.163 14.444,17.168ZM15.713,17.263C15.883,17.189 16.104,17.393 16.011,17.566C15.945,17.707 15.686,17.66 15.695,17.496C15.694,17.418 15.688,17.338 15.713,17.262L15.713,17.263ZM15.095,17.373C15.267,17.334 15.424,17.556 15.329,17.704C15.158,17.719 15.069,17.517 15.095,17.373Z"/>
</svg>
