<svg width="32" height="32" viewBox="0 0 32 32" xmlns="http://www.w3.org/2000/svg">
  <path d="M2,6L30,6L30,15L29,16L30,17L30,26L2,26L2,17L3,16L2,15L2,6Z" fill="#072975" />
  <rect x="2" y="15" width="28" height="2" fill="#fdbb11" />
  <path d="M9,23L8.612,21.449L7.5,22.598L7.939,21.061L6.402,21.5L7.551,20.388L6,20L7.551,19.612L6.402,18.5L7.939,18.939L7.5,17.402L8.612,18.551L9,17L9.388,18.551L10.5,17.402L10.061,18.939L11.598,18.5L10.449,19.612L12,20L10.449,20.388L11.598,21.5L10.061,21.061L10.5,22.598L9.388,21.449L9,23Z" fill="#f4f4f4" />
</svg>
