<?xml version="1.0" encoding="UTF-8"?>
<svg xmlns="http://www.w3.org/2000/svg" xmlns:xlink="http://www.w3.org/1999/xlink" width="32px" height="32px" viewBox="0 0 32 32" version="1.1">
  <path fill="#00a6ed" d="M 6 6 L 26 6 L 26 26 L 6 26 Z M 6 6 "/>
  <path fill="#f4f4f4" d="M 19.488281 19.835938 C 20.210938 19.835938 20.730469 20.234375 20.730469 20.972656 C 20.730469 21.628906 20.109375 22.109375 19.488281 22.109375 L 12.71875 22.109375 C 11.808594 22.109375 11.273438 21.59375 11.273438 20.871094 C 11.273438 20.527344 11.394531 20.183594 11.617188 19.871094 L 17.164062 12.121094 L 12.632812 12.121094 C 11.945312 12.121094 11.429688 11.722656 11.429688 11.019531 C 11.429688 10.363281 11.980469 9.847656 12.632812 9.847656 L 18.9375 9.847656 C 19.9375 9.847656 20.382812 10.484375 20.382812 11.085938 C 20.382812 11.464844 20.230469 11.898438 20.003906 12.1875 L 14.492188 19.835938 Z M 19.488281 19.835938 "/>
</svg>
