<svg width="32" height="32" viewBox="0 0 32 32" xmlns="http://www.w3.org/2000/svg">
  <path d="M16,6L30,16L30,26L16,26L2,16L2,6L16,6Z" fill="#f4f4f4" />
  <rect x="2" y="16" width="14" height="10" fill="#062365" />
  <path d="M9.518,10.287L9,8.692L8.482,10.287L6.805,10.287L8.162,11.272L7.644,12.867L9,11.882L10.356,12.867L9.838,11.272L11.195,10.287L9.518,10.287Z" fill="#062365" />
  <rect x="16" y="6" width="14" height="10" fill="#cf0828" />
  <path d="M22.162,21.272L21.644,22.867L23,21.882L24.356,22.867L23.838,21.272L25.195,20.287L23.518,20.287L23,18.692L22.482,20.287L20.805,20.287L22.162,21.272Z" fill="#cf0828" />
</svg>
