<svg width="32" height="32" viewBox="0 0 32 32" xmlns="http://www.w3.org/2000/svg">
  <polygon fill="#005A2E" points="30,6 10,6 9,7 9,25 10,26 30,26" />
  <rect fill="#F4F4F4" x="2" y="6" width="8" height="20" />
  <path d="M25.44,11.212L23.771,11.922L22.58,10.554L22.739,12.361L21.07,13.072L22.838,13.478L22.998,15.285L23.931,13.729L25.698,14.136L24.508,12.768L25.44,11.212Z" fill="#F4F4F4" />
  <path d="M21.154,19.825C18.392,19.825 16.154,17.586 16.154,14.825C16.154,12.816 17.341,11.089 19.048,10.294C16.316,10.749 14.231,13.118 14.231,15.978C14.231,19.165 16.814,21.748 20,21.748C22.862,21.748 25.23,19.662 25.685,16.93C24.889,18.638 23.162,19.825 21.154,19.825Z" fill="#F4F4F4" />

</svg>
