<svg width="32" height="32" viewBox="0 0 32 32" xmlns="http://www.w3.org/2000/svg">
  <polygon fill="#f4f4f4" points="6,11 29,11 30,12 30,13 29,14 6,14" />
  <polygon fill="#f4f4f4" points="6,21 29,21 30,20 30,19 29,18 6,18" />
  <polygon fill="#007356" points="2,6 30,6 30,12 6,12" />
  <rect fill="#1c1c1c" x="6" y="13" width="24" height="6" />
  <polygon fill="#FCD53F" points="2,26 30,26 30,20 6,20" />
  <polygon fill="#CF0828" points="2,6 16,16 2,26" />
  <path d="M9.515,19.894L6.999,18.052L4.486,19.894L5.46,16.932L2.932,15.112L6.05,15.123L7,12.155L7.953,15.125L11.068,15.111L8.539,16.935L9.515,19.894Z" fill="#FCD53F" />
  <path d="M4.816,18.078L6.628,18.078C6.774,18.242 7.1,18.309 7.41,18.077C7.977,17.766 9.077,18.078 9.077,18.078L9.293,17.848L8.765,16.118L8.576,15.915C8.576,15.915 8.17,15.671 7.399,15.752C6.628,15.834 6.357,15.725 6.357,15.725C6.357,15.725 5.681,15.806 5.492,15.901C5.471,15.918 5.275,16.117 5.275,16.117L4.816,18.078Z" fill="#141414" />
  <path d="M4.816,17.828L6.628,17.828C6.774,17.992 7.1,18.058 7.41,17.826C7.977,17.515 9.077,17.828 9.077,17.828L9.293,17.598L8.765,15.867L8.576,15.664C8.576,15.664 8.17,15.42 7.399,15.502C6.628,15.582 6.357,15.474 6.357,15.474C6.357,15.474 5.681,15.555 5.492,15.65C5.471,15.667 5.275,15.866 5.275,15.866L4.816,17.828Z" fill="#f4f4f4" />
  <path d="M3.927,15.24L4.898,13.816L5.493,13.912L5.836,13.558L7.021,15.01L7.972,14.335L8.554,13.848L8.903,14.063L10.14,13.266L9.022,14.314L8.095,14.972L7.357,15.305L9.851,18.245L9.525,18.476L7.147,15.592L6.377,16.211L7.39,16.535L7.357,17.02L5.934,16.628L5.998,17.635L5.67,17.777L5.379,17.196L4.121,18.671L3.668,17.894L5.092,16.696L5.124,16.275L5.901,15.564L6.127,15.532L6.775,15.272L5.803,14.237L4.507,16.046L3.951,15.377" fill="#141414" />
</svg>
