<svg width="32" height="32" viewBox="0 0 32 32" xmlns="http://www.w3.org/2000/svg">
  <polygon fill="#008E48" points="2,6 23.14,6 16,16 2,21.1" />
  <polygon fill="#CF0828" points="16,16 30,10.9 30,26 8.86,26" />
  <polygon fill="#FDBB11" points="25.1,6 23.14,6 2,21.1 2,22.5 6.9,26 8.86,26 30,10.9 30,9.5" />
  <polygon fill="#1c1c1c" points="30,6 25.1,6 2,22.5 2,26 6.9,26 30,9.5" />
  <path d="M19.836,10.188L21.42,15.201L23.085,10.214L18.807,13.27L24.064,13.312L19.836,10.188ZM9.258,17.744L10.842,22.757L12.507,17.77L8.229,20.826L13.486,20.868L9.258,17.744Z" fill="#f4f4f4"/>
</svg>
