<svg width="32" height="32" viewBox="0 0 32 32" xmlns="http://www.w3.org/2000/svg">
  <polygon fill="#F8312F" points="2,6 30,6 30,16 29,17 3,17 2,16" />
  <rect fill="#f4f4f4" x="2" y="16" width="28" height="10" />
  <path d="M9.169,14.586C8.902,14.648 8.623,14.681 8.336,14.681C6.305,14.681 4.656,13.031 4.656,11C4.656,8.969 6.305,7.319 8.336,7.319C8.623,7.319 8.902,7.352 9.169,7.414C7.539,7.792 6.322,9.255 6.322,11C6.322,12.745 7.539,14.208 9.169,14.586ZM10.135,8.593L10.35,7.931L10.565,8.593L11.261,8.593L10.698,9.002L10.913,9.664L10.35,9.255L9.787,9.664L10.002,9.002L9.439,8.593L10.135,8.593ZM12.143,10.051L12.358,9.389L12.573,10.051L13.269,10.051L12.706,10.461L12.921,11.123L12.358,10.714L11.794,11.123L12.01,10.461L11.446,10.051L12.143,10.051ZM8.894,12.412L9.109,11.75L9.324,12.412L10.021,12.412L9.457,12.821L9.672,13.483L9.109,13.074L8.546,13.483L8.761,12.821L8.198,12.412L8.894,12.412ZM11.376,12.412L11.591,11.75L11.806,12.412L12.502,12.412L11.939,12.821L12.154,13.483L11.591,13.074L11.028,13.483L11.243,12.821L10.679,12.412L11.376,12.412ZM8.127,10.051L8.342,9.389L8.557,10.051L9.254,10.051L8.69,10.461L8.906,11.123L8.342,10.714L7.779,11.123L7.994,10.461L7.431,10.051L8.127,10.051Z" fill="#f4f4f4" />
</svg>
