<svg width="32" height="32" viewBox="0 0 32 32" xmlns="http://www.w3.org/2000/svg">
  <polygon fill="#0b338d" points="2,6 30,6 30,16 29,17 6,17" />
  <polygon fill="#CF0828" points="2,26 30,26 30,16 6,16" />
  <polygon fill="#f4f4f4" points="2,6 16,16 2,26" />
  <path d="M13.45,14.835L12.305,16.819L14.398,15.888L12.157,15.411L13.69,17.114L13.45,14.835Z" fill="#FCD53F" />
  <path d="M3.215,8.457L3.692,10.698L4.624,8.605L2.639,9.75L4.918,9.99L3.215,8.457Z" fill="#FCD53F" />
  <path d="M3.572,21.322L3.333,23.6L4.866,21.898L2.625,22.374L4.718,23.306L3.572,21.322Z" fill="#FCD53F" />
  <path d="M9.433,16C9.433,17.233 8.433,18.233 7.2,18.233C5.967,18.233 4.967,17.232 4.967,16C4.967,14.767 5.967,13.767 7.2,13.767C8.433,13.767 9.433,14.767 9.433,16Z" fill="#FCD53F" />
  <path d="M7.643,11.979L7.526,13.95L7.344,13.923L7.408,11.635L7.2,11.5L6.992,11.635L7.056,13.923L6.874,13.95L6.757,11.979L6.495,12.141L6.739,14.149L7.661,14.149L7.905,12.141L7.643,11.979ZM6.757,20.021L6.874,18.05L7.056,18.077L6.992,20.365L7.2,20.5L7.408,20.365L7.344,18.077L7.526,18.05L7.643,20.021L7.905,19.859L7.661,17.851L6.739,17.851L6.495,19.859L6.757,20.021ZM4.043,18.529L5.52,17.22L5.629,17.366L3.967,18.939L4.018,19.182L4.261,19.233L5.834,17.57L5.98,17.68L4.67,19.157L4.97,19.227L6.217,17.635L5.565,16.983L3.973,18.23L4.043,18.529ZM10.357,13.47L8.88,14.78L8.771,14.634L10.433,13.061L10.382,12.818L10.139,12.767L8.566,14.429L8.42,14.32L9.73,12.843L9.43,12.773L8.183,14.365L8.835,15.017L10.427,13.77L10.357,13.47ZM3.179,15.557L5.151,15.674L5.123,15.856L2.835,15.792L2.7,16L2.835,16.208L5.123,16.144L5.151,16.326L3.179,16.443L3.341,16.705L5.349,16.461L5.349,15.539L3.341,15.295L3.179,15.557ZM11.221,16.443L9.249,16.326L9.277,16.144L11.565,16.208L11.7,16L11.565,15.792L9.277,15.856L9.249,15.674L11.221,15.557L11.059,15.295L9.051,15.539L9.051,16.461L11.059,16.705L11.221,16.443ZM4.67,12.843L5.98,14.32L5.834,14.429L4.261,12.767L4.018,12.818L3.967,13.061L5.629,14.634L5.52,14.78L4.043,13.47L3.973,13.77L5.565,15.017L6.217,14.365L4.97,12.773L4.67,12.843ZM9.73,19.157L8.42,17.68L8.566,17.57L10.139,19.233L10.382,19.182L10.433,18.939L8.771,17.366L8.88,17.22L10.357,18.529L10.427,18.23L8.835,16.983L8.183,17.635L9.43,19.227L9.73,19.157Z" fill="#FCD53F" />
</svg>
