<svg width="32" height="32" viewBox="0 0 32 32" xmlns="http://www.w3.org/2000/svg">
  <rect fill="#1345B7" x="2" y="6" width="28" height="20" />
  <path d="M22.104,16.246C22.091,15.997 21.933,15.799 21.933,15.799C21.933,15.799 22.17,15.576 22.156,15.247C22.142,14.918 21.827,14.682 21.827,14.682C21.827,14.682 21.933,14.564 21.945,14.314C21.958,14.064 21.748,13.972 21.748,13.972C21.748,13.972 21.827,13.762 21.708,13.63C21.59,13.498 21.405,13.512 21.405,13.512C21.405,13.512 21.577,13.341 21.458,13.104C21.34,12.868 21.129,12.815 21.129,12.815C21.129,12.815 21.182,12.525 20.972,12.315C20.762,12.105 20.393,12.131 20.393,12.131C20.393,12.131 20.458,11.698 20.275,11.513C20.091,11.329 19.684,11.448 19.684,11.448C19.749,11.289 19.631,11 19.434,10.869C19.236,10.738 18.685,10.79 18.685,10.79C18.724,10.645 18.566,10.462 18.329,10.382C18.092,10.303 17.856,10.422 17.856,10.422C17.856,10.422 17.633,10.158 17.435,10.145C17.238,10.132 17.094,10.225 17.094,10.225C17.094,10.225 16.988,9.988 16.752,9.988C16.515,9.988 16.042,10.304 16.042,10.304C16.042,10.304 15.503,10.054 15.241,10.067C14.978,10.08 14.833,10.251 14.833,10.251C14.833,10.251 14.558,10.092 14.242,10.238C13.926,10.382 13.9,10.592 13.9,10.592C13.9,10.592 13.702,10.487 13.387,10.553C13.072,10.618 13.032,10.948 13.032,10.948C13.032,10.948 12.782,10.842 12.533,11.013C12.283,11.184 12.349,11.355 12.349,11.355C12.349,11.355 12.165,11.21 11.862,11.368C11.56,11.525 11.56,11.802 11.56,11.802C11.56,11.802 11.363,11.749 11.126,12.065C10.889,12.38 10.929,12.512 10.929,12.512C10.929,12.512 10.679,12.525 10.535,12.893C10.39,13.262 10.535,13.445 10.535,13.445C10.535,13.445 10.325,13.538 10.166,13.853C10.008,14.169 10.114,14.485 10.114,14.485C10.114,14.485 9.825,14.616 9.851,14.998C9.877,15.379 10.127,15.471 10.127,15.471C10.127,15.471 9.904,15.589 9.877,15.892C9.851,16.195 10.048,16.312 10.048,16.312C10.048,16.312 9.852,16.431 9.838,16.681C9.825,16.929 10.259,17.075 10.259,17.075C10.259,17.075 10.102,17.167 10.102,17.405C10.102,17.641 10.417,17.745 10.417,17.745C10.417,17.745 10.285,17.864 10.365,18.167C10.443,18.468 10.719,18.468 10.719,18.468C10.641,18.692 10.904,18.772 10.904,18.772C10.904,18.772 10.785,18.85 10.995,19.102C11.205,19.349 11.416,19.258 11.416,19.258C11.324,19.534 11.587,19.626 11.587,19.626C11.614,20.113 12.152,19.995 12.152,19.995C12.245,20.442 12.586,20.336 12.586,20.336C12.586,20.336 12.442,20.533 12.665,20.77C12.889,21.008 13.244,20.927 13.244,20.927C13.441,21.243 13.875,21.36 14.362,21.282C14.848,21.204 15.374,21.177 15.624,21.112C15.874,21.046 17.531,21.125 17.531,21.125C17.531,21.125 18.161,21.269 18.503,21.085C18.845,20.901 18.818,20.73 18.818,20.73C18.818,20.73 19.002,20.848 19.358,20.678C19.712,20.506 19.647,20.138 19.647,20.138C19.647,20.138 19.975,20.138 20.16,19.968C20.344,19.798 20.278,19.692 20.278,19.692C20.278,19.692 20.567,19.547 20.672,19.416C20.778,19.284 20.685,19.152 20.685,19.152C20.685,19.152 20.816,19.218 21.053,19.008C21.291,18.797 21.263,18.455 21.263,18.455C21.263,18.455 21.435,18.481 21.579,18.245C21.724,18.007 21.631,17.798 21.631,17.798C21.631,17.798 21.828,17.652 21.947,17.351C22.065,17.048 21.96,16.732 21.96,16.732C21.96,16.732 22.117,16.496 22.104,16.246ZM20.421,16.746C20.434,16.785 20.315,16.76 20.158,16.984C20,17.206 20.106,17.509 20.106,17.509C20.106,17.509 19.922,17.654 19.803,17.786C19.685,17.917 19.685,18.167 19.685,18.167C19.685,18.167 19.528,18.18 19.304,18.363C19.081,18.547 19.081,18.875 19.081,18.875C19.081,18.875 18.923,18.836 18.686,19.035C18.449,19.232 18.449,19.495 18.449,19.495C18.449,19.495 18.278,19.362 17.922,19.534C17.567,19.705 17.252,19.995 17.252,19.995C17.252,19.995 14.584,19.968 14.386,19.678C14.189,19.391 13.663,19.522 13.663,19.522C13.663,19.522 13.715,19.349 13.453,19.18C13.19,19.009 12.94,19.088 12.94,19.088C12.94,19.088 13.085,19.01 13.018,18.877C12.953,18.746 12.769,18.76 12.769,18.76C12.769,18.76 12.874,18.721 12.808,18.484C12.743,18.248 12.362,18.274 12.362,18.274C12.362,18.274 12.532,18.169 12.414,17.945C12.295,17.721 12.019,17.762 12.019,17.762C12.019,17.762 12.072,17.564 12.019,17.368C11.967,17.169 11.757,17.13 11.757,17.13C11.757,17.13 11.928,17.104 11.888,16.866C11.848,16.629 11.585,16.512 11.585,16.512C11.585,16.512 11.638,16.355 11.638,16.091C11.638,15.828 11.48,15.762 11.48,15.762C11.48,15.762 11.677,15.67 11.704,15.447C11.73,15.224 11.585,14.987 11.585,14.987C11.585,14.987 11.717,14.882 11.77,14.711C11.822,14.539 11.743,14.448 11.743,14.448C11.743,14.448 11.915,14.342 11.98,14.158C12.046,13.974 12.019,13.777 12.019,13.777C12.019,13.777 12.164,13.737 12.295,13.58C12.427,13.422 12.362,13.278 12.362,13.278C12.362,13.278 12.664,13.291 12.808,13.133C12.953,12.975 12.967,12.778 12.967,12.778C12.967,12.778 13.151,12.804 13.388,12.633C13.625,12.462 13.598,12.305 13.598,12.305C13.598,12.305 13.821,12.37 14.005,12.252C14.189,12.134 14.281,11.924 14.281,11.924C14.281,11.924 14.346,12.016 14.622,11.924C14.898,11.832 15.004,11.74 15.004,11.74C15.004,11.74 15.109,11.898 15.372,11.845C15.635,11.792 15.845,11.622 15.845,11.622C15.845,11.622 15.885,11.805 16.175,11.753C16.463,11.7 16.582,11.608 16.582,11.608C16.582,11.608 16.555,11.805 16.766,11.858C16.976,11.91 17.174,11.831 17.174,11.831C17.174,11.831 17.199,11.976 17.345,12.002C17.49,12.028 17.594,11.924 17.594,11.924C17.594,11.924 17.62,12.134 17.845,12.252C18.068,12.371 18.435,12.305 18.435,12.305C18.435,12.305 18.422,12.41 18.58,12.488C18.738,12.568 18.895,12.594 18.895,12.594C18.895,12.594 18.843,12.817 19.094,12.896C19.342,12.975 19.488,12.975 19.488,12.975C19.488,12.975 19.514,13.16 19.605,13.344C19.698,13.528 19.935,13.607 19.935,13.607C19.935,13.607 19.855,13.725 19.895,13.935C19.935,14.146 20.236,14.238 20.236,14.238C20.236,14.238 20.158,14.383 20.21,14.58C20.262,14.777 20.408,14.922 20.408,14.922C20.408,14.922 20.315,15.118 20.302,15.29C20.289,15.461 20.5,15.921 20.5,15.921C20.5,15.921 20.29,16.039 20.302,16.276C20.315,16.509 20.408,16.707 20.421,16.746Z" fill="#f4f4f4" />
  <path d="M15.942,20.787C18.74,20.787 21.02,18.672 21.115,15.896C21.117,15.955 21.118,16.015 21.118,16.075C21.118,18.934 18.802,21.252 15.942,21.252C13.085,21.252 10.767,18.934 10.767,16.075C10.767,16.016 10.768,15.956 10.771,15.896C10.865,18.672 13.145,20.787 15.942,20.787ZM11.468,15.448C11.468,15.448 11.345,15.448 11.284,15.387C11.222,15.325 11.1,15.317 11.021,15.369C10.942,15.422 10.942,15.369 10.855,15.291C10.767,15.212 10.688,15.072 10.96,15.019C11.313,14.951 11.468,15.448 11.468,15.448ZM10.364,14.055C10.364,14.055 10.416,14.108 10.478,14.213C10.539,14.318 10.776,14.371 10.872,14.335C10.968,14.301 10.995,14.59 10.908,14.668C10.82,14.747 10.719,14.786 10.548,14.633C10.302,14.415 10.364,14.055 10.364,14.055ZM11.188,14.099C11.319,14.055 11.442,14.169 11.425,14.345C11.407,14.52 11.223,14.871 11.223,14.871C11.223,14.871 11.188,14.801 11.162,14.713C11.135,14.625 11.258,14.582 11.179,14.441C11.1,14.301 11.188,14.099 11.188,14.099ZM10.811,12.837C10.811,12.837 10.995,13.012 11.099,13.048C11.205,13.082 11.415,12.995 11.476,13.135C11.538,13.275 11.555,13.573 11.31,13.494C11.065,13.415 10.968,13.266 10.907,13.135C10.846,13.003 10.811,12.837 10.811,12.837ZM12.117,12.442C12.222,12.328 12.485,12.319 12.502,12.538C12.52,12.758 12.336,13.161 12.336,13.161C12.336,13.161 12.283,13.02 12.275,12.959C12.266,12.898 12.213,12.705 12.099,12.662C11.985,12.618 12.117,12.442 12.117,12.442ZM12.59,11.898C12.739,11.793 12.905,11.881 12.95,12.012C12.993,12.144 12.897,12.626 12.818,12.731L12.766,12.555C12.749,12.494 12.775,12.258 12.573,12.205C12.371,12.154 12.59,11.898 12.59,11.898ZM13.422,10.549C13.422,10.549 13.458,10.663 13.422,10.742C13.387,10.821 13.387,10.926 13.448,11.022C13.51,11.119 13.484,11.128 13.518,11.233C13.554,11.338 13.51,11.68 13.221,11.338C12.932,10.996 13.422,10.549 13.422,10.549ZM13.081,11.654C13.081,11.654 13.176,11.452 13.255,11.452C13.335,11.452 13.448,11.601 13.413,11.89C13.378,12.179 13.221,12.214 13.221,12.214C13.221,12.214 13.265,11.969 13.186,11.908C13.107,11.847 13.063,11.785 13.081,11.654ZM13.747,11.233L13.921,11.198C13.921,11.198 14.087,11.391 14.07,11.663C14.052,11.935 13.86,12.048 13.86,12.048C13.86,12.048 13.913,11.751 13.782,11.654C13.651,11.557 13.668,11.33 13.747,11.233ZM14.369,10.278C14.369,10.278 14.405,10.392 14.352,10.532C14.299,10.672 14.431,10.742 14.509,10.822C14.588,10.9 14.378,11.285 14.158,10.97C13.939,10.655 14.369,10.278 14.369,10.278ZM14.405,11.093C14.545,11.049 14.632,11.146 14.658,11.295C14.685,11.443 14.465,11.882 14.465,11.882C14.465,11.882 14.369,11.794 14.412,11.662C14.457,11.532 14.369,11.443 14.29,11.365C14.212,11.285 14.265,11.137 14.405,11.093ZM15.412,10.822C15.562,10.786 15.693,10.944 15.639,11.215C15.587,11.488 15.403,11.584 15.403,11.584C15.403,11.584 15.36,11.478 15.395,11.391C15.43,11.303 15.438,11.242 15.298,11.128C15.158,11.014 15.248,10.86 15.412,10.822ZM17.568,10.295C17.568,10.295 17.648,10.374 17.629,10.453C17.612,10.532 17.656,10.532 17.735,10.584C17.813,10.636 17.936,10.662 17.945,10.794C17.954,10.925 17.778,11.101 17.594,10.873C17.411,10.645 17.568,10.295 17.568,10.295ZM17.578,11.022C17.578,11.022 17.726,10.97 17.814,11.032C17.902,11.092 17.894,11.268 17.753,11.478C17.612,11.689 17.393,11.759 17.393,11.759L17.419,11.663C17.446,11.567 17.552,11.47 17.507,11.391C17.463,11.312 17.498,11.058 17.578,11.022ZM18.331,10.444C18.339,10.444 18.365,10.523 18.339,10.593C18.312,10.663 18.278,10.715 18.296,10.803C18.312,10.892 18.408,11.014 18.357,11.163C18.305,11.312 18.015,11.382 17.98,11.075C17.945,10.768 18.331,10.444 18.331,10.444ZM18.226,11.303C18.226,11.303 18.568,11.118 18.515,11.532C18.463,11.944 18.068,12.04 18.068,12.04C18.06,11.934 18.191,11.82 18.191,11.706C18.191,11.592 18.146,11.399 18.226,11.303ZM18.805,11.102C18.97,10.97 19.261,10.988 19.48,11.067C19.48,11.067 19.418,11.207 19.296,11.198C19.173,11.189 19.234,11.444 18.928,11.488C18.62,11.531 18.673,11.207 18.805,11.102ZM18.997,11.768C19.172,11.698 19.26,11.864 19.233,12.127C19.206,12.391 19.094,12.557 19.094,12.557C19.094,12.557 19.022,12.47 19.032,12.355C19.04,12.242 19.058,12.198 18.909,12.118C18.76,12.04 18.842,11.829 18.997,11.768ZM19.506,11.969C19.523,11.802 19.743,11.645 19.952,11.645C20.162,11.645 20.295,11.723 20.295,11.723C20.295,11.723 20.285,11.802 20.128,11.811C19.97,11.82 19.961,12.126 19.698,12.145C19.435,12.162 19.506,11.969 19.506,11.969ZM21.074,14.993C21.074,14.993 21.171,14.896 21.32,14.888C21.468,14.879 21.608,15.028 21.697,15.142C21.783,15.256 21.828,15.414 21.828,15.414C21.828,15.414 21.705,15.414 21.661,15.344C21.617,15.274 21.275,15.327 21.108,15.204C21.108,15.204 21.038,15.283 20.952,15.335C20.863,15.388 20.706,15.344 20.645,15.458C20.584,15.572 20.478,15.651 20.478,15.651C20.478,15.651 20.443,15.3 20.6,15.125C20.758,14.949 20.828,14.932 20.934,14.949C21.039,14.967 21.074,14.993 21.074,14.993Z" fill="#FFB02E" />
  <path d="M17.436,10.462C17.436,10.462 17,10.391 16.753,10.558C16.455,10.759 16.025,10.9 15.71,10.9C15.395,10.9 15.176,10.733 15.176,10.392C15.176,10.05 15.596,9.839 15.868,9.98C16.14,10.12 16.586,10.295 16.928,10.252C17.27,10.208 17.436,10.462 17.436,10.462ZM20.802,12.627C21.267,12.627 21.275,13.038 21.285,13.205C21.293,13.372 21.364,13.722 21.477,13.862C21.592,14.002 21.723,14.335 21.741,14.475C21.758,14.616 21.741,14.756 21.618,14.572C21.495,14.388 21.205,14.019 20.926,13.862C20.645,13.704 20.304,13.475 20.304,13.125C20.303,12.775 20.592,12.627 20.802,12.627ZM21.574,15.589C21.898,15.589 22.03,15.835 22.03,16.106C22.03,16.378 21.872,16.606 21.802,16.877C21.732,17.149 21.758,17.535 21.705,17.666C21.652,17.798 21.582,17.868 21.582,17.868C21.582,17.868 21.505,17.755 21.486,17.57C21.468,17.386 21.486,17.097 21.355,16.868C21.223,16.641 21.039,16.352 21.039,16.088C21.039,15.825 21.364,15.589 21.574,15.589ZM10.109,14.161C10.109,14.161 10.241,14.301 10.311,14.468C10.381,14.634 10.416,14.923 10.565,15.108C10.715,15.292 11.03,15.826 11.03,16.054C11.03,16.282 10.863,16.509 10.565,16.509C10.268,16.509 9.932,16.255 9.918,15.975C9.891,15.493 10.172,15.556 10.137,15.213C10.11,14.958 10.128,14.924 10.119,14.792C10.107,14.62 10.109,14.161 10.109,14.161ZM13.125,10.918C13.125,10.918 12.818,11.188 12.661,11.61C12.502,12.031 12.336,12.688 11.855,12.688C11.452,12.688 11.345,12.346 11.345,12.135C11.345,11.925 11.618,11.697 11.889,11.609C12.161,11.522 12.332,11.394 12.468,11.223C12.678,10.96 13.09,10.908 13.09,10.908L13.125,10.918Z" fill="#BCA4EB" />
  <path d="M15.097,12.172C15.772,12.172 16.272,12.188 16.622,12.188C16.973,12.188 17.323,12.302 17.323,12.627C17.323,12.951 17.148,13.065 17.148,13.065C17.148,13.065 17.218,13.31 17.105,13.574C16.99,13.836 16.788,13.977 16.429,13.977C16.07,13.977 15.431,13.985 15.255,13.985C15.08,13.985 14.915,13.943 14.799,13.547C14.457,12.373 14.737,12.172 15.097,12.172ZM15.298,13.994L16.622,13.994C16.771,13.994 16.903,13.994 16.919,14.415C16.938,14.835 17.674,20.691 17.717,21.128C17.761,21.567 17.392,21.619 17.392,21.619C17.392,21.619 17.288,21.822 16.805,21.961C16.323,22.101 16.148,22.048 15.982,22.005C15.815,21.961 15.631,21.908 15.395,22.005C15.158,22.101 14.947,22.075 14.745,21.97C14.544,21.865 14.526,21.706 14.526,21.706C14.526,21.706 14.395,21.671 14.237,21.549C14.079,21.428 14.088,21.128 14.132,20.926C14.175,20.725 14.842,15.037 14.894,14.633C14.948,14.231 15.009,13.994 15.298,13.994Z" fill="#9B9B9B" />
  <path d="M15.965,12.387L16.754,14.855L19.371,14.862L17.242,16.383L18.07,18.865L15.965,17.311L13.86,18.865L14.688,16.383L12.559,14.862L15.176,14.855L15.965,12.387Z" fill="#f4f4f4" />
  <path d="M10.723,15.159C10.723,15.159 10.607,15.333 10.609,15.458C10.611,15.582 10.732,15.659 10.802,15.659C11.091,15.659 11.047,15.326 10.951,15.185C10.951,15.185 11.048,15.107 11.082,14.948C11.117,14.791 10.977,14.668 10.977,14.668C10.977,14.668 11.143,14.668 11.196,14.493C11.248,14.318 11.161,14.142 11.161,14.142C11.161,14.142 11.318,14.116 11.388,13.932C11.458,13.748 11.38,13.608 11.38,13.608C11.38,13.608 11.521,13.599 11.617,13.441C11.713,13.283 11.669,13.135 11.669,13.135C11.669,13.135 11.775,13.152 11.897,12.994C12.02,12.836 11.985,12.687 11.985,12.687C11.985,12.687 12.108,12.678 12.222,12.573C12.335,12.468 12.345,12.275 12.345,12.275C12.345,12.275 12.458,12.284 12.59,12.17C12.722,12.055 12.713,11.942 12.713,11.942C12.713,11.942 12.854,11.986 13.011,11.881C13.168,11.775 13.168,11.608 13.168,11.608C13.168,11.608 13.274,11.67 13.466,11.565C13.659,11.46 13.65,11.319 13.65,11.319C13.65,11.319 13.764,11.398 13.956,11.293C14.149,11.188 14.158,11.092 14.158,11.092C14.158,11.092 14.245,11.162 14.421,11.1C14.596,11.038 14.658,10.898 14.658,10.898C14.658,10.898 14.719,11.03 14.929,10.978C15.14,10.925 15.202,10.758 15.202,10.758C15.202,10.758 15.289,10.908 15.456,10.908C15.622,10.908 15.763,10.785 15.763,10.785C15.763,10.785 15.833,10.89 16,10.89C16.166,10.89 16.289,10.785 16.289,10.785C16.289,10.785 16.342,10.855 16.552,10.872C16.762,10.89 16.842,10.828 16.842,10.828C16.842,10.828 16.919,10.96 17.052,10.995C17.182,11.03 17.349,10.968 17.349,10.968C17.349,10.968 17.393,11.1 17.552,11.162C17.708,11.223 17.867,11.162 17.867,11.162C17.867,11.162 17.858,11.31 18.042,11.372C18.226,11.433 18.358,11.372 18.358,11.372C18.358,11.372 18.409,11.53 18.576,11.608C18.743,11.688 18.866,11.67 18.866,11.67C18.866,11.67 18.875,11.802 19.014,11.898C19.155,11.994 19.304,11.985 19.304,11.985C19.304,11.985 19.304,12.144 19.435,12.248C19.567,12.354 19.708,12.38 19.708,12.38C19.708,12.38 19.646,12.529 19.743,12.643C19.839,12.757 20.022,12.835 20.022,12.835C20.022,12.835 19.996,12.985 20.075,13.108C20.155,13.231 20.312,13.292 20.312,13.292C20.312,13.292 20.322,13.397 20.364,13.528C20.408,13.66 20.618,13.738 20.618,13.738C20.618,13.738 20.539,13.879 20.575,14.011C20.61,14.142 20.785,14.255 20.785,14.255C20.785,14.255 20.723,14.326 20.74,14.466C20.758,14.606 20.907,14.755 20.907,14.755C20.907,14.755 20.872,14.834 20.862,15.045C20.854,15.255 20.985,15.334 20.985,15.334C20.985,15.334 20.898,15.43 20.889,15.588C20.881,15.746 21.021,15.895 21.152,15.885C21.285,15.877 21.345,15.789 21.328,15.632C21.311,15.474 21.178,15.315 21.178,15.315C21.178,15.315 21.293,15.193 21.285,15.044C21.275,14.895 21.083,14.711 21.083,14.711C21.083,14.711 21.162,14.667 21.153,14.466C21.144,14.265 20.969,14.195 20.969,14.195C20.969,14.195 21.03,14.142 20.986,13.932C20.942,13.722 20.785,13.669 20.785,13.669C20.785,13.669 20.828,13.555 20.758,13.379C20.688,13.205 20.504,13.16 20.504,13.16C20.504,13.16 20.504,13.019 20.443,12.862C20.382,12.704 20.198,12.713 20.198,12.713C20.198,12.713 20.224,12.502 20.092,12.38C19.961,12.258 19.803,12.248 19.803,12.248C19.803,12.248 19.855,12.108 19.698,11.959C19.54,11.81 19.399,11.872 19.399,11.872C19.399,11.872 19.399,11.67 19.223,11.548C19.048,11.425 18.943,11.478 18.943,11.478C18.943,11.478 18.935,11.355 18.768,11.268C18.601,11.18 18.453,11.206 18.453,11.206C18.453,11.206 18.444,11.058 18.26,10.987C18.075,10.918 17.926,10.969 17.926,10.969C17.926,10.969 17.926,10.838 17.725,10.768C17.522,10.698 17.399,10.751 17.399,10.751C17.399,10.751 17.348,10.655 17.189,10.593C17.032,10.532 16.848,10.628 16.848,10.628C16.848,10.628 16.725,10.497 16.549,10.479C16.374,10.462 16.269,10.549 16.269,10.549C16.269,10.549 16.216,10.462 16.015,10.444C15.813,10.427 15.725,10.54 15.725,10.54C15.725,10.54 15.691,10.478 15.506,10.462C15.322,10.444 15.174,10.637 15.174,10.637C15.174,10.637 15.015,10.514 14.849,10.54C14.683,10.566 14.586,10.706 14.586,10.706C14.586,10.706 14.49,10.636 14.305,10.68C14.121,10.725 14.043,10.864 14.043,10.864C14.043,10.864 13.964,10.82 13.788,10.89C13.613,10.96 13.569,11.145 13.569,11.145C13.569,11.145 13.455,11.065 13.245,11.188C13.035,11.311 13.044,11.415 13.044,11.415C13.044,11.415 12.956,11.381 12.781,11.477C12.605,11.573 12.632,11.775 12.632,11.775C12.632,11.775 12.492,11.713 12.316,11.845C12.141,11.976 12.193,12.134 12.193,12.134C12.193,12.134 11.983,12.125 11.886,12.275C11.79,12.423 11.807,12.59 11.807,12.59C11.807,12.59 11.623,12.608 11.535,12.748C11.448,12.888 11.5,13.055 11.5,13.055C11.5,13.055 11.334,13.055 11.246,13.221C11.158,13.388 11.212,13.536 11.212,13.536C11.212,13.536 11.045,13.58 10.983,13.764C10.922,13.948 10.992,14.071 10.992,14.071C10.992,14.071 10.799,14.123 10.756,14.298C10.712,14.474 10.791,14.622 10.791,14.622C10.791,14.622 10.677,14.692 10.642,14.868C10.609,15.045 10.723,15.159 10.723,15.159Z" fill="#F24827" />
  <path d="M10.723,15.362C10.723,15.362 10.813,15.435 10.916,15.362C10.916,15.362 10.986,15.612 10.802,15.581C10.642,15.553 10.723,15.362 10.723,15.362ZM10.775,14.884C10.775,14.884 10.815,14.921 10.874,14.925C10.933,14.93 10.983,14.908 10.983,14.908C10.983,14.908 10.988,14.974 10.962,15.035C10.935,15.097 10.894,15.165 10.815,15.138C10.736,15.112 10.743,15.009 10.752,14.965C10.761,14.921 10.775,14.884 10.775,14.884ZM10.914,14.316C10.914,14.316 10.966,14.36 11.017,14.365C11.067,14.368 11.128,14.355 11.128,14.355C11.128,14.355 11.122,14.428 11.091,14.492C11.06,14.555 11.003,14.596 10.94,14.582C10.876,14.566 10.876,14.481 10.878,14.43C10.881,14.38 10.914,14.316 10.914,14.316ZM11.114,13.784C11.114,13.784 11.148,13.829 11.195,13.843C11.241,13.856 11.311,13.858 11.311,13.858C11.311,13.858 11.293,13.942 11.265,13.984C11.236,14.025 11.175,14.08 11.115,14.054C11.056,14.028 11.05,13.955 11.063,13.892C11.076,13.827 11.114,13.784 11.114,13.784ZM11.374,13.273C11.374,13.273 11.406,13.326 11.462,13.341C11.516,13.355 11.575,13.355 11.575,13.355C11.575,13.355 11.552,13.419 11.516,13.47C11.481,13.521 11.417,13.549 11.352,13.525C11.298,13.505 11.295,13.422 11.312,13.372C11.33,13.321 11.374,13.273 11.374,13.273ZM11.688,12.787C11.688,12.787 11.712,12.84 11.753,12.868C11.805,12.902 11.867,12.907 11.867,12.907C11.867,12.907 11.795,12.999 11.762,13.025C11.729,13.052 11.632,13.098 11.584,13.017C11.547,12.955 11.584,12.89 11.608,12.859C11.632,12.828 11.688,12.787 11.688,12.787ZM12.027,12.325C12.027,12.325 12.044,12.388 12.09,12.416C12.136,12.445 12.202,12.455 12.202,12.455C12.202,12.455 12.131,12.633 12.002,12.614C11.873,12.594 11.906,12.475 11.932,12.429C11.959,12.383 12.027,12.325 12.027,12.325ZM12.43,11.938C12.43,11.938 12.461,12.005 12.489,12.028C12.527,12.059 12.588,12.083 12.588,12.083C12.588,12.083 12.51,12.192 12.419,12.208C12.332,12.224 12.272,12.162 12.277,12.095C12.282,12.007 12.43,11.938 12.43,11.938ZM12.875,11.575C12.875,11.575 12.891,11.641 12.925,11.671C12.961,11.702 13.028,11.736 13.028,11.736C13.028,11.736 12.945,11.852 12.846,11.852C12.748,11.852 12.717,11.811 12.717,11.756C12.717,11.702 12.755,11.648 12.783,11.629C12.811,11.609 12.875,11.575 12.875,11.575ZM13.359,11.258C13.359,11.258 13.365,11.332 13.401,11.378C13.425,11.41 13.495,11.442 13.495,11.442C13.495,11.442 13.414,11.542 13.314,11.542C13.213,11.542 13.182,11.492 13.182,11.432C13.182,11.372 13.228,11.327 13.262,11.303C13.293,11.279 13.359,11.258 13.359,11.258ZM13.87,11.005C13.87,11.005 13.866,11.084 13.89,11.121C13.914,11.158 13.98,11.202 13.98,11.202C13.98,11.202 13.899,11.258 13.833,11.268C13.768,11.276 13.711,11.265 13.692,11.191C13.672,11.116 13.725,11.066 13.755,11.046C13.785,11.027 13.87,11.005 13.87,11.005ZM14.387,10.775C14.387,10.775 14.385,10.848 14.42,10.911C14.443,10.952 14.485,10.992 14.485,10.992C14.485,10.992 14.422,11.052 14.312,11.045C14.205,11.038 14.186,10.951 14.203,10.891C14.229,10.797 14.387,10.775 14.387,10.775ZM14.961,10.635C14.961,10.635 14.937,10.725 14.958,10.777C14.981,10.829 15.024,10.862 15.024,10.862C15.024,10.862 14.945,10.906 14.857,10.906C14.77,10.906 14.708,10.845 14.726,10.757C14.752,10.631 14.961,10.635 14.961,10.635ZM15.519,10.585C15.519,10.585 15.502,10.648 15.504,10.685C15.508,10.765 15.552,10.806 15.552,10.806C15.552,10.806 15.475,10.846 15.385,10.824C15.295,10.802 15.265,10.774 15.267,10.698C15.269,10.625 15.344,10.591 15.396,10.581C15.449,10.569 15.519,10.585 15.519,10.585ZM15.855,10.681C15.851,10.635 15.922,10.561 16.067,10.562C16.065,10.566 16.056,10.643 16.069,10.683C16.082,10.722 15.855,10.681 15.855,10.681ZM16.412,10.668C16.448,10.587 16.615,10.582 16.675,10.615C16.675,10.615 16.628,10.709 16.651,10.76C16.672,10.81 16.412,10.668 16.412,10.668ZM17.244,10.722C17.244,10.722 17.182,10.766 17.174,10.816C17.165,10.866 17.191,10.942 17.191,10.942C17.191,10.942 17.104,10.935 17.039,10.91C16.976,10.886 16.934,10.821 16.95,10.748C16.963,10.689 17.031,10.669 17.093,10.667C17.154,10.665 17.244,10.722 17.244,10.722ZM17.777,10.908C17.777,10.908 17.742,10.922 17.721,10.987C17.698,11.053 17.715,11.116 17.715,11.116C17.649,11.103 17.6,11.085 17.544,11.039C17.492,10.995 17.485,10.945 17.512,10.888C17.538,10.832 17.603,10.833 17.661,10.842C17.717,10.852 17.777,10.908 17.777,10.908ZM18.028,11.082C18.063,11.02 18.206,11.049 18.248,11.082C18.289,11.115 18.3,11.143 18.3,11.143C18.3,11.143 18.252,11.154 18.229,11.205C18.208,11.255 18.223,11.328 18.223,11.328C18.223,11.328 18.158,11.309 18.1,11.272C18.043,11.235 17.98,11.17 18.028,11.082ZM18.528,11.355C18.565,11.277 18.666,11.292 18.716,11.325C18.766,11.358 18.798,11.405 18.798,11.405C18.798,11.405 18.747,11.421 18.722,11.467C18.698,11.513 18.696,11.594 18.696,11.594C18.696,11.594 18.619,11.57 18.567,11.522C18.515,11.474 18.502,11.413 18.528,11.355ZM19.005,11.638C19.052,11.582 19.12,11.595 19.17,11.634C19.22,11.673 19.252,11.748 19.252,11.748C19.252,11.748 19.201,11.762 19.172,11.796C19.144,11.831 19.144,11.901 19.144,11.901C19.144,11.901 19.078,11.882 19.025,11.82C18.973,11.759 18.971,11.682 19.005,11.638ZM19.425,12.002C19.477,11.944 19.556,11.97 19.595,12.008C19.635,12.048 19.675,12.142 19.675,12.142C19.675,12.142 19.602,12.147 19.576,12.177C19.55,12.208 19.532,12.282 19.532,12.282C19.532,12.282 19.488,12.256 19.444,12.19C19.4,12.125 19.385,12.051 19.425,12.002ZM19.831,12.401C19.888,12.346 19.983,12.398 20.008,12.432C20.045,12.479 20.056,12.55 20.056,12.55C20.056,12.55 20.006,12.558 19.975,12.581C19.945,12.603 19.914,12.675 19.914,12.675C19.914,12.675 19.863,12.649 19.83,12.59C19.798,12.53 19.779,12.452 19.831,12.401ZM20.258,12.878C20.379,12.874 20.443,13.023 20.443,13.023C20.443,13.023 20.321,13.021 20.278,13.119C20.236,13.218 20.226,12.986 20.226,12.957C20.226,12.929 20.258,12.878 20.258,12.878ZM20.46,13.33C20.532,13.272 20.608,13.315 20.636,13.361C20.665,13.407 20.691,13.504 20.691,13.504C20.691,13.504 20.616,13.51 20.571,13.536C20.525,13.562 20.488,13.618 20.488,13.618C20.488,13.618 20.45,13.57 20.422,13.486C20.393,13.402 20.428,13.355 20.46,13.33ZM20.717,13.829C20.788,13.786 20.848,13.847 20.879,13.882C20.91,13.917 20.93,14.012 20.93,14.012C20.93,14.012 20.85,14.013 20.815,14.035C20.781,14.057 20.735,14.127 20.735,14.127C20.735,14.127 20.693,14.055 20.675,13.995C20.658,13.937 20.666,13.86 20.717,13.829ZM20.923,14.332C21,14.299 21.06,14.373 21.07,14.428C21.078,14.483 21.085,14.565 21.085,14.565C21.085,14.565 21.048,14.547 20.982,14.565C20.913,14.583 20.885,14.615 20.885,14.615C20.885,14.615 20.85,14.553 20.841,14.485C20.833,14.416 20.847,14.364 20.923,14.332ZM21.046,14.895C21.153,14.868 21.188,14.954 21.191,15.025C21.192,15.1 21.188,15.135 21.188,15.135C21.188,15.135 21.141,15.12 21.085,15.135C21.03,15.151 20.998,15.197 20.998,15.197C20.998,15.197 20.967,15.126 20.955,15.058C20.945,14.991 20.965,14.915 21.046,14.895ZM21.085,15.44C21.162,15.42 21.237,15.497 21.241,15.558C21.245,15.619 21.243,15.689 21.243,15.689C21.243,15.689 21.191,15.67 21.142,15.678C21.095,15.688 21.033,15.738 21.033,15.738C21.033,15.738 21.013,15.675 21.005,15.613C20.996,15.552 21.001,15.462 21.085,15.44Z" fill="#FDBB11" />
  <path d="M16.507,10.893C16.53,10.949 16.543,11.007 16.543,11.058C16.543,11.242 16.482,11.654 16.078,11.654C16.078,11.654 16.306,11.496 16.306,11.189C16.306,10.883 16.122,10.742 16.008,10.742C15.894,10.742 15.71,10.777 15.71,10.777C15.71,10.777 15.903,10.602 16.14,10.602C16.21,10.602 16.274,10.625 16.329,10.664C16.629,10.605 17.068,10.836 17.068,11.181C17.068,11.567 16.823,11.636 16.823,11.636C16.823,11.636 16.928,11.443 16.876,11.198C16.839,11.027 16.667,10.905 16.507,10.893ZM10.621,17.294C10.682,17.468 10.734,17.648 10.741,17.781C10.749,17.964 10.618,18.078 10.618,18.078C10.618,18.078 10.645,17.807 10.468,17.482C10.332,17.23 10.275,16.85 10.302,16.605C10.328,16.359 10.565,16.097 10.565,16.097C10.565,16.097 10.565,16.526 10.583,16.702C10.601,16.877 10.978,17.457 11.03,17.744C11.082,18.034 10.863,18.341 10.863,18.341C10.863,18.341 10.889,18.007 10.863,17.832C10.849,17.739 10.729,17.523 10.621,17.294ZM10.525,16.226C10.508,16.28 10.488,16.342 10.468,16.395C10.453,16.439 10.447,16.514 10.451,16.602C10.467,16.457 10.499,16.32 10.525,16.226ZM21.234,17.151C21.168,17.322 21.095,17.477 21.057,17.596C20.978,17.842 20.944,18.28 20.944,18.28C20.944,18.28 20.856,18.008 20.874,17.771C20.891,17.535 21.119,17.027 21.163,16.641C21.205,16.255 21.171,15.984 21.171,15.984C21.171,15.984 21.194,16.024 21.225,16.087C21.218,16.049 21.214,16.027 21.214,16.027C21.214,16.027 21.512,16.412 21.495,16.712C21.477,17.01 21.285,17.341 21.372,17.596C21.372,17.596 21.241,17.436 21.234,17.151ZM11.959,12.609C11.959,12.609 12.117,12.715 12.038,13.038C11.959,13.362 11.862,13.765 11.924,14.038C11.924,14.038 11.705,13.775 11.731,13.512C11.758,13.248 11.95,13.065 11.888,12.863C11.828,12.662 11.959,12.609 11.959,12.609ZM11.565,13.232C11.617,13.477 11.678,13.898 11.652,14.117C11.626,14.336 11.407,14.511 11.407,14.511C11.407,14.511 11.538,14.231 11.503,13.898C11.473,13.61 11.565,13.232 11.565,13.232ZM20.321,12.715C20.321,12.715 20.241,13.03 20.347,13.275C20.452,13.521 20.652,14.195 20.25,14.449C20.25,14.449 20.302,14.134 20.295,13.88C20.285,13.626 20.128,13.354 20.118,13.126C20.111,12.898 20.321,12.715 20.321,12.715ZM20.706,13.564C20.706,13.564 20.686,13.833 20.697,14.046C20.715,14.379 21.249,14.818 21.083,15.308C21.083,15.308 21.003,15.019 20.899,14.818C20.793,14.616 20.575,14.222 20.584,14.012C20.592,13.801 20.706,13.564 20.706,13.564Z" fill="#44911B" />
  <path d="M19.751,12.592C19.955,12.533 19.961,12.749 20.005,12.845C20.048,12.942 19.952,13.24 19.855,13.345C19.855,13.345 19.795,13.31 19.812,13.205C19.828,13.099 19.61,12.881 19.602,12.784C19.592,12.688 19.689,12.609 19.751,12.592Z" fill="#FDBB11" />
</svg>
