<svg width="32" height="32" viewBox="0 0 32 32" xmlns="http://www.w3.org/2000/svg">
  <path d="M30,6L30,14L19.5,26L2,26L2,6L30,6Z" fill="#44911B" />
  <path d="M23,14L26.5,14L27.5,15L27.5,25L26.5,26L23,26L22,25L22,15L23,14Z" fill="#1c1c1c" />
  <rect x="19.5" y="14" width="3.5" height="12" fill="#F8312F" />
  <rect x="26.5" y="14" width="3.5" height="12" fill="#FF9C38" />
  <path d="M29.519,8.609C29.443,8.595 29.018,8.834 29.018,8.834C29.018,8.834 29.412,8.384 29.321,8.384C29.23,8.384 28.715,8.624 28.715,8.624C28.715,8.624 29.034,8.234 28.927,8.279C28.821,8.324 28.244,8.579 27.804,8.761C27.866,8.658 27.85,8.504 27.804,8.504C27.76,8.504 27.501,8.668 27.107,8.759C26.712,8.849 26.121,9.179 25.863,9.134C25.605,9.089 25.089,9.134 25.089,9.134C25.089,9.134 24.938,8.909 25.059,8.849C25.179,8.789 25.272,8.939 25.272,8.939C25.272,8.939 25.485,8.849 25.485,8.722C25.485,8.594 25.12,8.579 25.12,8.579C25.12,8.579 24.967,8.384 24.726,8.384C24.089,8.384 24.043,9.059 24.043,9.059C24.043,9.059 23.784,8.969 23.542,8.909C23.299,8.849 22.874,8.879 22.45,8.624C22.026,8.369 21.752,8.279 22.267,8.819C21.509,8.564 21.115,8.054 21.008,8.275C20.902,8.497 21.297,8.759 21.297,8.759C21.297,8.759 21.084,8.699 20.902,8.534C20.72,8.369 20.462,8.264 20.706,8.624C20.387,8.534 20.615,8.864 20.615,8.864C20.615,8.864 20.357,8.939 20.615,9.119C20.872,9.299 21.343,9.374 21.343,9.374C21.343,9.374 21.13,9.524 21.267,9.584C21.403,9.644 21.631,9.599 21.631,9.599C21.631,9.599 21.449,9.749 21.631,9.809C21.813,9.869 22.041,9.809 22.041,9.809C22.041,9.809 21.965,9.959 22.146,10.027C22.329,10.094 22.618,9.944 22.618,9.944C22.618,9.944 22.481,10.034 22.618,10.109C22.754,10.184 22.966,10.027 22.966,10.027C22.966,10.027 22.845,10.229 22.966,10.259C23.087,10.289 23.285,10.139 23.285,10.139C23.285,10.139 23.164,10.334 23.285,10.349C23.406,10.364 23.679,10.214 23.679,10.214C23.679,10.214 23.512,10.424 23.679,10.424C23.846,10.424 24.043,10.319 24.043,10.319C24.043,10.319 23.998,10.484 24.134,10.544C24.271,10.605 24.468,10.439 24.468,10.439C24.468,10.439 24.514,10.755 24.483,10.934C24.453,11.114 24.68,10.979 24.68,10.979C24.68,10.979 24.649,11.249 24.467,11.235C24.285,11.219 24.102,11.46 24.164,11.52C24.225,11.58 24.467,11.475 24.467,11.475C24.467,11.475 24.452,11.805 24.542,11.777C24.633,11.75 24.785,11.565 24.785,11.565C24.785,11.565 24.876,11.805 24.938,11.775C24.999,11.745 25.029,11.611 25.029,11.535C25.029,11.46 25.195,11.43 25.195,11.43C25.195,11.43 25.24,11.73 25.301,11.672C25.363,11.613 25.377,11.415 25.468,11.355C25.559,11.296 25.529,11.7 25.62,11.67C25.711,11.64 25.665,11.37 25.635,11.28C25.605,11.19 25.818,11.354 25.802,11.28C25.788,11.204 25.62,11.055 25.62,11.055C25.62,11.055 25.832,11.13 25.772,11.055C25.711,10.979 25.681,10.785 25.772,10.827C25.863,10.869 25.939,10.695 25.939,10.695C25.939,10.695 26.181,10.875 26.332,10.814C26.484,10.755 26.136,10.544 26.136,10.544C26.136,10.544 26.667,10.724 26.784,10.695C26.901,10.664 26.605,10.47 26.605,10.47C26.605,10.47 26.939,10.544 27,10.47C27.06,10.394 26.783,10.335 26.783,10.335C26.783,10.335 27.151,10.395 27.197,10.335C27.242,10.274 27.091,10.2 27.091,10.2C27.091,10.2 27.697,10.185 27.819,9.975C28.426,9.99 29.093,9.51 29.154,9.405C29.214,9.3 29.048,9.3 29.048,9.3C29.048,9.3 29.413,9.014 29.367,8.969C29.321,8.924 29.124,9.029 29.124,9.029C29.124,9.029 29.594,8.624 29.519,8.609ZM25.014,11.19C24.818,11.19 24.952,11.085 24.921,10.98C24.89,10.875 25.028,10.965 25.012,10.875C24.996,10.785 25.012,10.35 25.012,10.35C25.164,10.5 25.24,10.695 25.225,10.845C25.21,10.995 25.301,11.01 25.331,11.085C25.362,11.161 25.21,11.19 25.014,11.19Z" fill="#FF9C38" />
</svg>
