<svg width="32" height="32" viewBox="0 0 32 32" xmlns="http://www.w3.org/2000/svg">
  <path d="M3,20.5L2,19.76L2,18.2L16,6L30,6L30,7.52L29,8.5L30,9.04L30,10.56L29,11.5L30,12.08L30,13.6L29,14.5L30,15.12L30,16.64L29,17.5L30,18.2L30,19.76L29,20.5L30,21.32L30,22.88L29,23.5L30,24.44L30,26L2,26L2,24.44L3,23.5L2,22.88L2,21.32L3,20.5Z" fill="#cf0828" />
  <path d="M15,16L16,16.64L30,16.64L30,18.2L2,18.2L2,16.64L3,16L3,6.5L15,6.5L16,7.52L30,7.52L30,9.04L16,9.04L15,10L16,10.56L30,10.56L30,12.08L16,12.08L15,13L16,13.6L30,13.6L30,15.12L16,15.12L15,16ZM30,19.76L30,21.32L2,21.32L2,19.76L30,19.76ZM30,22.88L30,24.44L2,24.44L2,22.88L30,22.88Z" fill="#f4f4f4" />
  <path d="M16,6L16,16.64L2,16.64L2,6L16,6ZM3.82,11.073L3.239,11.073L3.709,11.414L3.53,11.967L4,11.626L4.47,11.967L4.291,11.414L4.761,11.073L4.18,11.073L4,10.52L3.82,11.073ZM3.82,7.573L3.239,7.573L3.709,7.914L3.53,8.467L4,8.126L4.47,8.467L4.291,7.914L4.761,7.573L4.18,7.573L4,7.02L3.82,7.573ZM8.82,14.573L8.239,14.573L8.709,14.914L8.53,15.467L9,15.126L9.47,15.467L9.291,14.914L9.761,14.573L9.18,14.573L9,14.02L8.82,14.573ZM3.82,14.573L3.239,14.573L3.709,14.914L3.53,15.467L4,15.126L4.47,15.467L4.291,14.914L4.761,14.573L4.18,14.573L4,14.02L3.82,14.573ZM13.82,7.573L13.239,7.573L13.709,7.914L13.53,8.467L14,8.126L14.47,8.467L14.291,7.914L14.761,7.573L14.18,7.573L14,7.02L13.82,7.573ZM8.82,7.573L8.239,7.573L8.709,7.914L8.53,8.467L9,8.126L9.47,8.467L9.291,7.914L9.761,7.573L9.18,7.573L9,7.02L8.82,7.573ZM6.32,7.573L5.739,7.573L6.209,7.914L6.03,8.467L6.5,8.126L6.97,8.467L6.791,7.914L7.261,7.573L6.68,7.573L6.5,7.02L6.32,7.573ZM11.32,7.573L10.739,7.573L11.209,7.914L11.03,8.467L11.5,8.126L11.97,8.467L11.791,7.914L12.261,7.573L11.68,7.573L11.5,7.02L11.32,7.573ZM6.32,14.573L5.739,14.573L6.209,14.914L6.03,15.467L6.5,15.126L6.97,15.467L6.791,14.914L7.261,14.573L6.68,14.573L6.5,14.02L6.32,14.573ZM5.07,12.823L4.489,12.823L4.959,13.164L4.78,13.717L5.25,13.376L5.72,13.717L5.541,13.164L6.011,12.823L5.43,12.823L5.25,12.27L5.07,12.823ZM5.07,9.323L4.489,9.323L4.959,9.664L4.78,10.217L5.25,9.876L5.72,10.217L5.541,9.664L6.011,9.323L5.43,9.323L5.25,8.77L5.07,9.323ZM7.57,9.323L6.989,9.323L7.459,9.664L7.28,10.217L7.75,9.876L8.22,10.217L8.041,9.664L8.511,9.323L7.93,9.323L7.75,8.77L7.57,9.323ZM12.57,9.323L11.989,9.323L12.459,9.664L12.28,10.217L12.75,9.876L13.22,10.217L13.041,9.664L13.511,9.323L12.93,9.323L12.75,8.77L12.57,9.323ZM10.07,9.323L9.489,9.323L9.959,9.664L9.78,10.217L10.25,9.876L10.72,10.217L10.541,9.664L11.011,9.323L10.43,9.323L10.25,8.77L10.07,9.323ZM7.57,12.823L6.989,12.823L7.459,13.164L7.28,13.717L7.75,13.376L8.22,13.717L8.041,13.164L8.511,12.823L7.93,12.823L7.75,12.27L7.57,12.823ZM11.32,14.573L10.739,14.573L11.209,14.914L11.03,15.467L11.5,15.126L11.97,15.467L11.791,14.914L12.261,14.573L11.68,14.573L11.5,14.02L11.32,14.573ZM10.07,12.823L9.489,12.823L9.959,13.164L9.78,13.717L10.25,13.376L10.72,13.717L10.541,13.164L11.011,12.823L10.43,12.823L10.25,12.27L10.07,12.823ZM13.82,14.573L13.239,14.573L13.709,14.914L13.53,15.467L14,15.126L14.47,15.467L14.291,14.914L14.761,14.573L14.18,14.573L14,14.02L13.82,14.573ZM12.57,12.823L11.989,12.823L12.459,13.164L12.28,13.717L12.75,13.376L13.22,13.717L13.041,13.164L13.511,12.823L12.93,12.823L12.75,12.27L12.57,12.823ZM6.32,11.073L5.739,11.073L6.209,11.414L6.03,11.967L6.5,11.626L6.97,11.967L6.791,11.414L7.261,11.073L6.68,11.073L6.5,10.52L6.32,11.073ZM8.82,11.073L8.239,11.073L8.709,11.414L8.53,11.967L9,11.626L9.47,11.967L9.291,11.414L9.761,11.073L9.18,11.073L9,10.52L8.82,11.073ZM13.82,11.073L13.239,11.073L13.709,11.414L13.53,11.967L14,11.626L14.47,11.967L14.291,11.414L14.761,11.073L14.18,11.073L14,10.52L13.82,11.073ZM11.32,11.073L10.739,11.073L11.209,11.414L11.03,11.967L11.5,11.626L11.97,11.967L11.791,11.414L12.261,11.073L11.68,11.073L11.5,10.52L11.32,11.073Z" fill="#062365" />
</svg>
