<svg width="32" height="32" viewBox="0 0 32 32" xmlns="http://www.w3.org/2000/svg">
  <polygon fill="#062365" points="2,12.75 3,11.75 29,11.75 30,12.75 30,19.25 29,20.25 3,20.25 2,19.25" />
  <rect fill="#f4f4f4" x="2" y="19.25" width="28" height="6.75" />
  <path d="M15.575,12.75L15.575,18.925C15.575,20.899 13.975,22.5 12,22.5C10.025,22.5 8.425,20.899 8.425,18.925L8.425,12.75L2,12.75L2,6L30,6L30,12.75L15.575,12.75Z" fill="#cf0828" />
  <path d="M12,8.89C9.441,8.89 8.638,9.977 8.852,10.383C9.065,10.79 9.704,11.835 9.704,11.835C9.704,11.835 9.502,11.917 9.704,12.323C9.907,12.729 10.7,12.455 12,12.455C13.3,12.455 14.092,12.729 14.295,12.323C14.498,11.917 14.295,11.835 14.295,11.835C14.295,11.835 14.934,10.79 15.148,10.383C15.362,9.977 14.56,8.89 12,8.89ZM9.766,10.82C9.582,10.877 9.766,11.44 9.701,11.197C9.647,10.996 9.441,10.912 9.441,11.024C9.441,11.135 9.359,11.024 9.379,10.821C9.4,10.617 9.339,10.496 9.217,10.323C9.095,10.15 9.095,9.998 9.248,9.896C9.4,9.794 9.736,9.713 9.736,9.713C9.736,9.713 9.868,10.292 9.938,10.424C10.009,10.556 10.141,10.643 10.141,10.643C10.141,10.643 10.08,10.739 10.141,10.79C10.202,10.84 10.273,10.963 10.273,10.963C10.273,10.963 10.05,10.78 10.01,10.82C9.97,10.86 10.061,10.912 10.05,10.983C10.04,11.054 9.928,10.769 9.766,10.82ZM11.838,10.831C11.787,10.881 11.746,10.79 11.645,10.719C11.543,10.648 11.482,10.689 11.502,10.77C11.522,10.851 11.38,10.841 11.38,10.963C11.38,11.085 11.248,11.034 11.248,11.034C11.248,11.034 11.411,10.608 11.136,10.617C10.981,10.623 11.035,10.942 11.136,11.054C11.092,10.986 10.963,10.983 10.857,10.902C10.75,10.821 10.872,10.688 10.791,10.719C10.709,10.749 10.659,10.881 10.577,10.912C10.496,10.942 10.537,10.82 10.577,10.719C10.618,10.617 10.531,10.567 10.531,10.567C10.531,10.567 10.537,10.496 10.598,10.455C10.659,10.415 10.679,10.343 10.598,10.262C10.517,10.181 10.223,9.724 10.314,9.571C10.406,9.419 10.71,9.246 11.563,9.266C11.716,9.967 11.482,10.312 11.482,10.312C11.482,10.312 11.655,10.424 11.706,10.485C11.584,10.536 11.675,10.587 11.756,10.658C11.838,10.729 11.888,10.78 11.838,10.831ZM13.422,10.719C13.463,10.82 13.504,10.942 13.422,10.912C13.341,10.881 13.29,10.749 13.209,10.719C13.128,10.688 13.25,10.821 13.143,10.902C13.036,10.983 12.909,10.986 12.863,11.054C12.965,10.942 13.019,10.623 12.863,10.617C12.589,10.607 12.752,11.034 12.752,11.034C12.752,11.034 12.62,11.085 12.62,10.963C12.62,10.842 12.477,10.851 12.497,10.77C12.518,10.689 12.457,10.648 12.355,10.719C12.254,10.79 12.213,10.881 12.162,10.831C12.111,10.78 12.162,10.729 12.243,10.658C12.325,10.587 12.417,10.536 12.295,10.485C12.345,10.424 12.518,10.313 12.518,10.313C12.518,10.313 12.285,9.967 12.437,9.267C13.29,9.246 13.595,9.419 13.686,9.571C13.778,9.724 13.484,10.181 13.402,10.262C13.32,10.342 13.341,10.414 13.402,10.455C13.463,10.495 13.469,10.567 13.469,10.567C13.469,10.567 13.381,10.617 13.422,10.719ZM14.783,10.323C14.661,10.496 14.6,10.617 14.62,10.821C14.641,11.024 14.559,11.135 14.559,11.024C14.559,10.912 14.353,10.996 14.299,11.197C14.234,11.44 14.418,10.878 14.234,10.82C14.072,10.769 13.859,11.257 13.909,11.206C13.96,11.156 14.031,10.861 13.991,10.82C13.95,10.779 13.727,10.962 13.727,10.962C13.727,10.962 13.797,10.84 13.859,10.79C13.92,10.739 13.859,10.643 13.859,10.643C13.859,10.643 13.991,10.556 14.061,10.424C14.132,10.292 14.264,9.713 14.264,9.713C14.264,9.713 14.6,9.794 14.752,9.896C14.904,9.997 14.905,10.15 14.783,10.323Z" fill="#fdbb11" />
  <path d="M12.071,9.007C12.071,9.072 12.018,9.124 11.954,9.124C11.89,9.124 11.837,9.072 11.837,9.007L11.837,7.982C11.837,7.917 11.89,7.865 11.954,7.865C12.018,7.865 12.071,7.917 12.071,7.982L12.071,9.007Z" fill="#fdbb11" />
  <path d="M12.305,8.256C12.305,8.315 12.258,8.363 12.198,8.363L11.691,8.363C11.632,8.363 11.584,8.315 11.584,8.256C11.584,8.197 11.632,8.149 11.691,8.149L12.198,8.149C12.258,8.149 12.305,8.197 12.305,8.256Z" fill="#fdbb11" />
  <path d="M12.336,8.89C12.336,9.106 12.161,9.282 11.944,9.282C11.729,9.282 11.553,9.106 11.553,8.89C11.553,8.675 11.728,8.499 11.944,8.499C12.16,8.5 12.336,8.675 12.336,8.89ZM10.118,12.279C10.118,12.375 10.008,12.452 9.872,12.452C9.736,12.452 9.626,12.375 9.626,12.279C9.626,12.185 9.736,12.107 9.872,12.107C10.008,12.107 10.118,12.184 10.118,12.279ZM14.316,12.279C14.316,12.375 14.206,12.452 14.07,12.452C13.934,12.452 13.824,12.375 13.824,12.279C13.824,12.185 13.934,12.107 14.07,12.107C14.206,12.107 14.316,12.184 14.316,12.279ZM12.2,12.208C12.2,12.303 12.091,12.381 11.955,12.381C11.819,12.381 11.709,12.303 11.709,12.208C11.709,12.112 11.819,12.036 11.955,12.036C12.091,12.036 12.2,12.112 12.2,12.208Z" fill="#062365" />
  <path d="M11.106,12.22C11.106,12.316 10.997,12.393 10.861,12.393C10.725,12.393 10.615,12.316 10.615,12.22C10.615,12.125 10.725,12.048 10.861,12.048C10.996,12.048 11.106,12.125 11.106,12.22ZM13.3,12.22C13.3,12.316 13.19,12.393 13.055,12.393C12.919,12.393 12.809,12.316 12.809,12.22C12.809,12.125 12.919,12.048 13.055,12.048C13.19,12.048 13.3,12.125 13.3,12.22Z" fill="#cf0828" />
  <path d="M10.561,18.965C10.339,19.47 10.315,19.718 10.052,19.7C9.788,19.683 9.602,19.638 9.602,19.745C9.602,19.851 10.022,19.806 10.022,19.806C10.022,19.806 9.626,19.975 9.704,20.17C9.781,20.365 10.123,19.922 10.123,19.922C10.123,19.922 10.193,19.94 10.325,19.833C10.456,19.727 10.806,19.214 10.806,19.214L10.561,18.965ZM13.429,18.965C13.651,19.47 13.675,19.718 13.938,19.7C14.202,19.683 14.388,19.638 14.388,19.745C14.388,19.851 13.969,19.806 13.969,19.806C13.969,19.806 14.365,19.975 14.287,20.17C14.21,20.365 13.868,19.922 13.868,19.922C13.868,19.922 13.798,19.94 13.666,19.833C13.534,19.727 13.185,19.214 13.185,19.214L13.429,18.965Z" fill="#fdbb11" />
  <path d="M11.107,18.933C11.004,19.044 10.987,19.48 10.987,19.48L10.845,19.318L10.629,19.67L10.57,19.305L10.449,19.507L10.378,19.128C10.378,19.128 10.246,19.264 10.042,19.25C10.294,18.83 10.042,18.925 10.042,18.925C10.042,18.925 9.946,19.169 9.825,19.277C9.706,19.385 9.67,19.684 9.514,19.724C9.358,19.764 9.442,19.372 9.442,19.372C9.442,19.372 9.286,19.697 9.034,19.764C9.262,19.277 9.178,18.708 9.034,18.072C8.89,17.435 8.962,16.69 8.962,16.69C8.962,16.69 8.83,15.323 8.944,14.538C9.058,13.752 9.797,13.996 10.111,14.538C10.425,15.08 10.697,15.364 10.987,14.985C11.277,14.606 11.469,14.2 11.049,13.685L10.629,13.17C10.689,12.859 10.941,12.926 11.301,13.075C11.661,13.224 11.888,13.156 11.853,13.319C11.817,13.481 11.685,13.495 11.685,13.495C11.685,13.495 11.912,13.716 11.972,14.478C12.031,13.716 12.258,13.495 12.258,13.495C12.258,13.495 12.127,13.481 12.091,13.319C12.055,13.156 12.282,13.224 12.642,13.075C13.003,12.926 13.254,12.859 13.314,13.17L12.894,13.685C12.474,14.2 12.666,14.606 12.956,14.985C13.247,15.364 13.518,15.039 13.832,14.497C14.146,13.956 14.885,13.712 14.999,14.497C15.114,15.282 14.98,16.691 14.98,16.691C14.98,16.691 15.052,17.436 14.908,18.072C14.764,18.708 14.68,19.277 14.908,19.765C14.656,19.697 14.5,19.372 14.5,19.372C14.5,19.372 14.584,19.765 14.428,19.725C14.272,19.684 14.236,19.386 14.116,19.277C13.996,19.169 13.9,18.925 13.9,18.925C13.9,18.925 13.648,18.83 13.9,19.25C13.696,19.263 13.564,19.128 13.564,19.128L13.493,19.507L13.372,19.305L13.313,19.67L13.097,19.318L12.955,19.48C12.955,19.48 12.94,19.076 12.847,18.947C13.205,18.682 13.438,18.257 13.438,17.777L13.438,15.269L10.534,15.269L10.534,17.777C10.534,18.248 10.759,18.668 11.107,18.933ZM12.625,19.081C12.549,19.277 12.567,19.576 12.665,19.778C12.797,20.048 12.665,20.157 12.665,20.157C12.665,20.157 12.858,20.442 12.956,20.605C13.053,20.767 12.905,20.956 12.905,20.956C12.905,20.956 13.277,21.512 13.173,21.728C13.073,21.936 12.454,22.069 12.001,22.079L11.997,22.081L11.972,22.08L11.946,22.081L11.942,22.079C11.489,22.069 10.87,21.936 10.77,21.728C10.666,21.511 11.038,20.956 11.038,20.956C11.038,20.956 10.889,20.767 10.988,20.605C11.086,20.442 11.277,20.157 11.277,20.157C11.277,20.157 11.145,20.048 11.277,19.778C11.378,19.57 11.395,19.257 11.31,19.062C11.512,19.169 11.742,19.229 11.986,19.229C12.215,19.229 12.432,19.176 12.625,19.081Z" fill="#f4f4f4" />
  <path d="M13.439,16.762L12.299,16.762L12.299,15.269L11.674,15.269L11.674,16.762L10.534,16.762L10.534,17.388L11.674,17.388L11.674,19.194C11.775,19.216 11.879,19.23 11.987,19.23C12.094,19.23 12.198,19.216 12.3,19.194L12.3,17.388L13.439,17.388L13.439,16.762Z" fill="#f4f4f4" />
  <path d="M11.604,13.603C11.318,13.328 10.605,12.973 10.368,13.024C10.131,13.075 9.942,13.237 10.118,13.492C10.294,13.746 10.368,13.735 10.368,13.735C10.368,13.735 10.65,13.481 10.772,13.624C10.894,13.766 10.792,13.817 10.569,13.837C10.345,13.857 10.118,13.705 10.118,13.705C10.118,13.705 10.192,13.969 10.502,13.999C10.711,14.202 10.974,14.05 11.106,14.05C11.239,14.05 11.858,13.847 11.604,13.603ZM12.34,13.603C12.626,13.328 13.339,12.973 13.576,13.024C13.812,13.074 14.002,13.237 13.826,13.491C13.65,13.745 13.576,13.735 13.576,13.735C13.576,13.735 13.294,13.481 13.172,13.623C13.05,13.765 13.152,13.816 13.375,13.836C13.599,13.856 13.825,13.704 13.825,13.704C13.825,13.704 13.752,13.968 13.442,13.999C13.233,14.202 12.97,14.05 12.837,14.05C12.705,14.05 12.085,13.847 12.34,13.603ZM10.355,20.679C10.444,20.474 10.382,20.445 10.31,20.373C10.238,20.302 10.202,20.203 10.202,20.203C10.202,20.203 10.167,20.302 10.094,20.373C10.022,20.444 9.96,20.473 10.049,20.679C9.832,20.551 9.797,20.786 9.896,20.928C9.924,20.8 10.094,20.83 10.094,20.985C10.094,21.142 9.953,21.071 9.97,21.134C9.988,21.199 10.117,21.333 10.202,21.333C10.287,21.333 10.416,21.199 10.433,21.134C10.451,21.07 10.31,21.141 10.31,20.985C10.31,20.83 10.479,20.8 10.508,20.928C10.608,20.786 10.572,20.551 10.355,20.679ZM13.89,20.679C13.979,20.474 13.916,20.445 13.844,20.373C13.772,20.302 13.736,20.203 13.736,20.203C13.736,20.203 13.701,20.302 13.628,20.373C13.556,20.444 13.494,20.473 13.583,20.679C13.367,20.551 13.331,20.786 13.43,20.928C13.458,20.8 13.628,20.83 13.628,20.985C13.628,21.142 13.487,21.071 13.505,21.134C13.522,21.199 13.651,21.333 13.736,21.333C13.822,21.333 13.951,21.199 13.968,21.134C13.985,21.07 13.844,21.141 13.844,20.985C13.844,20.83 14.014,20.8 14.043,20.928C14.142,20.786 14.107,20.551 13.89,20.679Z" fill="#fdbb11" />
</svg>
