<svg width="32" height="32" viewBox="0 0 32 32" xmlns="http://www.w3.org/2000/svg">
  <path d="M2,17.36L16,6L30,6L30,7.42L29,8L30,8.84L30,10.26L29,11L30,11.68L30,13.1L29,14L30,14.52L30,15.94L29,17L30,17.36L30,18.8L29,20L30,20.24L30,21.68L29,22L30,23.12L30,24.56L29,25L3,25L2,24.56L2,23.12L3,22L2,21.68L2,20.24L3,20L2,18.8L2,17.36Z" fill="#cf0828" />
  <path d="M30,7.42L30,8.84L16,8.84L15,8L16,7.42L30,7.42ZM30,10.26L30,11.68L16,11.68L15,11L16,10.26L30,10.26ZM30,13.1L30,14.52L16,14.52L14.99,14L16,13.1L30,13.1ZM30,15.94L30,17.36L16,17.36L15,17L16,15.94L30,15.94ZM30,18.8L30,20.24L2,20.24L2,18.8L30,18.8ZM30,21.68L30,23.12L2,23.12L2,21.68L30,21.68ZM30,24.56L30,26L2,26L2,24.56L30,24.56Z" fill="#f4f4f4" />
  <rect x="2" y="6" width="14" height="11.36" fill="#062365" />
  <path d="M11.529,8.13L11.845,10.295L13.07,8.482L12.413,10.571L14.303,9.467L12.807,11.065L14.99,10.89L12.949,11.68L14.99,12.47L12.807,12.295L14.303,13.893L12.413,12.789L13.07,14.878L11.845,13.064L11.529,15.23L11.212,13.064L9.987,14.878L10.644,12.789L8.754,13.893L10.251,12.295L8.067,12.47L10.109,11.68L8.067,10.89L10.251,11.065L8.754,9.467L10.644,10.571L9.987,8.482L11.212,10.295L11.529,8.13ZM9.754,8.219C9.27,8.004 8.747,7.893 8.218,7.893C6.141,7.893 4.431,9.603 4.431,11.68C4.431,13.757 6.141,15.467 8.218,15.467C8.747,15.467 9.27,15.356 9.754,15.141C9.03,15.661 8.161,15.94 7.27,15.94C4.933,15.94 3.01,14.017 3.01,11.68C3.01,9.343 4.933,7.42 7.27,7.42C8.161,7.42 9.03,7.699 9.754,8.219Z" fill="#fdbb11" />
</svg>
