<svg width="32" height="32" viewBox="0 0 32 32" xmlns="http://www.w3.org/2000/svg">
  <polygon fill="#062365" points="2,6 25.8,6 16,16 2,23" />
  <polygon fill="#009b42" points="16,16 30,9 30,26 6.2,26" />
  <polygon fill="#f4f4f4" points="27.2,6 25.8,6 2,23 2,24 4.8,26 6.2,26 30,9 30,8" />
  <polygon fill="#CF0828" points="30,6 27.2,6 2,24 2,26 4.8,26 30,8" />
  <path d="M5.538,12.628L4,12L5.538,11.372C5.487,11.573 5.46,11.783 5.46,12C5.46,12.217 5.487,12.427 5.538,12.628ZM5.554,11.313L4.536,10L6.183,10.225C5.89,10.525 5.671,10.898 5.554,11.313ZM6.225,10.183L6,8.536L7.313,9.554C6.898,9.671 6.525,9.89 6.225,10.183ZM7.372,9.538L8,8L8.628,9.538C8.427,9.487 8.217,9.46 8,9.46C7.783,9.46 7.573,9.487 7.372,9.538ZM8.687,9.554L10,8.536L9.775,10.183C9.475,9.89 9.102,9.671 8.687,9.554ZM9.817,10.225L11.464,10L10.446,11.313C10.329,10.898 10.11,10.525 9.817,10.225ZM10.462,11.372L12,12L10.462,12.628C10.513,12.427 10.54,12.217 10.54,12C10.54,11.783 10.513,11.573 10.462,11.372ZM10.446,12.687L11.464,14L9.817,13.775C10.11,13.475 10.329,13.102 10.446,12.687ZM9.775,13.817L10,15.464L8.687,14.446C9.102,14.329 9.475,14.11 9.775,13.817ZM8.628,14.462L8,16L7.372,14.462C7.573,14.513 7.783,14.54 8,14.54C8.217,14.54 8.427,14.513 8.628,14.462ZM7.313,14.446L6,15.464L6.225,13.817C6.525,14.11 6.898,14.329 7.313,14.446ZM6.183,13.775L4.536,14L5.554,12.687C5.671,13.102 5.89,13.475 6.183,13.775ZM8,10.026C9.089,10.026 9.974,10.911 9.974,12C9.974,13.089 9.089,13.974 8,13.974C6.911,13.974 6.026,13.089 6.026,12C6.026,10.911 6.911,10.026 8,10.026Z" fill="#FDBB11" />
</svg>
