<svg width="32" height="32" viewBox="0 0 32 32" xmlns="http://www.w3.org/2000/svg">
  <rect fill="#00753B" x="2" y="6" width="28" height="20" />
  <path d="M19.712,14.548C19.692,14.661 19.635,15.118 19.887,15.463C20.015,15.588 20.131,15.533 20.172,15.468C20.331,15.177 20.436,14.754 20.67,14.528C20.755,14.45 20.833,14.419 20.952,14.528C20.952,14.528 21.185,14.893 21.244,14.917C21.324,14.993 21.443,14.924 21.443,14.924C21.522,14.89 21.605,14.655 21.612,14.386C21.563,13.751 21.55,13.231 21.5,12.595C21.268,12.311 21.038,12.031 20.813,11.755C20.751,11.678 20.679,11.548 20.679,11.478C20.67,11.354 20.681,11.182 20.691,11.035C20.717,10.868 20.765,10.966 20.845,11.018C21.005,11.141 21.059,11.205 21.245,11.409C21.465,11.684 20.972,11.386 21.31,11.742C21.319,11.751 21.341,11.777 21.358,11.798L21.342,11.704C21.33,11.53 21.3,11.353 21.288,11.18C21.286,11.082 21.338,11.005 21.386,10.962C21.436,10.888 21.478,10.922 21.509,10.954L21.907,11.686C21.932,11.753 21.895,11.826 21.852,11.818C21.825,11.806 21.819,11.804 21.777,11.768C21.737,11.764 21.746,11.775 21.749,11.813C21.768,11.907 21.788,12.302 21.788,12.31L21.795,12.344C21.94,12.532 22.09,12.727 22.214,12.892C22.149,12.448 22.074,12 21.984,11.532C21.948,11.339 21.912,11.136 22.007,11.047C22.11,10.912 22.193,10.883 22.239,10.966C22.367,11.152 22.618,11.802 22.562,11.864C22.524,11.93 22.447,11.871 22.427,11.928C22.415,11.952 22.456,12.209 22.47,12.289C22.52,12.495 22.512,12.753 22.544,12.926C22.577,13.098 22.533,13.229 22.603,13.392C22.617,13.42 22.623,13.454 22.635,13.484C22.809,13.721 23.062,14.052 23.252,14.371C23.318,14.451 23.352,15.032 23.248,15.085C23.084,14.79 22.908,14.511 22.728,14.24C22.728,14.375 22.727,14.518 22.728,14.675C22.732,14.871 22.358,15.282 22.37,15.178C22.387,14.66 22.358,14.152 22.306,13.642C22.188,13.482 22.072,13.321 21.953,13.167C21.97,13.778 22.015,14.796 21.932,15.018C21.858,15.202 21.774,15.295 21.646,15.366C21.459,15.495 21.269,15.469 21.11,15.328C21.013,15.275 20.935,15.214 20.868,15.118C20.799,15.045 20.657,15.018 20.602,15.182C20.522,15.272 20.519,15.722 20.348,15.9C20.276,15.987 20.144,16.065 19.975,15.941C19.788,15.846 19.711,15.723 19.615,15.532C19.55,15.415 19.422,14.875 19.712,14.548ZM19.712,14.548C19.718,14.515 19.722,14.511 19.712,14.548ZM9.015,12.962C8.613,12.877 8.655,12.045 8.691,11.572C8.813,11.43 8.858,12.035 8.931,12.281C9.015,12.618 9.135,12.489 9.162,12.306C9.182,12.144 9.229,11.962 9.229,11.962C9.285,11.608 9.48,11.394 9.555,11.4C9.651,11.383 9.698,11.409 9.737,11.512C9.787,11.615 9.802,12.021 9.745,12.278C9.735,12.477 9.977,12.704 9.966,12.303C9.926,12.004 9.9,11.747 9.818,11.455C9.798,11.288 9.799,11.108 9.807,10.928C9.845,10.836 9.953,10.788 10.026,10.888C10.145,10.986 10.168,11.375 10.19,11.556C10.19,11.703 10.204,12.028 10.275,12.247C10.324,12.352 10.392,12.374 10.425,12.282C10.465,12.282 10.38,12.18 10.325,12.018C10.248,11.842 10.199,11.448 10.305,11.265C10.344,11.202 10.425,11.202 10.485,11.265C10.545,11.372 10.618,11.422 10.643,11.577C10.678,11.689 10.728,11.735 10.664,12.142C10.664,12.182 10.903,12.361 10.903,12.361C10.975,12.438 11.063,12.458 11.15,12.408C11.172,12.281 11.122,12.139 11.088,12.054C10.925,11.836 10.817,11.568 10.843,11.344C10.9,11.148 11.055,11.129 11.162,11.223C11.291,11.293 11.37,11.455 11.421,11.623C11.402,11.701 11.32,11.708 11.266,11.623C11.253,11.663 11.324,11.766 11.311,11.806C11.405,12.025 11.43,12.245 11.448,12.464C11.443,12.695 11.263,12.841 10.962,12.923C10.765,12.967 10.708,12.856 10.582,12.767C10.502,12.723 10.387,12.728 10.385,12.818C10.321,12.91 10.429,13.304 10.415,13.775C10.401,14.577 10.105,14.492 10.105,14.492L10.045,13.217C9.995,13.093 9.911,13.088 9.783,13.098C9.661,13.048 9.503,12.978 9.508,12.738L9.508,12.002C9.503,11.903 9.442,11.904 9.408,11.982C9.232,12.139 9.501,13.008 9.015,12.962ZM9.746,13.307C10.006,13.315 9.941,13.408 10.01,13.512C9.581,13.721 9.166,13.916 8.745,14.119C8.761,13.832 9.346,13.315 9.746,13.307ZM11.952,14.858C11.602,15.974 9.448,16.554 9.36,15.204C9.36,15.026 9.352,14.974 9.381,14.788C9.408,14.455 9.585,14.326 9.627,14.662C9.634,14.832 9.655,15.113 9.725,15.24C10.009,15.778 11.682,15.66 11.733,13.951C11.717,13.824 11.623,13.902 11.599,13.979C11.35,15.866 9.122,15.628 9.788,13.908C10.014,13.753 9.915,14.422 10.007,14.598C10.155,14.88 10.429,14.845 10.775,14.69C11.345,14.387 11.366,13.992 11.338,13.958C11.296,13.929 11.197,14.049 11.078,14.098C10.932,14.136 10.765,14.152 10.627,13.986C10.582,13.842 10.594,13.664 10.627,13.5C10.655,13.293 10.88,13.079 11.078,13.077C11.35,13.068 11.39,13.286 11.549,13.394C11.643,13.405 11.715,13.291 11.697,13.204C11.575,12.462 11.495,11.896 11.373,11.154C11.343,10.981 11.439,10.892 11.542,10.858C11.603,10.844 11.643,10.808 11.69,10.865C11.786,10.903 11.96,11.426 12.042,11.682C11.968,11.776 11.892,11.715 11.81,11.718C11.873,12.202 11.937,12.664 12,13.148C12.197,13.033 12.295,13.066 12.275,13.31C12.292,13.415 12.448,13.402 12.535,13.331C12.665,12.967 12.878,12.998 12.93,13.232C12.935,13.308 13.052,13.305 13.064,13.246L13.092,13.063C13.102,13.007 13.203,12.978 13.339,12.936C13.332,13.157 13.304,13.371 13.268,13.577C13.208,13.788 12.914,13.845 12.747,13.725C12.698,13.672 12.628,13.698 12.599,13.738C12.534,13.818 12.235,14.018 12.022,13.788C11.922,13.785 12.137,14.241 11.952,14.858ZM11.121,13.691C11.145,13.665 11.162,13.612 11.142,13.561C11.097,13.447 10.968,13.489 10.945,13.53C10.925,13.565 10.882,13.608 10.896,13.655C10.927,13.695 10.951,13.704 11.002,13.706C11.046,13.706 11.107,13.717 11.121,13.691ZM12.617,12.161C12.603,12.183 12.167,12.184 12.149,12.161C12.067,12.144 12.778,11.666 13.037,11.389C13.093,11.342 13.008,11.257 12.924,11.217C12.837,11.111 12.863,10.942 12.973,10.836C13.06,10.792 13.178,10.772 13.315,10.833C13.397,10.925 13.447,11.125 13.29,11.217C13.258,11.247 13.255,11.278 13.29,11.308C13.323,11.337 13.352,11.358 13.385,11.386C13.385,11.386 12.751,12.112 12.617,12.161ZM13.087,11.022C13.047,11.032 13.034,11.082 13.058,11.137C13.082,11.191 13.135,11.227 13.175,11.217L13.176,11.217C13.216,11.207 13.229,11.155 13.205,11.102C13.18,11.048 13.128,11.012 13.087,11.022ZM8.971,15.429C9.021,15.363 9.06,15.375 9.111,15.453C9.146,15.563 9.081,15.866 8.932,15.931C8.846,15.957 8.732,15.922 8.662,15.842C8.531,15.673 8.552,15.107 8.789,14.728C8.843,14.66 8.869,14.608 8.843,14.778C8.818,14.942 8.797,15.151 8.813,15.377C8.822,15.496 8.866,15.642 8.971,15.429ZM16.802,11.423C16.744,11.345 16.625,11.208 16.605,11.125C16.58,11.002 16.571,10.923 16.588,10.776C16.622,10.61 16.811,10.71 16.888,10.765C17.042,10.895 17.053,10.905 17.238,11.064C17.287,11.123 17.318,11.165 17.345,11.206C17.343,11.124 17.352,11.037 17.396,10.936C17.503,10.795 17.501,10.815 17.57,10.912C17.784,11.214 17.967,11.436 18.026,11.765C18.052,11.957 17.868,11.592 17.915,11.921C17.932,11.99 17.956,12.199 17.98,12.458C18.133,12.683 18.262,12.88 18.299,12.949C18.401,13.137 18.718,13.626 18.949,14.121C19.011,14.204 19.034,14.793 18.928,14.842C18.64,14.266 18.345,13.748 18.042,13.252C18.051,13.411 18.058,13.561 18.062,13.683C18.066,13.912 18.124,14.604 18.082,14.992C18.017,15.273 17.83,15.465 17.715,15.461C17.753,14.809 17.741,14.14 17.698,13.522C17.677,13.201 17.641,12.878 17.591,12.547C17.336,12.165 17.076,11.791 16.802,11.423ZM17.372,11.405C17.301,11.411 17.196,11.378 17.322,11.528C17.34,11.548 17.378,11.598 17.423,11.66L17.412,11.598C17.402,11.532 17.386,11.468 17.372,11.405ZM19.015,14.995C19.087,14.932 19.103,14.774 19.095,14.665C18.988,13.54 18.938,12.555 18.776,11.429C18.77,11.229 18.82,11.015 18.895,10.892C18.967,10.74 18.982,10.797 19.025,10.882C19.146,11.071 19.358,11.563 19.301,11.623C19.261,11.688 19.185,11.662 19.164,11.688C19.15,11.712 19.143,11.807 19.155,11.887C19.326,12.713 19.408,13.603 19.383,14.746C19.38,14.942 19.249,15.193 19.175,15.31C18.897,15.814 18.597,16.005 18.256,16.045C18.053,16.045 17.895,15.828 17.941,15.777C18.361,15.618 18.747,15.274 19.015,14.995ZM23.499,12.141C23.671,12.967 23.711,13.821 23.685,14.964C23.682,15.159 23.593,15.477 23.518,15.594C23.241,16.014 22.838,16.042 22.498,16.082C22.299,16.076 22.3,15.914 22.544,15.772C22.622,15.711 22.858,15.632 22.968,15.549C23.08,15.466 23.198,15.295 23.305,15.158C23.353,15.029 23.356,14.974 23.372,14.871C23.345,13.787 23.21,12.868 23.029,11.646C22.999,11.452 23.025,11.232 23.101,11.108C23.172,10.957 23.187,11.014 23.231,11.098C23.352,11.288 23.698,11.732 23.639,11.792C23.599,11.857 23.488,11.794 23.466,11.851C23.452,11.875 23.488,12.061 23.499,12.141ZM20.922,13.092C20.767,13.089 20.445,12.793 20.352,12.618C20.317,12.519 20.339,12.422 20.371,12.365C20.427,12.328 20.515,12.286 20.58,12.326C20.58,12.326 20.648,12.421 20.635,12.433C20.718,12.473 20.754,12.45 20.763,12.416C20.768,12.356 20.738,12.321 20.738,12.255C20.774,12.076 20.978,12.048 21.055,12.162C21.111,12.232 21.131,12.38 21.14,12.479C21.139,12.53 21.056,12.47 21.009,12.482C20.963,12.495 20.952,12.549 20.948,12.598C20.939,12.728 20.925,12.935 20.922,13.092ZM13.966,12.585C13.697,12.66 13.308,11.888 13.557,11.185C13.712,11.03 13.72,11.966 13.848,12.086C13.9,12.178 13.975,12.242 14.045,12.016C14.121,11.706 14.245,11.316 14.498,11.085C14.552,11.039 14.675,10.985 14.749,11.135C14.8,11.231 14.785,11.685 14.778,11.962C14.815,12.135 14.878,12.164 14.959,12.218C15.046,12.261 15.159,12.289 15.264,12.177C15.338,12.09 15.351,12.061 15.408,11.974C15.445,11.668 15.412,11.393 15.329,11.225C15.228,10.958 15.367,10.828 15.399,10.743C15.519,10.526 15.555,10.648 15.604,10.775C15.74,10.985 15.686,11.434 15.729,11.755C15.786,12.178 15.894,12.206 15.96,12.221C16.119,12.239 16.21,12.095 16.21,12.095C16.262,11.79 16.105,11.572 16.02,11.404C15.922,11.277 15.918,11.158 15.939,11.063C15.956,10.979 15.944,10.892 16.03,10.812C16.152,10.71 16.279,10.722 16.371,10.822C16.475,10.94 16.629,11.172 16.581,11.254C16.565,11.337 16.465,11.311 16.418,11.302C16.325,11.315 16.425,11.523 16.425,11.533C16.482,11.671 16.484,11.862 16.559,11.998C16.632,12.112 16.781,12.062 16.858,12.05C16.918,12.013 16.922,12.001 16.982,11.965C17.028,11.938 17.098,11.928 17.092,12.055C17.092,12.055 16.975,12.395 16.818,12.47C16.773,12.482 16.756,12.518 16.681,12.462C16.638,12.378 16.701,12.332 16.711,12.285C16.711,12.258 16.603,12.221 16.54,12.305C16.5,12.362 16.478,12.414 16.39,12.565C16.325,12.678 16.042,12.719 15.909,12.666C15.752,12.586 15.762,12.471 15.688,12.405C15.613,12.355 15.542,12.358 15.488,12.415L15.248,12.655C15.228,12.675 14.972,12.883 14.664,12.645C14.525,12.481 14.48,12.362 14.487,11.823C14.459,11.765 14.418,11.777 14.364,11.891C14.284,12.295 14.16,12.665 13.966,12.585ZM17.644,14.095C17.652,14.13 17.622,14.102 17.567,14.197C17.509,14.291 17.425,14.508 17.421,14.652C16.989,14.791 16.544,14.852 16.091,14.906C15.934,14.986 15.855,15.092 15.888,15.212C15.941,15.344 16.289,15.476 16.289,15.482C16.355,15.524 16.435,15.62 16.271,15.819C15.565,15.788 15.018,15.488 14.829,15.064C14.772,15.02 14.711,15.064 14.672,15.122C14.396,15.476 14.125,15.796 13.655,15.966C13.375,16.036 13.088,15.923 12.953,15.74C12.862,15.636 12.866,15.52 12.832,15.495C12.681,15.562 11.378,16.116 11.544,15.858C11.861,15.518 12.409,15.269 12.894,14.935C12.928,14.822 12.992,14.443 13.184,14.319C13.195,14.321 13.154,14.542 13.158,14.636C13.16,14.713 13.153,14.743 13.169,14.723C13.202,14.702 13.79,14.24 13.835,14.098C13.892,14.018 13.852,13.812 13.852,13.805C13.742,13.522 13.587,13.498 13.53,13.356C13.478,13.168 13.502,12.955 13.609,12.895C13.705,12.808 13.818,12.818 13.922,12.913C14.04,13.019 14.145,13.227 14.176,13.382C14.155,13.443 14.021,13.341 13.974,13.372C14.057,13.458 14.095,13.556 14.125,13.678C14.202,14.002 14.178,14.128 14.102,14.338C13.84,14.886 13.506,15.05 13.215,15.254C13.206,15.256 13.201,15.392 13.311,15.466C13.348,15.506 13.502,15.527 13.68,15.469C14.026,15.281 14.385,14.933 14.564,14.545C14.615,14.252 14.544,13.942 14.468,13.671C14.353,13.406 14.218,13.028 14.218,13.022C14.214,12.857 14.227,12.8 14.299,12.717C14.412,12.638 14.359,12.582 14.527,12.75C14.737,13.108 14.872,13.574 14.892,13.985C14.883,14.087 14.955,14.152 14.988,14.129C15.007,13.891 15.586,13.558 16.118,13.51C16.198,13.492 16.159,13.337 16.172,13.257C16.141,12.962 16.338,12.694 16.615,12.672C16.992,12.728 17.117,12.929 17.124,13.236C17.083,13.826 16.468,13.926 16.123,13.973C16.071,13.993 16.048,14.018 16.123,14.046L17.57,14.053L17.644,14.095ZM15.872,14.655C16.029,14.601 15.945,14.468 15.777,14.458C15.571,14.436 15.333,14.433 15.172,14.389C15.065,14.389 14.998,14.461 15.005,14.546C15.043,14.903 15.312,15.068 15.407,15.137C15.488,15.18 15.625,15.287 15.567,14.975C15.567,14.75 15.716,14.708 15.872,14.655ZM16.454,13.194C16.432,13.231 16.468,13.292 16.535,13.33C16.602,13.369 16.675,13.372 16.696,13.335C16.718,13.298 16.681,13.237 16.614,13.198C16.547,13.159 16.475,13.158 16.454,13.194ZM10.512,11.19C10.388,11.138 10.392,10.952 10.4,10.945C10.395,10.905 10.401,10.802 10.492,10.802C10.508,10.806 10.523,10.812 10.532,10.824C10.538,10.838 10.543,10.87 10.543,10.89C10.543,10.909 10.556,10.914 10.567,10.925C10.584,10.937 10.579,10.935 10.601,10.935C10.62,10.93 10.63,10.921 10.633,10.895C10.633,10.872 10.641,10.852 10.646,10.833C10.658,10.813 10.658,10.807 10.682,10.806C10.701,10.806 10.707,10.808 10.718,10.815C10.728,10.83 10.745,10.855 10.745,10.879C10.743,10.953 10.796,10.962 10.81,10.948C10.834,10.934 10.815,10.891 10.822,10.864C10.844,10.782 10.936,10.762 10.97,10.842C10.972,10.863 10.978,10.943 10.978,10.967C10.992,11.236 10.678,11.27 10.512,11.19ZM15.625,12.944C15.622,13.018 15.676,13.027 15.688,13.013C15.713,12.999 15.695,12.956 15.701,12.929C15.722,12.848 15.815,12.828 15.848,12.907C15.851,12.929 15.857,13.009 15.857,13.033C15.954,13.289 15.558,13.335 15.391,13.256C15.267,13.204 15.271,13.018 15.278,13.011C15.273,12.972 15.279,12.868 15.37,12.868C15.387,12.872 15.402,12.877 15.411,12.889C15.417,12.902 15.422,12.935 15.422,12.955C15.422,12.975 15.435,12.979 15.445,12.991C15.463,13.002 15.458,12.999 15.48,12.999C15.499,12.995 15.51,12.986 15.512,12.959C15.512,12.937 15.52,12.918 15.525,12.898C15.538,12.878 15.538,12.872 15.561,12.871C15.58,12.871 15.586,12.873 15.597,12.88C15.607,12.895 15.625,12.92 15.625,12.944ZM18.238,12.4C18.114,12.348 18.118,12.163 18.123,12.155C18.118,12.116 18.124,12.012 18.215,12.012C18.232,12.016 18.246,12.022 18.256,12.034C18.262,12.048 18.267,12.081 18.267,12.101C18.267,12.12 18.279,12.125 18.29,12.136C18.308,12.147 18.303,12.145 18.325,12.145C18.344,12.141 18.354,12.132 18.357,12.105C18.357,12.082 18.365,12.063 18.37,12.043C18.383,12.023 18.382,12.018 18.405,12.016C18.425,12.016 18.432,12.018 18.442,12.025C18.452,12.04 18.47,12.065 18.47,12.089C18.468,12.164 18.521,12.172 18.535,12.158C18.559,12.144 18.541,12.101 18.548,12.074C18.568,11.992 18.661,11.972 18.695,12.052C18.697,12.074 18.703,12.154 18.703,12.178C18.717,12.446 18.404,12.48 18.238,12.4ZM18.35,11.36C18.317,11.252 18.113,11.054 18.134,10.995C18.092,10.874 18.222,10.82 18.312,10.842C18.462,10.904 18.567,11.206 18.532,11.354C18.503,11.536 18.423,11.734 18.367,11.708C18.305,11.685 18.409,11.526 18.35,11.36ZM19.885,15.255C19.925,14.041 19.674,12.979 19.429,11.702C19.393,11.508 19.426,11.255 19.521,10.943C19.624,10.808 19.604,10.882 19.65,10.965C19.727,11.159 19.969,11.485 20.067,11.708C20.098,11.886 19.816,11.622 19.872,11.927C19.92,12.088 20.151,13.715 20.161,13.928C20.17,14.142 20.223,14.363 20.192,14.726C20.135,14.99 20.001,15.256 19.885,15.255ZM22.774,11.917C22.744,11.8 22.558,11.586 22.577,11.522C22.538,11.39 22.656,11.332 22.739,11.355C22.875,11.423 22.955,11.802 22.94,11.91C22.913,12.108 22.841,12.321 22.789,12.293C22.733,12.268 22.801,12 22.774,11.917ZM12.682,14.729C12.628,14.712 12.693,14.514 12.667,14.452C12.656,14.304 12.475,14.227 12.479,14.163C12.445,14.045 12.555,14.023 12.635,14.04C12.765,14.09 12.842,14.368 12.827,14.448C12.801,14.593 12.732,14.75 12.682,14.729ZM9.178,11.179C9.149,11.09 8.987,10.927 9.005,10.879C8.969,10.778 9.079,10.735 9.158,10.752C9.351,10.81 9.362,11.092 9.348,11.175C9.322,11.325 9.254,11.488 9.205,11.466C9.152,11.447 9.203,11.243 9.178,11.179ZM12.948,12.082C13.031,12.032 13.086,12.064 13.062,12.135C13.027,12.21 13.024,12.285 13.039,12.36C13.057,12.402 13.066,12.428 13.138,12.415C13.31,12.262 13.305,12.342 13.305,12.342C13.305,12.342 13.22,12.631 13.075,12.613C13.057,12.613 12.922,12.658 12.836,12.536C12.744,12.398 12.802,12.162 12.948,12.082ZM14.058,11.195C13.963,11.244 13.916,11.251 13.869,11.182C13.804,11.119 13.822,11.12 13.827,11.021C13.832,10.845 13.979,10.693 14.053,10.643C14.158,10.58 14.16,10.635 14.157,10.712C14.071,10.825 13.98,10.872 14.012,10.988C14.029,11.114 14.171,10.948 14.148,11.061C14.131,11.128 14.112,11.155 14.058,11.195ZM15.057,11.255C14.993,11.396 14.853,11.349 14.878,11.239C14.872,11.239 14.91,10.871 14.942,10.801C15.017,10.615 15.13,10.61 15.159,10.777C15.152,10.887 15.152,10.996 15.057,11.255ZM21.342,13.088C21.421,13.06 21.403,13.37 21.367,13.368C21.382,13.43 20.606,13.957 20.552,13.935C20.513,13.963 20.475,13.723 20.552,13.655C20.57,13.636 21.342,13.088 21.342,13.088ZM21.247,14.575C21.191,14.551 21.252,14.315 21.225,14.231C21.195,14.114 21.08,13.893 21.099,13.83C21.061,13.698 21.172,13.628 21.255,13.651C21.39,13.718 21.445,14.116 21.429,14.225C21.435,14.435 21.298,14.603 21.247,14.575ZM21.917,15.854C21.972,15.805 22.009,15.777 22.063,15.727C22.12,15.658 22.098,15.62 22.065,15.578C22.008,15.542 21.954,15.546 21.95,15.455C21.959,15.395 21.976,15.374 22.025,15.363C22.117,15.355 22.15,15.348 22.232,15.363C22.314,15.39 22.333,15.423 22.311,15.473C22.291,15.523 22.28,15.548 22.251,15.589C22.215,15.655 22.29,15.667 22.312,15.667C22.36,15.672 22.431,15.652 22.462,15.688C22.467,15.688 22.485,15.764 22.431,15.805C22.431,15.808 22.098,16.025 21.953,15.985C21.875,15.964 21.892,15.898 21.917,15.854ZM21.769,19.846C21.982,19.846 22.154,20.018 22.154,20.231L22.154,21C22.154,21.212 21.982,21.385 21.769,21.385C21.557,21.385 21.385,21.212 21.385,21L21.385,20.615L20.615,20.615L20.615,21C20.615,21.212 20.443,21.385 20.231,21.385C20.018,21.385 19.846,21.212 19.846,21L19.846,20.615L12.923,20.615C10.615,20.615 10.615,19.846 10.615,19.846L19.846,19.846L19.846,19.462C19.846,19.249 20.018,19.077 20.231,19.077C20.443,19.077 20.615,19.249 20.615,19.462L20.615,19.846L21.769,19.846Z" fill="#f4f4f4" />
</svg>
