<svg width="32" height="32" viewBox="0 0 32 32" xmlns="http://www.w3.org/2000/svg">
  <path d="M13,11L15,9L29,9L30,10L30,14L29,15L15,15L13,13L13,11Z" fill="#fdbb11" />
  <path d="M2,22L3,23L29,23L30,22L30,18L29,17L3,17L2,18L2,22Z" fill="#fdbb11" />
  <path d="M30,6L30,10L14,10L13,9L13,7L14,6L30,6Z" fill="#007356" />
  <path d="M30,14L30,18L14,18L13,17L13,15L14,14L30,14Z" fill="#007356" />
  <rect x="2" y="22" width="28" height="4" fill="#007356" />
  <rect x="2" y="6" width="12" height="12" fill="#cf0828" />
  <path d="M11.637,10.965L8.859,10.965L8.849,10.934L8,8.323L7.983,8.375L7.141,10.965L4.363,10.965L6.575,12.573L6.61,12.598L5.784,15.142L5.752,15.242L8,13.608L10.247,15.242L9.389,12.598L11.637,10.965Z" fill="#f4f4f4" />
</svg>
