<svg width="32" height="32" viewBox="0 0 32 32" xmlns="http://www.w3.org/2000/svg">
  <rect fill="#1345B7" x="2" y="6" width="28" height="20" />
  <path d="M15.241,12.689L15.402,12.685C15.496,12.784 15.594,12.88 15.691,12.976C15.689,13.051 15.72,13.105 15.795,13.127C15.728,13.145 15.659,13.15 15.592,13.158C15.563,13.196 15.528,13.226 15.487,13.248C15.498,13.358 15.599,13.42 15.668,13.495C15.74,13.502 15.82,13.5 15.875,13.555L16.034,13.559L16.035,13.765C16.1,13.758 16.182,13.771 16.202,13.688C16.317,13.688 16.432,13.687 16.548,13.689C16.578,13.753 16.65,13.757 16.707,13.784L16.735,13.927C16.793,13.852 16.848,13.755 16.955,13.752C16.988,13.798 17.023,13.844 17.058,13.889C17.118,13.894 17.181,13.9 17.208,13.965L17.315,13.969C17.315,14.098 17.305,14.227 17.322,14.355L17.385,14.393C17.387,14.496 17.387,14.599 17.385,14.702C17.45,14.756 17.558,14.806 17.615,14.711L17.707,14.711C17.746,14.768 17.794,14.818 17.852,14.855C17.854,14.956 17.852,15.057 17.854,15.157C17.988,15.205 17.902,15.388 17.928,15.496C17.995,15.542 18.049,15.603 18.081,15.68C18.098,15.645 18.12,15.612 18.139,15.578L18.371,15.582C18.405,15.623 18.44,15.663 18.478,15.704L18.541,15.772C18.595,15.786 18.648,15.802 18.691,15.839L18.828,15.848C18.864,15.93 18.957,15.918 19.031,15.934L18.93,16.009C18.927,16.178 18.942,16.347 18.922,16.515L18.861,16.549C18.859,16.635 18.845,16.719 18.787,16.788L18.928,16.787L18.935,16.865L19,16.865C19.002,16.846 19.005,16.807 19.008,16.787L19.131,16.787L19.135,16.862C19.209,16.876 19.315,16.835 19.356,16.92C19.545,16.924 19.735,16.922 19.925,16.921L19.933,17.022C19.963,17.055 19.992,17.089 20.02,17.124C20.083,17.124 20.148,17.124 20.212,17.125L20.206,17.238C20.265,17.29 20.329,17.337 20.412,17.337L20.413,17.196L20.538,17.198L20.547,17.12C20.637,17.125 20.755,17.098 20.775,17.218L20.849,17.108C20.909,17.125 20.959,17.165 21.008,17.202L21.01,17.305C21.114,17.326 21.073,17.438 21.082,17.513L20.952,17.616C20.952,17.722 20.952,17.828 20.95,17.935L20.822,17.938L20.822,18.303C20.748,18.362 20.682,18.428 20.615,18.492L20.615,18.715C20.565,18.757 20.518,18.798 20.47,18.838L20.47,18.932C20.418,18.979 20.358,19.015 20.288,19.025C20.255,19.064 20.222,19.104 20.191,19.144C20.168,19.151 20.123,19.162 20.101,19.168L20.212,19.234C20.211,19.38 20.209,19.527 20.211,19.673C20.122,19.748 20.006,19.743 19.898,19.742L19.785,19.881C19.704,19.88 19.646,19.934 19.597,19.99C19.598,20.06 19.6,20.13 19.603,20.199C19.726,20.265 19.775,20.445 19.932,20.438C19.934,20.555 19.955,20.688 19.844,20.765C19.795,20.763 19.743,20.763 19.695,20.763C19.618,20.874 19.451,20.798 19.336,20.818L19.336,20.69L19.229,20.687C19.193,20.729 19.157,20.77 19.119,20.811C19.056,20.819 19.004,20.851 18.955,20.888C18.878,20.894 18.802,20.892 18.727,20.892L18.721,20.971L18.549,20.967C18.502,21.015 18.462,21.071 18.458,21.142L18.339,21.243C18.342,21.325 18.344,21.415 18.257,21.452C18.275,21.545 18.206,21.708 18.338,21.734L18.334,21.836C18.155,21.842 17.976,21.839 17.798,21.84L17.795,21.659C17.665,21.622 17.745,21.456 17.722,21.36L17.645,21.355L17.647,21.235C17.588,21.229 17.521,21.238 17.497,21.172L17.392,21.172L17.382,21.027L17.056,21.026C17.053,21.052 17.05,21.102 17.048,21.127C17.017,21.161 16.987,21.195 16.957,21.229L16.792,21.23C16.762,21.272 16.734,21.313 16.705,21.356C16.625,21.358 16.544,21.358 16.463,21.362C16.435,21.395 16.403,21.428 16.369,21.456L16.365,21.558C16.303,21.564 16.235,21.565 16.218,21.638L16.058,21.638C16.025,21.681 15.992,21.724 15.959,21.768L15.664,21.768C15.618,21.883 15.478,21.827 15.385,21.844C15.345,21.9 15.296,21.948 15.238,21.986C15.237,22.048 15.236,22.112 15.236,22.175L15.158,22.18L15.157,22.363C15.112,22.397 15.069,22.432 15.025,22.468C15.03,22.632 15.029,22.795 15.026,22.959L15.158,23.065L15.158,23.498C15.127,23.527 15.097,23.557 15.068,23.588L14.956,23.59L14.953,23.704L14.866,23.789C14.746,23.789 14.626,23.789 14.507,23.791C14.452,23.861 14.395,23.928 14.337,23.996L14.097,23.995C14.085,23.933 14.073,23.871 14.031,23.822C14.025,23.662 14.028,23.502 14.028,23.342C14.094,23.278 14.159,23.212 14.228,23.148L14.228,22.94L14.162,22.902C14.148,22.686 14.162,22.468 14.158,22.249L14.038,22.249C14.028,22.182 14.041,22.095 13.95,22.087C13.949,21.923 13.949,21.76 13.952,21.596L13.832,21.493C13.822,21.43 13.822,21.358 13.749,21.334L13.746,21.193C13.66,21.155 13.675,21.017 13.766,20.998C13.69,20.931 13.619,20.858 13.546,20.79L13.545,20.701C13.46,20.684 13.385,20.643 13.302,20.621C13.279,20.562 13.222,20.557 13.166,20.555L13.113,20.496C13.062,20.49 13.018,20.469 12.982,20.433L12.888,20.431C12.858,20.302 12.798,20.182 12.815,20.046C12.782,20.017 12.751,19.985 12.722,19.952C12.555,19.945 12.39,19.954 12.225,19.948C12.182,19.95 12.146,19.936 12.117,19.905C12.08,19.868 12.042,19.832 12.002,19.797C12,19.686 12.006,19.575 11.998,19.465C11.968,19.388 11.92,19.322 11.875,19.256L11.872,19.155L11.798,19.145L11.798,19.041C11.718,18.993 11.751,18.892 11.738,18.816L11.54,18.812L11.54,18.709L11.441,18.615L11.334,18.608L11.332,18.504C11.271,18.465 11.254,18.402 11.256,18.334L11.391,18.328C11.391,18.207 11.392,18.085 11.386,17.962C11.346,17.886 11.312,17.805 11.248,17.745L11.185,17.667L11.09,17.659L11.002,17.572L11.002,17.422C10.9,17.401 10.938,17.289 10.925,17.215C10.802,17.135 10.91,16.986 10.945,16.886C10.968,16.858 10.992,16.831 11.018,16.805C11.064,16.759 11.105,16.709 11.142,16.658L11.318,16.658L11.423,16.792L11.54,16.784L11.54,16.921C11.761,16.921 11.982,16.919 12.202,16.922C12.208,16.858 12.197,16.778 12.279,16.765C12.281,16.638 12.281,16.512 12.285,16.386C12.362,16.38 12.45,16.395 12.508,16.328L12.612,16.322L12.612,16.118C12.718,16.118 12.826,16.123 12.932,16.112L12.968,16.036C13.04,16.032 13.084,16.07 13.102,16.137C13.142,16.089 13.182,16.043 13.222,15.998C13.29,15.982 13.352,15.954 13.397,15.899C13.467,15.841 13.555,15.812 13.635,15.768L13.557,15.691C13.554,15.596 13.49,15.53 13.416,15.481C13.415,15.388 13.415,15.295 13.416,15.202C13.472,15.151 13.528,15.098 13.58,15.043L13.724,15.043C13.808,14.927 13.915,14.828 14.027,14.739L14.027,14.633C14.055,14.635 14.11,14.635 14.138,14.635C14.148,14.704 14.206,14.71 14.262,14.712C14.289,14.675 14.32,14.641 14.355,14.61L14.362,14.525C14.466,14.455 14.395,14.3 14.418,14.194C14.469,14.143 14.542,14.103 14.565,14.03C14.545,13.958 14.471,13.919 14.422,13.868C14.458,13.698 14.3,13.622 14.213,13.507L14.095,13.494C14.082,13.437 14.087,13.367 14.03,13.331C14.028,13.251 14.028,13.17 14.028,13.089C14.2,13.085 14.372,13.101 14.543,13.082L14.577,13.023C14.65,12.978 14.73,12.945 14.795,12.889C14.867,12.887 14.938,12.886 15.01,12.886C15.044,12.842 15.079,12.799 15.114,12.755L15.231,12.759C15.234,12.745 15.238,12.708 15.241,12.689Z" fill="#c99e2d" />
  <path d="M23.708,9.24L23.412,10.148L22.472,10.138L23.244,10.701L22.943,11.592L23.715,11.032L24.471,11.592L24.178,10.684L24.944,10.138L23.988,10.138L23.708,9.24ZM20.626,8.409L20.33,9.318L19.388,9.308L20.162,9.868L19.861,10.761L20.633,10.2L21.389,10.761L21.095,9.852L21.862,9.308L20.907,9.308L20.626,8.409ZM17.542,8.004L17.246,8.912L16.305,8.902L17.078,9.463L16.777,10.355L17.549,9.794L18.305,10.355L18.011,9.446L18.778,8.902L17.823,8.902L17.542,8.004ZM8.292,9.24L8.587,10.148L9.528,10.138L8.755,10.7L9.055,11.592L8.283,11.031L7.528,11.592L7.822,10.683L7.055,10.138L8.009,10.138L8.292,9.24ZM11.375,8.409L11.67,9.318L12.612,9.308L11.839,9.868L12.139,10.761L11.367,10.2L10.611,10.761L10.906,9.852L10.138,9.308L11.093,9.308L11.375,8.409ZM14.458,8.004L14.754,8.912L15.695,8.902L14.922,9.463L15.223,10.355L14.451,9.794L13.695,10.355L13.99,9.446L13.223,8.902L14.178,8.901L14.458,8.004Z" fill="#f4f4f4" />
</svg>
