<svg width="32" height="32" viewBox="0 0 32 32" xmlns="http://www.w3.org/2000/svg">
  <polygon fill="#276038" points="2,6 13,6 14,7 14,25 13,26 2,26" />
  <rect fill="#F8312F" x="13" y="6" width="17" height="20" />
  <path d="M13,10C9.686,10 7,12.686 7,16C7,19.313 9.686,22 13,22C16.313,22 19,19.313 19,16C19,12.686 16.313,10 13,10ZM8.415,13.446L9.617,14.647L7.772,15.57C7.834,14.803 8.059,14.084 8.415,13.446ZM7.772,16.43L11.072,18.085L9.042,19.438L9.053,19.454C8.333,18.631 7.866,17.585 7.772,16.43ZM12.25,21.19C11.547,21.09 10.89,20.85 10.306,20.5L12.25,20.5L12.25,21.19ZM12.25,19.75L9.926,19.75L12.25,18.201L12.25,19.75ZM12.25,17.299L11.795,17.603L8.589,16L10.176,15.207L12.25,17.28L12.25,17.299ZM12.25,16.22L9.593,13.563L12.25,14.005L12.25,16.22ZM12.25,13.226L8.926,12.691C9.739,11.691 10.913,11.001 12.25,10.81L12.25,13.226ZM17.585,13.445C17.941,14.084 18.166,14.803 18.228,15.57L16.383,14.648L17.585,13.445ZM13.75,10.81C15.087,11.002 16.261,11.691 17.074,12.691L13.75,13.226L13.75,10.81ZM13.75,14.005L16.407,13.562L13.75,16.22L13.75,14.005ZM13.75,17.28L15.824,15.207L17.412,16L14.206,17.603L13.75,17.299L13.75,17.28ZM13.75,21.19L13.75,20.5L15.694,20.5C15.11,20.85 14.453,21.09 13.75,21.19ZM13.75,19.75L13.75,18.201L16.074,19.75L13.75,19.75ZM16.948,19.454L16.959,19.438L14.929,18.085L18.229,16.43C18.135,17.585 17.667,18.631 16.948,19.454Z" fill="#fee55e" />
  <path d="M10,12.25L10,17.5C10,19.157 11.343,20.5 13,20.5C14.657,20.5 16,19.157 16,17.5L16,12.25L10,12.25Z" fill="#F8312F" />
  <path d="M10.75,13L10.75,17.5C10.75,18.742 11.757,19.75 13,19.75C14.243,19.75 15.25,18.742 15.25,17.5L15.25,13L10.75,13Z" fill="#f4f4f4" />
  <rect x="11.5" y="15.25" width="3" height="1.5" fill="#0b338d80" />
  <rect x="12.25" y="14.5" width="1.5" height="3" fill="#0b338d80" />
  <path d="M10.75,15.25L11.5,15.25L11.5,16.75L10.75,16.75L10.75,15.25ZM12.25,15.25L13.75,15.25L13.75,16.75L12.25,16.75L12.25,15.25ZM14.5,15.25L15.25,15.25L15.25,16.75L14.5,16.75L14.5,15.25ZM12.25,17.5L13.75,17.5L13.75,19L12.25,19L12.25,17.5ZM12.25,13L13.75,13L13.75,14.5L12.25,14.5L12.25,13Z" fill="#0b338d" />
</svg>
