<svg width="32" height="32" viewBox="0 0 32 32" xmlns="http://www.w3.org/2000/svg">
  <path d="M30,6L30,26L10,26L9,25L9,7L10,6L30,6Z" fill="#0084ce" />
  <path d="M10,19.25L10,26L2,26L2,19.25L3,19L9,19L10,19.25ZM8.903,6L10,6.925L10,8.668L9,9L10,10.082L10,11.825L8.903,12.75L8,13L4,13L3.097,12.75L2,11.825L2,10.082L3,9L2,8.668L2,6.925L3.097,6L5.293,6L6,7L6.707,6L8.903,6Z" fill="#cf0828" />
  <path d="M8.475,21.389C8.788,21.268 9.245,21.905 8.715,22.122C8.185,22.339 7.982,21.954 8.065,21.798C8.149,21.642 7.452,21.978 7.2,21.798C7.26,22.074 7.139,22.279 6.875,22.279C6.612,22.279 6.269,22.36 6.082,22.159C5.993,22.062 5.939,21.858 6.035,21.774C5.65,21.75 5.325,21.846 5.325,21.846C5.325,21.846 5.289,22.279 4.592,22.279C3.895,22.279 3.402,22.41 3.402,21.942C3.402,21.473 3.651,21.515 3.992,21.593C4.22,21.645 4.364,21.605 4.364,21.605C4.364,21.605 4.352,21.442 4.316,21.377C3.523,21.473 3.391,20.8 3.391,20.8C3.259,20.68 3.042,20.752 3.042,20.368C3.042,19.983 3.115,20.001 3.409,20.001C3.703,20.001 4.04,19.977 4.04,20.401C4.04,20.825 4.341,20.68 4.341,20.68C4.341,20.68 4.352,20.139 4.942,20.139C5.615,20.139 5.663,20.729 5.663,20.729C5.663,20.729 5.953,20.842 6.204,20.812C6.349,20.795 6.527,20.757 6.713,20.746C6.942,20.435 7.602,20.355 7.995,20.463C8.475,20.595 8.655,20.739 8.655,20.739C8.655,20.739 8.259,21.028 7.862,20.992C7.662,20.974 7.425,20.885 7.239,20.842C7.327,20.886 7.412,20.945 7.49,21.033C7.875,21.472 8.163,21.509 8.475,21.389ZM8.475,24.092C8.788,23.972 9.245,24.609 8.715,24.826C8.185,25.042 7.982,24.658 8.065,24.502C8.149,24.345 7.452,24.682 7.2,24.502C7.26,24.778 7.139,24.982 6.875,24.982C6.612,24.982 6.269,25.064 6.082,24.862C5.993,24.765 5.939,24.562 6.035,24.478C5.65,24.454 5.325,24.55 5.325,24.55C5.325,24.55 5.289,24.982 4.592,24.982C3.895,24.982 3.402,25.114 3.402,24.645C3.402,24.177 3.651,24.219 3.992,24.297C4.22,24.349 4.364,24.309 4.364,24.309C4.364,24.309 4.352,24.146 4.316,24.081C3.523,24.177 3.391,23.504 3.391,23.504C3.259,23.384 3.042,23.456 3.042,23.072C3.042,22.687 3.115,22.705 3.409,22.705C3.703,22.705 4.04,22.681 4.04,23.105C4.04,23.529 4.341,23.384 4.341,23.384C4.341,23.384 4.352,22.843 4.942,22.843C5.615,22.843 5.663,23.432 5.663,23.432C5.663,23.432 5.953,23.546 6.204,23.516C6.349,23.499 6.527,23.461 6.713,23.45C6.943,23.14 7.602,23.059 7.995,23.167C8.475,23.299 8.655,23.443 8.655,23.443C8.655,23.443 8.259,23.732 7.862,23.695C7.662,23.678 7.425,23.59 7.239,23.545C7.327,23.59 7.412,23.649 7.49,23.737C7.875,24.176 8.163,24.212 8.475,24.092Z" fill="#fdbb11" />
  <path d="M28.269,12.707C27.355,12.395 26.322,12.346 26.322,12.346L25.649,13.668C25.649,13.668 27.645,13.711 27.645,13.834C27.645,13.918 27.191,14.671 26.907,15.133C26.762,15.088 26.583,15.063 26.371,15.063C25.505,15.063 25.169,15.255 24.808,15.785C24.448,16.314 24.808,16.53 24.808,16.53C24.808,16.53 24.362,17.52 22.692,18.07L23.24,16.175C23.865,16.071 24.4,16.386 24.4,16.386C24.4,16.386 23.992,15.185 24.496,13.382C25,11.577 26.875,10.231 26.875,10.231L24.778,10.851L25.312,9.005C25.312,9.005 25.576,8.428 25.312,8.26C25.139,8.151 25.05,8.385 25.007,8.564C24.823,8.512 24.502,8.465 24.158,8.621C23.628,8.861 22.403,8.514 22.403,8.514C22.403,8.514 22.884,9.053 23.245,9.149C22.86,9.342 22.115,9.269 22.115,9.269C22.115,9.269 23.028,9.798 23.641,9.606C24.048,9.478 24.498,9.468 24.757,9.475L24.308,10.99L22.402,11.554C22.402,11.554 21.537,12.251 21.248,14.294C20.96,16.337 21.994,17.852 21.994,17.852C21.994,17.852 21.885,16.865 22.712,16.376L22.169,18.215C21.939,18.268 21.696,18.316 21.428,18.351C21.422,18.336 20.432,16.115 20.599,14.245C20.768,12.37 22.402,10.455 22.402,10.455L20.263,11.232L21.015,8.62C21.015,8.62 21.488,8.308 21.08,8.115C20.673,7.923 20.752,8.538 20.752,8.538C20.562,8.502 20.293,8.49 20.007,8.62C19.478,8.86 18.252,8.513 18.252,8.513C18.252,8.513 18.733,9.052 19.094,9.148C18.709,9.341 17.964,9.268 17.964,9.268C17.964,9.268 18.878,9.798 19.49,9.605C19.885,9.482 20.241,9.463 20.445,9.465L19.806,11.398L17.86,12.105C17.86,12.105 17.523,12.585 16.826,13.98C16.129,15.374 17.115,17.369 17.115,17.369C17.115,17.369 17.405,16.928 18.021,16.802L17.648,17.932C16.104,17.223 15.769,16 15.769,16C15.769,16 16.034,15.952 16.034,15.664C16.034,15.386 15.915,15.244 15.115,15.233L15.308,14.541C15.658,14.747 15.914,15.063 15.914,15.063C15.914,15.063 15.577,13.813 16.275,12.563C16.972,11.313 18.606,10.232 18.678,10.232C18.717,10.232 17.484,10.582 16.328,10.908L16.811,9.188C16.811,9.188 17.164,8.669 16.779,8.549C16.395,8.429 16.457,9.092 16.457,9.092C16.276,9.069 16.045,9.077 15.801,9.188C15.272,9.428 14.046,9.081 14.046,9.081C14.046,9.081 14.527,9.62 14.888,9.716C14.503,9.908 13.758,9.836 13.758,9.836C13.758,9.836 14.671,10.365 15.284,10.173C15.638,10.062 15.968,10.037 16.185,10.035L15.897,11.029L14.375,11.458C14.375,11.458 14.062,11.938 13.702,13.092C13.341,14.246 13.966,15.184 13.966,15.184C13.966,15.184 14.158,14.367 14.759,14.367C14.816,14.367 14.872,14.378 14.928,14.389L14.682,15.244C14.106,15.285 14.015,15.443 14.015,15.688C14.015,15.977 14.327,16.001 14.327,16.001C14.327,16.001 14.255,16.505 14.447,17.131C14.639,17.755 14.207,17.635 13.485,17.275C13.438,17.252 13.391,17.239 13.344,17.222L13.348,17.218L11.538,16.408C11.538,16.408 11.154,15.855 10.962,16.24C10.769,16.625 11.394,16.713 11.394,16.713L12.431,17.236C12.228,17.342 12.128,17.511 12.235,17.682C12.475,18.067 13.005,17.682 14.086,18.74C14.451,19.096 15.248,19.952 16.412,20.693C16.621,20.826 26.623,20.389 26.552,20.209C26.378,19.766 25.999,18.97 25.48,18.765C26.634,17.731 26.706,16.529 26.706,16.529C26.706,16.529 27.018,16.529 27.283,16C27.415,15.735 27.403,15.501 27.249,15.332C27.617,14.618 28.521,12.867 28.749,12.467C29.038,11.962 28.75,11.722 28.269,12.707ZM20.192,18.428C19.427,18.428 18.795,18.325 18.266,18.165L18.66,16.801C18.738,16.814 18.81,16.818 18.895,16.842C20.117,17.177 21.422,18.344 21.429,18.351C21.056,18.399 20.647,18.428 20.192,18.428Z" fill="#fdbb11" />
  <path d="M28.991,20.375C28.39,19.943 27.837,20.087 27.717,20.506C27.597,20.925 27.044,20.736 26.443,20.303C25.842,19.87 25.434,19.942 25.313,20.423C25.192,20.904 24.52,20.855 23.895,20.399C23.27,19.942 22.645,20.279 22.404,20.622C22.164,20.965 21.972,21 21.199,20.519C20.427,20.038 19.88,20.327 19.664,20.735C19.448,21.144 19.135,21.048 18.486,20.605C17.837,20.162 17.236,20.327 16.924,20.605C16.612,20.882 16.178,20.975 15.602,20.605C15.025,20.234 14.568,20.255 14.279,20.552C13.991,20.85 13.655,21.288 12.741,20.58C11.827,19.872 11.347,20.471 10.89,20.784C10.432,21.096 10,20.303 10,20.303L10,20.784C10,20.784 10.432,21.577 10.889,21.265C11.346,20.952 11.827,20.352 12.74,21.061C13.653,21.769 13.99,21.331 14.278,21.033C14.567,20.735 15.024,20.715 15.601,21.085C16.178,21.456 16.61,21.363 16.923,21.085C17.235,20.808 17.837,20.642 18.485,21.085C19.135,21.528 19.447,21.625 19.663,21.216C19.879,20.808 20.426,20.519 21.198,21C21.971,21.481 22.163,21.446 22.403,21.103C22.643,20.76 23.268,20.423 23.894,20.88C24.518,21.337 25.192,21.385 25.312,20.904C25.432,20.423 25.842,20.351 26.442,20.784C27.043,21.217 27.596,21.406 27.716,20.987C27.836,20.568 28.389,20.424 28.99,20.856C29.591,21.288 30,21.096 30,21.096L30,20.615C30,20.615 29.592,20.808 28.991,20.375ZM11.658,22.13C12.066,21.668 12.692,21.722 13.173,22.13C13.654,22.538 13.87,22.229 14.327,21.963C14.784,21.697 15.432,21.681 15.577,22.062C15.722,22.442 14.976,21.924 14.519,22.328C14.062,22.731 13.322,22.851 12.788,22.328C12.255,21.805 11.298,22.538 11.658,22.13ZM17.019,22.222C17.458,22.372 18.053,22.418 18.582,22.082C19.11,21.745 19.495,21.902 20.072,22.365C20.649,22.827 21.082,22.672 21.611,22.365C22.14,22.058 22.572,21.673 23.318,22.009C24.063,22.346 24.424,22.38 24.712,22.267C25,22.153 24.712,22.658 23.99,22.538C23.268,22.418 22.764,21.961 22.115,22.393C21.465,22.825 20.624,23.23 19.952,22.655C19.278,22.081 18.918,22.16 18.509,22.409C18.101,22.658 17.644,22.682 17.403,22.562C17.163,22.442 16.665,22.102 17.019,22.222ZM26.274,22.222C26.552,22.391 26.851,22.435 27.139,22.222C27.428,22.01 27.716,22.182 28.077,22.385C28.438,22.587 28.509,22.814 28.077,22.676C27.645,22.538 27.476,22.232 27.139,22.422C26.802,22.611 26.442,22.665 26.274,22.422C26.105,22.178 26.065,22.096 26.274,22.222ZM13.894,23.356C14.289,23.147 14.928,22.852 15.384,23.356C15.841,23.861 16.057,23.596 16.418,23.356C16.778,23.116 17.091,22.827 17.644,23.188C18.197,23.548 18.461,23.449 18.678,23.33C18.894,23.212 19.086,23.284 18.678,23.524C18.269,23.764 17.861,23.74 17.548,23.5C17.235,23.26 16.971,23.139 16.562,23.548C16.154,23.956 15.625,24.078 15.24,23.693C14.855,23.308 14.735,23.276 14.351,23.472C13.966,23.668 13.498,23.565 13.894,23.356ZM21.25,23.472C21.734,23.217 22.38,22.779 22.908,23.284C23.438,23.788 23.75,23.552 24.182,23.262C24.615,22.972 25.024,22.552 25.648,23.051C26.273,23.548 26.682,23.501 26.995,23.356C27.307,23.212 27.163,23.488 26.778,23.578C26.394,23.668 25.865,23.668 25.505,23.356C25.144,23.044 24.808,23.06 24.423,23.472C24.038,23.885 23.077,24 22.716,23.63C22.355,23.26 21.899,23.476 21.562,23.62C21.225,23.764 20.767,23.728 21.25,23.472ZM11.154,23.854C11.441,23.589 11.827,23.692 12.308,24.173C12.788,24.654 13.005,24.558 13.438,24.318C13.871,24.078 14.447,24.029 14.688,24.294C14.928,24.558 14.832,24.642 14.543,24.516C14.255,24.39 13.978,24.318 13.587,24.655C13.197,24.992 12.499,25.063 12.163,24.655C11.826,24.246 11.634,24.005 11.37,24.102C11.105,24.197 10.769,24.208 11.154,23.854ZM17.812,24.322C18.092,24.022 18.654,23.775 19.206,24.322C19.759,24.87 19.855,24.798 20.288,24.509C20.72,24.221 21.225,23.89 21.754,24.38C22.283,24.87 22.499,24.774 22.955,24.509C23.412,24.245 23.821,24.011 24.325,24.38C24.83,24.749 25.215,24.845 25.648,24.582C26.08,24.317 26.175,24.435 25.768,24.774C25.431,25.053 24.821,25.158 24.398,24.75C23.868,24.238 23.532,24.389 23.099,24.702C22.667,25.015 21.993,25.087 21.608,24.678C21.224,24.27 20.959,24.39 20.599,24.678C20.238,24.967 19.618,25.262 19.181,24.655C18.743,24.048 18.315,24.318 18.099,24.438C17.885,24.558 17.404,24.761 17.812,24.322Z" fill="#aeddff" />
  <path d="M28.991,19.87C28.39,19.438 27.837,19.582 27.717,20.001C27.597,20.42 27.044,20.231 26.443,19.798C25.842,19.365 25.434,19.437 25.313,19.918C25.192,20.398 24.52,20.35 23.895,19.894C23.27,19.437 22.645,19.774 22.404,20.117C22.164,20.46 21.972,20.495 21.199,20.014C20.427,19.533 19.88,19.822 19.664,20.23C19.448,20.638 19.135,20.542 18.486,20.099C17.837,19.656 17.236,19.822 16.924,20.099C16.612,20.377 16.178,20.47 15.602,20.099C15.025,19.728 14.568,19.749 14.279,20.047C13.991,20.345 13.655,20.783 12.741,20.075C11.827,19.366 11.347,19.965 10.89,20.278C10.432,20.592 10,19.798 10,19.798L10,20.303C10,20.303 10.432,21.096 10.889,20.784C11.346,20.472 11.827,19.872 12.74,20.58C13.653,21.288 13.99,20.85 14.278,20.552C14.567,20.255 15.024,20.234 15.601,20.605C16.178,20.975 16.61,20.882 16.923,20.605C17.235,20.327 17.837,20.162 18.485,20.605C19.135,21.048 19.447,21.144 19.663,20.735C19.879,20.327 20.426,20.038 21.198,20.519C21.971,21 22.163,20.965 22.403,20.622C22.643,20.279 23.268,19.942 23.894,20.399C24.518,20.856 25.192,20.904 25.312,20.423C25.432,19.942 25.842,19.87 26.442,20.303C27.043,20.736 27.596,20.925 27.716,20.506C27.836,20.087 28.389,19.943 28.99,20.375C29.591,20.808 30,20.615 30,20.615L30,20.111C30,20.111 29.592,20.303 28.991,19.87Z" fill="#1c1c1c" />
  <path d="M4.803,20.859C4.926,20.859 5.025,20.962 5.025,21.088C5.025,21.214 4.926,21.316 4.803,21.316C4.68,21.316 4.581,21.214 4.581,21.088C4.581,20.962 4.68,20.859 4.803,20.859ZM4.803,20.661C4.803,20.717 4.726,20.763 4.632,20.763C4.537,20.763 4.46,20.718 4.46,20.661C4.46,20.605 4.537,20.559 4.632,20.559C4.727,20.559 4.803,20.605 4.803,20.661ZM5.025,20.559C5.12,20.559 5.197,20.604 5.197,20.661C5.197,20.717 5.12,20.763 5.025,20.763C4.931,20.763 4.854,20.717 4.854,20.661C4.854,20.604 4.931,20.559 5.025,20.559ZM5.025,23.792C5.025,23.919 4.926,24.021 4.803,24.021C4.68,24.021 4.581,23.919 4.581,23.792C4.581,23.666 4.68,23.564 4.803,23.564C4.926,23.564 5.025,23.666 5.025,23.792ZM4.803,23.365C4.803,23.422 4.726,23.468 4.632,23.468C4.537,23.468 4.46,23.422 4.46,23.365C4.46,23.309 4.537,23.263 4.632,23.263C4.727,23.263 4.803,23.309 4.803,23.365ZM5.197,23.365C5.197,23.422 5.12,23.468 5.025,23.468C4.931,23.468 4.854,23.422 4.854,23.365C4.854,23.309 4.931,23.263 5.025,23.263C5.12,23.263 5.197,23.309 5.197,23.365Z" fill="#1c1c1c" />
  <path d="M2,6.925L2,6L3.097,6L6,8.45L8.903,6L10,6L10,6.925L7.097,9.375L10,11.825L10,12.75L9.5,13L8.903,12.75L6,10.3L3.097,12.75L2.5,13L2,12.75L2,11.825L4.903,9.375L2,6.925Z" fill="#028f4d" />
  <path d="M5.293,12.75L5.293,10.082L2,10.082L2,8.668L5.293,8.668L5.293,6L6.707,6L6.707,8.668L10,8.668L10,10.082L6.707,10.082L6.707,12.75L10,12.75L10,19.25L2,19.25L2,12.75L5.293,12.75Z" fill="#f4f4f4" />
  <path d="M2.028,12.75L2.203,12.75C2.211,12.818 2.218,12.892 2.22,12.976L2.446,13.318C2.497,13.395 2.455,13.459 2.352,13.459L2.196,13.459C2.176,13.584 2.148,13.667 2.115,13.667C2.083,13.667 2.055,13.584 2.035,13.459L2,13.459L2,12.992L2.011,12.975C2.014,12.892 2.02,12.818 2.028,12.75ZM4.49,12.75L4.667,12.75C4.674,12.818 4.681,12.892 4.682,12.975L4.908,13.317C4.958,13.394 4.917,13.458 4.814,13.458L4.659,13.458C4.639,13.583 4.611,13.666 4.578,13.666C4.546,13.666 4.517,13.584 4.498,13.458L4.343,13.458C4.239,13.458 4.198,13.394 4.248,13.317L4.474,12.975C4.477,12.892 4.482,12.818 4.49,12.75ZM7.042,12.75L7.218,12.75C7.226,12.818 7.233,12.892 7.235,12.975L7.46,13.317C7.51,13.394 7.469,13.458 7.366,13.458L7.211,13.458C7.191,13.583 7.163,13.666 7.13,13.666C7.098,13.666 7.069,13.584 7.05,13.458L6.895,13.458C6.791,13.458 6.75,13.394 6.8,13.317L7.026,12.975C7.029,12.892 7.034,12.818 7.042,12.75ZM9.658,12.75L9.833,12.75C9.841,12.818 9.847,12.892 9.85,12.975L10,13.203L10,13.456C9.994,13.457 9.988,13.458 9.981,13.458L9.826,13.458C9.807,13.583 9.778,13.666 9.746,13.666C9.713,13.666 9.685,13.584 9.665,13.458L9.51,13.458C9.407,13.458 9.365,13.394 9.416,13.317L9.642,12.975C9.644,12.892 9.65,12.818 9.658,12.75ZM8.577,19.25L8.384,19.25C8.399,19.03 8.436,18.869 8.481,18.869C8.525,18.869 8.562,19.03 8.577,19.25ZM5.975,19.25L5.781,19.25C5.797,19.03 5.833,18.869 5.878,18.869C5.923,18.869 5.959,19.03 5.975,19.25ZM3.363,19.25L3.169,19.25C3.185,19.03 3.221,18.869 3.266,18.869C3.311,18.869 3.347,19.03 3.363,19.25ZM10,16.736C9.865,16.727 9.88,16.683 9.88,16.63C9.88,16.577 9.864,16.533 10,16.523L10,16.736ZM10,17.682L9.868,17.682C9.849,17.808 9.82,17.891 9.788,17.891C9.755,17.891 9.727,17.808 9.707,17.682L9.552,17.682C9.449,17.682 9.408,17.618 9.458,17.541L9.684,17.199C9.693,16.916 9.735,16.698 9.789,16.698C9.842,16.698 9.885,16.917 9.892,17.2L10,17.364L10,17.682ZM2,17.216L2.011,17.199C2.02,16.917 2.062,16.698 2.115,16.698C2.169,16.698 2.212,16.917 2.22,17.199L2.446,17.541C2.497,17.619 2.455,17.682 2.352,17.682L2.196,17.682C2.176,17.808 2.148,17.892 2.115,17.892C2.083,17.892 2.055,17.808 2.035,17.682L2,17.682L2,17.216ZM2,16.549C2.028,16.568 2.024,16.597 2.024,16.63C2.024,16.662 2.027,16.691 2,16.71L2,16.549ZM5.959,14.253C5.959,14.446 5.91,14.427 5.85,14.427C5.791,14.427 5.742,14.446 5.742,14.253C5.742,14.061 5.791,13.905 5.85,13.905C5.911,13.905 5.959,14.061 5.959,14.253ZM8.574,14.253C8.574,14.446 8.525,14.427 8.466,14.427C8.407,14.427 8.358,14.446 8.358,14.253C8.358,14.061 8.407,13.905 8.466,13.905C8.525,13.905 8.574,14.061 8.574,14.253ZM2.224,16.348C2.224,16.54 2.175,16.522 2.115,16.522C2.056,16.522 2.007,16.54 2.007,16.348C2.007,16.156 2.056,16 2.115,16C2.175,16 2.224,16.156 2.224,16.348ZM6.181,15.447C6.232,15.525 6.19,15.588 6.086,15.587L5.931,15.587C5.911,15.712 5.883,15.796 5.851,15.796C5.818,15.796 5.79,15.713 5.77,15.587L5.615,15.587C5.512,15.587 5.47,15.524 5.521,15.447L5.746,15.105C5.755,14.822 5.797,14.603 5.851,14.603C5.904,14.603 5.946,14.823 5.955,15.105L6.181,15.447ZM8.796,15.447C8.847,15.525 8.806,15.588 8.7,15.587L8.545,15.587C8.525,15.712 8.497,15.796 8.464,15.796C8.432,15.796 8.403,15.713 8.384,15.587L8.229,15.587C8.125,15.587 8.084,15.524 8.134,15.447L8.36,15.105C8.369,14.822 8.412,14.603 8.465,14.603C8.519,14.603 8.561,14.823 8.57,15.105L8.796,15.447ZM3.031,14.643C2.839,14.643 2.683,14.595 2.683,14.535C2.683,14.475 2.839,14.427 3.031,14.427C3.224,14.427 3.205,14.476 3.205,14.535C3.205,14.594 3.224,14.643 3.031,14.643ZM5.586,14.643C5.394,14.643 5.238,14.595 5.238,14.535C5.238,14.475 5.394,14.427 5.586,14.427C5.778,14.427 5.76,14.476 5.76,14.535C5.76,14.594 5.778,14.643 5.586,14.643ZM3.404,14.253C3.404,14.446 3.355,14.427 3.296,14.427C3.237,14.427 3.188,14.446 3.188,14.253C3.188,14.061 3.237,13.905 3.296,13.905C3.356,13.905 3.404,14.061 3.404,14.253ZM3.562,14.643C3.369,14.643 3.388,14.594 3.388,14.535C3.388,14.476 3.369,14.427 3.562,14.427C3.753,14.427 3.909,14.475 3.909,14.535C3.909,14.595 3.753,14.643 3.562,14.643ZM3.627,15.447C3.677,15.525 3.636,15.588 3.531,15.587L3.376,15.587C3.356,15.712 3.328,15.796 3.295,15.796C3.263,15.796 3.234,15.713 3.215,15.587L3.06,15.587C2.956,15.587 2.915,15.524 2.965,15.447L3.191,15.105C3.2,14.822 3.242,14.603 3.296,14.603C3.35,14.603 3.392,14.823 3.401,15.105L3.627,15.447ZM6.116,14.643C5.924,14.643 5.942,14.594 5.942,14.535C5.942,14.476 5.924,14.427 6.116,14.427C6.308,14.427 6.464,14.475 6.464,14.535C6.464,14.595 6.308,14.643 6.116,14.643ZM8.201,14.643C8.009,14.643 7.853,14.595 7.853,14.535C7.853,14.475 8.009,14.427 8.201,14.427C8.394,14.427 8.375,14.476 8.375,14.535C8.375,14.594 8.394,14.643 8.201,14.643ZM2.38,16.738C2.188,16.738 2.206,16.689 2.206,16.63C2.206,16.57 2.188,16.522 2.38,16.522C2.572,16.522 2.728,16.57 2.728,16.63C2.729,16.69 2.573,16.738 2.38,16.738ZM8.731,14.643C8.538,14.643 8.557,14.594 8.557,14.535C8.557,14.476 8.538,14.427 8.731,14.427C8.923,14.427 9.079,14.475 9.079,14.535C9.079,14.595 8.923,14.643 8.731,14.643ZM8.745,18.909C8.553,18.909 8.572,18.86 8.572,18.801C8.572,18.741 8.553,18.693 8.745,18.693C8.937,18.693 9.093,18.741 9.093,18.801C9.094,18.861 8.938,18.909 8.745,18.909ZM3.374,18.519C3.374,18.712 3.325,18.693 3.266,18.693C3.207,18.693 3.158,18.712 3.158,18.519C3.158,18.327 3.207,18.171 3.266,18.171C3.325,18.171 3.374,18.326 3.374,18.519ZM3.001,18.909C2.809,18.909 2.653,18.861 2.653,18.801C2.653,18.741 2.809,18.693 3.001,18.693C3.194,18.693 3.175,18.741 3.175,18.801C3.175,18.86 3.194,18.909 3.001,18.909ZM3.531,18.909C3.338,18.909 3.357,18.86 3.357,18.801C3.357,18.741 3.338,18.693 3.531,18.693C3.723,18.693 3.879,18.741 3.879,18.801C3.879,18.861 3.723,18.909 3.531,18.909ZM9.896,16.348C9.896,16.54 9.847,16.522 9.788,16.522C9.729,16.522 9.681,16.541 9.681,16.348C9.681,16.156 9.729,16 9.789,16C9.849,16 9.896,16.156 9.896,16.348ZM4.856,16.738C4.663,16.738 4.682,16.689 4.682,16.63C4.682,16.57 4.663,16.522 4.856,16.522C5.048,16.522 5.204,16.57 5.204,16.63C5.204,16.69 5.049,16.738 4.856,16.738ZM4.326,16.738C4.135,16.738 3.979,16.69 3.979,16.63C3.979,16.57 4.135,16.522 4.326,16.522C4.519,16.522 4.5,16.57 4.5,16.63C4.5,16.689 4.519,16.738 4.326,16.738ZM7.486,17.542C7.536,17.618 7.495,17.682 7.39,17.683L7.235,17.683C7.215,17.809 7.187,17.892 7.155,17.892C7.122,17.892 7.094,17.809 7.074,17.683L6.919,17.683C6.816,17.683 6.774,17.619 6.825,17.542L7.051,17.2C7.06,16.917 7.102,16.699 7.155,16.699C7.209,16.699 7.252,16.917 7.26,17.2L7.486,17.542ZM8.216,18.909C8.024,18.909 7.868,18.861 7.868,18.801C7.868,18.741 8.024,18.693 8.216,18.693C8.408,18.693 8.39,18.741 8.39,18.801C8.39,18.86 8.408,18.909 8.216,18.909ZM6.143,18.909C5.95,18.909 5.969,18.86 5.969,18.801C5.969,18.741 5.95,18.693 6.143,18.693C6.335,18.693 6.491,18.741 6.491,18.801C6.491,18.861 6.336,18.909 6.143,18.909ZM8.589,18.519C8.589,18.712 8.54,18.693 8.481,18.693C8.421,18.693 8.372,18.712 8.372,18.519C8.372,18.327 8.421,18.171 8.481,18.171C8.54,18.171 8.589,18.326 8.589,18.519ZM6.89,16.738C6.699,16.738 6.543,16.69 6.543,16.63C6.543,16.57 6.699,16.522 6.89,16.522C7.083,16.522 7.064,16.57 7.064,16.63C7.064,16.689 7.083,16.738 6.89,16.738ZM4.699,16.348C4.699,16.54 4.65,16.522 4.591,16.522C4.532,16.522 4.483,16.54 4.483,16.348C4.483,16.156 4.532,16 4.591,16C4.65,16 4.699,16.156 4.699,16.348ZM4.921,17.542C4.972,17.618 4.931,17.682 4.827,17.683L4.672,17.683C4.652,17.809 4.624,17.892 4.591,17.892C4.559,17.892 4.53,17.809 4.511,17.683L4.356,17.683C4.252,17.683 4.211,17.619 4.261,17.542L4.486,17.2C4.494,16.917 4.537,16.699 4.59,16.699C4.644,16.699 4.687,16.917 4.695,17.2L4.921,17.542ZM9.523,16.738C9.331,16.738 9.175,16.69 9.175,16.63C9.175,16.57 9.331,16.522 9.523,16.522C9.716,16.522 9.697,16.57 9.697,16.63C9.697,16.689 9.716,16.738 9.523,16.738ZM7.421,16.738C7.228,16.738 7.247,16.689 7.247,16.63C7.247,16.57 7.228,16.522 7.421,16.522C7.613,16.522 7.769,16.57 7.769,16.63C7.769,16.69 7.613,16.738 7.421,16.738ZM5.986,18.519C5.986,18.712 5.937,18.693 5.878,18.693C5.819,18.693 5.77,18.712 5.77,18.519C5.77,18.327 5.819,18.171 5.878,18.171C5.937,18.171 5.986,18.326 5.986,18.519ZM5.613,18.909C5.422,18.909 5.265,18.861 5.265,18.801C5.265,18.741 5.422,18.693 5.613,18.693C5.806,18.693 5.787,18.741 5.787,18.801C5.787,18.86 5.806,18.909 5.613,18.909ZM7.263,16.348C7.263,16.54 7.215,16.522 7.155,16.522C7.096,16.522 7.047,16.54 7.047,16.348C7.048,16.156 7.096,16 7.155,16C7.215,16 7.263,16.156 7.263,16.348Z" fill="#1c1c1c" />
</svg>
