<svg width="32" height="32" viewBox="0 0 32 32" xmlns="http://www.w3.org/2000/svg">
  <path d="M8,6L24,17L14,17L24,26L8,26L8,6Z" fill="#0b338d" />
  <path d="M8.75,7.426L8.75,25.25L22.046,25.25L12.046,16.25L21.585,16.25L8.75,7.426Z" fill="#e71a43" />
  <path d="M13.189,20.682L13.64,20.054L12.87,20.129L12.947,19.36L12.319,19.811L12,19.106L11.682,19.811L11.053,19.36L11.13,20.129L10.36,20.054L10.811,20.682L10.107,21L10.811,21.318L10.36,21.946L11.13,21.871L11.053,22.64L11.682,22.189L12,22.894L12.319,22.189L12.947,22.64L12.87,21.871L13.64,21.946L13.189,21.318L13.893,21L13.189,20.682ZM11.984,15.263L11.985,15.265L11.986,15.263L12,15.265C13.129,15.265 14.046,14.396 14.141,13.29C13.873,13.789 13.44,14.183 12.914,14.4L12.78,14.212L13.25,14L12.78,13.787L13.08,13.368L12.567,13.419L12.618,12.905L12.198,13.206L11.986,12.735L11.773,13.206L11.353,12.905L11.405,13.419L10.891,13.368L11.192,13.787L10.722,14L11.192,14.212L11.063,14.391C10.548,14.173 10.123,13.782 9.859,13.29C9.952,14.39 10.861,15.255 11.984,15.263Z" fill="#f4f4f4" />
</svg>
