<svg width="32" height="32" viewBox="0 0 32 32" xmlns="http://www.w3.org/2000/svg">
  <polygon fill="#072975" points="16,6 30,6 30,26 2,26 2,16" />
  <polygon fill="#072975" points="4.1,6 7.25,6 9,7 10.75,6 13.9,6 16,7.5 16,9.25 15,11 16,12.75 16,14.5 13.9,16 10.75,16 9,15 7.25,16 4.1,16 2,14.5 2,12.75 3,11 2,9.25 2,7.5" />
  <polygon fill="#F4F4F4" points="16,6 15.3,6.25 14.6,6 13.9,6 10.75,8.25 10.75,6 10,6 9,6.5 8,6 7.25,6 7.25,8.25 4.1,6 2,6 2.25,6.5 2,7 2,7.5 4.45,9.25 2,9.25 2,10 2.5,11 2,12 2,12.75 4.45,12.75 2,14.5 2,16 2.7,15.75 3.4,16 4.1,16 7.25,13.75 7.25,16 8,16 9,15.5 10,16 10.75,16 10.75,13.75 13.9,16 16,16 15.75,15.5 16,15 16,14.5 13.55,12.75 16,12.75 16,12 15.5,11 16,10 16,9.25 13.55,9.25 16,7.5" />
  <path fill="#CF0828" d="M7.25,12.75h-0.7L2,16h1.4l3.85-2.75V12.75z M11.45,12.75L16,16v-1l-3.15-2.25H11.45z M10.75,9.25h0.7L16,6h-1.4l-3.85,2.75V9.25z M5.15,9.25L2,7V6l4.55,3.25H5.15z M16,12h-6v4H8v-4H2v-2h6V6h2v4h6V12z" />
  <path d="M22.86,20.241C19.321,18.858 19.455,15.648 19.599,12.249L19.608,12.057L19.766,11.948C20.058,11.748 21.463,11.36 23,11.36C24.538,11.36 25.942,11.748 26.234,11.948L26.392,12.058L26.401,12.249C26.545,15.648 26.68,18.858 23.14,20.241L23,20.295L22.86,20.241Z" fill="#f4f4f4" />
  <path d="M26.015,12.266C25.805,12.122 24.491,11.745 22.999,11.745C21.508,11.745 20.194,12.122 19.983,12.266C19.838,15.712 19.768,18.621 22.999,19.882C26.232,18.62 26.162,15.712 26.015,12.266Z" fill="#F3C07B" />
  <path d="M19.935,14.462C19.972,16.916 20.484,18.9 22.999,19.882C25.515,18.9 26.028,16.917 26.063,14.462L19.935,14.462Z" fill="#00a6ed" />
  <path d="M22.999,19.882C24.325,19.365 25.092,18.566 25.528,17.57L20.471,17.57C20.908,18.566 21.674,19.365 22.999,19.882Z" fill="#1c5cd7" />
  <path d="M22.971,18.148C22.895,18.148 22.835,18.209 22.835,18.285C22.835,18.36 22.895,18.421 22.971,18.421L25.026,18.421C25.093,18.332 25.157,18.242 25.215,18.149L22.971,18.149L22.971,18.148ZM22.723,18.845C22.723,18.921 22.784,18.982 22.859,18.982L24.508,18.982C24.606,18.894 24.698,18.803 24.784,18.71L22.858,18.71C22.784,18.71 22.723,18.771 22.723,18.845ZM22.37,19.407C22.37,19.482 22.431,19.543 22.506,19.543L23.711,19.543C23.864,19.457 24.008,19.367 24.143,19.271L22.506,19.271C22.431,19.271 22.37,19.332 22.37,19.407Z" fill="#72ccb4" />
  <path d="M20.623,15.912C20.752,15.567 21.039,15.078 21.152,15.063C21.265,15.047 22.495,17.458 22.399,17.571C22.303,17.684 20.928,17.755 20.655,17.708C20.382,17.66 20.623,15.912 20.623,15.912Z" fill="#7d4533" />
  <path d="M22.066,17.971C21.97,17.666 20.448,14.829 20.352,14.829C20.284,14.829 20.106,15.091 19.972,15.325C20.058,16.493 20.311,17.528 20.92,18.362C21.433,18.318 22.134,18.187 22.066,17.971Z" fill="#ed9200" />
  <path d="M22.575,14.67L22.675,14.67L22.675,17.587L22.575,17.587L22.575,14.67ZM23.6,14.589L23.701,14.589L23.701,17.587L23.6,17.587L23.6,14.589ZM24.545,14.67L24.646,14.67L24.646,17.587L24.545,17.587L24.545,14.67Z" fill="#ffe890" />
  <path d="M21.2,16.845C21.352,16.887 21.999,17.245 22.399,17.365C22.88,17.51 23.588,17.491 23.781,17.491C23.973,17.491 24.341,16.93 24.502,16.93L25.464,16.93C25.608,16.93 25.559,17.892 25.192,17.892L22.595,17.892C22.355,17.892 21.538,17.138 21.378,17.058C21.218,16.978 21.065,16.807 21.2,16.845Z" fill="#212121" />
  <path d="M22.999,14.982C22.999,15.066 22.931,15.135 22.847,15.135L22.315,15.135C22.231,15.135 22.162,15.066 22.162,14.982C22.162,14.898 22.231,14.83 22.315,14.83L22.847,14.83C22.931,14.83 22.999,14.898 22.999,14.982ZM24.018,14.83C24.018,14.914 23.95,14.982 23.866,14.982L23.334,14.982C23.25,14.982 23.182,14.914 23.182,14.83C23.182,14.746 23.25,14.678 23.334,14.678L23.866,14.678C23.95,14.677 24.018,14.745 24.018,14.83ZM25.065,15.135C25.065,15.218 24.997,15.287 24.913,15.287L24.381,15.287C24.297,15.287 24.228,15.218 24.228,15.135C24.228,15.051 24.297,14.982 24.381,14.982L24.913,14.982C24.997,14.982 25.065,15.051 25.065,15.135ZM25.065,15.976C25.065,16.06 24.997,16.128 24.913,16.128L24.381,16.128C24.297,16.128 24.228,16.06 24.228,15.976C24.228,15.892 24.297,15.824 24.381,15.824L24.913,15.824C24.997,15.824 25.065,15.892 25.065,15.976ZM25.065,16.534C25.065,16.618 24.997,16.686 24.913,16.686L24.381,16.686C24.297,16.686 24.228,16.618 24.228,16.534C24.228,16.45 24.297,16.382 24.381,16.382L24.913,16.382C24.997,16.382 25.065,16.45 25.065,16.534ZM24.018,15.391C24.018,15.475 23.95,15.543 23.866,15.543L23.334,15.543C23.25,15.543 23.182,15.475 23.182,15.391C23.182,15.307 23.25,15.238 23.334,15.238L23.866,15.238C23.95,15.238 24.018,15.307 24.018,15.391ZM24.018,15.976C24.018,16.06 23.95,16.128 23.866,16.128L23.334,16.128C23.25,16.128 23.182,16.06 23.182,15.976C23.182,15.892 23.25,15.824 23.334,15.824L23.866,15.824C23.95,15.824 24.018,15.892 24.018,15.976ZM24.018,16.534C24.018,16.618 23.95,16.686 23.866,16.686L23.334,16.686C23.25,16.686 23.182,16.618 23.182,16.534C23.182,16.45 23.25,16.382 23.334,16.382L23.866,16.382C23.95,16.382 24.018,16.45 24.018,16.534ZM22.999,15.543C22.999,15.627 22.931,15.695 22.847,15.695L22.315,15.695C22.231,15.695 22.162,15.627 22.162,15.543C22.162,15.459 22.231,15.391 22.315,15.391L22.847,15.391C22.931,15.391 22.999,15.459 22.999,15.543ZM22.999,16.128C22.999,16.212 22.931,16.281 22.847,16.281L22.315,16.281C22.231,16.281 22.162,16.212 22.162,16.128C22.162,16.045 22.231,15.976 22.315,15.976L22.847,15.976C22.931,15.976 22.999,16.045 22.999,16.128ZM22.999,16.687C22.999,16.771 22.931,16.839 22.847,16.839L22.315,16.839C22.231,16.839 22.162,16.771 22.162,16.687C22.162,16.603 22.231,16.535 22.315,16.535L22.847,16.535C22.931,16.534 22.999,16.602 22.999,16.687Z" fill="#f4f4f4" />
  <path d="M21.627,12.339C21.645,12.212 21.97,12.315 22.098,12.202C22.225,12.09 22.572,11.819 22.855,12.17C23.012,12.366 22.972,12.501 23.148,12.662C23.325,12.822 24.261,13.228 24.565,13.132C24.549,13.324 24.277,13.42 24.277,13.42C24.277,13.42 24.535,13.612 24.567,13.836C24.599,14.061 24.181,13.488 23.588,13.645C23.351,13.708 23.087,13.955 22.606,13.836C22.125,13.718 22.112,12.995 22.1,12.692C22.096,12.582 21.615,12.424 21.627,12.339Z" fill="#b76a1e" />
  <path d="M21.868,12.274C21.891,12.171 22.148,12.277 22.26,12.194C22.371,12.112 22.673,11.915 22.879,12.219C22.993,12.389 22.952,12.496 23.085,12.639C23.217,12.782 23.952,13.175 24.206,13.118C24.181,13.273 23.952,13.333 23.952,13.333C23.952,13.333 24.148,13.507 24.159,13.692C24.171,13.876 23.869,13.382 23.376,13.469C23.179,13.505 22.947,13.688 22.565,13.558C22.181,13.429 22.219,12.84 22.229,12.592C22.232,12.503 21.852,12.341 21.868,12.274Z" fill="#f4f4f4" />
  <path d="M22.787,14.2C22.787,14.232 22.762,14.257 22.73,14.257C22.698,14.257 22.672,14.232 22.672,14.2L22.672,13.838C22.672,13.807 22.698,13.782 22.73,13.782C22.762,13.782 22.787,13.807 22.787,13.838L22.787,14.2ZM23.213,14.2C23.213,14.232 23.188,14.257 23.156,14.257C23.125,14.257 23.098,14.232 23.098,14.2L23.098,13.838C23.098,13.807 23.125,13.782 23.156,13.782C23.188,13.782 23.213,13.807 23.213,13.838L23.213,14.2ZM22.706,12.358C22.706,12.418 22.658,12.467 22.598,12.467C22.538,12.467 22.489,12.419 22.489,12.358C22.489,12.298 22.537,12.25 22.598,12.25C22.657,12.25 22.706,12.298 22.706,12.358Z" fill="#1c1c1c" />
</svg>
