<svg width="32" height="32" viewBox="0 0 32 32" xmlns="http://www.w3.org/2000/svg">
  <rect fill="#F8312F" x="2" y="6" width="28" height="20" />
  <path fill="#FDBB11" d="M16.364,11.374C16.375,10.57 17.087,10.017 17.117,8.946C17.627,9.588 16.784,10.79 17.083,11.488C17.22,10.696 18.008,10.261 18.207,9.208C18.611,9.922 17.589,10.978 17.775,11.713C18.034,10.952 18.882,10.646 19.242,9.637C19.528,10.405 18.355,11.288 18.425,12.043C18.798,11.332 19.684,11.163 20.198,10.222C20.362,11.026 19.063,11.714 19.014,12.472C19.495,11.828 20.396,11.798 21.05,10.95C21.086,11.77 19.696,12.245 19.529,12.986C20.105,12.425 20.998,12.538 21.777,11.802C21.685,12.617 20.238,12.87 19.956,13.575C20.613,13.112 21.479,13.362 22.363,12.758C22.145,13.548 20.676,13.572 20.288,14.225C21.008,13.869 21.824,14.252 22.793,13.793C22.454,14.539 20.998,14.333 20.512,14.917C21.28,14.678 22.027,15.185 23.055,14.883C22.601,15.568 21.198,15.135 20.627,15.636C21.422,15.521 22.08,16.137 23.142,16C22.588,16.605 21.268,15.959 20.627,16.364C21.431,16.375 21.984,17.088 23.053,17.116C22.412,17.628 21.21,16.782 20.512,17.083C21.305,17.22 21.74,18.008 22.793,18.207C22.079,18.611 21.023,17.589 20.287,17.775C21.048,18.034 21.355,18.882 22.363,19.242C21.595,19.53 20.714,18.355 19.956,18.425C20.668,18.798 20.838,19.684 21.777,20.198C20.973,20.362 20.286,19.063 19.528,19.014C20.172,19.495 20.201,20.396 21.05,21.05C20.231,21.086 19.753,19.696 19.014,19.529C19.575,20.105 19.462,20.998 20.198,21.777C19.382,21.685 19.129,20.238 18.425,19.956C18.888,20.613 18.636,21.479 19.242,22.363C18.45,22.145 18.427,20.676 17.775,20.288C18.132,21.008 17.747,21.824 18.207,22.793C17.46,22.454 17.666,20.998 17.083,20.512C17.321,21.28 16.815,22.027 17.117,23.055C16.432,22.601 16.865,21.198 16.364,20.627C16.479,21.422 15.863,22.08 16,23.142C15.395,22.588 16.041,21.268 15.636,20.627C15.625,21.431 14.913,21.984 14.883,23.053C14.372,22.413 15.216,21.21 14.916,20.512C14.78,21.305 13.991,21.74 13.793,22.793C13.389,22.079 14.411,21.023 14.224,20.288C13.965,21.048 13.118,21.355 12.758,22.363C12.47,21.595 13.645,20.714 13.575,19.956C13.201,20.668 12.315,20.838 11.802,21.777C11.638,20.973 12.937,20.286 12.986,19.529C12.505,20.172 11.605,20.201 10.951,21.05C10.914,20.231 12.305,19.753 12.472,19.014C11.896,19.575 11.002,19.462 10.223,20.198C10.315,19.382 11.763,19.129 12.044,18.425C11.388,18.888 10.522,18.636 9.638,19.242C9.856,18.45 11.325,18.427 11.713,17.775C10.992,18.132 10.177,17.748 9.208,18.207C9.548,17.46 11.003,17.666 11.488,17.083C10.721,17.321 9.975,16.815 8.947,17.116C9.399,16.433 10.804,16.864 11.374,16.364C10.578,16.479 9.922,15.862 8.859,16C9.413,15.395 10.732,16.041 11.374,15.636C10.571,15.625 10.018,14.913 8.947,14.883C9.588,14.372 10.791,15.216 11.488,14.916C10.696,14.78 10.262,13.991 9.209,13.793C9.923,13.388 10.978,14.411 11.714,14.224C10.952,13.965 10.647,13.118 9.638,12.758C10.406,12.47 11.288,13.645 12.044,13.575C11.332,13.201 11.164,12.315 10.223,11.802C11.027,11.638 11.715,12.937 12.472,12.986C11.828,12.505 11.799,11.605 10.951,10.951C11.77,10.915 12.246,12.305 12.987,12.472C12.426,11.896 12.538,11.002 11.802,10.223C12.617,10.315 12.871,11.763 13.576,12.044C13.112,11.388 13.363,10.522 12.758,9.638C13.549,9.856 13.573,11.325 14.225,11.713C13.87,10.992 14.253,10.177 13.794,9.209C14.54,9.548 14.334,11.003 14.918,11.488C14.679,10.721 15.186,9.975 14.884,8.947C15.568,9.399 15.136,10.804 15.637,11.374C15.521,10.578 16.138,9.922 16.001,8.859C16.605,9.412 15.959,10.732 16.364,11.374ZM16.001,19.774C18.085,19.774 19.774,18.084 19.774,16C19.774,13.915 18.085,12.227 16.001,12.227C13.917,12.227 12.228,13.916 12.228,16C12.228,18.084 13.917,19.774 16.001,19.774ZM16.251,14.364C16.897,14.031 17.662,13.814 18.569,13.733C18.612,13.786 18.655,13.842 18.694,13.898C17.821,13.96 17.087,14.17 16.473,14.495C16.401,14.45 16.327,14.406 16.251,14.364ZM13.198,14.067C14.039,14.108 14.746,14.308 15.331,14.627C15.271,14.668 15.211,14.711 15.152,14.755C14.592,14.446 13.911,14.258 13.098,14.24C13.13,14.181 13.163,14.123 13.198,14.067ZM13.098,17.342C12.815,16.855 12.71,16.395 12.71,15.792C12.71,15.299 12.816,14.835 13.008,14.417C13.795,14.412 14.452,14.583 14.989,14.882C14.195,15.533 13.549,16.296 13.098,17.342ZM14.659,18.795C14.512,18.738 14.351,18.577 14.214,18.5C14.292,17.264 14.87,16.247 15.676,15.392C15.736,15.45 15.794,15.508 15.849,15.571C15.1,16.447 14.618,17.584 14.659,18.795ZM16,12.501C16.963,12.501 17.828,12.913 18.431,13.572C17.485,13.668 16.684,13.891 16,14.23C15.316,13.891 14.514,13.668 13.57,13.572C14.172,12.913 15.038,12.501 16,12.501ZM15.752,14.364C15.675,14.406 15.602,14.45 15.528,14.495C14.915,14.17 14.181,13.96 13.308,13.898C13.348,13.842 13.389,13.786 13.433,13.733C14.34,13.814 15.105,14.031 15.752,14.364ZM15.585,14.778C15.628,14.802 15.75,14.889 15.807,14.932C15.76,14.965 15.677,15.039 15.635,15.075C15.6,15.048 15.492,14.966 15.411,14.913C15.443,14.885 15.528,14.82 15.585,14.778ZM15.48,15.216C14.644,16.025 13.946,16.962 13.731,18.188C13.578,18.066 13.581,17.958 13.452,17.811C13.8,16.645 14.42,15.785 15.255,15.045C15.331,15.098 15.41,15.158 15.48,15.216ZM16.001,14.503C16.042,14.528 16.185,14.617 16.221,14.641C16.165,14.675 16.036,14.762 16.001,14.786C15.966,14.762 15.837,14.675 15.781,14.641C15.817,14.617 15.959,14.527 16.001,14.503ZM18.904,17.343C18.454,16.297 17.808,15.533 17.012,14.882C17.548,14.583 18.207,14.412 18.992,14.417C19.185,14.835 19.292,15.299 19.292,15.792C19.292,16.395 19.186,16.856 18.904,17.343ZM18.805,14.067C18.839,14.123 18.872,14.181 18.904,14.24C18.091,14.258 17.409,14.446 16.85,14.755C16.792,14.711 16.732,14.668 16.671,14.627C17.256,14.308 17.962,14.108 18.805,14.067ZM16.001,15.852C16.591,16.802 16.704,17.84 16.672,19.013C16.415,19.076 16.277,19.082 16.001,19.082C15.725,19.082 15.586,19.076 15.33,19.013C15.298,17.9 15.411,16.838 16.001,15.852ZM17.338,18.795C17.379,17.584 16.903,16.447 16.152,15.572C16.208,15.509 16.265,15.451 16.325,15.392C17.131,16.247 17.71,17.312 17.788,18.548C17.651,18.625 17.485,18.738 17.338,18.795ZM16.522,15.216C16.592,15.158 16.672,15.098 16.748,15.045C17.582,15.785 18.2,16.661 18.548,17.827C18.419,17.974 18.401,18.067 18.247,18.188C18.032,16.962 17.358,16.025 16.522,15.216ZM16.417,14.778C16.473,14.82 16.558,14.885 16.591,14.913C16.51,14.966 16.402,15.048 16.367,15.075C16.325,15.039 16.242,14.965 16.195,14.932C16.252,14.889 16.374,14.802 16.417,14.778ZM16.001,15.085C16.037,15.115 16.144,15.21 16.172,15.238C16.122,15.283 16.043,15.358 16.001,15.405C15.959,15.358 15.881,15.283 15.83,15.238C15.858,15.21 15.965,15.116 16.001,15.085Z" />
</svg>
