<svg width="32" height="32" viewBox="0 0 32 32" xmlns="http://www.w3.org/2000/svg">
  <path d="M30,6L30,9.5L29,10.5L3,10.5L2,9.5L2,6L30,6Z" fill="#1c1c1c" />
  <path d="M30,16L30,19.25L29,20.25L3,20.25L2,19.25L2,16L3,15L29,15L30,16Z" fill="#1c1c1c" />
  <path d="M30,9.5L30,12.75L29,13.75L3,13.75L2,12.75L2,9.5L30,9.5Z" fill="#fcd53f" />
  <path d="M30,19.25L30,22.5L29,23.5L3,23.5L2,22.5L2,19.25L30,19.25Z" fill="#fcd53f" />
  <rect x="2" y="12.75" width="28" height="3.25" fill="#cf0828" />
  <rect x="2" y="22.5" width="28" height="3.5" fill="#cf0828" />
  <circle cx="16" cy="16" r="3.25" fill="#f4f4f4" />
  <path d="M15.467,13.588L15.25,13.017C15.25,13.017 15.721,12.852 16.178,13.017C16.527,13.142 16.559,13.588 16.559,13.588L16.014,13.753L15.467,13.588Z" fill="#cf0828" />
  <path d="M15.67,13.499L15.67,12.943C15.67,12.943 15.76,12.908 16.014,12.943C16.267,12.978 16.382,13.156 16.382,13.156L16.026,13.589L15.67,13.499Z" fill="#fcd53f" />
  <path d="M15.793,15.103C15.725,14.984 15.793,14.291 15.987,14.24C16.181,14.19 16.554,13.58 15.987,13.377C15.42,13.174 15.301,13.766 15.301,13.766C15.301,13.766 14.741,13.931 14.811,14.071C14.878,14.207 15.352,14.021 15.454,14.139C15.556,14.256 15.404,14.426 14.997,14.901C14.591,15.375 14.862,16.018 15.048,16.184C15.234,16.349 15.454,16.475 15.623,16.627C15.792,16.779 15.987,16.865 15.987,16.865L15.987,17.355C15.987,17.355 15.42,17.406 15.149,17.372C14.879,17.339 14.693,17.525 14.624,17.744C14.556,17.964 14.726,18.083 14.726,17.914C14.726,17.745 14.793,17.846 14.809,17.982C14.824,18.117 14.945,18.066 14.945,17.897C14.945,17.728 15.013,17.796 15.03,17.88C15.047,17.965 15.166,17.846 15.183,17.744C15.2,17.643 15.352,17.592 15.487,17.558C15.623,17.525 15.986,17.592 15.986,17.592L15.986,18.489C15.986,18.489 15.233,18.539 15.166,18.641C15.098,18.744 15.622,18.726 15.622,18.726C15.622,18.726 15.469,19.014 15.538,19.031C15.606,19.048 16.08,18.743 16.266,18.709C16.452,18.675 16.739,18.793 16.774,18.709C16.808,18.624 16.317,18.506 16.266,18.421C16.215,18.337 16.113,17.558 16.113,17.558C16.113,17.558 16.333,17.54 16.605,17.558C16.875,17.575 16.808,17.337 16.639,17.101C16.47,16.864 16.622,16.796 16.909,16.847C17.197,16.899 17.417,16.847 17.417,16.39C17.417,15.933 15.86,15.222 15.793,15.103ZM16.385,17.303L16.199,17.303L16.267,16.964C16.267,16.965 16.504,17.303 16.385,17.303Z" fill="#1c1c1c" />
  <path d="M15.797,15.226C15.89,15.192 16.939,15.67 17.219,15.797C17.498,15.924 17.465,16.406 17.418,16.698C17.371,16.99 17.206,17.079 17.206,17.079C17.206,17.079 17.023,16.608 16.444,16.381C15.666,16.076 15.441,15.352 15.797,15.226Z" fill="#9b9b9b" />
  <path d="M15.67,13.836C15.67,13.881 15.634,13.918 15.587,13.918C15.542,13.918 15.504,13.882 15.504,13.836C15.504,13.79 15.541,13.753 15.587,13.753C15.633,13.753 15.67,13.79 15.67,13.836Z" fill="#9b9b9b" />
  <path d="M15.573,14.222C15.596,14.02 15.268,14.036 15.251,14.222C15.234,14.408 15.539,14.511 15.573,14.222Z" fill="#cf0828" />
  <path d="M16.977,15.784C17.319,15.873 18.043,16.037 18.108,16.774C18.171,17.51 17.418,17.943 17.418,17.943L17.544,17.714L17.32,17.791L17.418,17.625L17.066,17.701C17.066,17.701 17.655,17.232 17.45,16.813C17.465,17.162 17.231,17.257 17.231,17.257C17.231,17.257 17.432,16.773 16.558,16.241L16.787,16.183L16.559,16L17.042,16.183L16.813,15.898L17.269,16.076L16.977,15.784Z" fill="#cf0828" />
</svg>
