<svg width="32" height="32" viewBox="0 0 32 32" xmlns="http://www.w3.org/2000/svg">
  <polygon fill="#00A6ED" points="16,6 30,6 30,26 2,26 2,16" />
  <polygon fill="#062365" points="4.1,6 7.25,6 9,7 10.75,6 13.9,6 16,7.5 16,9.25 15,11 16,12.75 16,14.5 13.9,16 10.75,16 9,15 7.25,16 4.1,16 2,14.5 2,12.75 3,11 2,9.25 2,7.5" />
  <polygon fill="#F4F4F4" points="16,6 15.3,6.25 14.6,6 13.9,6 10.75,8.25 10.75,6 10,6 9,6.5 8,6 7.25,6 7.25,8.25 4.1,6 2,6 2.25,6.5 2,7 2,7.5 4.45,9.25 2,9.25 2,10 2.5,11 2,12 2,12.75 4.45,12.75 2,14.5 2,16 2.7,15.75 3.4,16 4.1,16 7.25,13.75 7.25,16 8,16 9,15.5 10,16 10.75,16 10.75,13.75 13.9,16 16,16 15.75,15.5 16,15 16,14.5 13.55,12.75 16,12.75 16,12 15.5,11 16,10 16,9.25 13.55,9.25 16,7.5" />
  <path fill="#CF0828" d="M7.25,12.75h-0.7L2,16h1.4l3.85-2.75V12.75z M11.45,12.75L16,16v-1l-3.15-2.25H11.45z M10.75,9.25h0.7L16,6h-1.4l-3.85,2.75V9.25z M5.15,9.25L2,7V6l4.55,3.25H5.15z M16,12h-6v4H8v-4H2v-2h6V6h2v4h6V12z" />
  <path d="M11.833,22.248L12.863,25.418L10.167,23.458L13.5,23.458L10.803,25.418L11.833,22.248ZM16,20.586L14.97,17.416L17.667,19.375L14.333,19.375L17.03,17.416L16,20.586ZM16,24.752L14.97,21.582L17.667,23.542L14.333,23.542L17.03,21.582L16,24.752ZM20.167,14.919L19.137,11.749L21.833,13.708L18.5,13.708L21.197,11.749L20.167,14.919ZM20.167,23.586L19.137,20.416L21.833,22.375L18.5,22.375L21.197,20.416L20.167,23.586ZM23.667,13.586L22.637,10.416L25.333,12.375L22,12.375L24.697,10.416L23.667,13.586ZM23.667,17.081L24.697,20.251L22,18.292L25.333,18.292L22.637,20.251L23.667,17.081ZM27.167,6.914L28.197,10.084L25.5,8.125L28.833,8.125L26.137,10.084L27.167,6.914ZM27.167,14.914L28.197,18.084L25.5,16.125L28.833,16.125L26.137,18.084L27.167,14.914Z" fill="#FCD53F" />
</svg>
