<svg width="32" height="32" viewBox="0 0 32 32" xmlns="http://www.w3.org/2000/svg">
  <path d="M30,6L30,14.2L29,16L30,17.8L30,26L26,25L24.6,26L17.8,26L16,25L14.2,26L7.4,26L6,25L2,26L2,17.8L3,16L2,14.2L2,6L6,7L7.4,6L14.2,6L16,7L17.8,6L24.6,6L26,7L30,6Z" fill="#cf0828" />
  <path d="M13.152,13.966L2,6L7.4,6L13.718,13.347C13.506,13.53 13.316,13.738 13.152,13.966ZM15.38,12.555L14.2,6L17.8,6L16.62,12.555C16.419,12.519 16.212,12.5 16,12.5C15.788,12.5 15.581,12.519 15.38,12.555ZM18.282,13.347L24.6,6L30,6L18.848,13.966C18.684,13.738 18.494,13.53 18.282,13.347ZM19.472,15.554L30,14.2L30,17.8L19.472,16.446C19.49,16.3 19.5,16.151 19.5,16C19.5,15.849 19.49,15.7 19.472,15.554ZM18.848,18.034L30,26L24.6,26L18.282,18.653C18.494,18.47 18.684,18.262 18.848,18.034ZM16.62,19.445L17.8,26L14.2,26L15.38,19.445C15.581,19.481 15.788,19.5 16,19.5C16.212,19.5 16.419,19.481 16.62,19.445ZM13.718,18.653L7.4,26L2,26L13.152,18.034C13.316,18.262 13.506,18.47 13.718,18.653ZM12.528,16.446L2,17.8L2,14.2L12.528,15.554C12.51,15.7 12.5,15.849 12.5,16C12.5,16.151 12.51,16.3 12.528,16.446Z" fill="#FCD53F" />
  <circle cx="16" cy="16" r="2.8" fill="#FCD53F" />
</svg>
