<svg width="32" height="32" viewBox="0 0 32 32" xmlns="http://www.w3.org/2000/svg">
  <polygon fill="#072975" points="2,6 30,6 30,16 29,17 3,17 2,16" />
  <rect fill="#cf0828" width="28" height="10" x="2" y="16" />
  <path d="M11.833,10.935C11.833,10.362 11.383,9.908 10.735,9.908C10.049,9.908 9.294,10.139 8.717,10.268L8.28,10.268C7.703,10.14 6.95,9.908 6.263,9.908C5.614,9.908 5.164,10.362 5.164,10.935C5.164,11.618 5.417,12.123 5.723,12.717L11.274,12.717C11.581,12.123 11.833,11.618 11.833,10.935Z" fill="#b28914"/>
  <path d="M8.226,10.16L8.208,10.412C7.727,10.339 7.044,10.07 6.407,10.07C5.82,10.07 5.363,10.305 5.363,10.898C5.363,11.483 5.611,12.015 5.94,12.555L5.598,12.717C5.293,12.123 5.04,11.618 5.04,10.935C5.04,10.362 5.49,9.8 6.264,9.8C6.95,9.8 7.65,10.032 8.226,10.16ZM8.773,10.16L8.79,10.412C9.272,10.339 9.954,10.07 10.591,10.07C11.18,10.07 11.635,10.305 11.635,10.898C11.635,11.483 11.387,12.015 11.058,12.555L11.4,12.717C11.706,12.123 11.958,11.618 11.958,10.935C11.958,10.362 11.509,9.8 10.734,9.8C10.049,9.8 9.349,10.032 8.773,10.16ZM8.499,7.558L8.297,7.937L8.499,8.314L8.701,7.937L8.499,7.558ZM8.499,8.514L8.297,8.891L8.499,9.269L8.701,8.891L8.499,8.514ZM7.78,8.414L8.098,8.615L8.415,8.414L8.098,8.212L7.78,8.414ZM8.583,8.414L8.9,8.615L9.219,8.414L8.9,8.212L8.583,8.414Z" fill="#ffd83d"/>
  <path d="M8.499,8.265C8.583,8.265 8.652,8.333 8.652,8.418C8.652,8.502 8.583,8.571 8.499,8.571C8.415,8.571 8.346,8.503 8.346,8.418C8.346,8.334 8.415,8.265 8.499,8.265ZM8.499,8.985C8.725,8.985 8.909,9.168 8.909,9.395C8.909,9.621 8.726,9.804 8.499,9.804C8.273,9.804 8.09,9.621 8.09,9.395C8.09,9.169 8.273,8.985 8.499,8.985ZM8.499,11.538C7.993,11.538 7.621,11.778 7.599,12.385C7.475,12.167 6.952,11.482 6.463,11.574C6.174,11.628 5.917,12.031 5.961,12.492C5.72,11.802 5.017,11.688 4.503,12.096C4.959,12.472 5.162,13.578 5.546,14.059L11.453,14.059C11.837,13.578 12.041,12.472 12.497,12.096C11.983,11.688 11.28,11.802 11.04,12.492C11.082,12.031 10.825,11.628 10.534,11.574C10.047,11.482 9.524,12.167 9.4,12.385C9.377,11.777 9.005,11.538 8.499,11.538Z" fill="#ffd83d"/>
  <path fill="#1c1c1c" d="M11.22,13.887C10.765,13.761 9.72,13.698 8.499,13.697C7.686,13.697 6.949,13.725 6.414,13.782C6.147,13.809 5.93,13.845 5.778,13.887C5.629,13.932 5.533,13.972 5.525,14.059C5.532,14.145 5.627,14.194 5.776,14.251C6.23,14.413 7.277,14.548 8.498,14.548C9.312,14.548 10.05,14.488 10.584,14.4C10.852,14.356 11.069,14.305 11.22,14.251C11.37,14.195 11.464,14.145 11.471,14.059C11.465,13.972 11.369,13.931 11.22,13.887Z" />
  <path d="M8.14,10.141C8.14,10.141 8.59,10.205 8.857,10.141C8.857,10.141 8.96,11.062 9.05,11.403C9.05,11.403 8.733,11.313 8.51,11.313C8.287,11.313 7.947,11.403 7.947,11.403C7.947,11.403 8.01,10.988 8.059,10.712C8.107,10.436 8.14,10.141 8.14,10.141ZM4.753,11.398C4.608,10.78 4.601,10.148 5.382,9.611C6.163,9.073 7.465,9.527 7.825,9.616C8.185,9.705 8.193,10.098 7.751,9.988C7.31,9.878 6.072,9.534 5.475,10.067C4.878,10.6 4.993,10.993 5.085,11.308C5.35,12.217 4.867,11.881 4.753,11.398ZM12.245,11.434C12.39,10.815 12.397,10.184 11.617,9.646C10.836,9.108 9.533,9.562 9.173,9.652C8.813,9.742 8.806,10.135 9.247,10.025C9.689,9.915 10.927,9.57 11.523,10.103C12.12,10.636 12.001,11.028 11.913,11.345C11.713,12.072 12.131,11.916 12.245,11.434Z" fill="#ffd83d"/>
</svg>
