<svg width="32" height="32" viewBox="0 0 32 32" xmlns="http://www.w3.org/2000/svg">
  <polygon fill="#CF0828" points="2,12.75 3,11.75 29,11.75 30,12.75 30,19.25 29,20.25 3,20.25 2,19.25" />
  <rect fill="#1c1c1c" x="2" y="6" width="28" height="6.75" />
  <rect fill="#44911B" x="2" y="19.25" width="28" height="6.75" />
  <path d="M20.38,11.906C19.504,10.394 17.873,9.375 16,9.375C14.127,9.375 12.496,10.394 11.62,11.906L20.38,11.906ZM15.745,6.844L16.254,6.844L16,8.669L15.745,6.844ZM14.468,6.996L14.969,6.91L15.026,8.751L14.468,6.996ZM13.233,7.361L13.713,7.191L14.08,8.997L13.233,7.361ZM12.079,7.929L12.524,7.682L13.19,9.399L12.079,7.929ZM11.037,8.684L11.434,8.365L12.38,9.945L11.037,8.684ZM10.137,9.604L10.475,9.222L11.674,10.621L10.137,9.604ZM9.406,10.663L9.674,10.23L11.092,11.405L9.406,10.663ZM10.008,11.906L9.054,11.358L8.864,11.829L9.171,11.906L10.008,11.906ZM22.963,11.906L23.147,11.861L22.961,11.391L22.055,11.906L22.963,11.906ZM22.347,10.26L22.61,10.692L20.922,11.428L22.347,10.26ZM21.551,9.249L21.883,9.63L20.343,10.641L21.551,9.249ZM20.596,8.386L20.987,8.707L19.641,9.961L20.596,8.386ZM19.509,7.698L19.949,7.947L18.832,9.411L19.509,7.698ZM18.321,7.201L18.797,7.374L17.944,9.005L18.321,7.201ZM17.066,6.914L17.564,7.003L16.999,8.756L17.066,6.914Z" fill="#CF0828" />
</svg>
