<svg width="32" height="32" viewBox="0 0 32 32" xmlns="http://www.w3.org/2000/svg">
  <polygon fill="#1c1c1c" points="2,11 3,10 29,10 30,11 30,21 29,22 3,22 2,21" />
  <rect fill="#CF0828" x="2" y="6" width="28" height="5" />
  <rect fill="#008E48" x="2" y="21" width="28" height="5" />
  <path d="M17.766,17.769C17.314,18.22 16.689,18.5 16,18.5C14.62,18.5 13.5,17.38 13.5,16C13.5,14.62 14.62,13.5 16,13.5C16.689,13.5 17.314,13.78 17.766,14.231C17.411,13.977 16.975,13.828 16.506,13.828C15.307,13.828 14.333,14.801 14.333,16C14.333,17.199 15.307,18.172 16.506,18.172C16.975,18.172 17.411,18.023 17.766,17.769ZM17.216,16L20.578,14.907L18.5,17.768L18.5,14.232L20.578,17.093L17.216,16Z" fill="#f4f4f4"/>
</svg>
