<svg width="32" height="32" viewBox="0 0 32 32" xmlns="http://www.w3.org/2000/svg">
  <path d="M6.5,6L11,6L12,7L14.5,7L15.5,6L16,6L17,7L29,7L29,25L28.5,25.5L17.5,25.5L17,25L3,25L3,17L2,16L2,15.5L3,14.5L5.5,14.5L5.5,7L6.5,6Z" fill="#f4f4f4" />
  <rect x="2" y="6" width="4.5" height="9.5" fill="#0c338c" />
  <rect x="11" y="6" width="4.5" height="9.5" fill="#f8312f" />
  <path d="M16,16L16,6L30,6L30,26L2,26L2,16L16,16ZM20.5,17.793L22.293,16L20.5,14.207L20.5,17.793ZM25.5,14.207L23.707,16L25.5,17.793L25.5,14.207ZM24.793,18.5L23,16.707L21.207,18.5L24.793,18.5ZM21.207,13.5L23,15.293L24.793,13.5L21.207,13.5Z" fill="#f8312f" />
</svg>
