<svg width="32" height="32" viewBox="0 0 32 32" xmlns="http://www.w3.org/2000/svg">
  <polygon fill="#062365" points="16,6 30,6 30,26 2,26 2,16" />
  <polygon fill="#062365" points="4.1,6 7.25,6 9,7 10.75,6 13.9,6 16,7.5 16,9.25 15,11 16,12.75 16,14.5 13.9,16 10.75,16 9,15 7.25,16 4.1,16 2,14.5 2,12.75 3,11 2,9.25 2,7.5" />
  <polygon fill="#F4F4F4" points="16,6 15.3,6.25 14.6,6 13.9,6 10.75,8.25 10.75,6 10,6 9,6.5 8,6 7.25,6 7.25,8.25 4.1,6 2,6 2.25,6.5 2,7 2,7.5 4.45,9.25 2,9.25 2,10 2.5,11 2,12 2,12.75 4.45,12.75 2,14.5 2,16 2.7,15.75 3.4,16 4.1,16 7.25,13.75 7.25,16 8,16 9,15.5 10,16 10.75,16 10.75,13.75 13.9,16 16,16 15.75,15.5 16,15 16,14.5 13.55,12.75 16,12.75 16,12 15.5,11 16,10 16,9.25 13.55,9.25 16,7.5" />
  <path fill="#CF0828" d="M7.25,12.75h-0.7L2,16h1.4l3.85-2.75V12.75z M11.45,12.75L16,16v-1l-3.15-2.25H11.45z M10.75,9.25h0.7L16,6h-1.4l-3.85,2.75V9.25z M5.15,9.25L2,7V6l4.55,3.25H5.15z M16,12h-6v4H8v-4H2v-2h6V6h2v4h6V12z" />
  <path d="M20.29,16.593C20.29,16.917 21.265,17.298 22.048,16.342C22.833,15.387 22.605,16.687 22.283,16.888C21.962,17.09 21.618,17.576 20.924,17.502C20.231,17.426 20.054,17.152 19.894,16.752C19.734,16.352 20.29,16.593 20.29,16.593Z" fill="#44911b" />
  <path d="M24.69,17.656C24.69,18.033 24.258,18.339 23.726,18.339C23.195,18.339 22.763,18.034 22.763,17.656C22.763,17.278 23.195,16.972 23.726,16.972C24.258,16.973 24.69,17.278 24.69,17.656Z" fill="#CF0828" />
  <path d="M20.43,14.555C20.51,14.752 20.416,14.976 20.219,15.057L19.507,15.348C19.31,15.428 19.085,15.334 19.005,15.138C18.925,14.941 19.019,14.717 19.216,14.636L19.928,14.345C20.125,14.264 20.349,14.358 20.43,14.555ZM26.562,16.722C26.447,16.9 26.24,16.971 26.101,16.881L25.093,16.227C24.954,16.137 24.935,15.92 25.05,15.742C25.165,15.563 25.372,15.492 25.512,15.582L26.52,16.235C26.658,16.326 26.678,16.543 26.562,16.722Z" fill="#fcd53f" />
  <path d="M26.693,16.485C26.75,16.689 26.631,16.902 26.426,16.958C26.221,17.015 26.009,16.896 25.952,16.692L25.539,15.209C25.482,15.005 25.602,14.792 25.806,14.735C26.012,14.678 26.223,14.798 26.28,15.002L26.693,16.485Z" fill="#fcd53f" />
  <path d="M27.009,16.655C27.009,16.868 26.837,17.04 26.625,17.04C26.412,17.04 26.24,16.868 26.24,16.655C26.24,16.443 26.412,16.271 26.625,16.271C26.837,16.271 27.009,16.443 27.009,16.655Z" fill="#fcd53f" />
  <path d="M20.487,16.481C20.487,16.64 20.315,16.769 20.102,16.769C19.89,16.769 19.718,16.641 19.718,16.481L19.718,14.75C19.718,14.59 19.89,14.462 20.102,14.462C20.315,14.462 20.487,14.59 20.487,14.75L20.487,16.481Z" fill="#44911b" />
  <path d="M21.04,15.682C21.168,15.852 21.168,16.066 21.042,16.161L20.131,16.845C20.005,16.939 19.799,16.878 19.672,16.708C19.544,16.537 19.543,16.323 19.669,16.228L20.581,15.545C20.706,15.451 20.912,15.512 21.04,15.682Z" fill="#44911b" />
  <path d="M20.129,16.473C20.129,16.682 19.945,16.852 19.718,16.852C19.49,16.852 19.305,16.682 19.305,16.473C19.305,16.264 19.49,16.094 19.718,16.094C19.945,16.094 20.129,16.264 20.129,16.473ZM27.292,15.232C27.208,15.43 26.786,15.44 26.349,15.254C25.914,15.068 25.628,14.757 25.714,14.558C25.798,14.36 26.219,14.35 26.656,14.536C27.092,14.722 27.376,15.033 27.292,15.232Z" fill="#44911b" />
  <path d="M22.645,15.427C22.198,15.716 21.601,16.255 21.601,16.255L21.934,16.297C21.934,16.297 22.341,16.723 22.412,17.127C22.482,17.53 22.321,17.257 22.287,17.569C22.253,17.882 22.428,18.092 22.428,18.092C22.428,18.092 22.912,17.929 23.228,17.686C23.545,17.443 23.758,17.078 23.938,17.265C24.119,17.452 24.098,17.538 24.098,17.538L24.333,17.538C24.333,17.538 23.944,17.158 23.95,16.941C23.956,16.723 23.609,15.642 23.609,15.642L22.645,15.427ZM22.121,14.457C22.121,14.457 22.486,14.179 22.448,14.214C22.409,14.248 22.861,14.406 23.135,14.294C23.409,14.182 23.945,13.641 24.076,13.721C24.208,13.8 23.412,14.266 23.745,14.34C24.077,14.414 24.182,14.134 24.387,14.032C24.592,13.931 24.914,13.918 24.603,14.124C24.293,14.329 23.865,15.218 23.865,15.218L22.612,15.119L22.283,14.878L22.121,14.457Z" fill="#bebebe" />
  <path d="M24.26,15.387C24.26,15.564 23.797,15.708 23.226,15.708C22.656,15.708 22.193,15.564 22.193,15.387C22.193,15.21 22.655,15.066 23.226,15.066C23.798,15.065 24.26,15.209 24.26,15.387ZM20.845,19.189C20.792,19.358 20.407,19.385 19.984,19.252C19.562,19.118 19.262,18.874 19.315,18.705C19.369,18.536 19.755,18.508 20.178,18.642C20.599,18.776 20.898,19.022 20.845,19.189ZM26.695,20.438C26.672,20.568 26.291,20.611 25.843,20.532C25.395,20.454 25.051,20.284 25.074,20.154C25.096,20.024 25.478,19.982 25.925,20.061C26.373,20.138 26.718,20.308 26.695,20.438Z" fill="#44911b" />
  <path d="M25.935,20.501C25.814,21.083 25.609,21.532 25.479,21.505C25.349,21.478 25.342,20.985 25.463,20.403C25.584,19.822 25.788,19.372 25.918,19.399C26.048,19.426 26.055,19.92 25.935,20.501ZM24.002,15.49C24.212,16.04 24.808,17.128 25.377,17.135C25.945,17.143 26.021,16.897 26.021,16.897C26.021,16.897 26.042,17.329 25.525,17.409C25.008,17.489 24.714,17.234 24.808,17.322C24.903,17.41 25.112,17.61 25.594,17.736C26.075,17.862 26.898,18.011 26.874,18.472C26.849,18.932 26.528,19.111 26.56,18.908C26.592,18.705 26.23,18.335 25.594,18.192C24.958,18.049 24.238,17.702 23.923,16.672C23.608,15.64 23.865,16.577 23.865,16.577C23.865,16.577 23.242,16.767 23.245,16.456C23.249,16.145 23.728,16.308 23.63,15.913C23.532,15.518 23.298,15.248 23.53,15.332C23.763,15.416 24.002,15.49 24.002,15.49ZM22.434,16.898C22.122,17.378 21.215,18.053 20.922,18.37C20.63,18.687 20.418,19.286 20.356,19.684C20.294,20.082 20.413,20.694 20.635,20.006C20.856,19.318 21.248,19.052 21.645,18.608C22.042,18.164 22.311,17.87 22.456,17.574C22.602,17.278 22.434,16.898 22.434,16.898Z" fill="#44911b" />
  <path d="M24.298,17.222C24.396,17.545 24.386,17.832 24.276,17.865C24.166,17.898 23.998,17.665 23.902,17.342C23.804,17.02 23.815,16.732 23.925,16.698C24.034,16.665 24.202,16.9 24.298,17.222ZM21.576,17.218C21.576,17.315 21.339,17.394 21.047,17.394C20.755,17.394 20.518,17.315 20.518,17.218C20.518,17.12 20.755,17.042 21.047,17.042C21.339,17.042 21.576,17.12 21.576,17.218ZM20.729,20.406C20.844,21 20.827,21.502 20.692,21.528C20.558,21.553 20.357,21.094 20.244,20.499C20.129,19.905 20.146,19.402 20.281,19.377C20.415,19.351 20.616,19.812 20.729,20.406Z" fill="#fcd53f" />
  <path d="M21.118,20.296C21.118,20.416 20.778,20.512 20.36,20.512C19.941,20.512 19.601,20.416 19.601,20.296C19.601,20.177 19.941,20.08 20.36,20.08C20.778,20.08 21.118,20.177 21.118,20.296ZM21.292,21.983C21.436,22.277 21.476,22.555 21.377,22.604C21.279,22.652 21.082,22.453 20.935,22.159C20.791,21.865 20.752,21.586 20.85,21.538C20.948,21.489 21.145,21.689 21.292,21.983ZM25.469,22.171C25.256,22.475 24.969,22.643 24.828,22.545C24.685,22.445 24.745,22.118 24.958,21.813C25.171,21.508 25.458,21.34 25.6,21.439C25.741,21.538 25.682,21.865 25.469,22.171ZM27.222,18.634C27.318,18.79 27.028,19.142 26.573,19.419C26.119,19.697 25.674,19.795 25.578,19.638C25.482,19.482 25.772,19.13 26.226,18.852C26.681,18.575 27.126,18.477 27.222,18.634ZM19.443,18.472C19.659,17.963 20.33,17.691 20.774,17.574C21.217,17.457 21.316,17.324 21.675,17.042C22.033,16.759 21.947,16.568 22.122,16.696C22.296,16.824 22.442,16.883 22.274,17.122C22.105,17.36 21.518,17.865 21.136,18.012C20.755,18.158 20.006,18.474 19.958,18.559C19.91,18.645 19.371,18.642 19.443,18.472Z" fill="#fcd53f" />
  <path d="M21.164,17.686L24.837,17.686L24.837,20.48C24.837,21.67 23,22.906 23,22.906C23,22.906 21.163,21.693 21.163,20.422L21.164,17.686Z" fill="#007acf" />
  <path d="M24.605,21.245L23.022,18.108L21.315,21.054C21.745,22.066 22.999,22.906 22.999,22.906C22.999,22.906 24.118,22.146 24.605,21.245Z" fill="#44911b" />
  <path d="M21.252,20.923L21.375,21.215L23,18.275L24.613,21.26L24.746,20.962L23.033,17.686L21.252,20.923Z" fill="#fcd53f" />
  <path d="M24.75,17.982C25.006,18.404 25.475,18.278 25.676,18.991C25.878,19.704 25.771,20.476 25.56,19.865C25.349,19.255 25.288,18.912 24.69,18.754C24.093,18.596 24.75,17.982 24.75,17.982Z" fill="#fcd53f" />
  <path d="M20.922,21.672L20.773,22.562L21.576,22.154L20.922,21.672Z" fill="#fcd53f" />
  <path d="M25.18,21.813L24.423,22.165L25.253,22.663L25.18,21.813Z" fill="#fcd53f" />
  <path d="M23.757,20.472C23.757,20.551 23.692,20.615 23.614,20.615L22.494,20.615C22.415,20.615 22.35,20.551 22.35,20.472C22.35,20.392 22.415,20.328 22.494,20.328L23.614,20.328C23.692,20.328 23.757,20.393 23.757,20.472Z" fill="#fcd53f" />
  <path d="M23.124,21.952C23.124,22.063 23.095,22.154 23.059,22.154L22.941,22.154C22.905,22.154 22.876,22.064 22.876,21.952L22.876,20.047C22.876,19.936 22.905,19.845 22.941,19.845L23.059,19.845C23.095,19.845 23.124,19.935 23.124,20.047L23.124,21.952Z" fill="#fcd53f" />
  <path d="M22.063,21.254L22.512,21.723L22.434,21.819L22.941,22.154L23.634,21.82L23.486,21.727L23.988,21.348L23.916,21.988L23.732,21.935L23.007,22.548L22.245,21.901L22.099,21.916L22.063,21.254Z" fill="#fcd53f" />
</svg>
