<svg width="32" height="32" viewBox="0 0 32 32" xmlns="http://www.w3.org/2000/svg">
  <rect fill="#CF0828" x="2" y="6" width="28" height="20" />
  <path d="M16,11C18.76,11 21,13.24 21,16C21,18.76 18.76,21 16,21C13.24,21 11,18.76 11,16C11,13.24 13.24,11 16,11ZM14,16C14,14.343 15.343,13 17,13C17.784,13 18.497,13.301 19.032,13.793C18.349,12.858 17.246,12.25 16,12.25C13.929,12.25 12.25,13.929 12.25,16C12.25,18.071 13.929,19.75 16,19.75C17.246,19.75 18.35,19.142 19.032,18.207C18.497,18.699 17.784,19 17,19C15.343,19 14,17.657 14,16ZM17.265,15.182L16.305,13.86L16.305,15.495L14.75,16L16.305,16.505L16.305,18.14L17.265,16.818L18.82,17.322L17.859,16L18.82,14.678L17.265,15.182Z" fill="#f4f4f4" />
</svg>
