<?xml version="1.0" encoding="UTF-8"?>
<svg xmlns="http://www.w3.org/2000/svg" xmlns:xlink="http://www.w3.org/1999/xlink" width="32px" height="32px" viewBox="0 0 32 32" version="1.1">
  <path fill="#00a6ed" d="M 6 6 L 26 6 L 26 26 L 6 26 Z M 6 6 "/>
  <path fill="#f4f4f4" d="M 19.03125 21.558594 C 18.1875 22.042969 17.171875 22.316406 16 22.316406 C 12.503906 22.316406 10.074219 19.542969 10.074219 15.980469 C 10.074219 12.394531 12.488281 9.640625 16 9.640625 C 19.464844 9.640625 21.925781 12.480469 21.925781 15.980469 C 21.925781 17.496094 21.53125 18.871094 20.773438 19.957031 L 21.753906 20.800781 C 22.082031 21.09375 22.359375 21.371094 22.359375 21.851562 C 22.359375 22.457031 21.753906 22.9375 21.167969 22.9375 C 20.789062 22.9375 20.480469 22.785156 20.015625 22.386719 Z M 18.828125 18.183594 C 19.117188 17.527344 19.238281 16.773438 19.238281 15.980469 C 19.238281 13.929688 18.15625 12.015625 16 12.015625 C 13.847656 12.015625 12.761719 13.894531 12.761719 15.980469 C 12.761719 18.078125 13.8125 19.941406 16 19.941406 C 16.398438 19.941406 16.757812 19.890625 17.101562 19.820312 L 16.484375 19.21875 C 16.292969 19.042969 16.15625 18.769531 16.15625 18.527344 C 16.15625 17.855469 16.621094 17.289062 17.328125 17.289062 C 17.570312 17.289062 17.773438 17.375 17.980469 17.511719 Z M 18.828125 18.183594 "/>
</svg>
