<svg width="32" height="32" viewBox="0 0 32 32" xmlns="http://www.w3.org/2000/svg">
  <path d="M2,21.5L2,19.25L3,18L2,17L2,6L30,6L30,8.2L29,9.5L30,10.4L30,12.6L29,14L30,14.8L30,17L29,18L30,19.25L30,21.5L29,22.5L30,23.75L30,26L2,26L2,23.75L3,22.5L2,21.5Z" fill="#f4f4f4" />
  <path d="M30,8.2L30,10.4L13,10.4L13,8.2L30,8.2ZM30,12.6L30,14.8L13,14.8L13,12.6L30,12.6ZM30,17L30,19.25L2,19.25L2,17L30,17ZM30,21.5L30,23.75L2,23.75L2,21.5L30,21.5Z" fill="#1345b7" />
  <path d="M11.429,11.5C11.429,9.33 9.67,7.571 7.5,7.571C5.33,7.571 3.571,9.331 3.571,11.5C3.571,13.669 5.331,15.429 7.5,15.429C9.67,15.429 11.429,13.669 11.429,11.5Z" fill="#ffdea7" />
  <path d="M10.643,11.5C10.643,9.764 9.236,8.357 7.5,8.357C5.764,8.357 4.357,9.764 4.357,11.5C4.357,13.235 5.764,14.643 7.5,14.643C9.236,14.643 10.643,13.235 10.643,11.5Z" fill="#ffce7c" />
  <path d="M7.5,6.469L7.997,9.644L10.016,7.143L8.859,10.142L11.857,8.984L9.356,11.003L12.531,11.5L9.356,11.997L11.857,14.016L8.859,12.858L10.016,15.857L7.997,13.356L7.5,16.531L7.003,13.356L4.984,15.857L6.142,12.859L3.143,14.016L5.644,11.997L2.469,11.5L5.644,11.003L3.143,8.984L6.142,10.142L4.984,7.143L7.003,9.644L7.5,6.469Z" fill="#ffb02e" />
  <path d="M9.857,11.5C9.857,10.198 8.802,9.143 7.5,9.143C6.198,9.143 5.143,10.198 5.143,11.5C5.143,12.801 6.198,13.857 7.5,13.857C8.802,13.857 9.857,12.801 9.857,11.5Z" fill="#b35f47" />
  <path d="M5.798,11.503C5.798,10.568 6.556,9.811 7.49,9.811C8.424,9.811 9.181,10.568 9.181,11.503C9.181,12.437 8.424,13.194 7.49,13.194C6.556,13.194 5.798,12.437 5.798,11.503Z" fill="#ff9f2e" />

</svg>
