<svg width="32" height="32" viewBox="0 0 32 32" xmlns="http://www.w3.org/2000/svg">
  <polygon fill="#f4f4f4" points="2,12.75 3,11.75 29,11.75 30,12.75 30,19.25 29,20.25 3,20.25 2,19.25" />
  <rect fill="#1345B7" x="2" y="6" width="28" height="6.75" />
  <rect fill="#1345B7" x="2" y="19.25" width="28" height="6.75" />
  <path d="M15.7,18.225C15.866,17.71 15.289,17.614 15.289,17.614C15.289,17.614 15.331,17.91 14.983,17.92C15.1,18.152 14.994,18.342 14.846,18.352C15.089,18.573 15.595,18.552 15.7,18.225ZM14.843,17.913C15.162,17.523 14.694,17.243 14.694,17.243C14.694,17.243 14.63,17.513 14.325,17.405C14.347,17.644 14.19,17.774 14.059,17.733C14.194,18.008 14.641,18.161 14.843,17.913ZM14.239,17.376C14.62,17.172 14.342,16.798 14.342,16.798C14.342,16.798 14.202,16.99 13.997,16.805C13.935,17.001 13.77,17.052 13.679,16.977C13.696,17.239 13.997,17.505 14.239,17.376ZM14.005,16.695C14.406,16.614 14.256,16.198 14.256,16.198C14.256,16.198 14.077,16.335 13.941,16.111C13.831,16.273 13.667,16.274 13.605,16.182C13.55,16.423 13.751,16.747 14.005,16.695ZM13.911,16.111C14.279,16.109 14.218,15.716 14.218,15.716C14.218,15.716 14.036,15.806 13.955,15.584C13.83,15.708 13.685,15.68 13.647,15.588C13.556,15.791 13.677,16.113 13.911,16.111ZM13.998,15.555C14.285,15.653 14.33,15.287 14.33,15.287C14.33,15.287 14.167,15.317 14.157,15.098C14.03,15.174 13.924,15.11 13.916,15.017C13.797,15.173 13.815,15.492 13.998,15.555ZM14.219,15.093C14.362,15.177 14.522,14.899 14.522,14.899C14.522,14.899 14.398,14.855 14.43,14.65C14.319,14.7 14.244,14.67 14.254,14.583C14.134,14.709 14.084,15.015 14.219,15.093ZM16.322,18.225C16.156,17.71 16.733,17.614 16.733,17.614C16.733,17.614 16.691,17.91 17.039,17.92C16.923,18.152 17.028,18.342 17.176,18.352C16.934,18.573 16.427,18.552 16.322,18.225ZM17.179,17.913C16.859,17.523 17.328,17.243 17.328,17.243C17.328,17.243 17.393,17.513 17.697,17.405C17.675,17.644 17.831,17.774 17.964,17.733C17.827,18.008 17.382,18.161 17.179,17.913ZM17.783,17.376C17.403,17.172 17.681,16.798 17.681,16.798C17.681,16.798 17.821,16.99 18.026,16.805C18.088,17.001 18.253,17.052 18.344,16.977C18.327,17.239 18.025,17.505 17.783,17.376ZM18.017,16.695C17.616,16.614 17.767,16.198 17.767,16.198C17.767,16.198 17.946,16.335 18.082,16.111C18.192,16.273 18.355,16.274 18.417,16.182C18.472,16.423 18.271,16.747 18.017,16.695ZM18.111,16.111C17.743,16.109 17.804,15.716 17.804,15.716C17.804,15.716 17.986,15.806 18.067,15.584C18.191,15.708 18.336,15.68 18.375,15.588C18.466,15.791 18.344,16.113 18.111,16.111ZM18.024,15.555C17.737,15.653 17.692,15.287 17.692,15.287C17.692,15.287 17.855,15.317 17.866,15.098C17.993,15.174 18.098,15.11 18.106,15.017C18.225,15.173 18.207,15.492 18.024,15.555ZM17.804,15.093C17.66,15.177 17.5,14.899 17.5,14.899C17.5,14.899 17.625,14.855 17.593,14.65C17.703,14.7 17.779,14.67 17.768,14.583C17.888,14.709 17.938,15.015 17.804,15.093Z" fill="#44911b" />
  <circle cx="16" cy="18.228" r="0.27" fill="#1345b7" />
  <path d="M16,16.96C15.846,17.435 14.74,17.403 14.439,16.918C14.138,16.433 14.222,15.431 14.222,15.431L14.7,15.702C14.602,15.137 14.688,14.502 14.688,14.502L15.943,15.847C15.943,15.847 15.884,16.095 15.753,16.299L15.943,16.406C15.943,16.406 15.971,16.417 15.999,16.454C16.028,16.417 16.056,16.406 16.056,16.406L16.246,16.298C16.115,16.095 16.056,15.847 16.056,15.847L17.311,14.502C17.311,14.502 17.397,15.137 17.299,15.702L17.777,15.431C17.777,15.431 17.861,16.433 17.56,16.918C17.259,17.403 16.153,17.435 16,16.96Z" fill="#1345b7" />
  <path d="M15.29,15.149C15.29,15.149 15.183,15.863 15.478,16.464C14.867,16.053 15.01,14.849 15.01,14.849L15.29,15.149ZM14.844,15.783C14.844,15.783 14.846,17.104 15.857,17.152C14.331,17.614 14.522,15.6 14.522,15.6L14.844,15.783ZM16.709,15.149L16.988,14.849C16.988,14.849 17.132,16.053 16.52,16.464C16.815,15.863 16.709,15.149 16.709,15.149ZM17.154,15.783L17.478,15.6C17.478,15.6 17.669,17.614 16.142,17.152C17.153,17.104 17.154,15.783 17.154,15.783Z" fill="#f4f4f4" />
  <path d="M15.943,14.175L14.273,17.054L17.613,17.054L15.943,14.175Z" fill="#fdbb11" />
  <path d="M14.507,16.919L15.943,14.444L17.378,16.919L14.507,16.919Z" fill="#f4f4f4" />
  <path d="M14.918,16.211L14.507,16.919L17.378,16.919L16.967,16.211L14.918,16.211Z" fill="#0092e7" />
  <path d="M14.783,16.561C14.783,16.561 15.247,15.905 15.426,15.905C15.606,15.905 15.69,16.111 15.69,16.111C15.69,16.111 15.76,16 15.857,16C15.953,16 16,16.111 16,16.111C16,16.111 16.07,16.003 16.111,16.023C16.153,16.043 16.292,16.211 16.292,16.211C16.292,16.211 16.333,16.138 16.428,16.111C16.523,16.084 16.586,16.211 16.586,16.211C16.586,16.211 16.679,16.011 16.701,16.111C16.723,16.211 17.067,16.562 17.067,16.562L14.783,16.562L14.783,16.561Z" fill="#fdbb11" />
  <circle cx="15.984" cy="15.484" r="0.128" fill="#cf0828" />
  <path d="M13.365,14.812C13.193,15.152 13.086,15.527 13.055,15.926L13.391,15.935C13.421,15.584 13.516,15.255 13.669,14.956L13.365,14.812ZM16.574,13.558C17.001,13.648 17.383,13.847 17.708,14.115L17.941,13.872C17.571,13.563 17.136,13.332 16.648,13.23L16.574,13.558ZM18.219,14.657C18.512,15.085 18.684,15.601 18.684,16.159C18.684,16.26 18.666,16.356 18.655,16.455L18.986,16.516C19,16.397 19.022,16.281 19.022,16.159C19.022,15.532 18.829,14.952 18.5,14.472L18.219,14.657ZM14.864,18.537C14.065,18.146 13.499,17.369 13.399,16.446L13.065,16.484C13.179,17.528 13.82,18.404 14.725,18.845L14.864,18.537ZM13.962,14.504C14.45,13.897 15.189,13.5 16.028,13.5C16.045,13.5 16.061,13.505 16.079,13.506L16.1,13.17C16.076,13.17 16.053,13.163 16.028,13.163C15.074,13.163 14.235,13.617 13.686,14.311L13.962,14.504ZM18.552,16.948C18.329,17.661 17.822,18.242 17.156,18.556L17.293,18.864C18.045,18.511 18.618,17.858 18.871,17.056L18.552,16.948Z" fill="#fdbb11" />
</svg>
