<?xml version="1.0" encoding="UTF-8"?>
<svg xmlns="http://www.w3.org/2000/svg" xmlns:xlink="http://www.w3.org/1999/xlink" width="32px" height="32px" viewBox="0 0 32 32" version="1.1">
  <path fill="#00a6ed" d="M 6 6 L 26 6 L 26 26 L 6 26 Z M 6 6 "/>
  <path fill="#f4f4f4" d="M 11.515625 11.019531 C 11.515625 10.3125 12.03125 9.742188 12.804688 9.742188 C 13.546875 9.742188 14.097656 10.226562 14.097656 11.019531 L 14.097656 14.738281 L 18.335938 10.226562 C 18.523438 10.019531 18.851562 9.742188 19.332031 9.742188 C 19.988281 9.742188 20.609375 10.242188 20.609375 10.984375 C 20.609375 11.429688 20.332031 11.792969 19.765625 12.359375 L 16.507812 15.5625 L 20.488281 19.714844 C 20.902344 20.128906 21.210938 20.507812 21.210938 21.027344 C 21.210938 21.835938 20.574219 22.214844 19.867188 22.214844 C 19.367188 22.214844 19.042969 21.921875 18.558594 21.40625 L 14.097656 16.582031 L 14.097656 20.972656 C 14.097656 21.644531 13.578125 22.214844 12.804688 22.214844 C 12.0625 22.214844 11.511719 21.730469 11.511719 20.972656 L 11.511719 11.019531 Z M 11.515625 11.019531 "/>
</svg>
