<svg width="32" height="32" viewBox="0 0 32 32" xmlns="http://www.w3.org/2000/svg">
  <polygon fill="#f4f4f4" points="2,12.75 3,11.75 29,11.75 30,12.75 30,19.25 29,20.25 3,20.25 2,19.25" />
  <rect fill="#D52C38" x="2" y="6" width="28" height="6.75" />
  <rect fill="#0C338C" x="2" y="19.25" width="28" height="6.75" />
  <path d="M14.681,16.765L14.307,16.971C14.139,16.682 14.043,16.346 14.043,15.988C14.043,14.906 14.919,14.03 16,14.03C17.081,14.03 17.958,14.906 17.958,15.988C17.958,16.346 17.861,16.681 17.694,16.971L17.32,16.765C17.45,16.54 17.525,16.279 17.525,16C17.525,15.158 16.842,14.475 16,14.475C15.158,14.475 14.475,15.158 14.475,16C14.475,16.279 14.55,16.54 14.681,16.765Z" fill="#B6BFC6" />
  <path d="M18.5,16C18.5,17.381 17.381,18.5 16,18.5C14.619,18.5 13.5,17.381 13.5,16C13.5,14.619 14.619,13.5 16,13.5C17.381,13.5 18.5,14.619 18.5,16ZM18.344,16C18.344,14.706 17.294,13.656 16,13.656C14.706,13.656 13.656,14.706 13.656,16C13.656,17.294 14.706,18.344 16,18.344C17.294,18.344 18.344,17.294 18.344,16Z" fill="#1c1c1c" />
  <path d="M18.031,16C18.031,17.122 17.122,18.031 16,18.031C14.878,18.031 13.969,17.122 13.969,16C13.969,14.878 14.878,13.969 16,13.969C17.122,13.969 18.031,14.878 18.031,16ZM17.954,16C17.954,14.922 17.079,14.048 16,14.048C14.922,14.048 14.048,14.921 14.048,16C14.048,17.079 14.921,17.954 16,17.954C17.079,17.954 17.954,17.079 17.954,16Z" fill="#1c1c1c" />
  <path d="M17.563,16C17.563,16.863 16.863,17.563 16,17.563C15.137,17.563 14.438,16.863 14.438,16C14.438,15.137 15.138,14.438 16,14.438C16.862,14.438 17.563,15.137 17.563,16ZM16,14.5C15.172,14.5 14.5,15.172 14.5,16C14.5,16.828 15.172,17.5 16,17.5C16.828,17.5 17.5,16.828 17.5,16C17.5,15.172 16.828,14.5 16,14.5Z" fill="#1c1c1c" />
  <path d="M16,15.489L16.115,15.842L16.486,15.842L16.186,16.061L16.3,16.414L16,16.196L15.7,16.414L15.814,16.061L15.514,15.842L15.885,15.842L16,15.489Z" fill="#fdbb11" />
  <path d="M16.311,15.073C16.311,15.073 16.498,15.029 16.608,15.018C16.718,15.007 16.817,15.261 16.949,15.304C17.083,15.349 17.081,15.481 17.136,15.635C17.191,15.789 17.158,15.822 17.158,15.998C17.158,16.174 17.257,16.262 17.235,16.394C17.213,16.526 17.103,16.559 17.038,16.648C16.972,16.736 17.026,16.846 16.96,16.912C16.894,16.978 16.674,16.967 16.597,17.033C16.52,17.099 16.377,17.198 16.278,17.143C16.179,17.088 15.969,17.066 15.969,17.066C15.969,17.066 16.024,16.868 16.179,16.802C16.333,16.736 16.399,16.747 16.542,16.703C16.685,16.659 16.674,16.592 16.773,16.505C16.872,16.417 16.883,16.296 16.938,16.207C16.994,16.119 17.004,16.053 16.983,15.932C16.96,15.811 16.916,15.679 16.872,15.568C16.828,15.458 16.729,15.326 16.663,15.249C16.597,15.172 16.311,15.073 16.311,15.073Z" fill="#008e48" />
  <path d="M15.628,15.139C15.628,15.139 15.738,14.899 15.628,14.886C15.188,14.831 15.099,15.227 14.968,15.271C14.834,15.316 14.813,15.535 14.759,15.689C14.704,15.843 14.726,15.876 14.726,16.053C14.726,16.229 14.729,16.261 14.751,16.394C14.773,16.526 14.803,16.625 14.869,16.713C14.935,16.801 14.96,16.845 15.026,16.911C15.092,16.976 15.221,17.043 15.298,17.109C15.375,17.174 15.609,17.197 15.709,17.142C15.808,17.087 15.981,17.065 15.981,17.065C15.981,17.065 15.907,16.932 15.753,16.867C15.599,16.801 15.588,16.746 15.445,16.702C15.302,16.658 15.313,16.591 15.214,16.504C15.115,16.416 15.104,16.294 15.049,16.206C14.994,16.118 15.023,16.096 15.046,15.975C15.067,15.854 15.111,15.755 15.156,15.645C15.199,15.535 15.31,15.392 15.376,15.315C15.441,15.238 15.628,15.139 15.628,15.139Z" fill="#008e48" />
  <path d="M15.639,17.164L15.782,17.263L15.969,17.131L16.146,17.253L16.377,17.164L16.146,17.33L15.981,17.198L15.804,17.319L15.628,17.219L15.639,17.164Z" fill="#008e48" />

</svg>
