<svg width="32" height="32" viewBox="0 0 32 32" xmlns="http://www.w3.org/2000/svg">
  <polygon fill="#1345B7" points="2,6 28.04,6 16,16 2,24.6" />
  <polygon fill="#276038" points="16,16 30,7.4 30,26 3.96,26" />
  <polygon fill="#FCD53F" points="30,6 28.04,6 2,24.6 2,26 3.96,26 30,7.4" />
  <path d="M7.37,11.401L6.372,10.675L7.616,10.675L8,9.492L8.384,10.675L9.628,10.675L8.629,11.401L8.622,11.406L8.994,12.552L9.006,12.589L8,11.858L6.993,12.589L7.006,12.552L7.378,11.406L7.37,11.401ZM3.991,8.504L2.993,7.778L4.236,7.778L4.62,6.595L5.005,7.778L6.249,7.778L5.25,8.504L5.242,8.509L5.615,9.656L5.627,9.692L4.62,8.962L3.614,9.692L3.626,9.656L3.999,8.509L3.991,8.504ZM10.75,14.297L9.751,13.572L10.995,13.572L11.38,12.388L11.763,13.572L13.007,13.572L12.009,14.297L12.001,14.302L12.373,15.449L12.386,15.485L11.38,14.755L10.373,15.485L10.385,15.449L10.757,14.302L10.75,14.297ZM3.991,14.297L2.993,13.572L4.236,13.572L4.62,12.388L5.005,13.572L6.249,13.572L5.25,14.297L5.242,14.302L5.615,15.449L5.627,15.485L4.62,14.755L3.614,15.485L3.626,15.449L3.999,14.302L3.991,14.297ZM10.75,8.504L9.751,7.778L10.995,7.778L11.38,6.595L11.763,7.778L13.007,7.778L12.009,8.504L12.001,8.509L12.373,9.656L12.386,9.692L11.38,8.962L10.373,9.692L10.385,9.656L10.757,8.509L10.75,8.504Z" fill="#f4f4f4" />
</svg>
