<svg width="32" height="32" viewBox="0 0 32 32" xmlns="http://www.w3.org/2000/svg">
  <rect fill="#072975" x="2" y="6" width="28" height="20" />
  <path d="M4.58,10.728L4.843,11.575L5.731,11.569L5.005,12.081L5.285,12.923L4.575,12.392L3.861,12.918L4.146,12.078L3.425,11.562L4.312,11.574L4.58,10.728ZM8.232,16L8.57,17.09L9.711,17.082L8.778,17.742L9.139,18.824L8.225,18.142L7.305,18.818L7.672,17.738L6.744,17.073L7.885,17.088L8.232,16ZM8.375,7.168L8.638,8.015L9.525,8.009L8.8,8.522L9.08,9.364L8.369,8.833L7.655,9.359L7.94,8.518L7.218,8.002L8.106,8.014L8.375,7.168ZM12.049,10.554L12.235,11.154L12.863,11.149L12.35,11.512L12.548,12.108L12.045,11.732L11.539,12.105L11.742,11.51L11.231,11.145L11.858,11.152L12.049,10.554Z" fill="#f4f4f4" />
  <path d="M26.769,24.462L6,24.462C6,24.462 5.795,24.329 5.795,24.077C5.795,23.825 6,23.692 6,23.692L26.769,23.692L27.911,24.077L26.769,24.462ZM6,22.923C6,22.923 9.846,21.385 14.462,16.769C19.077,12.154 22.154,9.077 23.692,8.308C22.344,9.656 20.792,19.077 24.638,22.154C24.638,22.154 26.769,22.555 26.769,22.923L6,22.923Z" fill="#FCD53F" />
</svg>
