<svg width="32" height="32" viewBox="0 0 32 32" xmlns="http://www.w3.org/2000/svg">
  <polygon fill="#062365" points="16,6 30,6 30,26 2,26 2,16" />
  <polygon fill="#062365" points="4.1,6 7.25,6 9,7 10.75,6 13.9,6 16,7.5 16,9.25 15,11 16,12.75 16,14.5 13.9,16 10.75,16 9,15 7.25,16 4.1,16 2,14.5 2,12.75 3,11 2,9.25 2,7.5" />
  <polygon fill="#F4F4F4" points="16,6 15.3,6.25 14.6,6 13.9,6 10.75,8.25 10.75,6 10,6 9,6.5 8,6 7.25,6 7.25,8.25 4.1,6 2,6 2.25,6.5 2,7 2,7.5 4.45,9.25 2,9.25 2,10 2.5,11 2,12 2,12.75 4.45,12.75 2,14.5 2,16 2.7,15.75 3.4,16 4.1,16 7.25,13.75 7.25,16 8,16 9,15.5 10,16 10.75,16 10.75,13.75 13.9,16 16,16 15.75,15.5 16,15 16,14.5 13.55,12.75 16,12.75 16,12 15.5,11 16,10 16,9.25 13.55,9.25 16,7.5" />
  <path fill="#CF0828" d="M7.25,12.75h-0.7L2,16h1.4l3.85-2.75V12.75z M11.45,12.75L16,16v-1l-3.15-2.25H11.45z M10.75,9.25h0.7L16,6h-1.4l-3.85,2.75V9.25z M5.15,9.25L2,7V6l4.55,3.25H5.15z M16,12h-6v4H8v-4H2v-2h6V6h2v4h6V12z" />
  <path d="M26.822,11.768L19.178,11.768L19.178,17.552L23,19.091L26.822,17.552L26.822,11.768Z" fill="#00a6ed" />
  <path d="M19.178,17.552C19.183,17.615 19.182,17.683 19.188,17.745C19.298,18.687 19.688,19.384 20.325,19.952C21.425,20.935 23,21.151 23,21.385C23,21.15 24.575,20.935 25.675,19.952C26.311,19.384 26.703,18.686 26.811,17.745C26.818,17.683 26.817,17.615 26.821,17.552L19.178,17.552Z" fill="#975617" />
  <path d="M23.268,13.502L24.724,13.502L24.724,13.019L23.268,13.019L23.268,12.371L22.758,12.371L22.758,13.019L21.275,13.019L21.275,13.502L22.758,13.502L22.758,19.621L23.268,19.621L23.268,13.502Z" fill="#1c1c1c" />
  <path d="M23.268,14.222C23.355,14.146 23.402,14.101 23.455,14.108C23.51,14.117 23.583,14.113 23.637,14.096C23.691,14.079 23.961,14.046 24.071,14.083C24.108,14.088 24.158,14.108 24.235,14.173C24.313,14.238 24.425,14.351 24.387,14.663C24.348,14.975 24.362,15.109 24.345,15.284C24.317,15.592 24.247,15.847 24.125,15.826C24.292,16.117 24.307,16.368 24.415,16.568C24.524,16.767 24.592,17.176 24.549,17.618C24.507,18.059 24.391,19.051 24.741,19.718C24.682,19.759 24.541,19.718 24.415,19.584C24.292,19.45 24.236,19.455 24.132,19.534C23.817,19.774 23.52,20.067 23.082,19.774C22.982,19.708 22.952,19.628 23.024,19.425C23.208,18.916 23.296,18.22 23.267,17.892L23.267,14.222L23.268,14.222Z" fill="#028f4d" />
  <path d="M21.483,17.995C21.75,18.27 22.583,19.152 22.69,19.252C22.798,19.352 22.849,19.344 22.892,19.244C23.193,18.518 23.117,17.594 22.37,16.685C22.249,17.132 21.938,17.422 21.45,17.526C21.202,17.579 21.158,17.739 21.204,17.801C21.272,17.681 21.421,17.676 21.492,17.814C21.549,17.927 21.474,18.068 21.349,18.106C21.225,18.143 21.041,18.139 20.966,18.009C20.891,17.881 20.829,17.58 21.175,17.432C21.521,17.281 21.892,17.127 21.962,16.818C22.033,16.51 22.128,16.36 22.337,16.339C23.491,17.402 23.637,18.59 23.157,19.652C23.041,19.909 22.857,19.977 22.732,19.819C22.607,19.66 21.734,18.628 21.284,18.119C21.388,18.112 21.456,18.055 21.483,17.995Z" fill="#f59f00" />
  <path d="M23.568,13.909C23.592,13.981 23.604,14.072 23.566,14.155C23.528,14.238 23.52,14.338 23.583,14.459C23.684,14.318 23.825,14.346 23.908,14.263C23.992,14.18 24.008,14.101 24.072,14.084C24.008,14.03 23.912,13.972 23.933,13.813C23.954,13.655 24.175,13.525 23.975,13.284C23.846,13.128 23.658,13.172 23.577,13.232C23.538,13.26 23.506,13.3 23.493,13.328C23.482,13.355 23.497,13.416 23.466,13.453C23.446,13.478 23.421,13.503 23.392,13.524C23.373,13.537 23.361,13.557 23.381,13.58C23.388,13.589 23.403,13.592 23.419,13.597C23.411,13.616 23.4,13.635 23.389,13.648C23.379,13.661 23.383,13.673 23.396,13.683C23.38,13.733 23.411,13.739 23.389,13.776C23.372,13.808 23.347,13.847 23.414,13.885C23.433,13.895 23.522,13.915 23.568,13.909ZM22.758,14.739C22.642,14.768 22.455,14.718 22.312,14.735C22.25,14.742 22.2,14.71 22.208,14.648C22.216,14.585 22.225,14.489 22.212,14.402C22.194,14.265 22.258,14.077 22.35,13.868C22.442,13.66 22.488,13.544 22.488,13.446C22.488,13.381 22.494,13.308 22.552,13.271C22.596,13.243 22.604,13.216 22.62,13.194C22.655,13.142 22.688,13.129 22.692,13.16C22.695,13.179 22.688,13.196 22.672,13.222C22.71,13.191 22.772,13.154 22.788,13.143C22.802,13.133 22.875,13.081 22.879,13.13C22.909,13.115 22.93,13.116 22.935,13.132C22.944,13.149 22.938,13.156 22.925,13.168C22.945,13.164 22.97,13.201 22.928,13.233C22.949,13.225 22.972,13.262 22.933,13.295C22.893,13.33 22.847,13.354 22.832,13.382C22.818,13.408 22.718,13.484 22.679,13.501C22.641,13.518 22.638,13.54 22.638,13.598C22.638,14.24 22.561,14.188 22.561,14.342C22.561,14.384 22.552,14.422 22.594,14.408C22.637,14.396 22.697,14.377 22.758,14.377L22.758,14.739L22.758,14.739ZM22.784,16.122C22.972,16.027 23.187,15.993 23.3,15.963C23.412,15.935 23.592,15.847 23.679,15.801C23.766,15.755 23.837,15.693 23.887,15.676C23.937,15.66 23.994,15.625 24.025,15.563C24.188,15.247 24.275,14.992 24.275,14.772C24.275,14.626 24.236,14.465 24.095,14.58C23.963,14.69 23.818,14.902 23.779,15.055C23.72,15.289 23.672,15.338 23.658,15.385C23.646,15.431 23.599,15.431 23.542,15.443C23.297,15.498 23.238,15.535 23.055,15.672C22.871,15.81 22.672,15.931 22.537,16.005C22.404,16.08 22.38,16.088 22.35,16.149C22.321,16.21 22.295,16.255 22.269,16.283C22.244,16.31 22.236,16.342 22.242,16.375C22.247,16.402 22.235,16.526 22.232,16.568C22.23,16.61 22.24,16.621 22.257,16.622C22.273,16.624 22.296,16.616 22.305,16.566C22.295,16.617 22.365,16.599 22.369,16.562C22.367,16.616 22.44,16.585 22.445,16.535C22.445,16.569 22.499,16.545 22.504,16.528C22.517,16.486 22.528,16.441 22.544,16.408C22.568,16.359 22.595,16.296 22.642,16.262C22.696,16.222 22.671,16.178 22.784,16.122ZM24.133,19.535C24.147,19.581 24.168,19.633 24.178,19.663C24.187,19.695 24.171,19.705 24.162,19.723C24.118,19.813 24.072,19.959 24.065,20.038C24.06,20.085 24.029,20.129 24.015,20.155C23.998,20.184 24.004,20.208 24.042,20.237C24.059,20.25 24.117,20.232 24.122,20.204C24.144,20.224 24.182,20.215 24.198,20.184C24.216,20.204 24.248,20.19 24.268,20.159C24.288,20.172 24.315,20.148 24.325,20.13C24.354,20.145 24.385,20.127 24.386,20.07C24.386,20.059 24.394,20.038 24.402,20.026C24.409,20.012 24.413,19.985 24.412,19.962C24.412,19.939 24.426,19.894 24.446,19.861C24.465,19.829 24.5,19.772 24.485,19.718C24.472,19.667 24.449,19.671 24.432,19.598C24.385,19.55 24.323,19.484 24.258,19.481C24.193,19.477 24.155,19.519 24.133,19.535ZM22.948,19.892C23.006,19.951 23.137,19.953 23.23,19.855C23.196,19.84 23.122,19.807 23.089,19.779C23.044,19.826 22.991,19.878 22.948,19.892Z" fill="#ffe5d9" />
  <path d="M23.538,13.268C23.56,13.12 23.665,13.124 23.732,13.139C23.758,13.145 23.825,13.152 23.887,13.135C24.01,13.102 24.104,13.145 24.092,13.264C24.125,13.288 24.16,13.347 24.154,13.397C24.148,13.447 24.158,13.468 24.203,13.475C24.249,13.481 24.348,13.537 24.283,13.616C24.346,13.654 24.394,13.749 24.361,13.814C24.328,13.878 24.226,13.888 24.186,13.83C24.139,13.851 24.065,13.855 24.018,13.807C23.987,13.844 23.907,13.84 23.892,13.807C23.878,13.773 23.855,13.756 23.825,13.746C23.792,13.735 23.788,13.644 23.839,13.634C23.832,13.607 23.835,13.575 23.848,13.562C23.859,13.546 23.85,13.519 23.82,13.497C23.792,13.474 23.766,13.386 23.795,13.338C23.746,13.355 23.635,13.308 23.612,13.274C23.591,13.242 23.559,13.239 23.538,13.268Z" fill="#fcb100" />
  <path d="M24.265,13.875C24.232,13.875 24.202,13.861 24.185,13.838C24.136,13.858 24.066,13.859 24.019,13.816C24.002,13.833 23.975,13.84 23.952,13.84L23.936,13.839C23.912,13.836 23.894,13.825 23.888,13.81C23.875,13.781 23.855,13.762 23.824,13.753C23.803,13.746 23.795,13.716 23.795,13.692C23.797,13.667 23.808,13.639 23.834,13.631C23.827,13.602 23.832,13.573 23.845,13.558C23.853,13.548 23.847,13.524 23.818,13.502C23.789,13.479 23.765,13.398 23.785,13.348L23.772,13.348C23.715,13.348 23.628,13.308 23.608,13.278C23.598,13.263 23.586,13.255 23.574,13.255L23.573,13.255C23.562,13.255 23.552,13.261 23.543,13.272L23.532,13.268C23.542,13.212 23.562,13.172 23.595,13.149C23.63,13.125 23.675,13.121 23.734,13.134C23.76,13.139 23.826,13.145 23.886,13.129C23.959,13.11 24.022,13.117 24.061,13.149C24.09,13.174 24.104,13.213 24.099,13.262C24.134,13.288 24.167,13.348 24.161,13.398C24.155,13.447 24.165,13.463 24.205,13.468C24.237,13.472 24.29,13.498 24.307,13.539C24.314,13.556 24.316,13.582 24.292,13.614C24.355,13.655 24.401,13.749 24.367,13.816C24.35,13.848 24.315,13.871 24.274,13.874L24.265,13.875ZM24.188,13.823L24.191,13.827C24.208,13.851 24.239,13.865 24.272,13.862C24.308,13.86 24.34,13.841 24.355,13.812C24.386,13.749 24.339,13.657 24.279,13.621L24.273,13.618L24.278,13.612C24.297,13.588 24.302,13.565 24.294,13.544C24.279,13.508 24.231,13.484 24.202,13.48C24.149,13.473 24.142,13.444 24.147,13.396C24.153,13.35 24.122,13.293 24.088,13.268L24.085,13.267L24.085,13.264C24.091,13.218 24.078,13.182 24.052,13.158C24.017,13.129 23.956,13.123 23.888,13.141C23.825,13.158 23.757,13.152 23.729,13.145C23.672,13.132 23.632,13.137 23.601,13.158C23.574,13.177 23.555,13.208 23.546,13.252C23.554,13.246 23.562,13.243 23.571,13.243L23.572,13.243C23.588,13.243 23.604,13.254 23.615,13.272C23.634,13.299 23.718,13.338 23.77,13.338C23.778,13.338 23.786,13.337 23.792,13.335L23.807,13.33L23.799,13.344C23.772,13.388 23.795,13.472 23.823,13.495C23.838,13.506 23.848,13.519 23.854,13.532C23.859,13.546 23.858,13.558 23.852,13.567C23.84,13.58 23.837,13.608 23.844,13.635L23.846,13.641L23.84,13.642C23.816,13.646 23.806,13.672 23.805,13.693C23.804,13.718 23.812,13.739 23.825,13.743C23.86,13.754 23.883,13.775 23.896,13.807C23.902,13.818 23.915,13.826 23.936,13.828C23.96,13.832 23.995,13.827 24.013,13.805L24.018,13.801L24.022,13.805C24.065,13.849 24.134,13.848 24.183,13.827L24.188,13.823ZM23.569,13.915L23.568,13.904C23.607,13.898 23.633,13.885 23.656,13.872C23.679,13.858 23.702,13.847 23.731,13.847L23.738,13.847L23.738,13.858C23.708,13.857 23.688,13.868 23.662,13.882C23.638,13.895 23.611,13.91 23.569,13.915ZM23.455,15.468L23.447,15.459C23.578,15.338 23.53,15.078 23.495,14.888L23.492,14.877C23.464,14.713 23.492,14.572 23.578,14.456L23.587,14.463C23.504,14.575 23.475,14.715 23.505,14.875L23.506,14.886C23.542,15.079 23.592,15.343 23.455,15.468ZM23.661,15.91C23.615,15.91 23.569,15.901 23.532,15.882L23.536,15.871C23.621,15.913 23.744,15.905 23.815,15.855C23.888,15.801 24.024,15.799 24.127,15.822L24.124,15.833C24.029,15.813 23.892,15.813 23.82,15.865C23.778,15.895 23.72,15.91 23.661,15.91Z" fill="#1c1c1c" />
</svg>
