<svg width="32" height="32" viewBox="0 0 32 32" xmlns="http://www.w3.org/2000/svg">
  <path d="M2,16L16,6L30,6L30,26L2,26L2,16Z" fill="#CF0828" />
  <rect x="2" y="6" width="14" height="10" fill="#072975" />
  <path d="M8.249,8.53L8.936,8.032L9.622,8.53L9.36,7.723L10.047,7.224L9.198,7.224L8.936,6.417L8.674,7.224L7.825,7.224L8.512,7.723L8.249,8.53ZM6.142,9.724L5.88,8.917L5.618,9.724L4.769,9.724L5.456,10.223L5.194,11.03L5.88,10.532L6.567,11.03L6.305,10.223L6.992,9.724L6.142,9.724ZM12.307,9.257L12.061,8.5L11.815,9.257L11.019,9.257L11.663,9.725L11.417,10.482L12.061,10.014L12.705,10.482L12.458,9.725L13.102,9.257L12.307,9.257ZM10.628,11.572L10.464,11.068L10.3,11.572L9.769,11.572L10.198,11.885L10.035,12.389L10.464,12.077L10.893,12.389L10.729,11.885L11.158,11.572L10.628,11.572ZM9.264,13.951L8.936,12.942L8.608,13.951L7.547,13.951L8.405,14.574L8.078,15.583L8.936,14.96L9.795,15.583L9.466,14.574L10.325,13.951L9.264,13.951Z" fill="#f4f4f4" />
</svg>
