<svg width="32" height="32" viewBox="0 0 32 32" xmlns="http://www.w3.org/2000/svg">
  <polygon fill="#1345B7" points="2,12.75 3,11.75 29,11.75 30,12.75 30,19.25 29,20.25 3,20.25 2,19.25" />
  <rect fill="#f4f4f4" x="2" y="6" width="28" height="6.75" />
  <rect fill="#F8312F" x="2" y="19.25" width="28" height="6.75" />
  <path d="M11.846,20.609C11.112,20.189 9.481,19.128 8.885,17.691C8.284,16.244 8.418,14.166 8.573,11.761L8.612,11.152L16.388,11.152L16.427,11.761C16.582,14.166 16.716,16.242 16.115,17.691C15.518,19.128 13.888,20.189 13.153,20.609L12.501,20.98L11.846,20.609Z" fill="#f4f4f4" />
  <path d="M15.778,11.802C15.933,14.211 16.052,16.144 15.513,17.442C14.848,19.041 12.577,20.184 12.502,20.221L12.502,20.225L12.499,20.223L12.495,20.225L12.495,20.221C12.421,20.185 10.149,19.041 9.485,17.442C8.946,16.144 9.066,14.212 9.221,11.802L15.778,11.802ZM14.464,14.771C14.464,14.771 13.554,14.857 12.754,14.878C12.748,14.703 12.744,14.549 12.744,14.435C12.744,14.313 12.749,14.179 12.755,14.042C13.388,14.081 13.825,14.202 13.825,14.202C13.985,14.202 14.115,14.072 14.115,13.912L14.115,13.518C14.115,13.357 13.985,13.227 13.825,13.227C13.825,13.227 13.344,13.309 12.806,13.343C12.852,12.835 12.907,12.411 12.907,12.411C12.907,12.25 12.777,12.12 12.616,12.12L12.223,12.12C12.063,12.12 11.933,12.25 11.933,12.411C11.933,12.411 11.992,12.844 12.043,13.349C11.489,13.318 11.014,13.227 11.014,13.227C10.854,13.227 10.724,13.357 10.724,13.518L10.724,13.912C10.724,14.072 10.854,14.202 11.014,14.202C11.014,14.202 11.429,14.068 12.1,14.036C12.109,14.186 12.115,14.331 12.115,14.456C12.115,14.561 12.111,14.708 12.105,14.878C11.298,14.857 10.354,14.772 10.354,14.772C10.194,14.772 10.064,14.902 10.064,15.062L10.064,15.456C10.064,15.616 10.194,15.747 10.354,15.747C10.354,15.747 11.212,15.676 12.067,15.663C12.013,16.658 11.933,17.823 11.933,17.823C11.933,17.983 12.063,18.113 12.223,18.113L12.616,18.113C12.777,18.113 12.907,17.983 12.907,17.823C12.907,17.823 12.835,16.67 12.787,15.667C13.613,15.686 14.464,15.747 14.464,15.747C14.625,15.747 14.755,15.616 14.755,15.456L14.755,15.062C14.755,14.902 14.625,14.771 14.464,14.771Z" fill="#F8312F" />
  <path d="M15.253,17.927C14.923,17.221 14.015,17.022 13.584,17.884C13.3,16.848 12.492,16.848 12.492,16.848C12.492,16.848 11.683,16.848 11.399,17.884C10.971,17.029 10.073,17.219 9.736,17.911C10.59,19.259 12.429,20.189 12.497,20.222L12.497,20.225L12.5,20.223L12.503,20.225L12.503,20.221C12.57,20.188 14.395,19.266 15.253,17.927Z" fill="#1345B7" />

</svg>
