<svg width="32" height="32" viewBox="0 0 32 32" xmlns="http://www.w3.org/2000/svg">
  <polygon fill="#0b338d" points="2,6 30,6 30,12 29,13 3,13 2,12" />
  <polygon fill="#44911B" points="2,26 30,26 30,20 29,19 3,19 2,20" />
  <rect fill="#f4f4f4" x="2" y="12" width="28" height="8" />
  <path d="M18.559,17.487C18.547,17.45 18.218,17.6 18.218,17.6L16.742,15.71C16.922,15.386 17.134,14.852 17.134,14.187C17.134,13.194 16.607,12.934 16.272,12.864L16.272,12.82C16.272,12.682 16.161,12.571 16.023,12.571L15.976,12.571C15.838,12.571 15.727,12.682 15.727,12.82L15.727,12.865C15.392,12.934 14.866,13.195 14.866,14.188C14.866,14.866 15.086,15.41 15.27,15.732L13.862,17.6C13.862,17.6 13.575,17.45 13.562,17.487C13.55,17.525 12.962,18.462 12.962,18.462C12.962,18.462 14.212,19.278 16,19.278C17.6,19.278 19.098,18.462 19.098,18.462C19.098,18.462 18.572,17.525 18.559,17.487ZM16.875,14.225C16.875,14.668 16.698,15.15 16.536,15.448L16.254,15.088C16.258,15.072 16.272,15.062 16.272,15.045L16.272,14.462L16.662,14.462L16.272,14.072L16.272,13.175C16.667,13.314 16.875,13.75 16.875,14.225ZM15.125,14.225C15.125,13.75 15.333,13.314 15.727,13.175L15.727,14.072L15.337,14.462L15.727,14.462L15.727,15.045C15.727,15.065 15.744,15.078 15.748,15.096L15.472,15.462C15.309,15.166 15.125,14.677 15.125,14.225Z" fill="#1c1c1c"/>
  <path d="M18.238,17.875C18.238,17.875 17.1,18.296 16,18.296C14.9,18.296 13.762,17.875 13.762,17.875L13.487,18.394C13.487,18.394 14.65,18.914 16,18.914C17.35,18.914 18.513,18.394 18.513,18.394L18.238,17.875Z" fill="#636363"/>
</svg>
