<svg width="32" height="32" viewBox="0 0 32 32" xmlns="http://www.w3.org/2000/svg">
  <rect fill="#007356" x="2" y="6" width="28" height="20" />
  <path d="M15.982,8.744C16.121,9.011 16.196,9.34 16.295,9.647L17.273,9.647C17.021,9.844 16.752,10.023 16.498,10.218C16.57,10.534 16.688,10.802 16.775,11.103C16.722,11.124 16.648,11.054 16.59,11.012C16.421,10.886 16.195,10.717 16.019,10.587C15.732,10.73 15.471,10.997 15.226,11.122C15.304,10.812 15.424,10.545 15.503,10.236C15.267,10.023 14.998,9.844 14.728,9.665C15.011,9.622 15.374,9.658 15.687,9.647C15.797,9.358 15.901,9.062 15.982,8.744ZM11.796,11.362C11.985,11.249 12.155,11.118 12.331,10.994C12.251,10.804 12.216,10.568 12.128,10.385C12.298,10.443 12.48,10.648 12.662,10.754C12.852,10.643 13.023,10.512 13.197,10.385C13.182,10.562 13.058,10.788 13.013,10.994C13.155,11.158 13.351,11.269 13.528,11.399C13.343,11.444 13.075,11.41 12.884,11.399C12.788,11.586 12.722,11.803 12.662,12.026C12.565,11.847 12.515,11.621 12.459,11.399L11.962,11.399C11.948,11.345 11.811,11.415 11.796,11.362ZM20.038,11.399L19.558,11.399C19.479,11.597 19.429,11.823 19.355,12.026C19.272,11.827 19.207,11.608 19.133,11.399C18.925,11.418 18.702,11.422 18.47,11.418C18.63,11.27 18.827,11.16 18.986,11.012C18.935,10.787 18.849,10.596 18.783,10.385C18.97,10.5 19.141,10.631 19.318,10.754C19.526,10.648 19.672,10.48 19.871,10.367C19.791,10.556 19.757,10.793 19.668,10.975C19.823,11.127 20.017,11.241 20.202,11.362C20.188,11.415 20.052,11.345 20.038,11.399ZM10.82,12.523C10.91,12.697 10.911,12.96 10.967,13.168C11.198,13.183 11.405,13.222 11.63,13.242C11.445,13.352 11.261,13.462 11.059,13.555C11.072,13.789 11.132,13.975 11.17,14.182C11.116,14.195 11.008,14.089 10.93,14.016C10.844,13.936 10.766,13.835 10.691,13.777C10.483,13.871 10.308,13.995 10.101,14.09C10.193,13.899 10.269,13.693 10.377,13.518C10.247,13.335 10.069,13.2 9.898,13.058C10.091,13.025 10.337,13.097 10.543,13.113C10.649,12.931 10.738,12.732 10.82,12.523ZM21.438,13.113C21.66,13.089 21.868,13.051 22.102,13.039C21.945,13.198 21.768,13.332 21.622,13.501C21.721,13.685 21.798,13.891 21.899,14.072C21.723,14.032 21.511,13.87 21.327,13.778C21.148,13.893 20.988,14.126 20.83,14.202C20.862,13.988 20.924,13.804 20.941,13.575C20.759,13.462 20.575,13.351 20.369,13.262C20.556,13.202 20.798,13.199 21.015,13.17C21.095,12.988 21.097,12.724 21.162,12.525C21.265,12.71 21.353,12.91 21.438,13.113Z" fill="#FDBB11" />
  <path d="M18.636,20.008C17.438,19.947 16.676,19.448 15.982,18.883C15.332,19.48 14.54,19.935 13.365,20.008L9.898,20.008C9.902,20.023 9.898,20.045 9.916,20.045C9.996,20.168 10.077,20.289 10.175,20.395C11.252,20.468 12.534,20.432 13.622,20.414C14.665,20.351 15.36,19.939 16,19.473C16.638,19.941 17.335,20.35 18.378,20.414C19.486,20.432 20.768,20.468 21.825,20.395C21.918,20.283 22.004,20.168 22.084,20.045C22.089,20.047 22.098,20.042 22.103,20.045C21.968,19.962 21.551,20.008 21.328,20.008L18.636,20.008ZM21.401,20.892C21.433,20.898 21.465,20.821 21.401,20.838C17.794,20.862 14.098,20.788 10.561,20.875C10.579,20.875 10.582,20.889 10.598,20.892C10.645,20.946 10.709,21.038 10.782,21.058C10.928,21.098 11.192,21.058 11.427,21.058L21.253,21.058C21.292,20.992 21.363,20.959 21.401,20.892ZM20.738,21.538C20.756,21.538 20.759,21.524 20.775,21.519C20.776,21.497 20.798,21.495 20.792,21.465C17.72,21.525 14.504,21.383 11.446,21.465C11.394,21.466 11.238,21.412 11.225,21.519C11.243,21.519 11.247,21.535 11.262,21.538C11.375,21.622 11.485,21.709 11.594,21.795C14.489,21.827 17.512,21.827 20.406,21.795C20.515,21.709 20.626,21.622 20.738,21.538ZM19.891,22.145C19.939,22.11 19.934,22.12 19.891,22.109C19.635,22.049 19.242,22.109 18.913,22.109L12.498,22.109C12.378,22.109 12.032,22.085 12.111,22.145C12.327,22.28 12.551,22.406 12.793,22.515C14.888,22.545 17.113,22.545 19.208,22.515C19.449,22.406 19.674,22.281 19.891,22.145ZM18.674,22.755L18.71,22.755C18.709,22.724 18.703,22.722 18.674,22.718C18.269,22.658 17.783,22.718 17.328,22.718C15.972,22.718 14.546,22.688 13.29,22.755L13.328,22.755C13.99,23 14.703,23.198 15.577,23.234C15.651,23.277 15.804,23.241 15.908,23.252L16.093,23.252C16.198,23.24 16.351,23.276 16.425,23.234C17.294,23.195 18.011,23.003 18.674,22.755ZM14.396,14.957C14.432,15.837 14.669,16.515 15.042,17.058C14.745,16.401 14.483,15.676 14.562,14.735C14.665,13.507 15.295,12.532 16.019,11.952C16.702,12.567 17.324,13.502 17.438,14.718C17.533,15.73 17.225,16.532 16.867,17.188C17.268,16.673 17.572,15.902 17.605,14.957C17.635,14.925 17.635,14.767 17.605,14.735C17.581,14.09 17.437,13.562 17.218,13.113C17.334,12.88 17.522,12.717 17.585,12.432C17.878,12.895 18.066,13.462 18.12,14.165L18.12,14.736C18.068,15.606 17.774,16.234 17.42,16.801C17.404,16.803 17.363,16.862 17.402,16.856C17.439,16.789 17.511,16.757 17.549,16.69C18.345,16.012 19.282,15.474 20.702,15.418L21.034,15.418C21.068,15.474 20.945,15.544 20.886,15.622C20.823,15.705 20.778,15.815 20.72,15.88C19.177,15.91 18.169,16.475 17.365,17.243C17.972,16.825 18.805,16.354 19.781,16.267C20.714,16.184 21.523,16.328 22.214,16.617C22.018,17.146 21.74,17.593 21.385,17.963C21.297,18.036 21.217,18.115 21.145,18.202C20.509,18.778 19.737,19.215 18.601,19.29L18.158,19.29C18.158,19.308 18.181,19.304 18.195,19.308C18.272,19.355 18.405,19.345 18.527,19.345C18.614,19.375 18.828,19.375 18.915,19.345C20.15,19.298 20.924,18.786 21.624,18.202C21.721,18.272 22.156,18.253 22.067,18.35C21.967,18.434 21.875,18.526 21.791,18.626C21.138,19.197 20.347,19.628 19.191,19.695L18.803,19.695C17.636,19.628 16.84,19.189 16.186,18.608C16.124,18.542 16.077,18.46 15.983,18.424C15.938,18.496 15.862,18.536 15.818,18.608C15.163,19.189 14.366,19.627 13.2,19.695L12.813,19.695C11.646,19.625 10.845,19.192 10.195,18.608C10.116,18.514 10.031,18.428 9.937,18.35C9.947,18.324 9.865,18.304 9.918,18.295C10.08,18.278 10.232,18.252 10.362,18.202C11.082,18.772 11.842,19.302 13.09,19.345C13.175,19.375 13.391,19.375 13.477,19.345C13.598,19.345 13.733,19.355 13.808,19.308L13.845,19.308C13.735,19.265 13.545,19.302 13.404,19.29C12.266,19.216 11.495,18.777 10.859,18.202C10.787,18.115 10.707,18.035 10.619,17.963C10.265,17.592 9.983,17.148 9.79,16.617C10.477,16.327 11.279,16.189 12.205,16.267C13.174,16.349 14.008,16.807 14.602,17.225C14.637,17.27 14.688,17.299 14.731,17.337C14.724,17.275 14.675,17.257 14.638,17.225C13.815,16.49 12.835,15.908 11.301,15.881C11.182,15.743 11.035,15.532 10.951,15.42L11.301,15.42C12.696,15.482 13.643,15.991 14.417,16.673C14.492,16.752 14.552,16.846 14.656,16.894C14.67,16.814 14.62,16.908 14.619,16.858C14.6,16.815 14.577,16.776 14.545,16.747C14.211,16.191 13.931,15.579 13.882,14.738L13.882,14.166C13.928,13.462 14.136,12.921 14.398,12.433C14.495,12.685 14.642,12.891 14.785,13.097C14.601,13.502 14.462,13.953 14.417,14.498C14.375,14.524 14.41,14.627 14.398,14.682L14.398,14.737C14.365,14.767 14.365,14.925 14.396,14.957ZM15.042,17.058C15.056,17.124 15.088,17.171 15.134,17.205C15.119,17.14 15.086,17.094 15.042,17.058Z" fill="#f4f4f4" />
</svg>
