<svg width="32" height="32" viewBox="0 0 32 32" xmlns="http://www.w3.org/2000/svg">
  <polygon fill="#CF0828" points="2,6 30,6 30,16 29,17 6,17" />
  <polygon fill="#072975" points="2,26 30,26 30,16 6,16" />
  <polygon fill="#f4f4f4" points="2,6 16,16 2,26" />
  <path d="M8.669,13.492C8.669,14.195 7.929,14.766 7.017,14.766C6.104,14.766 5.365,14.195 5.365,13.492C5.365,12.788 6.105,12.218 7.017,12.218C7.929,12.218 8.669,12.788 8.669,13.492Z" fill="#fcd53f" />
  <path d="M4.999,12.955C5.353,12.602 6.629,12.618 7.016,12.843C6.585,12.263 7.179,12.538 7.644,12.538C8.108,12.538 8.237,12.682 7.932,12.714C7.628,12.747 7.372,12.698 7.452,12.795C7.532,12.891 7.997,12.809 8.413,12.714C8.83,12.618 9.31,12.971 9.342,13.035C9.375,13.1 8.605,12.939 8.333,13.035C8.061,13.132 7.628,13.115 7.66,13.212C7.692,13.308 7.207,13.372 7.017,13.324C6.827,13.276 6.041,13.292 6.169,13.212C6.298,13.132 6.458,13.035 6.522,13.003C6.586,12.971 5.56,12.939 4.999,12.955Z" fill="#b87a66" />
  <path d="M9.847,13.355C9.847,13.355 9.125,13.722 8.392,13.548C7.587,13.355 6.998,13.441 6.998,13.656C6.998,13.441 6.409,13.355 5.605,13.548C4.873,13.722 4.15,13.355 4.15,13.355C4.15,13.355 4.684,14.208 4.366,15.915C4.042,17.658 4.138,18.452 5.512,18.503C6.675,18.547 6.998,18.896 6.998,18.896C6.998,18.896 7.322,18.547 8.485,18.503C9.859,18.452 9.955,17.658 9.631,15.915C9.313,14.209 9.847,13.355 9.847,13.355Z" fill="#cf0828" />
  <path d="M9.318,16.445C8.91,15.038 9.342,13.885 9.342,13.885C9.342,13.885 8.705,14.077 7.996,13.872C7.287,13.668 6.998,14.017 6.998,14.017C6.998,14.017 6.71,13.668 6.001,13.872C5.292,14.077 4.655,13.885 4.655,13.885C4.655,13.885 5.087,15.038 4.678,16.445C4.27,17.851 5.268,18.055 5.941,18.043C6.614,18.031 6.998,18.415 6.998,18.415C6.998,18.415 7.383,18.031 8.056,18.043C8.729,18.055 9.727,17.851 9.318,16.445Z" fill="#5a93cb" />
  <path d="M8.725,14.733C8.938,14.759 9.096,14.853 9.096,14.966L8.122,14.966C8.122,14.853 8.28,14.759 8.494,14.733C8.487,14.683 8.483,14.623 8.483,14.552C8.483,14.276 8.609,14.053 8.609,14.053C8.609,14.053 8.735,14.276 8.735,14.552C8.735,14.623 8.732,14.683 8.725,14.733ZM8.609,17.455L8.802,17.455L8.802,17.803L5.195,17.803L5.195,17.455L5.388,17.455L5.388,16.757L5.232,16.757L5.232,16.481L5.4,16.481L5.4,15.735L5.244,15.735L6.53,14.882L6.53,14.534L6.338,14.534L6.998,14.089L7.659,14.534L7.467,14.534L7.467,14.882L8.753,15.735L8.597,15.735L8.597,16.481L8.765,16.481L8.765,16.757L8.609,16.757L8.609,17.455Z" fill="#f4f4f4" />
  <path d="M5.785,14.606C5.785,14.606 5.605,14.931 5.568,15.123C5.532,15.315 5.424,15.003 5.424,15.003C5.424,15.003 5.232,15.195 5.184,15.268C5.136,15.34 5.124,14.715 5.184,14.631C5.244,14.547 5.039,14.571 4.968,14.535C4.895,14.498 5.124,14.27 5.124,14.27C5.124,14.27 4.812,14.125 4.919,14.09C5.028,14.054 5.424,14.078 5.556,14.186C5.688,14.295 6.001,14.114 6.121,14.09C6.241,14.066 6.121,14.21 6.025,14.295C5.928,14.378 5.977,14.595 5.977,14.703C5.977,14.811 5.785,14.606 5.785,14.606Z" fill="#008e48" />
  <path d="M6.325,16.156L7.744,16.156L7.744,16.565L6.325,16.565L6.325,16.156ZM5.641,15.82L6.073,15.82L6.073,16.385L5.641,16.385L5.641,15.82ZM5.641,16.769L6.073,16.769L6.073,17.334L5.641,17.334L5.641,16.769ZM7.96,15.82L8.392,15.82L8.392,16.385L7.96,16.385L7.96,15.82ZM7.96,16.769L8.392,16.769L8.392,17.334L7.96,17.334L7.96,16.769ZM6.686,14.63L7.335,14.63L7.335,14.931L6.686,14.931L6.686,14.63Z" fill="#bebebe" />
  <path d="M10.881,16.589L10.761,15.904L10.124,16.108L10.316,17.034L10.461,17.07C10.461,17.07 10.473,17.815 9.908,18.392C9.342,18.969 8.345,18.969 8.345,18.969C8.345,18.969 7.828,19.342 6.999,19.342C6.17,19.342 5.653,18.969 5.653,18.969C5.653,18.969 4.655,18.969 4.091,18.392C3.526,17.815 3.538,17.07 3.538,17.07L3.682,17.034L3.875,16.108L3.238,15.904L3.118,16.589L2.889,16.613C2.889,16.613 2.902,17.959 3.37,18.668C3.838,19.378 4.885,19.594 4.885,19.594C4.885,19.594 4.897,19.678 4.921,19.762C5.606,20.159 7,20.183 7,20.183C7,20.183 8.394,20.159 9.079,19.762C9.103,19.678 9.115,19.594 9.115,19.594C9.115,19.594 10.161,19.378 10.63,18.668C11.098,17.959 11.111,16.613 11.111,16.613L10.881,16.589Z" fill="#fcd53f" />
</svg>
