<svg width="32" height="32" viewBox="0 0 32 32" xmlns="http://www.w3.org/2000/svg">
  <rect fill="#FDBB11" x="2" y="6" width="28" height="20" />
  <polygon fill="#007356" points="3,7 6,7 6,25 3,25" />
  <rect fill="#FF6723" x="6" y="7" width="3" height="18" />
  <path fill="#8e0d37" d="M29,7L29,25L10,25L10,7L29,7ZM12.446,10.046C12.446,10.046 12.395,9.327 12.419,8.725C12.435,8.326 12.212,7.844 11.789,7.913C11.367,7.983 10.898,7.898 10.898,7.898C10.898,7.898 10.992,8.171 10.898,8.429C10.805,8.687 10.805,9.225 11.438,9.296C12.071,9.367 12.329,9.695 12.446,10.046ZM26.554,21.953C26.554,21.953 26.605,22.673 26.581,23.276C26.565,23.675 26.788,24.157 27.211,24.086C27.632,24.016 28.102,24.102 28.102,24.102C28.102,24.102 28.008,23.828 28.102,23.571C28.195,23.312 28.195,22.774 27.562,22.703C26.929,22.633 26.671,22.304 26.554,21.953ZM26.554,10.046C26.671,9.695 26.929,9.367 27.562,9.296C28.195,9.225 28.195,8.687 28.102,8.429C28.008,8.171 28.102,7.898 28.102,7.898C28.102,7.898 27.633,7.983 27.211,7.913C26.788,7.844 26.565,8.326 26.581,8.725C26.605,9.327 26.554,10.046 26.554,10.046ZM12.446,21.953C12.329,22.304 12.071,22.633 11.438,22.703C10.805,22.774 10.805,23.312 10.898,23.571C10.992,23.828 10.898,24.102 10.898,24.102C10.898,24.102 11.368,24.016 11.789,24.086C12.212,24.157 12.435,23.675 12.419,23.276C12.395,22.673 12.446,21.953 12.446,21.953ZM16.429,12.531C16.43,12.531 16.578,12.109 16.125,12.047C15.891,12.015 15.751,12.314 15.875,12.719C16,13.125 16.688,13.625 16.688,13.625L16.719,13.36L17,13.625L17.078,13.36C17.078,13.36 17.266,13.703 17.5,13.969C16.765,13.922 16.109,13.531 15.968,13.484C15.828,13.438 15.749,13.735 16.062,13.891C15.937,13.922 15.797,14.281 15.797,14.5C16.047,14.468 16.328,14.438 16.328,14.438C16.328,14.438 16.235,14.594 16.219,14.719C16.438,14.657 16.609,14.563 16.672,14.531C16.735,14.5 16.703,14.843 16.813,14.765C16.922,14.687 16.906,14.578 16.906,14.578C16.906,14.578 17.058,14.869 17.235,14.891C17.357,14.528 17.61,14.859 17.453,14.985C17.296,15.11 16.765,15.5 16.422,15.917C16.078,16.333 16.125,17.375 16.125,17.375L15.11,16.359C15.11,16.359 15.312,16.297 15.344,16C15.375,15.703 14.938,15.672 14.938,15.672C14.938,15.672 14.954,14.97 14.954,14.078C14.954,13.187 14.906,11.735 15.313,10.875C14.922,11.031 14.281,11.562 14.172,13.094C14.063,14.625 14.11,15.719 14.11,15.719C14.11,15.719 13.719,15.656 13.719,16C13.719,16.343 14.17,16.42 14.17,16.42C14.17,16.42 14.044,16.561 14.138,16.639C13.982,16.67 14.013,16.874 14.154,16.998C13.997,17.107 14.216,17.264 14.216,17.264C14.216,17.264 14.044,17.483 14.326,17.513C14.357,17.685 14.31,17.701 14.076,17.701C13.842,17.701 14.077,17.982 14.217,17.952C14.357,17.921 14.373,17.983 14.279,18.092C14.185,18.202 14.123,18.28 14.217,18.374C14.311,18.467 14.389,18.717 14.139,18.827C14.092,18.733 13.842,18.639 13.858,18.827C13.874,19.014 14.186,19.124 14.186,19.124L13.967,19.389L14.296,19.405C14.296,19.405 14.327,19.78 14.468,19.733C14.608,19.687 14.626,19.468 14.626,19.468L14.983,19.39L14.749,19.124C14.749,19.124 15.093,19.155 15.14,18.953C15.186,18.75 14.952,18.578 14.827,18.875C14.639,18.764 14.624,18.468 14.733,18.359C14.842,18.249 14.828,18.188 14.686,18.077C14.545,17.967 14.671,17.921 14.858,17.906C15.046,17.891 15.061,17.766 14.874,17.702C14.686,17.639 14.686,17.578 14.686,17.578C14.686,17.578 14.874,17.546 14.999,17.546C15.125,17.546 15.187,17.75 15.187,17.921C15.187,18.093 15.109,18.437 15.328,18.452C15.296,18.265 15.5,18.281 15.5,18.281C15.5,18.281 15.874,18.624 16.03,18.749C16.187,18.875 16.375,19.109 16.921,18.452C17.359,18.702 17.656,18.734 17.656,18.734C17.656,18.734 17.781,19.265 17.921,19.655C18.061,20.046 17.749,20.344 17.374,20.327C16.999,20.311 16.781,20.342 16.624,20.625C16.468,20.906 16.718,21.015 16.874,20.766C16.968,20.922 17.203,21.015 17.468,20.766C17.702,21.094 17.999,20.781 17.999,20.781C17.999,20.781 18.234,20.984 18.39,20.955C18.546,20.927 18.64,20.656 18.609,20.5C18.578,20.344 18.592,20.079 18.592,20.079C18.592,20.079 18.827,20.096 19.109,19.845C19.39,19.595 19.249,19.61 19.062,19.548C18.874,19.486 18.734,19.407 18.765,19.173C18.796,18.939 19.14,18.564 19.14,18.564C19.14,18.564 19.609,18.565 20.219,18.143C20.827,17.72 21.609,17.798 21.609,17.798C21.609,17.798 21.531,18.299 22,18.72C22.304,18.994 22.39,19.439 22.421,19.877C22.452,20.315 22.156,20.361 21.937,20.376C21.718,20.391 21.531,20.392 21.374,20.673C21.217,20.955 21.53,20.97 21.733,20.767C21.827,20.908 22.03,21.002 22.233,20.751C22.591,21.126 22.717,20.735 22.717,20.735C22.717,20.735 22.92,21.063 23.123,20.921C23.326,20.777 23.249,20.47 23.186,20.345C23.124,20.219 23.093,19.97 23.28,19.829C23.468,19.688 23.639,19.484 23.623,19.391C23.608,19.298 23.311,19.267 23.217,19.157C23.123,19.046 23.093,18.828 23.342,18.641C23.905,18.938 24.17,19.266 24.217,19.578C24.265,19.89 24.28,20.172 24.124,20.219C23.968,20.265 23.437,20.374 23.327,20.64C23.218,20.906 23.421,20.906 23.577,20.781C23.734,20.969 23.968,20.921 24.093,20.75C24.218,20.937 24.436,21 24.655,20.781C25.156,21.062 25.202,20.843 25.03,20.625C24.859,20.407 24.749,20.141 25.171,19.766C25.594,19.391 25.28,19.376 25.078,19.235C24.875,19.094 24.656,18.532 25.187,17.172C25.718,15.812 24.89,15.188 24.89,15.188C24.89,15.188 25.531,14.875 25.421,14.234C25.292,13.483 24.515,13.391 23.671,13.516C22.828,13.64 22.359,13.656 22.203,13.375C22.047,13.094 21.89,13.172 21.734,13.437C21.578,13.235 21.562,12.843 21.984,12.797C21.843,12.625 21.437,12.593 21.234,13C20.906,12.766 20.969,12.39 21.22,12.218C21.47,12.047 21.595,12.36 21.595,12.36C21.595,12.36 21.86,12.266 21.782,11.922C22.329,12.016 22.579,12.5 22.282,12.922C22.719,12.86 23,12.469 22.703,12.016C23.218,12.203 23.344,12.563 22.969,13C23.484,12.984 23.516,12.532 23.516,12.532C23.516,12.532 23.641,12.954 24.203,13.016C24,12.813 24.016,12.5 24.016,12.5C24.016,12.5 24.548,13.016 24.844,13.188C25.14,13.36 25.828,13.469 25.765,12.923C25.703,12.376 25.203,12.594 25.219,12.891C24.812,12.812 24.422,12.36 23.437,11.813C22.453,11.265 21.046,11.453 20.683,12.078C20.32,12.704 20.89,13.328 20.89,13.328C20.89,13.328 20.531,13.829 21.031,14.063C21.001,13.532 21.375,13.586 21.703,13.797C22.032,14.008 22.57,14.031 23.391,13.914C24.211,13.796 24.937,13.75 24.937,14.312C24.937,14.875 24.07,14.969 23.437,14.969C22.804,14.969 20.601,15.18 20.484,15.11C20.367,15.039 20.203,14.594 20.203,14.594C20.203,14.594 20.507,14.687 20.437,14.594C20.367,14.5 20.226,13.844 20.226,13.844L20.46,13.985C20.46,13.773 20.554,12.953 20.226,12.531C20.624,12.367 20.578,11.7 20.578,11.7C20.578,11.7 20.413,11.945 20.179,11.992C19.946,12.039 19.875,11.664 19.5,11.703C19.453,11.883 19.242,12.016 19.242,12.016C19.242,12.016 19.054,11.547 18.633,11.758C18.774,12.039 18.492,12.062 18.258,11.852C18.023,11.641 17.625,11.852 17.625,11.852C17.625,11.852 17.766,12.273 17.32,12.39C16.875,12.508 16.429,12.531 16.429,12.531Z" />
</svg>
