<svg width="32" height="32" viewBox="0 0 32 32" xmlns="http://www.w3.org/2000/svg">
  <path d="M6.5,6L11,6L12,7L14.5,7L15.5,6L16,6L17,7L29,7L29,25L28.5,25.5L17.5,25.5L17,25L3,25L3,17L2,16L2,15.5L3,14.5L5.5,14.5L5.5,7L6.5,6Z" fill="#f4f4f4" />
  <rect x="2" y="6" width="4.5" height="9.5" fill="#0c338c" />
  <rect x="11" y="6" width="4.5" height="9.5" fill="#f8312f" />
  <path d="M16,6L30,6L30,26L2,26L2,16L16,16L16,6ZM19.188,16.714L18.955,17.447L18.236,17.447L18.819,17.899L18.606,18.594L19.188,18.165L19.771,18.613L19.558,17.899L20.14,17.447L19.401,17.447L19.188,16.714ZM26.811,16.714L26.579,17.447L25.86,17.447L26.443,17.899L26.23,18.594L26.811,18.165L27.395,18.613L27.181,17.899L27.764,17.447L27.026,17.447L26.811,16.714ZM20.908,21.821L20.674,22.555L19.956,22.555L20.539,23.012L20.325,23.714L20.908,23.284L21.49,23.731L21.277,23.013L21.86,22.555L21.121,22.555L20.908,21.821ZM25.092,21.821L24.86,22.555L24.141,22.555L24.723,23.012L24.511,23.714L25.092,23.284L25.675,23.731L25.461,23.013L26.044,22.555L25.306,22.555L25.092,21.821ZM23,23.29L22.767,24.024L22.048,24.024L22.631,24.494L22.418,25.209L23,24.777L23.583,25.22L23.369,24.496L23.952,24.024L23.214,24.024L23,23.29ZM20.487,20.743L21.928,20.743L23,22.63L24.072,20.743L25.513,20.743L25.652,20.972L26.536,20.972L24.768,18.21L23.553,20.089L23.553,18.104L24.396,18.104L24.888,17.432L23.553,17.432L23.553,16.687L25.173,16.687L25.771,16L20.229,16L20.827,16.687L22.448,16.687L22.448,20.089L21.233,18.21L19.465,20.972L20.348,20.972L20.487,20.743ZM21.678,20.302L20.756,20.302L21.233,19.519L21.678,20.302ZM25.245,20.302L24.323,20.302L24.768,19.519L25.245,20.302Z" fill="#0c338c" />
</svg>
