<svg width="32" height="32" viewBox="0 0 32 32" xmlns="http://www.w3.org/2000/svg">
  <rect fill="#f4f4f4" x="2" y="6" width="28" height="20" />
  <path d="M18.647,12.219C16.559,10.758 13.682,11.265 12.219,13.353C11.488,14.396 11.742,15.835 12.786,16.568C13.83,17.298 15.269,17.043 16,16C16.731,14.957 18.171,14.702 19.214,15.434C20.258,16.165 20.512,17.604 19.781,18.648C21.243,16.56 20.735,13.682 18.647,12.219Z" fill="#CF0828" />
  <path d="M19.214,15.434C18.171,14.702 16.731,14.957 16,16C15.269,17.043 13.83,17.298 12.786,16.567C11.742,15.835 11.488,14.396 12.219,13.352C10.757,15.442 11.265,18.318 13.352,19.78C15.441,21.242 18.318,20.735 19.78,18.646C20.512,17.604 20.258,16.165 19.214,15.434Z" fill="#072975" />
  <path d="M20.872,21.825L22.355,20.057L22.945,20.552L21.462,22.319L20.872,21.825ZM22.849,19.468L24.332,17.702L24.922,18.196L23.438,19.963L22.849,19.468ZM22.051,22.815L23.534,21.048L24.123,21.543L22.64,23.31L22.051,22.815ZM24.029,20.457L25.514,18.69L26.103,19.185L24.618,20.952L24.029,20.457ZM23.228,23.805L24.713,22.038L25.302,22.532L23.818,24.299L23.228,23.805ZM25.206,21.447L26.688,19.678L27.278,20.172L25.796,21.942L25.206,21.447ZM25.209,10.553L25.798,10.058L27.283,11.827L26.693,12.322L25.209,10.553ZM23.231,8.195L23.82,7.7L25.303,9.468L24.713,9.962L23.231,8.195ZM22.052,9.185L22.641,8.691L26.102,12.815L25.513,13.31L22.052,9.185ZM20.873,10.173L21.463,9.678L22.945,11.446L22.356,11.94L20.873,10.173ZM22.85,12.531L23.439,12.036L24.924,13.803L24.335,14.298L22.85,12.531ZM7.077,18.195L7.666,17.701L11.127,21.826L10.537,22.321L7.077,18.195ZM5.9,19.185L6.488,18.691L7.972,20.458L7.382,20.953L5.9,19.185ZM7.875,21.543L8.464,21.048L9.948,22.815L9.359,23.31L7.875,21.543ZM4.72,20.173L5.309,19.678L8.771,23.803L8.181,24.298L4.72,20.173ZM4.719,11.825L8.179,7.701L8.769,8.195L5.308,12.32L4.719,11.825ZM5.898,12.815L9.359,8.69L9.948,9.185L6.487,13.309L5.898,12.815ZM7.077,13.804L10.538,9.678L11.128,10.173L7.666,14.298L7.077,13.804Z" fill="#1c1c1c" />

</svg>
