<svg width="32" height="32" viewBox="0 0 32 32" xmlns="http://www.w3.org/2000/svg">
  <path d="M3,20L2,18.667L2,16.833L11,15L10,14L11,13.2L12,12L11,11.4L10,11L11,9.6L12,9L11,7.8L10,7L11,6L30,6L30,7.8L29,9L30,9.6L30,11.4L29,12L30,13.2L30,15L29,16L30,16.833L30,18.667L29,20L30,20.5L30,22.333L29,23L30,24.167L30,26L2,26L2,24.167L3,23L2,22.333L2,20.5L3,20Z" fill="#CF0828" />
  <path d="M11,6L11,7.8L12,9L11,9.6L11,11.4L12,12L11,13.2L11,15L10,15.983L3,15.983L2,15L2,6L11,6Z" fill="#062365" />
  <path d="M6.5,7.8L4.913,12.684L9.068,9.666L3.932,9.666L8.087,12.684L6.5,7.8ZM30,7.8L30,9.6L11,9.6L11,7.8L30,7.8ZM30,11.4L30,13.2L11,13.2L11,11.4L30,11.4ZM30,15L30,16.833L2,16.833L2,15L30,15ZM30,18.667L30,20.5L2,20.5L2,18.667L30,18.667ZM30,22.333L30,24.167L2,24.167L2,22.333L30,22.333Z" fill="#f4f4f4" />
</svg>
