<svg width="32" height="32" viewBox="0 0 32 32" xmlns="http://www.w3.org/2000/svg">
  <polygon fill="#1345B7" points="2,12.75 3,11.75 29,11.75 30,12.75 30,19.25 29,20.25 3,20.25 2,19.25" />
  <rect fill="#f4f4f4" x="2" y="6" width="28" height="6.75" />
  <rect fill="#F8312F" x="2" y="19.25" width="28" height="6.75" />
  <path d="M10.712,8.84C8.981,8.84 7.763,9.481 7.763,9.481C7.763,9.481 7.875,11.019 8.019,13.391C8.163,15.762 10.712,16.596 10.712,16.596C10.712,16.596 13.259,15.763 13.404,13.391C13.548,11.018 13.66,9.481 13.66,9.481C13.66,9.481 12.442,8.84 10.712,8.84Z" fill="#F8312F" />
  <path d="M13.378,9.355C12.926,9.168 11.956,8.839 10.712,8.839C9.467,8.839 8.497,9.168 8.045,9.355C8.053,9.516 8.15,11.28 8.275,13.327C8.405,15.474 10.711,16.228 10.711,16.228C10.711,16.228 13.017,15.474 13.147,13.327C13.273,11.281 13.37,9.516 13.378,9.355Z" fill="#1345B7" />
  <path d="M11.465,14.996C11.192,14.996 11.064,15.158 10.663,15.158C10.262,15.158 10.198,14.996 9.926,14.996C9.72,14.996 9.592,15.088 9.435,15.134C10.059,15.603 10.712,15.795 10.712,15.795C11.258,15.705 11.688,15.437 12.014,15.135C11.807,15.089 11.672,14.996 11.465,14.996ZM9.958,13.932C10.215,13.932 10.439,14.132 10.712,14.132C10.984,14.132 11.176,13.932 11.465,13.932C11.712,13.932 12.036,14.255 12.511,14.07C12.725,13.709 12.827,13.423 12.827,13.423L11.865,12.045L11.385,12.628L10.712,11.34L10.071,12.628L9.606,12.014C9.606,12.014 9.189,12.508 8.5,13.438C8.582,13.658 8.693,13.848 8.813,14.027C9.358,14.296 9.726,13.932 9.958,13.932ZM12.234,14.513C11.882,14.513 11.737,14.313 11.465,14.313C11.192,14.313 11.064,14.513 10.663,14.513C10.262,14.513 10.198,14.313 9.926,14.313C9.654,14.313 9.518,14.513 9.269,14.513C9.179,14.513 9.078,14.485 8.982,14.448C9.08,14.577 9.176,14.71 9.282,14.82C9.579,14.793 9.8,14.61 9.958,14.61C10.215,14.61 10.439,14.824 10.712,14.824C10.984,14.824 11.176,14.61 11.465,14.61C11.642,14.61 11.862,14.791 12.147,14.818C12.231,14.709 12.305,14.601 12.372,14.493C12.328,14.5 12.285,14.513 12.234,14.513Z" fill="#f4f4f4" />
  <path d="M10.091,9.525L10.258,9.704L10.02,9.648L9.948,9.882L9.877,9.648L9.638,9.704L9.805,9.525L9.638,9.345L9.877,9.401L9.948,9.167L10.02,9.401L10.258,9.345L10.091,9.525ZM11.702,9.525L11.868,9.704L11.63,9.648L11.558,9.882L11.487,9.648L11.248,9.704L11.415,9.525L11.248,9.345L11.487,9.401L11.558,9.167L11.63,9.401L11.868,9.345L11.702,9.525ZM10.868,10.598L11.034,10.778L10.796,10.722L10.725,10.955L10.653,10.722L10.415,10.778L10.582,10.598L10.415,10.419L10.653,10.475L10.725,10.241L10.796,10.475L11.034,10.419L10.868,10.598Z" fill="#fee55e" />
</svg>
