<svg width="32" height="32" viewBox="0 0 32 32" xmlns="http://www.w3.org/2000/svg">
  <polygon fill="#f4f4f4" points="2,12.75 3,11.75 29,11.75 30,12.75 30,19.25 29,20.25 3,20.25 2,19.25" />
  <rect fill="#CF0828" x="2" y="6" width="28" height="6.75" />
  <rect fill="#1c1c1c" x="2" y="19.25" width="28" height="6.75" />
  <path d="M10.213,16.255L9.726,17.753L11,16.828L12.274,17.753L11.787,16.255L13.061,15.331L11.486,15.331L11,13.833L10.514,15.331L8.939,15.331L10.213,16.255ZM20.213,16.255L19.726,17.753L21,16.828L22.274,17.753L21.787,16.255L23.061,15.331L21.486,15.331L21,13.833L20.514,15.331L18.939,15.331L20.213,16.255Z" fill="#01773f" />
</svg>
