<svg width="32" height="32" viewBox="0 0 32 32" xmlns="http://www.w3.org/2000/svg">
  <rect fill="#00b0b4" x="2" y="6" width="28" height="20" />
  <path fill="#FCD53F" d="M16.796,12.652C18.012,12.652 19,13.64 19,14.856C19,16.072 18.012,17.06 16.796,17.06C15.58,17.06 14.592,16.072 14.592,14.856C14.592,13.64 15.58,12.652 16.796,12.652ZM16.798,12.486C16.665,12.486 16.616,12.402 16.616,12.305C16.616,12.174 16.798,11.154 16.798,11.154C16.798,11.154 16.976,12.174 16.976,12.305C16.976,12.402 16.928,12.485 16.798,12.486ZM16.798,17.238C16.928,17.238 16.977,17.322 16.976,17.419C16.976,17.55 16.798,18.557 16.798,18.557C16.798,18.557 16.616,17.551 16.616,17.419C16.616,17.322 16.665,17.239 16.798,17.238ZM16.182,17.145C16.309,17.179 16.336,17.273 16.31,17.368C16.276,17.494 15.837,18.433 15.837,18.433C15.837,18.433 15.928,17.401 15.962,17.275C15.988,17.18 16.055,17.113 16.182,17.145ZM17.412,12.555C17.285,12.521 17.261,12.428 17.286,12.334C17.321,12.206 17.753,11.281 17.753,11.281C17.753,11.281 17.668,12.3 17.635,12.427C17.609,12.521 17.54,12.588 17.412,12.555ZM15.61,16.907C15.725,16.973 15.725,17.07 15.676,17.155C15.611,17.268 14.944,18.062 14.944,18.062C14.944,18.062 15.299,17.088 15.365,16.975C15.413,16.89 15.495,16.843 15.61,16.907ZM17.986,12.791C17.873,12.725 17.873,12.629 17.921,12.545C17.987,12.432 18.645,11.649 18.645,11.649C18.645,11.649 18.3,12.611 18.234,12.725C18.185,12.809 18.101,12.857 17.986,12.791ZM15.119,16.531C15.213,16.623 15.188,16.718 15.119,16.788C15.027,16.879 14.177,17.473 14.177,17.473C14.177,17.473 14.772,16.625 14.865,16.532C14.934,16.463 15.025,16.439 15.119,16.531ZM18.48,13.169C18.388,13.077 18.413,12.985 18.482,12.915C18.575,12.822 19.412,12.236 19.412,12.236C19.412,12.236 18.829,13.077 18.736,13.169C18.667,13.238 18.574,13.262 18.48,13.169ZM14.744,16.039C14.81,16.154 14.762,16.238 14.677,16.288C14.564,16.353 13.589,16.705 13.589,16.705C13.589,16.705 14.383,16.041 14.497,15.975C14.582,15.927 14.677,15.927 14.744,16.039ZM18.859,13.663C18.795,13.549 18.842,13.467 18.927,13.418C19.041,13.352 20.002,13.004 20.002,13.004C20.002,13.004 19.221,13.664 19.107,13.73C19.023,13.778 18.926,13.778 18.859,13.663ZM14.508,15.468C14.542,15.595 14.473,15.664 14.378,15.69C14.252,15.724 13.22,15.812 13.22,15.812C13.22,15.812 14.159,15.375 14.285,15.342C14.38,15.317 14.472,15.342 14.508,15.468ZM19.097,14.237C19.063,14.111 19.132,14.042 19.225,14.018C19.353,13.984 20.372,13.896 20.372,13.896C20.372,13.896 19.446,14.332 19.319,14.365C19.225,14.391 19.132,14.365 19.097,14.237ZM14.427,14.855C14.427,14.987 14.343,15.036 14.245,15.036C14.115,15.036 13.095,14.855 13.095,14.855C13.095,14.855 14.115,14.676 14.245,14.676C14.343,14.676 14.425,14.724 14.427,14.855ZM19.179,14.855C19.179,14.724 19.262,14.675 19.36,14.676C19.491,14.676 20.498,14.855 20.498,14.855C20.498,14.855 19.492,15.036 19.36,15.036C19.262,15.036 19.18,14.987 19.179,14.855ZM14.508,14.242C14.474,14.369 14.38,14.395 14.285,14.37C14.159,14.336 13.22,13.897 13.22,13.897C13.22,13.897 14.252,13.988 14.378,14.022C14.473,14.048 14.54,14.115 14.508,14.242ZM19.098,15.472C19.132,15.345 19.225,15.321 19.318,15.345C19.446,15.379 20.372,15.812 20.372,15.812C20.372,15.812 19.352,15.728 19.225,15.694C19.132,15.668 19.064,15.599 19.098,15.472ZM14.745,13.67C14.678,13.784 14.582,13.785 14.496,13.736C14.383,13.671 13.59,13.004 13.59,13.004C13.59,13.004 14.563,13.359 14.676,13.425C14.762,13.473 14.808,13.556 14.745,13.67ZM18.861,16.046C18.926,15.933 19.022,15.933 19.107,15.982C19.22,16.048 20.002,16.705 20.002,16.705C20.002,16.705 19.04,16.36 18.927,16.294C18.842,16.245 18.795,16.161 18.861,16.046ZM15.121,13.179C15.028,13.273 14.933,13.248 14.864,13.179C14.772,13.087 14.178,12.237 14.178,12.237C14.178,12.237 15.026,12.832 15.119,12.925C15.188,12.994 15.212,13.085 15.121,13.179ZM18.482,16.54C18.575,16.447 18.667,16.472 18.736,16.542C18.829,16.635 19.415,17.472 19.415,17.472C19.415,17.472 18.575,16.889 18.482,16.796C18.413,16.728 18.389,16.634 18.482,16.54ZM15.613,12.803C15.498,12.869 15.413,12.822 15.365,12.736C15.299,12.623 14.947,11.648 14.947,11.648C14.947,11.648 15.612,12.443 15.677,12.556C15.725,12.642 15.725,12.736 15.613,12.803ZM17.989,16.919C18.102,16.853 18.185,16.902 18.235,16.985C18.3,17.099 18.648,18.061 18.648,18.061C18.648,18.061 17.988,17.28 17.922,17.166C17.874,17.082 17.875,16.985 17.989,16.919ZM16.184,12.567C16.056,12.601 15.987,12.532 15.962,12.438C15.928,12.312 15.839,11.279 15.839,11.279C15.839,11.279 16.276,12.218 16.31,12.345C16.335,12.439 16.31,12.532 16.184,12.567ZM17.415,17.157C17.541,17.123 17.609,17.192 17.634,17.286C17.668,17.412 17.755,18.432 17.755,18.432C17.755,18.432 17.32,17.506 17.286,17.379C17.261,17.285 17.287,17.192 17.415,17.157ZM18.958,20.342L18.93,20.355L18.898,20.359L18.875,20.364L18.831,20.355L18.812,20.347L18.794,20.338L18.773,20.325L18.738,20.301L18.707,20.275L18.689,20.263L18.667,20.254L18.652,20.25L18.629,20.25L18.542,20.431L18.525,20.456L18.508,20.477L18.49,20.49L18.475,20.503L18.452,20.512L18.432,20.512L18.412,20.503L18.385,20.49L18.378,20.477L18.368,20.464L18.359,20.447L18.35,20.427L18.338,20.363L18.312,20.384L18.288,20.414L18.241,20.486L18.212,20.524L18.182,20.553L18.166,20.571L18.145,20.584L18.125,20.593L18.099,20.601L18.087,20.601L18.065,20.605L18.044,20.601L18.028,20.593L17.978,20.534L17.923,20.475L17.885,20.534L17.842,20.584L17.821,20.605L17.802,20.625L17.781,20.642L17.742,20.664L17.721,20.668L17.7,20.668L17.682,20.664L17.665,20.655L17.653,20.642L17.637,20.622C17.626,20.59 17.615,20.559 17.602,20.528L17.598,20.507L17.59,20.491L17.581,20.482L17.572,20.482L17.458,20.668L17.442,20.685L17.412,20.698L17.345,20.714L17.306,20.714L17.276,20.705L17.267,20.701L17.255,20.688L17.252,20.68L17.252,20.663L17.267,20.477L17.255,20.482L17.222,20.498C17.192,20.529 17.162,20.562 17.133,20.595L17.095,20.642L17.048,20.681L17.005,20.714L16.98,20.728L16.929,20.735L16.908,20.731L16.899,20.728L16.891,20.718L16.886,20.705L16.886,20.692L16.891,20.638L16.904,20.553L16.895,20.503L16.878,20.474L16.852,20.512L16.811,20.566C16.776,20.604 16.741,20.641 16.705,20.677C16.685,20.69 16.665,20.705 16.645,20.719L16.599,20.735L16.59,20.731L16.577,20.731L16.568,20.723L16.565,20.718L16.555,20.705L16.552,20.692L16.552,20.676L16.548,20.655L16.552,20.495C16.475,20.547 16.398,20.598 16.319,20.646L16.29,20.659L16.257,20.676C16.225,20.684 16.195,20.692 16.164,20.701L16.133,20.701L16.105,20.697L16.078,20.688L16.092,20.654L16.117,20.595L16.133,20.57L16.152,20.545L16.168,20.519L16.211,20.477L16.258,20.444L16.312,20.409L16.367,20.384L16.431,20.363L16.494,20.347L16.638,20.322L16.709,20.312C16.922,20.3 17.135,20.298 17.347,20.3L17.58,20.287L17.652,20.278L17.786,20.253L17.851,20.235L17.911,20.211L17.966,20.185C17.995,20.162 18.025,20.139 18.056,20.118L18.097,20.07L18.053,19.986L18.088,19.982L18.121,19.974L18.155,19.957L18.184,19.935L18.196,19.928L18.21,19.915L18.219,19.898L18.228,19.885L18.232,19.868L18.232,19.839L18.222,19.822L18.295,19.809L18.372,19.801L18.452,19.796L18.536,19.796C18.654,19.801 18.771,19.808 18.888,19.817C19.065,19.838 19.242,19.855 19.42,19.872L19.579,19.881L19.579,19.939L19.576,19.965L19.567,19.99L19.559,20.015L19.55,20.036L19.538,20.053C19.523,20.07 19.507,20.087 19.491,20.103L19.453,20.128L19.412,20.145L19.372,20.154L19.325,20.162L19.235,20.154L19.188,20.141L19.147,20.119L19.103,20.098L19.07,20.068L19.037,20.035L19.037,20.108C19.031,20.155 19.023,20.201 19.016,20.248L19,20.292L18.991,20.309L18.978,20.322L18.969,20.335L18.958,20.342ZM15.56,19.945L15.557,19.945L15.557,19.923L15.56,19.893L15.569,19.872L15.582,19.852L15.629,19.805L15.654,19.788L15.688,19.771L15.725,19.75C15.869,19.692 16.015,19.639 16.158,19.581L16.25,19.538L16.292,19.512L16.335,19.483L16.445,19.399L16.538,19.306L16.783,19.032L16.851,18.964C16.883,18.934 16.915,18.904 16.948,18.875L16.977,18.855L17.002,18.842L17.015,18.838L17.028,18.833L17.164,18.825L17.432,18.791L17.562,18.769L17.824,18.711L18.076,18.634L18.381,18.525L18.677,18.388L18.863,18.279C18.97,18.212 19.075,18.142 19.177,18.068C19.261,18.003 19.343,17.938 19.425,17.87C19.504,17.798 19.582,17.724 19.658,17.649C19.731,17.571 19.803,17.492 19.874,17.412C19.946,17.322 20.016,17.228 20.084,17.134L20.185,16.982L20.278,16.822C20.328,16.728 20.377,16.634 20.422,16.538C20.489,16.383 20.549,16.224 20.599,16.062C20.635,15.933 20.666,15.803 20.692,15.672L20.725,15.655L20.76,15.647L20.772,15.642L20.786,15.642L20.798,15.647L20.824,15.655L20.833,15.664L20.851,15.689L20.863,15.723L20.871,15.765C20.875,15.802 20.878,15.838 20.88,15.875L20.875,15.948L20.858,16.122C20.848,16.192 20.837,16.262 20.825,16.333L20.799,16.455L20.838,16.4L20.902,16.278C20.928,16.21 20.952,16.142 20.977,16.075C21.043,15.832 21.101,15.588 21.177,15.348L21.182,15.338L21.194,15.335L21.202,15.331L21.228,15.326L21.257,15.326L21.288,15.335L21.317,15.348L21.338,15.368L21.347,15.382L21.359,15.432L21.364,15.471L21.367,15.508L21.373,15.551C21.369,15.609 21.365,15.667 21.359,15.725C21.348,15.787 21.335,15.848 21.32,15.91L21.262,16.101L21.228,16.194L21.152,16.375L21.033,16.624L20.958,16.765L21.016,16.714L21.07,16.658L21.177,16.532C21.269,16.405 21.358,16.275 21.443,16.143C21.478,16.095 21.515,16.048 21.553,16.003L21.588,15.973L21.6,15.961L21.618,15.952L21.63,15.948L21.646,15.943L21.704,15.943L21.735,15.952L21.759,15.965L21.773,15.969L21.782,15.978L21.798,16.003L21.802,16.016L21.802,16.05L21.798,16.071L21.777,16.129L21.744,16.202L21.702,16.278L21.649,16.363L21.597,16.455L21.402,16.73C21.302,16.861 21.198,16.99 21.089,17.115C21.06,17.145 21.03,17.174 20.999,17.203L20.971,17.228L21.064,17.182C21.097,17.162 21.129,17.14 21.162,17.118C21.23,17.061 21.298,17.003 21.365,16.945L21.467,16.848C21.551,16.759 21.636,16.672 21.722,16.585L21.74,16.572L21.752,16.558L21.775,16.555L21.791,16.551L21.824,16.551L21.842,16.555L21.858,16.563L21.871,16.568L21.884,16.581L21.896,16.589L21.901,16.603L21.905,16.615L21.908,16.633L21.905,16.646L21.896,16.662C21.868,16.706 21.838,16.75 21.808,16.793C21.77,16.839 21.733,16.885 21.697,16.933L21.575,17.068C21.49,17.158 21.403,17.245 21.314,17.331C21.233,17.402 21.152,17.472 21.069,17.542L20.967,17.618L21,17.632L21.039,17.632L21.072,17.627L21.107,17.618L21.145,17.605L21.184,17.589L21.217,17.568C21.277,17.534 21.337,17.498 21.395,17.462L21.462,17.437L21.492,17.432L21.52,17.432L21.52,17.487L21.508,17.538L21.487,17.585L21.462,17.631L21.427,17.673L21.389,17.715C21.358,17.744 21.326,17.772 21.293,17.799L21.172,17.884C21.015,17.982 20.86,18.083 20.706,18.185L20.725,18.193L20.739,18.202L20.762,18.205L20.837,18.205L20.892,18.202L21.009,18.202L21.022,18.205L21.035,18.215L21.039,18.228L21.035,18.241L21.022,18.253L21.009,18.27L20.997,18.283L20.962,18.304L20.925,18.325L20.845,18.358C20.792,18.374 20.74,18.392 20.688,18.409C20.598,18.433 20.507,18.458 20.418,18.486L20.358,18.511L20.392,18.519L20.446,18.528C20.49,18.53 20.533,18.533 20.577,18.536L20.642,18.536L20.695,18.541L20.735,18.549L20.742,18.558L20.747,18.562L20.729,18.578L20.688,18.605C20.658,18.618 20.627,18.631 20.595,18.642L20.523,18.664L20.11,18.756L20.142,18.769L20.194,18.782L20.252,18.791L20.311,18.795L20.371,18.804L20.418,18.813L20.434,18.821L20.446,18.825L20.455,18.834L20.458,18.838L20.446,18.852L20.429,18.861L20.365,18.877L20.281,18.885C20.215,18.895 20.148,18.903 20.082,18.91C20.032,18.921 19.98,18.932 19.929,18.945L19.885,18.961L19.845,18.978L19.812,19.002L19.851,19.024C19.875,19.034 19.899,19.045 19.923,19.057L19.955,19.072L20.021,19.092L20.09,19.126L19.975,19.193L19.866,19.262L19.751,19.325L19.634,19.379C19.574,19.403 19.514,19.426 19.452,19.447L19.359,19.472L19.254,19.493L19.014,19.518C18.916,19.519 18.818,19.518 18.721,19.515L18.811,19.502L18.975,19.467C19.048,19.444 19.119,19.418 19.191,19.391L19.254,19.362L19.318,19.332L19.427,19.268L19.525,19.205C19.579,19.168 19.633,19.128 19.685,19.088L19.668,19.002L19.655,18.965L19.646,18.926L19.729,18.926L19.788,18.918L19.818,18.905L19.843,18.892L19.872,18.871L19.902,18.842L19.818,18.758L19.878,18.728L19.974,18.694L20.023,18.672L20.064,18.652L20.079,18.639L20.095,18.627L20.105,18.613L20.111,18.597L20.095,18.583L20.079,18.571L20.07,18.558L20.067,18.541L20.076,18.528L20.084,18.515L20.096,18.502L20.161,18.464C20.212,18.438 20.265,18.412 20.317,18.388L20.401,18.341L20.388,18.345L20.375,18.341L20.358,18.332L20.342,18.328L20.302,18.311L20.274,18.307L20.337,18.256L20.405,18.209L20.472,18.167L20.608,18.091C20.648,18.066 20.687,18.041 20.726,18.015L20.775,17.976L20.735,17.967C20.697,17.957 20.66,17.945 20.623,17.934L20.573,17.929C20.634,17.875 20.692,17.821 20.751,17.765L20.772,17.743L20.788,17.723L20.805,17.698L20.818,17.672L20.825,17.647L20.83,17.618L20.83,17.588L20.825,17.558L20.746,17.567L20.691,17.584L20.662,17.596L20.632,17.605L20.595,17.614L20.551,17.618L20.606,17.559L20.652,17.501L20.69,17.445L20.722,17.391L20.759,17.285L20.772,17.235L20.775,17.184L20.728,17.176L20.678,17.172L20.632,17.176L20.582,17.179L20.483,17.205L20.438,17.222L20.391,17.243C20.359,17.259 20.328,17.276 20.298,17.294L20.254,17.323L20.213,17.353L20.132,17.42C20.077,17.468 20.023,17.517 19.971,17.568C19.928,17.617 19.885,17.665 19.84,17.712L19.742,17.843L19.705,17.907L19.675,17.969L19.654,18.033L19.578,18.084C19.42,18.165 19.261,18.245 19.099,18.321C19.008,18.368 18.918,18.415 18.826,18.461L18.698,18.536L18.615,18.592L18.542,18.646L18.481,18.698L18.425,18.752L18.344,18.841L18.293,18.905C18.243,18.916 18.194,18.928 18.145,18.942L17.946,18.976C17.797,18.993 17.648,19.013 17.498,19.031C17.352,19.054 17.207,19.085 17.064,19.124L16.992,19.148C16.956,19.165 16.922,19.182 16.886,19.199L16.857,19.216L16.832,19.233C16.77,19.292 16.708,19.349 16.645,19.406L16.582,19.457L16.498,19.516C16.402,19.577 16.305,19.638 16.21,19.701L16.172,19.727L16.078,19.777L16.023,19.798L15.914,19.848L15.787,19.899L15.753,19.921L15.715,19.941C15.695,19.955 15.675,19.971 15.656,19.987L15.56,19.945ZM17.108,20.135L17.179,20.144L17.214,20.157L17.222,20.161L17.222,20.165L17.214,20.165L17.205,20.169L17.137,20.182L17.083,20.182L16.906,20.169L16.458,20.161C16.339,20.162 16.221,20.165 16.102,20.169C15.998,20.177 15.894,20.185 15.789,20.195L15.708,20.208L15.637,20.224C15.62,20.23 15.604,20.236 15.587,20.241L15.565,20.25L15.548,20.263L15.556,20.22L15.575,20.177L15.515,20.194L15.465,20.219L15.445,20.232L15.427,20.249L15.414,20.269L15.411,20.291L15.398,20.262L15.389,20.235C15.387,20.217 15.384,20.198 15.38,20.181C15.385,20.158 15.389,20.136 15.392,20.114L15.406,20.092L15.414,20.075L15.432,20.055L15.465,20.022L15.512,19.992L15.564,19.962C15.591,19.978 15.621,19.991 15.652,20C15.678,20.004 15.71,19.999 15.742,19.992C15.788,20.033 15.91,20.025 15.927,19.949C15.934,19.925 15.933,19.893 15.927,19.865L15.978,19.861L16.037,19.852L16.168,19.818L16.236,19.805L16.299,19.788L16.358,19.78L16.408,19.775L16.388,19.793L16.278,19.877L16.236,19.906L16.29,19.92L16.337,19.928L16.237,20.042L16.211,20.076L16.244,20.089L16.278,20.098L16.316,20.107L16.392,20.107L16.468,20.09L16.498,20.072L16.532,20.09L16.566,20.103C16.588,20.109 16.61,20.115 16.632,20.12C16.685,20.125 16.737,20.132 16.79,20.136L17.108,20.136L17.108,20.135ZM16.723,18.85L16.685,18.926L16.642,19.024C16.62,19.064 16.599,19.105 16.58,19.145L16.558,19.167L16.508,19.125L16.453,19.086L16.394,19.056L16.332,19.032L16.195,18.997L16.128,18.985C16.055,18.976 15.982,18.969 15.908,18.964C15.811,18.962 15.714,18.958 15.617,18.95L15.482,18.934L15.405,18.921L15.334,18.905L15.258,18.878L15.195,18.845L15.148,18.815L15.051,18.743C14.909,18.61 14.769,18.475 14.624,18.345L14.54,18.287L14.502,18.27L14.462,18.258L14.39,18.242C14.348,18.227 14.306,18.212 14.264,18.199C14.225,18.18 14.185,18.162 14.145,18.145C14.075,18.102 14.008,18.055 13.942,18.005L13.9,17.965L13.816,17.882L13.735,17.793C13.602,17.631 13.477,17.463 13.347,17.298C13.285,17.232 13.222,17.168 13.157,17.104L13.102,17.054L13.047,17.008L12.925,16.919L12.913,16.923L12.899,16.936L12.886,16.953C12.878,16.972 12.872,16.992 12.866,17.012L12.862,17.029L12.831,17.015L12.805,17.002L12.775,16.989L12.749,16.981L12.695,16.981L12.665,16.989L12.635,17.002C12.658,17.032 12.681,17.061 12.702,17.091L12.74,17.15L12.808,17.281L12.833,17.345L12.842,17.378L12.852,17.404L12.855,17.433L12.855,17.458L12.628,17.458L12.661,17.508C12.686,17.543 12.713,17.577 12.74,17.61L12.88,17.75L12.927,17.788L12.97,17.818C12.933,17.822 12.897,17.825 12.86,17.827L12.749,17.839L12.787,17.874C12.82,17.897 12.852,17.921 12.885,17.945L12.939,17.983L12.995,18.017L13.049,18.047L13.1,18.064L13.147,18.076L13.185,18.085L13.197,18.089L13.206,18.098L13.209,18.102L13.209,18.118L13.197,18.153L13.194,18.178L13.188,18.195L13.188,18.207L13.194,18.228L13.197,18.245L13.206,18.253L13.218,18.262L13.235,18.271L13.256,18.275L13.299,18.292L13.32,18.3L13.337,18.313L13.341,18.318L13.341,18.326L13.337,18.331L13.303,18.355L13.286,18.372L13.269,18.393L13.269,18.411L13.265,18.428L13.274,18.473L13.422,18.524L13.455,18.532L13.489,18.545L13.515,18.558L13.536,18.572L13.396,18.682L13.434,18.715L13.481,18.741L13.54,18.77C13.582,18.785 13.625,18.799 13.668,18.813L13.731,18.825L13.786,18.838L13.836,18.838L13.789,18.872L13.73,18.91L13.667,18.945L13.62,18.978L13.662,19.008C13.791,19.074 13.922,19.135 14.056,19.19C14.29,19.285 14.529,19.368 14.77,19.443C14.824,19.456 14.877,19.47 14.93,19.485L14.998,19.498L14.862,19.485C14.777,19.475 14.693,19.462 14.608,19.447L14.49,19.422L14.257,19.355L14.148,19.316C13.855,19.202 13.57,19.072 13.277,18.961L13.298,18.948L13.358,18.927L13.395,18.918C13.447,18.903 13.497,18.886 13.548,18.868C13.447,18.852 13.347,18.835 13.247,18.814C13.195,18.797 13.143,18.782 13.091,18.767L13.061,18.754L13.035,18.741L13.015,18.727L13.001,18.715L13.001,18.711L13.005,18.706L13.018,18.702L13.031,18.693L13.065,18.68L13.212,18.637L13.298,18.608C13.175,18.585 13.052,18.564 12.929,18.545L12.87,18.531L12.823,18.515L12.806,18.505L12.79,18.492L12.776,18.485L12.768,18.471L12.781,18.462L12.818,18.454C12.858,18.448 12.898,18.441 12.937,18.433L13.005,18.425C13.043,18.414 13.081,18.402 13.118,18.39L13.136,18.378L13.153,18.364L13.086,18.338L13.043,18.331L13.001,18.322L12.807,18.296L12.756,18.284L12.709,18.275L12.616,18.242L12.573,18.22L12.538,18.195L12.505,18.165L12.479,18.128L12.488,18.123L12.505,18.118L12.526,18.118L12.56,18.123L12.721,18.132L12.815,18.141L12.932,18.141L12.965,18.136L12.992,18.128L13.008,18.118C12.929,18.086 12.85,18.052 12.772,18.017C12.72,17.991 12.668,17.965 12.615,17.941L12.455,17.857L12.378,17.81C12.332,17.777 12.285,17.743 12.239,17.708L12.18,17.658L12.154,17.628L12.128,17.603L12.112,17.578L12.094,17.548L12.077,17.523L12.068,17.494L12.061,17.439L12.089,17.439L12.123,17.443L12.157,17.457L12.191,17.469L12.258,17.512L12.334,17.554L12.368,17.575L12.405,17.595L12.443,17.612L12.477,17.625L12.515,17.635L12.548,17.638L12.587,17.638L12.62,17.625L12.52,17.548C12.437,17.48 12.355,17.409 12.275,17.338C12.141,17.211 12.012,17.078 11.889,16.94L11.835,16.868L11.78,16.801C11.75,16.758 11.72,16.714 11.691,16.669L11.683,16.652L11.683,16.623L11.687,16.61L11.691,16.598L11.704,16.589L11.716,16.576L11.73,16.567L11.746,16.562L11.763,16.559L11.797,16.559L11.818,16.562L11.836,16.567L11.852,16.58C11.944,16.671 12.034,16.762 12.122,16.855C12.22,16.949 12.322,17.04 12.427,17.126L12.524,17.188L12.574,17.215L12.621,17.231L12.588,17.21L12.499,17.122C12.391,16.997 12.288,16.868 12.186,16.737C12.142,16.675 12.098,16.614 12.055,16.551C12.016,16.489 11.977,16.429 11.936,16.369C11.904,16.316 11.873,16.263 11.843,16.208C11.826,16.165 11.808,16.121 11.789,16.078L11.784,16.057L11.784,16.022L11.789,16.01L11.805,15.985L11.815,15.975L11.828,15.968L11.882,15.95L11.942,15.95L11.958,15.954L11.971,15.958L11.988,15.968L12.035,16.01L12.145,16.15C12.231,16.282 12.322,16.412 12.415,16.538L12.515,16.665L12.571,16.72L12.63,16.771C12.563,16.643 12.498,16.514 12.436,16.383C12.41,16.323 12.385,16.262 12.36,16.202L12.326,16.108C12.308,16.045 12.288,15.981 12.267,15.918L12.246,15.825L12.231,15.73L12.222,15.642L12.218,15.558L12.222,15.515L12.227,15.477L12.231,15.438L12.239,15.401L12.248,15.387L12.252,15.375L12.265,15.361L12.273,15.353L12.302,15.34L12.332,15.332L12.362,15.332L12.387,15.337L12.399,15.34L12.408,15.345L12.413,15.354L12.418,15.366C12.49,15.602 12.549,15.842 12.612,16.082C12.636,16.148 12.662,16.215 12.688,16.28L12.718,16.343L12.752,16.402L12.789,16.462L12.765,16.338C12.755,16.268 12.744,16.198 12.731,16.128C12.722,16.047 12.715,15.965 12.71,15.883L12.718,15.773L12.727,15.73L12.74,15.697L12.757,15.672L12.765,15.662L12.778,15.654L12.79,15.65L12.828,15.65L12.863,15.662L12.896,15.679L12.955,15.945C12.977,16.026 13.001,16.107 13.027,16.186C13.07,16.307 13.117,16.427 13.167,16.545L13.226,16.668L13.311,16.829L13.403,16.989L13.505,17.142L13.615,17.293L13.717,17.42C13.788,17.5 13.859,17.579 13.932,17.657C14.008,17.732 14.086,17.805 14.165,17.876L14.288,17.978C14.4,18.066 14.515,18.149 14.635,18.228C14.728,18.283 14.822,18.337 14.918,18.388L15.208,18.528C15.356,18.587 15.505,18.641 15.656,18.688C15.804,18.728 15.954,18.762 16.105,18.79C16.307,18.822 16.515,18.842 16.723,18.85Z" />
  <path fill="#FDBB11" d="M5.521,22.603C5.604,22.626 5.658,22.67 5.69,22.726C5.491,22.782 5.201,22.782 5.046,22.721C4.867,22.701 4.742,22.563 4.705,22.494C4.669,22.423 4.597,22.172 4.705,21.945C4.824,21.698 5.382,20.514 5.556,20.141C5.593,20.062 5.615,19.978 5.615,19.887C5.615,19.66 5.407,19.58 5.289,19.58C5.146,19.58 5.002,19.689 5.002,19.823C5.002,19.909 5.049,19.96 5.115,19.96C5.275,19.96 5.265,19.824 5.233,19.738C5.332,19.784 5.391,19.862 5.375,19.947C5.432,19.955 5.485,19.982 5.535,20.037C5.495,20.088 5.448,20.125 5.375,20.125C5.407,20.256 5.319,20.312 5.233,20.342C5.26,20.246 5.278,20.135 5.115,20.135C4.995,20.135 4.902,20.114 4.847,20.036C4.843,20.14 4.833,20.548 4.833,20.548C4.827,20.702 5.039,20.697 5.173,20.652C5.122,20.828 5.018,20.925 4.775,20.9C4.835,20.925 4.897,20.98 4.897,21.085C4.897,21.23 4.78,21.389 4.704,21.437L4.665,19.938C4.665,19.555 5.01,19.358 5.281,19.358C5.645,19.358 5.84,19.576 5.84,19.861C5.84,20.024 5.81,20.125 5.735,20.28L4.899,22.016C4.87,22.077 4.86,22.146 4.86,22.247C4.86,22.402 5.012,22.53 5.17,22.534C5.314,22.538 5.472,22.399 5.472,22.242C5.472,22.05 5.373,21.965 5.271,21.965C5.145,21.965 5.095,22.016 5.095,22.105C5.095,22.167 5.125,22.193 5.168,22.193C5.275,22.193 5.245,22.048 5.245,22.048C5.299,22.061 5.342,22.115 5.318,22.184C5.357,22.192 5.393,22.212 5.422,22.245C5.393,22.273 5.359,22.295 5.318,22.302C5.343,22.385 5.309,22.425 5.237,22.443C5.252,22.41 5.252,22.382 5.247,22.354C5.132,22.386 4.957,22.335 4.957,22.137C4.957,21.94 5.093,21.775 5.349,21.815C5.288,21.788 5.258,21.728 5.252,21.661C5.298,21.68 5.349,21.682 5.349,21.682C5.319,21.63 5.278,21.585 5.279,21.48C5.327,21.502 5.371,21.542 5.432,21.516C5.336,21.329 5.453,21.072 5.752,21.01C5.642,21.137 5.589,21.275 5.589,21.413C5.589,21.859 5.714,21.933 5.714,22.242C5.714,22.37 5.649,22.508 5.521,22.603ZM4.704,24.094L4.805,24.222C4.805,24.222 4.658,24.395 4.482,24.395C4.347,24.395 4.209,24.31 4.209,24.156C4.209,23.952 4.542,23.427 4.542,23.198C4.542,23.025 4.415,22.934 4.248,22.939C4.062,22.945 3.922,23.032 3.922,23.208C3.922,23.396 4.018,23.473 4.137,23.478C4.255,23.483 4.307,23.402 4.307,23.344C4.307,23.277 4.265,23.261 4.219,23.261C4.117,23.261 4.157,23.422 4.157,23.422C4.095,23.386 4.052,23.341 4.09,23.261C4.039,23.263 3.995,23.242 3.966,23.205C3.995,23.171 4.037,23.152 4.09,23.148C4.059,23.062 4.102,23.022 4.171,23.004C4.153,23.042 4.144,23.092 4.162,23.129C4.187,23.111 4.232,23.098 4.262,23.098C4.357,23.098 4.453,23.196 4.453,23.335C4.453,23.516 4.3,23.689 4.051,23.625C4.136,23.684 4.172,23.745 4.177,23.804C4.122,23.793 4.097,23.782 4.062,23.8C4.105,23.856 4.137,23.923 4.117,23.979C4.082,23.946 4.043,23.937 3.999,23.943C4.077,24.149 3.939,24.405 3.662,24.433C3.662,24.433 3.819,24.19 3.819,23.998C3.819,23.653 3.692,23.527 3.692,23.222C3.692,23.024 3.807,22.897 3.92,22.837C3.819,22.832 3.779,22.807 3.719,22.726C3.719,22.726 4.039,22.678 4.235,22.712C4.528,22.762 4.765,22.86 4.765,23.215C4.765,23.432 4.361,24.046 4.46,24.169C4.522,24.245 4.704,24.094 4.704,24.094ZM5.521,15.878C5.602,15.901 5.656,15.943 5.689,16C5.489,16.057 5.199,16.055 5.045,15.995C4.865,15.974 4.741,15.837 4.704,15.768C4.667,15.698 4.595,15.446 4.704,15.22C4.822,14.972 5.381,13.788 5.555,13.415C5.591,13.336 5.614,13.252 5.614,13.162C5.614,12.934 5.405,12.854 5.287,12.854C5.145,12.854 5,12.962 5,13.096C5,13.182 5.047,13.234 5.113,13.234C5.274,13.234 5.264,13.097 5.232,13.012C5.331,13.056 5.389,13.136 5.373,13.221C5.43,13.228 5.484,13.255 5.533,13.312C5.494,13.361 5.446,13.398 5.373,13.399C5.405,13.531 5.318,13.586 5.232,13.616C5.259,13.521 5.276,13.41 5.113,13.41C4.994,13.41 4.9,13.389 4.845,13.312C4.842,13.415 4.832,13.824 4.832,13.824C4.825,13.977 5.037,13.973 5.172,13.927C5.122,14.104 5.018,14.199 4.775,14.175C4.835,14.199 4.897,14.255 4.897,14.361C4.897,14.505 4.78,14.665 4.704,14.712L4.665,13.213C4.665,12.828 5.01,12.632 5.281,12.632C5.645,12.632 5.84,12.85 5.84,13.135C5.84,13.298 5.81,13.399 5.735,13.554L4.899,15.291C4.87,15.352 4.86,15.42 4.86,15.521C4.86,15.677 5.012,15.804 5.17,15.808C5.314,15.812 5.472,15.673 5.472,15.516C5.472,15.325 5.373,15.24 5.271,15.24C5.145,15.24 5.095,15.292 5.095,15.38C5.095,15.441 5.125,15.468 5.168,15.468C5.275,15.468 5.245,15.323 5.245,15.323C5.299,15.335 5.342,15.389 5.318,15.457C5.357,15.465 5.393,15.486 5.422,15.518C5.393,15.547 5.359,15.568 5.318,15.576C5.343,15.659 5.309,15.699 5.237,15.717C5.252,15.685 5.252,15.655 5.247,15.628C5.132,15.66 4.957,15.609 4.957,15.411C4.957,15.215 5.093,15.049 5.349,15.09C5.288,15.061 5.258,15.002 5.252,14.935C5.298,14.954 5.349,14.955 5.349,14.955C5.319,14.903 5.278,14.858 5.279,14.754C5.327,14.775 5.371,14.815 5.432,14.79C5.336,14.602 5.453,14.345 5.752,14.284C5.642,14.412 5.589,14.55 5.589,14.687C5.589,15.132 5.714,15.207 5.714,15.517C5.714,15.644 5.649,15.782 5.521,15.878ZM3.888,9.398C3.805,9.374 3.75,9.331 3.719,9.274C3.919,9.218 4.208,9.218 4.363,9.28C4.542,9.301 4.667,9.438 4.704,9.508C4.741,9.577 4.812,9.828 4.704,10.055C4.585,10.303 4.027,11.487 3.853,11.859C3.816,11.938 3.794,12.022 3.794,12.112C3.794,12.341 4.002,12.42 4.121,12.42C4.263,12.42 4.408,12.312 4.408,12.177C4.408,12.092 4.361,12.039 4.295,12.039C4.134,12.039 4.144,12.175 4.175,12.262C4.076,12.217 4.018,12.137 4.034,12.052C3.978,12.045 3.924,12.018 3.874,11.962C3.913,11.912 3.961,11.875 4.034,11.874C4.002,11.743 4.089,11.687 4.175,11.656C4.149,11.752 4.131,11.864 4.295,11.864C4.414,11.864 4.508,11.884 4.562,11.962L4.576,11.449C4.582,11.296 4.37,11.301 4.235,11.346C4.286,11.169 4.391,11.074 4.632,11.098C4.573,11.073 4.511,11.018 4.511,10.912C4.511,10.768 4.627,10.608 4.704,10.561L4.742,12.061C4.742,12.445 4.397,12.642 4.126,12.642C3.762,12.642 3.567,12.424 3.567,12.138C3.567,11.976 3.597,11.875 3.672,11.719L4.508,9.982C4.537,9.922 4.546,9.853 4.546,9.752C4.546,9.597 4.395,9.469 4.237,9.465C4.092,9.462 3.935,9.6 3.935,9.758C3.935,9.949 4.034,10.034 4.136,10.034C4.262,10.034 4.312,9.982 4.312,9.894C4.312,9.832 4.282,9.806 4.239,9.806C4.132,9.806 4.162,9.951 4.162,9.951C4.109,9.939 4.065,9.885 4.089,9.816C4.051,9.809 4.015,9.788 3.985,9.755C4.014,9.728 4.048,9.706 4.089,9.698C4.065,9.615 4.099,9.575 4.171,9.558C4.156,9.59 4.156,9.619 4.161,9.647C4.275,9.615 4.451,9.667 4.451,9.864C4.451,10.06 4.315,10.225 4.059,10.185C4.12,10.214 4.151,10.273 4.156,10.339C4.11,10.322 4.059,10.319 4.059,10.319C4.089,10.372 4.13,10.417 4.129,10.521C4.081,10.499 4.038,10.459 3.976,10.485C4.072,10.672 3.955,10.93 3.656,10.992C3.765,10.863 3.819,10.725 3.819,10.588C3.819,10.143 3.695,10.068 3.695,9.758C3.695,9.631 3.76,9.493 3.888,9.398ZM3.888,16.123C3.805,16.1 3.75,16.058 3.719,16C3.919,15.944 4.208,15.945 4.363,16.006C4.542,16.027 4.667,16.164 4.704,16.233C4.741,16.303 4.812,16.554 4.704,16.781C4.585,17.028 4.027,18.212 3.853,18.585C3.816,18.664 3.794,18.747 3.794,18.838C3.794,19.066 4.002,19.145 4.121,19.145C4.263,19.145 4.408,19.037 4.408,18.902C4.408,18.818 4.361,18.766 4.295,18.766C4.134,18.766 4.144,18.902 4.175,18.988C4.076,18.943 4.018,18.862 4.034,18.778C3.978,18.771 3.924,18.745 3.874,18.688C3.913,18.64 3.961,18.603 4.034,18.6C4.002,18.469 4.089,18.415 4.175,18.384C4.149,18.48 4.131,18.591 4.295,18.591C4.414,18.591 4.508,18.611 4.562,18.689L4.576,18.177C4.582,18.025 4.37,18.028 4.235,18.074C4.286,17.898 4.391,17.802 4.632,17.826C4.573,17.802 4.511,17.746 4.511,17.64C4.511,17.496 4.627,17.337 4.704,17.289L4.742,18.787C4.742,19.171 4.397,19.368 4.126,19.368C3.762,19.368 3.567,19.15 3.567,18.865C3.567,18.702 3.597,18.6 3.672,18.446L4.508,16.709C4.537,16.648 4.546,16.58 4.546,16.479C4.546,16.323 4.395,16.196 4.237,16.192C4.092,16.188 3.935,16.327 3.935,16.484C3.935,16.675 4.034,16.76 4.136,16.76C4.262,16.76 4.312,16.708 4.312,16.62C4.312,16.559 4.282,16.533 4.239,16.533C4.132,16.533 4.162,16.678 4.162,16.678C4.109,16.665 4.065,16.612 4.089,16.543C4.05,16.535 4.014,16.515 3.985,16.482C4.014,16.454 4.048,16.432 4.089,16.425C4.065,16.341 4.098,16.301 4.17,16.283C4.155,16.315 4.155,16.345 4.16,16.372C4.275,16.34 4.45,16.392 4.45,16.589C4.45,16.785 4.314,16.95 4.059,16.91C4.119,16.94 4.15,16.998 4.155,17.065C4.109,17.048 4.059,17.045 4.059,17.045C4.088,17.097 4.129,17.143 4.128,17.246C4.08,17.225 4.037,17.185 3.975,17.21C4.071,17.397 3.954,17.656 3.655,17.716C3.765,17.589 3.818,17.45 3.818,17.313C3.818,16.869 3.694,16.793 3.694,16.484C3.694,16.355 3.759,16.217 3.888,16.123ZM4.704,7.907L4.602,7.778C4.602,7.778 4.749,7.604 4.925,7.604C5.06,7.604 5.198,7.69 5.198,7.844C5.198,8.049 4.865,8.572 4.865,8.802C4.865,8.975 4.992,9.065 5.159,9.061C5.344,9.055 5.485,8.968 5.485,8.794C5.485,8.604 5.389,8.527 5.27,8.522C5.152,8.517 5.1,8.598 5.1,8.657C5.1,8.724 5.142,8.739 5.188,8.739C5.29,8.739 5.25,8.579 5.25,8.579C5.312,8.615 5.355,8.659 5.317,8.739C5.368,8.738 5.412,8.758 5.442,8.795C5.412,8.829 5.371,8.847 5.318,8.852C5.349,8.938 5.305,8.979 5.236,8.997C5.255,8.959 5.264,8.908 5.246,8.871C5.221,8.89 5.176,8.902 5.145,8.902C5.051,8.902 4.955,8.805 4.955,8.667C4.955,8.485 5.108,8.311 5.358,8.375C5.272,8.317 5.237,8.255 5.232,8.196C5.286,8.208 5.312,8.219 5.346,8.201C5.304,8.144 5.272,8.078 5.292,8.021C5.326,8.053 5.365,8.064 5.409,8.057C5.331,7.852 5.469,7.595 5.746,7.567C5.746,7.567 5.589,7.811 5.589,8.002C5.589,8.347 5.715,8.473 5.715,8.779C5.715,8.978 5.6,9.105 5.488,9.163C5.589,9.169 5.628,9.193 5.689,9.274C5.689,9.274 5.369,9.322 5.172,9.288C4.88,9.237 4.642,9.141 4.642,8.785C4.642,8.568 5.047,7.954 4.948,7.83C4.886,7.754 4.704,7.907 4.704,7.907Z" />
  <path fill="#FDBB11" d="M3.888,22.602C3.76,22.508 3.695,22.369 3.695,22.242C3.695,21.932 3.819,21.858 3.819,21.412C3.819,21.275 3.765,21.136 3.656,21.009C3.955,21.072 4.072,21.328 3.976,21.515C4.038,21.541 4.081,21.502 4.129,21.479C4.13,21.584 4.089,21.629 4.059,21.682C4.059,21.682 4.11,21.679 4.156,21.66C4.151,21.728 4.12,21.787 4.059,21.815C4.315,21.774 4.451,21.939 4.451,22.136C4.451,22.335 4.275,22.385 4.161,22.353C4.156,22.381 4.156,22.409 4.171,22.442C4.099,22.425 4.065,22.385 4.089,22.302C4.048,22.295 4.014,22.273 3.985,22.245C4.014,22.212 4.05,22.192 4.089,22.184C4.065,22.115 4.109,22.061 4.162,22.048C4.162,22.048 4.132,22.193 4.239,22.193C4.282,22.193 4.312,22.167 4.312,22.105C4.312,22.016 4.262,21.965 4.136,21.965C4.034,21.965 3.935,22.05 3.935,22.242C3.935,22.399 4.092,22.538 4.237,22.534C4.395,22.53 4.546,22.402 4.546,22.247C4.546,22.146 4.537,22.077 4.508,22.016L3.672,20.28C3.597,20.125 3.567,20.024 3.567,19.861C3.567,19.576 3.762,19.358 4.126,19.358C4.397,19.358 4.742,19.555 4.742,19.938L4.703,21.435C4.626,21.388 4.51,21.228 4.51,21.084C4.51,20.978 4.572,20.923 4.632,20.898C4.39,20.923 4.285,20.827 4.235,20.651C4.369,20.696 4.582,20.701 4.575,20.547L4.562,20.035C4.507,20.113 4.413,20.134 4.294,20.134C4.13,20.134 4.148,20.245 4.175,20.341C4.089,20.311 4.001,20.255 4.033,20.125C3.96,20.124 3.912,20.087 3.873,20.036C3.923,19.981 3.977,19.954 4.033,19.946C4.017,19.862 4.075,19.783 4.175,19.737C4.143,19.823 4.133,19.959 4.294,19.959C4.36,19.959 4.407,19.908 4.407,19.822C4.407,19.688 4.262,19.579 4.12,19.579C4.002,19.579 3.793,19.659 3.793,19.886C3.793,19.977 3.815,20.062 3.852,20.14C4.026,20.513 4.585,21.697 4.703,21.944C4.812,22.172 4.74,22.422 4.703,22.493C4.666,22.562 4.542,22.7 4.362,22.72C4.207,22.781 3.918,22.782 3.719,22.725C3.749,22.669 3.804,22.626 3.888,22.602ZM4.704,24.094C4.704,24.094 4.886,24.245 4.948,24.169C5.047,24.046 4.642,23.432 4.642,23.215C4.642,22.86 4.88,22.762 5.172,22.712C5.369,22.678 5.689,22.726 5.689,22.726C5.629,22.807 5.59,22.832 5.489,22.837C5.601,22.897 5.716,23.024 5.716,23.222C5.716,23.527 5.59,23.653 5.59,23.998C5.59,24.19 5.747,24.433 5.747,24.433C5.47,24.405 5.332,24.149 5.41,23.943C5.366,23.937 5.327,23.946 5.292,23.979C5.272,23.923 5.304,23.856 5.346,23.8C5.312,23.782 5.286,23.793 5.232,23.804C5.237,23.745 5.272,23.684 5.358,23.625C5.109,23.689 4.955,23.516 4.955,23.335C4.955,23.196 5.052,23.098 5.146,23.098C5.177,23.098 5.222,23.111 5.247,23.129C5.265,23.092 5.255,23.042 5.237,23.004C5.306,23.022 5.349,23.062 5.319,23.148C5.372,23.152 5.413,23.171 5.442,23.205C5.413,23.242 5.369,23.263 5.319,23.261C5.357,23.341 5.314,23.386 5.252,23.422C5.252,23.422 5.292,23.261 5.189,23.261C5.143,23.261 5.102,23.277 5.102,23.344C5.102,23.402 5.153,23.483 5.272,23.478C5.39,23.473 5.486,23.396 5.486,23.208C5.486,23.032 5.345,22.945 5.16,22.939C4.992,22.934 4.866,23.025 4.866,23.198C4.866,23.427 5.199,23.952 5.199,24.156C5.199,24.31 5.061,24.395 4.925,24.395C4.75,24.395 4.602,24.222 4.602,24.222L4.704,24.094ZM3.887,15.878C3.759,15.782 3.694,15.644 3.694,15.517C3.694,15.207 3.818,15.132 3.818,14.687C3.818,14.55 3.765,14.412 3.655,14.284C3.954,14.345 4.071,14.602 3.975,14.79C4.037,14.815 4.08,14.775 4.128,14.754C4.129,14.858 4.088,14.903 4.059,14.955C4.059,14.955 4.109,14.954 4.155,14.935C4.15,15.002 4.119,15.061 4.059,15.09C4.314,15.049 4.45,15.215 4.45,15.411C4.45,15.609 4.275,15.66 4.16,15.628C4.155,15.655 4.155,15.685 4.17,15.717C4.098,15.699 4.065,15.659 4.089,15.576C4.048,15.568 4.014,15.547 3.985,15.518C4.014,15.486 4.05,15.465 4.089,15.457C4.065,15.389 4.109,15.335 4.162,15.323C4.162,15.323 4.132,15.468 4.239,15.468C4.282,15.468 4.312,15.441 4.312,15.38C4.312,15.292 4.262,15.24 4.136,15.24C4.034,15.24 3.935,15.325 3.935,15.516C3.935,15.673 4.092,15.812 4.237,15.808C4.395,15.804 4.546,15.677 4.546,15.521C4.546,15.42 4.537,15.352 4.508,15.291L3.672,13.554C3.597,13.399 3.567,13.298 3.567,13.135C3.567,12.85 3.762,12.632 4.126,12.632C4.397,12.632 4.742,12.828 4.742,13.213L4.703,14.712C4.626,14.665 4.51,14.505 4.51,14.361C4.51,14.255 4.572,14.199 4.632,14.175C4.39,14.198 4.285,14.103 4.235,13.926C4.369,13.972 4.582,13.976 4.575,13.823L4.562,13.313C4.508,13.39 4.414,13.411 4.295,13.411C4.131,13.411 4.149,13.522 4.175,13.617C4.089,13.587 4.002,13.532 4.034,13.4C3.961,13.398 3.913,13.362 3.874,13.312C3.924,13.255 3.978,13.229 4.034,13.222C4.018,13.137 4.076,13.057 4.175,13.012C4.144,13.098 4.134,13.235 4.295,13.235C4.361,13.235 4.408,13.183 4.408,13.097C4.408,12.963 4.263,12.855 4.121,12.855C4.002,12.855 3.794,12.935 3.794,13.162C3.794,13.253 3.816,13.336 3.853,13.415C4.027,13.788 4.585,14.972 4.704,15.22C4.812,15.446 4.741,15.698 4.704,15.768C4.667,15.837 4.542,15.974 4.363,15.995C4.208,16.055 3.919,16.057 3.719,16C3.75,15.943 3.805,15.901 3.887,15.878ZM5.52,16.123C5.649,16.217 5.714,16.355 5.714,16.484C5.714,16.793 5.589,16.869 5.589,17.313C5.589,17.45 5.642,17.589 5.752,17.716C5.453,17.656 5.336,17.397 5.432,17.21C5.371,17.185 5.327,17.225 5.279,17.246C5.278,17.143 5.319,17.097 5.349,17.045C5.349,17.045 5.298,17.048 5.252,17.065C5.258,16.998 5.288,16.94 5.349,16.91C5.093,16.95 4.957,16.785 4.957,16.589C4.957,16.392 5.132,16.34 5.247,16.372C5.252,16.345 5.252,16.315 5.237,16.283C5.309,16.301 5.343,16.341 5.318,16.425C5.359,16.432 5.393,16.454 5.422,16.482C5.393,16.515 5.357,16.535 5.318,16.543C5.342,16.612 5.299,16.665 5.245,16.678C5.245,16.678 5.275,16.533 5.168,16.533C5.125,16.533 5.095,16.559 5.095,16.62C5.095,16.708 5.145,16.76 5.271,16.76C5.373,16.76 5.472,16.675 5.472,16.484C5.472,16.327 5.314,16.188 5.17,16.192C5.012,16.196 4.86,16.323 4.86,16.479C4.86,16.58 4.87,16.648 4.899,16.709L5.735,18.446C5.81,18.6 5.84,18.702 5.84,18.865C5.84,19.15 5.645,19.368 5.281,19.368C5.01,19.368 4.665,19.171 4.665,18.787L4.704,17.288C4.78,17.336 4.897,17.495 4.897,17.639C4.897,17.745 4.835,17.801 4.775,17.825C5.018,17.802 5.122,17.897 5.173,18.073C5.039,18.028 4.827,18.024 4.833,18.176C4.833,18.176 4.843,18.585 4.847,18.688C4.902,18.61 4.995,18.59 5.115,18.59C5.278,18.59 5.26,18.479 5.233,18.383C5.319,18.414 5.407,18.468 5.375,18.599C5.448,18.602 5.495,18.639 5.535,18.688C5.485,18.745 5.432,18.77 5.375,18.778C5.391,18.862 5.332,18.942 5.233,18.987C5.265,18.902 5.275,18.765 5.115,18.765C5.049,18.765 5.002,18.818 5.002,18.902C5.002,19.036 5.146,19.145 5.289,19.145C5.407,19.145 5.615,19.065 5.615,18.838C5.615,18.746 5.593,18.663 5.556,18.585C5.382,18.212 4.824,17.028 4.705,16.78C4.597,16.553 4.669,16.302 4.705,16.232C4.742,16.163 4.867,16.026 5.046,16.005C5.201,15.944 5.491,15.943 5.69,15.999C5.658,16.057 5.604,16.099 5.52,16.123ZM5.52,9.398C5.648,9.493 5.713,9.631 5.713,9.758C5.713,10.068 5.589,10.143 5.589,10.588C5.589,10.725 5.642,10.863 5.751,10.992C5.452,10.93 5.335,10.672 5.431,10.485C5.37,10.459 5.326,10.499 5.279,10.521C5.277,10.417 5.319,10.372 5.349,10.319C5.349,10.319 5.297,10.322 5.251,10.339C5.257,10.273 5.287,10.214 5.349,10.185C5.092,10.225 4.956,10.06 4.956,9.864C4.956,9.666 5.132,9.615 5.246,9.647C5.251,9.619 5.251,9.59 5.236,9.558C5.309,9.575 5.342,9.615 5.317,9.698C5.359,9.706 5.393,9.728 5.422,9.755C5.393,9.788 5.356,9.809 5.319,9.817C5.342,9.885 5.299,9.94 5.246,9.952C5.246,9.952 5.276,9.807 5.169,9.807C5.126,9.807 5.096,9.833 5.096,9.895C5.096,9.983 5.146,10.035 5.272,10.035C5.374,10.035 5.472,9.95 5.472,9.758C5.472,9.601 5.315,9.463 5.171,9.466C5.012,9.47 4.861,9.598 4.861,9.753C4.861,9.854 4.871,9.923 4.899,9.982L5.735,11.719C5.81,11.875 5.84,11.976 5.84,12.138C5.84,12.424 5.645,12.642 5.281,12.642C5.01,12.642 4.665,12.445 4.665,12.061L4.704,10.562C4.78,10.609 4.897,10.769 4.897,10.913C4.897,11.019 4.835,11.075 4.775,11.099C5.018,11.075 5.122,11.171 5.172,11.346C5.037,11.301 4.825,11.296 4.832,11.449C4.832,11.449 4.842,11.858 4.845,11.962C4.9,11.884 4.994,11.864 5.113,11.864C5.276,11.864 5.259,11.752 5.232,11.656C5.318,11.687 5.405,11.743 5.373,11.874C5.446,11.875 5.494,11.912 5.533,11.962C5.484,12.018 5.43,12.045 5.373,12.052C5.389,12.137 5.331,12.217 5.232,12.262C5.264,12.175 5.274,12.039 5.113,12.039C5.047,12.039 5,12.092 5,12.177C5,12.312 5.145,12.42 5.287,12.42C5.405,12.42 5.614,12.341 5.614,12.112C5.614,12.022 5.591,11.938 5.555,11.859C5.381,11.487 4.822,10.303 4.704,10.055C4.595,9.828 4.667,9.577 4.704,9.508C4.74,9.438 4.865,9.301 5.044,9.281C5.199,9.219 5.489,9.218 5.689,9.274C5.658,9.331 5.603,9.374 5.52,9.398ZM4.704,7.907C4.704,7.907 4.522,7.754 4.46,7.83C4.36,7.955 4.765,8.569 4.765,8.786C4.765,9.142 4.528,9.238 4.235,9.288C4.039,9.322 3.719,9.274 3.719,9.274C3.779,9.193 3.819,9.169 3.92,9.163C3.807,9.105 3.692,8.978 3.692,8.779C3.692,8.473 3.818,8.347 3.818,8.002C3.818,7.811 3.661,7.567 3.661,7.567C3.938,7.595 4.076,7.852 3.998,8.057C4.042,8.063 4.082,8.053 4.116,8.021C4.136,8.078 4.105,8.144 4.062,8.201C4.095,8.219 4.121,8.208 4.176,8.196C4.171,8.255 4.135,8.317 4.05,8.375C4.299,8.311 4.452,8.485 4.452,8.667C4.452,8.805 4.356,8.902 4.262,8.902C4.231,8.902 4.186,8.89 4.161,8.871C4.144,8.909 4.153,8.959 4.171,8.997C4.102,8.979 4.059,8.938 4.09,8.853C4.037,8.848 3.995,8.83 3.966,8.796C3.995,8.759 4.039,8.738 4.09,8.739C4.052,8.659 4.095,8.615 4.157,8.579C4.157,8.579 4.117,8.739 4.219,8.739C4.265,8.739 4.307,8.724 4.307,8.657C4.307,8.598 4.255,8.517 4.137,8.522C4.018,8.527 3.922,8.604 3.922,8.793C3.922,8.968 4.062,9.054 4.248,9.06C4.415,9.065 4.542,8.975 4.542,8.802C4.542,8.572 4.209,8.048 4.209,7.843C4.209,7.689 4.347,7.603 4.482,7.603C4.658,7.603 4.805,7.777 4.805,7.777L4.704,7.907Z" />
</svg>
