<svg width="32" height="32" viewBox="0 0 32 32" xmlns="http://www.w3.org/2000/svg">
  <rect fill="#FDBB11" x="2" y="6" width="28" height="20" />
  <rect fill="#CF0828" x="3" y="7" width="26" height="18" />
  <path d="M19.664,15.551C20.117,13.743 18.648,12.144 18.648,12.144L18.264,14.02L17.472,15.063L17.801,15.647L17.473,15.828L16.695,14.75L16.983,14.099L17.985,13.582L16.876,13.215L16.204,13.997L16,14.862L15.744,13.998L15.018,13.215L13.977,13.452L14.849,14.034L15.198,14.75L14.483,15.863L14.092,15.646L14.421,15.062L13.63,14.019L13.245,12.144C13.245,12.144 11.778,13.743 12.23,15.55C12.683,17.357 14.631,17.61 14.631,17.61L13.392,18.448L12.666,18.507L12.543,19.303L13.2,19.608L13.777,18.975L15.216,18.448L14.395,19.644L16,20.5L17.552,19.644L16.75,18.513L16.75,18.467L18.13,18.978L18.701,19.611L19.355,19.305L19.229,18.509L18.502,18.45L17.263,17.612C17.263,17.611 19.211,17.357 19.664,15.551Z" fill="#FDBB11" />
  <path d="M16,17.125L16,18.098C16,18.098 15.864,17.895 15.438,17.769C14.875,17.605 14.781,17.125 14.781,17.125L16,17.125ZM16.002,17.125L16.002,18.098C16.002,18.098 16.137,17.895 16.564,17.769C17.127,17.605 17.22,17.125 17.22,17.125L16.002,17.125Z" fill="#608842" />
  <path d="M15.388,17.031L14.781,17.031C14.781,17.031 14.735,16.621 14.898,16.082C15.001,15.745 14.804,15.473 14.804,15.473L15.051,15.098C15.051,15.098 15.601,15.321 16,15.121C16.399,15.321 16.951,15.098 16.951,15.098L17.197,15.473C17.197,15.473 17.001,15.745 17.103,16.082C17.267,16.621 17.22,17.031 17.22,17.031L16.611,17.031L16.611,16.186L15.388,16.186L15.388,17.031ZM19.809,18.379C19.809,18.709 19.542,18.977 19.211,18.977C18.88,18.977 18.613,18.71 18.613,18.379C18.613,18.048 18.88,17.781 19.211,17.781C19.542,17.781 19.809,18.048 19.809,18.379Z" fill="#0074BA" />
  <path d="M15.372,12.895C15.072,12.776 14.875,12.576 14.875,12.35C14.875,11.984 15.389,11.688 16.023,11.688C16.658,11.688 17.171,11.984 17.171,12.35C17.171,12.57 16.985,12.765 16.699,12.886C16.746,12.925 16.773,12.97 16.773,13.017C16.773,13.182 16.446,13.316 16.04,13.316C15.636,13.316 15.308,13.182 15.308,13.017C15.308,12.974 15.331,12.932 15.372,12.895ZM16.424,12.45C16.457,12.356 16.492,12.285 16.468,12.169C16.445,12.051 16.152,11.954 16.152,11.954C16.152,11.954 16.234,12.192 16.211,12.309C16.188,12.426 16.094,12.551 16.094,12.551C16.094,12.551 16.284,12.633 16.335,12.618C16.386,12.602 16.392,12.546 16.424,12.45ZM15.699,12.618C15.75,12.633 15.94,12.549 15.94,12.549C15.94,12.549 15.846,12.425 15.823,12.308C15.8,12.191 15.881,11.952 15.881,11.952C15.881,11.952 15.589,12.051 15.566,12.167C15.543,12.285 15.578,12.355 15.61,12.45C15.642,12.546 15.648,12.602 15.699,12.618ZM16.821,12.627C16.961,12.567 16.961,12.402 16.938,12.285C16.914,12.168 16.715,12.051 16.715,12.051C16.715,12.051 16.85,12.335 16.736,12.456C16.621,12.578 16.679,12.689 16.821,12.627ZM15.215,12.627C15.356,12.689 15.414,12.579 15.3,12.456C15.185,12.335 15.321,12.051 15.321,12.051C15.321,12.051 15.121,12.167 15.098,12.285C15.074,12.402 15.074,12.566 15.215,12.627Z" fill="#FDBB11" />
  <path d="M19.407,18.183L19.697,18.258C19.778,18.279 19.829,18.362 19.806,18.444C19.786,18.525 19.702,18.574 19.621,18.554L18.793,18.339C18.712,18.318 18.663,18.233 18.683,18.152C18.704,18.071 18.788,18.022 18.869,18.043L19.147,18.115L19.296,17.432C19.314,17.361 19.387,17.317 19.461,17.336C19.533,17.355 19.575,17.428 19.557,17.5L19.407,18.183ZM13.626,20.406C13.581,20.424 13.502,20.33 13.45,20.198L11.991,16.492C11.939,16.359 11.933,16.237 11.978,16.219L12.052,16.19C12.098,16.173 12.288,16.222 12.34,16.354L13.799,20.06C13.851,20.193 13.746,20.358 13.701,20.377L13.626,20.406Z" fill="#FDBB11" />
</svg>
