<svg width="32" height="32" viewBox="0 0 32 32" xmlns="http://www.w3.org/2000/svg">
  <rect fill="#00A6ED" x="2" y="6" width="28" height="20" />
  <path d="M10.272,14.1C10.292,13.925 10.301,13.78 10.285,13.609C10.235,13.057 10.202,12.438 10.581,12.018C10.762,11.818 10.964,11.662 11.205,11.6C10.736,11.922 10.762,12.498 10.618,12.979C10.566,13.155 10.488,13.32 10.448,13.502L10.459,13.512C10.538,13.306 10.671,13.108 10.845,12.944C11.175,12.633 11.671,12.445 11.834,11.99C11.826,12.622 11.288,13.103 10.795,13.475C10.575,13.642 10.387,13.865 10.272,14.1ZM12.747,20.047C12.155,19.852 11.474,19.891 10.942,19.542C10.382,19.176 9.863,18.598 9.757,17.945C10.15,18.834 11.137,18.904 11.793,19.449C11.918,19.553 12.042,19.648 12.178,19.712L12.185,19.705C12.035,19.568 11.871,19.405 11.753,19.235C11.378,18.69 11.503,17.945 11.214,17.367C11.477,17.682 11.723,18.005 11.875,18.365C12.118,18.945 12.201,19.606 12.747,20.047ZM10.284,18.215C9.926,17.933 9.616,17.602 9.455,17.172C9.338,16.863 9.308,16.493 9.336,16.145C9.393,16.928 10.228,17.347 10.625,17.991C10.71,18.128 10.798,18.271 10.921,18.382C10.902,18.298 10.833,18.224 10.795,18.142C10.668,17.865 10.61,17.546 10.642,17.217C10.68,16.817 10.847,16.445 10.783,16.025C11.126,16.765 11.015,17.69 11.214,18.49C11.258,18.668 11.366,18.822 11.432,18.99C11.095,18.734 10.654,18.506 10.284,18.215ZM10.845,12.729C10.987,12.435 11.013,12.099 11.192,11.815C11.5,11.329 12.008,11.141 12.482,10.956C12.134,11.261 11.902,11.654 11.635,12.007C11.412,12.301 11.108,12.483 10.845,12.729ZM14.156,20.399C13.468,20.57 12.704,20.839 11.971,20.598C11.498,20.442 11.006,20.072 10.767,19.604C11.397,20.321 12.424,20.09 13.265,20.269C13.382,20.295 13.492,20.333 13.617,20.314C13.517,20.251 13.385,20.244 13.269,20.2C12.617,19.954 12.515,19.256 12.158,18.775C12.615,19.078 12.992,19.494 13.418,19.884C13.715,20.155 14.085,20.272 14.468,20.349C14.376,20.382 14.255,20.375 14.156,20.399ZM10.403,17.416C10.145,16.94 9.636,16.568 9.484,16.047C9.361,15.632 9.275,15.152 9.361,14.7C9.401,14.525 9.432,14.345 9.508,14.184C9.363,14.923 9.855,15.458 10.023,16.097C10.086,16.338 10.108,16.595 10.205,16.819C10.214,16.825 10.222,16.815 10.228,16.808C9.985,16.127 10.341,15.498 10.687,14.962C10.778,14.82 10.822,14.656 10.865,14.49C10.902,14.798 10.836,15.155 10.779,15.473C10.705,15.882 10.566,16.266 10.455,16.661C10.382,16.908 10.401,17.186 10.438,17.445L10.403,17.416ZM11.044,13.974C10.749,14.57 10.181,15.051 10.078,15.728C10.029,15.078 9.632,14.596 9.632,13.905C9.632,13.346 9.849,12.89 10.176,12.473C10.185,12.468 10.192,12.458 10.205,12.461C9.845,13.008 10.172,13.698 10.126,14.319L10.078,14.956C10.085,14.961 10.085,14.979 10.102,14.972C10.124,14.901 10.13,14.825 10.142,14.752C10.229,14.239 10.68,13.882 11.062,13.519C11.152,13.433 11.219,13.332 11.262,13.223C11.23,13.479 11.158,13.742 11.044,13.974ZM21.978,16.098C22.146,15.458 22.638,14.924 22.495,14.186C22.572,14.346 22.602,14.528 22.642,14.702C22.727,15.154 22.642,15.634 22.519,16.049C22.365,16.568 21.856,16.941 21.598,17.417L21.563,17.445C21.601,17.187 21.62,16.908 21.547,16.662C21.435,16.267 21.295,15.883 21.222,15.474C21.165,15.155 21.099,14.799 21.137,14.491C21.18,14.657 21.224,14.822 21.315,14.962C21.661,15.498 22.016,16.128 21.774,16.808C21.779,16.815 21.787,16.825 21.796,16.82C21.894,16.595 21.915,16.338 21.978,16.098ZM20.208,19.449C20.864,18.903 21.851,18.834 22.243,17.945C22.136,18.598 21.618,19.176 21.058,19.542C20.527,19.891 19.845,19.852 19.254,20.047C19.8,19.606 19.882,18.945 20.126,18.365C20.278,18.005 20.524,17.682 20.787,17.367C20.498,17.945 20.623,18.69 20.248,19.235C20.131,19.405 19.967,19.568 19.815,19.705L19.822,19.712C19.959,19.648 20.083,19.553 20.208,19.449ZM18.384,20.313C18.509,20.332 18.619,20.294 18.736,20.268C19.577,20.088 20.604,20.319 21.234,19.602C20.995,20.072 20.503,20.441 20.03,20.597C19.297,20.839 18.533,20.569 17.845,20.398C17.745,20.375 17.625,20.382 17.532,20.348C17.916,20.271 18.285,20.155 18.582,19.883C19.008,19.493 19.386,19.078 19.842,18.775C19.485,19.255 19.384,19.953 18.732,20.199C18.616,20.242 18.484,20.25 18.384,20.313ZM21.08,18.382C21.203,18.271 21.291,18.128 21.375,17.991C21.773,17.347 22.607,16.928 22.664,16.145C22.692,16.493 22.662,16.862 22.546,17.172C22.385,17.602 22.075,17.933 21.717,18.215C21.347,18.506 20.905,18.734 20.568,18.99C20.635,18.822 20.743,18.667 20.787,18.49C20.985,17.69 20.875,16.765 21.218,16.025C21.154,16.445 21.321,16.817 21.359,17.217C21.391,17.546 21.333,17.866 21.205,18.142C21.168,18.224 21.099,18.298 21.08,18.382ZM21.875,14.32C21.828,13.699 22.156,13.008 21.795,12.462C21.808,12.46 21.815,12.469 21.824,12.474C22.151,12.891 22.368,13.347 22.368,13.906C22.368,14.597 21.971,15.079 21.922,15.728C21.82,15.052 21.252,14.571 20.957,13.975C20.842,13.742 20.771,13.48 20.739,13.224C20.782,13.333 20.848,13.434 20.938,13.52C21.321,13.882 21.772,14.24 21.858,14.753C21.871,14.827 21.877,14.902 21.898,14.973C21.915,14.981 21.915,14.962 21.922,14.957L21.875,14.32ZM21.383,12.98C21.239,12.498 21.265,11.922 20.797,11.601C21.038,11.662 21.241,11.818 21.422,12.019C21.8,12.438 21.768,13.058 21.717,13.61C21.702,13.781 21.71,13.926 21.729,14.101C21.615,13.866 21.427,13.642 21.206,13.475C20.714,13.103 20.175,12.623 20.168,11.991C20.331,12.445 20.827,12.634 21.156,12.945C21.331,13.109 21.465,13.307 21.542,13.512L21.554,13.503C21.512,13.321 21.435,13.156 21.383,12.98ZM18.481,20.877C18.993,21.089 19.673,21.048 20.125,20.735C19.9,21.017 19.599,21.19 19.289,21.308C18.712,21.538 18.04,21.362 17.549,21.048C17.196,20.822 16.893,20.502 16.472,20.502C16.397,20.502 16.322,20.513 16.245,20.529C16.837,20.766 17.376,21.179 17.795,21.58C17.718,21.668 17.618,21.75 17.525,21.826C17.058,21.343 16.528,20.823 15.999,20.607C15.472,20.823 14.942,21.343 14.474,21.826C14.38,21.751 14.28,21.668 14.203,21.58C14.623,21.179 15.162,20.765 15.753,20.529C15.678,20.513 15.602,20.502 15.526,20.502C15.105,20.502 14.802,20.822 14.449,21.048C13.958,21.362 13.285,21.538 12.709,21.308C12.398,21.19 12.098,21.016 11.874,20.735C12.328,21.048 13.007,21.089 13.519,20.877C14.085,20.642 14.662,20.33 15.307,20.33C15.542,20.33 15.774,20.369 16,20.438C16.226,20.37 16.458,20.33 16.693,20.33C17.338,20.33 17.915,20.642 18.481,20.877ZM13.889,10.999L13.891,10.998C14.526,10.679 15.242,10.498 16,10.498C16.614,10.498 17.21,10.615 17.762,10.839C18.345,11.073 18.879,11.424 19.336,11.881C19.791,12.336 20.142,12.868 20.375,13.448C20.599,14.002 20.718,14.6 20.718,15.217C20.718,15.942 20.555,16.642 20.247,17.276C20.019,17.743 19.715,18.176 19.336,18.555C18.976,18.915 18.568,19.208 18.126,19.432L18.125,19.43C17.474,19.76 16.751,19.935 16.001,19.935C15.285,19.935 14.594,19.776 13.968,19.476L13.965,19.482C13.488,19.253 13.048,18.943 12.663,18.558C12.095,17.99 11.69,17.302 11.471,16.552L11.582,16.524C11.791,17.237 12.172,17.892 12.704,18.437L13.305,17.835C13.219,17.747 13.142,17.653 13.066,17.558L13.029,17.528L12.901,17.498C12.901,17.498 12.772,17.388 12.772,17.358C12.772,17.33 12.705,17.262 12.705,17.32L12.638,17.325C12.638,17.325 12.548,17.295 12.515,17.185C12.482,17.073 12.458,17.064 12.377,17.068L12.368,17.001L12.296,17.001C12.296,17.001 12.206,16.918 12.192,16.885C12.178,16.851 12.158,16.808 12.135,16.88C12.112,16.952 12.03,16.908 12.021,16.836C12.021,16.836 11.968,16.822 11.964,16.792C11.958,16.763 11.835,16.782 11.902,16.86L11.906,16.981L11.83,16.981L11.811,16.947L11.811,16.894L11.778,16.875L11.773,16.792C11.773,16.792 11.725,16.768 11.754,16.72C11.754,16.72 11.725,16.705 11.716,16.657C11.716,16.657 11.778,16.628 11.74,16.618C11.74,16.618 11.688,16.565 11.716,16.536C11.716,16.536 11.754,16.483 11.721,16.449C11.721,16.449 11.692,16.396 11.716,16.382L11.749,16.372L11.749,16.294L11.821,16.289L11.84,16.26L12.016,16.265L12.016,16.298C12.016,16.298 11.955,16.308 11.931,16.318C11.907,16.328 11.959,16.381 11.969,16.4C11.978,16.419 12.059,16.347 12.055,16.298L12.131,16.294L12.145,16.265L12.217,16.26L12.222,16.313L12.269,16.323L12.278,16.347L12.421,16.347C12.417,16.336 12.412,16.325 12.408,16.314L12.518,16.286C12.528,16.318 12.542,16.347 12.552,16.378L12.582,16.347L12.706,16.352L12.725,16.322L12.825,16.288C12.825,16.288 12.816,16.225 12.864,16.221C12.864,16.221 12.868,16.168 12.84,16.168L12.835,16.052L12.859,16.018L12.859,15.912C12.859,15.912 12.897,15.907 12.883,15.892C12.868,15.878 12.902,15.825 12.945,15.81C12.945,15.81 12.978,15.723 13.03,15.713L13.054,15.635C13.054,15.635 13.107,15.618 13.162,15.612C13.148,15.5 13.134,15.388 13.132,15.275L12.361,15.275C12.366,15.622 12.42,15.961 12.518,16.284L12.408,16.312C12.308,15.979 12.253,15.631 12.248,15.275L11.397,15.275C11.402,15.702 11.466,16.119 11.583,16.519L11.472,16.547C11.347,16.12 11.282,15.674 11.282,15.217C11.282,14.47 11.457,13.764 11.767,13.135L11.82,13.164L11.768,13.135C12.224,12.213 12.971,11.461 13.889,10.999ZM14.389,11.953L14.388,11.953C14.054,12.119 13.744,12.337 13.468,12.604L14.014,13.149C14.228,12.942 14.476,12.77 14.747,12.637C15.11,12.46 15.515,12.358 15.943,12.349L15.943,11.578C15.395,11.586 14.867,11.716 14.389,11.953ZM15.572,12.04C15.567,12.026 15.495,12.02 15.495,12.02C15.495,12.02 15.457,11.991 15.452,11.967C15.448,11.95 15.547,11.948 15.562,11.962C15.576,11.977 15.566,12.001 15.609,12.001C15.652,12.001 15.633,12.03 15.628,12.045C15.624,12.059 15.576,12.055 15.572,12.04ZM14.019,19.381L14.022,19.375C14.616,19.658 15.268,19.811 15.944,19.819L15.944,18.968C15.418,18.961 14.909,18.845 14.443,18.632L14.44,18.638C14.055,18.462 13.698,18.219 13.385,17.916L12.784,18.518C13.152,18.877 13.568,19.166 14.019,19.381ZM13.942,11.098L13.941,11.098C13.521,11.309 13.131,11.584 12.786,11.922L13.389,12.525C13.667,12.255 13.986,12.028 14.336,11.854L14.338,11.854C14.823,11.613 15.367,11.473 15.943,11.465L15.943,10.614C15.237,10.622 14.557,10.79 13.942,11.098ZM18.074,19.326C18.494,19.113 18.879,18.838 19.213,18.512L18.613,17.912C18.418,18.102 18.199,18.258 17.973,18.398L17.475,18.822L17.413,18.832L17.356,18.885L17.242,18.889L17.214,18.913L17.175,18.918L17.152,18.84L17.059,18.812C16.737,18.906 16.402,18.963 16.058,18.968L16.058,19.819C16.782,19.81 17.465,19.632 18.073,19.325L18.074,19.326ZM14.029,15.655C14.021,15.648 13.943,15.595 14.013,15.595C14.07,15.658 14.084,15.565 14.046,15.561C13.989,15.547 13.989,15.479 14.042,15.45L14.103,15.397L14.084,15.273L13.857,15.273L13.85,15.285L13.783,15.281C13.783,15.281 13.77,15.275 13.756,15.273L13.75,15.273C13.733,15.273 13.714,15.28 13.702,15.31L13.707,15.435L13.659,15.435L13.635,15.474L13.535,15.484L13.54,15.59C13.54,15.59 13.592,15.648 13.549,15.672C13.549,15.672 13.525,15.73 13.558,15.74L13.73,15.986L13.739,16.213L13.815,16.223L13.82,16.286C13.82,16.286 13.877,16.33 13.844,16.388C13.844,16.388 13.744,16.398 13.815,16.465L13.815,16.542C13.815,16.542 13.792,16.654 13.877,16.712C13.877,16.712 13.919,16.778 13.91,16.837C13.91,16.837 13.986,16.9 13.925,16.938C13.925,16.938 13.912,16.96 13.904,16.984C13.942,17.029 13.97,17.082 14.012,17.125L14.616,16.522C14.433,16.328 14.296,16.102 14.208,15.858C14.176,15.767 14.152,15.674 14.133,15.579L14.089,15.614C14.089,15.614 14.107,15.692 14.029,15.655ZM13.848,15.784L13.896,15.813L13.968,15.765L13.963,15.798L13.935,15.803L13.929,15.875L13.963,15.89L13.953,15.934L13.925,16.002L13.848,15.9L13.848,15.784ZM13.892,15.755C13.887,15.702 13.82,15.716 13.801,15.702C13.782,15.687 13.806,15.595 13.815,15.624C13.825,15.652 13.882,15.648 13.882,15.648C13.882,15.648 13.915,15.484 13.878,15.416L13.854,15.416L13.849,15.382L13.935,15.392L13.935,15.721C13.935,15.721 13.896,15.808 13.892,15.755ZM14.694,16.443L15.239,15.897C15.185,15.836 15.148,15.764 15.111,15.693C15.083,15.706 15.022,15.75 15.048,15.881C15.048,15.881 15.015,15.856 15.015,15.9L14.967,15.909C14.967,15.909 14.995,16.039 14.891,16.049L14.886,15.938L14.838,15.9L14.868,15.857C14.915,15.761 14.748,15.78 14.82,15.833C14.82,15.833 14.801,15.92 14.801,15.905C14.801,15.891 14.801,15.842 14.738,15.862C14.738,15.862 14.738,15.818 14.662,15.77C14.743,15.732 14.634,15.668 14.582,15.736C14.582,15.736 14.562,15.649 14.51,15.615C14.51,15.615 14.32,15.625 14.32,15.611C14.32,15.599 14.277,15.536 14.237,15.521C14.255,15.627 14.28,15.731 14.316,15.831C14.398,16.056 14.525,16.264 14.694,16.443ZM15.246,13.592C15.075,13.671 14.915,13.778 14.775,13.911L15.321,14.457C15.378,14.406 15.448,14.372 15.515,14.334L15.515,14.292L15.548,14.292L15.548,14.268L15.596,14.258L15.605,14.214L15.634,14.175L15.672,14.19L15.648,14.205L15.653,14.258L15.688,14.258C15.771,14.231 15.854,14.204 15.944,14.198L15.944,13.427C15.699,13.434 15.463,13.491 15.246,13.592ZM17.956,18.275C18.162,18.143 18.358,17.999 18.532,17.828L18.512,17.808C18.455,17.818 18.384,17.82 18.352,17.787L18.347,17.705L18.304,17.685C18.298,17.669 18.31,17.645 18.323,17.619L17.988,17.285C17.948,17.322 17.904,17.352 17.863,17.388C17.842,17.45 17.842,17.517 17.894,17.536L18.132,17.735L18.132,17.812L18.022,17.914L18.022,17.958L17.989,17.972C17.932,17.982 17.904,18.047 17.965,18.055C18.047,18.065 18.042,18.175 17.956,18.238L17.956,18.275ZM18.612,17.748C18.892,17.459 19.125,17.124 19.297,16.756C19.508,16.305 19.631,15.803 19.638,15.274L18.868,15.274C18.861,15.664 18.775,16.041 18.621,16.387C18.487,16.686 18.302,16.963 18.068,17.205L18.365,17.502L18.365,17.499C18.347,17.465 18.385,17.368 18.385,17.349C18.385,17.33 18.447,17.345 18.456,17.325C18.465,17.306 18.575,17.398 18.556,17.461L18.561,17.582L18.585,17.605L18.592,17.728L18.612,17.748ZM13.579,15.274L13.245,15.274C13.247,15.402 13.26,15.528 13.28,15.652C13.288,15.666 13.298,15.678 13.305,15.673C13.32,15.663 13.377,15.687 13.377,15.716C13.377,15.745 13.482,15.75 13.453,15.731C13.425,15.712 13.477,15.692 13.496,15.682C13.515,15.673 13.52,15.6 13.496,15.61L13.448,15.605L13.468,15.504L13.477,15.47L13.52,15.455L13.511,15.378L13.582,15.301L13.579,15.274ZM14.614,13.912L14.013,13.31C13.796,13.535 13.622,13.792 13.495,14.069C13.34,14.408 13.254,14.778 13.246,15.161L13.633,15.161L13.659,15.132L13.659,15.075L13.716,15.036L13.716,14.905L13.745,14.895L13.754,14.847C13.754,14.847 13.792,14.798 13.782,14.784C13.772,14.77 13.801,14.726 13.815,14.726C13.83,14.726 13.844,14.683 13.839,14.668C13.835,14.655 13.887,14.611 13.887,14.611L13.977,14.615L14.007,14.577L14.068,14.577L14.092,14.553L14.159,14.548C14.182,14.554 14.235,14.467 14.197,14.472L14.054,14.476L14.111,14.466L14.12,14.437L14.168,14.427L14.177,14.408C14.177,14.408 14.239,14.417 14.253,14.378C14.259,14.362 14.284,14.361 14.306,14.362C14.389,14.198 14.489,14.044 14.614,13.912ZM15.16,14.457L14.693,13.992C14.581,14.111 14.494,14.245 14.419,14.387C14.447,14.392 14.474,14.388 14.472,14.355C14.476,14.33 14.618,14.219 14.714,14.306L14.881,14.427C14.881,14.427 14.972,14.504 14.972,14.451C14.972,14.451 15.038,14.422 15.048,14.451C15.048,14.451 15.095,14.499 15.115,14.455L15.16,14.457ZM14.931,17.764L14.934,17.758C15.25,17.891 15.591,17.964 15.943,17.971L15.943,17.885C15.878,17.884 15.804,17.879 15.785,17.874C15.752,17.864 15.762,17.845 15.762,17.845L15.572,17.84C15.572,17.84 15.553,17.778 15.534,17.782C15.515,17.788 15.472,17.802 15.458,17.744L15.42,17.667L15.401,17.614L15.363,17.609C15.363,17.609 15.392,17.527 15.325,17.518L15.287,17.498L15.258,17.426L15.306,17.422L15.306,17.398L15.339,17.388L15.339,17.345L15.368,17.325L15.377,17.224L15.434,17.205L15.462,17.161L15.505,17.146C15.505,17.146 15.552,17.122 15.543,17.098C15.54,17.091 15.56,17.079 15.572,17.069C15.499,17.053 15.428,17.037 15.359,17.012L15.355,17.018C15.112,16.931 14.886,16.793 14.693,16.611L14.094,17.21L14.122,17.236C14.363,17.46 14.635,17.639 14.931,17.764ZM15.41,16.916L15.413,16.91C15.522,16.948 15.64,16.957 15.755,16.973L15.767,16.958L15.805,16.958L15.818,16.985L15.821,16.985L15.856,16.967L15.942,16.957L15.942,16.952L15.942,16.863L15.918,16.889L15.789,16.885L15.789,16.851L15.737,16.861L15.742,16.778L15.737,16.721L15.765,16.716L15.77,16.629C15.785,16.644 15.942,16.688 15.942,16.625L15.942,16.62L15.942,16.541L15.918,16.538L15.885,16.499L15.923,16.495L15.923,16.461C15.933,16.463 15.935,16.46 15.943,16.462L15.943,16.425L15.935,16.423C15.918,16.423 15.932,16.452 15.932,16.452C15.932,16.452 15.856,16.448 15.871,16.438C15.885,16.427 15.899,16.423 15.888,16.416C15.878,16.408 15.888,16.402 15.888,16.387C15.888,16.372 15.924,16.379 15.913,16.368C15.902,16.358 15.913,16.315 15.931,16.339L15.942,16.314C15.931,16.303 15.938,16.299 15.917,16.292C15.895,16.285 15.913,16.242 15.913,16.242L15.914,16.235C15.692,16.217 15.485,16.132 15.319,15.984L14.774,16.53C14.959,16.704 15.175,16.834 15.41,16.916ZM15.796,16.395C15.775,16.398 15.765,16.359 15.764,16.358C15.775,16.337 15.8,16.242 15.828,16.272C15.857,16.301 15.875,16.272 15.875,16.272C15.875,16.272 15.888,16.286 15.882,16.315C15.875,16.345 15.867,16.373 15.849,16.377C15.832,16.381 15.818,16.392 15.796,16.395ZM14.495,18.538L14.498,18.532C14.946,18.736 15.436,18.848 15.943,18.855L15.943,18.085C15.572,18.078 15.213,18 14.881,17.859L14.878,17.865C14.655,17.769 14.45,17.636 14.255,17.486C14.252,17.516 14.252,17.545 14.268,17.558C14.292,17.558 14.368,17.727 14.244,17.732L14.001,17.736L13.905,17.818L13.634,17.823C13.634,17.823 13.6,17.838 13.591,17.765C13.588,17.746 13.579,17.742 13.572,17.73L13.466,17.836C13.77,18.131 14.118,18.367 14.495,18.538ZM17.713,13.074C17.507,12.909 17.286,12.765 17.045,12.666C16.735,12.539 16.402,12.469 16.057,12.462L16.057,13.313C16.293,13.32 16.522,13.37 16.735,13.458C16.943,13.546 17.137,13.672 17.306,13.831L17.894,13.243C17.888,13.21 17.838,13.167 17.804,13.175L17.804,13.146C17.782,13.127 17.758,13.11 17.735,13.092C17.734,13.091 17.724,13.085 17.713,13.074ZM15.183,15.598C15.224,15.685 15.277,15.767 15.348,15.835L15.37,15.704L15.389,15.646L15.427,15.622L15.436,15.559L15.541,15.53L15.536,15.482L15.574,15.467L15.583,15.337L15.631,15.327L15.631,15.284L15.64,15.216L15.692,15.168L15.764,15.202L15.773,15.265L15.773,15.332L15.845,15.332C15.845,15.332 15.868,15.385 15.897,15.362C15.897,15.362 15.954,15.415 15.93,15.405C15.906,15.395 15.887,15.429 15.925,15.444L15.935,15.478L15.915,15.502C15.915,15.502 15.925,15.575 15.848,15.598L15.848,15.685L15.825,15.7L15.82,15.758L15.768,15.758L15.735,15.811C15.735,15.811 15.687,15.83 15.687,15.806C15.687,15.782 15.625,15.763 15.615,15.816L15.487,15.812L15.472,15.845C15.472,15.845 15.435,15.851 15.411,15.889C15.41,15.891 15.408,15.89 15.408,15.891C15.573,16.036 15.778,16.124 16.001,16.124C16.032,16.124 16.058,16.109 16.089,16.106L16.086,16.035L16.143,15.982L16.143,15.89C16.143,15.89 16.191,15.885 16.167,15.837L16.2,15.798C16.2,15.798 16.262,15.788 16.233,15.75C16.233,15.726 16.323,15.716 16.366,15.745C16.381,15.731 16.438,15.722 16.485,15.745L16.485,15.692L16.515,15.672L16.515,15.633L16.538,15.609C16.538,15.609 16.519,15.522 16.548,15.503C16.576,15.484 16.576,15.445 16.519,15.469L16.486,15.431L16.486,15.276L16.458,15.266L16.462,15.213L16.434,15.208C16.434,15.208 16.434,15.175 16.419,15.155C16.405,15.136 16.376,15.146 16.365,15.185L16.252,15.17L16.309,15.155L16.328,15.126C16.328,15.126 16.381,15.136 16.395,15.092L16.41,15.044C16.41,15.044 16.477,15.01 16.429,14.952L16.401,14.942L16.401,14.875C16.401,14.875 16.429,14.88 16.425,14.851C16.42,14.822 16.396,14.773 16.344,14.807L16.296,14.889L16.263,14.87L16.23,14.865L16.23,14.836C16.23,14.836 16.301,14.855 16.292,14.822L16.315,14.807L16.325,14.763L16.187,14.623L16.115,14.618L16.101,14.595L15.982,14.59L15.972,14.532L15.925,14.528L15.901,14.504L15.872,14.48L15.872,14.374L15.901,14.378L15.915,14.408L15.948,14.408L16,14.425L15.991,14.309C15.922,14.309 15.858,14.332 15.792,14.348L15.8,14.434L15.852,14.434L15.843,14.506C15.843,14.506 15.786,14.55 15.843,14.55L15.852,14.588L15.757,14.675L15.69,14.68L15.675,14.704L15.614,14.733L15.542,14.733L15.538,14.782L15.509,14.792L15.509,14.84C15.509,14.84 15.481,14.869 15.452,14.884C15.424,14.898 15.482,14.956 15.495,14.888L15.562,14.893L15.558,14.97C15.558,14.97 15.487,14.961 15.496,15.018C15.496,15.018 15.439,15.048 15.472,15.105C15.505,15.164 15.472,15.12 15.472,15.12C15.472,15.12 15.428,15.207 15.409,15.183C15.39,15.159 15.325,15.212 15.392,15.246L15.363,15.314C15.335,15.265 15.235,15.265 15.22,15.343L15.182,15.343L15.168,15.29L15.172,15.252L15.201,15.237L15.196,15.208L15.153,15.174L15.125,15.15C15.125,15.15 15.115,15.148 15.105,15.151C15.104,15.173 15.092,15.193 15.092,15.216C15.092,15.266 15.113,15.312 15.121,15.36L15.153,15.363L15.191,15.397C15.191,15.397 15.267,15.571 15.219,15.513C15.172,15.455 15.148,15.523 15.191,15.542C15.191,15.542 15.189,15.568 15.183,15.598ZM16.442,15.513C16.467,15.53 16.428,15.562 16.404,15.547C16.381,15.532 16.314,15.426 16.314,15.426L16.314,15.363C16.328,15.325 16.348,15.34 16.357,15.358C16.375,15.402 16.371,15.465 16.442,15.513ZM15.352,15.572L15.267,15.538L15.253,15.465L15.272,15.378L15.372,15.373L15.401,15.301L15.424,15.267L15.429,15.228L15.515,15.146L15.553,15.137L15.562,15.112L15.582,15.093L15.576,15.064L15.548,15.064L15.553,15.025L15.576,15.025L15.586,15.002L15.638,15.006L15.643,15.04L15.672,15.04L15.672,15.132L15.615,15.156L15.595,15.185L15.591,15.228L15.582,15.286L15.558,15.315L15.5,15.325L15.453,15.354L15.443,15.392L15.415,15.426L15.395,15.46L15.391,15.508L15.362,15.523L15.352,15.572ZM15.728,15.885L15.738,15.915L15.847,15.919C15.842,15.977 15.771,15.996 15.771,15.996L15.718,15.982L15.69,15.958L15.685,15.89L15.728,15.885ZM16.105,15.61C16.1,15.591 16.095,15.548 16.052,15.542L16.138,15.479C16.138,15.479 16.152,15.552 16.133,15.547C16.114,15.542 16.115,15.652 16.105,15.61ZM16.366,16.199C16.366,16.199 16.362,16.181 16.367,16.168C16.344,16.176 16.318,16.177 16.295,16.184L16.291,16.22L16.248,16.22L16.225,16.2C16.168,16.212 16.116,16.235 16.058,16.238L16.058,16.431C16.087,16.417 16.127,16.385 16.067,16.385L16.124,16.326L16.148,16.297L16.152,16.229L16.185,16.234L16.205,16.268L16.262,16.272L16.309,16.287L16.347,16.243L16.39,16.209L16.366,16.199ZM17.066,16.784L17.082,16.842L17.01,16.856L17.105,16.89C17.105,16.89 17.167,16.938 17.167,16.924C17.167,16.91 17.233,16.954 17.248,16.934C17.262,16.914 17.338,16.977 17.338,16.977C17.338,16.977 17.438,17.02 17.452,17.035C17.464,17.046 17.637,17.059 17.723,17.019L17.669,16.965L17.581,16.962L17.528,16.943L17.495,16.914C17.495,16.914 17.372,16.938 17.348,16.909C17.324,16.881 17.285,16.885 17.285,16.885L17.266,16.862C17.266,16.862 17.205,16.866 17.19,16.847L17.066,16.784ZM12.705,12.002C12.359,12.356 12.078,12.757 11.866,13.188C11.568,13.795 11.405,14.465 11.397,15.16L12.248,15.16C12.255,14.6 12.387,14.069 12.616,13.594C12.793,13.227 13.027,12.894 13.308,12.605L12.705,12.002ZM16.057,18.086L16.058,18.855C16.365,18.849 16.661,18.804 16.945,18.727L16.828,18.603L16.757,18.598L16.695,18.536L16.699,18.498L16.661,18.478L16.661,18.372C16.661,18.372 16.728,18.29 16.675,18.252L16.661,18.198L16.618,18.194L16.598,18.112L16.542,18.097L16.461,18.073L16.444,18.035C16.315,18.055 16.19,18.084 16.057,18.086ZM14.799,12.737C14.542,12.861 14.305,13.025 14.093,13.228L14.695,13.831C14.842,13.693 15.01,13.578 15.194,13.492C15.423,13.385 15.676,13.321 15.944,13.313L15.944,12.462C15.54,12.471 15.152,12.565 14.799,12.737ZM13.932,13.23L13.386,12.685C13.108,12.972 12.883,13.297 12.715,13.648C12.491,14.115 12.368,14.628 12.361,15.16L13.132,15.16C13.139,14.752 13.233,14.365 13.395,14.015C13.53,13.724 13.712,13.458 13.932,13.23ZM18.088,13.436C18.069,13.413 18.053,13.388 18.031,13.368C18.027,13.366 18.025,13.368 18.021,13.366C17.996,13.348 17.991,13.338 17.975,13.322L17.384,13.913C17.398,13.927 17.406,13.944 17.419,13.958C17.448,13.962 17.498,14.026 17.502,14.043L17.51,14.077C17.547,14.125 17.588,14.169 17.62,14.22C17.629,14.223 17.635,14.218 17.645,14.222L17.716,14.232L17.725,14.256L17.845,14.271L17.945,14.382C17.945,14.382 17.949,14.405 17.949,14.425C17.949,14.444 17.992,14.458 17.992,14.458L18.078,14.463L18.078,14.507L18.064,14.536C18.017,14.657 18.126,14.585 18.155,14.551C18.164,14.54 18.159,14.502 18.159,14.502L18.212,14.492L18.226,14.463C18.226,14.463 18.302,14.468 18.322,14.463C18.341,14.458 18.365,14.506 18.384,14.521C18.403,14.535 18.422,14.564 18.408,14.564C18.393,14.564 18.388,14.651 18.388,14.651L18.35,14.655C18.35,14.655 18.383,14.742 18.355,14.738C18.326,14.733 18.297,14.791 18.34,14.81C18.354,14.816 18.468,14.81 18.468,14.81L18.488,14.786C18.488,14.786 18.531,14.767 18.535,14.733C18.54,14.699 18.535,14.685 18.535,14.685L18.559,14.665L18.574,14.612C18.574,14.612 18.616,14.602 18.635,14.583C18.655,14.564 18.688,14.685 18.678,14.704C18.669,14.724 18.636,14.762 18.622,14.767C18.608,14.772 18.569,14.776 18.569,14.791C18.569,14.805 18.541,14.882 18.526,14.892C18.512,14.902 18.355,14.902 18.331,14.902C18.307,14.902 18.259,14.989 18.259,14.989L18.302,14.994L18.293,15.057L18.212,15.081L18.188,15.148L18.178,15.162L18.754,15.162C18.752,15.091 18.738,15.023 18.732,14.953C18.727,14.958 18.722,14.962 18.717,14.969C18.702,14.993 18.679,15.018 18.665,14.969L18.674,14.863C18.674,14.863 18.612,14.882 18.669,14.848C18.693,14.834 18.704,14.788 18.708,14.739C18.697,14.672 18.679,14.608 18.662,14.542L18.655,14.535L18.658,14.528C18.641,14.459 18.622,14.391 18.599,14.324C18.592,14.318 18.592,14.309 18.579,14.307C18.594,14.23 18.471,14.167 18.475,14.143C18.484,14.085 18.365,14.056 18.351,14.08C18.336,14.104 18.336,14.046 18.336,14.046L18.284,14.051L18.279,14.002L18.318,13.988L18.318,13.911L18.394,13.901C18.394,13.901 18.396,13.895 18.402,13.889C18.341,13.778 18.271,13.674 18.194,13.572C18.175,13.565 18.165,13.551 18.162,13.531L18.122,13.479C18.102,13.484 18.085,13.486 18.085,13.442L18.088,13.436ZM17.937,13.823L18.005,13.822C18.033,13.803 18.042,13.712 18.042,13.712C18.099,13.731 18.128,13.692 18.128,13.692C18.128,13.692 18.137,13.722 18.158,13.746C18.177,13.771 18.11,13.78 18.134,13.795C18.158,13.809 18.167,13.852 18.158,13.867C18.148,13.882 18.095,13.872 18.095,13.852C18.095,13.833 18.076,13.877 18.095,13.901C18.115,13.925 18.072,13.958 18.062,13.958C18.052,13.958 17.991,13.968 18.043,13.997C18.095,14.026 18.152,14.012 18.152,14.012C18.152,14.012 18.195,14.007 18.209,14.031C18.224,14.055 18.205,14.06 18.181,14.06C18.157,14.06 18.042,14.05 18.042,14.05C18.042,14.05 18.008,14.084 18.023,14.098C18.049,14.125 17.88,14.118 17.88,14.098C17.88,14.079 17.894,14.012 17.937,14.026C17.98,14.041 17.985,13.939 17.985,13.939C17.985,13.939 17.947,13.944 17.98,13.925C18.013,13.905 17.98,13.876 17.965,13.862C17.952,13.847 17.937,13.823 17.937,13.823ZM16.693,13.565C16.493,13.481 16.278,13.434 16.057,13.429L16.057,14.201C16.137,14.205 16.212,14.231 16.287,14.253C16.294,14.238 16.29,14.216 16.29,14.216C16.29,14.216 16.333,14.206 16.318,14.187C16.304,14.168 16.342,14.153 16.342,14.153C16.342,14.153 16.39,14.138 16.395,14.115C16.399,14.091 16.475,14.095 16.475,14.095C16.475,14.095 16.466,14.182 16.447,14.235C16.436,14.267 16.416,14.273 16.402,14.283C16.426,14.294 16.447,14.314 16.471,14.327L16.476,14.327L16.481,14.333C16.533,14.361 16.585,14.39 16.632,14.428C16.644,14.423 16.66,14.422 16.662,14.409C16.662,14.409 16.708,14.414 16.742,14.397L16.761,14.378C16.756,14.372 16.733,14.374 16.719,14.356C16.7,14.332 16.743,14.332 16.715,14.318C16.686,14.303 16.672,14.303 16.682,14.269C16.691,14.235 16.725,14.264 16.71,14.24C16.696,14.215 16.715,14.177 16.782,14.177L16.81,14.124L16.834,14.128C16.834,14.128 16.834,14.148 16.815,14.177C16.795,14.206 16.862,14.255 16.876,14.211C16.876,14.211 16.902,14.212 16.928,14.21L17.115,14.023C17.113,14.015 17.111,14.008 17.109,13.998C17.105,13.968 17.052,13.992 17.024,13.988C16.995,13.983 17.005,13.964 17.005,13.949C17.005,13.949 17.033,13.91 17.042,13.92C17.052,13.93 17.09,13.915 17.085,13.886C17.081,13.857 17.128,13.882 17.128,13.901C17.128,13.918 17.18,13.928 17.193,13.945L17.226,13.912C17.068,13.763 16.888,13.646 16.693,13.565ZM16.838,14.074C16.838,14.06 16.814,14.04 16.815,14.04L16.762,14.035L16.767,14.002L16.843,13.992C16.843,13.992 16.9,13.977 16.905,14.006C16.909,14.035 16.947,14.006 16.966,14.002C16.985,13.997 16.962,14.065 16.962,14.065C16.962,14.065 16.909,14.103 16.89,14.103C16.871,14.103 16.838,14.088 16.838,14.074ZM20.271,13.492C20.049,12.943 19.721,12.437 19.296,12.001L18.74,12.557L18.732,12.639L18.785,12.639L18.794,12.692L18.901,12.811L18.953,12.815L18.986,12.835L18.986,12.888L19.019,12.892L19.015,12.931L19.128,13.071L19.185,13.075L19.195,13.119L19.266,13.187C19.266,13.187 19.304,13.24 19.299,13.259C19.295,13.278 19.361,13.317 19.356,13.336C19.351,13.355 19.422,13.404 19.418,13.428C19.413,13.452 19.48,13.5 19.48,13.5C19.48,13.5 19.513,13.621 19.465,13.606C19.423,13.593 19.412,13.645 19.407,13.671C19.432,13.725 19.466,13.774 19.488,13.829C19.655,14.248 19.746,14.697 19.753,15.16L20.604,15.16C20.597,14.579 20.482,14.016 20.271,13.492ZM17.222,14.075L17.098,14.199C17.088,14.243 17.161,14.318 17.195,14.253C17.195,14.253 17.209,14.195 17.281,14.147L17.352,14.152L17.39,14.156L17.439,14.164C17.418,14.135 17.397,14.106 17.374,14.078L17.333,14.069C17.333,14.069 17.271,14.079 17.242,14.079C17.236,14.079 17.228,14.075 17.222,14.075ZM17.49,14.388C17.537,14.388 17.514,14.359 17.499,14.286C17.497,14.273 17.51,14.269 17.512,14.258C17.492,14.228 17.466,14.201 17.445,14.171L17.428,14.185L17.39,14.185L17.352,14.204C17.324,14.214 17.405,14.257 17.328,14.272C17.252,14.286 17.328,14.378 17.319,14.392C17.31,14.407 17.348,14.45 17.362,14.465C17.376,14.479 17.409,14.45 17.395,14.431C17.381,14.412 17.395,14.373 17.395,14.354C17.395,14.335 17.433,14.349 17.433,14.349C17.433,14.349 17.442,14.388 17.49,14.388ZM13.844,15.151L13.897,15.156L13.896,15.16L14.081,15.16C14.082,15.146 14.082,15.13 14.087,15.122C14.087,15.122 14.096,15.108 14.105,15.088C14.108,15.052 14.114,15.018 14.118,14.984C14.112,14.964 14.101,14.945 14.078,14.929L14.011,14.934C14.011,14.934 13.906,14.856 13.815,14.992C13.815,14.992 13.787,15.117 13.844,15.151ZM18.242,13.055L18.101,13.193C18.106,13.205 18.112,13.218 18.132,13.222L18.112,13.283C18.131,13.303 18.145,13.326 18.162,13.347L18.207,13.319L18.222,13.377C18.222,13.377 18.26,13.387 18.269,13.425C18.279,13.464 18.279,13.464 18.312,13.474C18.345,13.484 18.355,13.503 18.336,13.537C18.332,13.544 18.332,13.552 18.329,13.559C18.362,13.606 18.402,13.648 18.432,13.697C18.435,13.693 18.447,13.692 18.446,13.687C18.442,13.658 18.494,13.648 18.494,13.648L18.508,13.706L18.552,13.735L18.556,13.785C18.553,13.785 18.544,13.786 18.518,13.793C18.495,13.8 18.492,13.808 18.492,13.815C18.515,13.855 18.534,13.898 18.555,13.938L18.618,13.938L18.652,14.006L18.632,14.069L18.67,14.084L18.661,14.122L18.694,14.146L18.702,14.267C18.706,14.279 18.708,14.292 18.712,14.303L18.756,14.315L18.756,14.345L18.732,14.34L18.726,14.352L18.75,14.434L18.789,14.427L18.827,14.432L18.865,14.451C18.85,14.47 18.826,14.514 18.845,14.552C18.865,14.592 18.845,14.63 18.845,14.63C18.845,14.63 18.817,14.698 18.831,14.712C18.84,14.722 18.834,14.748 18.826,14.775C18.846,14.902 18.865,15.029 18.868,15.16L19.638,15.16C19.632,14.712 19.544,14.278 19.383,13.874C19.368,13.834 19.342,13.798 19.324,13.758C19.313,13.765 19.305,13.773 19.293,13.78L19.245,13.814L19.16,13.818L19.145,13.761L19.093,13.756L19.088,13.712L19.041,13.674C19.041,13.674 19.017,13.63 19.012,13.611C19.008,13.592 18.951,13.577 18.951,13.577C18.951,13.577 18.922,13.538 18.918,13.514C18.913,13.489 18.885,13.475 18.865,13.47C18.846,13.465 18.775,13.47 18.77,13.455C18.765,13.441 18.713,13.383 18.713,13.383L18.652,13.373L18.637,13.344L18.585,13.348L18.552,13.315L18.528,13.272C18.528,13.272 18.513,13.209 18.508,13.18C18.504,13.152 18.422,13.122 18.413,13.209C18.413,13.209 18.347,13.214 18.356,13.195C18.365,13.178 18.31,13.093 18.242,13.055ZM18.737,14.05C18.737,14.035 18.694,14.016 18.709,14.002C18.724,13.988 18.733,13.968 18.748,13.958C18.762,13.948 18.733,13.881 18.757,13.895C18.781,13.909 18.781,13.934 18.79,13.953C18.8,13.972 18.785,14.04 18.809,14.055C18.833,14.069 18.804,14.118 18.842,14.118C18.881,14.118 18.857,14.209 18.857,14.209C18.857,14.209 18.847,14.277 18.871,14.282C18.895,14.286 18.88,14.402 18.88,14.402L18.842,14.378L18.823,14.335C18.823,14.335 18.823,14.296 18.832,14.277C18.842,14.258 18.813,14.238 18.799,14.234C18.785,14.228 18.789,14.19 18.785,14.171C18.78,14.152 18.747,14.137 18.747,14.137C18.747,14.137 18.737,14.065 18.737,14.05ZM18.532,13.595L18.588,13.591C18.588,13.591 18.612,13.635 18.627,13.639C18.642,13.644 18.675,13.653 18.675,13.663C18.675,13.672 18.698,13.74 18.698,13.74C18.698,13.74 18.718,13.784 18.742,13.803C18.742,13.803 18.713,13.871 18.713,13.856C18.713,13.842 18.708,13.837 18.685,13.837C18.661,13.837 18.652,13.808 18.656,13.788C18.661,13.769 18.661,13.73 18.652,13.706C18.642,13.682 18.623,13.692 18.595,13.687C18.566,13.682 18.575,13.668 18.575,13.648C18.575,13.629 18.546,13.615 18.532,13.595ZM18.48,13.489C18.461,13.489 18.442,13.47 18.451,13.445C18.46,13.422 18.436,13.412 18.436,13.392C18.436,13.373 18.451,13.373 18.475,13.388C18.498,13.402 18.494,13.408 18.513,13.432C18.532,13.455 18.542,13.479 18.561,13.475C18.58,13.47 18.594,13.518 18.613,13.504C18.632,13.489 18.628,13.538 18.628,13.538L18.58,13.552C18.565,13.532 18.552,13.518 18.532,13.508C18.513,13.499 18.499,13.489 18.48,13.489ZM13.266,17.61C13.307,17.656 13.344,17.705 13.387,17.751L13.46,17.678C13.445,17.666 13.429,17.655 13.425,17.644C13.415,17.615 13.302,17.528 13.278,17.61L13.266,17.61ZM16.105,16.692L16.058,16.742L16.058,16.875C16.058,16.875 16.233,16.895 16.228,16.861C16.224,16.827 16.315,16.827 16.324,16.875L16.328,16.948L16.381,16.962C16.522,16.932 16.658,16.889 16.785,16.828C16.869,16.786 16.938,16.722 17.015,16.668C17.02,16.627 16.973,16.564 16.938,16.59C16.9,16.618 16.857,16.628 16.848,16.677L16.781,16.696L16.728,16.672C16.728,16.672 16.743,16.643 16.728,16.609C16.715,16.575 16.738,16.508 16.8,16.518L16.809,16.469L16.933,16.46L16.942,16.441C16.942,16.441 16.975,16.441 16.995,16.431C17.014,16.422 17.042,16.378 16.985,16.344L16.978,16.343L16.833,16.329L16.828,16.305L16.795,16.305C16.795,16.305 16.782,16.334 16.791,16.397L16.672,16.392L16.672,16.428L16.7,16.437L16.709,16.538L16.676,16.548L16.685,16.621L16.657,16.616C16.633,16.578 16.6,16.602 16.619,16.684L16.676,16.698L16.681,16.747L16.762,16.762L16.757,16.805L16.672,16.805L16.657,16.776L16.614,16.776L16.599,16.742L16.556,16.747C16.556,16.747 16.523,16.742 16.523,16.718C16.523,16.693 16.452,16.597 16.452,16.597L16.39,16.597C16.352,16.592 16.305,16.582 16.342,16.635L16.399,16.659L16.452,16.683L16.48,16.717L16.452,16.712L16.442,16.775C16.442,16.775 16.418,16.785 16.414,16.756C16.411,16.738 16.442,16.732 16.39,16.718L16.328,16.708C16.328,16.708 16.318,16.674 16.271,16.678C16.271,16.678 16.223,16.62 16.214,16.668L16.105,16.692ZM16.358,16.05C16.361,16.014 16.369,15.907 16.318,15.925L16.271,15.978L16.271,16.07C16.299,16.061 16.331,16.062 16.358,16.05ZM14.901,15.345L14.85,15.359L14.855,15.417L14.94,15.417L14.954,15.364L14.963,15.383L14.996,15.373L15,15.355C14.996,15.327 14.983,15.302 14.982,15.274L14.928,15.274L14.92,15.315L14.901,15.345ZM17.369,11.844C16.957,11.677 16.514,11.585 16.057,11.578L16.057,11.785C16.066,11.802 16.085,11.817 16.109,11.813C16.138,11.808 16.171,11.866 16.142,11.871C16.114,11.876 16.109,11.881 16.105,11.9C16.102,11.912 16.084,11.919 16.057,11.92L16.057,12.348C16.415,12.355 16.764,12.428 17.087,12.561C17.165,12.592 17.237,12.639 17.312,12.678L17.314,12.673C17.309,12.654 17.3,12.586 17.328,12.591C17.357,12.595 17.338,12.591 17.372,12.605C17.405,12.62 17.409,12.582 17.409,12.582L17.462,12.582L17.528,12.636L17.518,12.68L17.471,12.685C17.448,12.646 17.4,12.661 17.409,12.695C17.412,12.704 17.405,12.716 17.403,12.728C17.518,12.793 17.627,12.867 17.733,12.948C17.741,12.931 17.745,12.915 17.733,12.888C17.718,12.854 17.662,12.825 17.662,12.825L17.652,12.742L17.6,12.742L17.567,12.704C17.567,12.704 17.595,12.695 17.619,12.665C17.643,12.636 17.581,12.593 17.548,12.559C17.515,12.525 17.519,12.564 17.491,12.549C17.462,12.535 17.482,12.515 17.491,12.486C17.501,12.457 17.558,12.495 17.558,12.495C17.558,12.495 17.734,12.641 17.729,12.684C17.725,12.728 17.811,12.775 17.848,12.752C17.887,12.728 18.068,12.984 18.048,12.969C18.029,12.955 17.986,12.984 17.986,12.984C17.986,12.984 17.977,13.1 18.001,13.085C18.01,13.08 18.027,13.089 18.042,13.098L18.212,12.928L18.21,12.897C18.21,12.897 18.262,12.892 18.262,12.863C18.262,12.834 18.2,12.708 18.119,12.679C18.099,12.672 17.976,12.674 17.967,12.737L17.9,12.732L17.885,12.612C17.881,12.573 17.862,12.597 17.866,12.573C17.871,12.548 17.818,12.534 17.833,12.529C17.848,12.524 17.876,12.428 17.857,12.398C17.838,12.369 17.767,12.355 17.776,12.335C17.785,12.315 17.785,12.238 17.785,12.238C17.785,12.238 17.748,12.238 17.757,12.215C17.766,12.19 17.738,12.094 17.666,12.098C17.666,12.098 17.666,12.05 17.647,12.045C17.628,12.041 17.566,12.041 17.566,12.041C17.566,12.041 17.557,11.978 17.581,11.978C17.587,11.978 17.589,11.967 17.593,11.961C17.518,11.924 17.447,11.875 17.369,11.844ZM16.753,11.843C16.775,11.845 16.809,11.791 16.809,11.804C16.809,11.818 16.862,11.823 16.862,11.823L16.895,11.847L16.932,11.896L16.928,11.93C16.928,11.93 16.875,11.935 16.875,11.92C16.875,11.905 16.852,11.876 16.814,11.876C16.814,11.876 16.777,11.855 16.753,11.843ZM16.753,11.843C16.752,11.843 16.748,11.848 16.747,11.847C16.727,11.832 16.737,11.835 16.753,11.843ZM17.247,12.465C17.271,12.465 17.275,12.504 17.276,12.503L17.276,12.542L17.162,12.445L17.124,12.425C17.124,12.425 17.072,12.421 17.067,12.402C17.062,12.382 17.053,12.373 17.01,12.363C16.967,12.354 16.972,12.305 16.962,12.276C16.953,12.248 16.934,12.248 16.934,12.233C16.934,12.218 16.991,12.233 16.991,12.233C16.991,12.233 16.985,12.277 17,12.282C17.015,12.287 17.072,12.277 17.072,12.277C17.072,12.277 17.085,12.321 17.057,12.311C17.028,12.301 17.109,12.378 17.109,12.378C17.109,12.378 17.199,12.398 17.19,12.417C17.18,12.436 17.223,12.465 17.247,12.465ZM20.145,17.218C20.431,16.629 20.595,15.969 20.603,15.273L19.752,15.273C19.745,15.814 19.623,16.335 19.399,16.812C19.225,17.183 18.988,17.527 18.694,17.83L19.294,18.43C19.638,18.076 19.927,17.668 20.145,17.218ZM18.519,16.331C18.663,16.006 18.747,15.649 18.752,15.275L18.087,15.275C18.085,15.295 18.091,15.318 18.121,15.341C18.135,15.331 18.206,15.413 18.206,15.452L18.235,15.519C18.235,15.519 18.23,15.625 18.306,15.645C18.315,15.621 18.392,15.688 18.406,15.688C18.421,15.688 18.502,15.799 18.502,15.799L18.487,15.842C18.487,15.842 18.368,15.828 18.363,15.862C18.363,15.862 18.287,15.91 18.263,15.895C18.239,15.881 18.22,15.915 18.211,15.929C18.201,15.944 18.115,15.934 18.115,15.934L18.106,15.9L18.045,15.91C18.045,15.91 18.059,15.973 18.012,15.992L17.888,15.992C17.822,15.992 17.783,16.113 17.778,16.157C17.774,16.201 17.665,16.292 17.665,16.292C17.665,16.292 17.608,16.287 17.603,16.335L17.579,16.384L17.532,16.408L17.46,16.428L17.448,16.443L17.455,16.494L17.532,16.494L17.551,16.47L17.622,16.451C17.622,16.451 17.661,16.451 17.67,16.422C17.68,16.393 17.647,16.349 17.661,16.349C17.675,16.349 17.694,16.315 17.694,16.315C17.694,16.315 17.77,16.315 17.775,16.292L17.846,16.359L17.846,16.591L17.822,16.595L17.818,16.702L17.789,16.712L17.789,16.76L17.756,16.789L17.761,16.847L17.736,16.872L17.785,16.921L17.794,16.89L17.879,16.778L17.932,16.778L17.922,16.895L17.961,16.914C17.961,16.914 17.982,17.021 17.991,17.118C18.21,16.89 18.389,16.624 18.519,16.331ZM18.585,15.658C18.604,15.716 18.585,15.707 18.566,15.702C18.547,15.697 18.499,15.716 18.471,15.678C18.45,15.65 18.565,15.601 18.585,15.658ZM16.058,17.864L16.058,17.972C16.17,17.97 16.275,17.945 16.383,17.929L16.343,17.881C16.343,17.881 16.272,17.905 16.219,17.866C16.175,17.834 16.082,17.837 16.058,17.864ZM17.41,11.738C17.499,11.773 17.579,11.828 17.665,11.87C17.725,11.868 17.832,11.874 17.866,11.856L17.871,11.827L17.962,11.822L17.976,11.798L18.009,11.813L18.057,11.823L18.085,11.852L18.205,11.862L18.242,11.92L18.275,11.968L18.38,11.973L18.385,12.031L18.414,12.044L18.442,12.054L18.442,12.112L18.495,12.107L18.499,12.136L18.532,12.151L18.537,12.233C18.537,12.233 18.552,12.296 18.556,12.311C18.561,12.325 18.642,12.315 18.642,12.315L18.67,12.345L18.67,12.383C18.67,12.383 18.623,12.417 18.656,12.432C18.67,12.438 18.69,12.432 18.708,12.428L19.215,11.921C18.778,11.495 18.272,11.167 17.722,10.945C17.198,10.735 16.636,10.621 16.057,10.614L16.057,11.465C16.528,11.472 16.986,11.565 17.41,11.738ZM16.418,11.272L16.481,11.336C16.518,11.369 16.505,11.398 16.442,11.379L16.371,11.307L16.262,11.297L16.233,11.248L16.081,11.234L16.119,11.191L16.191,11.181L16.258,11.137L16.319,11.113L16.381,11.132L16.4,11.2L16.418,11.219L16.418,11.272ZM16.857,11.035C16.857,11.035 16.905,11.04 16.929,11.03C16.953,11.02 16.972,11.098 16.948,11.088C16.925,11.078 16.868,11.098 16.868,11.098C16.868,11.098 16.858,11.127 16.839,11.146L16.602,11.142L16.587,11.171C16.587,11.171 16.525,11.19 16.463,11.171C16.401,11.152 16.462,11.056 16.472,11.098C16.477,11.118 16.535,11.098 16.544,11.069L16.653,11.059C16.653,11.059 16.682,11.055 16.686,11.035C16.691,11.016 16.767,11.002 16.772,11.035L16.857,11.035ZM18.256,11.833L18.184,11.809C18.146,11.8 18.127,11.775 18.122,11.752C18.115,11.713 18.218,11.678 18.242,11.708C18.265,11.736 18.332,11.742 18.342,11.886C18.345,11.938 18.256,11.833 18.256,11.833ZM17.081,16.217L17.098,16.235C17.122,16.244 17.158,16.237 17.166,16.224C17.175,16.209 17.19,16.199 17.195,16.228C17.199,16.257 17.285,16.262 17.295,16.233C17.304,16.205 17.275,16.146 17.252,16.161C17.228,16.175 17.19,16.161 17.195,16.146C17.199,16.132 17.147,16.069 17.085,16.127C17.085,16.127 17.071,16.108 17.085,16.064C17.099,16.02 17.014,16.049 17.018,16.068C17.022,16.083 17.015,16.124 17.018,16.154L17.057,16.193C17.065,16.194 17.075,16.193 17.08,16.199C17.088,16.207 17.083,16.212 17.081,16.217ZM21.155,12.729C20.893,12.483 20.588,12.301 20.365,12.006C20.098,11.653 19.866,11.261 19.518,10.955C19.992,11.14 20.5,11.328 20.808,11.815C20.988,12.099 21.014,12.435 21.155,12.729ZM12.235,17.479L12.197,17.426L12.178,17.383L12.145,17.296L12.216,17.329L12.24,17.397L12.273,17.422L12.307,17.494L12.288,17.528L12.235,17.479Z" fill="#f4f4f4" />
</svg>
