<svg width="32" height="32" viewBox="0 0 32 32" xmlns="http://www.w3.org/2000/svg">
  <rect fill="#D52C38" x="2" y="6" width="28" height="20" />
  <path d="M13.728,19.204L14.596,16.534L12.325,14.884L15.132,14.884L16,12.211L16.868,14.883L19.675,14.883L17.404,16.533L18.272,19.203L16,17.553L13.728,19.204ZM16.485,17.202L17.189,17.713L16.92,16.885L16.485,17.202ZM15.08,16.885L14.811,17.713L15.515,17.202L15.08,16.885ZM15.265,16.315L16,16.849L16.735,16.315L16.454,15.452L15.545,15.452L15.265,16.315ZM14.077,15.452L14.781,15.964L14.947,15.452L14.077,15.452ZM17.053,15.452L17.219,15.964L17.923,15.452L17.053,15.452ZM16.269,14.883L16,14.054L15.731,14.884L16.269,14.884L16.269,14.883Z" fill="#01773f"/>
</svg>
