<?xml version="1.0" encoding="UTF-8"?>
<svg xmlns="http://www.w3.org/2000/svg" xmlns:xlink="http://www.w3.org/1999/xlink" width="32px" height="32px" viewBox="0 0 32 32" version="1.1">
  <path fill="#00a6ed" d="M 6 6 L 26 6 L 26 26 L 6 26 Z M 6 6 "/>
  <path fill="#f4f4f4" d="M 11.988281 11.191406 C 11.988281 10.363281 12.453125 9.847656 13.3125 9.847656 L 16.34375 9.847656 C 19 9.847656 20.632812 11.035156 20.632812 13.738281 C 20.632812 15.632812 19.203125 16.71875 17.449219 16.996094 L 20.375 20.128906 C 20.617188 20.390625 20.71875 20.648438 20.71875 20.886719 C 20.71875 21.558594 20.1875 22.214844 19.429688 22.214844 C 19.117188 22.214844 18.707031 22.09375 18.429688 21.765625 L 14.605469 17.132812 L 14.570312 17.132812 L 14.570312 20.871094 C 14.570312 21.730469 14.019531 22.214844 13.28125 22.214844 C 12.539062 22.214844 11.988281 21.730469 11.988281 20.871094 Z M 14.570312 15.273438 L 16.34375 15.273438 C 17.292969 15.273438 17.945312 14.703125 17.945312 13.738281 C 17.945312 12.757812 17.292969 12.222656 16.34375 12.222656 L 14.570312 12.222656 Z M 14.570312 15.273438 "/>
</svg>
