<svg width="32" height="32" viewBox="0 0 32 32" xmlns="http://www.w3.org/2000/svg">
  <rect x="2" y="6" width="28" height="20" fill="#008E48" />
  <rect x="5.5" y="6" width="5" height="20" fill="#e71a43" />
  <path d="M9.801,7.491L10.187,7.747L10.187,8.452L9.801,8.708L9.801,9.013L9.384,9.285L9.071,9.285L8.566,9.568L7.434,9.568L6.929,9.285L6.616,9.285L6.199,9.013L6.199,8.708L5.813,8.452L5.813,7.747L6.199,7.491L6.199,7.186L6.616,6.914L6.929,6.914L7.434,6.631L8.566,6.631L9.071,6.914L9.384,6.914L9.801,7.186L9.801,7.491ZM7.725,19.911L6.728,19.911L6.728,19.51L6.375,19.51L6.375,19.142L6.066,19.142L6.066,18.645L6.375,18.645L6.375,18.304L6.728,18.304L6.728,17.925L7.697,17.925L8,17.731L8.307,17.925L9.294,17.925L9.294,18.304L9.61,18.304L9.61,18.645L9.979,18.645L9.979,19.142L9.61,19.142L9.61,19.51L9.295,19.51L9.295,19.911L8.288,19.911L8,20.103L7.725,19.911ZM7.425,18.098L6.899,18.098L6.899,18.434L7.425,18.098ZM7.687,19.209L7.687,19.682L8.341,19.682L8.341,19.209L7.687,19.209ZM9.126,18.443L9.126,18.098L8.581,18.098L9.126,18.443ZM6.899,19.334L6.899,19.702L7.425,19.702L6.899,19.334ZM8.601,19.702L9.126,19.702L9.126,19.351L8.601,19.702ZM7.687,18.132L7.687,18.605L8.341,18.605L8.341,18.132L7.687,18.132ZM8.631,14.189L9.504,14.851L9.504,15.787L8.631,16.448L7.398,16.448L6.526,15.787L6.526,14.851L7.398,14.189L8.631,14.189ZM9.156,15.678L9.156,14.96L8.487,14.452L7.541,14.452L6.872,14.96L6.872,15.678L7.541,16.186L8.487,16.186L9.156,15.678ZM8.781,21.032L9.864,21.779L9.864,22.834L8.78,23.58L7.248,23.58L6.164,22.834L6.164,21.779L7.248,21.032L8.781,21.032ZM9.538,22.741L9.538,21.872L8.645,21.257L7.384,21.257L6.491,21.872L6.491,22.741L7.384,23.355L8.644,23.355L9.538,22.741Z" fill="#008E48" />
  <path d="M7.656,25.089C7.384,25.119 7.187,25.236 6.914,25.255C6.571,25.278 5.517,24.419 6.065,23.103C6.556,23.484 6.301,23.948 6.526,24.173C6.75,24.398 6.986,24.55 7.077,24.815C7.169,25.079 7.596,24.86 7.881,24.911C7.922,24.918 7.961,24.927 8,24.938C8.038,24.927 8.077,24.918 8.119,24.911C8.404,24.86 8.831,25.079 8.922,24.815C9.013,24.55 9.249,24.398 9.474,24.173C9.698,23.948 9.444,23.484 9.934,23.103C10.483,24.419 9.429,25.278 9.086,25.255C8.813,25.236 8.616,25.119 8.343,25.089C8.511,25.192 8.606,25.295 8.606,25.295L8.431,25.423C8.431,25.423 8.313,25.179 8,25.105C7.687,25.179 7.568,25.423 7.568,25.423L7.394,25.295C7.394,25.295 7.489,25.192 7.656,25.089ZM8,8.099L6.163,8.098L6.163,7.798L6.493,7.578L6.493,7.319L6.849,7.086L7.116,7.086L7.547,6.845L8.03,6.845L8.03,8.099L9.866,8.099L9.866,8.401L9.536,8.619L9.536,8.879L9.181,9.112L8.914,9.112L8.482,9.352L8,9.352L8,8.099ZM7.613,11.18L7.612,11.328L7.129,11.328L7.129,11.528L6.646,11.528L6.646,11.608L6.163,11.608L6.163,11.048L6.646,11.048L6.646,10.968L7.129,10.968L7.129,10.768L7.613,10.768L7.613,10.487L8.402,10.487L8.402,10.768L8.884,10.768L8.885,10.968L9.368,10.968L9.368,11.048L9.851,11.048L9.851,11.608L9.369,11.608L9.368,11.528L8.885,11.528L8.885,11.328L8.401,11.328L8.402,11.18L7.613,11.18ZM7.613,12.598L7.129,12.598L7.129,12.398L6.646,12.398L6.646,12.318L6.163,12.318L6.163,11.757L6.646,11.757L6.646,11.837L7.129,11.837L7.129,12.038L7.612,12.038L7.613,12.186L8.402,12.186L8.401,12.038L8.885,12.038L8.885,11.837L9.368,11.837L9.369,11.757L9.851,11.757L9.851,12.318L9.368,12.318L9.368,12.398L8.885,12.398L8.884,12.598L8.402,12.598L8.402,12.879L7.613,12.879L7.613,12.598ZM5.5,8.63L6.081,9.21L5.923,9.368L6.153,9.599L6.306,9.447L6.784,9.926L6.311,10.4L6.114,10.202L5.905,10.41L6.081,10.585L5.5,11.098L5.5,10.827L5.818,10.526L5.646,10.388L6.085,9.95L6.338,10.17L6.575,9.933L6.321,9.68L6.144,9.857L5.682,9.395L5.855,9.222L5.5,8.901L5.5,8.63ZM5.5,12.188L6.081,12.768L5.923,12.926L6.153,13.157L6.306,13.005L6.784,13.484L6.311,13.957L6.114,13.76L5.905,13.968L6.081,14.143L5.5,14.655L5.5,14.385L5.818,14.084L5.646,13.946L6.085,13.508L6.338,13.727L6.575,13.491L6.321,13.238L6.144,13.415L5.682,12.953L5.855,12.78L5.5,12.458L5.5,12.188ZM5.5,15.818L6.081,16.398L5.923,16.556L6.153,16.787L6.306,16.635L6.784,17.114L6.311,17.587L6.114,17.39L5.905,17.598L6.081,17.773L5.5,18.285L5.5,18.015L5.818,17.714L5.646,17.576L6.085,17.137L6.338,17.357L6.575,17.121L6.321,16.867L6.144,17.044L5.682,16.583L5.855,16.41L5.5,16.088L5.5,15.818ZM5.5,19.399L6.081,19.98L5.923,20.138L6.153,20.368L6.306,20.216L6.784,20.695L6.311,21.169L6.114,20.971L5.905,21.18L6.081,21.354L5.5,21.867L5.5,21.597L5.818,21.295L5.646,21.157L6.085,20.72L6.338,20.939L6.575,20.702L6.321,20.449L6.144,20.627L5.682,20.164L5.855,19.991L5.5,19.67L5.5,19.399ZM10.5,8.63L10.5,8.901L10.145,9.222L10.318,9.395L9.856,9.857L9.679,9.68L9.425,9.933L9.662,10.17L9.915,9.95L10.354,10.388L10.182,10.526L10.5,10.827L10.5,11.098L9.919,10.585L10.095,10.41L9.886,10.202L9.689,10.4L9.216,9.926L9.694,9.447L9.847,9.599L10.077,9.368L9.919,9.21L10.5,8.63ZM5.905,6.496L6.081,6.671L5.5,7.183L5.5,6.913L5.818,6.612L5.646,6.473L6.085,6.035L6.338,6.255L6.575,6.018L6.556,6L6.774,6L6.784,6.012L6.311,6.485L6.114,6.287L5.905,6.496ZM10.362,6.473L10.191,6.612L10.509,6.913L10.509,7.183L9.928,6.671L10.103,6.496L9.894,6.287L9.697,6.485L9.224,6.012L9.235,6L9.452,6L9.434,6.018L9.671,6.255L9.924,6.035L10.362,6.473ZM10.5,12.188L10.5,12.458L10.145,12.78L10.318,12.953L9.856,13.415L9.679,13.238L9.425,13.491L9.662,13.727L9.915,13.508L10.354,13.946L10.182,14.084L10.5,14.385L10.5,14.655L9.919,14.143L10.095,13.968L9.886,13.76L9.689,13.957L9.216,13.484L9.694,13.005L9.847,13.157L10.077,12.926L9.919,12.768L10.5,12.188ZM10.5,15.818L10.5,16.088L10.145,16.41L10.318,16.583L9.856,17.044L9.679,16.867L9.425,17.121L9.662,17.357L9.915,17.137L10.354,17.576L10.182,17.714L10.5,18.015L10.5,18.285L9.919,17.773L10.095,17.598L9.886,17.39L9.689,17.587L9.216,17.114L9.694,16.635L9.847,16.787L10.077,16.556L9.919,16.398L10.5,15.818ZM10.5,19.399L10.5,19.67L10.145,19.991L10.318,20.164L9.856,20.627L9.679,20.449L9.425,20.702L9.662,20.939L9.915,20.72L10.354,21.157L10.182,21.295L10.5,21.597L10.5,21.867L9.919,21.354L10.095,21.18L9.886,20.971L9.689,21.169L9.216,20.695L9.694,20.216L9.847,20.368L10.077,20.138L9.919,19.98L10.5,19.399ZM6.646,18.68L7.541,18.68L7.541,19.153L6.646,19.153L6.646,18.68ZM8.491,18.68L9.369,18.68L9.369,19.153L8.491,19.153L8.491,18.68Z" fill="#F9C23C" />
  <path d="M8,8.099L8,9.352L7.518,9.352L7.086,9.112L6.819,9.112L6.464,8.879L6.464,8.619L6.134,8.401L6.134,8.099L8,8.099ZM8,8.099L8,6.847L8.482,6.847L8.914,7.088L9.181,7.088L9.536,7.32L9.536,7.58L9.866,7.798L9.866,8.099L8,8.099ZM8.749,21.083L9.789,21.8L9.789,22.812L8.749,23.528L7.279,23.528L6.239,22.812L6.239,21.8L7.279,21.083L8.749,21.083ZM7.394,21.974L7.394,22.727L8,23.103L8.606,22.727L8.606,21.974L8,21.596L7.394,21.974Z" fill="#f4f4f4" />
  <path d="M16.297,8.53C17.122,8.911 17.697,9.739 17.697,10.708C17.697,12.036 16.621,13.112 15.293,13.112C14.593,13.112 13.968,12.808 13.529,12.329C13.887,12.547 14.303,12.679 14.753,12.679C16.06,12.679 17.12,11.619 17.12,10.312C17.12,9.597 16.797,8.964 16.297,8.53ZM14.502,8.205L14.313,8.577L14.607,8.872L14.196,8.807L14.006,9.178L13.941,8.767L13.529,8.702L13.9,8.512L13.835,8.099L14.13,8.395L14.502,8.205ZM15.68,8.919L15.49,9.291L15.786,9.586L15.373,9.521L15.183,9.892L15.119,9.48L14.707,9.415L15.078,9.225L15.013,8.813L15.308,9.108L15.68,8.919ZM14.502,9.431L14.313,9.802L14.607,10.098L14.196,10.032L14.006,10.404L13.941,9.992L13.529,9.926L13.9,9.737L13.835,9.325L14.13,9.62L14.502,9.431ZM13.276,10.053L13.087,10.425L13.382,10.72L12.97,10.655L12.78,11.027L12.715,10.615L12.303,10.549L12.674,10.36L12.61,9.948L12.904,10.243L13.276,10.053ZM14.502,10.747L14.313,11.118L14.607,11.414L14.196,11.348L14.006,11.72L13.941,11.308L13.529,11.242L13.9,11.053L13.835,10.641L14.13,10.936L14.502,10.747Z" fill="#f4f4f4" />
</svg>
