<svg width="32" height="32" viewBox="0 0 32 32" xmlns="http://www.w3.org/2000/svg">
  <path d="M30,6L30,16.115L29,17L3,17L2,16.115L2,6L30,6Z" fill="#CF0828"/>
  <path d="M19.327,16.972C19.607,16.591 19.996,16.593 20.462,16.835C20.397,16.219 19.661,15.829 19.329,15.776C19.464,15.322 19.899,15.095 20.417,15.162C20.149,14.604 19.26,14.586 18.928,14.654C18.903,14.178 19.237,13.814 19.744,13.696C19.306,13.265 18.465,13.558 18.174,13.735C17.992,13.298 18.181,12.839 18.62,12.552C18.063,12.299 17.369,12.866 17.157,13.134C16.837,12.787 16.862,12.29 17.178,11.869C16.569,11.823 16.109,12.601 16,12.925C15.582,12.711 15.438,12.237 15.59,11.732C15.005,11.902 14.834,12.791 14.842,13.133C14.379,13.077 14.082,12.682 14.054,12.153C13.562,12.517 13.7,13.411 13.823,13.73C13.368,13.84 12.956,13.569 12.753,13.083C12.413,13.596 12.844,14.388 13.067,14.644C12.675,14.905 12.199,14.796 11.843,14.407C11.696,15.009 12.368,15.604 12.665,15.767C12.385,16.148 12.217,16.428 11.752,16.188C11.816,16.805 12.333,16.91 12.666,16.962L19.327,16.972ZM15.854,8.659C15.664,8.404 15.429,8.132 15.145,8.004C14.861,7.877 14.354,7.797 13.807,7.94C13.194,8.1 12.463,8.347 11.888,8.18C11.778,8.148 11.699,8.26 11.919,8.388C12.139,8.516 12.698,8.548 13.256,8.475C13.65,8.425 14.17,8.443 14.374,8.523C14.618,8.619 15.058,8.947 15.247,9.282L15.854,8.659ZM17.097,10.05C17.267,9.983 17.655,9.95 17.811,9.977C18.017,10.011 18.302,9.909 18.396,9.867C18.566,9.791 18.385,9.662 17.727,9.699C17.294,9.722 17.126,9.913 17.097,10.05Z" fill="#FFB02E"/>
  <path d="M13.638,16.371L11.35,15.54L13.78,15.552L11.911,13.974L14.19,14.83L12.966,12.698L14.819,14.294L14.386,11.865L15.589,14.009L16,11.576L16.411,14.009L17.616,11.865L17.182,14.294L19.036,12.698L17.811,14.83L20.09,13.974L18.222,15.552L20.65,15.54L18.362,16.371C18.362,16.372 18.362,16.372 18.362,16.373C18.362,17.699 17.305,18.773 16,18.773C14.696,18.773 13.638,17.698 13.638,16.373C13.638,16.372 13.638,16.371 13.638,16.371Z" fill="#FFF478"/>
  <path d="M16,18.803C14.68,18.803 13.608,17.713 13.608,16.373C13.608,15.033 14.68,13.944 16,13.944C17.319,13.944 18.392,15.033 18.392,16.373C18.392,17.713 17.319,18.803 16,18.803ZM16,14.003C14.715,14.003 13.668,15.067 13.668,16.373C13.668,17.68 14.714,18.743 16,18.743C17.285,18.743 18.331,17.68 18.331,16.373C18.331,15.067 17.285,14.003 16,14.003Z" fill="#F95725"/>
  <path d="M19.545,7.636C18.183,7.573 17.837,7.852 17.176,7.908C16.573,7.958 16.193,8.142 15.886,8.5C15.61,8.82 15.337,9.11 15.185,9.211C15.167,9.224 15.156,9.237 15.141,9.25C14.917,9.234 14.692,9.144 14.563,9.02C14.35,8.813 14.065,8.788 13.856,8.999C13.816,9.04 13.769,9.104 13.638,9.104C13.414,9.104 13.057,9.108 13.052,9.484C13.17,9.336 13.253,9.311 13.634,9.311C13.693,9.311 13.765,9.34 13.823,9.44C13.91,9.587 14.102,9.703 14.296,9.707C14.488,9.711 14.569,9.841 14.697,9.979C15.067,10.379 15.893,10.642 16.664,10.346C17.063,10.194 17.437,9.674 18.113,9.691C18.759,9.707 19.096,9.499 18.538,9.355C17.979,9.211 17.553,9.267 17.176,9.34C17.043,9.365 16.909,9.346 16.768,9.313C16.823,9.299 16.863,9.268 16.877,9.215C16.974,9.252 17.124,9.192 17.156,9.087C17.253,9.128 17.399,9.071 17.436,8.976C17.565,9.024 17.698,8.988 17.757,8.872C17.843,8.924 17.992,8.868 18.016,8.748C18.103,8.805 18.238,8.796 18.269,8.668C18.379,8.744 18.512,8.684 18.505,8.556C18.556,8.58 18.661,8.556 18.67,8.476C18.874,8.484 19.133,8.476 19.133,8.325C19.307,8.333 19.55,8.254 19.545,8.066C19.666,8.058 19.821,7.963 19.857,7.83C19.891,7.718 19.765,7.646 19.545,7.636Z" fill="#FCD53F"/>
  <path d="M29,17L30,17.519L30,19.315L29,20L30,20.719L30,22.515L29,23L30,23.919L30,26L2,26L2,23.919L3,23L2,22.515L2,20.719L3,20L2,19.315L2,17.519L3,17L29,17Z" fill="#062365"/>
  <path d="M2,17.519L2,16.115C2.488,16.16 2.975,16.322 3.463,16.6C4.168,17.003 4.872,17.003 5.577,16.6C6.739,15.937 7.901,15.937 9.063,16.6C9.768,17.003 10.472,17.003 11.177,16.6C12.321,15.947 13.521,15.934 14.778,16.587C15.593,17.01 16.407,17.01 17.222,16.587C18.479,15.934 19.679,15.947 20.823,16.6C21.528,17.003 22.232,17.003 22.937,16.6C24.099,15.937 25.261,15.937 26.423,16.6C27.128,17.003 27.832,17.003 28.537,16.6C29.025,16.322 29.512,16.16 30,16.115L30,17.519C29.741,17.558 29.482,17.651 29.223,17.8C28.061,18.463 26.899,18.463 25.737,17.8C25.032,17.397 24.328,17.397 23.623,17.8C22.461,18.463 21.299,18.463 20.137,17.8C19.414,17.386 18.654,17.399 17.858,17.813C16.619,18.456 15.381,18.456 14.142,17.813C13.346,17.399 12.586,17.386 11.863,17.8C10.701,18.463 9.539,18.463 8.377,17.8C7.672,17.397 6.968,17.397 6.263,17.8C5.101,18.463 3.939,18.463 2.777,17.8C2.518,17.651 2.259,17.558 2,17.519ZM2,19.315C2.488,19.36 2.975,19.522 3.463,19.8C4.168,20.203 4.872,20.203 5.577,19.8C6.739,19.137 7.901,19.137 9.063,19.8C9.768,20.203 10.472,20.203 11.177,19.8C12.321,19.147 13.521,19.134 14.778,19.787C15.593,20.21 16.407,20.21 17.222,19.787C18.479,19.134 19.679,19.147 20.823,19.8C21.528,20.203 22.232,20.203 22.937,19.8C24.099,19.137 25.261,19.137 26.423,19.8C27.128,20.203 27.832,20.203 28.537,19.8C29.025,19.522 29.512,19.36 30,19.315L30,20.719C29.741,20.758 29.482,20.851 29.223,21C28.061,21.663 26.899,21.663 25.737,21C25.032,20.597 24.328,20.597 23.623,21C22.461,21.663 21.299,21.663 20.137,21C19.414,20.586 18.654,20.599 17.858,21.013C16.619,21.656 15.381,21.656 14.142,21.013C13.346,20.599 12.586,20.586 11.863,21C10.701,21.663 9.539,21.663 8.377,21C7.672,20.597 6.968,20.597 6.263,21C5.101,21.663 3.939,21.663 2.777,21C2.518,20.851 2.259,20.758 2,20.719L2,19.315ZM2,22.515C2.488,22.56 2.975,22.722 3.463,23C4.168,23.403 4.872,23.403 5.577,23C6.739,22.337 7.901,22.337 9.063,23C9.768,23.403 10.472,23.403 11.177,23C12.321,22.347 13.521,22.334 14.778,22.987C15.593,23.41 16.407,23.41 17.222,22.987C18.479,22.334 19.679,22.347 20.823,23C21.528,23.403 22.232,23.403 22.937,23C24.099,22.337 25.261,22.337 26.423,23C27.128,23.403 27.832,23.403 28.537,23C29.025,22.722 29.512,22.56 30,22.515L30,23.919C29.741,23.958 29.482,24.051 29.223,24.2C28.061,24.863 26.899,24.863 25.737,24.2C25.032,23.797 24.328,23.797 23.623,24.2C22.461,24.863 21.299,24.863 20.137,24.2C19.414,23.786 18.654,23.799 17.858,24.213C16.619,24.856 15.381,24.856 14.142,24.213C13.346,23.799 12.586,23.786 11.863,24.2C10.701,24.863 9.539,24.863 8.377,24.2C7.672,23.797 6.968,23.797 6.263,24.2C5.101,24.863 3.939,24.863 2.777,24.2C2.518,24.051 2.259,23.958 2,23.919L2,22.515Z" fill="#f4f4f4"/>
</svg>
