<svg width="32" height="32" viewBox="0 0 32 32" xmlns="http://www.w3.org/2000/svg">
  <polygon fill="#F4F4F4" points="2,6 16,6 17,7 17,25 16,26 2,26" />
  <rect fill="#CF0828" x="16" y="6" width="14" height="20" />
  <!-- <rect x="3.25" y="9.5" width="6.5" height="2" fill="#cf0828" />
  <rect x="5.5" y="7.25" width="2" height="6.5" fill="#cf0828" />
  <circle cx="5.5" cy="11.5" r="0.707" fill="#cf0828" />
  <circle cx="7.5" cy="11.5" r="0.707" fill="#cf0828" />
  <circle cx="5.5" cy="9.5" r="0.707" fill="#cf0828" />
  <circle cx="7.5" cy="9.5" r="0.707" fill="#cf0828" /> -->
  <path fill="#CF0828" d="M4.793,11.5L3.25,11.5L3.25,9.5L4.793,9.5C4.793,9.11 5.11,8.793 5.5,8.793L5.5,7.25L7.5,7.25L7.5,8.793C7.89,8.793 8.207,9.11 8.207,9.5L9.75,9.5L9.75,11.5L8.207,11.5C8.207,11.89 7.89,12.207 7.5,12.207L7.5,13.75L5.5,13.75L5.5,12.207C5.11,12.207 4.793,11.89 4.793,11.5Z" />
  <circle cx="5.499" cy="11.5" r="0.5" fill="#b7c0c5" />
  <circle cx="7.5" cy="11.5" r="0.5" fill="#b7c0c5" />
  <circle cx="5.499" cy="9.5" r="0.5" fill="#b7c0c5" />
  <circle cx="7.5" cy="9.5" r="0.5" fill="#b7c0c5" />
  <!-- <rect x="5.75" y="7.5" width="1.5" height="6" fill="#cfd4d8" />
  <rect x="3.5" y="9.75" width="6" height="1.5" fill="#cfd4d8" />
  <circle cx="6.5" cy="10.5" r="1.4" fill="#cfd4d8" /> -->
  <path fill="#cfd4d8" d="M5.318,11.25L3.5,11.25L3.5,9.75L5.318,9.75C5.428,9.576 5.576,9.428 5.75,9.318L5.75,7.5L7.25,7.5L7.25,9.318C7.424,9.428 7.572,9.576 7.682,9.75L9.5,9.75L9.5,11.25L7.682,11.25C7.572,11.424 7.424,11.572 7.25,11.682L7.25,13.5L5.75,13.5L5.75,11.682C5.576,11.572 5.428,11.424 5.318,11.25" />
  <circle cx="6.5" cy="10.5" r="0.9" fill="#b7c0c5" />
  <path d="M6.96,10.455C6.971,10.442 6.984,10.431 6.996,10.42L7.003,10.415C7.034,10.43 7.065,10.45 7.095,10.469C7.154,10.505 7.344,10.419 7.258,10.366C7.184,10.321 7.11,10.268 7.019,10.283C6.951,10.295 6.893,10.33 6.841,10.374C6.835,10.328 6.83,10.282 6.82,10.237C6.834,10.222 6.842,10.205 6.838,10.185C6.83,10.142 6.854,10.094 6.869,10.054C6.876,10.035 6.866,10.022 6.85,10.013C6.857,10.004 6.862,9.995 6.868,9.986C6.894,9.995 6.921,10.003 6.949,10.009C6.996,10.019 7.058,9.999 7.095,9.97C7.129,9.943 7.118,9.915 7.078,9.908C7.008,9.894 6.943,9.858 6.877,9.829C6.834,9.811 6.77,9.83 6.732,9.851C6.707,9.865 6.669,9.9 6.709,9.92C6.704,9.924 6.699,10.084 6.697,10.09C6.664,10.161 6.609,9.69 6.571,10.438L6.557,10.438C6.544,10.438 6.452,10.18 6.457,10.128C6.512,10.117 6.476,9.931 6.476,9.893L6.476,9.871C6.476,9.86 6.561,9.853 6.555,9.847C6.577,9.832 6.642,9.813 6.622,9.797C6.591,9.77 6.547,9.788 6.513,9.802C6.503,9.797 6.503,9.793 6.492,9.791C6.485,9.79 6.482,9.791 6.475,9.791C6.515,9.775 6.55,9.748 6.539,9.717C6.533,9.699 6.529,9.684 6.539,9.665C6.589,9.578 6.382,9.598 6.347,9.658C6.325,9.696 6.321,9.731 6.334,9.773C6.343,9.801 6.38,9.811 6.419,9.807C6.398,9.818 6.379,9.835 6.368,9.856L6.366,9.862C6.334,9.862 6.299,9.872 6.277,9.881C6.157,9.933 6.029,9.97 5.917,10.037C5.898,10.049 5.846,10.084 5.893,10.099C5.922,10.108 5.958,10.104 5.991,10.094C5.993,10.099 5.993,10.104 5.996,10.108C6.025,10.146 6.068,10.182 6.111,10.202C6.157,10.225 6.217,10.212 6.257,10.185C6.284,10.168 6.313,10.125 6.28,10.102C6.293,10.083 6.312,10.069 6.331,10.056C6.333,10.104 6.339,10.151 6.351,10.194C6.354,10.205 6.361,10.214 6.368,10.222C6.343,10.226 6.319,10.236 6.301,10.247C6.276,10.262 6.247,10.296 6.269,10.319C6.217,10.329 6.165,10.342 6.116,10.365C6.097,10.374 6.056,10.398 6.053,10.424L5.981,10.433C5.943,10.439 5.88,10.457 5.866,10.5C5.849,10.501 5.828,10.504 5.813,10.508C5.769,10.514 5.686,10.534 5.682,10.573C5.676,10.641 5.71,10.697 5.74,10.756C5.713,10.783 5.693,10.814 5.685,10.854C5.667,10.943 5.876,10.912 5.892,10.833C5.894,10.821 5.896,10.809 5.906,10.801C5.932,10.783 5.958,10.746 5.935,10.721C5.944,10.713 5.95,10.707 5.947,10.702C5.921,10.651 5.893,10.602 5.89,10.545C5.901,10.549 5.913,10.552 5.925,10.552C5.939,10.629 5.997,10.696 6.053,10.747C6.066,10.759 6.091,10.76 6.118,10.756C6.106,10.765 6.097,10.775 6.092,10.788C6.067,10.851 6.056,10.917 6.048,10.984C6.045,11.012 6.066,11.039 6.093,11.046C6.18,11.066 6.249,11.107 6.319,11.161C6.392,11.216 6.573,11.114 6.479,11.042C6.413,10.992 6.342,10.95 6.263,10.923C6.269,10.885 6.275,10.847 6.29,10.811C6.295,10.798 6.296,10.786 6.295,10.776C6.312,10.769 6.328,10.762 6.343,10.753C6.476,10.672 6.639,10.655 6.782,10.59C6.776,10.611 6.789,10.631 6.819,10.638C6.88,10.652 6.991,10.651 7.012,10.721C7.032,10.792 7.008,10.877 7.054,10.94C7.095,10.999 7.295,10.928 7.245,10.859C7.228,10.835 7.231,10.788 7.229,10.759C7.227,10.715 7.225,10.669 7.204,10.629C7.161,10.548 7.023,10.542 6.945,10.523C6.918,10.517 6.888,10.482 6.86,10.491C6.862,10.486 6.858,10.438 6.844,10.438L6.84,10.438C6.84,10.438 6.84,10.474 6.841,10.473C6.887,10.47 6.931,10.49 6.96,10.455Z" fill="#919da5" />
</svg>
