<svg width="32" height="32" viewBox="0 0 32 32" xmlns="http://www.w3.org/2000/svg">
  <polygon fill="#f4f4f4" points="2,12 3,11 29,11 30,12 30,20 29,21 3,21 2,20" />
  <rect fill="#CF0828" x="2" y="6" width="28" height="6" />
  <rect fill="#276038" x="2" y="20" width="28" height="6" />
  <path d="M14.555,18.669C14.24,18.759 14.056,18.459 14.056,18.459L14.306,18.347L14.426,17.961L14.676,18.32L14.957,18.32C14.958,18.319 14.894,18.572 14.555,18.669ZM18.531,19.006C19.013,19.152 18.901,19.618 18.531,19.472C18.161,19.328 17.259,19.183 16.068,19.183C14.877,19.183 13.975,19.327 13.605,19.472C13.235,19.618 13.122,19.152 13.605,19.006C14.089,18.861 15.215,18.668 16.068,18.668C16.922,18.668 18.048,18.861 18.531,19.006ZM16.262,18.137L16.6,18.283C16.6,18.283 16.359,18.555 16.069,18.555C15.778,18.555 15.537,18.283 15.537,18.283L15.876,18.137L16.069,17.815L16.262,18.137ZM17.582,18.669C17.244,18.572 17.179,18.319 17.18,18.32L17.462,18.32L17.711,17.961L17.832,18.347L18.081,18.459C18.081,18.459 17.897,18.759 17.582,18.669ZM19.432,17.699C19.513,17.905 19.078,18.524 18.468,18.324C17.856,18.123 17.776,17.607 17.776,17.607C17.776,17.607 17.462,18.185 16.73,17.961C16.179,17.791 16.07,17.268 16.07,17.268C16.07,17.268 15.962,17.791 15.411,17.961C14.679,18.185 14.365,17.607 14.365,17.607C14.365,17.607 14.284,18.123 13.673,18.324C13.061,18.524 12.627,17.906 12.707,17.699C12.787,17.493 12.987,18.046 13.527,17.961C14.138,17.864 14.267,17.252 14.267,17.252C14.267,17.252 14.751,17.736 15.249,17.51C15.747,17.285 15.876,16.963 15.876,16.609C15.876,16.254 15.922,15.994 15.876,15.853C15.804,15.627 15.538,15.466 15.265,15.724C15.04,15.402 15.426,14.726 16.07,14.726C16.714,14.726 17.1,15.402 16.874,15.724C16.601,15.466 16.335,15.627 16.263,15.853C16.217,15.994 16.263,16.254 16.263,16.609C16.263,16.963 16.391,17.285 16.89,17.51C17.389,17.736 17.872,17.252 17.872,17.252C17.872,17.252 18,17.864 18.612,17.961C19.152,18.046 19.352,17.493 19.432,17.699ZM15.537,15.305C15.811,15.337 16.069,15.546 16.069,15.546C16.069,15.546 16.327,15.336 16.6,15.305C16.44,14.965 16.069,15.015 16.069,15.015C16.069,15.015 15.697,14.965 15.537,15.305ZM12.4,16.073L12.552,16.544L13.047,16.544L12.647,16.835L12.8,17.305L12.4,17.014L11.999,17.305L12.152,16.835L11.751,16.544L12.247,16.544L12.4,16.073ZM12.882,14.351L13.034,14.822L13.53,14.822L13.13,15.113L13.282,15.583L12.882,15.292L12.482,15.583L12.634,15.113L12.234,14.822L12.729,14.822L12.882,14.351ZM14.177,12.967L14.33,13.438L14.825,13.438L14.425,13.729L14.577,14.199L14.177,13.907L13.777,14.199L13.93,13.729L13.53,13.438L14.025,13.438L14.177,12.967ZM16.069,12.5L16.221,12.97L16.716,12.97L16.316,13.262L16.469,13.731L16.069,13.44L15.669,13.731L15.821,13.262L15.421,12.97L15.916,12.97L16.069,12.5ZM19.6,16.073L19.753,16.544L20.249,16.544L19.848,16.835L20.001,17.305L19.6,17.014L19.2,17.305L19.353,16.835L18.953,16.544L19.448,16.544L19.6,16.073ZM19.118,14.351L19.271,14.822L19.766,14.822L19.365,15.113L19.518,15.583L19.118,15.292L18.718,15.583L18.87,15.113L18.47,14.822L18.966,14.822L19.118,14.351ZM17.823,12.967L17.975,13.438L18.47,13.438L18.07,13.729L18.223,14.199L17.823,13.907L17.423,14.199L17.576,13.729L17.175,13.438L17.67,13.438L17.823,12.967Z" fill="#FDBB11" />
</svg>
