<svg width="32" height="32" viewBox="0 0 32 32" xmlns="http://www.w3.org/2000/svg">
  <polygon fill="#FCD53F" points="2,9.75 3,8.75 29,8.75 30,9.75 30,11 29,12 3,12 2,11" />
  <polygon fill="#FCD53F" points="2,22.25 3,23.25 29,23.25 30,22.25 30,21 29,20 3,20 2,21" />
  <rect fill="#0074BA" x="2" y="6" width="28" height="3.75" />
  <rect fill="#CF0828" x="2" y="11" width="28" height="10" />
  <rect fill="#0074BA" x="2" y="22.25" width="28" height="3.75" />
  <path d="M24.227,15.063C24.227,15.184 24.129,15.282 24.008,15.282L6.454,15.282C6.333,15.282 6.234,15.184 6.234,15.063C6.234,14.941 6.333,14.843 6.454,14.843L24.008,14.843C24.129,14.843 24.227,14.941 24.227,15.063ZM25.009,14.281C25.009,14.402 24.91,14.501 24.789,14.501L7.235,14.501C7.114,14.501 7.016,14.402 7.016,14.281C7.016,14.16 7.114,14.062 7.235,14.062L24.789,14.062C24.91,14.062 25.009,14.159 25.009,14.281ZM28.287,15.994C28.287,16.176 28.14,16.323 27.957,16.323L4.397,16.323C4.215,16.323 4.067,16.176 4.067,15.994C4.067,15.812 4.215,15.664 4.397,15.664L27.956,15.664C28.139,15.664 28.287,15.812 28.287,15.994Z" fill="#fcd53f" />
  <path d="M23.432,15.046L24.652,14.655L25.848,15.046L24.652,15.51L23.432,15.046ZM24.213,14.265L25.434,13.874L26.63,14.265L25.434,14.729L24.213,14.265ZM23.21,16.024C23.21,16.024 20.04,20.313 16.13,20.313C12.221,20.313 9.05,16.024 9.05,16.024C9.05,16.024 12.22,11.735 16.13,11.735C20.041,11.735 23.21,16.024 23.21,16.024Z" fill="#f4f4f4" />
  <path d="M16.765,19.402C17.041,19.533 17.48,19.66 17.591,20.119C17.121,20.241 16.633,20.313 16.132,20.313C12.222,20.313 9.052,16.024 9.052,16.024C9.052,16.024 12.21,11.752 16.111,11.737C15.58,12.249 15.382,12.691 15.464,12.923C15.562,13.2 15.773,13.428 15.838,13.574C15.903,13.72 15.887,13.802 16.131,13.834C16.375,13.866 16.31,14.029 16.375,14.119C16.44,14.209 16.505,14.306 16.619,14.323C16.733,14.339 16.749,14.518 16.7,14.844C16.651,15.17 16.635,15.609 16.895,15.739C17.155,15.87 17.465,15.902 17.139,16.113C16.813,16.325 16.618,16.666 16.618,16.83C16.618,16.993 16.61,17.22 16.362,17.416C16.113,17.611 15.853,17.758 16.13,17.92C16.406,18.083 16.878,18.213 16.992,18.311C17.106,18.409 17.123,18.605 16.716,18.653C16.309,18.702 15.87,18.75 15.853,18.897C15.837,19.044 16.423,19.239 16.765,19.402ZM11.687,14.47L11.687,15.626L12.029,15.626L12.029,14.47L11.687,14.47ZM12.354,16.391L12.354,17.546L12.696,17.546L12.696,16.391L12.354,16.391ZM13.689,16.391L13.689,17.546L14.031,17.546L14.031,16.391L13.689,16.391ZM15.023,16.391L15.023,17.546L15.366,17.546L15.366,16.391L15.023,16.391ZM15.023,14.47L15.023,15.626L15.366,15.626L15.366,14.47L15.023,14.47ZM13.022,16.391L13.022,17.546L13.364,17.546L13.364,16.391L13.022,16.391ZM13.022,14.47L13.022,15.626L13.364,15.626L13.364,14.47L13.022,14.47ZM11.687,16.391L11.687,17.546L12.029,17.546L12.029,16.391L11.687,16.391ZM14.356,16.391L14.356,17.546L14.698,17.546L14.698,16.391L14.356,16.391ZM12.354,14.47L12.354,15.626L12.696,15.626L12.696,14.47L12.354,14.47ZM13.689,14.47L13.689,15.626L14.031,15.626L14.031,14.47L13.689,14.47ZM14.356,14.47L14.356,15.626L14.698,15.626L14.698,14.47L14.356,14.47ZM16.96,14.47L17.302,14.47L17.302,15.626L16.96,15.626L16.96,14.47ZM16.96,16.391L17.302,16.391L17.302,17.546L16.96,17.546L16.96,16.391ZM17.628,14.47L17.97,14.47L17.97,15.626L17.628,15.626L17.628,14.47ZM17.628,16.391L17.97,16.391L17.97,17.546L17.628,17.546L17.628,16.391ZM18.295,14.47L18.638,14.47L18.638,15.626L18.295,15.626L18.295,14.47ZM18.295,16.391L18.638,16.391L18.638,17.546L18.295,17.546L18.295,16.391ZM18.962,14.47L19.304,14.47L19.304,15.626L18.962,15.626L18.962,14.47ZM18.962,16.391L19.304,16.391L19.304,17.546L18.962,17.546L18.962,16.391ZM19.63,14.47L19.972,14.47L19.972,15.626L19.63,15.626L19.63,14.47ZM19.63,16.391L19.972,16.391L19.972,17.546L19.63,17.546L19.63,16.391ZM20.297,14.47L20.639,14.47L20.639,15.626L20.297,15.626L20.297,14.47ZM20.297,16.391L20.639,16.391L20.639,17.546L20.297,17.546L20.297,16.391Z" fill="#1c1c1c" />
  <path d="M13.778,12.558C13.466,12.765 12.826,13.4 12.789,13.864C12.923,13.742 13.082,13.717 13.082,13.717C13.082,13.717 12.899,13.973 12.923,14.291C13.034,14.169 13.143,14.12 13.143,14.12C13.143,14.12 13.208,14.413 13.448,14.718C13.57,14.645 13.607,14.523 13.607,14.523C13.607,14.523 13.68,14.779 13.937,14.974C14.03,14.95 14.03,14.84 14.03,14.84C14.03,14.84 14.181,15.157 14.804,15.291C14.694,15.084 15.048,14.795 14.914,14.47C15.023,14.534 15.134,14.693 15.134,14.693C15.134,14.693 15.243,14.534 15.023,14.241C15.158,14.363 15.231,14.47 15.231,14.47C15.231,14.47 15.316,13.961 15.023,13.643C15.207,13.716 15.366,13.802 15.366,13.802C15.366,13.802 15.335,13.187 14.877,12.91C14.291,12.558 13.778,12.814 13.778,12.558ZM5.184,15.927C5.184,15.927 5.465,16.183 5.074,16.22C4.684,16.256 4.366,16.72 4.378,17.184L4.586,17.086C4.586,17.086 4.525,17.403 4.623,17.611C4.708,17.403 4.83,17.416 4.83,17.416C4.83,17.416 4.855,17.721 4.904,17.953C5.002,17.831 4.989,17.697 4.989,17.697C4.989,17.697 5.136,17.745 5.209,17.953C5.281,18.161 5.319,18.32 5.489,18.417C5.563,18.38 5.599,18.283 5.599,18.283C5.599,18.283 5.746,18.405 5.977,18.502C5.929,18.173 6.246,18.209 6.38,17.977C6.429,18.038 6.441,18.16 6.441,18.16C6.441,18.16 6.539,17.977 6.539,17.794C6.539,17.61 6.649,17.464 6.649,17.464C6.649,17.464 6.662,17.549 6.649,17.684C6.759,17.623 6.784,16.927 6.734,16.707C6.808,16.768 6.869,16.902 6.869,16.902C6.869,16.902 6.954,16.548 6.869,16.323C6.784,16.097 6.539,15.913 6.234,16.023C5.929,16.134 5.477,15.841 5.477,15.841C5.477,15.841 5.551,16.023 5.453,16.084C5.355,16.145 5.441,15.987 5.184,15.927ZM26.584,15.805C26.584,15.805 26.34,15.89 25.949,16.256C25.559,16.623 25.437,17.245 25.437,17.245C25.437,17.245 25.656,17.063 25.742,17.038C25.534,17.513 25.938,17.734 25.877,18.112C26.035,18.088 26.182,17.806 26.182,17.806C26.182,17.806 26.475,18.331 26.89,18.624C26.988,18.344 27.268,18.112 27.268,18.112L27.329,18.27L27.5,17.843L27.622,18.051C27.622,18.051 27.732,17.811 27.622,17.546C27.638,17.594 27.805,17.721 27.805,17.721L27.805,17.135C27.805,17.135 27.902,17.318 27.976,17.367C27.976,17.111 27.829,16.928 27.891,16.818L27.976,16.969C27.976,16.969 28.049,16.562 27.622,16.244C27.195,15.927 26.796,15.951 26.709,15.994C26.62,16.037 26.584,15.805 26.584,15.805Z" fill="#433d3d" />
  <path d="M13.546,13.327C13.773,13.258 13.693,13.986 13.424,14.279C13.571,13.778 13.266,13.413 13.546,13.327ZM14.077,13.119C14.131,12.931 14.522,13.424 15.023,13.448C14.584,13.522 14.01,13.351 14.077,13.119ZM13.925,13.876C14.058,13.814 14.096,14.547 13.925,14.755C13.949,14.389 13.741,13.962 13.925,13.876ZM14.413,13.693C14.244,13.739 14.742,14.145 15.023,14.12C14.759,14.07 14.681,13.62 14.413,13.693ZM14.316,14.47C14.139,14.47 14.316,14.938 14.633,15.048C14.523,14.877 14.6,14.47 14.316,14.47ZM5.245,16.476C5.406,16.476 5.197,17.025 4.855,17.245C5.038,16.977 5.014,16.476 5.245,16.476ZM5.77,16.391C5.64,16.491 6.002,16.937 6.417,16.969C6.149,16.781 5.929,16.27 5.77,16.391ZM5.38,17.098C5.477,17.082 5.495,17.609 5.221,17.745C5.368,17.404 5.234,17.123 5.38,17.098ZM5.844,17.098C6.005,16.999 6.086,17.412 6.32,17.546C5.929,17.452 5.685,17.196 5.844,17.098ZM5.643,17.489C5.805,17.418 5.892,18.004 5.643,18.173C5.734,17.795 5.502,17.55 5.643,17.489ZM26.278,16.969C26.447,16.964 26.144,17.465 25.888,17.599C26.132,17.233 26.095,16.973 26.278,16.969ZM26.889,16.708C26.763,16.795 27.121,17.037 27.292,17.037C27.08,16.972 27.048,16.598 26.889,16.708ZM26.449,17.546C26.578,17.448 26.632,17.77 26.449,18.002C26.561,17.766 26.278,17.677 26.449,17.546ZM26.974,17.215C26.841,17.269 27.096,17.648 27.291,17.673C27.078,17.541 27.17,17.135 26.974,17.215ZM26.791,17.599C26.902,17.516 27.128,18.063 26.862,18.344C26.988,17.937 26.581,17.758 26.791,17.599Z" fill="#bebebe" />
</svg>
