<svg width="32" height="32" viewBox="0 0 32 32" xmlns="http://www.w3.org/2000/svg">
  <polygon fill="#CF0828" points="30,6 2,6 12,20 30,26" />
  <polygon fill="#1c1c1c" points="2,26 30,26 2,6" />
  <path d="M7.939,12.566L8.234,13.578L9.252,13.578L8.448,14.197L8.743,15.181L7.939,14.562L7.135,15.152L7.43,14.197L6.626,13.578L7.618,13.578L7.939,12.566ZM4.852,16.515L5.146,17.525L6.165,17.525L5.361,18.144L5.655,19.128L4.852,18.51L4.048,19.1L4.342,18.144L3.538,17.525L4.53,17.525L4.852,16.515ZM7.939,21.848L8.234,22.859L9.252,22.859L8.448,23.478L8.743,24.462L7.939,23.843L7.135,24.433L7.43,23.478L6.626,22.859L7.618,22.859L7.939,21.848ZM9.318,19.698L9.465,20.204L9.975,20.204L9.572,20.514L9.72,21.005L9.318,20.695L8.916,20.991L9.063,20.514L8.662,20.204L9.157,20.204L9.318,19.698ZM11.012,16.234L11.307,17.245L12.325,17.245L11.522,17.864L11.816,18.848L11.012,18.229L10.208,18.819L10.503,17.864L9.699,17.245L10.691,17.245L11.012,16.234Z" fill="#f4f4f4" />
  <path d="M19.787,11.949C19.549,12.256 18.988,11.641 18.315,11.627C17.642,11.612 17.164,12.272 16.968,12.496C16.772,12.721 16.14,13.898 16.154,14.025C16.169,14.152 16.548,13.674 16.687,13.59C16.7,13.758 16.532,13.955 16.575,14.011C16.617,14.068 17.066,13.674 17.221,13.661C17.263,13.773 17.137,13.885 17.178,14.053C17.234,14.11 17.486,13.773 17.655,13.703C17.683,13.829 17.5,14.068 17.599,14.222C17.668,14.236 18.091,13.745 18.23,13.689C18.37,13.633 18.159,14.152 18.23,14.195C18.356,14.111 18.748,13.662 18.875,13.605C19.001,13.549 18.861,14.18 18.917,14.18C19.072,14.068 19.464,13.535 19.506,13.452C19.548,13.368 19.464,14.265 19.9,14.742C20.335,15.218 20.994,15.765 21.065,15.765C21.148,15.612 21.036,15.288 21.107,15.302C21.304,15.512 21.668,15.822 21.752,15.822C21.835,15.822 21.696,15.485 21.808,15.485C22.032,15.695 22.677,16.523 23.94,16.902C23.856,16.662 23.672,16.452 23.659,16.341C23.743,16.355 24.038,16.495 24.093,16.482C24.15,16.467 23.477,15.639 23.518,15.528C23.672,15.513 23.743,15.612 23.798,15.542C23.729,15.429 23.139,14.77 23.139,14.616C23.139,14.462 23.322,14.644 23.378,14.616C23.435,14.588 23.155,13.999 23.21,13.928C23.265,13.859 23.883,14.307 24.038,14.307C24.192,14.307 24.08,13.76 24.151,13.732C24.22,13.705 24.74,14.027 24.851,14.027C24.963,14.027 24.95,13.788 24.992,13.816C25.035,13.844 26.255,15.065 25.834,16.495C25.413,17.518 24.572,18.065 23.337,17.617C23.408,17.729 24.067,18.275 24.782,18.08C25.498,17.884 26.368,17.323 26.27,15.92C26.171,14.517 25.708,14.321 25.639,14.111C25.567,13.901 25.751,14.167 25.904,14.222C26.06,14.279 25.877,13.928 25.835,13.774C25.792,13.62 26.298,14.096 26.424,14.138C26.55,14.181 26.129,12.988 26.003,12.905C25.877,12.821 26.129,12.933 26.213,12.961C26.297,12.988 25.441,11.656 25.259,11.656C25.078,11.656 25.414,11.586 25.512,11.586C25.609,11.586 24.531,10.717 24.347,10.717C24.165,10.717 24.741,10.492 24.796,10.478C24.894,10.492 23.548,9.762 22.342,10.492C22.272,10.436 22.909,9.994 22.931,9.805C22.938,9.756 22.721,9.651 22.707,9.595C22.693,9.538 23.044,9.37 23.057,9.244C22.973,9.132 22.819,9.174 22.735,9.146C22.715,9.041 23.03,8.781 23.002,8.668C22.981,8.605 22.749,8.585 22.694,8.626C22.637,8.668 22.842,8.332 22.805,8.234C22.778,8.192 22.665,8.22 22.553,8.248C22.484,8.234 22.918,7.631 22.834,7.546C22.75,7.462 21.572,8.163 21.138,8.948C20.702,9.734 21.038,10.365 20.983,10.632C20.928,10.898 20.857,11.165 20.675,11.165C20.492,11.165 20.072,10.884 19.932,10.744C19.79,10.603 19.763,10.505 19.566,10.449C19.369,10.393 18.92,10.562 18.752,10.575C18.583,10.59 17.925,10.449 17.883,10.492C17.841,10.534 18.528,10.786 18.682,10.871C18.835,10.955 18.851,11.066 18.962,11.137C19.072,11.206 20.125,11.515 19.787,11.949ZM23.897,13.927C24.234,14.264 26.505,15.778 26.505,17.63C26.505,19.482 24.85,19.425 24.373,19.369C24.906,19.818 26.925,19.735 26.925,17.63C26.925,15.778 24.317,13.927 23.981,13.758C23.645,13.59 23.559,13.59 23.897,13.927Z" fill="#FCD53F" />
</svg>
