<svg width="32" height="32" viewBox="0 0 32 32" xmlns="http://www.w3.org/2000/svg">
  <polygon fill="#f4f4f4" points="2,11 3,10 29,10 30,11 30,21 29,22 3,22 2,21" />
  <rect fill="#cf0828" x="2" y="6" width="28" height="5" />
  <rect fill="#cf0828" x="2" y="21" width="28" height="5" />
  <path d="M11.87,17.52C11.804,17.34 11.749,17.154 11.706,16.964C11.774,16.998 11.842,17.041 11.909,17.086C12.043,17.174 12.177,17.267 12.321,17.279C12.383,17.276 12.447,17.249 12.514,17.214C12.589,17.175 12.667,17.126 12.748,17.081C12.922,16.984 13.112,16.91 13.321,16.981L13.352,16.992L13.353,17.025C13.365,17.267 13.458,17.463 13.458,17.463L13.491,17.533L11.87,17.52ZM20.13,17.519L18.375,17.533L18.408,17.463C18.408,17.463 18.501,17.267 18.513,17.025L18.515,16.992L18.546,16.981C18.754,16.91 18.944,16.984 19.118,17.081C19.199,17.126 19.277,17.175 19.352,17.214C19.419,17.249 19.483,17.276 19.546,17.279C19.748,17.262 19.813,17.194 19.893,17.133C19.973,17.072 20.065,17.015 20.285,17.004C20.244,17.18 20.192,17.352 20.13,17.519ZM19.823,18.178L17.799,18.178L17.953,18.088C17.953,18.088 18.048,18.032 18.14,17.957C18.198,17.909 18.256,17.854 18.283,17.8L18.305,17.756L18.349,17.78C18.394,17.804 18.423,17.828 18.448,17.851C18.495,17.894 18.531,17.926 18.702,17.934C18.831,17.94 18.955,17.865 19.079,17.793C19.22,17.711 19.361,17.632 19.5,17.638C19.613,17.644 19.741,17.719 19.852,17.811C19.892,17.844 19.929,17.878 19.963,17.912C19.92,18.002 19.873,18.091 19.823,18.178ZM12.448,18.596C12.463,18.587 12.479,18.577 12.496,18.567C12.614,18.495 12.77,18.389 12.921,18.316C13.028,18.264 13.132,18.229 13.22,18.229C13.375,18.229 13.524,18.321 13.674,18.42C13.808,18.509 13.943,18.602 14.088,18.614C14.229,18.625 14.34,18.537 14.464,18.451C14.605,18.352 14.76,18.253 14.972,18.253C15.182,18.253 15.349,18.343 15.503,18.434C15.643,18.517 15.771,18.602 15.921,18.602C16.072,18.602 16.226,18.522 16.38,18.443C16.547,18.357 16.716,18.271 16.88,18.265C17.047,18.259 17.214,18.348 17.376,18.44C17.521,18.522 17.661,18.607 17.793,18.602C17.925,18.596 18.047,18.511 18.178,18.429C18.324,18.337 18.478,18.247 18.657,18.241L18.66,18.241L18.663,18.241C18.967,18.268 19.289,18.468 19.416,18.642C19.434,18.668 19.449,18.693 19.459,18.718C19.41,18.781 19.359,18.842 19.306,18.902L12.674,18.879C12.595,18.788 12.519,18.693 12.448,18.596ZM11.99,17.812C11.99,17.812 11.991,17.811 11.991,17.811C12.102,17.719 12.23,17.644 12.343,17.638C12.483,17.632 12.623,17.711 12.764,17.793C12.888,17.865 13.013,17.94 13.141,17.934C13.312,17.926 13.348,17.894 13.395,17.851C13.421,17.828 13.449,17.804 13.494,17.78L13.538,17.756L13.56,17.8C13.587,17.854 13.645,17.909 13.703,17.957C13.795,18.032 13.89,18.088 13.89,18.088L14.044,18.178L12.177,18.178C12.109,18.06 12.047,17.937 11.99,17.812ZM13.07,19.282C13.257,19.205 13.894,18.949 14.094,18.939C14.215,18.932 14.379,19.008 14.551,19.087C14.708,19.159 14.874,19.233 15.019,19.227C15.165,19.221 15.293,19.159 15.434,19.099C15.585,19.033 15.749,18.969 15.956,18.963C16.167,18.956 16.302,19.031 16.441,19.103C16.566,19.169 16.695,19.232 16.903,19.215C17.107,19.198 17.172,19.13 17.253,19.069C17.345,18.998 17.455,18.932 17.759,18.939C18.214,18.948 18.617,19.266 18.778,19.412C18.713,19.464 18.648,19.514 18.581,19.563L13.389,19.541C13.279,19.46 13.172,19.373 13.07,19.282ZM14.223,20.026C14.382,19.907 14.685,19.713 14.989,19.696C15.004,19.695 15.018,19.696 15.033,19.696C15.265,19.696 15.414,19.785 15.545,19.879C15.661,19.962 15.759,20.051 15.902,20.064C16.043,20.077 16.172,19.993 16.311,19.909C16.467,19.814 16.633,19.716 16.831,19.708C17.221,19.694 17.714,20.017 17.714,20.017L17.747,20.039C17.211,20.271 16.621,20.4 16,20.4C15.368,20.4 14.767,20.266 14.223,20.026ZM15.93,17.626C15.93,17.626 15.931,17.626 15.932,17.626C16.114,17.611 16.283,17.69 16.419,17.793C16.618,17.943 16.748,18.14 16.748,18.14L16.797,18.214L15.111,18.215L15.111,18.167C15.111,18.167 15.112,18.15 15.128,18.127C15.183,18.045 15.482,17.639 15.93,17.626ZM15.496,17.489C15.496,17.489 15.483,17.375 15.582,17.285C15.641,17.231 15.743,17.183 15.921,17.183C16.098,17.183 16.202,17.23 16.263,17.284C16.366,17.374 16.358,17.487 16.358,17.487L16.356,17.533L15.5,17.532L15.496,17.489Z" fill="#0C338C" />
  <path d="M11.654,16.693C11.619,16.468 11.6,16.236 11.6,16C11.6,15.89 11.604,15.782 11.612,15.674L13.244,15.752L13.244,16.702L11.654,16.693ZM11.925,14.34L13.256,14.862L13.268,15.535L11.643,15.38C11.695,15.017 11.79,14.668 11.925,14.34ZM12.63,13.172L13.378,13.816C13.378,13.816 13.268,13.901 13.277,13.98C13.278,14.053 13.409,14.062 13.407,14.135C13.405,14.215 13.291,14.226 13.289,14.299C13.283,14.371 13.399,14.449 13.399,14.449L13.22,14.634L12.045,14.071C12.203,13.747 12.4,13.446 12.63,13.172ZM13.645,12.284L14.863,14.171L14.86,14.877L14.169,14.216C14.169,14.216 14.071,14.212 14.071,14.143C14.072,14.059 14.166,14.081 14.166,13.973C14.166,13.865 14.036,13.872 14.036,13.788C14.036,13.704 14.122,13.721 14.122,13.601C14.122,13.48 13.987,13.504 13.816,13.492C13.646,13.48 13.479,13.491 13.458,13.566L12.864,12.915C13.099,12.676 13.361,12.464 13.645,12.284ZM14.871,11.746L14.998,11.976C14.835,12.073 14.824,13.871 14.824,13.871L13.951,12.106C14.24,11.953 14.549,11.832 14.871,11.746ZM18.004,12.082C17.641,12.723 17.206,13.492 16.977,13.896C16.977,13.641 16.978,13.386 16.978,13.131C16.973,13.075 17.052,12.98 16.951,12.971C16.838,12.977 16.724,12.973 16.612,12.96C16.69,12.69 16.844,12.16 16.974,11.708C17.336,11.79 17.682,11.917 18.004,12.082ZM19.101,12.879C18.881,13.099 18.684,13.297 18.621,13.36C18.544,13.403 18.472,13.59 18.394,13.516C18.252,13.475 18.102,13.514 17.957,13.507C17.852,13.493 17.687,13.561 17.774,13.688C17.879,13.719 17.862,13.881 17.762,13.913C17.651,14.004 17.873,14.041 17.82,14.116C17.54,14.384 17.259,14.649 16.978,14.915L16.98,14.17L18.25,12.219C18.56,12.404 18.846,12.626 19.101,12.879ZM19.908,13.977C19.406,14.238 18.844,14.531 18.598,14.659C18.581,14.574 18.542,14.487 18.465,14.441C18.529,14.405 18.581,14.308 18.521,14.247C18.494,14.216 18.412,14.189 18.45,14.137C18.497,14.08 18.573,14.009 18.535,13.928C18.518,13.871 18.459,13.825 18.457,13.765C18.597,13.659 18.96,13.385 19.319,13.113C19.548,13.376 19.746,13.666 19.908,13.977ZM20.352,15.35L18.586,15.56L18.573,14.875L20.042,14.26C20.19,14.603 20.296,14.969 20.352,15.35ZM20.344,16.702L18.573,16.702L18.561,15.776L20.385,15.64C20.395,15.759 20.4,15.879 20.4,16C20.4,16.239 20.381,16.473 20.344,16.702ZM14.132,15.499L14.132,15.211L14.863,15.52L14.132,15.499ZM16.976,15.079C16.976,15.079 17.633,14.492 17.773,14.384C17.773,14.504 17.697,14.598 17.697,14.598L17.697,15.055L16.979,15.391L16.976,15.079ZM14.132,15.066L14.132,14.586C14.132,14.586 14.047,14.598 14.059,14.501C14.063,14.301 14.594,14.867 14.866,15.051L14.859,15.436L14.132,15.066ZM17.673,15.511L16.98,15.541L17.685,15.235L17.673,15.511Z" fill="#FF9F2E" />
  <path d="M15.13,15.065C15.109,15.06 15.094,15.041 15.094,15.019L15.082,12.217C15.082,12.211 15.083,12.204 15.085,12.198C15.147,12.051 15.21,11.909 15.347,11.803C15.548,11.647 15.913,11.565 16.694,11.676C16.719,11.679 16.736,11.701 16.736,11.725C16.735,11.75 16.715,11.77 16.691,11.772C16.327,11.799 16.122,11.932 16.034,12.111C15.933,12.319 15.991,12.581 16.13,12.79C16.27,12.998 16.494,13.154 16.734,13.143C16.747,13.142 16.76,13.147 16.769,13.156C16.779,13.165 16.784,13.178 16.784,13.191L16.784,15.439C16.784,15.454 16.777,15.469 16.765,15.478C16.754,15.487 16.738,15.49 16.724,15.486L15.13,15.065ZM13.574,14.489C13.573,14.484 13.568,14.48 13.563,14.475C13.554,14.466 13.544,14.457 13.533,14.447C13.496,14.412 13.46,14.37 13.455,14.303L13.455,14.303C13.451,14.26 13.479,14.227 13.523,14.202C13.538,14.194 13.554,14.187 13.569,14.178C13.573,14.175 13.577,14.172 13.581,14.169C13.582,14.168 13.584,14.166 13.584,14.165C13.584,14.155 13.575,14.147 13.567,14.138C13.551,14.121 13.53,14.105 13.511,14.089C13.472,14.056 13.447,14.019 13.448,13.981C13.448,13.979 13.449,13.978 13.449,13.977C13.453,13.944 13.474,13.913 13.5,13.883C13.513,13.867 13.528,13.852 13.539,13.836C13.546,13.826 13.552,13.816 13.552,13.804C13.553,13.78 13.535,13.762 13.521,13.748C13.503,13.73 13.486,13.715 13.479,13.704C13.465,13.683 13.467,13.664 13.474,13.649C13.479,13.637 13.489,13.623 13.514,13.616C13.529,13.612 13.555,13.609 13.6,13.609L13.865,13.603C13.865,13.603 13.866,13.603 13.866,13.603L13.984,13.605C14.004,13.605 14.022,13.618 14.029,13.636C14.036,13.655 14.031,13.676 14.016,13.689C13.998,13.705 13.957,13.729 13.921,13.758C13.907,13.77 13.893,13.782 13.884,13.795C13.88,13.801 13.875,13.807 13.876,13.814C13.877,13.829 13.892,13.834 13.905,13.841C13.925,13.851 13.947,13.859 13.967,13.869C14.017,13.894 14.055,13.928 14.06,13.985L14.06,13.985C14.065,14.04 14.032,14.074 13.985,14.1C13.968,14.109 13.949,14.117 13.932,14.127C13.921,14.134 13.909,14.14 13.909,14.154C13.91,14.167 13.919,14.172 13.928,14.176C13.944,14.184 13.962,14.19 13.979,14.197C14.025,14.218 14.06,14.248 14.06,14.31C14.06,14.376 14.015,14.416 13.966,14.448C13.953,14.456 13.941,14.464 13.93,14.472C13.925,14.476 13.919,14.479 13.919,14.486C13.92,14.503 13.933,14.517 13.945,14.529C13.969,14.552 13.999,14.566 13.999,14.566C14.017,14.574 14.028,14.591 14.028,14.611C14.028,14.611 14.003,16.161 14.026,16.791C14.031,16.908 14.036,16.992 14.044,17.025C14.046,17.027 14.047,17.029 14.048,17.031C14.129,17.179 14.319,17.291 14.535,17.341C14.863,17.416 15.258,17.348 15.455,17.026C15.467,17.006 15.493,16.997 15.515,17.006C15.537,17.016 15.549,17.039 15.543,17.063C15.34,17.898 14.873,18.227 14.434,18.197C13.993,18.166 13.569,17.771 13.444,17.135C13.444,17.132 13.444,17.129 13.444,17.126C13.444,17.126 13.427,14.732 13.422,14.634C13.422,14.633 13.422,14.632 13.422,14.631C13.422,14.611 13.43,14.593 13.445,14.576C13.458,14.562 13.477,14.549 13.5,14.536C13.52,14.525 13.542,14.514 13.56,14.502C13.565,14.498 13.572,14.491 13.574,14.489ZM17.855,17.025C17.863,16.992 17.868,16.908 17.873,16.791C17.896,16.161 17.872,14.611 17.872,14.611C17.871,14.591 17.883,14.574 17.9,14.566C17.9,14.566 17.93,14.552 17.955,14.529C17.967,14.517 17.979,14.503 17.98,14.486C17.98,14.481 17.977,14.479 17.975,14.476C17.971,14.472 17.967,14.468 17.962,14.465C17.947,14.454 17.93,14.443 17.915,14.431C17.877,14.402 17.848,14.366 17.848,14.31C17.848,14.248 17.882,14.219 17.925,14.198C17.941,14.191 17.958,14.185 17.973,14.177C17.982,14.172 17.99,14.167 17.991,14.153C17.99,14.139 17.979,14.131 17.968,14.124C17.953,14.113 17.935,14.104 17.92,14.094C17.877,14.067 17.847,14.033 17.851,13.979L17.851,13.979C17.856,13.923 17.884,13.892 17.918,13.866C17.932,13.856 17.947,13.847 17.96,13.837C17.97,13.829 17.98,13.821 17.981,13.805C17.983,13.781 17.969,13.762 17.955,13.747C17.933,13.723 17.906,13.704 17.89,13.689C17.875,13.676 17.87,13.655 17.877,13.636C17.884,13.618 17.901,13.605 17.921,13.605L18.033,13.603C18.034,13.603 18.034,13.603 18.035,13.603C18.035,13.603 18.3,13.609 18.3,13.609C18.347,13.609 18.375,13.612 18.388,13.617C18.411,13.624 18.421,13.638 18.426,13.649C18.433,13.665 18.434,13.689 18.413,13.714C18.405,13.724 18.39,13.736 18.375,13.752C18.362,13.765 18.346,13.782 18.347,13.804L18.347,13.804C18.347,13.816 18.353,13.826 18.36,13.836C18.371,13.852 18.386,13.867 18.399,13.883C18.425,13.913 18.446,13.944 18.451,13.977C18.451,13.978 18.451,13.979 18.451,13.981C18.453,14.019 18.427,14.056 18.388,14.089C18.37,14.105 18.349,14.121 18.332,14.138C18.324,14.147 18.316,14.155 18.315,14.165C18.316,14.166 18.317,14.168 18.319,14.169C18.322,14.172 18.326,14.175 18.331,14.178C18.345,14.187 18.361,14.194 18.376,14.202C18.42,14.227 18.448,14.26 18.445,14.303C18.439,14.37 18.403,14.412 18.366,14.447C18.355,14.457 18.345,14.466 18.336,14.475C18.332,14.48 18.327,14.484 18.326,14.489C18.328,14.491 18.334,14.498 18.339,14.502C18.357,14.514 18.38,14.525 18.4,14.536C18.422,14.549 18.442,14.562 18.454,14.576C18.47,14.593 18.477,14.611 18.477,14.631C18.477,14.632 18.477,14.633 18.477,14.634C18.472,14.732 18.456,17.126 18.456,17.126C18.456,17.129 18.455,17.132 18.455,17.135C18.331,17.771 17.906,18.166 17.466,18.197C17.026,18.227 16.559,17.898 16.356,17.063C16.351,17.039 16.363,17.016 16.385,17.006C16.407,16.997 16.432,17.006 16.444,17.026C16.641,17.348 17.036,17.416 17.364,17.341C17.581,17.291 17.77,17.179 17.851,17.031C17.852,17.029 17.853,17.027 17.855,17.025Z" fill="#CF0828" />
  <path d="M14.437,16.095L14.247,15.842C14.224,15.812 14.23,15.768 14.261,15.745C14.291,15.721 14.335,15.728 14.358,15.758L14.471,15.908L14.476,15.761C14.478,15.723 14.51,15.693 14.548,15.694C14.587,15.695 14.617,15.728 14.616,15.766L14.611,15.887L14.711,15.768C14.736,15.738 14.78,15.734 14.81,15.759C14.839,15.783 14.843,15.827 14.818,15.857L14.616,16.1L14.784,16.324C14.807,16.354 14.801,16.398 14.77,16.421C14.74,16.445 14.696,16.438 14.673,16.408L14.524,16.21L14.356,16.41C14.331,16.44 14.287,16.444 14.258,16.419C14.228,16.394 14.224,16.35 14.249,16.321L14.437,16.095ZM15.119,16.095L14.928,15.842C14.905,15.812 14.911,15.768 14.942,15.745C14.973,15.721 15.016,15.728 15.04,15.758L15.152,15.908L15.158,15.761C15.159,15.723 15.191,15.693 15.23,15.694C15.268,15.695 15.298,15.728 15.297,15.766L15.293,15.887L15.393,15.768C15.417,15.738 15.461,15.734 15.491,15.759C15.521,15.783 15.525,15.827 15.5,15.857L15.297,16.1L15.465,16.324C15.489,16.354 15.483,16.398 15.452,16.421C15.421,16.445 15.377,16.438 15.354,16.408L15.205,16.21L15.037,16.41C15.013,16.44 14.969,16.444 14.939,16.419C14.91,16.394 14.906,16.35 14.93,16.321L15.119,16.095ZM15.812,16.095L15.622,15.842C15.598,15.812 15.605,15.768 15.635,15.745C15.666,15.721 15.71,15.728 15.733,15.758L15.846,15.908L15.851,15.761C15.852,15.723 15.885,15.693 15.923,15.694C15.962,15.695 15.992,15.728 15.991,15.766L15.986,15.887L16.086,15.768C16.111,15.738 16.155,15.734 16.185,15.759C16.214,15.783 16.218,15.827 16.193,15.857L15.99,16.1L16.159,16.324C16.182,16.354 16.176,16.398 16.145,16.421C16.115,16.445 16.071,16.438 16.048,16.408L15.898,16.21L15.731,16.41C15.706,16.44 15.662,16.444 15.633,16.419C15.603,16.394 15.599,16.35 15.624,16.321L15.812,16.095ZM16.53,16.095L16.34,15.842C16.316,15.812 16.323,15.768 16.353,15.745C16.384,15.721 16.428,15.728 16.451,15.758L16.564,15.908L16.569,15.761C16.57,15.723 16.603,15.693 16.641,15.694C16.68,15.695 16.71,15.728 16.708,15.766L16.704,15.887L16.804,15.768C16.829,15.738 16.873,15.734 16.902,15.759C16.932,15.783 16.936,15.827 16.911,15.857L16.708,16.1L16.877,16.324C16.9,16.354 16.894,16.398 16.863,16.421C16.832,16.445 16.789,16.438 16.765,16.408L16.616,16.21L16.449,16.41C16.424,16.44 16.38,16.444 16.351,16.419C16.321,16.394 16.317,16.35 16.342,16.321L16.53,16.095ZM17.224,16.095L17.033,15.842C17.01,15.812 17.016,15.768 17.047,15.745C17.078,15.721 17.121,15.728 17.145,15.758L17.257,15.908L17.262,15.761C17.264,15.723 17.296,15.693 17.335,15.694C17.373,15.695 17.403,15.728 17.402,15.766L17.398,15.887L17.498,15.768C17.522,15.738 17.566,15.734 17.596,15.759C17.625,15.783 17.629,15.827 17.605,15.857L17.402,16.1L17.57,16.324C17.594,16.354 17.587,16.398 17.557,16.421C17.526,16.445 17.482,16.438 17.459,16.408L17.31,16.21L17.142,16.41C17.118,16.44 17.074,16.444 17.044,16.419C17.014,16.394 17.011,16.35 17.035,16.321L17.224,16.095ZM15.081,17.159L14.534,17.159C14.656,17.002 14.899,16.858 14.899,16.858L15.422,16.846C15.337,17.015 15.215,17.087 15.081,17.159ZM16.772,17.159C16.638,17.087 16.517,17.015 16.432,16.846L16.955,16.858C16.955,16.858 17.198,17.002 17.32,17.159L16.772,17.159ZM14.132,16.724C14.093,16.724 14.062,16.692 14.062,16.654C14.063,16.615 14.094,16.584 14.132,16.584L17.734,16.596C17.772,16.596 17.804,16.628 17.803,16.666C17.803,16.705 17.772,16.736 17.733,16.736L14.132,16.724Z" fill="#990838" />
</svg>
