<svg width="32" height="32" viewBox="0 0 32 32" xmlns="http://www.w3.org/2000/svg">
  <polygon fill="#062365" points="16,6 30,6 30,26 2,26 2,16" />
  <polygon fill="#062365" points="4.1,6 7.25,6 9,7 10.75,6 13.9,6 16,7.5 16,9.25 15,11 16,12.75 16,14.5 13.9,16 10.75,16 9,15 7.25,16 4.1,16 2,14.5 2,12.75 3,11 2,9.25 2,7.5" />
  <polygon fill="#F4F4F4" points="16,6 15.3,6.25 14.6,6 13.9,6 10.75,8.25 10.75,6 10,6 9,6.5 8,6 7.25,6 7.25,8.25 4.1,6 2,6 2.25,6.5 2,7 2,7.5 4.45,9.25 2,9.25 2,10 2.5,11 2,12 2,12.75 4.45,12.75 2,14.5 2,16 2.7,15.75 3.4,16 4.1,16 7.25,13.75 7.25,16 8,16 9,15.5 10,16 10.75,16 10.75,13.75 13.9,16 16,16 15.75,15.5 16,15 16,14.5 13.55,12.75 16,12.75 16,12 15.5,11 16,10 16,9.25 13.55,9.25 16,7.5" />
  <path fill="#CF0828" d="M7.25,12.75h-0.7L2,16h1.4l3.85-2.75V12.75z M11.45,12.75L16,16v-1l-3.15-2.25H11.45z M10.75,9.25h0.7L16,6h-1.4l-3.85,2.75V9.25z M5.15,9.25L2,7V6l4.55,3.25H5.15z M16,12h-6v4H8v-4H2v-2h6V6h2v4h6V12z" />
  <path d="M22.376,12.234C22.268,11.925 21.559,11.661 21.246,11.781C21.607,11.108 22.205,10.903 22.507,10.591C22.809,10.278 22.821,10.002 22.821,10.002C22.821,10.002 23.097,10.47 23.374,10.903C23.651,11.336 24.025,11.576 24.025,11.576C24.025,11.576 23.049,11.87 22.376,12.234Z" fill="#b4f6fc" />
  <path d="M22.518,12.168C22.518,12.205 22.489,12.234 22.453,12.234C22.417,12.234 22.388,12.205 22.388,12.168L22.388,10.272C22.388,10.235 22.417,10.206 22.453,10.206C22.489,10.206 22.518,10.235 22.518,10.272L22.518,12.168Z" fill="#b76a1e" />
  <path d="M22.969,12.538C22.452,12.538 21.631,12.515 21.558,12.37C21.486,12.225 21.462,11.853 21.462,11.853C21.462,11.853 22.075,12.154 22.905,12.154C23.734,12.154 24.263,11.853 24.263,11.853C24.263,11.853 24.269,12.36 24.024,12.454C23.852,12.521 23.558,12.538 22.969,12.538Z" fill="#b4f6fc" />
  <path d="M19.275,14.702C19.178,14.942 19.166,15.255 19.347,15.387C19.527,15.519 19.815,15.255 19.815,15.255C19.815,15.255 19.299,15.207 19.275,14.702Z" fill="#aeddff" />
  <path d="M20.453,15.111C20.225,14.906 19.747,15.063 19.747,15.063C19.747,15.063 19.804,14.786 19.948,14.702C19.552,14.666 19.342,14.775 19.206,15.111C19.047,14.931 19.275,14.486 19.275,14.486C19.275,14.486 19.792,14.174 20.285,14.486C20.693,13.922 20.758,12.948 20.263,13.032C20.393,12.707 21.323,12.911 21.146,13.47C20.97,14.029 20.682,14.245 20.682,14.245C20.682,14.245 21.164,13.79 21.494,13.994C21.824,14.198 21.968,15.152 21.247,14.837C20.525,14.522 20.394,14.719 20.382,14.837C20.368,14.955 20.453,15.111 20.453,15.111Z" fill="#00a6ed" />
  <path d="M22.123,14.942C21.815,15.848 21.209,15.848 21.209,15.848C21.209,15.848 21.245,15.535 21.365,15.395C20.848,15.592 20.128,15.279 20.284,14.486C20.404,14.991 20.908,15.159 21.378,14.931C21.847,14.702 22.17,14.805 22.123,14.942Z" fill="#aeddff" />
  <path d="M18.746,13.608C18.658,13.465 18.868,13.212 19.149,13.308C18.962,13.512 19.048,13.716 19.149,13.861C19.251,14.005 18.842,13.765 18.746,13.608Z" fill="#00a6ed" />
  <path d="M20.657,12.983C20.428,12.911 20.262,13.031 20.262,13.031C20.262,13.031 20.14,12.755 19.767,12.862C19.394,12.97 19.166,12.837 19.166,12.837C19.166,12.837 19.286,13.226 19.852,13.231C19.503,13.679 18.914,13.764 18.745,13.608C18.842,13.824 19.178,14.088 19.298,14.101C19.418,14.113 20.052,13.739 20.188,13.308C20.212,13.232 20.284,13.319 20.188,13.469C20.092,13.62 20.008,13.788 20.068,14.052C20.155,13.906 20.344,13.896 20.44,13.668C20.536,13.439 20.452,13.199 20.656,13.127C20.862,13.055 20.657,12.983 20.657,12.983Z" fill="#aeddff" />
  <path d="M23.582,16.368C23.208,16.368 23.181,15.728 23.181,15.728C23.181,15.728 23.068,15.78 22.748,16.05C22.428,16.32 21.947,16.372 21.947,16.372C21.947,16.372 21.578,15.968 22.012,15.487C21.995,15.006 21.451,14.509 21.451,14.509L21.002,14.413C21.002,14.413 22.075,13.372 22.861,13.307C23.646,13.242 23.694,13.595 23.63,14.316C23.566,15.037 23.791,15.486 23.791,15.486C23.791,15.486 24.463,16.368 23.582,16.368Z" fill="#b7c0c5" />
  <path d="M21.607,14.102C21.523,14.198 21.526,14.233 21.765,14.222C22.004,14.209 22.128,14.224 22.128,14.224C22.128,14.224 21.632,14.484 21.318,14.341C21.366,14.185 21.607,14.102 21.607,14.102ZM23.35,15.652C23.35,15.652 23.674,15.447 23.794,15.796C23.914,16.145 23.778,16.181 23.618,16.193C23.458,16.205 23.35,15.652 23.35,15.652Z" fill="#cf0828" />
  <path d="M24.467,14.642C24.361,14.876 24.358,15.387 24.888,15.579C24.984,15.195 24.912,14.966 24.467,14.642ZM25.609,14.894C25.729,14.774 25.645,14.305 25.285,14.485C24.924,14.665 24.762,14.618 24.668,14.558C24.732,14.449 24.984,14.365 24.984,14.365C24.984,14.365 24.522,14.402 24.411,14.017C24.683,14.089 24.815,14.017 24.815,14.017C24.815,14.017 24.665,13.908 24.668,13.825C24.876,13.752 25.165,13.981 25.165,13.981C25.165,13.981 25.062,13.812 25.042,13.416C25.021,13.019 25.345,12.882 25.585,13.071C25.357,13.345 25.622,13.873 25.73,14.33C26.175,14.005 26.715,14.078 26.739,14.582C26.763,15.087 26.607,14.967 26.607,14.967C26.607,14.967 26.799,14.486 26.102,14.558C26.403,14.703 26.258,14.837 26.258,14.837C26.258,14.837 25.934,14.75 25.609,14.894Z" fill="#aeddff" />
  <path d="M24.036,13.596C23.722,13.561 23.842,13.946 23.385,14.102C23.494,14.149 23.711,14.102 23.711,14.102C23.711,14.102 23.495,14.498 23.711,14.906C23.902,14.75 23.962,14.485 23.962,14.485C23.962,14.485 23.962,14.946 24.202,15.166C24.413,14.895 24.311,14.557 24.311,14.557C24.311,14.557 24.458,14.969 24.925,15.166C25.392,15.362 25.705,14.93 25.742,14.702C25.778,14.473 25.669,14.405 25.669,14.405C25.669,14.405 25.275,14.774 24.925,14.558C25.08,14.413 25.014,14.334 24.668,14.308C24.323,14.282 24.238,13.801 24.203,13.741C24.167,13.68 24.036,13.596 24.036,13.596ZM25.078,13.181C25.212,12.827 25.669,12.769 25.837,12.876C26.149,12.707 26.478,13.043 26.741,12.935C26.631,13.188 26.306,13.312 26.138,13.232C26.342,13.524 26.885,13.72 27.087,13.543C27.289,13.367 27.152,13.772 26.741,13.906C26.33,14.041 26.042,13.543 26.042,13.543C26.042,13.543 26.125,13.852 26.042,13.982C25.729,13.872 25.567,13.545 25.576,13.308C25.585,13.07 25.39,12.897 25.078,13.181Z" fill="#00a6ed" />
  <path d="M26.741,13.906C27.063,13.836 27.304,13.571 27.315,13.469C27.328,13.368 27.152,13.058 26.741,13.232C27.099,13.368 27.032,13.808 26.741,13.906Z" fill="#aeddff" />
  <path d="M26.669,14.34C26.919,14.678 26.847,15.038 26.799,15.11C26.752,15.182 26.379,15.312 26.235,15.062C26.546,15.038 26.841,14.765 26.669,14.34Z" fill="#00a6ed" />
  <path d="M22.982,13.632C22.432,13.632 21.608,13.906 21.608,13.906C21.608,13.906 21.579,13.58 21.402,13.308C21.225,13.035 21.146,12.651 21.146,12.651C21.146,12.651 21.595,12.731 21.643,13.003C21.692,13.275 21.627,13.516 21.627,13.516L22.172,13.372C22.172,13.372 22.027,13.137 21.899,13.308C21.772,13.478 21.627,12.843 21.819,12.747C22.012,12.651 22.518,12.538 22.518,12.538C22.518,12.538 22.557,13.003 22.588,13.115C22.62,13.228 22.332,13.232 22.332,13.232L22.379,13.308L22.86,13.308C22.86,13.308 22.7,13.128 22.7,12.843C22.7,12.532 23.037,12.234 23.037,12.234C23.037,12.234 23.338,12.636 23.338,12.875C23.338,13.113 23.158,13.308 23.158,13.308L23.582,13.388C23.582,13.388 23.742,13.067 23.582,13.148C23.422,13.228 23.421,13.052 23.485,12.843C23.55,12.635 23.502,12.442 23.502,12.442L24.158,12.747C24.158,12.747 24.206,12.817 24.158,13.07C24.111,13.324 23.822,13.3 23.822,13.3L23.822,13.452L24.254,13.564C24.254,13.564 24.125,13.265 24.254,13.07C24.382,12.875 24.815,12.747 24.815,12.747C24.815,12.747 24.462,13.383 24.254,13.906C23.988,13.78 23.531,13.632 22.982,13.632Z" fill="#f1a11e" />
  <path d="M25.022,16L20.94,16L20.94,18.476C20.94,20.589 22.362,20.923 22.974,21.092L22.974,21.096L22.982,21.094L22.988,21.096L22.988,21.092C23.601,20.922 25.022,20.589 25.022,18.476L25.022,16Z" fill="#f4f4f4" />
  <path d="M22.172,18.416L20.94,18.416L20.94,16L25.022,16L25.022,18.416L23.71,18.416C23.71,18.416 23.118,17.815 22.982,16.998C22.982,16.998 22.833,17.754 22.172,18.416ZM23.71,18.416C23.71,18.416 23.118,19.017 22.982,19.834C22.982,19.834 22.833,19.077 22.172,18.416L23.71,18.416ZM22.797,16.998C22.688,17.022 22.436,17.058 22.365,17.07C22.293,17.082 22.317,16.938 22.377,16.914C22.437,16.889 22.845,16.649 22.798,16.517C22.653,16.685 22.232,16.625 22.076,16.842C21.92,17.058 22.112,17.251 21.972,17.335C21.832,17.418 21.692,17.286 21.463,17.515C21.235,17.743 21.147,18.128 21.147,18.128C21.147,18.128 21.595,18.115 21.619,17.839C21.643,17.562 21.859,17.538 21.859,17.538C21.859,17.538 21.727,17.718 21.765,17.839C21.802,17.731 22.1,17.502 22.292,17.442C22.485,17.382 22.752,17.131 22.797,16.998ZM23.165,16.998C23.211,17.131 23.478,17.382 23.67,17.442C23.862,17.502 24.16,17.731 24.198,17.839C24.235,17.718 24.103,17.538 24.103,17.538C24.103,17.538 24.319,17.562 24.343,17.839C24.367,18.115 24.815,18.128 24.815,18.128C24.815,18.128 24.728,17.743 24.499,17.515C24.271,17.286 24.13,17.418 23.99,17.335C23.85,17.251 24.042,17.058 23.886,16.842C23.73,16.625 23.309,16.685 23.165,16.517C23.117,16.649 23.525,16.889 23.585,16.914C23.645,16.938 23.669,17.082 23.598,17.07C23.526,17.058 23.274,17.022 23.165,16.998ZM22.797,19.822C22.688,19.798 22.436,19.762 22.365,19.75C22.293,19.738 22.317,19.882 22.377,19.906C22.437,19.931 22.845,20.171 22.798,20.303C22.653,20.135 22.232,20.195 22.076,19.978C21.92,19.762 22.112,19.569 21.972,19.485C21.832,19.402 21.692,19.534 21.463,19.305C21.235,19.077 21.147,18.692 21.147,18.692C21.147,18.692 21.595,18.705 21.619,18.981C21.643,19.258 21.859,19.282 21.859,19.282C21.859,19.282 21.727,19.101 21.765,18.981C21.802,19.089 22.1,19.318 22.292,19.378C22.485,19.438 22.752,19.689 22.797,19.822ZM23.165,19.822C23.211,19.689 23.478,19.438 23.67,19.378C23.862,19.318 24.16,19.089 24.198,18.981C24.235,19.101 24.103,19.282 24.103,19.282C24.103,19.282 24.319,19.258 24.343,18.981C24.367,18.705 24.815,18.692 24.815,18.692C24.815,18.692 24.728,19.077 24.499,19.305C24.271,19.534 24.13,19.402 23.99,19.485C23.85,19.569 24.042,19.762 23.886,19.978C23.73,20.195 23.309,20.135 23.165,20.303C23.117,20.171 23.525,19.931 23.585,19.906C23.645,19.882 23.669,19.738 23.598,19.75C23.526,19.762 23.274,19.798 23.165,19.822Z" fill="#0092e7" />
  <path d="M21.618,14.485C21.967,14.63 22.268,14.438 22.58,14.185C22.892,13.932 23.231,14.065 23.327,14.101C23.423,14.137 23.217,14.134 22.862,14.34C22.508,14.545 22.339,14.61 22.328,14.836C22.315,15.062 22.219,14.935 22.172,14.836C22.124,14.738 22.112,15.002 22.172,15.267C22.232,15.532 22.128,15.848 22.128,15.848C22.128,15.848 22.038,15.018 21.618,14.485Z" fill="#1c1c1c" />
  <path d="M18.217,16.457C18.217,16.457 18.277,16.277 18.518,16.145C18.758,16.012 18.59,15.905 18.434,15.916C18.278,15.928 18.158,15.94 17.989,16.373C17.821,16.805 17.184,18.681 18.218,19.69C17.917,19.545 17.641,18.957 17.641,18.957C17.641,18.957 17.677,19.354 17.881,19.75C17.268,18.788 17.34,17.767 17.436,16.998C17.532,16.228 17.761,15.735 18.109,15.712C18.398,15.279 18.926,15.503 19.323,15.848C19.72,16.192 19.912,16.517 19.912,16.517C19.912,16.517 19.965,15.88 20.263,15.94C20.562,16 20.994,16.216 21.054,16.372C21.114,16.528 20.682,16.408 20.597,16.312C20.513,16.216 20.349,16.108 20.263,16.204C20.177,16.3 20.116,16.733 20.116,16.733C20.116,16.733 20.329,16.336 20.457,16.372C20.585,16.408 21.166,16.925 21.146,17.105C21.126,17.285 20.97,17.009 20.813,16.889C20.657,16.769 20.534,16.552 20.457,16.588C20.38,16.625 20.104,17.262 20.08,17.322C20.056,17.382 20.145,17.369 20.262,17.207C20.38,17.045 20.512,16.865 20.585,16.865C20.657,16.865 21.155,17.55 21.146,17.706C21.137,17.862 21.063,18.007 21.002,18.043C20.94,18.079 21.029,17.864 20.885,17.611C20.742,17.358 20.609,17.093 20.548,17.129C20.488,17.165 20.212,17.598 20.164,17.706C20.116,17.815 20.476,17.454 20.608,17.514C20.741,17.574 20.935,18.258 20.94,18.475C20.945,18.693 20.815,18.836 20.748,18.896C20.681,18.956 20.706,18.68 20.748,18.548C20.789,18.415 20.693,18.247 20.657,18.043C20.621,17.838 20.585,17.646 20.548,17.706C20.512,17.766 19.959,18.247 19.912,18.283C19.864,18.319 20.085,18.283 20.262,18.187C20.44,18.091 20.536,18.103 20.561,18.283C20.585,18.463 20.621,19.028 20.345,19.185C20.068,19.341 20.368,18.992 20.405,18.824C20.441,18.655 20.417,18.295 20.345,18.331C20.272,18.367 19.768,18.739 19.612,18.799C19.455,18.859 19.539,19.268 19.695,19.496C19.852,19.725 20.192,19.953 20.262,19.748C20.332,19.544 20.598,19.328 20.748,19.436C20.897,19.545 20.825,19.748 20.825,19.748C20.825,19.748 21.022,19.748 21.002,19.965C20.982,20.181 20.705,20.397 20.032,20.302C19.358,20.206 18.517,19.941 18.565,18.763C18.313,17.729 18.505,17.285 18.542,16.996C18.578,16.708 18.686,16.283 18.65,16.249C18.614,16.216 18.338,16.301 18.217,16.457ZM27.783,16.457C27.783,16.457 27.723,16.277 27.482,16.145C27.242,16.012 27.41,15.905 27.566,15.916C27.722,15.928 27.842,15.94 28.011,16.373C28.179,16.805 28.816,18.681 27.782,19.69C28.083,19.545 28.359,18.957 28.359,18.957C28.359,18.957 28.323,19.354 28.119,19.75C28.732,18.788 28.66,17.767 28.564,16.998C28.468,16.228 28.239,15.735 27.891,15.712C27.602,15.279 27.074,15.503 26.677,15.848C26.28,16.192 26.088,16.517 26.088,16.517C26.088,16.517 26.035,15.88 25.737,15.94C25.438,16 25.006,16.216 24.946,16.372C24.886,16.528 25.318,16.408 25.403,16.312C25.487,16.216 25.651,16.108 25.737,16.204C25.823,16.3 25.884,16.733 25.884,16.733C25.884,16.733 25.671,16.336 25.543,16.372C25.415,16.408 24.834,16.925 24.855,17.105C24.875,17.285 25.031,17.009 25.188,16.889C25.344,16.769 25.467,16.552 25.544,16.588C25.621,16.625 25.897,17.262 25.921,17.322C25.945,17.382 25.856,17.369 25.738,17.207C25.621,17.045 25.488,16.865 25.416,16.865C25.344,16.865 24.845,17.55 24.854,17.706C24.863,17.862 24.937,18.007 24.999,18.043C25.061,18.079 24.972,17.864 25.115,17.611C25.259,17.358 25.392,17.093 25.452,17.129C25.512,17.165 25.789,17.598 25.837,17.706C25.885,17.815 25.525,17.454 25.392,17.514C25.26,17.574 25.066,18.258 25.061,18.475C25.055,18.693 25.186,18.836 25.253,18.896C25.32,18.956 25.295,18.68 25.253,18.548C25.212,18.415 25.308,18.247 25.344,18.043C25.38,17.838 25.416,17.646 25.452,17.706C25.488,17.766 26.042,18.247 26.089,18.283C26.137,18.319 25.916,18.283 25.738,18.187C25.561,18.091 25.465,18.103 25.44,18.283C25.416,18.463 25.38,19.028 25.656,19.185C25.932,19.341 25.632,18.992 25.596,18.824C25.56,18.655 25.584,18.295 25.656,18.331C25.728,18.367 26.233,18.739 26.389,18.799C26.545,18.859 26.462,19.268 26.305,19.496C26.149,19.725 25.808,19.953 25.738,19.748C25.668,19.544 25.402,19.328 25.253,19.436C25.104,19.545 25.175,19.748 25.175,19.748C25.175,19.748 24.978,19.748 24.999,19.965C25.019,20.181 25.296,20.397 25.969,20.302C26.642,20.205 27.484,19.941 27.435,18.763C27.688,17.729 27.495,17.285 27.459,16.996C27.423,16.708 27.315,16.283 27.351,16.249C27.386,16.216 27.663,16.301 27.783,16.457Z" fill="#f3c07b" />
  <path d="M20.188,21.228C20.287,20.884 21.126,20.568 21.39,20.615C21.655,20.663 22.135,20.855 21.858,21.096C21.582,21.336 20.993,21.541 20.596,21.625C20.2,21.709 20.116,21.481 20.188,21.228ZM25.79,21.228C25.692,20.884 24.852,20.568 24.588,20.615C24.324,20.663 23.843,20.855 24.12,21.096C24.396,21.336 24.985,21.541 25.382,21.625C25.778,21.709 25.862,21.481 25.79,21.228Z" fill="#cf0828" />
  <path d="M26.038,20.772C26.038,20.772 25.858,20.855 25.895,21.036C25.932,21.217 25.895,21.529 25.701,21.594C25.927,21.033 25.138,21.312 24.817,21.643C24.495,21.973 23.648,22.37 22.982,22.37C22.317,22.37 21.469,21.974 21.148,21.643C20.826,21.313 20.038,21.033 20.264,21.594C20.069,21.529 20.033,21.216 20.069,21.036C20.105,20.855 19.925,20.772 19.925,20.772C19.925,20.772 20.297,20.366 20.658,20.611C21.018,20.855 22.061,21.721 22.982,21.721C23.902,21.721 24.945,20.855 25.305,20.611C25.666,20.366 26.038,20.772 26.038,20.772ZM21.318,20.613C21.742,20.524 22.292,20.988 22.388,21.096C22.485,21.205 22.341,21.541 22.172,21.408C22.004,21.276 21.894,21.251 21.69,21.217C21.486,21.183 21.222,20.913 21.512,20.808C21.388,20.952 21.512,21.146 21.704,21.025C21.895,20.904 21.738,20.695 21.318,20.613ZM24.719,20.613C24.298,20.695 24.142,20.904 24.334,21.025C24.526,21.146 24.65,20.952 24.526,20.808C24.816,20.913 24.552,21.183 24.348,21.217C24.144,21.251 24.034,21.276 23.865,21.408C23.697,21.541 23.553,21.205 23.649,21.096C23.745,20.988 24.296,20.524 24.719,20.613Z" fill="#fff3d7" />
</svg>
