<svg width="32" height="32" viewBox="0 0 32 32" xmlns="http://www.w3.org/2000/svg">
  <polygon fill="#CF0828" points="2,6 9,6 30,12.75 30,19.75 9,26 2,26" />
  <rect fill="#f4f4f4" x="9" y="6" width="21" height="6.75" />
  <path d="M4.719,8.59C4.954,9.015 4.954,9.182 4.885,9.219C4.818,9.257 4.707,9.152 4.473,8.726C4.238,8.301 3.969,7.718 4.036,7.68C4.105,7.642 4.484,8.165 4.719,8.59ZM6.137,8.328C6.371,7.903 6.616,7.589 6.685,7.627C6.753,7.664 6.617,8.039 6.383,8.464C6.148,8.889 5.903,9.203 5.836,9.166C5.767,9.128 5.902,8.753 6.137,8.328ZM5.715,9.012L5.035,9.023L5.248,7.946C5.173,7.909 5.117,7.845 5.117,7.764C5.117,7.644 5.227,7.547 5.363,7.547C5.499,7.547 5.609,7.643 5.609,7.763C5.609,7.847 5.548,7.904 5.471,7.941L5.492,7.946L5.715,9.012ZM7.027,11.075C7.238,11.25 7.285,11.273 7.19,11.289C7.095,11.305 6.969,11.308 6.7,11.144C6.448,10.991 5.82,10.429 5.499,10.051C5.425,10.144 5.335,10.214 5.223,10.219L5.009,10.228C4.762,10.544 4.053,11.171 3.746,11.239C3.43,11.308 3.43,11.192 3.594,11.098C3.74,11.015 4.348,10.543 4.645,10.225C4.462,10.215 4.269,10.189 4.074,10.125C3.652,9.984 3.488,9.832 4.004,9.75C4.213,9.716 4.993,9.682 4.993,9.682L5.02,9.401L4.813,9.401L4.813,9.389L4.332,9.389L4.332,9.553L3.559,9.553L3.559,9.119L4.332,9.119L4.332,9.284L4.813,9.284L4.813,9.272L5.059,9.272L5.059,9.07L5.668,9.07L5.668,9.272L5.692,9.272L5.692,9.266L6.359,9.266L6.359,9.137L7.18,9.137L7.18,9.536L6.359,9.536L6.359,9.407L5.691,9.407L5.691,9.401L5.678,9.401C5.686,9.538 5.666,9.668 5.632,9.788C6.016,10.205 6.824,10.905 7.027,11.075Z" fill="#f4f4f4" />
  <rect fill="#00753B" x="9" y="19.25" width="21" height="6.75" />
</svg>
