<svg width="32" height="32" viewBox="0 0 32 32" xmlns="http://www.w3.org/2000/svg">
  <polygon fill="#f4f4f4" points="11,6 21,6 22,7 22,25 21,26 11,26 10,25 10,7" />
  <rect fill="#01773f" x="2" y="6" width="9" height="20" />
  <rect fill="#01773f" x="21" y="6" width="9" height="20" />
  <path d="M16.092,10.46C16.07,10.702 16.048,10.944 16.025,11.186C15.943,11.198 15.861,11.21 15.78,11.223C15.78,11.223 15.95,11.319 15.98,11.415C15.985,11.43 15.983,11.443 15.976,11.453C15.974,11.456 15.97,11.459 15.967,11.461C15.918,11.499 15.771,11.481 15.771,11.481C15.771,11.481 15.965,11.645 15.98,11.704C15.98,11.705 15.981,11.707 15.981,11.708C15.981,11.709 15.981,11.711 15.981,11.712C15.981,11.713 15.979,11.714 15.979,11.715C15.978,11.718 15.975,11.721 15.973,11.724C15.927,11.766 15.712,11.778 15.712,11.778C15.712,11.778 15.95,11.948 15.965,12.044C15.979,12.131 15.968,12.182 15.965,12.191C15.949,12.177 15.565,11.854 15.317,11.948C15.305,11.955 15.298,11.961 15.295,11.967C15.293,11.97 15.293,11.973 15.294,11.976C15.311,12.03 15.661,12.085 15.906,12.296C15.9,12.349 15.21,12.128 15.184,12.266C15.206,12.305 15.927,12.409 15.98,12.503C15.714,12.513 15.166,12.445 15.184,12.532C15.129,12.633 15.702,12.576 15.943,12.658C16.013,12.738 16.006,12.805 15.884,12.813C15.652,12.703 15.133,12.621 15.132,12.762C15.132,12.762 15.132,12.763 15.132,12.763C15.132,12.763 15.132,12.764 15.132,12.764C15.133,12.764 15.133,12.765 15.133,12.765C15.134,12.766 15.136,12.767 15.137,12.768C15.196,12.797 15.679,12.783 15.861,12.903C15.603,12.961 14.728,12.784 14.723,12.871C14.748,12.911 14.886,13.088 15.124,13.08C15.363,13.073 15.914,13.177 15.951,13.251C15.952,13.253 15.952,13.255 15.952,13.257C15.936,13.309 15.226,13.099 14.953,13.228C14.67,13.361 15.764,13.28 15.943,13.443C16.121,13.606 15.586,13.428 15.586,13.428C15.586,13.428 14.842,13.325 14.73,13.377C14.618,13.428 14.492,13.547 14.492,13.547C14.492,13.547 14.566,13.695 14.64,13.665C14.652,13.661 14.659,13.66 14.664,13.661C14.664,13.661 14.664,13.661 14.665,13.661C14.665,13.661 14.665,13.662 14.665,13.662C14.666,13.662 14.666,13.662 14.666,13.663C14.666,13.663 14.667,13.663 14.667,13.663C14.667,13.663 14.668,13.664 14.668,13.664C14.668,13.665 14.669,13.667 14.669,13.667C14.67,13.69 14.618,13.754 14.618,13.754C14.618,13.754 15.66,14.005 15.891,14.227C16.122,14.449 14.566,13.88 14.566,13.88C14.566,13.88 13.941,14.109 14.603,14.124C14.529,14.231 14.634,14.297 14.64,14.301C14.64,14.301 15.742,14.531 15.854,14.709C15.966,14.886 15.102,14.538 14.909,14.442C14.722,14.349 14.202,14.491 14.173,14.534C14.172,14.535 14.172,14.536 14.172,14.536C14.172,14.536 14.172,14.537 14.172,14.537C14.172,14.537 14.172,14.538 14.172,14.538C14.172,14.538 14.172,14.539 14.172,14.539C14.172,14.539 14.172,14.54 14.172,14.54C14.172,14.54 14.173,14.541 14.173,14.541C14.173,14.541 14.173,14.541 14.173,14.541C14.173,14.542 14.174,14.543 14.174,14.544C14.174,14.544 14.175,14.545 14.175,14.545C14.208,14.581 14.44,14.631 14.447,14.694C14.447,14.694 14.447,14.695 14.447,14.695C14.447,14.698 14.446,14.702 14.445,14.705C14.416,14.762 14.139,14.786 14.127,14.839C14.127,14.84 14.127,14.841 14.127,14.842C14.127,14.901 15.519,15.19 15.891,15.501C16.263,15.812 14.797,15.13 14.797,15.13C14.797,15.13 14.879,15.241 14.797,15.271C14.715,15.301 14.424,14.856 13.948,15.13C13.861,15.243 14.364,15.332 14.492,15.345C14.448,15.456 14.41,15.493 14.589,15.604C14.608,15.616 14.619,15.624 14.623,15.628C14.624,15.628 14.624,15.628 14.624,15.628L14.625,15.629C14.625,15.629 14.625,15.63 14.625,15.63C14.625,15.63 14.625,15.631 14.625,15.631C14.625,15.631 14.624,15.631 14.624,15.631C14.624,15.631 14.624,15.631 14.623,15.631C14.596,15.627 14.275,15.463 14.241,15.456C14.241,15.456 14.24,15.456 14.24,15.456C14.24,15.456 14.239,15.456 14.239,15.456C14.239,15.471 14.276,15.649 14.276,15.649C14.111,15.515 13.912,15.475 13.725,15.612C13.725,15.619 13.723,15.747 13.911,15.826C13.805,16.041 14.03,15.974 14.388,16.174C13.857,16.036 13.814,16.292 14.194,16.351C14.573,16.411 15.616,16.448 15.861,16.766C15.913,16.833 15.927,16.867 15.917,16.878C15.876,16.915 15.499,16.644 15.444,16.633C15.444,16.633 15.444,16.633 15.443,16.633C15.443,16.634 15.443,16.634 15.443,16.634C15.442,16.635 15.441,16.637 15.44,16.638C15.427,16.668 15.414,16.796 15.414,16.796C15.256,16.704 15.11,16.622 14.92,16.584C14.905,16.613 14.908,16.655 14.893,16.685C14.721,16.561 14.571,16.474 14.32,16.462C14.311,16.502 14.3,16.542 14.291,16.581C14.291,16.581 14.082,16.322 13.672,16.581C13.444,16.744 14.536,16.64 14.715,16.833C14.893,17.025 14.752,17.054 14.752,17.054C14.603,17 14.455,16.946 14.306,16.892C14.306,16.892 13.777,16.795 13.628,16.914C13.479,17.032 15.801,17.321 15.868,17.639C15.914,17.812 15.323,17.459 14.812,17.307C14.792,17.363 14.772,17.42 14.752,17.476C14.74,17.464 14.542,17.273 14.32,17.24C14.32,17.24 14.32,17.241 14.32,17.241C14.32,17.241 14.32,17.242 14.32,17.242C14.32,17.267 14.365,17.44 14.365,17.44C14.365,17.44 13.792,17.173 13.502,17.314C13.212,17.455 14.514,17.529 14.633,17.662C14.646,17.676 14.652,17.687 14.651,17.694C14.651,17.695 14.65,17.697 14.649,17.698C14.62,17.74 14.232,17.585 14.194,17.662C14.149,17.751 13.516,17.499 13.524,17.618C13.531,17.736 13.613,17.802 13.613,17.802C13.613,17.802 14.931,17.928 14.976,18.084C15.02,18.239 14.246,17.995 14.246,17.995C14.246,17.995 14.171,18.106 14.231,18.157C14.233,18.159 14.235,18.161 14.236,18.162C14.236,18.162 14.236,18.163 14.236,18.163C14.236,18.163 14.235,18.163 14.235,18.163C14.208,18.154 13.788,17.881 13.829,18.091C13.665,18.026 13.241,17.824 13.301,17.98C13.359,18.133 14.465,18.351 14.497,18.357C14.468,18.36 14.001,18.399 14.022,18.521C13.396,18.141 13.397,18.369 13.412,18.386C13.412,18.386 13.411,18.387 13.412,18.387C13.376,18.382 12.606,18.191 13.218,18.521C13.547,18.697 13.627,18.766 13.629,18.793C13.629,18.793 13.629,18.795 13.629,18.795C13.629,18.796 13.628,18.797 13.628,18.798C13.628,18.798 13.627,18.798 13.627,18.799C13.627,18.799 13.627,18.8 13.626,18.8C13.626,18.8 13.626,18.801 13.626,18.801C13.626,18.801 13.625,18.802 13.625,18.802C13.625,18.802 13.624,18.802 13.624,18.803C13.624,18.803 13.623,18.803 13.623,18.803C13.61,18.811 13.58,18.808 13.571,18.808C13.57,18.808 13.569,18.808 13.569,18.808C13.569,18.808 13.568,18.809 13.568,18.809L13.569,18.81C13.578,18.823 13.626,18.953 13.623,18.976C13.623,18.976 13.622,18.977 13.622,18.978C13.622,18.978 13.622,18.978 13.622,18.978C13.622,18.979 13.622,18.978 13.622,18.978C13.622,18.979 13.622,18.979 13.622,18.979C13.622,18.979 13.621,18.979 13.621,18.979C13.621,18.979 13.62,18.979 13.62,18.979C13.593,18.973 13.187,18.757 13.048,18.742C12.906,18.727 12.236,18.927 12.951,19.238C13.666,19.549 14.104,19.164 14.499,19.208C14.893,19.253 15.08,19.319 15.043,19.445C15.005,19.571 14.639,19.033 14.254,19.498C13.816,19.412 13.519,19.362 13.745,19.682C13.03,19.416 12.593,19.763 13.494,19.904C14.379,19.93 14.923,19.689 14.923,19.689C14.923,19.689 15.072,19.964 15.288,19.771C15.494,19.588 15.51,19.821 15.518,19.844C15.518,19.844 15.518,19.844 15.519,19.845C15.519,19.845 15.519,19.845 15.519,19.845C15.519,19.845 15.519,19.845 15.519,19.845C15.535,19.841 15.727,19.756 15.727,19.756C15.744,19.756 15.762,19.756 15.78,19.756L15.78,21.532C16.02,21.535 16.26,21.537 16.501,21.54C16.501,21.54 16.27,19.993 16.397,19.786C16.519,19.585 16.635,19.607 16.642,19.608C16.642,19.608 17.111,19.749 17.164,19.726C17.164,19.726 17.165,19.726 17.166,19.726C17.166,19.725 17.167,19.725 17.168,19.725C17.168,19.724 17.17,19.723 17.171,19.722C17.171,19.722 17.171,19.722 17.172,19.722C17.21,19.687 17.171,19.55 17.409,19.571C17.483,19.545 17.455,19.428 17.502,19.399C17.503,19.399 17.504,19.398 17.505,19.398C17.507,19.397 17.51,19.396 17.512,19.395C17.515,19.395 17.518,19.394 17.521,19.394C17.596,19.386 19.032,19.793 19.345,19.408C19.263,19.194 18.98,19.394 18.905,19.401C18.838,19.401 18.555,19.268 18.392,19.401C18.243,19.29 17.566,19.216 17.566,19.216C17.477,19.127 19.181,19.26 19.278,19.194C19.479,18.994 18.906,19.016 18.817,19.083C18.658,18.987 18.458,18.994 18.337,19.06C18.278,18.922 17.725,18.982 17.417,18.942C17.319,18.885 17.335,18.852 17.402,18.816C18.044,18.843 18.684,18.927 19.33,18.898C19.504,18.672 19.11,18.587 18.868,18.779C18.726,18.547 18.436,18.772 18.243,18.75C18.049,18.727 18.139,18.491 18.384,18.528C18.63,18.565 19.069,18.513 19.151,18.402C19.233,18.291 19.102,18.178 18.697,18.284C18.56,18.15 18.258,18.283 18.117,18.328C17.929,18.223 17.491,18.313 17.342,18.35C17.196,18.26 18.109,18.113 18.109,18.113C18.461,18.107 18.66,18.046 18.771,18.017C19.304,17.733 18.764,17.703 18.484,17.909C18.311,17.775 18.146,17.921 17.99,17.973C17.843,18.021 17.572,18.057 17.539,18.043C17.539,18.042 17.538,18.042 17.538,18.042C17.537,18.042 17.537,18.041 17.537,18.041L17.536,18.04C17.536,18.04 17.536,18.039 17.536,18.039C17.536,18.039 17.536,18.039 17.536,18.039C17.536,18.038 17.537,18.037 17.537,18.037C17.559,18.003 17.96,17.758 17.96,17.758C17.96,17.758 18.481,17.721 18.585,17.706C18.649,17.697 18.872,17.592 18.871,17.553C18.87,17.529 18.777,17.531 18.496,17.602C18.243,17.625 18.094,17.61 17.997,17.618C17.842,17.602 17.776,17.585 17.763,17.571C17.762,17.57 17.762,17.569 17.761,17.569C17.76,17.566 17.761,17.563 17.763,17.561C17.763,17.56 17.765,17.559 17.765,17.558C17.804,17.528 18.05,17.506 18.05,17.506C18.05,17.506 18.802,17.437 18.851,17.398C18.851,17.398 18.852,17.398 18.852,17.397C18.852,17.397 18.853,17.396 18.853,17.396C18.853,17.396 18.854,17.395 18.854,17.395C18.869,17.089 18.216,17.231 18.198,17.233C18.2,17.018 17.609,17.23 17.581,17.233C17.581,17.233 17.58,17.233 17.58,17.233C17.555,17.218 17.544,17.202 17.542,17.188C17.541,17.182 17.542,17.176 17.543,17.171C17.558,17.127 17.647,17.092 17.647,17.092C17.811,17.053 18.056,17.04 18.12,16.989C18.12,16.989 18.582,16.984 18.637,16.862C18.524,16.551 17.659,16.917 17.543,16.973C17.52,16.973 17.506,16.967 17.499,16.958C17.461,16.903 17.648,16.721 17.655,16.715C17.655,16.715 17.655,16.714 17.656,16.714C17.684,16.706 18.375,16.671 18.704,16.226C18.727,15.951 18.31,16.381 18.31,16.381C18.279,16.025 17.856,16.404 17.61,16.433C17.365,16.463 17.357,16.322 17.529,16.3C17.7,16.278 17.893,16.292 17.99,16.033C18.087,15.774 18.377,16.048 18.43,15.952C18.48,15.859 18.334,15.78 18.325,15.775C18.325,15.775 18.541,15.552 18.191,15.559C17.845,15.567 17.397,15.516 17.388,15.515C17.41,15.507 17.763,15.375 18.094,15.382C18.437,15.389 18.25,15.138 17.923,15.138C17.595,15.138 17.424,15.027 17.424,15.027C17.611,14.958 17.797,14.889 17.983,14.819C17.97,14.768 17.958,14.716 17.946,14.664C17.946,14.664 18.273,14.405 17.811,14.464C17.35,14.524 17.298,14.531 17.298,14.531C17.298,14.531 16.389,14.669 16.368,14.672C16.368,14.672 16.367,14.672 16.367,14.672C16.358,14.67 16.268,14.642 16.251,14.608C16.251,14.607 16.25,14.605 16.25,14.604C16.249,14.603 16.249,14.601 16.249,14.599C16.249,14.598 16.249,14.595 16.249,14.594C16.253,14.576 16.281,14.556 16.352,14.538C16.591,14.479 17.432,14.309 17.559,14.354C17.575,14.359 17.587,14.358 17.594,14.352C17.642,14.309 17.484,14.037 17.096,13.998C16.65,13.954 16.375,14.109 16.375,14.109C16.375,14.109 16.084,14.005 16.352,13.917C16.62,13.828 17.045,13.946 17.045,13.946C17.045,13.946 17.521,13.805 17.126,13.746C16.732,13.687 16.607,13.799 16.427,13.806C16.354,13.716 17.046,13.695 17.089,13.621C17.016,13.488 16.588,13.621 16.338,13.621C16.231,13.576 16.224,13.503 16.345,13.458C16.601,13.448 16.841,13.463 17.096,13.453C17.089,13.317 17.097,13.156 17.089,13.021C16.765,12.962 16.385,13.064 16.203,13.055C16.252,12.907 16.951,12.869 17.029,12.829C17.19,12.629 16.358,12.826 16.338,12.829C16.19,12.807 16.199,12.714 16.293,12.658C16.508,12.634 16.992,12.69 16.956,12.544C16.928,12.408 16.62,12.481 16.494,12.511C16.367,12.54 16.181,12.518 16.181,12.518C16.1,12.409 16.911,12.454 16.903,12.37C16.893,12.274 16.389,12.34 16.218,12.348C16.087,12.257 16.837,12.197 16.873,12.185C16.873,12.185 16.873,12.185 16.873,12.184C16.901,11.938 16.352,12.184 16.248,12.184C16.23,12.184 16.217,12.18 16.207,12.172C16.205,12.171 16.202,12.168 16.2,12.166C16.165,12.125 16.196,12.029 16.196,12.029C16.196,12.029 16.392,11.942 16.404,11.921C16.404,11.921 16.405,11.92 16.405,11.92C16.405,11.92 16.405,11.919 16.405,11.919C16.405,11.919 16.405,11.919 16.405,11.919C16.405,11.918 16.404,11.918 16.404,11.918C16.404,11.917 16.402,11.916 16.402,11.915C16.379,11.898 16.244,11.853 16.226,11.852C16.226,11.852 16.226,11.852 16.225,11.852C16.225,11.852 16.225,11.851 16.225,11.851C16.224,11.851 16.224,11.851 16.224,11.85C16.224,11.85 16.223,11.85 16.223,11.849C16.213,11.829 16.225,11.682 16.225,11.682C16.225,11.682 16.381,11.566 16.39,11.52C16.39,11.52 16.39,11.519 16.39,11.518C16.39,11.518 16.39,11.517 16.39,11.517C16.39,11.517 16.39,11.516 16.39,11.515C16.39,11.515 16.39,11.514 16.39,11.514C16.39,11.514 16.39,11.513 16.39,11.513C16.39,11.512 16.39,11.512 16.389,11.511C16.389,11.511 16.39,11.511 16.389,11.51C16.389,11.51 16.389,11.51 16.389,11.51C16.389,11.509 16.388,11.509 16.388,11.509C16.388,11.508 16.387,11.508 16.387,11.507C16.387,11.507 16.386,11.507 16.386,11.506C16.386,11.506 16.385,11.505 16.384,11.505C16.383,11.505 16.383,11.504 16.382,11.504C16.343,11.485 16.181,11.541 16.181,11.541C16.181,11.492 16.181,11.443 16.181,11.393C16.181,11.393 16.323,11.378 16.338,11.311C16.339,11.307 16.338,11.303 16.338,11.3C16.338,11.299 16.337,11.296 16.337,11.295C16.336,11.292 16.335,11.289 16.333,11.286C16.333,11.286 16.332,11.285 16.331,11.285C16.299,11.243 16.166,11.237 16.166,11.237C16.142,10.978 16.117,10.72 16.092,10.46L16.092,10.46ZM15.96,12.997L15.96,13.099C15.96,13.099 15.793,13.091 15.762,13.065C15.762,13.065 15.761,13.064 15.761,13.064C15.761,13.064 15.76,13.063 15.76,13.063C15.76,13.063 15.759,13.063 15.759,13.062C15.759,13.062 15.759,13.062 15.759,13.062C15.758,13.061 15.758,13.06 15.758,13.06C15.758,13.06 15.758,13.059 15.758,13.059C15.758,13.059 15.757,13.059 15.757,13.058C15.757,13.058 15.757,13.058 15.757,13.058C15.757,13.057 15.757,13.056 15.757,13.056C15.757,13.056 15.757,13.055 15.757,13.055C15.757,13.055 15.757,13.055 15.757,13.054C15.757,13.054 15.757,13.053 15.758,13.052C15.758,13.052 15.758,13.051 15.759,13.051C15.759,13.051 15.76,13.049 15.76,13.049C15.76,13.049 15.761,13.048 15.761,13.048C15.761,13.048 15.762,13.047 15.763,13.046C15.764,13.045 15.765,13.044 15.767,13.043C15.823,13.004 15.934,13.005 15.956,12.999C15.957,12.999 15.957,12.999 15.957,12.999C15.957,12.999 15.958,12.998 15.958,12.998C15.958,12.998 15.959,12.998 15.959,12.998C15.959,12.998 15.96,12.997 15.96,12.997L15.96,12.997ZM16.196,13.133C16.202,13.133 16.529,13.136 16.558,13.178C16.558,13.179 16.558,13.179 16.558,13.18C16.559,13.18 16.559,13.182 16.559,13.182C16.559,13.183 16.559,13.183 16.559,13.184C16.559,13.184 16.559,13.186 16.559,13.186C16.559,13.187 16.559,13.188 16.558,13.189C16.533,13.241 16.203,13.273 16.203,13.273L16.196,13.133L16.196,13.133ZM16.178,13.335C16.178,13.335 16.179,13.335 16.179,13.335C16.179,13.335 16.179,13.335 16.179,13.335C16.199,13.34 16.334,13.344 16.351,13.367C16.351,13.367 16.351,13.368 16.352,13.368C16.352,13.368 16.352,13.368 16.352,13.369C16.352,13.369 16.352,13.369 16.352,13.369C16.352,13.369 16.352,13.37 16.352,13.37C16.352,13.37 16.352,13.371 16.352,13.371C16.352,13.371 16.352,13.372 16.352,13.372C16.352,13.372 16.352,13.372 16.352,13.373C16.352,13.373 16.352,13.373 16.352,13.373C16.352,13.373 16.352,13.374 16.352,13.374C16.352,13.374 16.352,13.375 16.352,13.375C16.351,13.375 16.351,13.376 16.351,13.377C16.351,13.377 16.35,13.377 16.35,13.377C16.35,13.378 16.35,13.378 16.35,13.378C16.322,13.412 16.197,13.422 16.191,13.422C16.191,13.422 16.19,13.422 16.19,13.422C16.19,13.422 16.19,13.421 16.19,13.421C16.19,13.421 16.189,13.42 16.189,13.42C16.183,13.408 16.178,13.335 16.178,13.335L16.178,13.335ZM15.182,13.603C15.288,13.598 15.5,13.623 15.898,13.732C15.898,13.74 15.906,13.843 15.902,13.859C15.902,13.86 15.902,13.86 15.902,13.86C15.902,13.86 15.902,13.861 15.902,13.861C15.901,13.861 15.901,13.862 15.901,13.862C15.894,13.859 15.178,13.654 15.112,13.657C15.11,13.657 15.108,13.657 15.107,13.657C15.105,13.657 15.103,13.656 15.102,13.656C15.1,13.656 15.098,13.654 15.096,13.654C15.095,13.653 15.094,13.653 15.094,13.653C15.093,13.653 15.093,13.652 15.093,13.652C15.091,13.651 15.088,13.648 15.087,13.647C15.087,13.646 15.086,13.646 15.086,13.646C15.086,13.645 15.086,13.644 15.086,13.644C15.085,13.644 15.086,13.643 15.086,13.643C15.085,13.643 15.085,13.642 15.085,13.642C15.085,13.642 15.085,13.641 15.085,13.641C15.085,13.641 15.085,13.64 15.085,13.639C15.085,13.639 15.085,13.638 15.085,13.638C15.085,13.637 15.085,13.635 15.086,13.634C15.086,13.632 15.088,13.629 15.09,13.627C15.101,13.617 15.129,13.606 15.182,13.603L15.182,13.603ZM15.553,13.906C15.668,13.902 15.941,13.967 15.956,13.964C15.956,13.986 15.969,14.088 15.955,14.109C15.955,14.109 15.954,14.11 15.954,14.11C15.954,14.11 15.953,14.111 15.953,14.111C15.953,14.111 15.953,14.112 15.952,14.112C15.952,14.112 15.951,14.112 15.951,14.112C15.951,14.113 15.95,14.112 15.95,14.112C15.95,14.112 15.949,14.112 15.948,14.112C15.948,14.112 15.948,14.113 15.948,14.112C15.924,14.107 15.52,13.979 15.505,13.927C15.505,13.926 15.505,13.925 15.505,13.924C15.505,13.922 15.506,13.92 15.507,13.918C15.507,13.918 15.508,13.917 15.508,13.917C15.508,13.917 15.509,13.917 15.509,13.916C15.517,13.91 15.533,13.907 15.553,13.906L15.553,13.906ZM16.678,14.187C16.787,14.185 16.864,14.194 16.835,14.227C16.758,14.317 16.219,14.391 16.219,14.391L16.209,14.227C16.221,14.226 16.495,14.191 16.678,14.187L16.678,14.187ZM15.136,14.698C15.228,14.693 15.441,14.743 15.916,14.943L15.919,15.061C15.919,15.061 15.115,14.819 15.087,14.778C15.073,14.759 15.048,14.703 15.136,14.698L15.136,14.698ZM16.712,14.874C16.736,14.873 16.754,14.875 16.76,14.881C16.76,14.881 16.76,14.882 16.76,14.882C16.761,14.883 16.761,14.884 16.761,14.884C16.761,14.885 16.762,14.886 16.762,14.887C16.762,14.89 16.759,14.895 16.755,14.9C16.68,14.983 16.278,15.067 16.278,15.067C16.278,15.067 16.278,14.962 16.278,14.958C16.278,14.958 16.279,14.958 16.279,14.958C16.297,14.958 16.592,14.88 16.712,14.874L16.712,14.874ZM14.949,14.889C15.069,14.882 15.34,14.945 15.948,15.232C15.948,15.235 15.953,15.333 15.951,15.342C15.951,15.342 15.95,15.342 15.95,15.342C15.914,15.331 14.857,14.962 14.857,14.962C14.856,14.958 14.84,14.894 14.949,14.889L14.949,14.889ZM16.962,15.35C16.992,15.349 17.012,15.352 17.017,15.358C17.018,15.359 17.018,15.361 17.018,15.362C17.018,15.365 17.015,15.369 17.01,15.374C16.914,15.46 16.303,15.564 16.281,15.566C16.281,15.566 16.281,15.566 16.28,15.566C16.28,15.566 16.28,15.566 16.28,15.566C16.28,15.566 16.279,15.565 16.279,15.565C16.279,15.565 16.278,15.564 16.278,15.563C16.278,15.563 16.278,15.563 16.278,15.563C16.278,15.562 16.277,15.561 16.277,15.561C16.273,15.541 16.286,15.471 16.287,15.461C16.287,15.461 16.287,15.461 16.287,15.461C16.287,15.461 16.288,15.46 16.288,15.461C16.288,15.461 16.288,15.461 16.289,15.461C16.289,15.461 16.289,15.461 16.289,15.461C16.328,15.461 16.797,15.357 16.962,15.35L16.962,15.35ZM15.165,15.62C15.347,15.61 15.898,15.862 15.925,15.869C15.925,15.869 15.926,15.869 15.926,15.869C15.923,15.881 15.922,15.971 15.92,15.986C15.92,15.986 15.92,15.987 15.92,15.988C15.92,15.988 15.919,15.987 15.919,15.988C15.904,15.98 15.149,15.668 15.115,15.693C15.095,15.644 15.116,15.622 15.165,15.62L15.165,15.62ZM16.79,15.685C16.828,15.684 16.856,15.685 16.865,15.69C16.866,15.691 16.867,15.692 16.867,15.693C16.867,15.693 16.867,15.693 16.867,15.693C16.867,15.694 16.867,15.694 16.867,15.694C16.867,15.695 16.867,15.696 16.867,15.696C16.867,15.696 16.866,15.697 16.866,15.697C16.866,15.697 16.865,15.698 16.864,15.699C16.808,15.749 16.287,15.851 16.287,15.851C16.287,15.851 16.284,15.755 16.284,15.746C16.299,15.743 16.635,15.692 16.79,15.685L16.79,15.685ZM16.748,16.017C16.785,16.016 16.811,16.018 16.817,16.024L16.818,16.025C16.818,16.026 16.818,16.027 16.818,16.027C16.818,16.027 16.819,16.028 16.819,16.028C16.819,16.028 16.818,16.028 16.818,16.028C16.818,16.029 16.818,16.03 16.818,16.03C16.818,16.03 16.817,16.031 16.817,16.031C16.816,16.032 16.816,16.033 16.815,16.033C16.815,16.034 16.814,16.035 16.813,16.036C16.757,16.084 16.315,16.176 16.315,16.176C16.315,16.176 16.303,16.071 16.303,16.068C16.315,16.068 16.61,16.022 16.748,16.017L16.748,16.017ZM14.885,16.044C14.992,16.037 15.256,16.081 15.907,16.316L15.929,16.443C15.929,16.443 14.844,16.095 14.813,16.084C14.813,16.084 14.813,16.083 14.813,16.083C14.813,16.082 14.813,16.081 14.813,16.079C14.814,16.076 14.815,16.071 14.819,16.066C14.827,16.057 14.844,16.046 14.885,16.044L14.885,16.044ZM16.314,16.319C16.327,16.322 16.509,16.328 16.543,16.356C16.543,16.356 16.544,16.357 16.544,16.357C16.544,16.357 16.545,16.358 16.545,16.358C16.545,16.358 16.545,16.359 16.545,16.359C16.546,16.359 16.546,16.36 16.546,16.36C16.546,16.36 16.547,16.361 16.547,16.361C16.547,16.362 16.548,16.363 16.548,16.363C16.548,16.364 16.548,16.364 16.548,16.364C16.548,16.364 16.548,16.365 16.548,16.365C16.548,16.365 16.548,16.366 16.548,16.367C16.548,16.367 16.548,16.367 16.548,16.368C16.548,16.368 16.547,16.369 16.547,16.369C16.547,16.369 16.547,16.37 16.547,16.37C16.547,16.37 16.546,16.371 16.546,16.372C16.518,16.415 16.328,16.431 16.328,16.431C16.328,16.431 16.319,16.346 16.314,16.319L16.314,16.319ZM16.755,16.567C16.797,16.566 16.827,16.571 16.834,16.583C16.838,16.591 16.831,16.603 16.81,16.62C16.655,16.747 16.315,16.772 16.315,16.772L16.315,16.632C16.315,16.632 16.316,16.632 16.316,16.632C16.335,16.63 16.614,16.57 16.755,16.567L16.755,16.567ZM17.187,16.697C17.241,16.695 17.264,16.704 17.271,16.716C17.272,16.717 17.272,16.719 17.273,16.72C17.273,16.722 17.274,16.725 17.273,16.727C17.272,16.743 17.254,16.762 17.241,16.775C17.188,16.824 16.343,17.091 16.343,17.091C16.343,17.091 16.337,16.914 16.34,16.899C16.834,16.75 17.076,16.701 17.187,16.697L17.187,16.697ZM16.641,17.197C16.694,17.195 16.736,17.198 16.749,17.21C16.75,17.211 16.751,17.213 16.751,17.213C16.752,17.214 16.752,17.215 16.752,17.216C16.752,17.216 16.752,17.218 16.752,17.218C16.752,17.219 16.753,17.221 16.752,17.222C16.752,17.225 16.75,17.228 16.748,17.23C16.676,17.301 16.325,17.311 16.325,17.311L16.325,17.224C16.391,17.222 16.538,17.2 16.641,17.197L16.641,17.197ZM16.992,17.34C17.009,17.34 17.019,17.343 17.021,17.348C17.021,17.348 17.021,17.349 17.021,17.349C17.02,17.353 17.015,17.36 17.004,17.367C16.864,17.466 16.337,17.568 16.337,17.568C16.337,17.568 16.344,17.498 16.347,17.482C16.361,17.482 16.866,17.343 16.992,17.34L16.992,17.34ZM17.288,17.45C17.35,17.45 17.397,17.459 17.424,17.479C17.425,17.479 17.425,17.479 17.425,17.479C17.425,17.479 17.425,17.479 17.425,17.479C17.425,17.479 17.425,17.48 17.425,17.48C17.425,17.48 17.425,17.481 17.425,17.482C17.423,17.501 17.383,17.591 17.244,17.63C17.071,17.615 16.336,17.831 16.322,17.834C16.322,17.834 16.321,17.834 16.321,17.834C16.321,17.834 16.321,17.833 16.321,17.833C16.32,17.819 16.331,17.744 16.331,17.744C16.584,17.594 17.044,17.453 17.288,17.45L17.288,17.45ZM15.406,17.875C15.408,17.875 15.409,17.875 15.411,17.875C15.729,17.909 15.848,18.027 15.881,18.075C15.818,18.185 15.316,17.937 15.368,17.884C15.374,17.879 15.387,17.875 15.406,17.875L15.406,17.875ZM17.228,17.895C17.241,17.895 17.252,17.898 17.26,17.903C17.264,17.905 17.267,17.908 17.269,17.912C17.272,17.916 17.274,17.923 17.275,17.931C17.242,17.982 17.07,17.96 17.059,17.958C17.068,17.955 17.167,17.898 17.228,17.895L17.228,17.895ZM16.547,18.239C16.571,18.238 16.59,18.241 16.601,18.247C16.603,18.248 16.604,18.25 16.605,18.251C16.606,18.251 16.607,18.252 16.607,18.252C16.607,18.253 16.608,18.254 16.608,18.255C16.609,18.255 16.609,18.256 16.609,18.257C16.611,18.263 16.611,18.271 16.605,18.281C16.555,18.374 16.337,18.34 16.337,18.34L16.337,18.275C16.337,18.275 16.338,18.275 16.338,18.275C16.35,18.276 16.47,18.242 16.547,18.239L16.547,18.239ZM15.261,18.484C15.328,18.481 15.387,18.525 15.448,18.56C15.585,18.532 15.867,18.582 15.867,18.582L15.867,18.705C15.867,18.705 15.866,18.706 15.866,18.706C15.866,18.706 15.865,18.706 15.865,18.706C15.84,18.711 15.51,18.696 15.436,18.65C15.376,18.65 15.206,18.561 15.193,18.515C15.193,18.514 15.192,18.514 15.192,18.513C15.192,18.513 15.192,18.511 15.192,18.511C15.192,18.51 15.192,18.51 15.192,18.509C15.192,18.509 15.192,18.508 15.192,18.508C15.192,18.507 15.192,18.507 15.192,18.507C15.192,18.507 15.193,18.506 15.193,18.505C15.193,18.505 15.193,18.505 15.193,18.504C15.216,18.492 15.239,18.485 15.261,18.484L15.261,18.484ZM16.703,18.545C16.755,18.543 16.776,18.558 16.736,18.615C16.624,18.773 16.334,18.708 16.334,18.708L16.322,18.61C16.424,18.614 16.611,18.55 16.703,18.545L16.703,18.545ZM15.619,18.866C15.736,18.86 15.864,18.907 15.864,18.907C15.867,18.913 15.927,19.031 15.873,19.07C15.871,19.071 15.869,19.073 15.867,19.074C15.801,19.108 15.488,19.047 15.47,18.922C15.507,18.884 15.561,18.869 15.619,18.866L15.619,18.866ZM14.409,18.927C14.517,18.921 14.636,18.986 14.65,18.993C14.65,18.993 14.651,18.993 14.651,18.993C14.651,18.997 14.647,19.112 14.647,19.112C14.647,19.112 14.434,19.053 14.367,18.934C14.381,18.931 14.395,18.928 14.409,18.927L14.409,18.927ZM16.453,18.943C16.572,18.942 16.717,18.97 16.738,19.011C16.742,19.019 16.741,19.028 16.733,19.037C16.674,19.108 16.337,19.043 16.337,19.043L16.337,18.957C16.367,18.948 16.408,18.943 16.453,18.943L16.453,18.943Z" fill="#01773f" />
</svg>
