<svg width="32" height="32" viewBox="0 0 32 32" xmlns="http://www.w3.org/2000/svg">
  <polygon fill="#072975" points="16,6 30,6 30,26 2,26 2,16" />
  <polygon fill="#072975" points="4.1,6 7.25,6 9,7 10.75,6 13.9,6 16,7.5 16,9.25 15,11 16,12.75 16,14.5 13.9,16 10.75,16 9,15 7.25,16 4.1,16 2,14.5 2,12.75 3,11 2,9.25 2,7.5" />
  <polygon fill="#F4F4F4" points="16,6 15.3,6.25 14.6,6 13.9,6 10.75,8.25 10.75,6 10,6 9,6.5 8,6 7.25,6 7.25,8.25 4.1,6 2,6 2.25,6.5 2,7 2,7.5 4.45,9.25 2,9.25 2,10 2.5,11 2,12 2,12.75 4.45,12.75 2,14.5 2,16 2.7,15.75 3.4,16 4.1,16 7.25,13.75 7.25,16 8,16 9,15.5 10,16 10.75,16 10.75,13.75 13.9,16 16,16 15.75,15.5 16,15 16,14.5 13.55,12.75 16,12.75 16,12 15.5,11 16,10 16,9.25 13.55,9.25 16,7.5" />
  <path fill="#CF0828" d="M7.25,12.75h-0.7L2,16h1.4l3.85-2.75V12.75z M11.45,12.75L16,16v-1l-3.15-2.25H11.45z M10.75,9.25h0.7L16,6h-1.4l-3.85,2.75V9.25z M5.15,9.25L2,7V6l4.55,3.25H5.15z M16,12h-6v4H8v-4H2v-2h6V6h2v4h6V12z" />
  <path d="M22.5,9.425L23.082,9.425L23.5,8.14L23.918,9.425L25.269,9.425L24.176,10.22L24.594,11.505L23.5,10.711L22.406,11.505L22.824,10.22L21.731,9.425L22.5,9.425ZM26.628,12.923C26.628,12.923 27.083,12.923 27.083,12.923L27.461,11.758C27.461,11.758 27.839,12.923 27.839,12.923L29.064,12.923C29.064,12.923 28.073,13.642 28.073,13.642L28.452,14.807C28.452,14.807 27.461,14.087 27.461,14.087L26.471,14.807C26.471,14.807 26.849,13.642 26.849,13.642L25.858,12.923L26.628,12.923ZM17.879,14.075L18.461,14.075L18.879,12.789L19.296,14.075L20.648,14.075L19.555,14.869L19.972,16.155L18.879,15.36L17.785,16.155L18.203,14.869L17.109,14.075L17.879,14.075ZM22.333,21.371L23.043,21.371L23.5,19.964L23.957,21.371L25.436,21.371L24.24,22.24L24.697,23.647L23.5,22.778L22.303,23.647L22.76,22.24L21.564,21.371L22.333,21.371Z" fill="#f4f4f4" />
  <path d="M22.5,9.675L23.264,9.675L23.5,8.949L23.736,9.675L24.5,9.675L23.882,10.124L24.118,10.851L23.5,10.402L22.882,10.851L23.118,10.124L22.5,9.675ZM26.628,13.173L27.264,13.173L27.461,12.567L27.658,13.173L28.294,13.173L27.779,13.547L27.976,14.152L27.461,13.778L26.946,14.152L27.143,13.547L26.628,13.173ZM17.879,14.325L18.643,14.325L18.879,13.598L19.115,14.325L19.879,14.325L19.261,14.774L19.497,15.5L18.879,15.051L18.261,15.5L18.497,14.774L17.879,14.325ZM22.333,21.621L23.225,21.621L23.5,20.773L23.775,21.621L24.667,21.621L23.946,22.145L24.221,22.992L23.5,22.469L22.779,22.992L23.054,22.145L22.333,21.621Z" fill="#cf0828" />
</svg>
