<svg width="32" height="32" viewBox="0 0 32 32" xmlns="http://www.w3.org/2000/svg">
  <polygon fill="#CF0828" points="2,11 3,10 29,10 30,11 30,21 29,22 3,22 2,21" />
  <rect fill="#0b338d" x="2" y="6" width="28" height="5" />
  <rect fill="#0b338d" x="2" y="21" width="28" height="5" />
  <path fill="#f4f4f4" d="M22.073,19.297L22.073,18.69L21.708,18.69L21.708,18.083L21.374,18.083L21.374,17.689L21.222,17.689L21.222,17.385L20.927,17.385L20.767,17.156L20.767,16.079L20.949,15.897L20.949,14.895L20.797,15.032L20.797,14.713L20.675,14.713L20.675,14.865L20.434,14.865L20.434,14.378L20.145,14.636L20.236,14.31L20.069,13.559L19.977,13.559C19.977,13.559 19.902,13.24 19.75,13.24C19.75,13.24 19.811,13.043 19.689,13.043C19.567,13.043 19.597,13.195 19.597,13.195C19.597,13.195 19.385,13.286 19.385,13.513L19.264,13.498L19.082,14.378L19.21,14.636L18.914,14.378L18.914,15.046L17.306,15.046L17.306,14.439L17.214,14.53L17.214,14.743L17.002,14.743L17.002,14.53L17.154,14.393L17.154,14.105L17.032,14.234L16.85,13.984L16.85,13.771L16.744,13.876L16.713,13.695L16.865,13.452L16.842,13.255L16.668,13.467L16.668,13.285L16.745,13.118L16.395,12.237L16.312,11.994L16.183,11.979L16.183,11.857C16.183,11.857 16.092,11.645 15.97,11.645C15.849,11.645 15.758,11.857 15.758,11.857L15.758,11.979L15.63,11.994L15.546,12.237L15.197,13.118L15.273,13.285L15.273,13.467L15.099,13.255L15.075,13.452L15.227,13.695L15.198,13.876L15.091,13.771L15.091,13.984L14.909,14.234L14.788,14.105L14.788,14.393L14.94,14.53L14.94,14.743L14.728,14.743L14.728,14.53L14.636,14.439L14.636,15.046L13.025,15.046L13.025,14.378L12.728,14.636L12.857,14.378L12.675,13.498L12.553,13.513C12.553,13.286 12.341,13.195 12.341,13.195C12.341,13.195 12.371,13.043 12.249,13.043C12.128,13.043 12.188,13.24 12.188,13.24C12.036,13.24 11.961,13.559 11.961,13.559L11.87,13.559L11.703,14.31L11.794,14.636L11.506,14.378L11.506,14.864L11.263,14.864L11.263,14.712L11.141,14.712L11.141,15.031L10.99,14.894L10.99,15.896L11.171,16.078L11.171,17.155L11.01,17.384L10.776,17.384L10.776,17.688L10.565,17.688L10.565,18.082L10.261,18.082L10.261,18.689L9.927,18.689L9.927,19.296L9.593,19.296L9.562,19.963L22.376,19.963L22.407,19.296L22.073,19.296L22.073,19.297Z" />
  <path fill="#CF082880" d="M11.689,15.912L11.689,17.08L11.142,17.08L11.011,17.335L11.689,17.335L11.689,19.965L11.919,19.965L11.919,15.912L11.689,15.912ZM20.932,17.335L20.813,17.08L20.317,17.08L20.317,15.912L20.09,15.912L20.09,19.965L20.317,19.965L20.317,17.335L20.932,17.335ZM15.398,15.912L15.398,17.08L12.912,17.08L12.912,15.905L12.69,15.905L12.69,19.958L12.912,19.958L12.912,17.335L15.398,17.335L15.398,19.965L15.635,19.965L15.635,15.912L15.398,15.912ZM19.037,15.912L19.037,17.08L16.614,17.08L16.614,15.912L16.379,15.912L16.379,19.965L16.614,19.965L16.614,17.335L19.037,17.335L19.037,19.965L19.324,19.965L19.324,15.912L19.037,15.912Z" />
</svg>
