<svg width="32" height="32" viewBox="0 0 32 32" xmlns="http://www.w3.org/2000/svg">
  <polygon fill="#072975" points="16,6 30,6 30,26 2,26 2,16" />
  <polygon fill="#072975" points="4.1,6 7.25,6 9,7 10.75,6 13.9,6 16,7.5 16,9.25 15,11 16,12.75 16,14.5 13.9,16 10.75,16 9,15 7.25,16 4.1,16 2,14.5 2,12.75 3,11 2,9.25 2,7.5" />
  <polygon fill="#F4F4F4" points="16,6 15.3,6.25 14.6,6 13.9,6 10.75,8.25 10.75,6 10,6 9,6.5 8,6 7.25,6 7.25,8.25 4.1,6 2,6 2.25,6.5 2,7 2,7.5 4.45,9.25 2,9.25 2,10 2.5,11 2,12 2,12.75 4.45,12.75 2,14.5 2,16 2.7,15.75 3.4,16 4.1,16 7.25,13.75 7.25,16 8,16 9,15.5 10,16 10.75,16 10.75,13.75 13.9,16 16,16 15.75,15.5 16,15 16,14.5 13.55,12.75 16,12.75 16,12 15.5,11 16,10 16,9.25 13.55,9.25 16,7.5" />
  <path fill="#CF0828" d="M7.25,12.75h-0.7L2,16h1.4l3.85-2.75V12.75z M11.45,12.75L16,16v-1l-3.15-2.25H11.45z M10.75,9.25h0.7L16,6h-1.4l-3.85,2.75V9.25z M5.15,9.25L2,7V6l4.55,3.25H5.15z M16,12h-6v4H8v-4H2v-2h6V6h2v4h6V12z" />
  <path d="M28.038,19.572C27.822,19.431 27.505,19.128 27.449,19.039C27.232,18.678 26.984,18.604 26.813,18.604C26.792,18.604 26.768,18.608 26.745,18.61C26.826,18.474 26.879,18.339 26.879,18.212L26.879,11.113L19.122,11.113L19.122,18.212C19.122,18.339 19.175,18.473 19.257,18.61C19.233,18.607 19.209,18.604 19.188,18.604C19.018,18.604 18.769,18.679 18.552,19.039C18.498,19.128 18.18,19.432 17.963,19.572C17.785,19.687 17.681,19.872 17.668,20.089C17.65,20.396 17.826,20.752 18.118,20.995C18.238,21.095 18.38,21.147 18.528,21.147C18.728,21.147 18.899,21.055 19.034,20.945C20.312,22.001 21.613,22.515 23,22.515C24.387,22.515 25.688,22.001 26.966,20.945C27.101,21.055 27.272,21.147 27.472,21.147C27.62,21.147 27.762,21.095 27.882,20.995C28.174,20.752 28.35,20.397 28.332,20.089C28.321,19.871 28.215,19.687 28.038,19.572Z" fill="#f4f4f4" />
  <path d="M23.001,20.644C21.285,19.878 19.507,18.744 19.507,18.212L19.507,11.497L26.495,11.497L26.495,18.212C26.495,18.745 24.716,19.879 23.001,20.644Z" fill="#00753b" />
  <path d="M21.586,15.916C21.429,15.977 21.382,15.555 21.586,15.255C21.791,14.955 22.392,14.342 22.524,13.777C22.656,13.212 22.889,13.296 23.001,13.14C23.113,12.984 23.129,12.803 23.001,12.768C22.872,12.732 22.692,12.684 22.812,12.215C22.932,11.746 23.449,11.794 23.449,12.118C23.449,12.443 23.329,12.732 23.449,12.984C23.569,13.236 23.846,13.176 24.014,13.657C24.182,14.138 24.242,14.606 24.134,14.811C24.025,15.015 23.965,15.796 23.822,16.001C23.678,16.205 23.485,16.121 23.521,15.748C23.557,15.376 23.797,14.871 23.869,14.607C23.942,14.342 23.761,13.802 23.497,13.742C23.232,13.682 22.752,14.295 22.535,14.547C22.319,14.799 21.85,14.992 21.826,15.196C21.802,15.399 21.742,15.855 21.586,15.916Z" fill="#ffd7c2" />
  <path d="M24.423,18.981C24.147,19.041 23.534,19.269 23.197,19.185C22.86,19.102 22.259,19.318 22.175,19.204C22.092,19.089 22.259,18.465 22.284,18.176C22.308,17.888 22.344,17.599 22.296,17.599C22.248,17.599 22.045,17.599 22.152,17.082C22.26,16.565 22.44,15.616 22.44,15.616C22.44,15.616 22.26,15.544 22.368,15.255C22.476,14.967 22.608,14.282 22.572,14.125C22.537,13.969 22.272,14.017 22.368,13.777C22.464,13.537 22.536,13.488 22.608,13.308C22.68,13.128 22.828,12.986 22.932,13.032C23.037,13.078 23.155,13.212 23.272,13.141C23.388,13.068 23.401,12.961 23.557,12.972C23.713,12.985 24.048,13.298 23.978,13.369C23.908,13.44 23.781,13.685 23.759,13.99C23.738,14.295 23.545,15.04 23.485,15.281C23.425,15.522 23.69,16.098 23.834,16.639C23.978,17.178 24.423,18.981 24.423,18.981Z" fill="#f4f4f4" />
  <path d="M22.82,11.868C22.89,11.682 23.233,11.528 23.522,11.757C23.81,11.985 23.93,12.406 23.726,12.658C23.522,12.911 23.403,12.851 23.325,12.658C23.245,12.466 23.33,12.294 23.222,12.236C23.113,12.178 23.209,12.01 23.113,11.974C23.017,11.938 22.719,12.135 22.82,11.868Z" fill="#b76a1e" />
  <path d="M20.075,11.757L20.132,11.937C20.072,12.033 20.264,12.008 20.216,12.093C20.154,12.202 20.177,12.338 20.082,12.362C19.988,12.386 20,12.239 19.952,12.082C19.904,11.926 20.027,11.703 20.075,11.757ZM20.075,12.978L20.132,13.159C20.072,13.255 20.264,13.231 20.216,13.315C20.154,13.424 20.177,13.561 20.082,13.585C19.988,13.608 20.001,13.46 19.952,13.304C19.904,13.148 20.027,12.925 20.075,12.978ZM20.075,14.337L20.132,14.517C20.072,14.613 20.264,14.588 20.216,14.673C20.154,14.782 20.177,14.918 20.082,14.942C19.988,14.966 20.001,14.818 19.952,14.662C19.904,14.506 20.027,14.283 20.075,14.337ZM20.845,15.659L20.902,15.839C20.841,15.935 21.033,15.911 20.985,15.995C20.923,16.105 20.946,16.241 20.852,16.265C20.757,16.288 20.77,16.141 20.722,15.985C20.673,15.828 20.796,15.605 20.845,15.659ZM20.031,16.736L20.088,16.916C20.027,17.012 20.219,16.988 20.172,17.072C20.109,17.182 20.132,17.318 20.038,17.342C19.943,17.366 19.955,17.218 19.908,17.062C19.859,16.905 19.982,16.682 20.031,16.736ZM20.031,18.022L20.088,18.202C20.027,18.298 20.219,18.275 20.172,18.358C20.109,18.468 20.132,18.605 20.038,18.628C19.943,18.652 19.955,18.505 19.908,18.348C19.859,18.192 19.982,17.968 20.031,18.022ZM24.619,18.022L24.676,18.202C24.615,18.298 24.808,18.275 24.76,18.358C24.698,18.468 24.721,18.605 24.626,18.628C24.532,18.652 24.544,18.505 24.496,18.348C24.448,18.192 24.571,17.968 24.619,18.022ZM24.619,16.815L24.676,16.995C24.615,17.091 24.808,17.067 24.76,17.151C24.698,17.26 24.721,17.397 24.626,17.42C24.532,17.445 24.544,17.297 24.496,17.141C24.448,16.984 24.571,16.761 24.619,16.815ZM24.619,15.578L24.676,15.758C24.615,15.855 24.808,15.831 24.76,15.915C24.698,16.024 24.721,16.161 24.626,16.184C24.532,16.208 24.544,16.061 24.496,15.905C24.448,15.748 24.571,15.525 24.619,15.578ZM24.619,14.337L24.676,14.517C24.615,14.613 24.808,14.589 24.76,14.673C24.698,14.782 24.721,14.919 24.626,14.942C24.532,14.967 24.544,14.819 24.496,14.663C24.448,14.506 24.571,14.283 24.619,14.337ZM24.619,13.057L24.676,13.237C24.615,13.333 24.808,13.309 24.76,13.393C24.698,13.502 24.721,13.639 24.626,13.662C24.532,13.686 24.544,13.539 24.496,13.383C24.448,13.226 24.571,13.003 24.619,13.057ZM24.619,11.757L24.676,11.937C24.615,12.033 24.808,12.009 24.76,12.093C24.698,12.202 24.721,12.339 24.626,12.362C24.532,12.386 24.544,12.239 24.496,12.083C24.448,11.926 24.571,11.703 24.619,11.757Z" fill="#f8312f" />
  <path d="M19.879,12.31L20.516,12.31C20.516,12.31 20.6,12.022 20.732,12.009C20.865,11.997 20.901,12.298 20.901,12.298C20.901,12.298 21.202,12.37 21.333,12.285C21.465,12.201 21.79,12.298 21.538,12.442C21.285,12.586 21.429,12.285 21.285,12.442C21.142,12.598 21.009,12.658 21.033,12.718C21.057,12.778 20.958,12.825 20.755,12.825C20.552,12.825 20.421,12.778 20.445,12.682C20.468,12.586 20.312,12.55 20.132,12.514C19.952,12.478 19.879,12.31 19.879,12.31ZM19.879,13.532L20.516,13.532C20.516,13.532 20.6,13.243 20.732,13.231C20.865,13.218 20.901,13.519 20.901,13.519C20.901,13.519 21.202,13.592 21.333,13.507C21.465,13.423 21.79,13.519 21.538,13.663C21.285,13.808 21.429,13.507 21.285,13.663C21.142,13.819 21.009,13.879 21.033,13.939C21.057,13.999 20.958,14.047 20.755,14.047C20.552,14.047 20.421,14 20.445,13.904C20.468,13.808 20.312,13.772 20.132,13.735C19.952,13.7 19.879,13.532 19.879,13.532ZM19.879,14.89L20.516,14.89C20.516,14.89 20.6,14.602 20.732,14.589C20.865,14.577 20.901,14.878 20.901,14.878C20.901,14.878 21.202,14.95 21.333,14.865C21.465,14.781 21.79,14.878 21.538,15.022C21.285,15.166 21.429,14.865 21.285,15.022C21.142,15.178 21.009,15.238 21.033,15.298C21.057,15.358 20.958,15.405 20.755,15.405C20.552,15.405 20.421,15.358 20.445,15.262C20.468,15.165 20.312,15.129 20.132,15.093C19.952,15.058 19.879,14.89 19.879,14.89ZM20.648,16.212L21.285,16.212C21.285,16.212 21.369,15.923 21.502,15.911C21.634,15.898 21.67,16.199 21.67,16.199C21.67,16.199 21.971,16.272 22.102,16.187C22.235,16.103 22.559,16.199 22.307,16.343C22.055,16.488 22.198,16.187 22.055,16.343C21.91,16.499 21.778,16.559 21.802,16.619C21.826,16.679 21.727,16.727 21.525,16.727C21.322,16.727 21.19,16.679 21.214,16.583C21.238,16.487 21.082,16.451 20.902,16.415C20.722,16.378 20.648,16.212 20.648,16.212ZM19.835,17.289L20.472,17.289C20.472,17.289 20.555,17.001 20.688,16.988C20.82,16.976 20.856,17.277 20.856,17.277C20.856,17.277 21.157,17.349 21.288,17.265C21.421,17.181 21.745,17.277 21.493,17.421C21.241,17.565 21.385,17.265 21.241,17.421C21.096,17.577 20.965,17.637 20.988,17.697C21.012,17.757 20.913,17.805 20.711,17.805C20.508,17.805 20.375,17.757 20.4,17.661C20.424,17.565 20.268,17.528 20.088,17.492C19.908,17.456 19.835,17.289 19.835,17.289ZM19.835,18.575L20.472,18.575C20.472,18.575 20.555,18.287 20.688,18.275C20.82,18.262 20.856,18.563 20.856,18.563C20.856,18.563 21.157,18.635 21.288,18.551C21.42,18.466 21.745,18.563 21.493,18.707C21.241,18.852 21.385,18.551 21.241,18.707C21.096,18.863 20.965,18.923 20.988,18.983C21.012,19.043 20.913,19.091 20.711,19.091C20.508,19.091 20.375,19.043 20.4,18.947C20.424,18.851 20.268,18.815 20.088,18.778C19.908,18.742 19.835,18.575 19.835,18.575ZM24.423,18.575L25.06,18.575C25.06,18.575 25.144,18.287 25.276,18.275C25.408,18.262 25.445,18.563 25.445,18.563C25.445,18.563 25.745,18.635 25.877,18.551C26.009,18.467 26.334,18.563 26.082,18.707C25.829,18.851 25.973,18.551 25.829,18.707C25.685,18.863 25.553,18.923 25.577,18.983C25.601,19.043 25.502,19.091 25.299,19.091C25.096,19.091 24.964,19.043 24.988,18.947C25.012,18.851 24.856,18.815 24.676,18.778C24.495,18.743 24.423,18.575 24.423,18.575ZM24.423,17.367L25.06,17.367C25.06,17.367 25.144,17.078 25.276,17.066C25.408,17.054 25.445,17.355 25.445,17.355C25.445,17.355 25.745,17.427 25.877,17.342C26.009,17.258 26.334,17.355 26.082,17.498C25.829,17.642 25.973,17.342 25.829,17.498C25.685,17.655 25.553,17.715 25.577,17.775C25.601,17.835 25.502,17.882 25.299,17.882C25.096,17.882 24.964,17.835 24.988,17.738C25.012,17.642 24.856,17.606 24.676,17.57C24.495,17.535 24.423,17.367 24.423,17.367ZM24.423,16.131L25.06,16.131C25.06,16.131 25.144,15.842 25.276,15.83C25.408,15.818 25.445,16.118 25.445,16.118C25.445,16.118 25.745,16.191 25.877,16.106C26.009,16.022 26.334,16.118 26.082,16.262C25.829,16.406 25.973,16.106 25.829,16.262C25.685,16.418 25.553,16.478 25.577,16.538C25.601,16.598 25.502,16.646 25.299,16.646C25.096,16.646 24.964,16.599 24.988,16.503C25.012,16.407 24.856,16.371 24.676,16.335C24.495,16.299 24.423,16.131 24.423,16.131ZM24.423,14.89L25.06,14.89C25.06,14.89 25.144,14.602 25.276,14.589C25.408,14.577 25.445,14.878 25.445,14.878C25.445,14.878 25.745,14.95 25.877,14.865C26.009,14.782 26.334,14.878 26.082,15.022C25.829,15.165 25.973,14.865 25.829,15.022C25.685,15.178 25.553,15.238 25.577,15.298C25.601,15.358 25.502,15.405 25.299,15.405C25.096,15.405 24.964,15.358 24.988,15.262C25.012,15.165 24.856,15.129 24.676,15.093C24.495,15.058 24.423,14.89 24.423,14.89ZM24.423,13.61L25.06,13.61C25.06,13.61 25.144,13.322 25.276,13.309C25.408,13.297 25.445,13.598 25.445,13.598C25.445,13.598 25.745,13.67 25.877,13.585C26.009,13.502 26.334,13.598 26.082,13.742C25.829,13.885 25.973,13.585 25.829,13.742C25.685,13.898 25.553,13.958 25.577,14.018C25.601,14.078 25.502,14.125 25.299,14.125C25.096,14.125 24.964,14.078 24.988,13.982C25.012,13.885 24.856,13.849 24.676,13.813C24.495,13.778 24.423,13.61 24.423,13.61ZM24.423,12.31L25.06,12.31C25.06,12.31 25.144,12.022 25.276,12.009C25.408,11.997 25.445,12.298 25.445,12.298C25.445,12.298 25.745,12.37 25.877,12.285C26.009,12.202 26.334,12.298 26.082,12.442C25.829,12.585 25.973,12.285 25.829,12.442C25.685,12.598 25.553,12.658 25.577,12.718C25.601,12.778 25.502,12.825 25.299,12.825C25.096,12.825 24.964,12.778 24.988,12.682C25.012,12.586 24.856,12.55 24.676,12.514C24.495,12.478 24.423,12.31 24.423,12.31ZM27.828,19.894C28.069,20.051 27.923,20.458 27.635,20.699C27.346,20.94 26.998,20.411 26.998,20.411C26,21.3 24.702,22.129 22.999,22.129C21.296,22.129 19.998,21.3 19.001,20.411C19.001,20.411 18.652,20.94 18.364,20.699C18.075,20.458 17.931,20.05 18.172,19.894C18.412,19.738 18.785,19.397 18.881,19.237C18.977,19.077 19.169,18.853 19.374,19.092C19.578,19.33 21.205,20.916 23,20.916C24.795,20.916 26.422,19.329 26.626,19.092C26.831,18.853 27.023,19.077 27.119,19.237C27.215,19.397 27.588,19.738 27.828,19.894Z" fill="#f8c600" />
</svg>
