<svg width="32" height="32" viewBox="0 0 32 32" xmlns="http://www.w3.org/2000/svg">
  <polygon fill="#0b338d" points="11.5,6 20.5,6 21.5,7 21.5,25 20.5,26 11.5,26 10.5,25 10.5,7" />
  <rect fill="#CF0828" x="2" y="6" width="9.5" height="20" />
  <rect fill="#CF0828" x="20.5" y="6" width="9.5" height="20" />
  <path d="M3.018,14.756L4.262,14.756L4.262,24.708L3.018,24.708L3.018,14.756ZM4.914,16.622L8.587,16.622L8.587,17.245L4.914,17.245L4.914,16.622ZM9.238,14.756L10.482,14.756L10.482,24.708L9.238,24.708L9.238,14.756ZM4.914,22.219L8.587,22.219L8.587,22.842L4.914,22.842L4.914,22.219ZM4.983,14.756L8.517,14.756L6.75,15.991L4.983,14.756ZM4.914,23.621L8.586,23.621L6.75,24.905L4.914,23.621ZM7.994,11.024C7.994,11.712 7.436,12.267 6.75,12.267C6.064,12.267 5.506,11.711 5.506,11.024C5.506,10.336 6.064,9.78 6.75,9.78C7.436,9.78 7.994,10.336 7.994,11.024ZM7.372,8.691C7.372,9.292 7.094,9.469 6.75,9.469C6.406,9.469 6.128,9.292 6.128,8.691C6.128,8.09 6.555,7.292 6.75,7.292C6.945,7.292 7.372,8.09 7.372,8.691ZM6.75,13.153C5.718,13.153 4.82,12.684 4.309,11.984C4.523,13.141 5.532,14.016 6.75,14.016C7.968,14.016 8.977,13.141 9.192,11.985C8.68,12.684 7.782,13.153 6.75,13.153ZM8.784,19.732C8.784,18.865 8.24,18.131 7.478,17.84C7.715,18.043 7.937,18.194 7.937,18.681C7.937,19.451 7.48,19.865 6.75,19.865L6.75,19.872C6.242,19.891 5.833,20.305 5.833,20.816C5.833,21.327 6.242,21.74 6.75,21.759L6.75,21.766C6.758,21.766 6.764,21.763 6.772,21.763C6.776,21.763 6.779,21.766 6.783,21.766C6.795,21.766 6.805,21.759 6.816,21.759C7.908,21.724 8.784,20.834 8.784,19.732ZM6.456,20.816C6.456,20.635 6.601,20.49 6.783,20.49C6.965,20.49 7.11,20.635 7.11,20.816C7.11,20.997 6.965,21.144 6.783,21.144C6.601,21.144 6.456,20.997 6.456,20.816ZM6.75,17.704L6.75,17.699L6.733,17.7L6.725,17.699C6.717,17.699 6.71,17.704 6.701,17.704C5.601,17.731 4.716,18.624 4.716,19.732C4.716,20.6 5.26,21.333 6.022,21.625C5.785,21.421 5.581,21.27 5.581,20.834C5.581,20.058 5.996,19.629 6.713,19.629L6.714,19.615C6.718,19.615 6.722,19.617 6.725,19.617C7.254,19.617 7.684,19.185 7.684,18.658C7.684,18.136 7.267,17.717 6.75,17.704ZM6.725,18.986C6.543,18.986 6.395,18.837 6.395,18.656C6.395,18.475 6.542,18.324 6.725,18.324C6.909,18.324 7.056,18.474 7.056,18.656C7.055,18.837 6.908,18.986 6.725,18.986Z" fill="#FCD53F" />
</svg>
