<svg width="32" height="32" viewBox="0 0 32 32" xmlns="http://www.w3.org/2000/svg">
  <polygon fill="#008E48" points="2,6 30,6 30,12.75 29,13.75 6,13.75" />
  <polygon fill="#008E48" points="2,26 30,26 30,19.25 29,18.25 6,18.25" />
  <rect fill="#FDBB11" x="6" y="12.75" width="24" height="6.5" />
  <polygon fill="#F8312F" points="2,6 12,16 2,26" />
  <path fill="#1c1c1c" d="M15.75,17.815L16.228,16.346L14.978,15.438L16.523,15.438L17,13.969L17.477,15.438L19.022,15.438L17.773,16.346L18.25,17.815L17,16.907L15.75,17.815ZM22.75,17.815L23.228,16.346L21.978,15.438L23.523,15.438L24,13.969L24.477,15.438L26.022,15.438L24.773,16.346L25.25,17.815L24,16.907L22.75,17.815Z" />
</svg>
