<svg width="32" height="32" viewBox="0 0 32 32" xmlns="http://www.w3.org/2000/svg">
  <polygon fill="#f4f4f4" points="11.5,6 20.5,6 21.5,7 21.5,25 20.5,26 11.5,26 10.5,25 10.5,7" />
  <rect fill="#007356" x="2" y="6" width="9.5" height="20" />
  <rect fill="#CF0828" x="20.5" y="6" width="9.5" height="20" />
  <ellipse cx="16" cy="17.929" rx="1.929" ry="0.643" fill="#46A4FB" />
  <ellipse cx="16.321" cy="17.929" rx="0.964" ry="0.643" fill="#FFC83D" />
  <path d="M19.214,16C19.214,17.776 17.776,19.214 16,19.214C14.225,19.214 12.786,17.776 12.786,16L12.143,16C12.143,18.13 13.87,19.857 16,19.857C18.13,19.857 19.857,18.13 19.857,16L19.214,16Z" fill="#BFCC82" />
  <path d="M13.135,17.459C13.215,17.617 13.31,17.77 13.411,17.915C13.517,18.057 13.488,18.259 13.345,18.364C13.292,18.405 13.229,18.425 13.168,18.428C13.065,18.432 12.962,18.388 12.897,18.299C12.861,18.251 12.827,18.203 12.793,18.154L12.752,18.083C12.683,17.976 12.619,17.865 12.561,17.751C12.481,17.593 12.543,17.399 12.702,17.319C12.744,17.297 12.79,17.286 12.834,17.284C12.956,17.279 13.076,17.343 13.135,17.459ZM12.815,16.442C12.84,16.618 12.718,16.78 12.537,16.806C12.527,16.808 12.517,16.809 12.507,16.809C12.343,16.816 12.199,16.698 12.176,16.533C12.162,16.431 12.152,16.329 12.146,16.226L12.143,16.088C12.142,16.021 12.142,15.955 12.144,15.888C12.148,15.718 12.284,15.583 12.451,15.576L12.474,15.576C12.651,15.581 12.791,15.729 12.786,15.906C12.784,15.982 12.784,16.058 12.788,16.135C12.792,16.239 12.802,16.341 12.815,16.442ZM16.219,19.206C16.393,19.199 16.545,19.335 16.549,19.51C16.561,19.684 16.431,19.834 16.258,19.848C16.231,19.849 16.203,19.852 16.176,19.853L16.044,19.857C15.945,19.858 15.846,19.855 15.749,19.849L15.614,19.838C15.438,19.82 15.31,19.662 15.327,19.486C15.343,19.325 15.475,19.203 15.633,19.197C15.648,19.196 15.663,19.196 15.679,19.198C15.828,19.214 15.983,19.218 16.135,19.212L16.215,19.207L16.219,19.206ZM14.651,18.918C14.811,18.992 14.881,19.184 14.805,19.345C14.753,19.459 14.644,19.526 14.527,19.531C14.477,19.533 14.426,19.524 14.379,19.502C14.19,19.414 14.008,19.312 13.837,19.196L13.822,19.184C13.675,19.084 13.638,18.883 13.738,18.737C13.798,18.649 13.893,18.602 13.99,18.598C14.057,18.595 14.126,18.613 14.185,18.654C14.332,18.754 14.489,18.843 14.651,18.918ZM17.884,18.662C17.995,18.658 18.104,18.711 18.178,18.807C18.274,18.956 18.229,19.154 18.08,19.25C18.04,19.276 17.999,19.302 17.958,19.325C17.906,19.356 17.829,19.399 17.767,19.431C17.708,19.461 17.632,19.496 17.588,19.516C17.559,19.53 17.501,19.555 17.501,19.555C17.464,19.569 17.428,19.578 17.39,19.579C17.261,19.584 17.135,19.51 17.081,19.383C17.012,19.219 17.089,19.03 17.253,18.962C17.416,18.893 17.575,18.809 17.725,18.714C17.774,18.681 17.83,18.665 17.884,18.662ZM19.537,15.693C19.714,15.694 19.857,15.839 19.857,16.014C19.857,16.121 19.852,16.23 19.844,16.333C19.835,16.432 19.819,16.546 19.806,16.629L19.802,16.655C19.776,16.808 19.646,16.917 19.498,16.923C19.475,16.924 19.453,16.922 19.43,16.918C19.255,16.888 19.137,16.721 19.167,16.547C19.198,16.372 19.214,16.192 19.214,16.014C19.214,15.841 19.351,15.701 19.522,15.694L19.537,15.693ZM19.252,17.426C19.408,17.513 19.463,17.708 19.38,17.858L19.363,17.889C19.363,17.889 19.343,17.925 19.332,17.943C19.321,17.961 19.306,17.986 19.3,17.997C19.297,18.002 19.295,18.006 19.292,18.01C19.281,18.028 19.254,18.074 19.233,18.105C19.188,18.169 19.095,18.303 19.021,18.397C18.96,18.473 18.873,18.514 18.783,18.518C18.708,18.521 18.633,18.499 18.569,18.449C18.431,18.339 18.407,18.137 18.517,17.997C18.629,17.858 18.729,17.708 18.815,17.552C18.872,17.451 18.975,17.391 19.083,17.387C19.14,17.384 19.198,17.397 19.252,17.426ZM16.718,18.105C16.666,18.105 16.613,18.092 16.564,18.066C16.408,17.981 16.35,17.785 16.435,17.63C16.538,17.441 16.646,17.269 16.758,17.119C16.669,17.122 16.576,17.124 16.481,17.124C16.304,17.124 16.142,16.98 16.142,16.802C16.142,16.625 16.267,16.481 16.446,16.481L16.498,16.482C16.689,16.482 16.884,16.47 17.059,16.454C17.16,16.443 17.257,16.484 17.322,16.554C17.331,16.547 17.34,16.54 17.35,16.534C17.414,16.492 17.474,16.458 17.53,16.431C17.568,16.401 17.614,16.38 17.666,16.37L17.689,16.366C17.81,16.327 17.895,16.321 17.929,16.321C18.031,16.321 18.127,16.37 18.187,16.452C18.247,16.534 18.265,16.64 18.235,16.737C18.182,16.908 18.065,16.947 17.859,16.988C17.82,17.003 17.767,17.029 17.706,17.07C17.585,17.149 17.428,17.137 17.32,17.048C17.409,17.162 17.412,17.326 17.319,17.443C17.21,17.583 17.103,17.749 17,17.937C16.942,18.044 16.832,18.105 16.718,18.105ZM15.805,17.083C15.792,17.083 15.777,17.083 15.763,17.081C15.522,17.049 15.294,17.001 15.084,16.939C14.914,16.888 14.817,16.709 14.867,16.539L14.871,16.526L14.863,16.541C14.777,16.696 14.581,16.752 14.426,16.664C14.207,16.542 14.011,16.395 13.843,16.226C13.717,16.101 13.717,15.897 13.843,15.772C13.968,15.646 14.172,15.646 14.297,15.772C14.424,15.898 14.572,16.01 14.739,16.103C14.877,16.18 14.936,16.343 14.887,16.487C14.954,16.35 15.114,16.277 15.266,16.322C15.443,16.375 15.638,16.415 15.844,16.443C16.021,16.466 16.145,16.627 16.121,16.804C16.103,16.966 15.964,17.083 15.805,17.083ZM14.229,15.58C13.955,15.58 13.601,15.474 13.386,15.22C13.057,14.832 12.864,14.334 12.893,13.952C12.901,13.85 12.801,13.767 12.703,13.742C12.648,13.727 12.549,13.718 12.503,13.818C12.465,13.899 12.37,13.933 12.289,13.896C12.209,13.859 12.174,13.763 12.211,13.683C12.311,13.465 12.536,13.368 12.784,13.431C13.015,13.49 13.235,13.697 13.213,13.977C13.19,14.274 13.359,14.69 13.631,15.012C13.774,15.182 14.024,15.25 14.194,15.257C14.332,15.264 14.402,15.232 14.417,15.219C14.381,15.133 13.904,14.883 13.701,14.776C13.528,14.685 13.477,14.561 13.464,14.473C13.421,14.18 13.721,13.884 14.012,13.598C14.114,13.497 14.211,13.402 14.264,13.332C14.323,13.253 14.314,13.2 14.302,13.168C14.258,13.047 14.066,12.928 13.834,12.877C13.62,12.829 13.476,12.726 13.405,12.569C13.312,12.363 13.361,12.093 13.555,11.743C13.598,11.665 13.697,11.638 13.774,11.681C13.852,11.724 13.879,11.821 13.836,11.899C13.653,12.228 13.671,12.378 13.698,12.437C13.725,12.496 13.794,12.538 13.904,12.563C14.176,12.623 14.503,12.784 14.603,13.056C14.66,13.211 14.631,13.378 14.521,13.525C14.454,13.614 14.349,13.718 14.237,13.828C14.071,13.991 13.762,14.295 13.782,14.426C13.786,14.453 13.821,14.477 13.851,14.492C14.334,14.745 14.655,14.928 14.72,15.153C14.743,15.232 14.734,15.312 14.693,15.384C14.631,15.492 14.501,15.559 14.317,15.576C14.289,15.578 14.259,15.58 14.229,15.58Z" fill="#608842" />
  <path d="M16.964,15.357C17.142,15.357 17.286,15.645 17.286,16C17.286,16.355 17.142,16.643 16.964,16.643C16.787,16.643 16.643,16.355 16.643,16C16.643,15.645 16.787,15.357 16.964,15.357ZM15.545,15.478C15.545,15.663 15.323,15.813 15.049,15.813C14.776,15.813 14.554,15.663 14.554,15.478C14.554,15.293 14.775,15.143 15.049,15.143C15.322,15.143 15.545,15.293 15.545,15.478ZM14.782,12.503C14.814,12.64 14.636,12.799 14.384,12.859C14.132,12.919 13.902,12.856 13.869,12.72C13.837,12.583 14.015,12.424 14.266,12.364C14.519,12.305 14.75,12.367 14.782,12.503Z" fill="#FFC83D" />
  <path d="M18.914,15.971C18.972,16.016 19.07,15.502 19.056,15.342C19.056,15.331 19.037,14.991 19.109,14.748C19.153,14.666 19.156,14.052 19.088,13.891C19.142,13.886 19.207,13.869 19.214,13.803C18.965,13.895 18.906,13.278 18.667,12.923C18.434,12.568 18.145,12.361 17.844,12.145C17.866,12.084 17.902,12.028 17.948,11.971C17.578,12.156 17.002,11.486 16.151,11.536C15.96,11.555 15.869,11.566 15.821,11.683C15.662,11.696 15.5,11.732 15.5,11.941C15.5,11.991 15.546,12.082 15.648,12.083C15.787,12.124 15.9,12.092 15.994,12.286L16.019,12.487C16.019,12.487 15.895,12.328 15.827,12.303L15.869,12.217C15.805,12.18 15.691,12.21 15.691,12.21C15.691,12.21 15.443,12.095 15.245,12.126L15.206,11.965C15.171,12.064 15.094,12.059 15.083,12.152C15.061,12.085 15.032,12.002 15.011,11.935C14.941,12.03 14.962,12.133 14.937,12.232C14.91,12.255 14.854,12.256 14.84,12.192C14.833,12.114 14.824,12.107 14.824,12.014C14.773,12.102 14.713,12.145 14.693,12.296L14.64,12.129C14.642,12.326 14.472,12.444 14.311,12.583C14.266,12.667 14.318,12.667 14.322,12.711L14.407,12.753L14.559,12.742C14.584,12.774 14.564,12.776 14.63,12.796C14.807,12.846 15.029,12.633 15.202,12.968C15.122,13.035 15.042,13.191 15.068,13.22C15.1,13.22 15.004,13.265 15.133,13.224C14.998,13.355 14.907,13.528 14.907,13.539C14.892,13.576 14.961,13.533 14.947,13.601L14.979,13.597C14.671,13.93 14.969,14.288 14.936,14.48C14.987,14.563 14.994,14.478 15.058,14.47C15.112,14.707 15.268,14.85 15.363,15.037L15.162,15.039C15.167,15.128 15.247,15.212 15.311,15.29L15.177,15.332C15.081,15.381 15.018,15.433 14.95,15.508C14.906,15.616 15.164,15.642 15.289,15.661L15.285,15.792C15.479,15.81 15.704,15.753 15.704,15.742L15.753,15.704L15.863,15.764C15.9,15.764 15.957,15.618 15.931,15.505C16.001,15.589 16.068,15.725 16.139,15.81L16.205,15.801C16.266,15.897 16.348,15.992 16.409,16.087L16.476,16.113C16.516,16.1 16.549,16.095 16.57,16.018L16.601,16.072L16.708,15.999L16.782,15.984L16.838,16.075C16.871,16.063 16.903,15.992 16.905,15.916C16.939,15.982 16.948,15.977 16.972,15.994L17.022,15.89L17.288,16.14L17.49,16.151C17.562,16.2 17.76,16.231 17.793,16.152C17.955,16.221 18.146,16.143 18.136,16.066C18.285,16.125 18.515,16.085 18.515,16.075C18.542,16.072 18.613,16.003 18.546,15.951C18.053,15.607 17.322,15.039 17.04,14.902C17.04,14.8 16.964,14.435 16.881,14.334L16.948,14.223C17.14,14.402 17.21,14.385 17.312,14.413C17.421,14.5 17.459,14.631 17.569,14.752L17.666,14.77C17.599,14.598 17.515,14.431 17.31,14.208C17.416,14.261 17.59,14.402 17.707,14.504C17.785,14.633 17.807,14.736 17.878,14.898C17.929,14.931 17.982,15.051 17.975,14.952C17.963,14.764 17.831,14.468 17.831,14.447C18.04,14.613 18.038,14.871 18.101,15.029C18.155,15.108 18.182,15.215 18.205,15.19L18.143,14.704L18.107,14.526C18.262,14.615 18.318,14.956 18.39,15.365C18.39,15.43 18.417,15.501 18.413,15.543C18.446,15.584 18.484,15.698 18.483,15.63C18.483,15.63 18.483,14.966 18.438,14.813C18.426,14.732 18.457,14.599 18.457,14.599C18.514,14.875 18.574,15.174 18.631,15.449L18.631,15.652L18.716,15.737C18.732,15.57 18.751,15.404 18.768,15.238L18.705,14.644L18.705,14.474C18.703,14.414 18.759,14.425 18.795,14.493C18.803,14.639 18.803,14.753 18.809,14.898C18.834,15.064 18.851,15.186 18.863,15.397C18.87,15.568 18.878,15.978 18.914,15.971Z" fill="#B35F47" />
</svg>
