<svg width="32" height="32" viewBox="0 0 32 32" xmlns="http://www.w3.org/2000/svg">
  <polygon fill="#FCD53F" points="11.5,6 20.5,6 21.5,7 21.5,25 20.5,26 11.5,26 10.5,25 10.5,7" />
  <rect fill="#1345B7" x="2" y="6" width="9.5" height="20" />
  <rect fill="#CF0828" x="20.5" y="6" width="9.5" height="20" />
  <rect x="14.5" y="13.75" width="3" height="2.25" fill="#CF0828" />
  <path d="M14.5,16L14.5,17.5L16,18.25L17.5,17.5L17.5,16L14.5,16Z" fill="#1345B7" />
  <path d="M14.5,10.75L14.5,11.5L15.25,11.5L15.25,13L16.75,13L16.75,10.75L14.5,10.75ZM16.75,18.25L16,18.719L15.25,18.25L14.5,20.5L16,21.25L17.5,20.5L16.75,18.25ZM14.5,13L13,11.5L12.25,12.25L12.25,19.75L13.75,18.25L13.75,13L14.5,13ZM19,11.5L17.5,13L18.25,13L18.25,18.25L19.75,19.75L19.75,12.25L19,11.5Z" fill="#B87A66" />
  <path d="M14.228,19.557C14.148,19.604 14.031,19.55 13.965,19.438L12.291,16.539C12.227,16.426 12.239,16.298 12.319,16.251L12.421,16.193C12.5,16.146 12.618,16.2 12.683,16.312L14.357,19.212C14.422,19.324 14.409,19.452 14.33,19.499L14.228,19.557Z" fill="#5AB557" />
  <path d="M19.613,16.295C19.693,16.34 19.706,16.467 19.642,16.578L17.999,19.426C17.934,19.536 17.819,19.588 17.738,19.542L17.637,19.484C17.557,19.437 17.544,19.311 17.607,19.2L19.251,16.352C19.315,16.242 19.431,16.189 19.512,16.236L19.613,16.295Z" fill="#FCD53F" />
  <path d="M14.676,15.696L15.074,15.696L15.074,16L14.676,16L14.676,15.696ZM16.926,15.696L17.324,15.696L17.324,16L16.926,16L16.926,15.696ZM16,15.25L16.75,14.5L16.75,16.719L16,17.5L15.25,16.719L15.25,14.5L16,15.25Z" fill="#FCD53F" />
  <path d="M14.5,18.25L13.75,19L13.75,19.75L14.5,19L14.5,18.25ZM17.5,18.25L17.5,19L18.25,19.75L18.25,19L17.5,18.25Z" fill="#CF0828" />
</svg>
