<svg width="32" height="32" viewBox="0 0 32 32" xmlns="http://www.w3.org/2000/svg">
  <polygon fill="#f4f4f4" points="2,12.75 3,11.75 29,11.75 30,12.75 30,19.25 29,20.25 3,20.25 2,19.25" />
  <rect fill="#1C5CD7" x="2" y="6" width="28" height="6.75" />
  <rect fill="#1C5CD7" x="2" y="19.25" width="28" height="6.75" />
  <path d="M13.105,16.63C13.061,16.427 13.038,16.216 13.038,16C13.038,14.717 13.854,13.624 14.995,13.213L15.133,13.548C14.124,13.906 13.4,14.869 13.4,16C13.4,16.199 13.422,16.392 13.465,16.578L13.105,16.63ZM15.43,13.093C15.614,13.057 15.805,13.038 16,13.038C16.178,13.038 16.353,13.054 16.523,13.084L16.449,13.439C16.303,13.413 16.153,13.4 16,13.4C15.85,13.4 15.702,13.413 15.559,13.437L15.43,13.093ZM17.047,13.228C18.166,13.651 18.962,14.733 18.962,16C18.962,16.129 18.954,16.255 18.938,16.379L18.564,16.432C18.588,16.291 18.6,16.147 18.6,16C18.6,14.87 17.878,13.908 16.871,13.55L17.047,13.228ZM18.773,17.044C18.739,17.134 18.7,17.223 18.658,17.309L18.305,17.202C18.349,17.119 18.388,17.033 18.423,16.945L18.773,17.044ZM18.336,17.822C17.867,18.422 17.172,18.837 16.379,18.938L16.379,18.573C17.026,18.478 17.597,18.144 17.997,17.664L18.336,17.822ZM15.732,18.95C14.92,18.877 14.203,18.477 13.713,17.883L14.066,17.737C14.486,18.204 15.072,18.519 15.732,18.586L15.732,18.95ZM13.42,17.455C13.373,17.373 13.33,17.289 13.292,17.202L13.653,17.119C13.689,17.194 13.728,17.267 13.771,17.338L13.42,17.455Z" fill="#FCB100" />
  <path d="M13.893,17.401L15.991,13.767L18.089,17.401L13.893,17.401Z" fill="#FCB100" />
  <path d="M14.125,17.26L15.991,14.03L17.856,17.26L14.125,17.26Z" fill="#3BC6F6" />
  <path d="M14.125,17.26L14.576,16.48L17.385,16.445L17.856,17.26L14.125,17.26Z" fill="#AEDDFF" />
  <path d="M16.02,14.98L16.064,15.583L16.409,15.087L16.149,15.627L16.689,15.368L16.193,15.713L16.798,15.756L16.193,15.799L16.689,16.145L16.149,15.886L16.409,16.425L16.064,15.929L16.02,16.533L15.977,15.929L15.632,16.425L15.891,15.886L15.351,16.145L15.848,15.799L15.243,15.756L15.848,15.713L15.351,15.368L15.891,15.627L15.632,15.087L15.977,15.583L16.02,14.98Z" fill="#AEDDFF" />
  <path d="M14.487,16.751L15.188,16.183L15.492,16.528L15.756,16.243L15.98,16.467L16.193,16.233L16.447,16.467L16.681,16.223L16.894,16.467L17.097,16.243L17.432,16.66L17.493,16.782C17.493,16.782 17.138,16.853 16.65,16.813C16.163,16.772 15.878,16.883 15.492,16.935C15.106,16.985 14.416,16.884 14.416,16.884L14.487,16.751Z" fill="#5AB557" />
  <path d="M15.177,16.305L15.644,16.813L15.411,16.833L15.147,16.447L15.177,16.305ZM15.736,16.345L16.112,16.681L15.939,16.711L15.756,16.457L15.736,16.345ZM16.213,16.325L16.538,16.63L16.457,16.681L16.193,16.396L16.213,16.325ZM16.64,16.325L16.508,16.447L16.569,16.518L16.64,16.325ZM17.046,16.335L16.894,16.528L16.944,16.619L17.056,16.406L17.046,16.335Z" fill="#FFF478" />
  <path d="M16.061,15.269C16.559,15.269 16.843,15.512 16.843,15.512L16.66,15.188C16.66,15.188 16.366,14.964 16.021,14.964C15.676,14.964 15.29,15.238 15.29,15.238L15.117,15.583C15.117,15.583 15.563,15.269 16.061,15.269Z" fill="#1345B7" />
  <path d="M16.061,15.269C16.559,15.269 16.843,15.512 16.843,15.512L16.711,15.279C16.711,15.279 16.356,15.066 16.01,15.066C15.665,15.066 15.238,15.34 15.238,15.34L15.116,15.584C15.117,15.583 15.563,15.269 16.061,15.269Z" fill="#FFC83D" />
  <path d="M16.061,15.269C16.559,15.269 16.843,15.512 16.843,15.512L16.751,15.36C16.751,15.36 16.477,15.167 16.01,15.188C15.665,15.188 15.187,15.442 15.187,15.442L15.116,15.584C15.117,15.583 15.563,15.269 16.061,15.269Z" fill="#F8312F" />
  <path d="M16,15.482L15.878,15.604C15.878,15.604 15.908,15.787 15.898,15.817C15.888,15.848 16,16 16,16L16.152,15.817L16.112,15.574L16,15.482Z" fill="#F8312F" />
</svg>
