<svg width="32" height="32" viewBox="0 0 32 32" xmlns="http://www.w3.org/2000/svg">
  <polygon fill="#f4f4f4" points="2,6 30,6 30,16 29,17 3,17 2,16 " />
  <rect fill="#3BC6F6" x="2" y="16" width="28" height="10" />
  <path d="M16,13.103C14.126,13.103 13.954,12.345 16,12.345C18.046,12.344 17.874,13.103 16,13.103Z" fill="#ea9129" />
  <path d="M17.445,12.886C16.975,12.886 16.602,13.175 16.265,13.355C16.169,13.235 16,13.247 16,13.247C16,13.247 15.831,13.234 15.735,13.355C15.398,13.175 15.025,12.886 14.555,12.886C14.086,12.886 12.978,13.344 12.978,15.667C12.978,18.725 16,19.699 16,19.699C16,19.699 19.022,18.724 19.022,15.667C19.022,13.343 17.914,12.886 17.445,12.886ZM13.834,11.862C14.135,11.922 14.53,12.476 14.53,12.723C14.808,12.416 16,12.392 16,12.392C16,12.392 17.192,12.416 17.47,12.723C17.47,12.476 17.866,11.922 18.166,11.862C18.106,11.742 17.938,11.778 17.938,11.778C17.938,11.778 18.311,11.14 18.166,10.839C18.022,10.538 17.456,10.55 16.998,10.502C16.541,10.454 16.457,10.249 16.457,10.249L16.577,10.104C16.577,10.104 16.348,10.056 16.397,9.899C16.445,9.743 16.252,9.754 16.252,9.754C16.252,9.754 16.397,9.61 16.336,9.478C16.276,9.345 16.143,9.309 16.143,9.309C16.143,9.309 16.059,9.116 16.143,9.056C16.227,8.996 16.42,9.225 16.42,8.996C16.42,8.767 16.203,8.96 16.143,8.876C16.084,8.793 16.253,8.576 16,8.576C15.747,8.576 15.916,8.793 15.855,8.878C15.795,8.962 15.579,8.769 15.579,8.998C15.579,9.227 15.771,8.998 15.855,9.058C15.939,9.118 15.855,9.311 15.855,9.311C15.855,9.311 15.723,9.347 15.663,9.479C15.602,9.612 15.747,9.756 15.747,9.756C15.747,9.756 15.554,9.744 15.602,9.901C15.649,10.057 15.421,10.106 15.421,10.106L15.542,10.251C15.542,10.251 15.458,10.455 15,10.503C14.542,10.551 13.977,10.539 13.832,10.841C13.687,11.142 14.061,11.78 14.061,11.78C14.061,11.78 13.894,11.742 13.834,11.862ZM17.011,10.768C17.42,10.84 18.083,10.984 17.3,11.502C17.312,11.321 17.216,11.177 17.216,11.177C17.216,11.177 17.023,11.201 16.867,11.345C16.8,11.107 16.686,11.033 16.686,11.033C16.686,11.033 16.458,11.104 16.385,11.284C16.357,11.207 16.317,11.141 16.274,11.086C16.342,10.969 16.385,10.808 16.385,10.631C16.385,10.593 16.376,10.56 16.372,10.524C16.571,10.646 16.813,10.732 17.011,10.768ZM14.989,10.768C15.186,10.733 15.426,10.647 15.623,10.527C15.619,10.563 15.611,10.594 15.611,10.631C15.611,10.81 15.654,10.972 15.723,11.09C15.682,11.144 15.643,11.209 15.616,11.285C15.543,11.105 15.314,11.033 15.314,11.033C15.314,11.033 15.2,11.107 15.134,11.345C14.978,11.201 14.785,11.177 14.785,11.177C14.785,11.177 14.689,11.321 14.701,11.502C13.917,10.984 14.579,10.839 14.989,10.768Z" fill="#f9c23c" />
  <path d="M18.224,15.968C18.224,14.174 17.707,13.969 17.707,13.969C17.707,13.969 17.457,14.271 17.1,14.15C16.743,14.03 16.238,13.632 16.238,13.632C16.238,13.632 16.149,13.745 15.987,13.751C15.824,13.745 15.735,13.632 15.735,13.632C15.735,13.632 15.23,14.03 14.874,14.15C14.518,14.27 14.266,13.969 14.266,13.969C14.266,13.969 13.749,14.174 13.749,15.968C13.749,17.665 15.758,19.262 15.976,19.43L15.976,19.447L15.987,19.438L15.998,19.447L15.998,19.43C16.215,19.262 18.224,17.665 18.224,15.968Z" fill="#26C9FC" />
  <path d="M15.47,17.677C15.59,17.328 15.663,17.099 15.663,16.894L15.663,16.015C15.663,16.015 15.47,15.919 15.47,15.81L15.47,15.485L15.663,15.413L15.663,15.629L15.855,15.557L15.855,15.364L16,15.364L16,15.569L16.169,15.605L16.169,15.425L16.385,15.485L16.385,15.786C16.385,15.786 16.216,15.966 16.216,16.015L16.216,16.894C16.216,16.978 16.469,17.677 16.469,17.677L15.47,17.677ZM15.97,15.198C15.97,15.198 15.916,14.969 15.784,14.776C15.651,14.584 15.695,14.223 15.987,14.222C16.53,14.221 16.169,14.71 16.169,14.71C16.169,14.71 16.049,14.463 16,14.535C15.952,14.607 16.126,14.884 16.048,15.04C15.969,15.197 15.97,15.198 15.97,15.198ZM14.754,15.414C14.754,15.414 14.7,15.185 14.568,14.993C14.435,14.8 14.479,14.439 14.771,14.439C15.314,14.438 14.953,14.926 14.953,14.926C14.953,14.926 14.833,14.68 14.784,14.752C14.736,14.825 14.911,15.101 14.832,15.258L14.754,15.414ZM17.166,15.414C17.166,15.414 17.113,15.185 16.98,14.993C16.847,14.8 16.891,14.439 17.183,14.439C17.727,14.438 17.365,14.926 17.365,14.926C17.365,14.926 17.245,14.68 17.197,14.752C17.149,14.825 17.323,15.101 17.244,15.258L17.166,15.414ZM14.345,17.621C14.41,17.415 14.447,17.257 14.447,17.111L14.447,16.232C14.447,16.232 14.254,16.136 14.254,16.027L14.254,15.702L14.447,15.63L14.447,15.846L14.639,15.774L14.639,15.581L14.784,15.581L14.784,15.786L14.953,15.822L14.953,15.642L15.169,15.702L15.169,16.003C15.169,16.003 15.001,16.184 15.001,16.232L15.001,17.111C15.001,17.196 15.253,17.894 15.253,17.894C15.253,17.894 14.319,17.704 14.345,17.621ZM16.666,17.894C16.787,17.545 16.859,17.316 16.859,17.111L16.859,16.232C16.859,16.232 16.666,16.136 16.666,16.027L16.666,15.702L16.859,15.63L16.859,15.846L17.052,15.774L17.052,15.581L17.197,15.581L17.197,15.786L17.365,15.822L17.365,15.642L17.582,15.702L17.582,16.003C17.582,16.003 17.413,16.184 17.413,16.232L17.413,17.111C17.413,17.164 17.514,17.463 17.589,17.676C17.631,17.799 16.666,17.894 16.666,17.894Z" fill="#cfd4d8" />
  <path d="M14.755,15.583L14.64,15.583L14.64,15.775L14.448,15.848L14.448,15.631L14.255,15.704L14.255,16.029C14.255,16.138 14.448,16.234 14.448,16.234L14.448,17.113C14.448,17.259 14.411,17.417 14.346,17.623C14.334,17.662 14.537,17.725 14.755,17.781L14.755,15.583ZM15.962,15.366L15.847,15.366L15.847,15.558L15.655,15.631L15.655,15.414L15.462,15.486L15.462,15.812C15.462,15.92 15.655,16.017 15.655,16.017L15.655,16.896C15.655,17.041 15.618,17.2 15.553,17.406C15.541,17.445 15.745,17.508 15.962,17.564L15.962,15.366ZM17.196,15.618L17.045,15.582L17.045,15.775L16.852,15.847L16.852,15.631L16.66,15.703L16.66,16.028C16.66,16.137 16.852,16.233 16.852,16.233L16.852,17.112C16.852,17.258 16.814,17.416 16.75,17.622C16.737,17.661 16.941,17.725 17.196,17.816L17.196,15.618Z" fill="#b7c0c5" />
  <path d="M16.758,17.551C16.758,17.551 16.505,17.225 16,17.225C15.495,17.225 15.277,17.563 15.277,17.563C15.277,17.563 14.831,17.387 14.313,17.635C14.925,18.597 15.834,19.321 15.975,19.43L15.975,19.447L15.986,19.438L15.997,19.447L15.997,19.43C16.139,19.321 17.053,18.591 17.665,17.624C17.113,17.389 16.758,17.551 16.758,17.551Z" fill="#96c34a" />
  <path d="M16.659,21.024C16.318,20.467 16.012,19.832 15.182,19.447C14.351,19.061 14.219,18.953 13.978,18.556C13.738,18.159 13.268,17.894 13.268,17.894C13.268,17.894 13.28,17.521 13.123,17.28C12.967,17.04 12.978,16.738 12.978,16.738C12.978,16.738 12.786,16.841 12.833,16.465C12.881,16.089 12.641,15.836 12.641,15.836C12.641,15.836 12.942,15.439 12.689,14.927C12.978,14.428 12.845,13.862 12.845,13.862C12.845,13.862 13.098,13.392 12.845,12.886C12.038,13.224 11.991,14.295 11.991,14.295L11.533,13.633C11.533,13.633 11.148,13.886 11.244,14.355C11.34,14.825 11.316,14.927 11.316,14.927L10.883,14.56C10.883,14.56 10.571,15.078 11.004,15.487C11.437,15.896 11.509,16.017 11.509,16.017C11.509,16.017 11.293,15.897 11.293,16.09C11.293,16.282 11.34,16.366 11.34,16.366L10.773,15.897C10.773,15.897 10.606,16.535 11.003,16.896C11.4,17.258 11.641,17.39 11.641,17.39C11.641,17.39 10.883,17.174 10.894,17.228C10.907,17.282 11.051,17.679 11.436,17.896C11.821,18.112 12.11,18.197 12.11,18.197L11.327,18.339C11.327,18.339 11.52,18.896 11.978,18.896C12.435,18.896 12.868,18.751 12.868,18.751C12.868,18.751 12.543,19.016 12.447,19.22C12.35,19.425 12.074,19.449 12.074,19.449C12.074,19.449 12.327,19.714 12.796,19.629C13.266,19.545 13.327,18.907 13.904,19.111C14.482,19.316 15.518,19.689 15.854,20.207C16.191,20.725 16.312,20.845 16.384,21.025C16.458,21.204 16.758,21.186 16.659,21.024Z" fill="#608842" />
  <path d="M15.25,21.024C15.59,20.467 15.897,19.832 16.727,19.447C17.558,19.061 17.69,18.953 17.931,18.556C18.171,18.159 18.641,17.894 18.641,17.894C18.641,17.894 18.629,17.521 18.786,17.28C18.943,17.039 18.931,16.738 18.931,16.738C18.931,16.738 19.123,16.841 19.076,16.465C19.028,16.089 19.268,15.836 19.268,15.836C19.268,15.836 18.967,15.439 19.22,14.927C18.932,14.428 19.064,13.862 19.064,13.862C19.064,13.862 18.811,13.392 19.064,12.886C19.871,13.224 19.918,14.295 19.918,14.295L20.376,13.633C20.376,13.633 20.761,13.886 20.665,14.355C20.569,14.825 20.593,14.927 20.593,14.927L21.026,14.56C21.026,14.56 21.338,15.078 20.905,15.487C20.472,15.896 20.4,16.017 20.4,16.017C20.4,16.017 20.617,15.897 20.617,16.09C20.617,16.282 20.569,16.366 20.569,16.366L21.135,15.897C21.135,15.897 21.303,16.535 20.905,16.896C20.508,17.258 20.267,17.39 20.267,17.39C20.267,17.39 21.026,17.174 21.014,17.228C21.002,17.282 20.858,17.679 20.472,17.896C20.087,18.112 19.798,18.197 19.798,18.197L20.581,18.339C20.581,18.339 20.388,18.896 19.931,18.896C19.473,18.896 19.04,18.751 19.04,18.751C19.04,18.751 19.365,19.016 19.462,19.22C19.558,19.425 19.835,19.449 19.835,19.449C19.835,19.449 19.582,19.714 19.112,19.629C18.642,19.544 18.582,18.907 18.004,19.111C17.426,19.316 16.391,19.689 16.054,20.207C15.717,20.725 15.596,20.845 15.524,21.025C15.451,21.204 15.151,21.186 15.25,21.024Z" fill="#608842" />
  <path d="M14.17,19.947C13.605,20.013 13.46,20.386 12.666,20.037C12.629,20.217 12.918,20.494 12.918,20.494C12.918,20.494 12.485,20.507 12.28,20.434C12.389,20.88 12.894,21.048 13.316,21.012C13.737,20.976 14.002,20.663 14.49,20.772C14.978,20.88 15.328,21.03 15.231,20.158C14.904,19.808 14.17,19.947 14.17,19.947ZM17.83,19.947C18.395,20.013 18.54,20.386 19.334,20.037C19.371,20.217 19.082,20.494 19.082,20.494C19.082,20.494 19.515,20.507 19.72,20.434C19.611,20.88 19.106,21.048 18.684,21.012C18.263,20.976 17.998,20.663 17.51,20.772C17.022,20.88 16.672,21.03 16.769,20.158C17.096,19.808 17.83,19.947 17.83,19.947Z" fill="#e6e6e6" />
  <path d="M17.866,19.386C17.541,19.242 16.831,19.603 16,19.603C15.169,19.603 14.459,19.242 14.134,19.386C13.809,19.531 13.869,19.579 13.894,19.699C13.917,19.819 13.954,20.145 13.978,20.325C14.001,20.505 14.194,20.626 14.423,20.47C14.652,20.313 14.941,20.241 15.338,20.361C15.736,20.481 15.981,20.474 15.981,20.474C15.981,20.474 16.265,20.481 16.663,20.361C17.06,20.241 17.349,20.313 17.578,20.47C17.807,20.626 17.999,20.506 18.023,20.325C18.047,20.145 18.083,19.819 18.107,19.699C18.131,19.579 18.191,19.531 17.866,19.386Z" fill="#f4f4f4" />
  <path d="M17.416,19.699C17.416,19.773 17.269,20.069 15.912,20.069C14.555,20.069 14.454,19.772 14.454,19.699C14.454,19.625 14.676,19.863 16.032,19.863C17.388,19.863 17.416,19.626 17.416,19.699Z" fill="#b7c0c5" />
</svg>
