<svg width="32" height="32" viewBox="0 0 32 32" xmlns="http://www.w3.org/2000/svg">
  <path d="M16,6L17,7L17,25L16,26L6,26L6,6L16,6Z" fill="#fcd53f" />
  <rect x="16" y="6" width="10" height="20" fill="#f4f4f4" />
  <path d="M24.391,12.972C24.479,13.1 24.496,13.241 24.423,13.313C24.335,13.402 24.145,13.358 24.001,13.212C23.856,13.068 23.811,12.878 23.9,12.79C23.967,12.723 24.09,12.732 24.207,12.801L24.352,12.735C24.346,12.717 24.343,12.698 24.343,12.678C24.343,12.574 24.428,12.488 24.533,12.488C24.638,12.488 24.723,12.574 24.723,12.678C24.723,12.784 24.638,12.869 24.533,12.869C24.505,12.869 24.479,12.863 24.455,12.853L24.391,12.972Z" fill="#bebebe" />
  <path d="M17.545,12.853C17.521,12.863 17.495,12.869 17.467,12.869C17.362,12.869 17.277,12.784 17.277,12.678C17.277,12.574 17.362,12.488 17.467,12.488C17.572,12.488 17.657,12.574 17.657,12.678C17.657,12.698 17.654,12.717 17.648,12.735L17.793,12.801C17.91,12.732 18.033,12.723 18.099,12.79C18.188,12.878 18.143,13.068 17.998,13.212C17.854,13.358 17.665,13.402 17.576,13.313C17.503,13.24 17.52,13.1 17.609,12.972L17.545,12.853Z" fill="#c99e2d" />
  <path d="M22.783,14.618C21.873,15.459 20.768,16.483 20.513,16.708C20.048,17.121 19.8,17.478 19.508,17.202C19.185,16.895 19.512,16.709 19.764,16.48C20.015,16.252 23.359,13.452 23.708,13.127C24.05,12.808 24.326,13.188 24.05,13.453L24.296,13.728L24.128,13.872L24.296,14.016L24.465,13.872L24.705,14.137L24.705,14.401L24.236,14.798L23.96,14.618L23.96,14.401L23.732,14.401L23.732,14.606L23.852,14.618L23.96,14.738L23.972,15.015L23.556,15.351L22.783,14.618ZM17.277,18.047C17.277,17.415 17.79,16.902 18.422,16.902C19.055,16.902 19.568,17.415 19.568,18.047C19.568,18.679 19.055,19.192 18.422,19.192C17.79,19.192 17.277,18.679 17.277,18.047ZM18.011,18.048C17.806,18.052 17.641,18.218 17.64,18.422C17.64,18.629 17.808,18.798 18.015,18.798C18.222,18.798 18.391,18.629 18.391,18.422L18.389,18.416C18.401,18.417 18.41,18.423 18.422,18.423C18.422,18.629 18.59,18.798 18.797,18.798C19.004,18.798 19.172,18.629 19.172,18.422C19.172,18.218 19.008,18.052 18.802,18.048C19.007,18.045 19.172,17.879 19.172,17.674C19.172,17.467 19.005,17.298 18.797,17.298C18.591,17.298 18.422,17.466 18.422,17.672C18.41,17.672 18.401,17.678 18.39,17.679L18.391,17.674C18.391,17.467 18.223,17.298 18.015,17.298C17.808,17.298 17.64,17.466 17.64,17.674C17.64,17.878 17.805,18.045 18.011,18.048Z" fill="#c99e2d" />
  <path d="M19.217,14.618L18.444,15.351L18.028,15.015L18.04,14.738L18.148,14.618L18.268,14.606L18.268,14.401L18.04,14.401L18.04,14.618L17.764,14.798L17.295,14.401L17.295,14.137L17.535,13.872L17.704,14.016L17.872,13.872L17.704,13.728L17.95,13.453C17.674,13.188 17.95,12.808 18.292,13.127C18.641,13.452 21.985,16.252 22.236,16.48C22.488,16.709 22.815,16.895 22.492,17.202C22.2,17.478 21.952,17.121 21.487,16.708C21.232,16.483 20.127,15.459 19.217,14.618ZM23.578,16.902C24.21,16.902 24.723,17.415 24.723,18.047C24.723,18.679 24.21,19.192 23.578,19.192C22.945,19.192 22.432,18.679 22.432,18.047C22.432,17.415 22.945,16.902 23.578,16.902ZM24.359,18.422C24.359,18.218 24.194,18.052 23.989,18.048C24.194,18.045 24.359,17.879 24.359,17.674C24.359,17.467 24.192,17.298 23.984,17.298C23.777,17.298 23.608,17.466 23.608,17.674L23.609,17.679C23.598,17.678 23.589,17.672 23.578,17.672C23.577,17.466 23.409,17.298 23.202,17.298C22.995,17.298 22.827,17.466 22.827,17.674C22.827,17.878 22.992,18.045 23.197,18.048C22.992,18.052 22.827,18.217 22.827,18.422C22.827,18.629 22.995,18.798 23.202,18.798C23.409,18.798 23.577,18.629 23.578,18.423C23.589,18.423 23.598,18.417 23.61,18.416L23.608,18.422C23.608,18.629 23.776,18.798 23.984,18.798C24.191,18.798 24.359,18.629 24.359,18.422Z" fill="#bebebe" />
  <path d="M19.171,16.959C19.082,17.048 19.127,17.238 19.272,17.382C19.416,17.526 19.605,17.572 19.694,17.482C19.783,17.394 19.738,17.205 19.593,17.06C19.449,16.915 19.259,16.87 19.171,16.959ZM17.329,17.104C17.329,17.212 17.417,17.3 17.526,17.3C17.635,17.3 17.722,17.212 17.722,17.104C17.722,16.995 17.635,16.907 17.526,16.907C17.417,16.907 17.329,16.995 17.329,17.104ZM19.039,18.997C19.039,19.105 19.127,19.193 19.236,19.193C19.345,19.193 19.432,19.105 19.432,18.997C19.432,18.888 19.345,18.8 19.236,18.8C19.127,18.8 19.039,18.888 19.039,18.997ZM17.277,18.933C17.277,19.042 17.365,19.129 17.474,19.129C17.582,19.129 17.67,19.042 17.67,18.933C17.67,18.824 17.582,18.736 17.474,18.736C17.365,18.737 17.277,18.825 17.277,18.933Z" fill="#bebebe" />
  <path d="M22.829,16.959C22.918,17.048 22.873,17.238 22.728,17.382C22.584,17.526 22.395,17.572 22.306,17.482C22.217,17.394 22.262,17.205 22.407,17.06C22.551,16.915 22.741,16.87 22.829,16.959ZM24.671,17.104C24.671,17.212 24.583,17.3 24.474,17.3C24.365,17.3 24.278,17.212 24.278,17.104C24.278,16.995 24.365,16.907 24.474,16.907C24.583,16.907 24.671,16.995 24.671,17.104ZM22.961,18.997C22.961,19.105 22.873,19.193 22.764,19.193C22.655,19.193 22.568,19.105 22.568,18.997C22.568,18.888 22.655,18.8 22.764,18.8C22.873,18.8 22.961,18.888 22.961,18.997ZM24.723,18.933C24.723,19.042 24.635,19.129 24.526,19.129C24.418,19.129 24.33,19.042 24.33,18.933C24.33,18.824 24.418,18.736 24.526,18.736C24.635,18.737 24.723,18.825 24.723,18.933Z" fill="#c99e2d" />
  <path d="M22.746,15.295C22.853,15.225 22.935,15.129 22.989,15.01C23.219,14.508 22.934,13.702 22.759,13.39C22.546,13.008 22.677,12.758 22.779,12.639C22.751,12.628 22.716,12.62 22.678,12.62C22.595,12.62 22.513,12.661 22.438,12.742C22.214,12.981 22.32,13.3 22.633,14.025C22.868,14.569 22.96,14.962 22.746,15.295Z" fill="#d3d3d3" />
  <path d="M22.316,12.956C22.426,12.796 22.595,12.707 22.803,12.707C22.972,12.707 23.145,12.77 23.292,12.881L23.507,12.556C23.412,12.477 23.182,12.312 22.922,12.312C22.853,12.312 22.787,12.324 22.723,12.346C22.428,12.452 22.329,12.723 22.316,12.956Z" fill="#d3d3d3" />
  <path d="M19.239,15.295C19.132,15.225 19.051,15.129 18.996,15.01C18.766,14.508 19.052,13.702 19.226,13.39C19.439,13.008 19.308,12.758 19.206,12.639C19.235,12.628 19.269,12.62 19.307,12.62C19.391,12.62 19.472,12.661 19.547,12.742C19.772,12.981 19.665,13.3 19.352,14.025C19.117,14.569 19.025,14.962 19.239,15.295Z" fill="#d3d3d3" />
  <path d="M19.669,12.956C19.558,12.796 19.39,12.707 19.182,12.707C19.014,12.707 18.84,12.77 18.694,12.881L18.478,12.556C18.574,12.477 18.804,12.312 19.064,12.312C19.132,12.312 19.198,12.324 19.262,12.346C19.556,12.452 19.655,12.723 19.669,12.956Z" fill="#d3d3d3" />
  <path d="M22.091,12.707C22.091,13.835 21.599,13.805 20.992,13.805C20.386,13.805 19.895,13.835 19.895,12.707C19.895,11.578 20.386,10.359 20.992,10.359C21.599,10.359 22.091,11.578 22.091,12.707Z" fill="#1c1c1c" />
  <path d="M20.944,13.728C20.618,13.728 20.39,13.718 20.234,13.597C20.055,13.458 19.972,13.175 19.972,12.707C19.972,11.561 20.477,10.436 20.992,10.436C21.508,10.436 22.014,11.561 22.014,12.707C22.014,13.728 21.604,13.728 21.085,13.728L20.944,13.728Z" fill="#f4f4f4" />
  <path d="M20.87,10.138C20.739,10.117 20.647,10.065 20.647,10.005C20.647,9.943 20.742,9.891 20.875,9.87C20.863,9.849 20.855,9.823 20.855,9.796C20.855,9.718 20.918,9.654 20.992,9.654C21.068,9.654 21.129,9.717 21.129,9.796C21.129,9.823 21.122,9.848 21.11,9.87C21.243,9.89 21.338,9.942 21.338,10.005C21.338,10.065 21.245,10.117 21.115,10.138C21.124,10.165 21.129,10.196 21.129,10.229C21.129,10.344 21.068,10.436 20.992,10.436C20.917,10.436 20.855,10.343 20.855,10.229C20.855,10.196 20.861,10.165 20.87,10.138ZM21.566,12.955C21.95,13.067 22.14,12.891 22.14,12.892L21.961,13.628C21.961,13.628 21.638,13.356 20.992,13.356C20.346,13.356 20.024,13.628 20.024,13.628L19.845,12.892C19.845,12.892 20.035,13.068 20.418,12.955C20.803,12.843 20.741,12.475 20.992,12.475C21.244,12.475 21.182,12.843 21.566,12.955ZM21.629,11.98C22.055,12.098 22.265,11.914 22.265,11.913L22.067,12.688C22.067,12.688 21.709,12.402 20.992,12.402C20.276,12.402 19.918,12.688 19.918,12.688L19.719,11.913C19.719,11.913 19.929,12.098 20.355,11.98C20.782,11.862 20.713,11.474 20.992,11.474C21.272,11.474 21.202,11.862 21.629,11.98ZM21.528,10.958C21.887,11.057 22.065,10.902 22.065,10.902L21.898,11.555C21.898,11.555 21.596,11.373 20.993,11.373C20.39,11.373 20.088,11.555 20.088,11.555L19.921,10.902C19.921,10.902 20.098,11.057 20.456,10.958C20.815,10.858 20.757,10.532 20.992,10.532C21.227,10.532 21.169,10.858 21.528,10.958Z" fill="#c99e2d" />
  <path d="M20.992,15.231C21.146,15.349 21.182,15.808 21.182,16.348L21.182,20.567C21.182,20.567 21.418,20.627 21.345,21.252C21.325,21.431 20.973,21.397 20.913,21.252C20.853,21.108 20.882,20.644 20.993,20.579L20.993,16.385C20.993,15.76 20.888,15.518 20.856,15.399C20.823,15.281 20.918,15.173 20.992,15.231Z" fill="#f8312f" />
  <path d="M22.442,18.153C22.292,18.048 22.08,17.782 21.898,17.528C21.658,17.192 21.598,16.962 21.359,16.674C21.121,16.385 20.496,15.788 20.348,15.808C20.29,15.817 20.228,15.953 20.285,16.001C20.341,16.048 20.517,16.241 20.913,16.542C21.31,16.842 21.37,17.178 21.701,17.659C22.006,18.103 22.27,18.406 22.508,18.447C22.473,18.354 22.452,18.255 22.442,18.153Z" fill="#f8312f" />
  <path d="M21.662,15.655C21.521,15.789 21.085,16.215 20.848,16.492C20.612,16.769 20.312,17.431 20.047,17.731C19.877,17.923 19.693,18.088 19.553,18.189C19.54,18.294 19.518,18.395 19.478,18.488C19.669,18.425 19.942,18.249 20.283,17.755C20.755,17.07 20.984,16.565 21.212,16.373C21.441,16.181 21.532,16.124 21.661,15.99C21.79,15.855 21.803,15.519 21.662,15.655Z" fill="#f8312f" />
  <path d="M20.711,16.216L20.711,20.663C20.456,20.868 20.528,21.207 20.576,21.374C20.624,21.541 21.04,21.54 21.105,21.457C21.169,21.374 21.187,20.808 20.949,20.615L20.949,16.493C20.949,16.385 20.711,16.051 20.711,16.216Z" fill="#f8312f" />
  <path d="M19.15,18.294C18.922,18.453 18.725,18.728 19.236,18.932C19.747,19.137 20.423,19.413 20.992,19.413C21.562,19.413 22.625,19.027 22.875,18.853C23.124,18.679 23.232,18.472 22.835,18.355C22.626,18.294 22.595,18.452 22.703,18.488C22.812,18.524 22.938,18.636 22.664,18.736C22.391,18.836 21.765,19.129 20.948,19.129C20.132,19.129 19.362,18.781 19.236,18.736C19.11,18.692 19.075,18.548 19.165,18.488C19.254,18.428 19.252,18.223 19.15,18.294Z" fill="#f8312f" />
  <path d="M21.274,20.43C21.274,20.52 21.201,20.592 21.111,20.592C21.022,20.592 20.948,20.52 20.948,20.43C20.948,20.34 21.022,20.267 21.111,20.267C21.202,20.267 21.274,20.34 21.274,20.43Z" fill="#c99e2d" />
  <path d="M21,20.538C21,20.628 20.927,20.7 20.837,20.7C20.748,20.7 20.675,20.628 20.675,20.538C20.675,20.448 20.748,20.375 20.837,20.375C20.927,20.375 21,20.448 21,20.538Z" fill="#c99e2d" />
</svg>
