<?xml version="1.0" encoding="UTF-8"?>
<svg xmlns="http://www.w3.org/2000/svg" xmlns:xlink="http://www.w3.org/1999/xlink" width="32px" height="32px" viewBox="0 0 32 32" version="1.1">
  <path fill="#00a6ed" d="M 6 6 L 26 6 L 26 26 L 6 26 Z M 6 6 "/>
  <path fill="#f4f4f4" d="M 10.542969 11.070312 C 10.644531 10.449219 11.316406 9.742188 12.230469 9.742188 C 13.089844 9.742188 13.761719 10.363281 13.953125 10.984375 L 15.984375 17.804688 L 16.019531 17.804688 L 18.050781 10.984375 C 18.242188 10.363281 18.914062 9.742188 19.773438 9.742188 C 20.6875 9.742188 21.359375 10.449219 21.460938 11.070312 L 23.0625 20.683594 C 23.082031 20.785156 23.082031 20.886719 23.082031 20.972656 C 23.082031 21.730469 22.53125 22.214844 21.839844 22.214844 C 20.960938 22.214844 20.617188 21.816406 20.496094 21.007812 L 19.480469 13.996094 L 19.445312 13.996094 L 17.378906 21.214844 C 17.257812 21.628906 16.933594 22.214844 16 22.214844 C 15.070312 22.214844 14.746094 21.628906 14.625 21.214844 L 12.558594 13.996094 L 12.523438 13.996094 L 11.503906 21.007812 C 11.386719 21.816406 11.039062 22.214844 10.164062 22.214844 C 9.472656 22.214844 8.921875 21.734375 8.921875 20.972656 C 8.921875 20.890625 8.921875 20.785156 8.9375 20.683594 Z M 10.542969 11.070312 "/>
</svg>
