<svg width="32" height="32" viewBox="0 0 32 32" xmlns="http://www.w3.org/2000/svg">
  <polygon fill="#f4f4f4" points="2,9 3,8 29,8 30,9 30,10 29,11 3,11 2,10" />
  <polygon fill="#f4f4f4" points="2,23 3,24 29,24 30,23 30,22 29,21 3,21 2,22" />
  <rect fill="#1345B7" x="2" y="6" width="28" height="3" />
  <rect fill="#ee1622" x="2" y="10" width="28" height="12" />
  <rect fill="#1345B7" x="2" y="23" width="28" height="3" />
  <path fill="#f4f4f4" d="M12.5,11.666C14.892,11.666 16.834,13.608 16.834,16C16.834,18.392 14.892,20.333 12.5,20.333C10.108,20.333 8.167,18.392 8.167,16C8.167,13.608 10.108,11.666 12.5,11.666ZM11.557,14.702L8.508,14.702L10.976,16.495L10.033,19.396L12.501,17.603L14.968,19.396L14.026,16.495L16.493,14.702L13.443,14.702L12.5,11.801L11.557,14.702Z" />
</svg>
