<?xml version="1.0" encoding="UTF-8"?>
<svg xmlns="http://www.w3.org/2000/svg" xmlns:xlink="http://www.w3.org/1999/xlink" width="32px" height="32px" viewBox="0 0 32 32" version="1.1">
  <path fill="#00a6ed" d="M 6 6 L 26 6 L 26 26 L 6 26 Z M 6 6 "/>
  <path fill="#f4f4f4" d="M 14.707031 12.222656 L 12.832031 12.222656 C 12.003906 12.222656 11.660156 11.621094 11.660156 11.035156 C 11.660156 10.433594 12.089844 9.847656 12.832031 9.847656 L 19.171875 9.847656 C 19.910156 9.847656 20.339844 10.433594 20.339844 11.035156 C 20.339844 11.621094 19.996094 12.222656 19.171875 12.222656 L 17.292969 12.222656 L 17.292969 20.871094 C 17.292969 21.734375 16.742188 22.214844 16 22.214844 C 15.261719 22.214844 14.707031 21.734375 14.707031 20.871094 Z M 14.707031 12.222656 "/>
</svg>
