<svg width="32" height="32" viewBox="0 0 32 32" xmlns="http://www.w3.org/2000/svg">
  <path d="M2,6L10,16L28,16L30,14.5L30,6L2,6Z" fill="#cf0828" />
  <path d="M2,26L10,16L28,16L30,17.5L30,26L2,26Z" fill="#008e48" />
  <path d="M2,26L2,24.805L2.5,24L2,23.61L2,8.39L2.5,8L2,7.195L2,6L15,14.5L30,14.5L30,15.5L29.5,16L30,16.5L30,17.5L15,17.5L2,26Z" fill="#1c1c1c" />
  <path d="M5.519,18.774C5.519,18.774 8.019,18.389 8.019,15.92C8.019,14.402 6.705,13.565 5.679,13.565C4.654,13.565 3.564,14.334 3.564,15.68C3.564,17.026 4.814,17.443 5.423,17.443C6.032,17.443 6.962,16.962 6.833,15.905C6.476,17.376 4.977,17.334 4.397,16.449C3.756,15.472 4.75,14.077 6.032,14.462C7.247,14.826 7.31,16.062 6.898,16.834C6.385,17.795 5.535,17.748 5.535,17.748L5.519,18.774Z" fill="#fdbb11" />
  <path d="M6.289,16.016C6.442,16.218 6.418,16.561 6.418,16.561C6.418,16.561 6.211,16.478 6.033,16.305C5.889,16.165 5.766,15.962 5.6,15.748C5.434,15.962 5.311,16.165 5.167,16.305C4.989,16.478 4.782,16.561 4.782,16.561C4.782,16.561 4.758,16.218 4.911,16.016C5.052,15.829 5.224,15.662 5.4,15.514C5.022,15.126 4.699,15.016 4.799,14.958C4.868,14.919 5.222,15.078 5.6,15.355C5.978,15.078 6.332,14.919 6.401,14.958C6.501,15.015 6.178,15.125 5.8,15.514C5.976,15.662 6.148,15.83 6.289,16.016ZM13.639,16L2,8.39L2,7.195L14.702,15.5L30,15.5L30,16.5L14.702,16.5L2,24.805L2,23.61L13.639,16Z" fill="#fdbb11" />
</svg>
