<?xml version="1.0" encoding="UTF-8"?>
<svg xmlns="http://www.w3.org/2000/svg" xmlns:xlink="http://www.w3.org/1999/xlink" width="32px" height="32px" viewBox="0 0 32 32" version="1.1">
  <path fill="#00a6ed" d="M 6 6 L 26 6 L 26 26 L 6 26 Z M 6 6 "/>
  <path fill="#f4f4f4" d="M 20.789062 11 C 20.789062 10.3125 20.273438 9.742188 19.550781 9.742188 C 19.101562 9.742188 18.703125 9.933594 18.480469 10.261719 L 16 13.859375 L 13.519531 10.261719 C 13.296875 9.933594 12.902344 9.742188 12.453125 9.742188 C 11.730469 9.742188 11.210938 10.3125 11.210938 11 C 11.210938 11.277344 11.300781 11.550781 11.453125 11.777344 L 14.332031 15.828125 L 14.332031 20.503906 C 14.332031 21.390625 15.050781 22.109375 15.9375 22.109375 L 16.0625 22.109375 C 16.949219 22.109375 17.667969 21.390625 17.667969 20.503906 L 17.667969 15.832031 L 20.550781 11.777344 C 20.703125 11.550781 20.789062 11.277344 20.789062 11 Z M 20.789062 11 "/>
</svg>
