<svg width="32" height="32" viewBox="0 0 32 32" xmlns="http://www.w3.org/2000/svg">
  <rect fill="#f4f4f4" x="2" y="6" width="28" height="20" />
  <path d="M12.154,21.24C12.154,21.24 12.009,21.337 11.865,21.305C11.722,21.272 11.513,21.312 11.513,21.312L10.272,19.175C10.272,19.175 9.606,19.798 8.997,19.254C9.318,19.35 9.702,18.708 10.167,18.982C9.734,18.58 8.901,19.285 8.484,18.308C9.061,18.661 9.398,18.099 9.926,18.452C9.413,17.875 8.66,18.505 8.355,17.726C8.82,17.892 9.205,17.385 9.622,17.726C9.269,17.01 8.195,18.004 7.987,16.802C8.452,17.042 8.965,16.738 9.253,16.978C8.708,15.937 8.212,17.138 7.747,15.616C8.068,16.065 8.516,15.632 8.981,16.338C8.644,15.055 7.731,16.129 7.442,14.623C8.019,14.431 8.259,15.28 8.725,15.456C8.436,14.462 7.827,14.75 8.195,13.58C9.028,13.997 8.66,14.702 8.932,15.519C9.141,15.231 8.868,14.862 9.013,14.606C9.158,14.35 9.238,14.222 9.189,14.093C9.942,14.958 9.028,15.695 9.109,16C9.189,16.305 9.318,16.417 9.318,16.417C9.318,16.417 9.238,15.952 9.398,15.68C9.558,15.408 9.815,15.312 9.798,15.071C9.975,15.279 9.911,15.76 9.702,16C9.494,16.24 9.462,16.834 9.59,17.042C9.541,16.392 10.119,16.432 10.023,15.775C10.344,15.839 10.457,16.577 10.103,16.849C9.75,17.122 10.023,17.875 10.023,17.875C10.023,17.875 10.039,17.395 10.232,17.17C10.424,16.945 10.536,16.705 10.488,16.481C10.744,16.689 10.776,17.282 10.6,17.571C10.424,17.859 10.152,18.019 10.424,18.485C10.392,17.635 10.968,17.795 10.953,17.251C11.29,17.508 11.098,18.053 10.905,18.228C10.713,18.404 10.745,18.805 10.745,18.805C10.745,18.805 10.954,18.516 11.114,18.405C11.274,18.293 11.385,17.971 11.385,17.971C11.385,17.971 11.583,18.97 10.952,19.012C10.936,19.478 11.833,20.855 12.154,21.24Z" fill="#008E48" />
  <path d="M23.192,16.868L23.523,17.03L21.711,19.177L23.4,15.968L23.649,16.318L24.125,14.191L22.738,15.771L23.098,15.851L21.833,18.226L22.234,16.545L22.555,16.833L22.555,14.654L21.545,16.497L21.914,16.497L21.202,19.412L20.828,20.115L20.397,20.282L20.222,20.588L20.1,20.604L18.689,22.108L19.4,22.112L19.542,22.811L20.143,22.093L19.926,22.795L20.568,22.488L21,23.052L21.497,21.064L21.27,20.635L21.264,20.615L21.39,20.084L23.791,17.213L23.952,17.612L24.907,15.652L23.192,16.868ZM4.958,13.74L3.484,13.74C3.484,13.74 3.805,13.804 3.948,14.141C4.092,14.478 4.995,17.127 5.07,17.445C5.182,17.922 4.83,18.018 4.83,18.018L6.288,18.018C6.288,18.018 5.872,17.945 6,17.445C6.128,16.945 6.978,14.462 7.074,14.157C7.17,13.852 7.442,13.74 7.442,13.74L5.984,13.74C5.984,13.74 6.481,13.851 6.336,14.252C6.192,14.653 5.551,16.801 5.551,16.801C5.551,16.801 4.829,14.652 4.702,14.252C4.574,13.852 4.958,13.74 4.958,13.74ZM28.188,13.74L26.842,13.74C26.842,13.74 27.103,13.92 27.103,14.269C27.103,14.624 27.094,17.295 27.094,17.551C27.094,17.888 26.786,18.019 26.786,18.019L28.244,18.019C28.244,18.019 27.852,17.815 27.852,17.526L27.852,14.191C27.852,13.885 28.188,13.74 28.188,13.74Z" fill="#0084ce" />
  <path d="M27.537,8.676C27.16,8.724 25.943,9.382 23.715,9.814C23.586,9.718 23.346,9.766 22.962,9.942C22.577,10.118 20.734,10.632 20.222,10.824C19.709,11.016 19.438,11.413 19.5,11.753C19.612,12.362 20.061,12.458 19.901,12.635C19.741,12.811 19.26,12.395 18.939,12.587C18.774,12.686 17.85,12.462 17.828,12.362C17.748,12.01 17.395,11.705 17.395,11.705C17.395,11.705 17.668,11.658 17.732,11.545C17.283,11.289 16.995,10.792 16.995,10.792C16.995,10.792 17.284,10.921 17.38,10.792C17.012,10.455 17.043,9.686 16.867,9.35C16.691,9.014 16.482,8.757 16.053,8.741C15.624,8.725 15.457,8.757 15.2,9.093C15.008,9.077 14.969,9.302 14.969,9.302C14.969,9.302 14.799,9.318 14.527,9.365C14.255,9.413 14.078,9.75 14.19,10.055C14.254,9.878 14.607,9.846 14.895,9.815C15.184,9.783 15.392,10.135 15.28,10.247C15.168,10.358 15.135,10.503 15.072,10.776C15.008,11.049 14.535,11.177 14.535,11.177C14.535,11.177 14.671,11.322 14.879,11.305C14.767,11.482 14.431,11.722 14.19,11.754C14.335,11.93 14.558,11.898 14.558,11.898C14.558,11.898 14.43,12.251 14.19,12.459C14.19,12.459 13.298,12.687 13.132,12.588C12.812,12.395 12.331,12.812 12.171,12.635C12.011,12.458 12.459,12.363 12.572,11.754C12.634,11.414 12.363,11.017 11.85,10.825C11.337,10.632 9.495,10.119 9.11,9.943C8.725,9.767 8.484,9.718 8.355,9.814C6.128,9.382 4.91,8.725 4.534,8.676C4.158,8.628 4.045,9.253 4.605,9.509C4.445,9.685 4.542,10.166 5.022,10.198C4.83,10.407 5.07,10.839 5.936,11.032C5.824,11.256 6.065,11.785 7.106,11.961C6.994,12.282 7.346,12.618 8.132,12.714C7.987,12.938 8.26,13.291 9.013,13.371C8.773,13.739 9.414,13.995 10.231,13.98C9.958,14.14 10.071,14.589 10.455,14.669C10.327,14.925 10.68,15.358 11.096,15.294C11.128,15.502 11.417,15.662 11.689,15.47C11.689,15.742 12.282,16.047 12.458,15.695C12.594,15.829 12.978,15.915 13.239,15.652C13.251,15.715 13.266,15.778 13.282,15.84C13.175,16.158 12.945,16.5 12.57,16.785C12.169,17.089 11.962,17.585 11.977,17.906C11.992,18.227 11.865,18.467 11.672,18.547L11.848,18.612C11.848,18.612 11.56,18.995 11.4,19.028C11.24,19.06 10.471,18.964 10.326,19.108C10.182,19.252 9.894,19.828 10.086,19.941C10.278,20.053 10.358,20.245 10.471,20.358C10.583,20.47 11.192,20.293 11.32,20.182C11.448,20.07 11.432,19.508 11.545,19.445C11.657,19.381 12.715,18.9 12.715,18.9L12.731,19.14C12.731,19.14 12.907,18.932 13.052,18.868C13.196,18.804 13.228,18.499 13.308,18.355C13.382,18.222 13.906,17.754 14.614,17.605C14.703,17.656 14.558,17.762 14.558,17.762C14.276,17.699 14.157,18.066 14.173,18.21C13.868,18.242 13.163,19.219 13.052,19.556C12.94,19.893 13.035,20.038 13.18,20.021C13.164,20.261 13.356,20.462 13.565,20.393C13.581,20.645 13.725,20.806 13.902,20.79C13.934,21.062 14.094,21.222 14.286,21.175C14.318,21.447 14.526,21.592 14.799,21.512C14.815,21.88 15.088,22.232 15.472,21.832C15.536,22.569 16.45,22.811 16.546,21.88C16.882,22.185 17.315,22.025 17.315,21.512C17.508,21.656 17.78,21.464 17.796,21.175C17.988,21.255 18.149,21.062 18.149,20.742C18.358,20.855 18.502,20.623 18.486,20.378C18.71,20.454 18.918,20.23 18.871,19.973C19.079,20.053 19.222,19.724 18.967,19.316C18.566,18.675 17.941,18.21 17.941,18.21C17.941,18.21 18.038,17.828 17.525,17.755C17.455,17.745 17.379,17.651 17.455,17.606C18.158,17.758 18.678,18.222 18.752,18.354C18.832,18.498 18.864,18.803 19.008,18.867C19.152,18.931 19.328,19.139 19.328,19.139L19.345,18.899C19.345,18.899 20.402,19.38 20.515,19.444C20.625,19.508 20.611,20.068 20.738,20.181C20.868,20.293 21.476,20.469 21.588,20.357C21.699,20.245 21.78,20.052 21.972,19.94C22.165,19.828 21.876,19.251 21.732,19.107C21.588,18.963 20.818,19.059 20.658,19.027C20.498,18.995 20.209,18.611 20.209,18.611L20.385,18.546C20.193,18.466 20.065,18.226 20.081,17.905C20.095,17.585 19.888,17.088 19.488,16.784C19.121,16.505 18.894,16.172 18.784,15.858C18.802,15.789 18.82,15.722 18.833,15.651C19.095,15.913 19.479,15.828 19.614,15.693C19.79,16.045 20.383,15.741 20.383,15.468C20.655,15.661 20.945,15.501 20.976,15.292C21.392,15.356 21.745,14.924 21.617,14.668C22.002,14.588 22.114,14.138 21.842,13.978C22.658,13.995 23.3,13.738 23.059,13.369C23.812,13.289 24.085,12.936 23.941,12.712C24.726,12.616 25.079,12.28 24.967,11.959C26.008,11.783 26.248,11.254 26.137,11.03C27.002,10.838 27.243,10.405 27.051,10.197C27.532,10.165 27.628,9.684 27.468,9.508C28.025,9.253 27.912,8.628 27.537,8.676Z" fill="#f9c23c" />
  <path d="M12.773,14.078C12.781,14.852 12.961,15.526 13.236,16.113C13.395,16.452 13.585,16.763 13.795,17.044L14.261,17.595C14.43,17.774 14.604,17.935 14.777,18.084L15.242,18.454C15.441,18.601 15.631,18.729 15.802,18.836C15.884,18.888 15.962,18.936 16.035,18.979C16.107,18.936 16.185,18.888 16.268,18.836C16.425,18.736 16.6,18.619 16.783,18.485L17.249,18.121C17.437,17.962 17.627,17.785 17.811,17.592L18.276,17.04C18.486,16.76 18.675,16.45 18.834,16.112C19.11,15.525 19.29,14.85 19.297,14.076L12.773,14.076L12.773,14.078Z" fill="#f4f4f4" />
  <path d="M13.236,14.075L13.236,16.113C13.395,16.452 13.585,16.763 13.795,17.044L13.795,14.077L14.261,14.077L14.261,17.595C14.43,17.773 14.604,17.935 14.777,18.083L14.777,14.076L15.242,14.076L15.242,18.453C15.441,18.6 15.631,18.728 15.802,18.835L15.802,14.075L16.267,14.075L16.267,18.835C16.425,18.735 16.599,18.618 16.782,18.485L16.782,14.075L17.248,14.075L17.248,18.12C17.436,17.961 17.626,17.785 17.81,17.591L17.81,14.075L18.275,14.075L18.275,17.039C18.485,16.759 18.674,16.449 18.833,16.111L18.833,14.075L13.236,14.075Z" fill="#990838" />
  <path d="M16.035,11.785C16.035,11.785 15.233,12.204 14.357,12.204C13.481,12.204 12.771,11.802 12.771,11.802L12.771,14.029C12.771,14.106 12.778,14.178 12.782,14.253L19.289,14.253C19.293,14.178 19.301,14.106 19.301,14.029L19.301,11.802C19.301,11.802 18.59,12.204 17.715,12.204C16.838,12.204 16.035,11.785 16.035,11.785Z" fill="#072975" />

</svg>
