<svg width="32" height="32" viewBox="0 0 32 32" xmlns="http://www.w3.org/2000/svg">
  <path d="M2,16L16,6L30,6L30,26L2,26L2,16Z" fill="#F8312F" />
  <rect x="2" y="6" width="14" height="10" fill="#0b338d" />
  <path d="M6.922,11.448L5.25,11L6.922,10.552C6.891,10.696 6.875,10.846 6.875,11C6.875,11.154 6.891,11.304 6.922,11.448ZM6.977,10.349L5.752,9.125L7.426,9.573C7.225,9.795 7.07,10.058 6.977,10.349ZM7.573,9.426L7.125,7.752L8.349,8.977C8.058,9.07 7.795,9.225 7.573,9.426ZM8.552,8.922L9,7.25L9.448,8.922C9.304,8.891 9.154,8.875 9,8.875C8.846,8.875 8.696,8.891 8.552,8.922ZM9.651,8.977L10.875,7.752L10.427,9.426C10.205,9.225 9.942,9.07 9.651,8.977ZM10.574,9.573L12.248,9.125L11.023,10.349C10.93,10.058 10.775,9.795 10.574,9.573ZM11.078,10.552L12.75,11L11.078,11.448C11.109,11.304 11.125,11.154 11.125,11C11.125,10.846 11.109,10.696 11.078,10.552ZM11.023,11.651L12.248,12.875L10.574,12.427C10.775,12.205 10.93,11.942 11.023,11.651ZM10.427,12.574L10.875,14.248L9.651,13.023C9.942,12.93 10.205,12.775 10.427,12.574ZM9.448,13.078L9,14.75L8.552,13.078C8.696,13.109 8.846,13.125 9,13.125C9.154,13.125 9.304,13.109 9.448,13.078ZM8.349,13.023L7.125,14.248L7.573,12.574C7.795,12.775 8.058,12.93 8.349,13.023ZM7.426,12.427L5.752,12.875L6.977,11.651C7.07,11.942 7.225,12.205 7.426,12.427ZM9,9.125C10.035,9.125 10.875,9.965 10.875,11C10.875,12.035 10.035,12.875 9,12.875C7.965,12.875 7.125,12.035 7.125,11C7.125,9.965 7.965,9.125 9,9.125Z" fill="#f4f4f4" />
</svg>
