<svg width="32" height="32" viewBox="0 0 32 32" xmlns="http://www.w3.org/2000/svg">
  <polygon fill="#FCD53F" points="16,6 30,6 30,26 2,26 2,16" />
  <polygon fill="#062365" points="4.1,6 7.25,6 9,7 10.75,6 13.9,6 16,7.5 16,9.25 15,11 16,12.75 16,14.5 13.9,16 10.75,16 9,15 7.25,16 4.1,16 2,14.5 2,12.75 3,11 2,9.25 2,7.5" />
  <polygon fill="#F4F4F4" points="16,6 15.3,6.25 14.6,6 13.9,6 10.75,8.25 10.75,6 10,6 9,6.5 8,6 7.25,6 7.25,8.25 4.1,6 2,6 2.25,6.5 2,7 2,7.5 4.45,9.25 2,9.25 2,10 2.5,11 2,12 2,12.75 4.45,12.75 2,14.5 2,16 2.7,15.75 3.4,16 4.1,16 7.25,13.75 7.25,16 8,16 9,15.5 10,16 10.75,16 10.75,13.75 13.9,16 16,16 15.75,15.5 16,15 16,14.5 13.55,12.75 16,12.75 16,12 15.5,11 16,10 16,9.25 13.55,9.25 16,7.5" />
  <path fill="#CF0828" d="M7.25,12.75h-0.7L2,16h1.4l3.85-2.75V12.75z M11.45,12.75L16,16v-1l-3.15-2.25H11.45z M10.75,9.25h0.7L16,6h-1.4l-3.85,2.75V9.25z M5.15,9.25L2,7V6l4.55,3.25H5.15z M16,12h-6v4H8v-4H2v-2h6V6h2v4h6V12z" />
  <circle cx="9" cy="11" r="1.6" fill="#062365" />
  <path d="M9,9.4L8.06,12.294L10.522,10.506L7.478,10.506L9.94,12.294L9,9.4Z" fill="#fcd53f" />
  <path d="M9,6.753L8.382,8.656L10,7.48L8,7.48L9.618,8.656L9,6.753Z" fill="#fcd53f" />
  <path d="M4.8,10L4.182,11.902L5.8,10.727L3.8,10.727L5.418,11.902L4.8,10Z" fill="#fcd53f" />
  <path d="M13.2,10L12.582,11.902L14.2,10.727L12.2,10.727L13.818,11.902L13.2,10Z" fill="#fcd53f" />
  <path d="M9,13.153L8.382,15.056L10,13.88L8,13.88L9.618,15.056L9,13.153Z" fill="#fcd53f" />
</svg>
