<svg width="32" height="32" viewBox="0 0 32 32" xmlns="http://www.w3.org/2000/svg">
  <rect fill="#CF0828" x="2" y="6" width="28" height="20" />
  <path d="M14.64,20.08C12.387,20.08 10.56,18.254 10.56,16C10.56,13.747 12.387,11.92 14.64,11.92C15.531,11.92 16.354,12.209 17.025,12.694C16.108,11.658 14.773,11 13.28,11C10.519,11 8.281,13.239 8.281,16C8.281,18.762 10.519,21 13.28,21C14.773,21 16.109,20.343 17.025,19.306C16.354,19.791 15.532,20.08 14.64,20.08ZM17.301,16.156L18.96,16.539L19.109,18.234L19.985,16.774L21.644,17.156L20.526,15.872L21.402,14.412L19.836,15.079L18.718,13.794L18.867,15.49L17.301,16.156Z" fill="#f4f4f4" />
</svg>
