<svg width="32" height="32" viewBox="0 0 32 32" xmlns="http://www.w3.org/2000/svg">
  <polygon fill="#FDBB11" points="2,6 30,6 30,11 29,12 6,12" />
  <polygon fill="#1345B7" points="2,26 30,26 30,21 29,20 6,20" />
  <polygon fill="#F8312F" points="6,15 29,15 30,16 30,21 6,21" />
  <rect fill="#f4f4f4" x="6" y="11" width="24" height="5" />
  <polygon fill="#028f4d" points="2,6 16,16 2,26" />
  <path d="M5.174,16C5.174,13.979 6.587,12.291 8.478,11.862C8.174,11.792 7.858,11.752 7.534,11.752C5.188,11.752 3.286,13.654 3.286,16C3.286,18.346 5.188,20.248 7.534,20.248C7.858,20.248 8.174,20.208 8.478,20.138C6.587,19.709 5.174,18.021 5.174,16ZM8.015,13.596L8.478,13.26L8.94,13.596L8.763,13.053L9.225,12.717L8.654,12.717L8.478,12.173L8.301,12.717L7.729,12.717L8.192,13.053L8.015,13.596ZM8.015,15.623L8.478,15.287L8.94,15.623L8.763,15.079L9.225,14.744L8.654,14.744L8.478,14.2L8.301,14.744L7.729,14.744L8.192,15.079L8.015,15.623ZM8.015,17.65L8.478,17.314L8.94,17.65L8.763,17.106L9.225,16.77L8.654,16.77L8.478,16.227L8.301,16.77L7.729,16.77L8.192,17.106L8.015,17.65ZM8.478,19.341L8.94,19.676L8.763,19.133L9.225,18.797L8.654,18.797L8.478,18.254L8.301,18.797L7.729,18.797L8.192,19.133L8.015,19.676L8.478,19.341Z" fill="#f4f4f4" />
</svg>
