<svg width="32" height="32" viewBox="0 0 32 32" xmlns="http://www.w3.org/2000/svg">
  <rect fill="#f4f4f4" x="2" y="6" width="28" height="20" />
  <path d="M16,18.986C15.946,18.986 15.903,18.942 15.903,18.889C15.903,18.861 15.891,18.208 15.222,18.208L13.667,18.208C12.807,18.208 12.23,17.544 12.23,16.555L12.23,9.984C12.23,9.93 12.274,9.886 12.327,9.886L19.656,9.886C19.71,9.886 19.754,9.93 19.754,9.984L19.754,16.555C19.754,17.544 19.183,18.208 18.333,18.208L16.778,18.208C16.109,18.208 16.097,18.861 16.097,18.889C16.097,18.942 16.054,18.986 16,18.986ZM12.425,10.081L12.425,16.555C12.425,17.281 12.809,18.013 13.667,18.013L15.222,18.013C15.652,18.013 15.885,18.233 16,18.473C16.115,18.233 16.348,18.013 16.778,18.013L18.333,18.013C19.078,18.013 19.559,17.441 19.559,16.555L19.559,10.081L12.425,10.081Z" fill="#212121" />
  <path d="M19.111,12.464C19.111,12.704 18.99,12.957 18.811,13.096C18.99,13.235 19.111,13.488 19.111,13.728C19.111,14.146 18.763,14.583 18.333,14.583L13.667,14.583C13.237,14.583 12.889,14.04 12.889,13.611C12.889,13.375 13,13.171 13.166,13.028C13,12.885 12.889,12.681 12.889,12.444C12.889,12.208 13,12.004 13.166,11.861C13,11.718 12.889,11.514 12.889,11.278C12.889,10.848 13.237,10.5 13.667,10.5C13.903,10.5 14.107,10.611 14.25,10.778C14.392,10.611 14.597,10.5 14.833,10.5C15.069,10.5 15.274,10.611 15.417,10.778C15.559,10.611 15.764,10.5 16,10.5C16.236,10.5 16.439,10.61 16.582,10.775C16.725,10.61 16.929,10.5 17.167,10.5C17.411,10.5 17.619,10.618 17.762,10.792C17.904,10.638 18.105,10.539 18.333,10.539C18.763,10.539 19.111,10.879 19.111,11.297C19.111,11.538 18.99,11.742 18.811,11.881C18.99,12.02 19.111,12.224 19.111,12.464ZM16,12.833C15.276,12.833 14.673,12.336 14.499,11.667C14.467,11.792 14.444,11.92 14.444,12.056C14.444,12.914 15.141,13.611 16,13.611C16.859,13.611 17.556,12.914 17.556,12.056C17.556,11.92 17.533,11.792 17.5,11.667C17.327,12.336 16.724,12.833 16,12.833Z" fill="#1345b7" />
  <path d="M19.111,14.408C19.111,14.257 19.064,14.117 18.987,14L13.013,14C12.935,14.118 12.888,14.257 12.888,14.408C12.888,14.645 13.002,14.852 13.175,14.992C13.001,15.131 12.888,15.339 12.888,15.575C12.888,15.811 13.002,16.019 13.175,16.158C13.001,16.298 12.888,16.505 12.888,16.742C12.888,17.16 13.237,17.5 13.667,17.5C13.9,17.5 14.107,17.397 14.25,17.239C14.392,17.397 14.599,17.5 14.833,17.5C15.067,17.5 15.274,17.397 15.417,17.239C15.559,17.397 15.766,17.5 16,17.5C16.233,17.5 16.44,17.397 16.583,17.239C16.726,17.397 16.933,17.5 17.167,17.5C17.4,17.5 17.607,17.397 17.75,17.239C17.892,17.397 18.099,17.5 18.333,17.5C18.763,17.5 19.111,17.16 19.111,16.742C19.111,16.505 18.998,16.298 18.824,16.158C18.998,16.02 19.111,15.811 19.111,15.575C19.111,15.339 18.998,15.131 18.824,14.992C18.998,14.853 19.111,14.645 19.111,14.408Z" fill="#f8312f" />
  <path d="M15.12,15.654C15.042,15.609 14.968,15.578 14.898,15.556C14.967,15.533 15.042,15.502 15.12,15.457C15.344,15.328 15.49,15.164 15.447,15.089C15.403,15.014 15.188,15.059 14.965,15.188C14.886,15.233 14.823,15.282 14.769,15.331C14.784,15.259 14.794,15.18 14.794,15.089C14.794,14.831 14.725,14.621 14.639,14.621C14.553,14.621 14.483,14.831 14.483,15.089C14.483,15.179 14.494,15.259 14.509,15.331C14.455,15.283 14.391,15.233 14.312,15.188C14.089,15.059 13.874,15.014 13.83,15.089C13.787,15.164 13.933,15.328 14.157,15.457C14.235,15.502 14.309,15.533 14.378,15.556C14.309,15.578 14.234,15.609 14.157,15.654C13.933,15.783 13.786,15.948 13.83,16.022C13.873,16.097 14.089,16.053 14.312,15.923C14.391,15.878 14.455,15.829 14.509,15.78C14.494,15.852 14.483,15.931 14.483,16.022C14.483,16.28 14.553,16.49 14.639,16.49C14.724,16.49 14.794,16.28 14.794,16.022C14.794,15.932 14.784,15.852 14.769,15.781C14.823,15.83 14.887,15.879 14.966,15.924C15.189,16.053 15.404,16.097 15.448,16.022C15.49,15.948 15.344,15.783 15.12,15.654ZM17.843,15.654C17.764,15.609 17.69,15.578 17.621,15.556C17.69,15.533 17.765,15.502 17.843,15.457C18.066,15.328 18.212,15.164 18.169,15.089C18.126,15.014 17.91,15.059 17.687,15.188C17.609,15.233 17.545,15.282 17.491,15.33C17.506,15.258 17.517,15.179 17.517,15.089C17.517,14.831 17.447,14.621 17.361,14.621C17.276,14.621 17.206,14.831 17.206,15.089C17.206,15.179 17.216,15.259 17.231,15.331C17.177,15.282 17.113,15.233 17.034,15.188C16.811,15.059 16.596,15.014 16.552,15.089C16.509,15.164 16.656,15.328 16.879,15.457C16.957,15.502 17.032,15.533 17.101,15.556C17.032,15.578 16.957,15.609 16.879,15.654C16.656,15.783 16.509,15.948 16.552,16.022C16.596,16.097 16.811,16.053 17.034,15.923C17.113,15.878 17.177,15.829 17.231,15.78C17.216,15.852 17.206,15.931 17.206,16.022C17.206,16.28 17.276,16.49 17.361,16.49C17.447,16.49 17.517,16.28 17.517,16.022C17.517,15.932 17.506,15.853 17.491,15.781C17.545,15.829 17.608,15.879 17.687,15.924C17.91,16.053 18.126,16.097 18.169,16.022C18.213,15.948 18.066,15.783 17.843,15.654Z" fill="#fdbb11" />
  <path d="M9.141,21.901C9.141,21.901 11.005,20.891 11.604,20.755C12.204,20.617 12.887,20.601 12.614,21.011C12.34,21.421 12.665,21.918 12.238,21.866C11.811,21.815 10.835,22.26 10.475,22.415C10.116,22.568 9.585,22.843 9.585,22.843L9.141,21.901Z" fill="#CDD4D9" />
  <path d="M23.12,21.901C23.12,21.901 21.255,20.891 20.655,20.755C20.057,20.617 19.372,20.601 19.645,21.011C19.921,21.421 19.595,21.918 20.023,21.866C20.451,21.815 21.425,22.26 21.785,22.415C22.144,22.568 22.676,22.843 22.676,22.843L23.12,21.901Z" fill="#CDD4D9" />
  <path d="M12.887,21.268C12.785,21.012 12.649,20.756 12.649,20.756C12.649,20.756 12.583,20.911 12.348,21.018C12.145,21.11 11.943,21.275 11.998,21.389C12.073,21.548 12.887,21.268 12.887,21.268Z" fill="#728592" />
  <path d="M19.372,21.268C19.475,21.012 19.61,20.756 19.61,20.756C19.61,20.756 19.677,20.911 19.912,21.018C20.116,21.11 20.317,21.275 20.262,21.389C20.188,21.548 19.372,21.268 19.372,21.268Z" fill="#728592" />
  <path d="M7.028,9.625L7.798,9.819L8.445,9.301C8.445,9.301 9.223,9.009 9.645,9.236C10.066,9.463 9.709,9.431 9.32,9.528C8.932,9.625 8.849,10.012 8.948,10.159C9.094,10.378 9.538,10.396 9.483,10.062C9.459,9.916 10.099,10.24 10.034,10.597L9.969,10.953C9.969,10.953 9.936,11.764 10.455,11.926C10.974,12.087 10.917,12.574 10.431,12.542C9.945,12.51 9.127,11.894 9.127,11.894C9.127,11.894 8.705,12.185 8.608,11.991C8.608,11.991 7.603,11.764 7.733,10.857C7.733,10.857 7.417,11.862 8.049,12.202C8.959,12.692 9.072,12.354 9.839,12.963C10.747,13.684 11.459,15.021 11.233,16.868C11.007,18.716 10.488,19.955 8.414,19.955C7.199,19.955 6.542,19.048 6.542,18.157C6.541,17.265 7.343,16.722 7.854,16.722C8.461,16.722 8.655,17.306 8.583,17.452C8.339,17.94 8.105,17.603 8.291,17.379C8.413,17.232 8.169,17.002 7.878,17.014C7.295,17.038 6.979,17.605 6.979,18.156C6.979,18.708 7.603,19.542 8.381,19.542C9.159,19.542 10.034,18.829 10.034,17.727C10.034,16.625 9.579,15.913 8.834,15.297L8.462,16.018C8.462,16.018 7.036,15.815 6.226,14.972C5.415,14.13 5.494,13.057 5.642,13.174C5.983,13.442 6.793,13.482 6.793,13.482C6.793,13.482 6.469,12.801 6.242,12.672C6.015,12.542 5.553,11.845 5.91,11.035C6.266,10.225 6.793,9.982 6.923,10.241C7.052,10.5 7.392,10.322 7.295,10.063C7.198,9.804 7.028,9.625 7.028,9.625Z" fill="#CDD4D9" />
  <path d="M24.928,9.625L24.159,9.819L23.51,9.301C23.51,9.301 22.732,9.009 22.312,9.236C21.89,9.463 22.246,9.431 22.635,9.528C23.024,9.625 23.107,10.012 23.008,10.159C22.862,10.378 22.417,10.396 22.473,10.062C22.497,9.916 21.857,10.24 21.922,10.597L21.987,10.953C21.987,10.953 22.019,11.764 21.5,11.926C20.982,12.087 21.038,12.574 21.525,12.542C22.011,12.51 22.829,11.894 22.829,11.894C22.829,11.894 23.25,12.185 23.348,11.991C23.348,11.991 24.353,11.764 24.223,10.857C24.223,10.857 24.538,11.862 23.907,12.202C22.996,12.692 22.884,12.354 22.116,12.963C21.209,13.684 20.496,15.021 20.723,16.868C20.95,18.716 21.468,19.955 23.542,19.955C24.757,19.955 25.413,19.048 25.413,18.157C25.413,17.266 24.612,16.723 24.101,16.723C23.493,16.723 23.299,17.306 23.371,17.453C23.614,17.941 23.849,17.603 23.663,17.379C23.541,17.233 23.785,17.003 24.076,17.015C24.659,17.039 24.975,17.606 24.975,18.157C24.975,18.709 24.351,19.542 23.573,19.542C22.795,19.542 21.92,18.83 21.92,17.728C21.92,16.626 22.375,15.913 23.119,15.297L23.492,16.018C23.492,16.018 24.917,15.815 25.728,14.973C26.538,14.131 26.459,13.057 26.311,13.175C25.97,13.442 25.161,13.483 25.161,13.483C25.161,13.483 25.484,12.802 25.712,12.672C25.938,12.542 26.4,11.846 26.044,11.036C25.688,10.226 25.161,9.983 25.032,10.242C24.902,10.501 24.562,10.323 24.659,10.064C24.756,9.805 24.928,9.625 24.928,9.625Z" fill="#CDD4D9" />
  <path d="M19.082,20.875C18.62,20.721 17.354,20.634 16.943,20.634L15.318,20.634C14.907,20.634 13.642,20.72 13.179,20.875C12.717,21.029 12.317,21.397 11.998,21.388C12.022,21.485 12.049,21.61 12.169,21.987C12.288,22.363 12.614,22.346 12.991,22.159C13.367,21.97 13.916,21.851 14.429,21.851L17.833,21.851C18.347,21.851 18.895,21.97 19.271,22.159C19.647,22.346 19.973,22.364 20.093,21.987C20.212,21.611 20.24,21.485 20.264,21.388C19.943,21.397 19.544,21.029 19.082,20.875Z" fill="#CDD4D9" />
  <path d="M6.615,13.149C7.077,13.781 7.611,14.607 8.389,15.02C9.166,15.433 10.066,16.503 10.066,17.572C10.066,18.642 9.345,19.541 8.381,19.541C7.416,19.541 6.955,18.642 6.955,18.058C6.955,17.475 7.465,17.159 7.465,17.159C7.465,17.159 6.906,17.281 6.785,18.01C6.677,18.657 7.295,19.712 8.316,19.712C9.823,19.712 10.382,18.692 10.382,17.573C10.382,16.455 9.41,15.24 8.753,14.583C8.097,13.927 7.198,13.174 6.785,12.736C6.372,12.298 6.615,13.149 6.615,13.149Z" fill="#8F9DA7" />
  <path d="M25.341,13.149C24.879,13.781 24.345,14.607 23.567,15.02C22.789,15.433 21.89,16.503 21.89,17.572C21.89,18.642 22.611,19.541 23.576,19.541C24.539,19.541 25.001,18.642 25.001,18.058C25.001,17.475 24.491,17.159 24.491,17.159C24.491,17.159 25.05,17.281 25.172,18.01C25.28,18.657 24.661,19.712 23.64,19.712C22.133,19.712 21.574,18.692 21.574,17.573C21.574,16.455 22.547,15.24 23.203,14.583C23.859,13.927 24.759,13.174 25.172,12.736C25.584,12.298 25.341,13.149 25.341,13.149Z" fill="#8F9DA7" />
  <path d="M14.122,21L15.467,21L15.467,21.637L14.122,21.637L14.122,21ZM16.138,21L18.432,21L18.432,21.637L16.138,21.637L16.138,21Z" fill="#8F9DA7" />
</svg>
