<svg width="32" height="32" viewBox="0 0 32 32" xmlns="http://www.w3.org/2000/svg">
  <polygon fill="#FDBB11" points="2,16 3,15 29,15 30,16 30,21 29,22 3,22 2,21" />
  <rect fill="#00A6ED" x="2" y="6" width="28" height="10" />
  <rect fill="#276038" x="2" y="21" width="28" height="5" />
  <path d="M22.521,11.327L20,11L22.521,10.673C22.507,10.78 22.5,10.889 22.5,11C22.5,11.111 22.507,11.22 22.521,11.327ZM22.521,10.673L20.17,9.706L22.69,10.043C22.608,10.242 22.55,10.453 22.521,10.673ZM22.69,10.043L20.669,8.5L23.016,9.478C22.884,9.65 22.774,9.84 22.69,10.043ZM23.016,9.478L21.465,7.464L23.478,9.017C23.305,9.15 23.15,9.305 23.016,9.478ZM23.478,9.017L22.5,6.67L24.043,8.69C23.84,8.774 23.65,8.885 23.478,9.017ZM24.043,8.69L23.706,6.17L24.674,8.521C24.453,8.55 24.242,8.608 24.043,8.69ZM24.674,8.521L25,6L25.326,8.521C25.219,8.507 25.111,8.5 25,8.5C24.889,8.5 24.781,8.507 24.674,8.521ZM25.326,8.521L26.294,6.17L25.957,8.69C25.758,8.608 25.547,8.55 25.326,8.521ZM25.957,8.69L27.5,6.67L26.522,9.017C26.35,8.885 26.16,8.774 25.957,8.69ZM26.522,9.017L28.535,7.464L26.983,9.478C26.85,9.305 26.695,9.15 26.522,9.017ZM26.983,9.478L29.331,8.5L27.31,10.043C27.225,9.84 27.115,9.65 26.983,9.478ZM27.31,10.043L29.83,9.706L27.479,10.673C27.45,10.453 27.392,10.242 27.31,10.043ZM27.479,10.673L30,11L27.479,11.327C27.493,11.22 27.5,11.111 27.5,11C27.5,10.889 27.493,10.78 27.479,10.673ZM27.479,11.327L29.83,12.294L27.31,11.957C27.392,11.758 27.45,11.547 27.479,11.327ZM27.31,11.957L29.331,13.5L26.983,12.522C27.115,12.35 27.225,12.16 27.31,11.957ZM26.983,12.522L28.535,14.536L26.522,12.983C26.695,12.85 26.85,12.695 26.983,12.522ZM26.522,12.983L27.5,15.331L25.957,13.31C26.16,13.225 26.35,13.115 26.522,12.983ZM25.957,13.31L26.294,15.83L25.326,13.479C25.547,13.45 25.758,13.392 25.957,13.31ZM25.326,13.479L25,16L24.674,13.479C24.781,13.493 24.889,13.5 25,13.5C25.111,13.5 25.219,13.493 25.326,13.479ZM24.674,13.479L23.706,15.83L24.043,13.31C24.242,13.392 24.453,13.45 24.674,13.479ZM24.043,13.31L22.5,15.331L23.478,12.983C23.65,13.115 23.84,13.225 24.043,13.31ZM23.478,12.983L21.465,14.536L23.016,12.522C23.15,12.695 23.305,12.85 23.478,12.983ZM23.016,12.522L20.669,13.5L22.69,11.957C22.774,12.16 22.884,12.35 23.016,12.522ZM22.69,11.957L20.17,12.294L22.521,11.327C22.55,11.547 22.608,11.758 22.69,11.957ZM25,9.125C26.035,9.125 26.875,9.965 26.875,11C26.875,12.035 26.035,12.875 25,12.875C23.965,12.875 23.125,12.035 23.125,11C23.125,9.965 23.965,9.125 25,9.125Z" fill="#FCD53F" />
</svg>
