<svg width="32" height="32" viewBox="0 0 32 32" xmlns="http://www.w3.org/2000/svg">
  <polygon fill="#E71A43" points="2,12 3,11 29,11 30,12 30,13 29,14 3,14 2,13" />
  <polygon fill="#E71A43" points="2,20 3,21 29,21 30,20 30,19 29,18 3,18 2,19" />
  <rect fill="#00999e" x="2" y="6" width="28" height="6" />
  <rect fill="#f4f4f4" x="2" y="13" width="28" height="6" />
  <rect fill="#60BC55" x="2" y="20" width="28" height="6" />
  <path d="M5.15,9.12C5.15,7.96 5.994,6.999 7.1,6.813C6.973,6.792 6.843,6.78 6.71,6.78C5.418,6.78 4.37,7.828 4.37,9.12C4.37,10.412 5.418,11.46 6.71,11.46C6.843,11.46 6.973,11.448 7.1,11.427C5.994,11.241 5.15,10.28 5.15,9.12ZM8.662,10.847L8.557,10.524L8.452,10.847L8.112,10.847L8.387,11.048L8.282,11.371L8.557,11.171L8.832,11.371L8.727,11.048L9.002,10.847L8.662,10.847ZM10.689,10.847L10.584,10.524L10.479,10.847L10.139,10.847L10.414,11.048L10.309,11.371L10.584,11.171L10.859,11.371L10.754,11.048L11.029,10.847L10.689,10.847ZM10.584,8.652L10.479,8.975L10.139,8.975L10.414,9.176L10.309,9.499L10.584,9.299L10.859,9.499L10.754,9.176L11.029,8.975L10.689,8.975L10.584,8.652ZM12.716,10.847L12.611,10.524L12.506,10.847L12.166,10.847L12.441,11.048L12.336,11.371L12.611,11.171L12.886,11.371L12.781,11.048L13.056,10.847L12.716,10.847ZM12.611,8.652L12.506,8.975L12.166,8.975L12.441,9.176L12.336,9.499L12.611,9.299L12.886,9.499L12.781,9.176L13.056,8.975L12.716,8.975L12.611,8.652ZM12.611,6.78L12.506,7.103L12.166,7.103L12.441,7.304L12.336,7.627L12.611,7.427L12.886,7.627L12.781,7.304L13.056,7.103L12.716,7.103L12.611,6.78ZM14.743,10.847L14.638,10.524L14.533,10.847L14.193,10.847L14.468,11.048L14.363,11.371L14.638,11.171L14.913,11.371L14.808,11.048L15.083,10.847L14.743,10.847ZM14.638,8.652L14.533,8.975L14.193,8.975L14.468,9.176L14.363,9.499L14.638,9.299L14.913,9.499L14.808,9.176L15.083,8.975L14.743,8.975L14.638,8.652ZM14.638,6.78L14.533,7.103L14.193,7.103L14.468,7.304L14.363,7.627L14.638,7.427L14.913,7.627L14.808,7.304L15.083,7.103L14.743,7.103L14.638,6.78ZM16.77,10.847L16.665,10.524L16.56,10.847L16.22,10.847L16.495,11.048L16.39,11.371L16.665,11.171L16.94,11.371L16.835,11.048L17.11,10.847L16.77,10.847ZM16.665,8.652L16.56,8.975L16.22,8.975L16.495,9.176L16.39,9.499L16.665,9.299L16.94,9.499L16.835,9.176L17.11,8.975L16.77,8.975L16.665,8.652ZM16.665,6.78L16.56,7.103L16.22,7.103L16.495,7.304L16.39,7.627L16.665,7.427L16.94,7.627L16.835,7.304L17.11,7.103L16.77,7.103L16.665,6.78Z" fill="#f4f4f4" />
</svg>
